<?xml version="1.0" encoding="UTF-8"?>
<svg enable-background="new 0 0 108.3 108.3" version="1.1" viewBox="0 0 108.3 108.3" xml:space="preserve" xmlns="http://www.w3.org/2000/svg">
<style type="text/css">
	.st0{fill:none;stroke:#B7B7B7;stroke-miterlimit:10;}
	.st1{fill:none;stroke:#B7B7B7;stroke-width:3;stroke-miterlimit:10;}
</style>
		<path class="st0" d="m107.3 54.1c0 29.3-23.8 53.1-53.1 53.1s-53.2-23.7-53.2-53.1c0-29.3 23.8-53.1 53.1-53.1 29.4 0 53.2 23.8 53.2 53.1z"/>
		<path class="st1" d="m37.3 27h33.7c5.5 0 10 4.5 10 10v33.7c0 5.5-4.5 10-10 10h-33.7c-5.5 0-10-4.5-10-10v-33.7c0-5.5 4.4-10 10-10zm16.8 13.4c7.4 0 13.5 6 13.5 13.5s-6 13.5-13.5 13.5-13.5-6-13.5-13.5 6.1-13.5 13.5-13.5zm16.2-5.4c1.4 0 2.4 1.1 2.4 2.5s-1.1 2.5-2.4 2.5-2.4-1.1-2.4-2.5 1-2.5 2.4-2.5z"/>
</svg>
