<?xml version="1.0" encoding="UTF-8"?>
<svg enable-background="new 0 0 108.3 108.3" version="1.1" viewBox="0 0 108.3 108.3" xml:space="preserve" xmlns="http://www.w3.org/2000/svg">
<style type="text/css">
	.st0{fill:none;stroke:#B7B7B7;stroke-miterlimit:10;}
	.st1{fill:#B7B7B7;}
</style>
<title>Asset 4</title>
		<path class="st0" d="m107.3 54.1c0 29.3-23.8 53.1-53.1 53.1s-53.2-23.7-53.2-53.1c0-29.3 23.8-53.1 53.1-53.1 29.4 0 53.2 23.8 53.2 53.1z"/>
		<path class="st1" d="m84.6 37.4c-2 0.8-4 1.4-6.1 1.7 0 0 4.1-3.3 4.5-6.1-2.1 1.4-4.5 2.3-7 2.7-2.8-3-7.1-4.2-11.1-3.1-7.2 1.7-8.7 9.8-7.9 13 0 0-12.5 0.2-22.8-11.4-0.3 1-0.8 2.5-1.1 3.3-0.5 1.6-0.8 3.3-1 5.1-0.7 6.8 1.6 13.6 6.2 18.7 1.2 1.3 2.4 2.4 3.8 3.4 1.3 0.9 3.1 2.3 4.8 1.9-2.9 0.7-5.7 1.7-8.6 2.3-4.4 0.8-8.9 0.8-13.4 0 0 0 15.3 9.5 28.7 6.6 0.7-0.1 1.3-0.3 2-0.5 8.6-2.4 15.8-8.2 20-16.1 0.3-0.5 0.5-1.1 0.8-1.6 2-4.5 2.9-9.4 2.7-14.3 0 0 4.2-3 5.5-5.6z"/>
</svg>
