<?xml version="1.0" encoding="UTF-8"?>
<svg enable-background="new 0 0 108.3 108.3" version="1.1" viewBox="0 0 108.3 108.3" xml:space="preserve" xmlns="http://www.w3.org/2000/svg">
<style type="text/css">
	.st0{fill:none;stroke:#B7B7B7;stroke-miterlimit:10;}
	.st1{fill:#B7B7B7;}
</style>
		<path class="st0" d="m107.3 54.1c0 29.3-23.8 53.1-53.1 53.1s-53.2-23.7-53.2-53.1c0-29.3 23.8-53.1 53.1-53.1 29.4 0 53.2 23.8 53.2 53.1z"/>
		<path class="st1" d="m79.4 32.2h-50.1c-2.4 0-4.3 2.8-4.3 6.3v31.3c0 3.5 1.9 6.3 4.3 6.3h50.1c2.4 0 4.3-2.8 4.3-6.3v-31.3c0.1-3.5-1.9-6.3-4.3-6.3zm-14.4 23.3-14.1 9c-0.5 0.3-1.1 0.3-1.6 0s-0.8-0.8-0.8-1.4v-18c0-0.6 0.3-1.1 0.8-1.4s1.1-0.3 1.6 0l14.1 9c0.5 0.3 0.8 0.8 0.8 1.4s-0.3 1.1-0.8 1.4z"/>
</svg>
