<?xml version="1.0" encoding="utf-8"?>
<!-- Generator: Adobe Illustrator 22.0.0, SVG Export Plug-In . SVG Version: 6.00 Build 0)  -->
<svg version="1.1" id="Layer_1" xmlns="http://www.w3.org/2000/svg" xmlns:xlink="http://www.w3.org/1999/xlink" x="0px" y="0px"
	 viewBox="0 0 129.64 47.09" style="enable-background:new 0 0 129.64 47.09;" xml:space="preserve">
<style type="text/css">
	.st0{fill:#C62026;}
	.st1{display:none;fill:#010101;}
	.st2{fill:#010101;}
</style>
<path class="st0" d="M0.31,0L4.8,10.27L9.27,0H9.6L5,10.65H4.63L0,0H0.31z M11.37,10.65V0h0.3v10.65H11.37z M14.19,10.65v-1h0.3v1
	H14.19z"/>
<path class="st1" d="M2.38,58.91H2.6l1.5,3.54H3.83l-0.49-1.17h-1.7l-0.49,1.17H0.88L2.38,58.91z M3.27,61.07l-0.78-1.85L1.7,61.07
	H3.27z M6.93,62.45H6.68V61c0.02-0.25-0.03-0.5-0.14-0.73C6.45,60.1,6.28,60,6.09,60c-0.11,0-0.22,0.02-0.33,0.06
	c-0.11,0.04-0.21,0.1-0.3,0.17c-0.09,0.07-0.17,0.16-0.24,0.26c-0.07,0.1-0.12,0.2-0.16,0.31v1.61H4.81v-2.55h0.24v0.62
	c0.05-0.1,0.12-0.19,0.19-0.28c0.08-0.08,0.17-0.14,0.27-0.2c0.1-0.05,0.2-0.1,0.31-0.13c0.11-0.02,0.23-0.02,0.34,0
	c0.24-0.02,0.47,0.09,0.6,0.3c0.13,0.26,0.19,0.56,0.17,0.85L6.93,62.45z M10.57,62.5c-0.18,0-0.35-0.03-0.51-0.11
	c-0.15-0.07-0.29-0.17-0.4-0.29c-0.12-0.12-0.21-0.27-0.27-0.43c-0.07-0.17-0.1-0.35-0.1-0.53c0-0.18,0.03-0.35,0.1-0.51
	c0.06-0.16,0.15-0.3,0.26-0.43c0.12-0.12,0.25-0.21,0.4-0.28c0.16-0.07,0.33-0.11,0.51-0.11c0.17,0,0.34,0.04,0.5,0.11
	c0.16,0.07,0.29,0.17,0.41,0.29c0.11,0.12,0.2,0.26,0.26,0.42c0.07,0.16,0.1,0.33,0.1,0.51v0.07l0,0H9.55
	c0.01,0.14,0.04,0.29,0.1,0.42c0.06,0.12,0.13,0.23,0.23,0.33c0.09,0.1,0.2,0.17,0.32,0.22c0.12,0.06,0.25,0.08,0.38,0.08
	c0.09,0.01,0.18,0.01,0.27,0c0.08-0.02,0.17-0.05,0.24-0.1c0.08-0.04,0.14-0.1,0.2-0.16c0.06-0.06,0.1-0.12,0.13-0.2l0.22,0.06
	c-0.03,0.1-0.09,0.19-0.16,0.26c-0.07,0.08-0.15,0.15-0.25,0.2c-0.1,0.06-0.2,0.1-0.31,0.13C10.81,62.49,10.69,62.5,10.57,62.5z
	 M11.57,61.05c-0.01-0.14-0.04-0.28-0.1-0.41c-0.06-0.12-0.13-0.23-0.23-0.33c-0.09-0.09-0.2-0.16-0.31-0.22
	c-0.12-0.05-0.26-0.07-0.39-0.07c-0.13,0-0.26,0.02-0.38,0.07c-0.12,0.06-0.23,0.13-0.32,0.22c-0.09,0.1-0.17,0.21-0.22,0.33
	c-0.05,0.13-0.09,0.27-0.1,0.41H11.57z M13.27,62.5c-0.12,0-0.23-0.02-0.34-0.06c-0.1-0.04-0.19-0.1-0.27-0.17
	c-0.08-0.07-0.14-0.15-0.18-0.25c-0.05-0.1-0.07-0.21-0.07-0.32c0-0.11,0.03-0.22,0.08-0.31c0.05-0.1,0.13-0.18,0.22-0.24
	c0.11-0.07,0.23-0.13,0.35-0.16c0.14-0.04,0.28-0.06,0.43-0.06c0.14-0.01,0.29-0.01,0.43,0c0.13,0.02,0.26,0.05,0.38,0.1v-0.26
	c0.01-0.21-0.06-0.42-0.21-0.58c-0.15-0.15-0.36-0.23-0.57-0.22c-0.14,0-0.27,0.03-0.4,0.08c-0.15,0.06-0.3,0.13-0.43,0.23
	l-0.1-0.17c0.28-0.2,0.61-0.32,0.95-0.34c0.27-0.02,0.54,0.08,0.74,0.27c0.19,0.2,0.29,0.47,0.27,0.75v1.31c0,0.09,0,0.13,0.11,0.13
	v0.22h-0.1c-0.06,0-0.12-0.02-0.16-0.07c-0.04-0.04-0.07-0.1-0.07-0.16V62c-0.12,0.15-0.28,0.28-0.46,0.36
	C13.68,62.45,13.48,62.49,13.27,62.5z M13.27,62.3c0.19,0.01,0.37-0.03,0.54-0.11c0.15-0.06,0.27-0.16,0.37-0.29
	c0.05-0.06,0.08-0.13,0.08-0.2v-0.46c-0.12-0.04-0.25-0.08-0.38-0.1c-0.13-0.01-0.27-0.01-0.4,0c-0.12-0.02-0.23-0.02-0.35,0
	c-0.1,0.02-0.19,0.06-0.28,0.11c-0.07,0.05-0.14,0.11-0.18,0.19c-0.04,0.07-0.06,0.15-0.06,0.23c-0.02,0.08-0.02,0.17,0,0.25
	c0.03,0.07,0.08,0.14,0.14,0.19c0.13,0.12,0.3,0.18,0.47,0.18L13.27,62.3z M16.38,62.5c-0.19,0-0.39-0.03-0.57-0.1
	c-0.18-0.06-0.35-0.16-0.48-0.3l0.12-0.17c0.13,0.12,0.28,0.21,0.44,0.28c0.16,0.06,0.32,0.09,0.49,0.09
	c0.19,0.01,0.38-0.04,0.55-0.14c0.13-0.09,0.2-0.24,0.2-0.4c0.01-0.07-0.01-0.14-0.05-0.2c-0.04-0.06-0.1-0.11-0.16-0.14
	c-0.08-0.04-0.17-0.08-0.26-0.1l-0.36-0.1c-0.13-0.02-0.26-0.06-0.38-0.1c-0.09-0.02-0.18-0.06-0.26-0.12
	c-0.07-0.04-0.13-0.1-0.16-0.17c-0.04-0.08-0.06-0.16-0.05-0.25c0-0.12,0.02-0.23,0.07-0.34c0.05-0.1,0.12-0.18,0.21-0.24
	c0.09-0.06,0.19-0.11,0.3-0.14c0.12-0.02,0.25-0.02,0.37,0c0.18,0,0.37,0.03,0.54,0.1c0.14,0.06,0.26,0.15,0.36,0.27l-0.14,0.13
	c-0.09-0.1-0.2-0.18-0.33-0.22c-0.14-0.05-0.3-0.08-0.45-0.08h-0.27c-0.08,0.02-0.15,0.05-0.22,0.1c-0.06,0.04-0.11,0.1-0.15,0.16
	c-0.05,0.14-0.05,0.29,0,0.43c0.03,0.05,0.07,0.09,0.12,0.12l0.21,0.09l0.31,0.08l0.44,0.11c0.11,0.04,0.22,0.08,0.32,0.14
	c0.08,0.05,0.14,0.11,0.19,0.19c0.05,0.09,0.07,0.18,0.07,0.28c0.01,0.22-0.1,0.43-0.28,0.55C16.9,62.46,16.64,62.52,16.38,62.5z
	 M18.33,63.33h0.17h0.08c0,0,0,0,0.05-0.05c0.03-0.03,0.05-0.07,0.07-0.11l0.12-0.25l0.19-0.45l-1.16-2.59h0.26l1,2.35l1-2.35h0.24
	l-1.42,3.41c-0.04,0.09-0.1,0.17-0.18,0.22c-0.1,0.05-0.22,0.08-0.33,0.07h-0.09V63.33z M21,61.21V61h1.4v0.23L21,61.21z
	 M24.46,62.5c-0.17,0.01-0.35-0.03-0.5-0.11c-0.16-0.07-0.3-0.17-0.41-0.29c-0.12-0.12-0.2-0.27-0.26-0.43
	c-0.06-0.16-0.09-0.34-0.09-0.51c0-0.18,0.03-0.35,0.09-0.52c0.07-0.16,0.16-0.3,0.27-0.43c0.11-0.12,0.25-0.22,0.4-0.29
	c0.16-0.07,0.33-0.11,0.5-0.11c0.17,0,0.34,0.04,0.5,0.11c0.15,0.07,0.29,0.17,0.4,0.29c0.12,0.12,0.21,0.27,0.27,0.43
	c0.07,0.16,0.1,0.34,0.1,0.52c0,0.18-0.03,0.35-0.1,0.51c-0.06,0.16-0.14,0.31-0.26,0.43c-0.11,0.12-0.25,0.22-0.41,0.29
	C24.81,62.47,24.63,62.51,24.46,62.5z M23.46,61.17c0,0.29,0.1,0.57,0.3,0.78c0.09,0.1,0.2,0.18,0.32,0.24
	c0.12,0.06,0.26,0.09,0.4,0.09c0.14,0,0.27-0.03,0.39-0.09c0.12-0.06,0.24-0.14,0.33-0.24c0.09-0.11,0.16-0.23,0.22-0.36
	c0.05-0.14,0.08-0.29,0.08-0.44c0-0.15-0.03-0.29-0.08-0.43c-0.06-0.13-0.13-0.25-0.22-0.35c-0.09-0.1-0.21-0.18-0.33-0.24
	c-0.25-0.12-0.53-0.12-0.78,0c-0.12,0.06-0.23,0.14-0.32,0.24c-0.1,0.1-0.17,0.23-0.22,0.36c-0.07,0.14-0.1,0.29-0.11,0.44H23.46z
	 M27.85,62.5c-0.21,0.01-0.42-0.06-0.6-0.18c-0.17-0.11-0.31-0.26-0.42-0.43v1.62h-0.25v-3.65h0.23v0.52
	c0.11-0.17,0.25-0.31,0.42-0.41c0.17-0.11,0.36-0.16,0.56-0.16c0.34,0.01,0.67,0.16,0.89,0.42c0.11,0.13,0.2,0.27,0.26,0.43
	c0.11,0.32,0.11,0.68,0,1c-0.05,0.16-0.13,0.3-0.24,0.43c-0.1,0.12-0.23,0.22-0.38,0.29C28.18,62.46,28.01,62.5,27.85,62.5z
	 M27.79,62.28c0.14,0,0.28-0.03,0.41-0.1c0.12-0.06,0.23-0.15,0.31-0.25c0.09-0.1,0.16-0.23,0.2-0.36c0.05-0.13,0.07-0.27,0.07-0.41
	c0-0.15-0.03-0.29-0.08-0.43c-0.05-0.13-0.13-0.25-0.22-0.35c-0.09-0.1-0.21-0.19-0.33-0.25c-0.22-0.09-0.47-0.09-0.69,0
	c-0.1,0.04-0.2,0.09-0.29,0.16c-0.09,0.06-0.17,0.13-0.23,0.22c-0.06,0.08-0.1,0.17-0.11,0.26v0.86c0.04,0.1,0.1,0.19,0.16,0.27
	c0.07,0.08,0.15,0.15,0.23,0.22c0.08,0.06,0.17,0.11,0.27,0.14C27.59,62.29,27.69,62.29,27.79,62.28z M31,62.5
	c-0.18,0.01-0.35-0.03-0.51-0.11c-0.16-0.07-0.29-0.17-0.41-0.29c-0.12-0.12-0.21-0.27-0.27-0.43c-0.06-0.17-0.1-0.35-0.1-0.53
	c0-0.17,0.04-0.35,0.1-0.51c0.06-0.16,0.15-0.31,0.27-0.43c0.11-0.12,0.25-0.22,0.4-0.28c0.16-0.07,0.33-0.11,0.5-0.11
	c0.18,0,0.35,0.04,0.51,0.11c0.15,0.07,0.29,0.17,0.4,0.29c0.12,0.12,0.21,0.26,0.27,0.42c0.06,0.16,0.09,0.34,0.09,0.51v0.11H30
	c0.01,0.15,0.05,0.29,0.11,0.42c0.05,0.12,0.13,0.23,0.22,0.33c0.09,0.09,0.2,0.17,0.32,0.22c0.12,0.06,0.26,0.08,0.39,0.08
	c0.09,0.01,0.17,0.01,0.26,0c0.09-0.02,0.17-0.05,0.24-0.1c0.08-0.04,0.15-0.09,0.2-0.16c0.06-0.06,0.11-0.13,0.14-0.2l0.22,0.06
	c-0.04,0.1-0.09,0.18-0.16,0.26c-0.07,0.08-0.16,0.15-0.25,0.2c-0.1,0.06-0.21,0.1-0.32,0.13C31.25,62.52,31.12,62.52,31,62.5z
	 M32,61.05c-0.01-0.14-0.04-0.28-0.1-0.41c-0.05-0.12-0.13-0.23-0.22-0.33c-0.1-0.09-0.2-0.16-0.32-0.22
	C31.25,60.04,31.12,60.01,31,60c-0.13,0-0.26,0.02-0.38,0.07c-0.12,0.06-0.22,0.13-0.32,0.22c-0.09,0.1-0.17,0.21-0.22,0.33
	c-0.05,0.13-0.08,0.27-0.09,0.41L32,61.05z M35.16,62.45h-0.25V61c0.02-0.25-0.03-0.5-0.14-0.73c-0.1-0.15-0.27-0.24-0.45-0.23
	c-0.11,0-0.22,0.02-0.33,0.06c-0.11,0.04-0.21,0.1-0.3,0.17c-0.09,0.07-0.18,0.16-0.24,0.26c-0.07,0.09-0.13,0.2-0.16,0.31v1.61H33
	v-2.59h0.24v0.62c0.05-0.1,0.11-0.2,0.19-0.28c0.08-0.08,0.17-0.15,0.27-0.21c0.1-0.06,0.2-0.1,0.31-0.13
	c0.11-0.02,0.23-0.02,0.34,0c0.24-0.02,0.47,0.09,0.6,0.3c0.13,0.26,0.18,0.56,0.17,0.85L35.16,62.45z M39,62.5
	c-0.21,0-0.42-0.06-0.59-0.18c-0.17-0.11-0.32-0.25-0.42-0.43v1.62H37.7v-3.65h0.23v0.52c0.1-0.17,0.25-0.31,0.42-0.41
	c0.17-0.11,0.36-0.16,0.56-0.16c0.17,0,0.35,0.04,0.5,0.12c0.15,0.07,0.28,0.17,0.39,0.3c0.11,0.13,0.2,0.27,0.26,0.43
	c0.06,0.16,0.09,0.33,0.09,0.5c0,0.17-0.03,0.35-0.08,0.51c-0.05,0.16-0.13,0.3-0.24,0.43c-0.11,0.12-0.23,0.22-0.38,0.29
	C39.31,62.46,39.16,62.5,39,62.5z M38.94,62.28c0.14,0,0.28-0.03,0.41-0.1c0.12-0.06,0.23-0.14,0.32-0.25
	c0.09-0.11,0.15-0.23,0.2-0.36c0.04-0.13,0.07-0.27,0.07-0.41c0-0.15-0.03-0.29-0.08-0.43c-0.06-0.13-0.13-0.25-0.22-0.35
	c-0.09-0.11-0.21-0.19-0.34-0.25c-0.12-0.06-0.26-0.09-0.4-0.09c-0.1,0-0.2,0.02-0.29,0.05c-0.1,0.04-0.19,0.09-0.28,0.16
	c-0.09,0.06-0.17,0.13-0.23,0.22c-0.06,0.07-0.1,0.16-0.11,0.26v0.86c0.04,0.1,0.09,0.19,0.16,0.27l0.22,0.22
	c0.08,0.06,0.17,0.11,0.27,0.14c0.08,0.03,0.17,0.05,0.26,0.06H38.94z M41.64,62.5c-0.12,0-0.23-0.02-0.34-0.06
	c-0.1-0.04-0.19-0.1-0.27-0.17c-0.08-0.07-0.14-0.15-0.18-0.25c-0.04-0.1-0.06-0.21-0.06-0.32c-0.01-0.11,0.02-0.22,0.08-0.31
	c0.05-0.1,0.13-0.18,0.22-0.24c0.1-0.07,0.22-0.13,0.34-0.16c0.14-0.04,0.29-0.06,0.44-0.06c0.14-0.01,0.28-0.01,0.42,0
	c0.13,0.02,0.26,0.05,0.38,0.1v-0.26c0.01-0.21-0.06-0.42-0.21-0.58c-0.15-0.15-0.36-0.23-0.57-0.22c-0.14,0-0.27,0.03-0.4,0.08
	c-0.15,0.06-0.3,0.14-0.43,0.23l-0.1-0.17c0.28-0.2,0.61-0.32,0.95-0.34c0.27-0.02,0.54,0.08,0.74,0.27
	c0.19,0.2,0.29,0.47,0.27,0.75v1.31c0,0.09,0,0.13,0.11,0.13v0.22h-0.1c-0.06,0-0.12-0.02-0.16-0.07c-0.04-0.04-0.07-0.1-0.07-0.16
	V62c-0.12,0.15-0.28,0.28-0.46,0.36C42.05,62.45,41.85,62.5,41.64,62.5z M41.64,62.3c0.18,0.01,0.36-0.03,0.53-0.11
	c0.15-0.06,0.27-0.16,0.37-0.29c0.05-0.06,0.08-0.13,0.08-0.2v-0.46c-0.12-0.04-0.24-0.08-0.37-0.1c-0.14-0.01-0.27-0.01-0.41,0
	c-0.12-0.02-0.23-0.02-0.35,0c-0.1,0.02-0.19,0.06-0.28,0.11c-0.07,0.05-0.13,0.11-0.17,0.19c-0.04,0.07-0.07,0.15-0.07,0.23
	c-0.02,0.08-0.02,0.17,0,0.25c0.04,0.07,0.08,0.14,0.14,0.19c0.06,0.06,0.14,0.1,0.22,0.13c0.11,0.06,0.24,0.08,0.36,0.06H41.64z
	 M43.75,61.14c-0.01-0.35,0.12-0.69,0.36-0.94c0.11-0.12,0.25-0.21,0.4-0.28c0.36-0.18,0.78-0.18,1.14,0
	c0.18,0.11,0.32,0.26,0.4,0.45l-0.24,0.08c-0.07-0.14-0.19-0.26-0.33-0.34C45.33,60.03,45.17,59.99,45,60
	c-0.14-0.01-0.27,0.02-0.4,0.08c-0.12,0.06-0.23,0.14-0.32,0.24c-0.1,0.1-0.17,0.22-0.22,0.35c-0.05,0.14-0.08,0.28-0.08,0.43
	c0,0.15,0.03,0.31,0.08,0.45c0.06,0.13,0.13,0.25,0.22,0.36c0.09,0.1,0.2,0.18,0.32,0.24c0.12,0.06,0.26,0.09,0.4,0.09
	c0.09,0.01,0.18,0.01,0.27,0c0.09-0.02,0.17-0.06,0.24-0.11c0.07-0.04,0.14-0.09,0.2-0.15c0.05-0.05,0.08-0.11,0.11-0.18l0.24,0.07
	c-0.03,0.09-0.08,0.18-0.15,0.25c-0.07,0.08-0.15,0.15-0.24,0.2c-0.1,0.06-0.2,0.1-0.31,0.13c-0.12,0.02-0.23,0.02-0.35,0
	c-0.18,0-0.35-0.03-0.51-0.11c-0.15-0.07-0.29-0.17-0.4-0.29c-0.12-0.12-0.21-0.27-0.27-0.43C43.77,61.47,43.75,61.3,43.75,61.14z
	 M48.77,62.45l-1-1.39l-0.61,0.57v0.82H46.9v-3.64h0.25v2.54l1.57-1.49H49l-1.08,1l1.12,1.54L48.77,62.45z M50.36,62.5
	c-0.12,0-0.23-0.02-0.34-0.06c-0.1-0.04-0.19-0.1-0.27-0.17c-0.08-0.07-0.14-0.15-0.18-0.25c-0.05-0.1-0.07-0.21-0.07-0.32
	c0-0.11,0.03-0.22,0.08-0.31c0.06-0.09,0.13-0.18,0.22-0.24c0.11-0.07,0.23-0.13,0.35-0.16c0.14-0.04,0.28-0.06,0.43-0.06
	c0.14,0.01,0.28,0.03,0.42,0.07c0.13,0.02,0.26,0.05,0.38,0.1v-0.26c0.01-0.21-0.06-0.42-0.21-0.58c-0.15-0.15-0.36-0.23-0.57-0.22
	c-0.14,0-0.27,0.03-0.4,0.08c-0.15,0.06-0.3,0.13-0.43,0.23l-0.1-0.17c0.29-0.21,0.64-0.33,1-0.34c0.27-0.02,0.54,0.08,0.74,0.27
	c0.19,0.2,0.29,0.47,0.27,0.75v1.24c0,0.09,0,0.13,0.11,0.13v0.22h-0.1c-0.06,0-0.12-0.02-0.16-0.07c-0.04-0.04-0.07-0.1-0.07-0.16
	V62c-0.12,0.15-0.28,0.28-0.46,0.36C50.8,62.45,50.58,62.5,50.36,62.5z M50.36,62.3c0.18,0.01,0.36-0.03,0.53-0.11
	c0.15-0.06,0.27-0.16,0.37-0.29c0.05-0.06,0.08-0.13,0.08-0.2v-0.46c-0.12-0.04-0.25-0.08-0.38-0.1c-0.13-0.01-0.27-0.01-0.4,0
	c-0.12-0.02-0.23-0.02-0.35,0c-0.1,0.02-0.19,0.06-0.28,0.11c-0.07,0.05-0.13,0.12-0.18,0.19c-0.04,0.07-0.06,0.15-0.06,0.23
	c-0.02,0.08-0.02,0.17,0,0.25c0.04,0.07,0.08,0.14,0.14,0.19c0.06,0.06,0.13,0.1,0.21,0.13c0.11,0.06,0.24,0.08,0.37,0.06H50.36z
	 M53.69,62.49c-0.17,0-0.34-0.04-0.49-0.11c-0.15-0.08-0.28-0.18-0.39-0.3c-0.11-0.13-0.19-0.27-0.25-0.43
	c-0.06-0.16-0.09-0.32-0.09-0.49c0-0.17,0.03-0.35,0.08-0.51c0.06-0.16,0.14-0.3,0.25-0.43c0.11-0.12,0.23-0.23,0.38-0.3
	c0.15-0.07,0.32-0.11,0.49-0.11c0.21-0.01,0.42,0.06,0.6,0.18c0.16,0.12,0.31,0.26,0.42,0.43v-0.56h0.23v2.64
	c0.01,0.16-0.03,0.32-0.1,0.47c-0.07,0.13-0.16,0.24-0.27,0.33c-0.11,0.09-0.24,0.16-0.38,0.2c-0.15,0.04-0.31,0.06-0.47,0.06
	c-0.14,0.02-0.27,0.02-0.41,0c-0.1-0.04-0.2-0.09-0.29-0.16c-0.09-0.05-0.18-0.11-0.25-0.19c-0.07-0.07-0.13-0.15-0.18-0.24
	l0.17-0.12c0.09,0.17,0.24,0.31,0.42,0.39c0.18,0.08,0.37,0.12,0.56,0.12c0.13,0.02,0.25,0.02,0.38,0c0.11-0.04,0.22-0.1,0.31-0.17
	c0.08-0.07,0.15-0.16,0.2-0.26c0.06-0.12,0.09-0.25,0.08-0.38v-0.57c-0.1,0.17-0.25,0.31-0.42,0.41
	C54.09,62.47,53.89,62.51,53.69,62.49z M53.75,62.28c0.11,0,0.23-0.02,0.33-0.07c0.1-0.04,0.2-0.09,0.28-0.16
	c0.08-0.06,0.15-0.13,0.21-0.22c0.05-0.08,0.08-0.16,0.1-0.25v-0.85c-0.04-0.1-0.09-0.2-0.16-0.28c-0.06-0.09-0.13-0.16-0.22-0.22
	c-0.09-0.06-0.18-0.11-0.28-0.14c-0.1-0.04-0.2-0.05-0.3-0.05c-0.15,0-0.29,0.03-0.42,0.1c-0.12,0.06-0.23,0.15-0.31,0.26
	c-0.09,0.11-0.15,0.23-0.19,0.36c-0.05,0.13-0.07,0.26-0.07,0.4c0,0.15,0.03,0.29,0.08,0.43c0.05,0.13,0.13,0.25,0.22,0.35
	c0.09,0.11,0.2,0.19,0.33,0.25C53.47,62.25,53.61,62.28,53.75,62.28z M56,59.27v-0.46h0.25v0.46H56z M56,62.45v-2.59h0.25v2.59H56z
	 M59.35,62.45H59.1V61c0.02-0.25-0.03-0.5-0.14-0.73c-0.1-0.15-0.27-0.24-0.45-0.23c-0.11,0-0.22,0.02-0.33,0.06
	c-0.11,0.04-0.21,0.1-0.3,0.17c-0.09,0.07-0.17,0.16-0.24,0.26c-0.07,0.09-0.13,0.2-0.16,0.31v1.61h-0.25v-2.59h0.24v0.62
	c0.05-0.1,0.12-0.19,0.19-0.28c0.08-0.08,0.17-0.15,0.27-0.21c0.1-0.05,0.2-0.1,0.31-0.13c0.11-0.02,0.23-0.02,0.34,0
	c0.24-0.02,0.47,0.09,0.6,0.3c0.13,0.26,0.18,0.56,0.17,0.85L59.35,62.45z M61.4,62.49c-0.17,0-0.34-0.04-0.49-0.11
	c-0.15-0.08-0.28-0.18-0.39-0.3c-0.11-0.13-0.19-0.27-0.25-0.43c-0.06-0.16-0.09-0.32-0.09-0.49c0-0.17,0.03-0.35,0.08-0.51
	c0.06-0.16,0.14-0.3,0.25-0.43c0.11-0.12,0.23-0.23,0.38-0.3c0.15-0.07,0.32-0.11,0.49-0.11C61.6,59.8,61.82,59.87,62,60
	c0.17,0.11,0.32,0.26,0.43,0.43v-0.56h0.23v2.63c0.01,0.16-0.03,0.32-0.1,0.47c-0.07,0.13-0.16,0.24-0.27,0.33
	c-0.11,0.09-0.24,0.16-0.38,0.2c-0.15,0.04-0.31,0.06-0.47,0.06c-0.14,0.02-0.27,0.02-0.41,0c-0.11-0.03-0.21-0.07-0.31-0.12
	c-0.09-0.05-0.18-0.11-0.25-0.19c-0.07-0.07-0.13-0.15-0.18-0.24l0.17-0.12c0.09,0.17,0.24,0.31,0.41,0.39
	c0.18,0.08,0.37,0.12,0.57,0.12c0.13,0.02,0.25,0.02,0.38,0c0.11-0.04,0.21-0.1,0.3-0.17c0.09-0.07,0.16-0.16,0.21-0.26
	c0.06-0.12,0.09-0.25,0.08-0.38v-0.57c-0.1,0.17-0.25,0.31-0.42,0.41C61.8,62.5,61.6,62.52,61.4,62.49z M61.46,62.28
	c0.11,0,0.23-0.02,0.33-0.07c0.1-0.04,0.2-0.09,0.28-0.16c0.08-0.06,0.15-0.14,0.21-0.22c0.05-0.08,0.08-0.16,0.1-0.25v-0.85
	c-0.04-0.1-0.09-0.2-0.16-0.28c-0.06-0.09-0.13-0.16-0.22-0.22c-0.09-0.06-0.18-0.11-0.28-0.14c-0.1-0.04-0.2-0.05-0.3-0.05
	c-0.15,0-0.29,0.03-0.42,0.1c-0.12,0.06-0.23,0.15-0.31,0.26c-0.09,0.11-0.15,0.23-0.19,0.36c-0.05,0.13-0.07,0.26-0.07,0.4
	c0,0.15,0.03,0.29,0.08,0.43c0.05,0.13,0.13,0.25,0.22,0.35c0.09,0.11,0.2,0.19,0.33,0.25C61.18,62.25,61.32,62.28,61.46,62.28z
	 M66.35,62.33h-0.07l-0.12,0.06H66c-0.07,0.01-0.13,0.01-0.2,0c-0.06,0.01-0.13,0.01-0.19,0c-0.06-0.02-0.11-0.05-0.16-0.09
	c-0.05-0.04-0.09-0.08-0.11-0.14c-0.01-0.07-0.01-0.13,0-0.2v-2h-0.37v-0.2h0.37V59h0.25v0.89h0.6v0.2h-0.6V62
	c-0.01,0.08,0.03,0.16,0.1,0.21c0.06,0.05,0.14,0.08,0.22,0.08c0.09,0,0.19-0.02,0.27-0.06l0.13-0.06L66.35,62.33z M69.16,62.45
	h-0.25V61c0-0.64-0.22-1-0.65-1c-0.11,0-0.21,0.02-0.31,0.06c-0.1,0.04-0.2,0.1-0.28,0.17c-0.09,0.07-0.17,0.16-0.23,0.26
	c-0.07,0.09-0.12,0.2-0.15,0.31v1.61H67v-3.6h0.25v1.67c0.1-0.2,0.25-0.37,0.44-0.49c0.18-0.12,0.39-0.18,0.6-0.18
	c0.13,0,0.25,0.02,0.37,0.08c0.11,0.05,0.2,0.13,0.26,0.23c0.07,0.11,0.12,0.23,0.15,0.36c0.02,0.16,0.02,0.32,0,0.48L69.16,62.45z
	 M70.8,62.5c-0.34,0.01-0.66-0.19-0.8-0.5c-0.02-0.1-0.02-0.2,0-0.3c-0.01-0.11,0.02-0.22,0.08-0.31c0.05-0.1,0.13-0.18,0.22-0.24
	c0.1-0.07,0.22-0.13,0.34-0.16c0.14-0.04,0.29-0.06,0.44-0.06c0.14-0.01,0.28-0.01,0.42,0c0.13,0.02,0.26,0.05,0.38,0.1v-0.26
	c0.01-0.21-0.06-0.42-0.21-0.58c-0.15-0.15-0.36-0.23-0.57-0.22c-0.14,0-0.27,0.03-0.4,0.08c-0.15,0.06-0.3,0.14-0.43,0.23
	l-0.09-0.17c0.27-0.2,0.6-0.32,0.94-0.34c0.27-0.02,0.54,0.08,0.74,0.27c0.19,0.2,0.29,0.47,0.27,0.75v1.31c0,0.09,0,0.13,0.11,0.13
	v0.22h-0.1c-0.06,0-0.12-0.02-0.16-0.07c-0.04-0.04-0.07-0.1-0.07-0.16V62c-0.12,0.15-0.28,0.28-0.46,0.36
	C71.25,62.46,71.02,62.5,70.8,62.5z M70.8,62.3c0.18,0.01,0.36-0.03,0.53-0.11c0.15-0.06,0.28-0.16,0.37-0.29
	c0.05-0.05,0.08-0.13,0.08-0.2v-0.46c-0.12-0.04-0.24-0.08-0.37-0.1c-0.14-0.01-0.27-0.01-0.41,0c-0.12-0.02-0.23-0.02-0.35,0
	c-0.1,0.02-0.19,0.06-0.27,0.11c-0.15,0.09-0.24,0.25-0.24,0.42c-0.02,0.08-0.02,0.17,0,0.25c0.03,0.07,0.08,0.14,0.14,0.19
	c0.13,0.12,0.3,0.18,0.47,0.18L70.8,62.3z M74.23,62.33h-0.07l-0.12,0.06h-0.16c-0.07,0.01-0.13,0.01-0.2,0
	c-0.06,0.01-0.13,0.01-0.19,0c-0.06-0.02-0.12-0.05-0.17-0.09c-0.04-0.04-0.08-0.09-0.11-0.14c-0.01-0.07-0.01-0.13,0-0.2v-2h-0.36
	v-0.2h0.36V59h0.25v0.89H74v0.2h-0.61V62c0,0.08,0.03,0.16,0.1,0.21c0.07,0.05,0.15,0.08,0.23,0.08c0.09,0,0.19-0.02,0.27-0.06
	l0.13-0.06L74.23,62.33z M77.72,62.5c-0.21,0.01-0.42-0.06-0.6-0.18c-0.17-0.11-0.32-0.25-0.42-0.43v1.62h-0.25v-3.65h0.23v0.52
	c0.1-0.16,0.25-0.29,0.42-0.38c0.17-0.11,0.36-0.16,0.56-0.16c0.17,0,0.35,0.04,0.5,0.12c0.15,0.07,0.28,0.17,0.39,0.3
	c0.11,0.13,0.2,0.27,0.26,0.43c0.11,0.32,0.11,0.68,0,1c-0.05,0.16-0.13,0.3-0.24,0.43c-0.1,0.12-0.23,0.22-0.38,0.29
	C78.04,62.48,77.88,62.51,77.72,62.5z M77.66,62.28c0.14,0,0.28-0.03,0.4-0.1c0.12-0.06,0.23-0.14,0.32-0.25
	c0.09-0.1,0.16-0.23,0.2-0.36c0.04-0.13,0.07-0.27,0.07-0.41c0-0.15-0.03-0.29-0.08-0.43c-0.05-0.13-0.13-0.25-0.22-0.35
	c-0.09-0.11-0.21-0.19-0.34-0.25c-0.12-0.06-0.26-0.09-0.4-0.09c-0.1,0-0.2,0.02-0.29,0.05c-0.1,0.04-0.19,0.09-0.28,0.16
	c-0.09,0.06-0.17,0.13-0.23,0.22c-0.06,0.07-0.1,0.16-0.11,0.26v0.86c0.04,0.1,0.1,0.19,0.16,0.27c0.07,0.08,0.15,0.15,0.23,0.22
	c0.08,0.06,0.17,0.11,0.27,0.14C77.45,62.26,77.56,62.28,77.66,62.28z M81,60.08c-0.22,0.01-0.43,0.08-0.61,0.21
	c-0.18,0.13-0.31,0.32-0.37,0.54v1.62h-0.25v-2.59H80v0.64c0.08-0.18,0.2-0.33,0.36-0.45c0.13-0.11,0.3-0.18,0.47-0.2H81V60.08z
	 M82.68,62.5c-0.18,0.01-0.35-0.03-0.51-0.11c-0.15-0.07-0.29-0.17-0.41-0.29c-0.11-0.13-0.2-0.27-0.27-0.43
	c-0.06-0.17-0.1-0.35-0.1-0.53c0-0.17,0.04-0.35,0.1-0.51c0.06-0.16,0.16-0.3,0.27-0.43c0.11-0.12,0.25-0.22,0.4-0.28
	c0.16-0.07,0.33-0.11,0.5-0.11c0.18,0,0.35,0.04,0.51,0.11c0.15,0.07,0.29,0.17,0.4,0.29c0.12,0.12,0.21,0.26,0.27,0.42
	c0.06,0.16,0.09,0.34,0.09,0.51v0.11h-2.28c0.01,0.15,0.05,0.29,0.11,0.42C81.82,61.79,81.9,61.91,82,62
	c0.09,0.09,0.2,0.17,0.32,0.22c0.12,0.06,0.26,0.08,0.39,0.08c0.09,0.01,0.17,0.01,0.26,0c0.09-0.02,0.17-0.05,0.24-0.1
	c0.08-0.04,0.15-0.09,0.2-0.16c0.06-0.06,0.11-0.12,0.14-0.2l0.22,0.06c-0.04,0.1-0.09,0.18-0.16,0.26
	c-0.07,0.08-0.16,0.15-0.25,0.2c-0.1,0.06-0.2,0.1-0.31,0.13C82.93,62.52,82.8,62.52,82.68,62.5z M83.68,61.05
	c-0.01-0.14-0.04-0.28-0.1-0.41c-0.05-0.12-0.13-0.23-0.22-0.33c-0.09-0.09-0.2-0.16-0.32-0.22c-0.12-0.05-0.25-0.07-0.38-0.07
	c-0.13,0-0.27,0.02-0.39,0.07c-0.12,0.06-0.22,0.13-0.32,0.22c-0.09,0.09-0.16,0.21-0.21,0.33c-0.06,0.13-0.09,0.27-0.1,0.41H83.68z
	 M85.55,62.5c-0.19,0-0.39-0.03-0.57-0.1c-0.18-0.06-0.35-0.16-0.48-0.3l0.13-0.17c0.12,0.12,0.27,0.21,0.43,0.28
	c0.16,0.06,0.32,0.09,0.49,0.09c0.19,0.01,0.38-0.04,0.55-0.14c0.14-0.09,0.21-0.24,0.21-0.4c0.02-0.07,0.02-0.13,0-0.2
	c-0.04-0.06-0.1-0.1-0.16-0.14c-0.08-0.04-0.17-0.08-0.26-0.1l-0.36-0.1c-0.13-0.02-0.26-0.06-0.38-0.1
	c-0.1-0.02-0.19-0.06-0.27-0.12c-0.07-0.04-0.12-0.1-0.16-0.17c-0.02-0.08-0.02-0.17,0-0.25c0-0.12,0.03-0.23,0.08-0.34
	c0.05-0.09,0.12-0.18,0.2-0.24c0.09-0.06,0.2-0.11,0.31-0.14c0.29-0.1,0.61-0.1,0.9,0c0.14,0.06,0.27,0.15,0.37,0.27l-0.14,0.13
	c-0.09-0.1-0.21-0.18-0.34-0.22c-0.14-0.05-0.29-0.08-0.44-0.08c-0.09-0.01-0.18-0.01-0.27,0c-0.08,0.01-0.16,0.05-0.22,0.1
	c-0.06,0.04-0.12,0.09-0.15,0.16c-0.04,0.08-0.06,0.16-0.06,0.25c-0.02,0.06-0.02,0.12,0,0.18c0.02,0.05,0.07,0.1,0.12,0.12
	l0.21,0.09l0.31,0.08l0.43,0.11c0.11,0.03,0.22,0.08,0.32,0.14c0.08,0.05,0.15,0.11,0.2,0.19c0.04,0.09,0.07,0.18,0.06,0.28
	c0.01,0.22-0.09,0.42-0.27,0.55C86.12,62.4,85.84,62.51,85.55,62.5z M88.48,62.5c-0.18,0-0.35-0.03-0.51-0.11
	c-0.15-0.07-0.29-0.17-0.4-0.29c-0.12-0.12-0.21-0.27-0.27-0.43c-0.07-0.17-0.1-0.35-0.1-0.53c0-0.18,0.03-0.35,0.1-0.51
	c0.06-0.16,0.15-0.31,0.27-0.43c0.11-0.12,0.25-0.22,0.4-0.28c0.16-0.07,0.33-0.11,0.5-0.11c0.18,0,0.35,0.04,0.51,0.11
	c0.15,0.07,0.29,0.17,0.4,0.29c0.12,0.12,0.21,0.26,0.27,0.42c0.06,0.16,0.09,0.34,0.09,0.51v0.11h-2.28
	c0.01,0.15,0.05,0.29,0.11,0.42c0.05,0.12,0.13,0.23,0.22,0.33c0.09,0.1,0.2,0.17,0.32,0.22c0.21,0.08,0.44,0.08,0.65,0
	c0.09-0.02,0.17-0.05,0.24-0.1c0.08-0.04,0.15-0.09,0.2-0.16c0.06-0.06,0.11-0.13,0.14-0.2l0.22,0.06c-0.04,0.1-0.1,0.19-0.17,0.26
	c-0.07,0.08-0.15,0.15-0.24,0.2c-0.1,0.06-0.21,0.1-0.32,0.13C88.72,62.46,88.6,62.49,88.48,62.5z M89.48,61.05
	c-0.01-0.14-0.04-0.28-0.1-0.41c-0.05-0.12-0.13-0.24-0.23-0.33c-0.09-0.09-0.2-0.16-0.31-0.22c-0.12-0.05-0.26-0.07-0.39-0.07
	c-0.13,0-0.26,0.02-0.38,0.07c-0.12,0.06-0.23,0.13-0.32,0.22c-0.09,0.1-0.17,0.21-0.22,0.33c-0.05,0.13-0.08,0.27-0.09,0.41H89.48z
	 M91.77,60.08c-0.22,0-0.44,0.07-0.61,0.21c-0.18,0.13-0.31,0.32-0.37,0.54v1.62h-0.25v-2.59h0.24v0.64
	c0.08-0.18,0.2-0.33,0.36-0.45c0.13-0.11,0.3-0.18,0.47-0.2h0.16V60.08z M93.29,62.45l-1.08-2.59h0.26l1,2.34l1-2.34h0.24
	l-1.08,2.59H93.29z M96.39,62.5c-0.18,0-0.35-0.03-0.51-0.11c-0.15-0.07-0.29-0.17-0.41-0.29c-0.11-0.13-0.2-0.27-0.27-0.43
	c-0.06-0.17-0.09-0.35-0.09-0.53c0-0.17,0.03-0.35,0.09-0.51c0.07-0.16,0.16-0.3,0.27-0.43c0.11-0.12,0.25-0.21,0.4-0.28
	c0.16-0.07,0.33-0.11,0.5-0.11c0.18,0,0.35,0.04,0.51,0.11c0.15,0.07,0.29,0.17,0.41,0.29c0.11,0.12,0.2,0.26,0.26,0.42
	c0.06,0.16,0.1,0.34,0.1,0.51v0.07l0,0h-2.28c0.01,0.14,0.04,0.29,0.1,0.42c0.06,0.12,0.13,0.23,0.23,0.33
	c0.09,0.1,0.19,0.17,0.31,0.22c0.12,0.06,0.26,0.08,0.39,0.08c0.09,0.02,0.17,0.02,0.26,0c0.09-0.02,0.17-0.05,0.24-0.1
	c0.08-0.04,0.15-0.09,0.2-0.16c0.06-0.06,0.11-0.12,0.14-0.2l0.22,0.06c-0.04,0.1-0.09,0.18-0.16,0.26
	c-0.07,0.08-0.16,0.15-0.25,0.2c-0.1,0.06-0.2,0.1-0.31,0.13C96.63,62.49,96.51,62.5,96.39,62.5z M97.39,61.05
	c-0.01-0.14-0.05-0.28-0.11-0.41c-0.05-0.12-0.13-0.24-0.22-0.33c-0.09-0.09-0.2-0.16-0.32-0.22c-0.12-0.05-0.25-0.07-0.38-0.07
	c-0.13,0-0.27,0.02-0.39,0.07c-0.11,0.06-0.22,0.13-0.31,0.22c-0.09,0.09-0.17,0.21-0.22,0.33c-0.06,0.13-0.09,0.27-0.1,0.41H97.39z
	 M99.27,62.5c-0.2,0-0.39-0.03-0.58-0.1c-0.18-0.06-0.35-0.16-0.48-0.3l0.13-0.17c0.12,0.12,0.27,0.21,0.43,0.28
	c0.16,0.06,0.33,0.09,0.5,0.09c0.19,0.01,0.38-0.04,0.54-0.14c0.14-0.09,0.21-0.24,0.21-0.4c0.02-0.07,0.02-0.13,0-0.2
	c-0.04-0.06-0.1-0.1-0.16-0.14c-0.08-0.04-0.17-0.08-0.26-0.1l-0.36-0.1c-0.13-0.02-0.26-0.06-0.38-0.1
	c-0.1-0.02-0.19-0.06-0.27-0.12c-0.07-0.04-0.12-0.1-0.15-0.17c-0.04-0.08-0.06-0.16-0.06-0.25c0-0.12,0.03-0.23,0.08-0.34
	c0.05-0.1,0.12-0.18,0.21-0.24c0.09-0.06,0.19-0.11,0.3-0.14c0.12-0.02,0.25-0.02,0.37,0c0.18,0,0.37,0.03,0.54,0.1
	c0.14,0.06,0.26,0.15,0.36,0.27l-0.14,0.13c-0.09-0.1-0.21-0.18-0.34-0.22c-0.14-0.05-0.29-0.08-0.44-0.08
	c-0.1-0.03-0.21-0.05-0.32-0.06c-0.08,0.02-0.15,0.05-0.22,0.1c-0.06,0.04-0.11,0.1-0.15,0.16c-0.04,0.08-0.06,0.16-0.06,0.25
	c-0.01,0.06-0.01,0.12,0,0.18c0.03,0.05,0.07,0.09,0.12,0.12l0.21,0.09l0.31,0.08l0.44,0.11c0.11,0.03,0.21,0.08,0.31,0.14
	c0.08,0.05,0.15,0.11,0.2,0.19c0.05,0.09,0.07,0.18,0.07,0.28c0,0.22-0.1,0.42-0.28,0.55C99.76,62.41,99.52,62.49,99.27,62.5z
	 M2.35,72.33H2.29l-0.12,0.06H2c-0.06,0.01-0.13,0.01-0.19,0c-0.07,0.01-0.13,0.01-0.2,0c-0.06-0.02-0.11-0.05-0.16-0.09
	c-0.04-0.04-0.08-0.09-0.11-0.14c-0.02-0.07-0.02-0.13,0-0.2v-2h-0.4v-0.2H1.3V69h0.25v0.89h0.6v0.2h-0.6V72
	c-0.01,0.08,0.03,0.16,0.1,0.21c0.06,0.05,0.14,0.08,0.22,0.08c0.09,0,0.19-0.02,0.27-0.06l0.14-0.06L2.35,72.33z M5.16,72.45H4.91
	V71c0-0.64-0.21-1-0.64-1c-0.1,0.02-0.19,0.05-0.27,0.1c-0.1,0.04-0.2,0.1-0.29,0.17c-0.09,0.07-0.17,0.16-0.23,0.26
	c-0.07,0.09-0.12,0.2-0.15,0.31v1.61H3v-3.64h0.25v1.67c0.11-0.2,0.28-0.37,0.48-0.48c0.18-0.12,0.39-0.18,0.61-0.18
	c0.13,0,0.25,0.03,0.37,0.08c0.1,0.05,0.19,0.13,0.25,0.23c0.07,0.11,0.12,0.23,0.15,0.36c0.02,0.16,0.02,0.32,0,0.48L5.16,72.45z
	 M7.27,72.5c-0.18,0.01-0.35-0.03-0.51-0.11c-0.15-0.07-0.29-0.17-0.41-0.29c-0.11-0.13-0.2-0.27-0.27-0.43
	c-0.06-0.17-0.1-0.35-0.1-0.53c0-0.17,0.04-0.35,0.1-0.51c0.07-0.16,0.16-0.3,0.27-0.43c0.11-0.12,0.25-0.21,0.4-0.28
	c0.32-0.14,0.68-0.14,1,0c0.15,0.07,0.29,0.17,0.41,0.29c0.11,0.12,0.2,0.26,0.26,0.42c0.06,0.16,0.09,0.34,0.09,0.51v0.11H6.24
	c0.01,0.15,0.05,0.29,0.11,0.42C6.4,71.79,6.48,71.91,6.58,72c0.09,0.1,0.19,0.17,0.31,0.22c0.12,0.06,0.26,0.08,0.39,0.08
	c0.09,0.02,0.17,0.02,0.26,0c0.09-0.02,0.17-0.05,0.24-0.1C7.87,72.16,7.95,72.09,8,72c0.06-0.06,0.11-0.12,0.14-0.2l0.22,0.06
	c-0.04,0.1-0.09,0.18-0.16,0.26c-0.07,0.08-0.16,0.15-0.25,0.2c-0.1,0.06-0.2,0.1-0.31,0.13C7.52,72.49,7.4,72.51,7.27,72.5z
	 M8.27,71.05c-0.01-0.14-0.05-0.28-0.11-0.41C8.13,70.52,8.07,70.41,8,70.31c-0.09-0.09-0.2-0.16-0.32-0.22
	C7.55,70.03,7.4,70,7.26,70c-0.13,0-0.27,0.02-0.39,0.07c-0.11,0.06-0.22,0.13-0.31,0.22c-0.1,0.09-0.17,0.2-0.22,0.33
	c-0.06,0.13-0.09,0.27-0.1,0.41L8.27,71.05z M10.68,71.14c0-0.17,0.03-0.35,0.09-0.51c0.04-0.16,0.12-0.31,0.23-0.43
	c0.11-0.12,0.25-0.22,0.4-0.28c0.16-0.07,0.33-0.11,0.51-0.11c0.22,0,0.44,0.05,0.63,0.16c0.18,0.11,0.32,0.26,0.4,0.45L12.7,70.5
	c-0.07-0.14-0.19-0.26-0.33-0.34c-0.14-0.08-0.31-0.12-0.47-0.12c-0.14,0-0.27,0.02-0.4,0.08c-0.12,0.06-0.23,0.14-0.32,0.24
	c-0.19,0.22-0.29,0.49-0.29,0.78c0,0.15,0.02,0.31,0.08,0.45c0.05,0.13,0.13,0.25,0.22,0.36c0.09,0.1,0.2,0.18,0.32,0.24
	c0.12,0.06,0.26,0.09,0.4,0.09c0.09,0.01,0.18,0.01,0.27,0c0.08-0.03,0.16-0.07,0.24-0.11c0.07-0.04,0.14-0.09,0.19-0.15
	c0.05-0.05,0.09-0.11,0.12-0.18l0.24,0.07c-0.03,0.09-0.08,0.18-0.15,0.25c-0.07,0.08-0.15,0.15-0.24,0.2
	c-0.1,0.06-0.2,0.1-0.31,0.13c-0.12,0.02-0.23,0.02-0.35,0c-0.18,0-0.35-0.03-0.51-0.11c-0.15-0.07-0.29-0.16-0.41-0.28
	c-0.11-0.13-0.2-0.27-0.27-0.43C10.68,71.5,10.67,71.32,10.68,71.14z M14.89,72.5c-0.18,0.01-0.35-0.03-0.51-0.11
	c-0.15-0.07-0.29-0.17-0.4-0.29c-0.24-0.25-0.37-0.59-0.36-0.94c0-0.18,0.03-0.36,0.1-0.52c0.11-0.32,0.36-0.58,0.67-0.72
	c0.16-0.07,0.33-0.11,0.5-0.11c0.17,0,0.34,0.04,0.5,0.11c0.15,0.07,0.28,0.17,0.4,0.29c0.11,0.13,0.2,0.27,0.27,0.43
	c0.06,0.17,0.09,0.34,0.09,0.52c0.01,0.35-0.12,0.69-0.36,0.94c-0.11,0.12-0.25,0.22-0.4,0.29C15.23,72.47,15.06,72.5,14.89,72.5z
	 M13.89,71.17c0,0.15,0.03,0.29,0.08,0.43c0.05,0.13,0.12,0.25,0.22,0.35c0.09,0.1,0.2,0.18,0.32,0.24
	c0.12,0.06,0.25,0.09,0.39,0.09c0.14,0,0.28-0.03,0.4-0.09c0.11-0.05,0.21-0.11,0.3-0.19c0.09-0.11,0.17-0.23,0.22-0.36
	c0.05-0.14,0.08-0.29,0.08-0.44c0-0.15-0.03-0.29-0.08-0.43c-0.05-0.13-0.13-0.25-0.22-0.35c-0.09-0.1-0.2-0.18-0.32-0.24
	c-0.12-0.06-0.25-0.09-0.39-0.09c-0.14,0-0.28,0.03-0.4,0.09c-0.12,0.06-0.23,0.14-0.32,0.24c-0.09,0.11-0.17,0.23-0.22,0.36
	c-0.05,0.13-0.07,0.26-0.08,0.39H13.89z M19.12,72.45h-0.25V71c0.02-0.25-0.03-0.5-0.14-0.73c-0.1-0.15-0.27-0.24-0.45-0.23
	c-0.11,0-0.22,0.02-0.33,0.06c-0.11,0.04-0.21,0.1-0.3,0.17c-0.09,0.07-0.17,0.16-0.24,0.26c-0.07,0.1-0.12,0.2-0.16,0.31v1.61H17
	v-2.59h0.24v0.62c0.05-0.1,0.12-0.19,0.19-0.28c0.08-0.08,0.17-0.14,0.27-0.2c0.1-0.05,0.2-0.1,0.31-0.13
	c0.11-0.02,0.23-0.02,0.34,0c0.24-0.02,0.47,0.09,0.6,0.3c0.13,0.26,0.19,0.56,0.17,0.85V72.45z M21.19,72.5
	c-0.17,0-0.34-0.04-0.49-0.11c-0.15-0.07-0.29-0.18-0.4-0.3c-0.11-0.13-0.2-0.27-0.26-0.43c-0.06-0.16-0.09-0.33-0.09-0.5
	c0-0.17,0.03-0.35,0.09-0.51c0.05-0.16,0.14-0.31,0.25-0.43c0.1-0.12,0.23-0.23,0.37-0.3c0.25-0.12,0.54-0.14,0.8-0.06l0.28,0.13
	c0.08,0.06,0.16,0.13,0.23,0.2c0.07,0.07,0.13,0.15,0.18,0.23v-1.61h0.25v3.29c0,0.09,0,0.13,0.11,0.13v0.22h-0.09
	c-0.07,0.01-0.13-0.03-0.17-0.08c-0.05-0.04-0.07-0.1-0.07-0.16v-0.29c-0.11,0.17-0.25,0.32-0.43,0.42
	C21.58,72.44,21.39,72.5,21.19,72.5z M21.19,72.28c0.1,0,0.2-0.02,0.29-0.06c0.1-0.04,0.2-0.09,0.29-0.15
	c0.08-0.07,0.15-0.14,0.22-0.22c0.06-0.08,0.1-0.17,0.11-0.27v-0.85c-0.03-0.1-0.08-0.19-0.15-0.27c-0.07-0.09-0.15-0.16-0.24-0.22
	c-0.09-0.06-0.18-0.11-0.28-0.15c-0.1-0.02-0.19-0.02-0.29,0c-0.14,0-0.28,0.03-0.4,0.09c-0.12,0.06-0.23,0.15-0.32,0.26
	c-0.09,0.1-0.16,0.23-0.2,0.36c-0.05,0.13-0.07,0.27-0.07,0.41c0,0.15,0.03,0.29,0.08,0.43c0.05,0.13,0.13,0.25,0.22,0.35
	c0.09,0.1,0.21,0.19,0.33,0.25c0.15,0.05,0.31,0.06,0.46,0.04H21.19z M24.53,72.5c-0.17,0.01-0.35-0.03-0.5-0.11
	c-0.16-0.07-0.3-0.17-0.41-0.29c-0.12-0.12-0.2-0.27-0.26-0.43c-0.06-0.16-0.09-0.34-0.09-0.51c0-0.18,0.03-0.35,0.09-0.52
	c0.07-0.16,0.16-0.3,0.27-0.43c0.11-0.12,0.25-0.22,0.4-0.29c0.16-0.07,0.33-0.11,0.5-0.11c0.17,0,0.34,0.04,0.5,0.11
	c0.15,0.07,0.29,0.17,0.4,0.29c0.12,0.12,0.21,0.27,0.27,0.43c0.07,0.16,0.1,0.34,0.1,0.52c0,0.18-0.03,0.35-0.1,0.51
	c-0.06,0.16-0.14,0.31-0.26,0.43c-0.11,0.12-0.25,0.22-0.41,0.29C24.88,72.47,24.7,72.51,24.53,72.5z M23.53,71.17
	c0,0.29,0.1,0.57,0.3,0.78c0.09,0.1,0.2,0.18,0.32,0.24c0.12,0.06,0.26,0.09,0.4,0.09c0.14,0,0.27-0.03,0.39-0.09
	c0.12-0.06,0.23-0.14,0.33-0.24c0.09-0.11,0.16-0.23,0.22-0.36c0.05-0.14,0.08-0.29,0.08-0.44c0-0.15-0.03-0.29-0.08-0.43
	c-0.06-0.13-0.13-0.25-0.22-0.35c-0.09-0.1-0.21-0.18-0.33-0.24c-0.25-0.12-0.53-0.12-0.78,0c-0.12,0.06-0.23,0.14-0.32,0.24
	c-0.1,0.1-0.17,0.23-0.22,0.36c-0.07,0.14-0.1,0.29-0.11,0.44H23.53z M30.46,72.45h-0.25V71c0.02-0.25-0.03-0.5-0.15-0.72
	c-0.1-0.16-0.28-0.25-0.47-0.24c-0.1,0-0.21,0.02-0.3,0.06c-0.1,0.04-0.19,0.1-0.27,0.17c-0.08,0.07-0.15,0.16-0.2,0.25
	c-0.06,0.1-0.11,0.21-0.14,0.33v1.6h-0.25V71c0.02-0.25-0.03-0.5-0.15-0.73c-0.1-0.15-0.28-0.24-0.46-0.23
	c-0.11,0-0.21,0.02-0.31,0.06c-0.09,0.04-0.18,0.09-0.26,0.16c-0.08,0.08-0.15,0.16-0.21,0.26c-0.06,0.1-0.11,0.21-0.14,0.32v1.61
	h-0.25v-2.59h0.23v0.62c0.1-0.19,0.24-0.36,0.42-0.48c0.17-0.12,0.37-0.18,0.58-0.18c0.2-0.01,0.39,0.07,0.53,0.2
	c0.14,0.13,0.23,0.32,0.24,0.51c0.17-0.41,0.56-0.69,1-0.71c0.24-0.02,0.48,0.09,0.61,0.3c0.13,0.26,0.2,0.56,0.18,0.85L30.46,72.45
	z M31.38,69.76l0.07-0.5h-0.1v-0.45h0.26v0.45l-0.1,0.5H31.38z M33.32,72.5c-0.19,0-0.39-0.03-0.57-0.1
	c-0.18-0.06-0.35-0.16-0.48-0.3l0.12-0.17c0.13,0.12,0.28,0.21,0.44,0.28c0.16,0.06,0.32,0.09,0.49,0.09
	c0.19,0.01,0.38-0.04,0.55-0.14c0.13-0.09,0.2-0.24,0.2-0.4c0.02-0.07,0.02-0.13,0-0.2c-0.04-0.06-0.1-0.11-0.16-0.14
	c-0.08-0.04-0.17-0.08-0.26-0.1l-0.35-0.1c-0.13-0.02-0.26-0.06-0.39-0.1C32.8,71.1,32.69,71.06,32.6,71
	c-0.07-0.04-0.13-0.1-0.16-0.17c-0.02-0.08-0.02-0.17,0-0.25c0-0.12,0.02-0.23,0.07-0.34c0.05-0.1,0.12-0.18,0.21-0.24
	c0.09-0.06,0.19-0.11,0.3-0.14c0.12-0.02,0.25-0.02,0.37,0c0.18,0,0.37,0.03,0.54,0.1c0.14,0.06,0.27,0.15,0.36,0.27l-0.14,0.13
	c-0.09-0.1-0.2-0.18-0.33-0.22c-0.14-0.05-0.29-0.08-0.44-0.08c-0.09-0.01-0.19-0.01-0.28,0c-0.08,0.02-0.15,0.05-0.22,0.1
	c-0.06,0.04-0.11,0.1-0.15,0.16c-0.05,0.14-0.05,0.29,0,0.43c0.03,0.05,0.07,0.09,0.12,0.12l0.22,0.09l0.31,0.08l0.43,0.11
	c0.11,0.03,0.22,0.08,0.32,0.14c0.08,0.05,0.14,0.11,0.19,0.19c0.05,0.08,0.08,0.18,0.07,0.28c0.01,0.22-0.09,0.42-0.27,0.55
	C33.89,72.47,33.6,72.54,33.32,72.5z M36.79,72.45v-2.39h-0.36v-0.2h0.36v-0.09C36.77,69.5,36.84,69.23,37,69
	c0.12-0.18,0.33-0.28,0.54-0.27c0.1-0.01,0.19-0.01,0.29,0c0.08,0.03,0.16,0.07,0.23,0.12L38,69.1L37.78,69
	c-0.07-0.01-0.14-0.01-0.21,0c-0.16-0.01-0.3,0.07-0.39,0.2c-0.1,0.18-0.15,0.38-0.14,0.59v0.09h0.74v0.2H37v2.39L36.79,72.45z
	 M39.74,70.08c-0.22,0.01-0.43,0.08-0.61,0.21c-0.18,0.14-0.31,0.33-0.37,0.54v1.62h-0.25v-2.59h0.24v0.64
	c0.08-0.18,0.2-0.33,0.36-0.45c0.14-0.11,0.3-0.18,0.48-0.2h0.15L39.74,70.08z M41.44,72.5c-0.18,0-0.35-0.03-0.51-0.11
	c-0.15-0.07-0.29-0.17-0.41-0.29c-0.11-0.13-0.2-0.27-0.27-0.43c-0.06-0.17-0.09-0.35-0.09-0.53c0-0.17,0.03-0.35,0.09-0.51
	c0.07-0.16,0.16-0.3,0.27-0.43c0.11-0.12,0.25-0.21,0.4-0.28c0.16-0.07,0.33-0.11,0.5-0.11c0.18,0,0.35,0.04,0.51,0.11
	c0.15,0.07,0.29,0.17,0.41,0.29c0.11,0.12,0.2,0.26,0.26,0.42c0.07,0.16,0.1,0.33,0.1,0.51v0.07l0,0h-2.28
	c0.01,0.14,0.04,0.29,0.1,0.42c0.06,0.12,0.13,0.23,0.23,0.33c0.09,0.09,0.19,0.17,0.31,0.22c0.12,0.06,0.26,0.08,0.39,0.08
	c0.09,0.02,0.17,0.02,0.26,0c0.09-0.02,0.17-0.05,0.25-0.1c0.08-0.04,0.14-0.1,0.2-0.16c0.05-0.06,0.1-0.13,0.13-0.2l0.22,0.06
	c-0.03,0.1-0.09,0.19-0.16,0.26c-0.07,0.08-0.15,0.15-0.25,0.2c-0.1,0.06-0.2,0.1-0.31,0.13C41.68,72.49,41.56,72.5,41.44,72.5z
	 M42.44,71.05c-0.01-0.14-0.05-0.28-0.11-0.41c-0.05-0.12-0.13-0.24-0.22-0.33c-0.09-0.09-0.2-0.16-0.32-0.22
	c-0.12-0.05-0.25-0.07-0.38-0.07c-0.13,0-0.27,0.02-0.39,0.07c-0.11,0.06-0.22,0.13-0.31,0.22c-0.09,0.09-0.17,0.21-0.22,0.33
	c-0.06,0.13-0.09,0.27-0.1,0.41H42.44z M44.32,72.5c-0.2,0-0.39-0.03-0.58-0.1c-0.18-0.06-0.34-0.16-0.47-0.3l0.12-0.17
	c0.12,0.12,0.27,0.21,0.43,0.28c0.16,0.06,0.33,0.09,0.5,0.09c0.19,0.01,0.38-0.04,0.54-0.14c0.14-0.09,0.21-0.24,0.21-0.4
	c0.02-0.07,0.02-0.13,0-0.2c-0.04-0.06-0.1-0.1-0.16-0.14c-0.08-0.04-0.17-0.08-0.26-0.1l-0.36-0.1c-0.13-0.02-0.26-0.06-0.38-0.1
	c-0.1-0.03-0.19-0.07-0.27-0.12c-0.07-0.04-0.12-0.1-0.15-0.17c-0.04-0.08-0.06-0.16-0.06-0.25c0-0.12,0.03-0.23,0.08-0.34
	c0.05-0.1,0.12-0.18,0.21-0.24c0.09-0.06,0.19-0.11,0.3-0.14c0.12-0.02,0.25-0.02,0.37,0c0.18,0,0.37,0.03,0.54,0.1
	c0.14,0.06,0.26,0.15,0.36,0.27l-0.14,0.13c-0.09-0.1-0.21-0.18-0.34-0.22c-0.23-0.07-0.48-0.07-0.71,0
	c-0.08,0.02-0.15,0.05-0.22,0.1c-0.06,0.04-0.11,0.1-0.15,0.16c-0.04,0.08-0.06,0.16-0.06,0.25c-0.01,0.06-0.01,0.12,0,0.18
	c0.03,0.05,0.07,0.09,0.12,0.12L44,71.04l0.31,0.08l0.44,0.11c0.11,0.03,0.21,0.08,0.31,0.14c0.08,0.05,0.15,0.11,0.2,0.19
	c0.05,0.09,0.07,0.18,0.07,0.28c0.01,0.22-0.1,0.43-0.28,0.55C44.83,72.51,44.57,72.55,44.32,72.5z M48.26,72.45H48V71
	c0-0.64-0.22-1-0.65-1c-0.11,0-0.21,0.02-0.31,0.06c-0.1,0.04-0.2,0.1-0.28,0.17c-0.09,0.07-0.17,0.16-0.24,0.26
	c-0.06,0.1-0.11,0.2-0.15,0.31v1.61h-0.25v-3.6h0.25v1.67c0.1-0.2,0.26-0.37,0.45-0.49c0.18-0.12,0.39-0.18,0.6-0.18
	c0.13,0,0.25,0.03,0.37,0.08c0.1,0.05,0.19,0.13,0.26,0.23c0.07,0.11,0.12,0.23,0.15,0.36c0.02,0.16,0.02,0.32,0,0.48L48.26,72.45z
	 M51.39,72.45h-0.25V71c0.02-0.25-0.03-0.5-0.14-0.73c-0.1-0.15-0.27-0.24-0.45-0.23c-0.11,0-0.22,0.02-0.33,0.06
	c-0.11,0.04-0.21,0.1-0.3,0.17c-0.1,0.07-0.18,0.16-0.25,0.26c-0.07,0.09-0.12,0.2-0.15,0.31v1.61h-0.25v-2.59h0.23v0.62
	c0.06-0.1,0.12-0.19,0.2-0.28c0.09-0.08,0.19-0.14,0.3-0.2c0.1-0.05,0.21-0.1,0.32-0.13c0.11-0.02,0.23-0.02,0.34,0
	c0.24-0.02,0.47,0.09,0.59,0.3c0.13,0.26,0.2,0.56,0.18,0.85L51.39,72.45z M53.5,72.5c-0.18,0.01-0.35-0.03-0.51-0.11
	c-0.16-0.07-0.29-0.17-0.41-0.29c-0.12-0.12-0.21-0.27-0.27-0.43c-0.06-0.17-0.1-0.35-0.1-0.53c0-0.17,0.04-0.35,0.1-0.51
	c0.06-0.16,0.15-0.31,0.27-0.43c0.11-0.12,0.25-0.22,0.4-0.28c0.16-0.07,0.33-0.11,0.5-0.11c0.18,0,0.35,0.04,0.51,0.11
	c0.15,0.07,0.29,0.17,0.4,0.29c0.12,0.12,0.21,0.26,0.27,0.42c0.06,0.16,0.09,0.34,0.09,0.51v0.11h-2.28
	c0.01,0.15,0.05,0.29,0.11,0.42c0.05,0.12,0.13,0.23,0.22,0.33c0.09,0.09,0.2,0.17,0.32,0.22c0.21,0.08,0.44,0.08,0.65,0
	c0.09-0.02,0.17-0.05,0.24-0.1c0.08-0.04,0.15-0.09,0.2-0.16c0.06-0.06,0.11-0.13,0.14-0.2l0.22,0.06c-0.04,0.1-0.09,0.18-0.16,0.26
	c-0.07,0.08-0.16,0.15-0.25,0.2c-0.1,0.06-0.21,0.1-0.32,0.13C53.73,72.46,53.62,72.49,53.5,72.5z M54.5,71.05
	c-0.01-0.14-0.04-0.28-0.1-0.41c-0.05-0.12-0.13-0.23-0.22-0.33c-0.1-0.09-0.2-0.16-0.32-0.22c-0.12-0.05-0.26-0.07-0.39-0.07
	c-0.13,0-0.26,0.02-0.38,0.07c-0.12,0.06-0.22,0.13-0.32,0.22c-0.09,0.1-0.17,0.21-0.22,0.33c-0.05,0.13-0.08,0.27-0.09,0.41H54.5z
	 M56.37,72.5c-0.19,0-0.39-0.03-0.57-0.1c-0.18-0.06-0.35-0.16-0.48-0.3l0.13-0.17c0.12,0.12,0.27,0.21,0.43,0.28
	c0.16,0.06,0.32,0.09,0.49,0.09c0.19,0.01,0.38-0.04,0.55-0.14c0.14-0.09,0.21-0.24,0.21-0.4c0-0.07-0.02-0.14-0.05-0.2
	c-0.04-0.06-0.1-0.1-0.16-0.14c-0.08-0.04-0.17-0.08-0.26-0.1l-0.36-0.1c-0.13-0.02-0.26-0.06-0.38-0.1
	c-0.1-0.02-0.19-0.06-0.27-0.12c-0.07-0.04-0.12-0.1-0.16-0.17c-0.04-0.08-0.05-0.16-0.05-0.25c0-0.12,0.03-0.23,0.08-0.34
	c0.04-0.1,0.11-0.18,0.2-0.24c0.09-0.06,0.2-0.11,0.31-0.14c0.12-0.02,0.24-0.02,0.36,0c0.18,0,0.37,0.03,0.54,0.1
	c0.14,0.06,0.27,0.15,0.37,0.27l-0.14,0.13c-0.09-0.1-0.21-0.18-0.34-0.22c-0.14-0.05-0.29-0.08-0.44-0.08
	c-0.09-0.01-0.18-0.01-0.27,0c-0.08,0.02-0.16,0.05-0.23,0.1c-0.06,0.04-0.11,0.1-0.14,0.16c-0.04,0.08-0.06,0.16-0.06,0.25
	c-0.02,0.06-0.02,0.12,0,0.18c0.02,0.05,0.07,0.1,0.12,0.12l0.21,0.09l0.31,0.08l0.43,0.11c0.11,0.03,0.22,0.08,0.32,0.14
	c0.08,0.05,0.14,0.11,0.19,0.19c0.05,0.08,0.08,0.18,0.07,0.28c0.01,0.22-0.09,0.42-0.27,0.55C56.86,72.45,56.61,72.51,56.37,72.5z
	 M59,72.5c-0.19,0-0.39-0.03-0.57-0.1c-0.18-0.06-0.35-0.16-0.48-0.3l0.13-0.17c0.12,0.12,0.27,0.21,0.43,0.28
	c0.16,0.06,0.32,0.09,0.49,0.09c0.19,0.01,0.38-0.04,0.55-0.14c0.14-0.09,0.21-0.24,0.21-0.4c0-0.07-0.02-0.14-0.06-0.2
	c-0.04-0.06-0.09-0.11-0.15-0.14c-0.08-0.04-0.17-0.08-0.26-0.1l-0.36-0.1c-0.13-0.02-0.26-0.06-0.38-0.1
	c-0.09-0.03-0.17-0.07-0.25-0.12c-0.07-0.04-0.12-0.1-0.16-0.17c-0.02-0.08-0.02-0.17,0-0.25c0-0.12,0.03-0.23,0.08-0.34
	c0.04-0.1,0.11-0.18,0.2-0.24c0.09-0.06,0.2-0.11,0.31-0.14c0.12-0.02,0.24-0.02,0.36,0c0.18,0,0.37,0.03,0.54,0.1
	c0.14,0.06,0.27,0.15,0.37,0.27l-0.14,0.13c-0.09-0.1-0.21-0.18-0.34-0.22C59.36,70.06,59.18,70.01,59,70
	c-0.09-0.01-0.18-0.01-0.27,0c-0.08,0.02-0.16,0.05-0.23,0.1c-0.06,0.04-0.11,0.1-0.15,0.16c-0.03,0.08-0.05,0.16-0.05,0.25
	c-0.02,0.06-0.02,0.12,0,0.18c0.02,0.05,0.07,0.1,0.12,0.12l0.21,0.09L59,71l0.43,0.11c0.11,0.03,0.22,0.08,0.32,0.14
	c0.08,0.05,0.14,0.11,0.19,0.19c0.05,0.08,0.08,0.18,0.07,0.28c0.01,0.22-0.09,0.42-0.27,0.55C59.53,72.43,59.27,72.51,59,72.5z
	 M63,72.5c-0.22,0-0.44-0.08-0.61-0.23c-0.07-0.07-0.13-0.16-0.18-0.25c-0.04-0.1-0.06-0.21-0.06-0.32
	c-0.01-0.11,0.02-0.22,0.08-0.31c0.05-0.1,0.13-0.18,0.22-0.24c0.1-0.07,0.22-0.13,0.34-0.16c0.14-0.04,0.29-0.06,0.44-0.06
	c0.14-0.01,0.28-0.01,0.42,0c0.13,0.02,0.26,0.05,0.38,0.1v-0.26c0.01-0.21-0.06-0.42-0.21-0.58c-0.15-0.15-0.36-0.23-0.57-0.22
	c-0.14,0-0.27,0.03-0.4,0.08c-0.15,0.06-0.3,0.14-0.43,0.23l-0.09-0.17c0.27-0.2,0.6-0.32,0.94-0.34c0.27-0.02,0.54,0.08,0.74,0.27
	c0.19,0.2,0.29,0.47,0.27,0.75v1.31c0,0.09,0,0.13,0.11,0.13v0.22h-0.1c-0.06,0-0.12-0.02-0.16-0.07c-0.04-0.04-0.07-0.1-0.07-0.16
	V72c-0.12,0.15-0.28,0.28-0.46,0.36C63.41,72.45,63.21,72.5,63,72.5z M63,72.3c0.18,0.01,0.36-0.03,0.53-0.11
	c0.18-0.04,0.35-0.14,0.47-0.29c0.05-0.05,0.08-0.13,0.08-0.2v-0.46c-0.12-0.04-0.24-0.08-0.37-0.1c-0.14-0.01-0.27-0.01-0.41,0
	c-0.12,0-0.24,0.02-0.35,0.05c-0.1,0.02-0.19,0.06-0.27,0.11c-0.15,0.09-0.24,0.25-0.24,0.42c0,0.09,0.01,0.17,0.05,0.25
	c0.03,0.07,0.08,0.14,0.14,0.19c0.13,0.12,0.3,0.18,0.47,0.18L63,72.3z M67.43,72.45h-0.25V71c0.02-0.25-0.03-0.5-0.14-0.73
	c-0.1-0.15-0.27-0.24-0.45-0.23c-0.11,0-0.22,0.02-0.33,0.06c-0.11,0.04-0.21,0.1-0.3,0.17c-0.09,0.08-0.18,0.16-0.25,0.26
	c-0.06,0.1-0.11,0.2-0.15,0.31v1.61h-0.25v-2.59h0.23v0.62c0.06-0.1,0.12-0.19,0.2-0.28c0.08-0.08,0.17-0.14,0.26-0.2
	c0.1-0.05,0.2-0.1,0.31-0.13c0.11-0.02,0.23-0.02,0.34,0c0.24-0.02,0.47,0.09,0.6,0.3c0.13,0.26,0.18,0.56,0.17,0.85L67.43,72.45z
	 M69.5,72.5c-0.17,0-0.34-0.04-0.5-0.11c-0.15-0.08-0.28-0.18-0.39-0.3c-0.11-0.13-0.2-0.27-0.26-0.43c-0.06-0.16-0.1-0.33-0.1-0.5
	c0-0.17,0.03-0.35,0.09-0.51c0.06-0.16,0.14-0.3,0.25-0.43c0.11-0.12,0.24-0.22,0.38-0.3c0.15-0.07,0.31-0.11,0.48-0.11
	c0.11-0.02,0.21-0.02,0.32,0l0.28,0.13c0.08,0.06,0.16,0.13,0.23,0.2c0.07,0.07,0.13,0.15,0.18,0.23v-1.56h0.25v3.29
	c0,0.09,0,0.13,0.1,0.13v0.22h-0.09c-0.07,0-0.13-0.03-0.17-0.08c-0.04-0.04-0.06-0.1-0.06-0.16v-0.29
	c-0.11,0.17-0.25,0.32-0.43,0.42C69.89,72.44,69.7,72.5,69.5,72.5z M69.5,72.28c0.1,0,0.2-0.02,0.29-0.06
	c0.1-0.03,0.2-0.08,0.28-0.15c0.09-0.06,0.16-0.14,0.23-0.22c0.06-0.08,0.1-0.17,0.11-0.27v-0.85c-0.04-0.1-0.09-0.19-0.16-0.27
	c-0.06-0.09-0.14-0.16-0.23-0.22c-0.09-0.06-0.18-0.11-0.28-0.15c-0.1-0.02-0.19-0.02-0.29,0c-0.14,0-0.28,0.03-0.41,0.09
	c-0.12,0.07-0.22,0.15-0.31,0.26c-0.09,0.1-0.16,0.23-0.2,0.36c-0.05,0.13-0.07,0.27-0.07,0.41c0,0.15,0.03,0.29,0.08,0.43
	c0.05,0.13,0.13,0.25,0.22,0.35c0.09,0.1,0.21,0.19,0.33,0.25c0.15,0.05,0.31,0.06,0.46,0.04H69.5z M75.16,72.45l-1-1.39l-0.62,0.57
	v0.82h-0.25v-3.64h0.25v2.54l1.58-1.49h0.29l-1.08,1l1.12,1.54L75.16,72.45z M77.11,72.5c-0.18,0.01-0.35-0.03-0.51-0.11
	c-0.15-0.07-0.29-0.17-0.41-0.29c-0.11-0.13-0.2-0.27-0.27-0.43c-0.06-0.17-0.1-0.35-0.1-0.53c0-0.17,0.04-0.35,0.1-0.51
	c0.07-0.16,0.16-0.3,0.27-0.43c0.11-0.12,0.25-0.21,0.4-0.28c0.32-0.14,0.68-0.14,1,0c0.15,0.07,0.29,0.17,0.4,0.29
	c0.12,0.12,0.21,0.26,0.27,0.42c0.06,0.16,0.09,0.34,0.09,0.51v0.11h-2.27c0.01,0.15,0.05,0.29,0.11,0.42
	c0.05,0.12,0.13,0.24,0.23,0.33c0.09,0.1,0.19,0.17,0.31,0.22c0.12,0.06,0.26,0.08,0.39,0.08c0.09,0.01,0.17,0.01,0.26,0
	c0.09-0.02,0.17-0.05,0.24-0.1c0.08-0.04,0.15-0.09,0.2-0.16c0.06-0.06,0.11-0.12,0.14-0.2l0.22,0.06c-0.04,0.1-0.09,0.18-0.16,0.26
	c-0.07,0.08-0.16,0.15-0.25,0.2c-0.1,0.06-0.2,0.1-0.31,0.13C77.34,72.51,77.23,72.52,77.11,72.5z M78.11,71.05
	c0-0.14-0.04-0.28-0.1-0.41c-0.05-0.12-0.13-0.23-0.22-0.33c-0.09-0.09-0.2-0.16-0.32-0.22c-0.12-0.05-0.24-0.08-0.37-0.09
	c-0.13,0-0.27,0.02-0.39,0.07c-0.11,0.06-0.22,0.13-0.31,0.22c-0.1,0.09-0.17,0.2-0.22,0.33c-0.06,0.13-0.09,0.27-0.1,0.41
	L78.11,71.05z M80.27,72.5c-0.18,0.01-0.35-0.03-0.51-0.11c-0.16-0.07-0.29-0.17-0.41-0.29c-0.12-0.12-0.21-0.27-0.27-0.43
	c-0.06-0.17-0.1-0.35-0.1-0.53c0-0.17,0.04-0.35,0.1-0.51c0.06-0.16,0.15-0.31,0.27-0.43c0.11-0.12,0.25-0.22,0.4-0.28
	c0.16-0.07,0.33-0.11,0.5-0.11c0.18,0,0.35,0.04,0.51,0.11c0.15,0.07,0.29,0.17,0.4,0.29c0.12,0.12,0.21,0.26,0.27,0.42
	c0.06,0.16,0.09,0.34,0.09,0.51v0.11h-2.28c0.01,0.15,0.05,0.29,0.11,0.42c0.05,0.12,0.13,0.23,0.22,0.33
	c0.09,0.09,0.2,0.17,0.32,0.22c0.12,0.06,0.26,0.08,0.39,0.08c0.09,0.01,0.17,0.01,0.26,0c0.09-0.02,0.17-0.05,0.24-0.1
	c0.09-0.05,0.16-0.12,0.22-0.2c0.06-0.06,0.11-0.13,0.14-0.2l0.22,0.06c-0.04,0.1-0.09,0.18-0.16,0.26
	c-0.07,0.08-0.16,0.15-0.25,0.2c-0.1,0.06-0.21,0.1-0.32,0.13C80.51,72.49,80.39,72.51,80.27,72.5z M81.27,71.05
	c-0.01-0.14-0.04-0.28-0.1-0.41c-0.05-0.12-0.13-0.23-0.22-0.33c-0.09-0.09-0.2-0.16-0.32-0.22c-0.12-0.05-0.26-0.07-0.39-0.07
	c-0.13,0-0.26,0.02-0.38,0.07c-0.12,0.06-0.22,0.13-0.32,0.22c-0.09,0.1-0.17,0.21-0.22,0.33c-0.05,0.13-0.08,0.27-0.09,0.41H81.27z
	 M83.59,72.5c-0.21,0-0.42-0.06-0.6-0.18c-0.17-0.11-0.31-0.26-0.42-0.43v1.62h-0.25v-3.65h0.23v0.52c0.12-0.16,0.27-0.29,0.45-0.38
	c0.17-0.11,0.36-0.16,0.56-0.16c0.17,0,0.35,0.04,0.5,0.12c0.15,0.07,0.29,0.17,0.4,0.3c0.11,0.13,0.19,0.27,0.25,0.43
	c0.07,0.16,0.1,0.33,0.1,0.5c0,0.17-0.03,0.35-0.09,0.51c-0.05,0.16-0.13,0.3-0.24,0.43c-0.1,0.12-0.23,0.22-0.38,0.29
	C83.94,72.49,83.76,72.52,83.59,72.5z M83.53,72.28c0.28,0,0.54-0.13,0.72-0.35c0.09-0.1,0.16-0.23,0.2-0.36
	c0.05-0.13,0.07-0.27,0.07-0.41c0-0.15-0.02-0.29-0.08-0.43c-0.05-0.13-0.13-0.25-0.22-0.35c-0.09-0.1-0.21-0.19-0.33-0.25
	c-0.13-0.06-0.27-0.09-0.41-0.09c-0.09-0.01-0.19-0.01-0.28,0c-0.1,0.04-0.2,0.09-0.29,0.16c-0.09,0.06-0.17,0.13-0.23,0.22
	c-0.06,0.08-0.1,0.17-0.11,0.26v0.86c0.04,0.1,0.1,0.19,0.17,0.27c0.07,0.08,0.14,0.15,0.22,0.22c0.08,0.06,0.17,0.11,0.27,0.14
	C83.32,72.23,83.42,72.26,83.53,72.28z M86.45,72.5c-0.2,0-0.39-0.03-0.58-0.1c-0.18-0.06-0.34-0.16-0.47-0.3l0.12-0.17
	c0.12,0.12,0.27,0.21,0.43,0.28c0.16,0.06,0.33,0.09,0.5,0.09c0.19,0.01,0.38-0.04,0.54-0.14c0.14-0.09,0.21-0.24,0.21-0.4
	c0.02-0.07,0.02-0.13,0-0.2c-0.04-0.06-0.1-0.1-0.16-0.14c-0.08-0.04-0.17-0.08-0.26-0.1l-0.36-0.1c-0.13-0.02-0.26-0.06-0.38-0.1
	c-0.1-0.02-0.19-0.06-0.27-0.12c-0.07-0.04-0.12-0.1-0.15-0.17c-0.04-0.08-0.06-0.16-0.06-0.25c0-0.12,0.03-0.23,0.08-0.34
	c0.03-0.09,0.09-0.17,0.16-0.24c0.09-0.06,0.19-0.11,0.3-0.14c0.12-0.02,0.25-0.02,0.37,0c0.18,0,0.37,0.03,0.54,0.1
	c0.14,0.06,0.26,0.15,0.36,0.27l-0.14,0.13c-0.09-0.1-0.21-0.18-0.34-0.22c-0.23-0.07-0.48-0.07-0.71,0
	c-0.08,0.02-0.15,0.05-0.22,0.1c-0.06,0.04-0.11,0.1-0.15,0.16c-0.04,0.08-0.06,0.16-0.06,0.25c-0.01,0.06-0.01,0.12,0,0.18
	c0.03,0.05,0.07,0.09,0.12,0.12l0.21,0.09l0.31,0.08l0.44,0.11c0.11,0.03,0.21,0.08,0.31,0.14c0.08,0.05,0.15,0.11,0.2,0.19
	c0.05,0.09,0.07,0.18,0.07,0.28c0.01,0.22-0.1,0.43-0.28,0.55C86.92,72.5,86.68,72.53,86.45,72.5z M89.81,69.27v-0.46h0.25v0.46
	H89.81z M89.81,72.45v-2.59h0.25v2.59H89.81z M92.25,72.33h-0.07l-0.12,0.06H91.9c-0.07,0.01-0.13,0.01-0.2,0
	c-0.07,0.01-0.13,0.01-0.2,0c-0.06-0.02-0.11-0.05-0.16-0.09c-0.04-0.04-0.08-0.09-0.11-0.14c-0.01-0.07-0.01-0.13,0-0.2v-2h-0.36
	v-0.2h0.36V69h0.25v0.89h0.61v0.2h-0.61V72c0,0.08,0.03,0.16,0.1,0.21c0.07,0.05,0.15,0.08,0.23,0.08c0.09,0,0.18-0.02,0.26-0.06
	l0.14-0.06L92.25,72.33z M94.58,72.45v-2.39h-0.36v-0.2h0.36v-0.09c-0.02-0.26,0.05-0.52,0.2-0.74c0.12-0.18,0.32-0.28,0.53-0.27
	c0.1-0.02,0.19-0.02,0.29,0c0.08,0.02,0.16,0.06,0.23,0.12l-0.09,0.18L95.57,69c-0.07-0.01-0.14-0.01-0.21,0
	c-0.16-0.01-0.3,0.07-0.39,0.2c-0.1,0.18-0.15,0.38-0.14,0.59v0.09h0.74v0.2h-0.74v2.39L94.58,72.45z M97.53,70.08
	c-0.22,0.01-0.43,0.08-0.61,0.21c-0.18,0.14-0.31,0.33-0.37,0.54v1.62H96.3v-2.59h0.24v0.64c0.08-0.18,0.2-0.33,0.36-0.45
	c0.14-0.11,0.3-0.18,0.48-0.2h0.15L97.53,70.08z M99.21,72.5c-0.17,0.01-0.35-0.03-0.5-0.11c-0.16-0.07-0.3-0.17-0.41-0.29
	c-0.12-0.12-0.2-0.27-0.26-0.43c-0.06-0.16-0.1-0.34-0.1-0.51c0-0.18,0.04-0.35,0.1-0.52c0.07-0.16,0.16-0.3,0.27-0.43
	c0.11-0.12,0.25-0.22,0.4-0.29c0.16-0.07,0.33-0.11,0.5-0.11c0.17,0,0.34,0.04,0.5,0.11c0.15,0.07,0.29,0.17,0.4,0.29
	c0.12,0.12,0.21,0.27,0.27,0.43c0.07,0.16,0.1,0.34,0.1,0.52c0,0.18-0.03,0.35-0.1,0.51c-0.06,0.16-0.14,0.31-0.26,0.43
	c-0.11,0.12-0.25,0.22-0.41,0.29C99.56,72.47,99.38,72.51,99.21,72.5z M98.21,71.17c0,0.29,0.1,0.57,0.3,0.78
	c0.09,0.1,0.2,0.18,0.32,0.24c0.12,0.06,0.26,0.09,0.4,0.09c0.14,0,0.27-0.03,0.39-0.09c0.12-0.06,0.23-0.14,0.33-0.24
	c0.09-0.11,0.16-0.23,0.22-0.36c0.05-0.14,0.08-0.29,0.08-0.44c0-0.15-0.03-0.29-0.08-0.43c-0.06-0.13-0.13-0.25-0.22-0.35
	c-0.09-0.1-0.21-0.18-0.33-0.24c-0.25-0.12-0.53-0.12-0.78,0c-0.12,0.06-0.23,0.14-0.32,0.24c-0.1,0.1-0.17,0.23-0.22,0.36
	c-0.07,0.14-0.1,0.29-0.11,0.44H98.21z M105.14,72.45h-0.25V71c0.02-0.25-0.03-0.5-0.15-0.72c-0.1-0.16-0.28-0.25-0.47-0.24
	c-0.1,0-0.21,0.02-0.3,0.06c-0.1,0.04-0.19,0.1-0.27,0.17c-0.08,0.07-0.15,0.15-0.2,0.25c-0.06,0.1-0.11,0.21-0.14,0.33v1.6h-0.25
	V71c0.02-0.25-0.03-0.5-0.15-0.73c-0.1-0.15-0.28-0.24-0.46-0.23c-0.11,0-0.21,0.02-0.31,0.06c-0.09,0.04-0.18,0.09-0.26,0.16
	c-0.08,0.08-0.15,0.16-0.21,0.26c-0.06,0.1-0.11,0.21-0.14,0.32v1.61h-0.25v-2.59h0.23v0.62c0.1-0.2,0.25-0.36,0.44-0.48
	c0.17-0.12,0.37-0.18,0.58-0.18c0.2-0.01,0.39,0.07,0.53,0.2c0.14,0.13,0.23,0.32,0.24,0.51c0.17-0.41,0.56-0.69,1-0.71
	c0.24-0.02,0.48,0.09,0.61,0.3c0.13,0.26,0.2,0.56,0.18,0.85V72.45z M108.74,72.5c-0.17,0-0.34-0.04-0.5-0.11
	c-0.15-0.08-0.28-0.18-0.39-0.3c-0.11-0.13-0.2-0.27-0.26-0.43c-0.06-0.16-0.09-0.33-0.09-0.5c0-0.17,0.03-0.35,0.08-0.51
	c0.06-0.16,0.15-0.3,0.25-0.43c0.11-0.12,0.24-0.22,0.38-0.3c0.15-0.07,0.31-0.11,0.48-0.11c0.11-0.02,0.21-0.02,0.32,0l0.28,0.13
	c0.08,0.06,0.16,0.13,0.23,0.2c0.07,0.07,0.13,0.15,0.18,0.23v-1.56h0.3v3.29c0,0.09,0,0.13,0.11,0.13v0.22H110
	c-0.07,0.01-0.13-0.03-0.17-0.08c-0.05-0.04-0.07-0.1-0.07-0.16v-0.29c-0.11,0.17-0.25,0.32-0.43,0.42
	C109.15,72.45,108.95,72.5,108.74,72.5z M108.79,72.28c0.1,0,0.2-0.02,0.29-0.06c0.1-0.03,0.2-0.08,0.28-0.15
	c0.09-0.06,0.16-0.14,0.23-0.22c0.06-0.08,0.1-0.17,0.11-0.27v-0.85c-0.04-0.1-0.09-0.19-0.16-0.27c-0.06-0.09-0.14-0.16-0.23-0.22
	c-0.09-0.06-0.18-0.11-0.28-0.15c-0.1-0.02-0.19-0.02-0.29,0c-0.14,0-0.28,0.03-0.41,0.09c-0.12,0.07-0.22,0.15-0.31,0.26
	c-0.09,0.1-0.16,0.23-0.2,0.36c-0.05,0.13-0.07,0.27-0.07,0.41c0,0.15,0.03,0.29,0.08,0.43c0.05,0.13,0.13,0.25,0.22,0.35
	c0.09,0.1,0.21,0.19,0.33,0.25C108.51,72.28,108.65,72.3,108.79,72.28z M111.63,72.5c-0.11,0-0.22-0.02-0.33-0.06
	c-0.1-0.04-0.19-0.09-0.27-0.17c-0.08-0.07-0.14-0.16-0.19-0.25c-0.04-0.1-0.06-0.21-0.06-0.32c0-0.11,0.03-0.22,0.08-0.31
	c0.05-0.1,0.13-0.18,0.22-0.24c0.1-0.07,0.22-0.13,0.34-0.16c0.14-0.04,0.29-0.06,0.44-0.06c0.14-0.01,0.28-0.01,0.42,0
	c0.13,0.02,0.26,0.05,0.39,0.1v-0.26c0.01-0.21-0.06-0.42-0.21-0.58c-0.15-0.15-0.36-0.23-0.57-0.22c-0.14,0-0.27,0.03-0.4,0.08
	c-0.16,0.06-0.3,0.13-0.44,0.23l-0.09-0.17c0.29-0.21,0.64-0.33,1-0.34c0.27-0.02,0.54,0.08,0.74,0.27c0.19,0.2,0.29,0.47,0.27,0.75
	v1.31c0,0.09,0,0.13,0.1,0.13v0.22h-0.1c-0.06,0-0.12-0.02-0.16-0.07c-0.04-0.04-0.06-0.1-0.06-0.16V72
	c-0.13,0.15-0.28,0.27-0.46,0.36C112.08,72.45,111.86,72.5,111.63,72.5z M111.68,72.3c0.18,0.01,0.36-0.03,0.53-0.11
	c0.15-0.06,0.28-0.16,0.37-0.29c0.05-0.05,0.09-0.12,0.09-0.2v-0.46c-0.12-0.04-0.25-0.08-0.38-0.1c-0.13-0.01-0.27-0.01-0.4,0
	c-0.12,0-0.24,0.02-0.36,0.05c-0.09,0.02-0.19,0.06-0.27,0.11c-0.15,0.09-0.24,0.25-0.24,0.42c-0.01,0.08-0.01,0.17,0,0.25
	c0.03,0.07,0.08,0.14,0.14,0.19c0.13,0.12,0.3,0.18,0.47,0.18L111.68,72.3z M117.73,72.45h-0.24V71c0.01-0.25-0.04-0.5-0.16-0.72
	c-0.1-0.16-0.27-0.25-0.46-0.24c-0.11,0-0.21,0.02-0.31,0.06c-0.09,0.04-0.18,0.1-0.26,0.17c-0.08,0.07-0.15,0.16-0.21,0.25
	c-0.06,0.1-0.11,0.22-0.14,0.33v1.6h-0.25V71c0.02-0.25-0.03-0.5-0.15-0.73c-0.1-0.15-0.28-0.24-0.46-0.23
	c-0.1,0-0.21,0.02-0.3,0.06c-0.1,0.04-0.18,0.09-0.26,0.16c-0.08,0.08-0.16,0.16-0.22,0.26c-0.06,0.1-0.1,0.21-0.14,0.32v1.61h-0.25
	v-2.59h0.24v0.62c0.09-0.2,0.24-0.37,0.42-0.49c0.17-0.12,0.37-0.18,0.57-0.18c0.2-0.01,0.39,0.06,0.53,0.2
	c0.14,0.14,0.23,0.32,0.25,0.51c0.16-0.41,0.56-0.69,1-0.71c0.24-0.02,0.47,0.09,0.6,0.3c0.13,0.26,0.2,0.56,0.18,0.85L117.73,72.45
	z M119.38,72.5c-0.12,0-0.23-0.02-0.34-0.06c-0.1-0.04-0.19-0.1-0.27-0.17c-0.08-0.07-0.14-0.15-0.18-0.25
	c-0.05-0.1-0.07-0.21-0.07-0.32c0-0.11,0.03-0.22,0.08-0.31c0.06-0.1,0.14-0.18,0.23-0.24c0.1-0.07,0.22-0.13,0.34-0.16
	c0.14-0.04,0.29-0.06,0.44-0.06c0.14-0.01,0.28-0.01,0.42,0c0.13,0.02,0.26,0.05,0.38,0.1v-0.26c0.01-0.21-0.06-0.42-0.21-0.58
	c-0.15-0.15-0.36-0.23-0.57-0.22c-0.14,0-0.27,0.03-0.4,0.08c-0.15,0.06-0.3,0.13-0.43,0.23l-0.1-0.17c0.29-0.21,0.64-0.33,1-0.34
	c0.27-0.02,0.54,0.08,0.74,0.27c0.19,0.2,0.29,0.47,0.27,0.75v1.31c0,0.09,0,0.13,0.11,0.13v0.22h-0.1c-0.06,0-0.12-0.02-0.16-0.07
	c-0.04-0.04-0.07-0.1-0.07-0.16V72c-0.12,0.15-0.28,0.28-0.46,0.36C119.83,72.45,119.6,72.5,119.38,72.5z M119.43,72.3
	c0.18,0.01,0.36-0.03,0.53-0.11c0.15-0.06,0.27-0.16,0.37-0.29c0.05-0.06,0.08-0.13,0.08-0.2v-0.46c-0.12-0.04-0.24-0.08-0.37-0.1
	c-0.14-0.01-0.27-0.01-0.41,0c-0.12,0-0.24,0.02-0.35,0.05c-0.1,0.02-0.19,0.06-0.28,0.11c-0.07,0.05-0.13,0.11-0.17,0.19
	c-0.05,0.07-0.07,0.15-0.07,0.23c-0.01,0.08-0.01,0.17,0,0.25c0.04,0.07,0.08,0.14,0.14,0.19c0.06,0.06,0.13,0.1,0.21,0.13
	C119.21,72.32,119.32,72.32,119.43,72.3z M122.71,72.49c-0.17,0-0.34-0.04-0.49-0.11c-0.15-0.08-0.28-0.18-0.39-0.3
	c-0.11-0.13-0.19-0.27-0.25-0.43c-0.06-0.16-0.09-0.32-0.09-0.49c0-0.17,0.03-0.35,0.08-0.51c0.06-0.16,0.14-0.3,0.25-0.43
	c0.11-0.12,0.23-0.23,0.38-0.3c0.15-0.07,0.32-0.11,0.49-0.11c0.21-0.01,0.42,0.06,0.6,0.18c0.16,0.12,0.31,0.26,0.42,0.43v-0.56
	h0.23v2.64c0.01,0.16-0.03,0.32-0.1,0.47c-0.06,0.13-0.15,0.24-0.26,0.33c-0.12,0.09-0.25,0.15-0.39,0.2
	c-0.15,0.04-0.31,0.06-0.47,0.06c-0.13,0.02-0.27,0.02-0.4,0c-0.11-0.03-0.22-0.07-0.32-0.12c-0.09-0.05-0.18-0.12-0.25-0.19
	c-0.07-0.07-0.13-0.15-0.18-0.24l0.17-0.12c0.09,0.17,0.24,0.31,0.42,0.39c0.18,0.08,0.37,0.12,0.56,0.12
	c0.13,0.02,0.25,0.02,0.38,0c0.11-0.04,0.22-0.1,0.31-0.17c0.08-0.08,0.15-0.16,0.21-0.26c0.05-0.12,0.07-0.25,0.07-0.38v-0.57
	c-0.1,0.17-0.25,0.31-0.42,0.41C123.09,72.5,122.9,72.52,122.71,72.49z M122.77,72.28c0.11,0,0.23-0.02,0.33-0.07
	c0.1-0.04,0.2-0.09,0.28-0.16c0.08-0.06,0.16-0.13,0.21-0.22c0.05-0.07,0.09-0.16,0.1-0.25v-0.85c-0.04-0.1-0.09-0.2-0.16-0.28
	c-0.06-0.09-0.13-0.16-0.22-0.22c-0.09-0.06-0.18-0.11-0.28-0.14c-0.1-0.02-0.2-0.02-0.3,0c-0.14,0-0.28,0.03-0.41,0.1
	c-0.13,0.06-0.23,0.15-0.32,0.26c-0.09,0.11-0.15,0.23-0.19,0.36c-0.05,0.13-0.07,0.26-0.07,0.4c0,0.15,0.03,0.29,0.08,0.43
	c0.06,0.13,0.13,0.25,0.22,0.35c0.09,0.11,0.2,0.19,0.33,0.25C122.5,72.28,122.64,72.3,122.77,72.28z M126.07,72.5
	c-0.18,0-0.35-0.03-0.51-0.11c-0.15-0.07-0.29-0.17-0.4-0.29c-0.12-0.12-0.21-0.27-0.27-0.43c-0.07-0.17-0.1-0.35-0.1-0.53
	c0-0.18,0.03-0.35,0.1-0.51c0.06-0.16,0.15-0.3,0.26-0.43c0.12-0.12,0.26-0.21,0.41-0.28c0.16-0.07,0.33-0.11,0.5-0.11
	c0.18,0,0.35,0.04,0.51,0.11c0.15,0.07,0.29,0.17,0.4,0.29c0.11,0.12,0.2,0.27,0.27,0.42c0.06,0.16,0.09,0.34,0.09,0.51v0.11h-2.28
	c0.01,0.14,0.04,0.29,0.1,0.42c0.06,0.12,0.13,0.23,0.23,0.33c0.09,0.1,0.2,0.17,0.32,0.22c0.21,0.08,0.44,0.08,0.65,0
	c0.08-0.02,0.17-0.05,0.24-0.1c0.08-0.04,0.14-0.1,0.2-0.16c0.06-0.06,0.11-0.13,0.14-0.2l0.22,0.06c-0.04,0.1-0.1,0.18-0.17,0.26
	c-0.07,0.08-0.15,0.15-0.25,0.2c-0.1,0.06-0.2,0.1-0.31,0.13C126.31,72.46,126.19,72.49,126.07,72.5z M127.07,71.05
	c-0.01-0.14-0.04-0.28-0.1-0.41c-0.05-0.12-0.13-0.24-0.23-0.33c-0.09-0.09-0.2-0.16-0.31-0.22c-0.12-0.05-0.26-0.07-0.39-0.07
	c-0.13,0-0.26,0.02-0.38,0.07c-0.12,0.06-0.23,0.13-0.32,0.22c-0.09,0.1-0.17,0.21-0.22,0.33c-0.05,0.13-0.09,0.27-0.1,0.41H127.07z
	 M128.07,72.45V72h0.22v0.42L128.07,72.45z"/>
<path class="st2" d="M8.79,28.42c0,0.34-0.08,0.68-0.21,1c-0.13,0.33-0.33,0.62-0.57,0.88c-0.24,0.26-0.53,0.47-0.85,0.61
	c-0.31,0.14-0.65,0.22-1,0.22H1.2V20.54h4.71c0.35,0,0.69,0.08,1,0.24c0.3,0.15,0.56,0.36,0.77,0.62c0.21,0.26,0.38,0.55,0.49,0.87
	c0.11,0.32,0.17,0.66,0.17,1c0,0.52-0.14,1.04-0.41,1.49c-0.26,0.44-0.65,0.79-1.12,1c0.29,0.09,0.57,0.22,0.82,0.4
	c0.24,0.18,0.45,0.39,0.63,0.63c0.17,0.24,0.3,0.51,0.39,0.79C8.74,27.85,8.79,28.13,8.79,28.42z M1.5,20.84v4.83h4.32
	c0.31,0,0.62-0.07,0.9-0.21c0.27-0.14,0.5-0.33,0.7-0.56c0.19-0.23,0.34-0.49,0.45-0.77c0.1-0.28,0.14-0.58,0.13-0.88
	c0-0.31-0.05-0.62-0.16-0.91c-0.1-0.28-0.24-0.55-0.43-0.78C7.24,21.33,7.02,21.14,6.77,21c-0.27-0.13-0.56-0.19-0.86-0.19
	L1.5,20.84z M8.5,28.42c0-0.31-0.06-0.63-0.17-0.92c-0.12-0.29-0.28-0.55-0.48-0.79c-0.2-0.23-0.44-0.41-0.71-0.54
	c-0.28-0.14-0.58-0.21-0.89-0.2H1.5v4.91h4.63c0.32,0,0.64-0.07,0.93-0.21c0.28-0.14,0.53-0.32,0.75-0.55
	c0.21-0.23,0.38-0.5,0.5-0.79c0.12-0.29,0.18-0.6,0.18-0.91H8.5z M11,31.18V20.54h0.3v10.34H18v0.3L11,31.18z M19.71,31.18V20.54H20
	v10.64H19.71z M29.12,22c-0.35-0.44-0.8-0.78-1.31-1c-0.52-0.18-1.08-0.26-1.63-0.25c-0.53-0.01-1.05,0.05-1.56,0.18
	c-0.39,0.1-0.76,0.27-1.08,0.51c-0.27,0.22-0.48,0.49-0.61,0.81c-0.14,0.33-0.2,0.69-0.2,1.05c-0.01,0.33,0.06,0.65,0.2,0.95
	c0.14,0.26,0.35,0.48,0.6,0.64c0.31,0.2,0.65,0.35,1,0.45c0.43,0.13,0.93,0.25,1.52,0.37s1.13,0.25,1.61,0.39
	c0.43,0.12,0.84,0.3,1.22,0.52c0.31,0.2,0.58,0.46,0.77,0.78c0.56,1.08,0.29,2.4-0.65,3.17c-0.83,0.5-1.79,0.74-2.76,0.69
	c-0.78,0.02-1.55-0.12-2.28-0.4c-0.7-0.28-1.33-0.71-1.86-1.25l0.23-0.2c0.49,0.53,1.09,0.95,1.76,1.22
	c0.69,0.26,1.43,0.38,2.17,0.37c0.88,0.05,1.75-0.16,2.51-0.59c0.61-0.39,0.96-1.07,0.92-1.79c0.01-0.35-0.06-0.69-0.21-1
	c-0.15-0.29-0.37-0.53-0.64-0.71c-0.34-0.22-0.72-0.4-1.11-0.51c-0.53-0.16-1.07-0.3-1.62-0.4c-0.59-0.11-1.11-0.23-1.57-0.36
	c-0.41-0.1-0.79-0.26-1.15-0.48c-0.3-0.17-0.55-0.43-0.72-0.73c-0.17-0.34-0.25-0.72-0.24-1.1c-0.01-0.43,0.08-0.85,0.27-1.23
	c0.17-0.36,0.43-0.66,0.75-0.9c0.35-0.26,0.75-0.44,1.17-0.55c0.5-0.13,1.01-0.2,1.53-0.19c0.61-0.01,1.21,0.09,1.78,0.29
	c0.53,0.22,1.01,0.56,1.39,1L29.12,22z M39.17,20.84h-4.08v10.34h-0.3V20.84h-4.08v-0.3h8.46V20.84z M47.91,30.88v0.3h-7V20.54h6.85
	v0.3h-6.53v4.75H47v0.3h-5.77v5L47.91,30.88z M50.18,31.18V20.54h4.33c0.42,0,0.83,0.09,1.2,0.27c0.36,0.18,0.69,0.43,0.95,0.74
	c0.27,0.29,0.48,0.63,0.63,1c0.15,0.38,0.22,0.78,0.22,1.18c0.01,0.43-0.05,0.86-0.19,1.27c-0.13,0.36-0.32,0.7-0.56,1
	c-0.24,0.29-0.53,0.53-0.86,0.72c-0.34,0.18-0.71,0.29-1.1,0.32l2.7,4.18h-0.36L54.44,27h-4v4.18H50.18z M50.48,26.7h4.14
	c0.38,0.01,0.75-0.08,1.08-0.25c0.31-0.17,0.59-0.39,0.81-0.67c0.23-0.28,0.4-0.6,0.52-0.94c0.12-0.35,0.18-0.71,0.18-1.08
	c0-0.37-0.07-0.74-0.21-1.09c-0.13-0.34-0.33-0.66-0.58-0.93c-0.24-0.27-0.54-0.49-0.86-0.66c-0.33-0.16-0.69-0.24-1.05-0.24h-4
	L50.48,26.7z M63.72,31.18V20.54h4.33c0.42,0,0.83,0.09,1.2,0.27c0.38,0.18,0.72,0.43,1,0.74c0.26,0.3,0.47,0.63,0.62,1
	c0.15,0.38,0.22,0.78,0.22,1.18C71.08,24.16,71,24.6,70.84,25c-0.13,0.37-0.33,0.71-0.59,1c-0.25,0.3-0.56,0.54-0.91,0.72
	c-0.37,0.18-0.77,0.27-1.18,0.27H64v4.18L63.72,31.18z M64,26.7h4.14c0.38,0.01,0.75-0.08,1.09-0.25c0.31-0.17,0.59-0.4,0.81-0.68
	c0.22-0.28,0.39-0.6,0.51-0.94c0.12-0.34,0.18-0.71,0.18-1.07c0-0.37-0.07-0.74-0.21-1.09c-0.27-0.69-0.78-1.26-1.44-1.59
	c-0.31-0.15-0.65-0.23-1-0.24H64V26.7z M75.76,20.54H76l4.64,10.64h-0.33l-1.67-3.8h-5.53l-1.67,3.8h-0.33L75.76,20.54z
	 M78.54,27.08L75.9,21l-2.67,6.11L78.54,27.08z M81.28,25.79c0-0.65,0.12-1.3,0.34-1.91c0.23-0.62,0.57-1.2,1-1.7
	c0.43-0.49,0.96-0.9,1.55-1.18c0.66-0.33,1.39-0.49,2.13-0.47c0.85-0.03,1.7,0.2,2.42,0.65c0.64,0.41,1.15,0.99,1.47,1.67
	l-0.29,0.09c-0.19-0.37-0.43-0.7-0.72-1c-0.27-0.26-0.57-0.48-0.9-0.65c-0.31-0.17-0.65-0.29-1-0.36c-0.33-0.07-0.66-0.11-1-0.11
	c-0.69-0.02-1.38,0.13-2,0.44c-0.57,0.28-1.07,0.68-1.47,1.16c-0.4,0.46-0.71,1-0.92,1.58c-0.21,0.58-0.31,1.2-0.31,1.82
	c-0.01,0.68,0.12,1.36,0.37,2c0.23,0.6,0.57,1.16,1,1.64c0.42,0.47,0.93,0.85,1.5,1.13c0.57,0.28,1.2,0.42,1.84,0.42
	c0.36,0,0.73-0.04,1.08-0.13c0.37-0.09,0.73-0.23,1.07-0.41c0.37-0.18,0.7-0.41,1-0.69c0.3-0.29,0.56-0.63,0.76-1l0.28,0.08
	c-0.18,0.4-0.42,0.75-0.73,1.06c-0.3,0.3-0.63,0.57-1,0.78c-0.38,0.21-0.78,0.37-1.2,0.48c-0.41,0.1-0.82,0.15-1.24,0.15
	c-0.7,0.01-1.38-0.16-2-0.48c-0.6-0.31-1.14-0.73-1.57-1.25c-0.44-0.52-0.77-1.11-1-1.75C81.46,27.2,81.3,26.5,81.28,25.79z
	 M92.5,31.18V20.54h0.3v6.91l6.78-6.91H100l-4.54,4.65l4.75,6h-0.39l-4.58-5.79l-2.44,2.47v3.31H92.5z M105.25,20.54h0.27
	l4.63,10.64h-0.33l-1.67-3.8h-5.56l-1.66,3.8h-0.33L105.25,20.54z M108,27.08L105.38,21l-2.67,6.11L108,27.08z M119.63,29.37
	c-0.93,1.17-2.34,1.87-3.84,1.89c-0.69,0-1.38-0.16-2-0.47c-0.61-0.31-1.15-0.73-1.59-1.24c-0.43-0.51-0.77-1.1-1-1.73
	c-0.24-0.64-0.37-1.32-0.37-2c0-1.37,0.48-2.69,1.36-3.74c0.42-0.5,0.94-0.91,1.53-1.21c0.62-0.31,1.31-0.46,2-0.45
	c0.5,0,0.99,0.05,1.47,0.17c0.4,0.11,0.78,0.27,1.14,0.48c0.32,0.2,0.6,0.45,0.84,0.74c0.24,0.29,0.45,0.6,0.61,0.94l-0.28,0.09
	c-0.35-0.69-0.9-1.25-1.58-1.62c-0.68-0.34-1.44-0.51-2.2-0.5c-0.66-0.01-1.3,0.14-1.89,0.44c-0.55,0.29-1.04,0.69-1.43,1.17
	c-0.4,0.48-0.71,1.04-0.91,1.63c-0.21,0.6-0.32,1.23-0.32,1.86c0,0.66,0.13,1.32,0.37,1.93c0.23,0.59,0.57,1.14,1,1.62
	c0.42,0.47,0.93,0.85,1.5,1.13c0.58,0.28,1.21,0.42,1.85,0.42c0.7,0,1.38-0.16,2-0.48c0.66-0.37,1.25-0.86,1.74-1.44v-2.58h-2.51
	v-0.3h2.81v5.06h-0.3L119.63,29.37z M129.32,30.88v0.3h-7V20.54h6.85v0.3h-6.55v4.75h5.74v0.3h-5.74v5L129.32,30.88z M129.64,46.89
	H0.81v0.2h128.83V46.89z"/>
</svg>
