<?xml version="1.0" encoding="utf-8"?>
<!-- Generator: Adobe Illustrator 22.0.0, SVG Export Plug-In . SVG Version: 6.00 Build 0)  -->
<svg version="1.1" id="Layer_1" xmlns="http://www.w3.org/2000/svg" xmlns:xlink="http://www.w3.org/1999/xlink" x="0px" y="0px"
	 viewBox="0 0 113.15 13.76" style="enable-background:new 0 0 113.15 13.76;" xml:space="preserve">
<style type="text/css">
	.st0{display:none;fill:#C62026;}
	.st1{fill:#010101;}
	.st2{display:none;fill:#010101;}
</style>
<path class="st0" d="M0.02-48.1v-10.65h0.29v10.65H0.02z M2.4-58.75l4.48,10.27l4.47-10.27h0.33L7.05-48.1H6.72L2.08-58.75H2.4z
	 M11.85-48.1v-1h0.3v1H11.85z"/>
<path class="st1" d="M0.09,3.7V0.16h0.25V3.7H0.09z M2.6,3.58H2.53L2.41,3.64H2.25c-0.06,0.01-0.13,0.01-0.19,0
	c-0.07,0.01-0.13,0.01-0.2,0C1.8,3.62,1.74,3.59,1.7,3.55C1.65,3.51,1.61,3.47,1.59,3.41c-0.02-0.07-0.02-0.13,0-0.2v-2H1.18v-0.2
	h0.37V0.25H1.8v0.89h0.6v0.2H1.8v1.91C1.79,3.33,1.83,3.41,1.9,3.46c0.06,0.05,0.14,0.08,0.22,0.08c0.09,0,0.19-0.02,0.27-0.06
	l0.14-0.06L2.6,3.58z M6.94,3.7H6.69V2.25c0-0.64-0.21-1-0.64-1c-0.11,0-0.21,0.02-0.31,0.06c-0.1,0.04-0.2,0.1-0.29,0.17
	C5.36,1.56,5.28,1.64,5.22,1.74C5.15,1.83,5.1,1.94,5.07,2.05v1.61H4.82v-3.6h0.25v1.67c0.1-0.2,0.25-0.36,0.44-0.48
	C5.69,1.13,5.9,1.07,6.12,1.07c0.13,0,0.25,0.03,0.37,0.08c0.1,0.05,0.19,0.13,0.25,0.23c0.07,0.11,0.12,0.23,0.15,0.36
	C6.93,1.9,6.94,2.06,6.94,2.22L6.94,3.7z M8.58,3.75c-0.11,0-0.22-0.02-0.33-0.06c-0.1-0.04-0.19-0.1-0.27-0.17
	C7.9,3.45,7.84,3.35,7.8,3.25c-0.05-0.1-0.07-0.21-0.07-0.32c0-0.11,0.03-0.22,0.08-0.31c0.05-0.1,0.13-0.18,0.22-0.24
	c0.11-0.06,0.22-0.1,0.34-0.13c0.14-0.04,0.29-0.06,0.44-0.06c0.15,0,0.3,0.02,0.44,0.06c0.13,0.02,0.26,0.05,0.39,0.1V2.09
	c0.01-0.21-0.06-0.42-0.21-0.58C9.28,1.34,9.06,1.24,8.84,1.25c-0.14,0-0.27,0.03-0.4,0.08C8.28,1.39,8.13,1.46,8,1.56L7.91,1.39
	c0.28-0.2,0.61-0.32,0.95-0.34C9.13,1.04,9.4,1.13,9.6,1.32c0.19,0.2,0.29,0.47,0.27,0.75v1.28c0,0.09,0,0.13,0.11,0.13V3.7h-0.1
	c-0.06,0-0.12-0.02-0.16-0.07c-0.04-0.04-0.07-0.1-0.07-0.16V3.25C9.52,3.4,9.37,3.53,9.19,3.61C9,3.7,8.79,3.75,8.58,3.75z
	 M8.63,3.55C8.81,3.56,9,3.52,9.17,3.44c0.15-0.06,0.27-0.16,0.37-0.29c0.05-0.06,0.08-0.13,0.08-0.2V2.49
	c-0.12-0.04-0.25-0.08-0.38-0.1c-0.13-0.01-0.27-0.01-0.4,0c-0.12-0.02-0.24-0.02-0.36,0C8.38,2.41,8.29,2.45,8.21,2.5
	C8.06,2.59,7.97,2.75,7.97,2.92C7.95,3,7.95,3.09,7.97,3.17C8,3.24,8.05,3.31,8.11,3.36c0.13,0.12,0.3,0.18,0.47,0.18L8.63,3.55z
	 M11.7,3.75c-0.2,0-0.39-0.03-0.58-0.1c-0.18-0.06-0.35-0.16-0.48-0.3l0.13-0.17c0.12,0.12,0.27,0.21,0.43,0.28
	c0.16,0.06,0.33,0.09,0.5,0.09c0.19,0.01,0.38-0.04,0.54-0.14c0.14-0.09,0.21-0.24,0.21-0.4c0.02-0.07,0.02-0.13,0-0.2
	c-0.04-0.06-0.1-0.1-0.16-0.14c-0.08-0.04-0.17-0.08-0.26-0.1l-0.36-0.1c-0.13-0.02-0.26-0.06-0.38-0.1
	c-0.1-0.02-0.19-0.06-0.27-0.12c-0.07-0.04-0.12-0.1-0.15-0.17C10.82,2,10.8,1.92,10.81,1.83c0-0.12,0.03-0.23,0.08-0.34
	c0.03-0.09,0.09-0.17,0.16-0.24c0.09-0.06,0.19-0.11,0.3-0.14c0.12-0.02,0.25-0.02,0.37,0c0.18,0,0.37,0.03,0.54,0.1
	c0.14,0.06,0.26,0.15,0.36,0.27l-0.14,0.13c-0.09-0.1-0.21-0.18-0.34-0.22C12,1.34,11.85,1.31,11.7,1.31
	c-0.09-0.01-0.18-0.01-0.27,0c-0.08,0.02-0.15,0.05-0.22,0.1c-0.06,0.04-0.12,0.09-0.15,0.16C11.02,1.65,11,1.73,11,1.82
	C10.99,1.88,10.99,1.94,11,2c0.03,0.05,0.07,0.09,0.12,0.12l0.21,0.09l0.31,0.08l0.44,0.11c0.11,0.03,0.21,0.08,0.31,0.14
	c0.08,0.05,0.15,0.11,0.2,0.19c0.04,0.09,0.07,0.18,0.06,0.28c0.01,0.22-0.09,0.42-0.27,0.55C12.18,3.69,11.94,3.76,11.7,3.75z
	 M17.18,3.7h-0.25V2.25c0.02-0.25-0.03-0.51-0.15-0.73c-0.1-0.15-0.27-0.24-0.45-0.23c-0.11,0-0.22,0.02-0.32,0.06
	c-0.11,0.04-0.21,0.1-0.31,0.17c-0.09,0.07-0.17,0.16-0.24,0.26c-0.07,0.1-0.12,0.2-0.16,0.31V3.7h-0.24V1.11h0.19v0.62
	c0.05-0.1,0.12-0.2,0.2-0.28c0.09-0.08,0.19-0.15,0.3-0.2c0.1-0.05,0.2-0.1,0.31-0.13c0.11-0.01,0.23-0.01,0.34,0
	c0.24-0.02,0.47,0.09,0.6,0.3c0.13,0.26,0.2,0.56,0.18,0.85V3.7z M19.25,3.75c-0.18,0.01-0.35-0.03-0.51-0.11
	c-0.15-0.07-0.29-0.17-0.4-0.29c-0.24-0.25-0.37-0.59-0.36-0.94c0-0.18,0.03-0.36,0.1-0.52c0.11-0.32,0.36-0.58,0.67-0.72
	c0.16-0.07,0.33-0.11,0.5-0.11c0.17,0,0.34,0.04,0.5,0.11c0.15,0.07,0.28,0.17,0.4,0.29c0.11,0.13,0.2,0.27,0.27,0.43
	c0.06,0.17,0.09,0.34,0.09,0.52c0.01,0.35-0.12,0.69-0.36,0.94c-0.11,0.12-0.25,0.22-0.4,0.29C19.59,3.72,19.42,3.75,19.25,3.75z
	 M18.25,2.42c0,0.15,0.03,0.29,0.08,0.43c0.05,0.13,0.12,0.25,0.22,0.35c0.09,0.1,0.2,0.18,0.32,0.24c0.12,0.06,0.25,0.09,0.39,0.09
	c0.14,0,0.28-0.03,0.4-0.09c0.12-0.06,0.23-0.14,0.32-0.24c0.09-0.11,0.17-0.23,0.22-0.36c0.05-0.14,0.08-0.29,0.08-0.44
	c0-0.15-0.03-0.29-0.08-0.43c-0.05-0.13-0.13-0.25-0.22-0.35c-0.09-0.1-0.2-0.18-0.32-0.24c-0.12-0.08-0.26-0.12-0.41-0.13
	c-0.14,0-0.28,0.03-0.4,0.09c-0.12,0.06-0.23,0.14-0.32,0.24c-0.09,0.11-0.17,0.23-0.22,0.36C18.26,2.1,18.24,2.26,18.25,2.42z
	 M24.18,3.75c-0.21,0-0.42-0.06-0.59-0.18c-0.17-0.11-0.32-0.26-0.43-0.43v1.62h-0.25V1.11h0.23v0.52c0.11-0.17,0.25-0.31,0.43-0.41
	c0.17-0.11,0.36-0.16,0.56-0.16c0.17,0,0.35,0.04,0.5,0.12c0.15,0.07,0.28,0.17,0.39,0.3c0.11,0.13,0.2,0.27,0.26,0.43
	c0.06,0.16,0.09,0.33,0.09,0.5c0,0.17-0.03,0.35-0.09,0.51c-0.05,0.16-0.13,0.31-0.24,0.43c-0.1,0.12-0.23,0.22-0.37,0.29
	C24.52,3.72,24.35,3.76,24.18,3.75z M24.12,3.53c0.14,0,0.28-0.03,0.41-0.1c0.12-0.06,0.23-0.15,0.32-0.25
	c0.09-0.11,0.15-0.23,0.19-0.36c0.05-0.13,0.07-0.27,0.07-0.41c0-0.15-0.02-0.29-0.08-0.43c-0.05-0.13-0.12-0.25-0.22-0.35
	c-0.09-0.11-0.2-0.19-0.33-0.25c-0.12-0.06-0.26-0.09-0.4-0.09c-0.1,0-0.2,0.02-0.29,0.05c-0.1,0.04-0.2,0.09-0.29,0.16
	c-0.09,0.06-0.16,0.14-0.23,0.22c-0.06,0.08-0.1,0.17-0.11,0.26v0.86c0.05,0.1,0.1,0.19,0.17,0.27l0.22,0.22
	c0.08,0.06,0.17,0.11,0.27,0.14C23.91,3.51,24.02,3.53,24.12,3.53z M27.45,1.33c-0.22,0.01-0.44,0.08-0.62,0.21
	c-0.18,0.13-0.3,0.32-0.36,0.54V3.7h-0.22V1.11h0.24v0.64c0.08-0.18,0.2-0.33,0.35-0.45c0.14-0.11,0.3-0.18,0.48-0.2h0.16
	L27.45,1.33z M29.13,3.75c-0.18,0.01-0.35-0.03-0.51-0.11c-0.15-0.07-0.29-0.17-0.4-0.29c-0.24-0.25-0.37-0.59-0.36-0.94
	c0-0.18,0.03-0.36,0.1-0.52c0.11-0.32,0.36-0.58,0.67-0.72c0.16-0.07,0.33-0.11,0.5-0.11c0.17,0,0.34,0.04,0.5,0.11
	c0.15,0.07,0.28,0.17,0.4,0.29c0.11,0.13,0.2,0.27,0.27,0.43c0.06,0.17,0.09,0.34,0.09,0.52c0.01,0.35-0.12,0.69-0.36,0.94
	c-0.11,0.12-0.25,0.22-0.4,0.29C29.47,3.72,29.3,3.75,29.13,3.75z M28.13,2.42c0,0.15,0.03,0.29,0.08,0.43
	c0.05,0.13,0.12,0.25,0.22,0.35c0.09,0.1,0.2,0.18,0.32,0.24C28.87,3.5,29,3.53,29.14,3.53c0.14,0,0.28-0.03,0.4-0.09
	c0.12-0.06,0.23-0.14,0.32-0.24c0.09-0.11,0.17-0.23,0.22-0.36c0.05-0.14,0.08-0.29,0.08-0.44c0-0.15-0.03-0.29-0.08-0.43
	c-0.05-0.13-0.13-0.25-0.22-0.35c-0.09-0.1-0.2-0.18-0.32-0.24c-0.12-0.06-0.25-0.09-0.39-0.09c-0.14,0-0.28,0.03-0.4,0.09
	c-0.12,0.06-0.23,0.14-0.32,0.24c-0.09,0.11-0.17,0.23-0.22,0.36c-0.06,0.14-0.09,0.29-0.1,0.44H28.13z M32.37,3.58H32.3l-0.12,0.06
	h-0.16c-0.07,0.01-0.13,0.01-0.2,0c-0.07,0.01-0.13,0.01-0.2,0c-0.06-0.02-0.11-0.05-0.16-0.09c-0.04-0.04-0.08-0.09-0.11-0.14
	c-0.01-0.07-0.01-0.13,0-0.2v-2h-0.4v-0.2h0.36V0.25h0.25v0.89h0.61v0.2h-0.61v1.91c0,0.08,0.03,0.16,0.1,0.21
	c0.07,0.05,0.15,0.08,0.23,0.08c0.09,0,0.18-0.02,0.26-0.06l0.14-0.06L32.37,3.58z M34.09,3.75c-0.18,0-0.35-0.03-0.51-0.11
	c-0.15-0.07-0.29-0.17-0.4-0.29c-0.12-0.12-0.21-0.27-0.27-0.43c-0.07-0.17-0.1-0.35-0.1-0.53c0-0.18,0.03-0.35,0.1-0.51
	c0.06-0.16,0.15-0.3,0.26-0.43c0.12-0.12,0.26-0.21,0.41-0.28c0.16-0.07,0.33-0.11,0.5-0.11c0.18,0,0.35,0.04,0.51,0.11
	c0.3,0.14,0.54,0.4,0.66,0.71c0.07,0.16,0.1,0.33,0.1,0.51v0.07l0,0h-2.28c0.01,0.14,0.04,0.29,0.1,0.42
	C33.22,3,33.3,3.12,33.4,3.21c0.09,0.1,0.2,0.17,0.32,0.22c0.21,0.08,0.44,0.08,0.65,0c0.08-0.02,0.17-0.05,0.24-0.1
	c0.08-0.04,0.14-0.1,0.2-0.16c0.06-0.06,0.11-0.13,0.14-0.2l0.22,0.06c-0.04,0.1-0.1,0.18-0.17,0.26c-0.07,0.08-0.15,0.15-0.25,0.2
	c-0.1,0.06-0.2,0.1-0.31,0.13C34.33,3.69,34.21,3.73,34.09,3.75z M35.09,2.3c-0.01-0.14-0.04-0.28-0.1-0.41
	c-0.06-0.12-0.13-0.23-0.23-0.33c-0.09-0.09-0.2-0.16-0.31-0.22c-0.12-0.05-0.26-0.07-0.39-0.07c-0.13,0-0.26,0.02-0.38,0.07
	c-0.12,0.06-0.23,0.13-0.32,0.22c-0.09,0.1-0.17,0.21-0.22,0.33c-0.05,0.13-0.09,0.27-0.1,0.41H35.09z M36.15,0.52V0.06h0.25v0.46
	H36.15z M36.15,3.7V1.11h0.25V3.7H36.15z M39.55,3.7H39.3V2.25c0.02-0.25-0.03-0.5-0.14-0.73c-0.1-0.15-0.27-0.24-0.45-0.23
	c-0.11,0-0.22,0.02-0.33,0.06c-0.11,0.04-0.21,0.1-0.3,0.17c-0.1,0.07-0.18,0.16-0.25,0.26c-0.07,0.09-0.12,0.2-0.15,0.31V3.7h-0.25
	V1.11h0.23v0.62c0.06-0.1,0.12-0.19,0.2-0.28c0.08-0.08,0.17-0.15,0.27-0.21c0.1-0.06,0.2-0.1,0.31-0.13c0.11-0.02,0.23-0.02,0.34,0
	c0.24-0.02,0.47,0.09,0.6,0.3c0.13,0.26,0.18,0.56,0.17,0.85L39.55,3.7z M40.65,4.11l0.07-0.4h-0.09V3.25h0.26v0.43l-0.11,0.4
	L40.65,4.11z M44.16,3.75c-0.11,0-0.22-0.02-0.33-0.06c-0.1-0.04-0.19-0.09-0.27-0.17c-0.08-0.07-0.14-0.16-0.19-0.25
	c-0.04-0.1-0.06-0.21-0.06-0.32c-0.01-0.11,0.02-0.22,0.08-0.31c0.05-0.1,0.13-0.18,0.22-0.24c0.1-0.07,0.22-0.12,0.34-0.15
	c0.14-0.04,0.29-0.06,0.44-0.06c0.14-0.01,0.28-0.01,0.42,0c0.13,0.02,0.26,0.05,0.38,0.1V2.03c0.02-0.21-0.06-0.43-0.21-0.58
	c-0.14-0.15-0.35-0.23-0.56-0.22c-0.14,0-0.28,0.03-0.41,0.08c-0.15,0.06-0.3,0.14-0.43,0.23l-0.09-0.17
	c0.28-0.2,0.61-0.32,0.95-0.34c0.27-0.01,0.53,0.09,0.73,0.27c0.19,0.2,0.29,0.47,0.27,0.75v1.3c0,0.09,0,0.13,0.11,0.13V3.7h-0.1
	c-0.06,0-0.12-0.02-0.16-0.07c-0.04-0.04-0.07-0.1-0.07-0.16V3.25c-0.12,0.15-0.28,0.27-0.45,0.36C44.58,3.7,44.37,3.75,44.16,3.75z
	 M44.21,3.55c0.18,0.01,0.36-0.03,0.53-0.11c0.15-0.06,0.28-0.16,0.37-0.29c0.05-0.05,0.08-0.13,0.08-0.2V2.49
	c-0.12-0.04-0.24-0.08-0.37-0.1c-0.13-0.01-0.27-0.01-0.4,0c-0.12-0.02-0.24-0.02-0.36,0c-0.09,0.02-0.19,0.06-0.27,0.11
	c-0.15,0.09-0.24,0.25-0.24,0.42c0,0.09,0.01,0.17,0.05,0.25c0.03,0.07,0.08,0.14,0.14,0.19c0.13,0.12,0.3,0.18,0.47,0.18
	L44.21,3.55z M48.57,3.7h-0.25V2.25c0.02-0.25-0.03-0.5-0.14-0.73c-0.1-0.15-0.27-0.24-0.45-0.23c-0.11,0-0.22,0.02-0.33,0.06
	c-0.11,0.04-0.21,0.1-0.3,0.17c-0.09,0.07-0.17,0.16-0.24,0.26c-0.07,0.09-0.13,0.2-0.16,0.31V3.7h-0.25V1.11h0.24v0.62
	c0.05-0.1,0.12-0.19,0.19-0.28c0.08-0.08,0.17-0.14,0.27-0.2c0.1-0.05,0.2-0.1,0.31-0.13c0.11-0.02,0.23-0.02,0.34,0
	c0.24-0.02,0.47,0.09,0.6,0.3c0.13,0.26,0.18,0.56,0.17,0.85V3.7z M50.64,3.75c-0.17,0-0.34-0.04-0.5-0.11
	c-0.15-0.08-0.28-0.18-0.39-0.3c-0.11-0.13-0.2-0.27-0.26-0.43c-0.06-0.16-0.09-0.33-0.09-0.5c0-0.17,0.03-0.35,0.09-0.51
	c0.05-0.16,0.14-0.31,0.25-0.43c0.1-0.12,0.23-0.23,0.37-0.3c0.25-0.12,0.54-0.14,0.8-0.06l0.28,0.13c0.08,0.06,0.16,0.13,0.23,0.2
	c0.07,0.07,0.13,0.15,0.18,0.23V0.06h0.25v3.29c0,0.09,0,0.13,0.11,0.13V3.7h-0.09c-0.07,0.01-0.13-0.03-0.17-0.08
	c-0.05-0.04-0.07-0.1-0.07-0.16V3.17c-0.11,0.17-0.25,0.32-0.43,0.42C51.03,3.69,50.84,3.75,50.64,3.75z M50.64,3.53
	c0.1,0,0.2-0.02,0.29-0.06c0.1-0.03,0.2-0.08,0.28-0.15c0.09-0.06,0.16-0.14,0.23-0.22c0.06-0.08,0.1-0.17,0.11-0.27V1.98
	c-0.04-0.1-0.09-0.19-0.16-0.27c-0.06-0.09-0.14-0.16-0.23-0.22c-0.09-0.06-0.18-0.11-0.28-0.15c-0.09-0.04-0.19-0.05-0.29-0.05
	c-0.14,0-0.28,0.03-0.41,0.09c-0.12,0.07-0.22,0.15-0.31,0.26c-0.09,0.1-0.16,0.23-0.2,0.36c-0.05,0.13-0.07,0.27-0.07,0.41
	c0,0.15,0.03,0.29,0.08,0.43c0.05,0.13,0.13,0.25,0.22,0.35c0.09,0.1,0.21,0.19,0.33,0.25c0.14,0.07,0.3,0.1,0.46,0.09H50.64z
	 M55.58,3.58h-0.06L55.4,3.64h-0.17c-0.06,0.01-0.13,0.01-0.19,0c-0.07,0.01-0.13,0.01-0.2,0c-0.06-0.02-0.11-0.05-0.16-0.09
	c-0.04-0.04-0.08-0.09-0.11-0.14c-0.02-0.07-0.02-0.13,0-0.2v-2h-0.36v-0.2h0.36V0.25h0.25v0.89h0.6v0.2h-0.6v1.91
	c-0.01,0.08,0.03,0.16,0.1,0.21c0.06,0.05,0.14,0.08,0.22,0.08c0.09,0,0.19-0.02,0.27-0.06l0.14-0.06L55.58,3.58z M58.39,3.7h-0.25
	V2.25c0-0.64-0.21-1-0.64-1c-0.11,0-0.21,0.02-0.31,0.06c-0.1,0.04-0.2,0.1-0.29,0.17c-0.09,0.07-0.17,0.16-0.23,0.26
	c-0.07,0.09-0.12,0.2-0.15,0.31v1.61h-0.27v-3.6h0.25v1.67c0.1-0.2,0.25-0.37,0.44-0.49c0.18-0.12,0.39-0.18,0.61-0.18
	c0.13,0,0.25,0.03,0.37,0.08c0.1,0.05,0.19,0.13,0.26,0.23c0.07,0.11,0.12,0.23,0.15,0.36c0.02,0.16,0.02,0.32,0,0.48L58.39,3.7z
	 M60.5,3.75c-0.18,0-0.35-0.03-0.51-0.11c-0.15-0.07-0.29-0.17-0.41-0.29c-0.11-0.13-0.2-0.27-0.27-0.43
	c-0.06-0.17-0.09-0.35-0.09-0.53c0-0.17,0.03-0.35,0.09-0.51c0.07-0.16,0.16-0.3,0.27-0.43c0.11-0.12,0.25-0.21,0.4-0.28
	c0.16-0.07,0.33-0.11,0.5-0.11c0.18,0,0.35,0.04,0.51,0.11c0.15,0.07,0.29,0.17,0.41,0.29c0.11,0.12,0.2,0.26,0.26,0.42
	c0.06,0.16,0.1,0.34,0.1,0.51v0.07l0,0h-2.28c0.01,0.14,0.04,0.29,0.1,0.42c0.06,0.12,0.13,0.23,0.23,0.33
	c0.09,0.1,0.19,0.17,0.31,0.22c0.12,0.06,0.26,0.08,0.39,0.08c0.09,0.02,0.17,0.02,0.26,0c0.09-0.02,0.17-0.05,0.24-0.1
	c0.09-0.03,0.18-0.09,0.24-0.16c0.06-0.06,0.11-0.12,0.14-0.2l0.22,0.06c-0.04,0.1-0.09,0.18-0.16,0.26
	c-0.07,0.08-0.16,0.15-0.25,0.2c-0.1,0.06-0.2,0.1-0.31,0.13C60.76,3.74,60.63,3.76,60.5,3.75z M61.5,2.3
	c-0.01-0.14-0.05-0.28-0.11-0.41c-0.05-0.12-0.13-0.24-0.22-0.33c-0.09-0.09-0.2-0.16-0.32-0.22c-0.12-0.05-0.25-0.07-0.38-0.07
	c-0.13,0-0.27,0.02-0.39,0.07c-0.11,0.06-0.22,0.13-0.31,0.22c-0.09,0.09-0.17,0.21-0.22,0.33c-0.06,0.13-0.09,0.27-0.1,0.41H61.5z
	 M63.78,1.33c-0.22,0.01-0.43,0.08-0.61,0.21c-0.18,0.14-0.31,0.33-0.37,0.54V3.7h-0.25V1.11h0.24v0.64
	c0.08-0.18,0.2-0.33,0.36-0.45c0.14-0.11,0.3-0.18,0.48-0.2h0.15L63.78,1.33z M65.48,3.75c-0.18,0-0.35-0.03-0.51-0.11
	c-0.15-0.07-0.29-0.17-0.41-0.29c-0.11-0.13-0.2-0.27-0.27-0.43c-0.06-0.17-0.09-0.35-0.09-0.53c0-0.17,0.03-0.35,0.09-0.51
	c0.07-0.16,0.16-0.3,0.27-0.43c0.11-0.12,0.25-0.21,0.4-0.28c0.16-0.07,0.33-0.11,0.5-0.11c0.18,0,0.35,0.04,0.51,0.11
	c0.15,0.07,0.29,0.17,0.41,0.29c0.11,0.12,0.2,0.26,0.26,0.42c0.06,0.16,0.1,0.34,0.1,0.51v0.07l0,0h-2.28
	c0.01,0.14,0.04,0.29,0.1,0.42c0.06,0.12,0.13,0.23,0.23,0.33c0.09,0.1,0.19,0.17,0.31,0.22c0.12,0.06,0.26,0.08,0.39,0.08
	c0.09,0.02,0.17,0.02,0.26,0c0.09-0.02,0.17-0.05,0.24-0.1c0.08-0.04,0.15-0.09,0.2-0.16c0.06-0.06,0.11-0.12,0.14-0.2l0.22,0.06
	c-0.04,0.1-0.09,0.18-0.16,0.26c-0.07,0.08-0.16,0.15-0.25,0.2c-0.1,0.06-0.2,0.1-0.31,0.13C65.71,3.74,65.6,3.75,65.48,3.75z
	 M66.48,2.3c-0.01-0.14-0.05-0.28-0.11-0.41c-0.05-0.12-0.13-0.24-0.22-0.33c-0.09-0.09-0.2-0.16-0.32-0.22
	c-0.12-0.05-0.25-0.07-0.38-0.07c-0.13,0-0.27,0.02-0.39,0.07c-0.11,0.06-0.22,0.13-0.31,0.22c-0.09,0.09-0.17,0.21-0.22,0.33
	c-0.06,0.13-0.09,0.27-0.1,0.41H66.48z M67.62,3.7V1.31h-0.37v-0.2h0.36V1.02c-0.02-0.26,0.05-0.52,0.2-0.74
	C67.93,0.1,68.13,0,68.35,0.01c0.1-0.01,0.19-0.01,0.29,0c0.08,0.03,0.16,0.07,0.23,0.12l-0.09,0.18l-0.17-0.06
	c-0.07-0.01-0.14-0.01-0.21,0c-0.16-0.01-0.3,0.07-0.39,0.2c-0.1,0.18-0.15,0.38-0.14,0.59v0.09h0.74v0.2h-0.74v2.39L67.62,3.7z
	 M70.3,3.75c-0.34,0-0.67-0.15-0.9-0.4c-0.12-0.12-0.21-0.27-0.27-0.43c-0.06-0.16-0.09-0.34-0.09-0.51c0-0.18,0.03-0.35,0.09-0.52
	c0.07-0.16,0.16-0.3,0.27-0.43c0.11-0.12,0.25-0.22,0.4-0.29c0.16-0.07,0.33-0.11,0.5-0.11c0.34,0,0.67,0.15,0.9,0.4
	c0.12,0.12,0.21,0.27,0.27,0.43c0.07,0.16,0.1,0.34,0.1,0.52c0,0.18-0.03,0.35-0.1,0.51c-0.11,0.32-0.35,0.58-0.66,0.72
	C70.65,3.72,70.47,3.75,70.3,3.75z M69.3,2.42c0,0.29,0.1,0.56,0.29,0.78c0.09,0.1,0.2,0.18,0.32,0.24c0.12,0.06,0.26,0.09,0.4,0.09
	c0.14,0,0.27-0.03,0.39-0.09c0.12-0.06,0.24-0.14,0.33-0.24c0.09-0.11,0.16-0.23,0.22-0.36c0.05-0.14,0.08-0.29,0.08-0.44
	c0-0.15-0.03-0.29-0.08-0.43c-0.06-0.13-0.13-0.25-0.22-0.35c-0.09-0.1-0.2-0.18-0.32-0.24c-0.12-0.06-0.26-0.09-0.4-0.09
	c-0.14,0-0.27,0.03-0.39,0.09c-0.12,0.06-0.23,0.14-0.32,0.24c-0.1,0.1-0.17,0.23-0.22,0.36c-0.07,0.14-0.12,0.29-0.13,0.44H69.3z
	 M73.65,1.33c-0.22,0-0.44,0.07-0.61,0.21c-0.18,0.13-0.31,0.32-0.37,0.54V3.7h-0.25V1.11h0.24v0.64c0.08-0.18,0.2-0.33,0.36-0.45
	c0.13-0.11,0.3-0.18,0.47-0.2h0.16V1.33z M75.34,3.75c-0.18,0-0.35-0.03-0.51-0.11c-0.15-0.07-0.29-0.17-0.4-0.29
	c-0.12-0.12-0.21-0.27-0.27-0.43c-0.07-0.17-0.1-0.35-0.1-0.53c0-0.18,0.03-0.35,0.1-0.51c0.06-0.16,0.15-0.31,0.27-0.43
	c0.11-0.12,0.25-0.22,0.4-0.28c0.16-0.07,0.33-0.11,0.5-0.11c0.18,0,0.35,0.04,0.51,0.11c0.15,0.07,0.29,0.17,0.4,0.29
	c0.11,0.12,0.2,0.27,0.27,0.42c0.06,0.16,0.09,0.34,0.09,0.51V2.5h-2.28c0.01,0.15,0.05,0.29,0.11,0.42
	c0.05,0.12,0.13,0.23,0.22,0.33c0.09,0.1,0.2,0.17,0.32,0.22c0.21,0.08,0.44,0.08,0.65,0c0.09-0.02,0.17-0.05,0.24-0.1
	c0.08-0.04,0.15-0.09,0.2-0.16c0.06-0.06,0.11-0.13,0.14-0.2l0.22,0.06c-0.04,0.1-0.1,0.19-0.17,0.26c-0.07,0.08-0.15,0.15-0.25,0.2
	c-0.1,0.06-0.2,0.1-0.31,0.13C75.58,3.71,75.46,3.74,75.34,3.75z M76.34,2.3c-0.01-0.14-0.04-0.28-0.1-0.41
	c-0.05-0.12-0.13-0.24-0.23-0.33c-0.09-0.09-0.2-0.16-0.31-0.22c-0.12-0.05-0.26-0.07-0.39-0.07c-0.13,0-0.26,0.02-0.38,0.07
	c-0.12,0.06-0.23,0.13-0.32,0.22c-0.09,0.1-0.17,0.21-0.22,0.33c-0.05,0.13-0.08,0.27-0.09,0.41H76.34z M81.05,3.7H80.8V2.25
	c0-0.64-0.21-1-0.64-1c-0.11,0-0.21,0.02-0.31,0.06c-0.1,0.04-0.2,0.1-0.29,0.17c-0.09,0.07-0.17,0.16-0.23,0.26
	c-0.07,0.09-0.12,0.2-0.15,0.31v1.61h-0.25v-3.6h0.25v1.67c0.1-0.2,0.25-0.37,0.44-0.49c0.18-0.12,0.39-0.18,0.61-0.18
	c0.13,0,0.25,0.03,0.37,0.08c0.1,0.05,0.19,0.13,0.26,0.23C80.92,1.48,80.97,1.6,81,1.73c0.02,0.16,0.02,0.32,0,0.48L81.05,3.7z
	 M82.69,3.75c-0.11,0-0.22-0.02-0.33-0.06c-0.1-0.04-0.19-0.1-0.27-0.17c-0.08-0.07-0.14-0.15-0.18-0.25
	c-0.05-0.1-0.07-0.21-0.07-0.32c0-0.11,0.03-0.22,0.08-0.31c0.05-0.1,0.13-0.18,0.22-0.24c0.1-0.07,0.22-0.13,0.34-0.16
	c0.14-0.04,0.29-0.06,0.44-0.06c0.14-0.01,0.29-0.01,0.43,0c0.13,0.02,0.26,0.05,0.38,0.1V2.02c0.01-0.21-0.06-0.42-0.21-0.58
	c-0.15-0.14-0.36-0.21-0.57-0.19c-0.14,0-0.27,0.03-0.4,0.08c-0.15,0.06-0.3,0.13-0.43,0.23l-0.1-0.17c0.29-0.21,0.64-0.33,1-0.34
	c0.27-0.02,0.54,0.08,0.74,0.27c0.19,0.2,0.29,0.47,0.27,0.75v1.28c0,0.09,0,0.13,0.11,0.13V3.7h-0.1c-0.06,0-0.12-0.02-0.16-0.07
	c-0.04-0.04-0.07-0.1-0.07-0.16V3.25c-0.13,0.15-0.28,0.27-0.46,0.36C83.14,3.71,82.92,3.75,82.69,3.75z M82.69,3.55
	c0.19,0.01,0.37-0.03,0.54-0.11c0.15-0.06,0.27-0.16,0.37-0.29c0.05-0.06,0.08-0.13,0.08-0.2V2.49c-0.12-0.04-0.25-0.08-0.38-0.1
	c-0.13-0.01-0.27-0.01-0.4,0c-0.12-0.02-0.24-0.02-0.36,0c-0.09,0.02-0.19,0.06-0.27,0.11c-0.15,0.09-0.24,0.25-0.24,0.42
	c-0.01,0.08-0.01,0.17,0,0.25c0.03,0.07,0.08,0.14,0.14,0.19c0.13,0.12,0.3,0.18,0.47,0.18L82.69,3.55z M85.81,3.75
	c-0.2,0-0.39-0.03-0.58-0.1c-0.18-0.06-0.35-0.16-0.48-0.3l0.13-0.17C85,3.3,85.15,3.39,85.31,3.46c0.16,0.06,0.33,0.09,0.5,0.09
	c0.19,0.01,0.38-0.04,0.54-0.14c0.14-0.09,0.21-0.24,0.21-0.4c0.02-0.07,0.02-0.13,0-0.2c-0.04-0.06-0.1-0.1-0.16-0.14
	c-0.08-0.04-0.17-0.08-0.26-0.1l-0.36-0.1c-0.13-0.02-0.26-0.06-0.38-0.1c-0.1-0.02-0.19-0.06-0.27-0.12
	c-0.07-0.04-0.12-0.1-0.15-0.17C84.93,2,84.91,1.92,84.92,1.83c0-0.12,0.03-0.23,0.08-0.34c0.05-0.1,0.12-0.18,0.21-0.24
	c0.09-0.06,0.19-0.11,0.3-0.14c0.12-0.02,0.25-0.02,0.37,0c0.18,0,0.37,0.03,0.54,0.1c0.14,0.06,0.26,0.15,0.36,0.27l-0.14,0.13
	c-0.09-0.1-0.21-0.18-0.34-0.22c-0.14-0.05-0.29-0.08-0.44-0.08h-0.27c-0.08,0.02-0.15,0.05-0.22,0.1c-0.06,0.04-0.11,0.1-0.15,0.16
	c-0.04,0.08-0.06,0.16-0.06,0.25c-0.01,0.06-0.01,0.12,0,0.18c0.03,0.05,0.07,0.09,0.12,0.12l0.21,0.09l0.31,0.08l0.44,0.11
	c0.11,0.03,0.21,0.08,0.31,0.14c0.08,0.05,0.15,0.11,0.2,0.19c0.05,0.09,0.07,0.18,0.07,0.28c0.01,0.22-0.1,0.43-0.28,0.55
	C86.32,3.7,86.07,3.77,85.81,3.75z M91.25,3.7H91V2.25c0.02-0.25-0.03-0.51-0.15-0.73c-0.1-0.15-0.27-0.24-0.45-0.23
	c-0.11,0-0.22,0.02-0.32,0.06c-0.11,0.04-0.21,0.1-0.31,0.17c-0.09,0.07-0.17,0.16-0.24,0.26c-0.07,0.09-0.12,0.2-0.15,0.31V3.7
	h-0.25V1.11h0.23v0.62c0.05-0.1,0.12-0.2,0.2-0.28c0.08-0.08,0.16-0.15,0.26-0.21c0.1-0.05,0.2-0.1,0.31-0.13
	c0.11-0.01,0.23-0.01,0.34,0c0.24-0.03,0.48,0.09,0.6,0.3c0.13,0.26,0.2,0.55,0.18,0.84V3.7z M93.38,3.75
	c-0.18,0.01-0.35-0.03-0.51-0.11c-0.15-0.07-0.29-0.17-0.4-0.29c-0.24-0.25-0.37-0.59-0.36-0.94c0-0.18,0.03-0.36,0.1-0.52
	c0.11-0.32,0.36-0.58,0.67-0.72c0.16-0.07,0.33-0.11,0.5-0.11c0.17,0,0.34,0.04,0.5,0.11c0.15,0.07,0.28,0.17,0.4,0.29
	c0.11,0.13,0.2,0.27,0.27,0.43c0.06,0.17,0.1,0.34,0.1,0.52c0,0.17-0.04,0.35-0.1,0.51c-0.06,0.16-0.16,0.3-0.27,0.43
	c-0.11,0.12-0.25,0.22-0.4,0.29C93.72,3.72,93.55,3.75,93.38,3.75z M92.38,2.42c0,0.15,0.03,0.29,0.08,0.43
	c0.05,0.13,0.12,0.25,0.22,0.35c0.09,0.1,0.2,0.18,0.32,0.24c0.12,0.06,0.25,0.09,0.39,0.09c0.14,0,0.28-0.03,0.4-0.09
	c0.12-0.06,0.23-0.14,0.32-0.24c0.09-0.11,0.17-0.23,0.22-0.36c0.05-0.14,0.08-0.29,0.08-0.44c0-0.15-0.03-0.29-0.08-0.43
	c-0.05-0.13-0.13-0.25-0.22-0.35c-0.09-0.1-0.2-0.18-0.32-0.24c-0.12-0.06-0.25-0.09-0.39-0.09c-0.14,0-0.28,0.03-0.4,0.09
	c-0.12,0.06-0.23,0.14-0.32,0.24c-0.09,0.11-0.17,0.23-0.22,0.36c-0.06,0.14-0.09,0.29-0.1,0.44H92.38z M98.25,1.33
	c-0.22,0.01-0.43,0.08-0.61,0.21c-0.18,0.14-0.31,0.33-0.37,0.54V3.7h-0.25V1.11h0.23v0.64c0.08-0.18,0.2-0.33,0.36-0.45
	c0.14-0.11,0.3-0.18,0.48-0.2h0.16V1.33z M99.78,3.75c-0.55,0-0.83-0.38-0.83-1.15V1.11h0.3v1.46c0,0.64,0.22,1,0.65,1
	c0.11,0,0.22-0.02,0.32-0.06c0.1-0.04,0.2-0.09,0.29-0.16c0.09-0.07,0.17-0.15,0.24-0.25c0.07-0.1,0.13-0.21,0.16-0.32V1.11h0.25
	v2.24c0,0.09,0,0.13,0.11,0.13V3.7h-0.08c-0.07,0-0.13-0.02-0.18-0.07c-0.05-0.04-0.07-0.1-0.07-0.16V3.08
	c-0.22,0.41-0.65,0.67-1.11,0.66L99.78,3.75z M103.37,3.75c-0.2,0.01-0.4-0.05-0.57-0.16c-0.17-0.1-0.32-0.24-0.42-0.41V3.7h-0.23
	V0.06h0.25v1.61c0.12-0.17,0.27-0.32,0.44-0.44c0.17-0.12,0.37-0.17,0.58-0.17c0.17,0,0.35,0.04,0.5,0.12
	c0.14,0.08,0.27,0.18,0.37,0.31c0.1,0.13,0.18,0.28,0.24,0.43c0.05,0.16,0.08,0.32,0.08,0.49c0,0.18-0.03,0.36-0.1,0.52
	c-0.06,0.16-0.15,0.3-0.26,0.42c-0.11,0.12-0.24,0.22-0.39,0.29C103.7,3.71,103.54,3.75,103.37,3.75z M103.32,3.53
	c0.15,0,0.29-0.03,0.42-0.1c0.12-0.06,0.23-0.15,0.32-0.25c0.1-0.1,0.17-0.23,0.22-0.36c0.05-0.13,0.07-0.27,0.07-0.41
	c0-0.14-0.02-0.29-0.07-0.42c-0.05-0.13-0.11-0.25-0.2-0.36c-0.09-0.1-0.2-0.19-0.32-0.25c-0.12-0.06-0.26-0.09-0.4-0.09
	c-0.11,0-0.21,0.02-0.31,0.05c-0.09,0.04-0.18,0.09-0.26,0.16c-0.09,0.06-0.16,0.13-0.22,0.22c-0.07,0.08-0.12,0.17-0.17,0.26v0.85
	c0.01,0.1,0.05,0.2,0.11,0.28c0.07,0.08,0.14,0.15,0.23,0.21c0.09,0.07,0.18,0.12,0.29,0.15C103.12,3.51,103.22,3.53,103.32,3.53z
	 M106.67,3.75c-0.41,0-0.79-0.22-1-0.57V3.7h-0.23V0.06h0.25v1.61c0.11-0.17,0.26-0.32,0.43-0.44c0.18-0.11,0.38-0.17,0.59-0.17
	c0.17,0,0.34,0.04,0.49,0.12c0.15,0.08,0.27,0.18,0.38,0.31c0.1,0.13,0.18,0.27,0.23,0.43c0.06,0.16,0.08,0.32,0.08,0.49
	c0,0.18-0.03,0.35-0.09,0.52c-0.06,0.15-0.15,0.3-0.26,0.42c-0.12,0.12-0.25,0.22-0.4,0.29C106.99,3.71,106.83,3.75,106.67,3.75z
	 M106.67,3.53c0.15,0,0.29-0.03,0.42-0.1c0.13-0.06,0.24-0.14,0.33-0.25c0.09-0.11,0.16-0.23,0.21-0.36
	c0.05-0.13,0.08-0.27,0.08-0.41c0-0.14-0.03-0.28-0.07-0.42c-0.05-0.13-0.12-0.25-0.21-0.36c-0.09-0.1-0.19-0.19-0.31-0.25
	c-0.12-0.06-0.26-0.09-0.4-0.09c-0.11,0-0.21,0.02-0.31,0.05c-0.19,0.08-0.36,0.21-0.49,0.38c-0.07,0.08-0.12,0.17-0.16,0.26v0.85
	c0.01,0.1,0.05,0.2,0.11,0.28c0.06,0.08,0.14,0.15,0.22,0.21c0.09,0.07,0.18,0.12,0.29,0.15c0.08,0.03,0.16,0.05,0.24,0.06H106.67z
	 M109.86,3.75c-0.18,0-0.35-0.03-0.51-0.11c-0.15-0.07-0.29-0.17-0.4-0.29c-0.12-0.12-0.21-0.27-0.27-0.43
	c-0.07-0.17-0.1-0.35-0.1-0.53c0-0.18,0.03-0.35,0.1-0.51c0.06-0.16,0.15-0.31,0.27-0.43c0.11-0.12,0.25-0.22,0.4-0.28
	c0.16-0.07,0.33-0.11,0.5-0.11c0.18,0,0.35,0.04,0.51,0.11c0.15,0.07,0.29,0.17,0.4,0.29c0.12,0.12,0.21,0.26,0.27,0.42
	c0.06,0.16,0.09,0.34,0.09,0.51V2.5h-2.28c0.01,0.15,0.05,0.29,0.11,0.42c0.05,0.12,0.13,0.23,0.22,0.33
	c0.09,0.1,0.2,0.17,0.32,0.22c0.21,0.08,0.44,0.08,0.65,0c0.09-0.02,0.17-0.05,0.24-0.1c0.08-0.04,0.15-0.09,0.2-0.16
	c0.06-0.06,0.11-0.13,0.14-0.2l0.22,0.06c-0.04,0.1-0.1,0.19-0.17,0.26c-0.07,0.08-0.15,0.15-0.24,0.2c-0.1,0.06-0.21,0.1-0.32,0.13
	C110.1,3.71,109.98,3.74,109.86,3.75z M110.86,2.3c-0.01-0.14-0.04-0.28-0.1-0.41c-0.05-0.12-0.13-0.23-0.22-0.33
	c-0.1-0.09-0.2-0.16-0.32-0.22c-0.12-0.05-0.26-0.07-0.39-0.07c-0.13,0-0.26,0.02-0.38,0.07c-0.12,0.06-0.23,0.13-0.32,0.22
	c-0.09,0.1-0.17,0.21-0.22,0.33c-0.05,0.13-0.08,0.27-0.09,0.41H110.86z M113.15,1.33c-0.22,0-0.44,0.07-0.61,0.21
	c-0.18,0.13-0.31,0.32-0.37,0.54V3.7h-0.25V1.11h0.24v0.64c0.08-0.18,0.2-0.33,0.36-0.45c0.13-0.11,0.3-0.18,0.47-0.2h0.16V1.33z
	 M0.03,10.06h0.22v3.13c-0.01,0.08,0.02,0.17,0.08,0.23c0.06,0.05,0.14,0.08,0.22,0.08h0.14h0.14v0.2
	c-0.07,0.03-0.14,0.05-0.21,0.06H0.4c-0.12,0.01-0.24-0.04-0.33-0.13c-0.07-0.11-0.09-0.25-0.04-0.38V10.06z M2.19,13.75
	c-0.11,0-0.22-0.02-0.33-0.06c-0.1-0.04-0.19-0.09-0.27-0.17c-0.08-0.08-0.14-0.17-0.19-0.27c-0.04-0.1-0.06-0.21-0.06-0.32
	c-0.01-0.11,0.02-0.22,0.08-0.31c0.05-0.1,0.13-0.18,0.22-0.24c0.11-0.06,0.22-0.11,0.34-0.13c0.14-0.04,0.29-0.06,0.44-0.06
	c0.14-0.01,0.28-0.01,0.42,0c0.13,0.02,0.26,0.05,0.38,0.1v-0.26c0.01-0.21-0.06-0.42-0.21-0.58c-0.15-0.14-0.35-0.22-0.56-0.2
	c-0.14,0-0.28,0.03-0.41,0.08c-0.15,0.06-0.3,0.14-0.43,0.23l-0.09-0.17c0.29-0.21,0.64-0.33,1-0.34c0.27-0.01,0.53,0.09,0.73,0.27
	c0.19,0.2,0.29,0.47,0.27,0.75v1.28c0,0.09,0,0.13,0.11,0.13v0.22h-0.1c-0.06,0-0.12-0.02-0.16-0.07c-0.06-0.03-0.1-0.09-0.12-0.15
	v-0.23c-0.12,0.15-0.28,0.27-0.45,0.36C2.61,13.7,2.4,13.75,2.19,13.75z M2.25,13.55c0.18,0.01,0.36-0.03,0.53-0.11
	c0.15-0.06,0.28-0.16,0.37-0.29c0.06-0.05,0.09-0.12,0.1-0.2v-0.46c-0.12-0.04-0.24-0.08-0.37-0.1c-0.13-0.01-0.27-0.01-0.4,0
	c-0.12,0-0.24,0.02-0.36,0.05c-0.09,0.02-0.19,0.06-0.27,0.11c-0.15,0.09-0.24,0.25-0.24,0.42c-0.02,0.08-0.02,0.17,0,0.25
	c0.03,0.07,0.08,0.14,0.14,0.19c0.06,0.06,0.13,0.1,0.21,0.13C2.05,13.57,2.15,13.57,2.25,13.55z M5.62,13.58H5.55l-0.12,0.06H5.27
	c-0.06,0.01-0.13,0.01-0.19,0c-0.07,0.01-0.13,0.01-0.2,0c-0.06-0.02-0.11-0.05-0.16-0.09c-0.05-0.04-0.09-0.08-0.11-0.14
	c-0.02-0.07-0.02-0.13,0-0.2v-2H4.25v-0.2h0.37v-0.76h0.25v0.89h0.6v0.2h-0.6v1.91c-0.01,0.08,0.03,0.16,0.1,0.21
	c0.06,0.05,0.14,0.08,0.22,0.08c0.09,0,0.19-0.02,0.27-0.06l0.13-0.06L5.62,13.58z M7.35,13.75C7.17,13.76,7,13.72,6.84,13.64
	c-0.16-0.07-0.29-0.17-0.41-0.29c-0.11-0.13-0.2-0.27-0.27-0.43c-0.06-0.17-0.1-0.35-0.1-0.53c0-0.17,0.04-0.35,0.1-0.51
	c0.06-0.16,0.16-0.3,0.27-0.43c0.11-0.12,0.25-0.22,0.4-0.28c0.16-0.07,0.33-0.11,0.5-0.11c0.18,0,0.35,0.04,0.51,0.11
	c0.15,0.07,0.29,0.17,0.4,0.29c0.12,0.12,0.21,0.26,0.27,0.42c0.06,0.16,0.09,0.34,0.09,0.51v0.11H6.32
	c0.01,0.15,0.05,0.29,0.11,0.42c0.05,0.12,0.13,0.23,0.22,0.33c0.09,0.09,0.2,0.17,0.32,0.22c0.12,0.06,0.26,0.08,0.39,0.08
	c0.09,0.01,0.17,0.01,0.26,0c0.09-0.02,0.17-0.05,0.24-0.1c0.08-0.04,0.15-0.09,0.2-0.16c0.08-0.06,0.15-0.14,0.19-0.24l0.22,0.06
	c-0.04,0.1-0.09,0.18-0.16,0.26c-0.07,0.08-0.16,0.15-0.25,0.2c-0.1,0.06-0.2,0.1-0.31,0.13C7.62,13.74,7.48,13.76,7.35,13.75z
	 M8.35,12.3c-0.01-0.14-0.04-0.28-0.1-0.41c-0.05-0.12-0.13-0.23-0.22-0.33c-0.09-0.09-0.2-0.16-0.32-0.22
	c-0.12-0.05-0.24-0.08-0.37-0.09c-0.13,0-0.27,0.02-0.39,0.07c-0.12,0.06-0.22,0.13-0.32,0.22c-0.09,0.09-0.16,0.21-0.21,0.33
	c-0.06,0.13-0.09,0.27-0.1,0.41L8.35,12.3z M9.25,11.11l0.84,1.07v0.07v-0.07l0.83-1.07h0.28l-1,1.3l1,1.29h-0.27l-0.68-1.07v-0.06
	v0.06l-1,1.07H9.01l1-1.29l-1-1.3L9.25,11.11z M14.39,13.75c-0.2,0-0.39-0.03-0.58-0.1c-0.18-0.06-0.35-0.16-0.48-0.3l0.13-0.17
	c0.12,0.12,0.27,0.21,0.43,0.28c0.16,0.06,0.33,0.09,0.5,0.09c0.19,0.01,0.38-0.04,0.54-0.14c0.14-0.09,0.21-0.24,0.21-0.4
	c0-0.07-0.02-0.14-0.05-0.2c-0.04-0.06-0.1-0.1-0.16-0.14c-0.08-0.04-0.17-0.08-0.26-0.1l-0.36-0.1c-0.13-0.02-0.26-0.06-0.38-0.1
	c-0.1-0.02-0.19-0.06-0.27-0.12c-0.07-0.04-0.12-0.1-0.15-0.17c-0.04-0.08-0.06-0.16-0.06-0.25c0-0.12,0.03-0.23,0.08-0.34
	c0.05-0.1,0.12-0.18,0.21-0.24c0.09-0.06,0.19-0.11,0.3-0.14c0.12-0.02,0.25-0.02,0.37,0c0.18,0,0.37,0.03,0.54,0.1
	c0.14,0.06,0.26,0.15,0.36,0.27l-0.14,0.13c-0.09-0.1-0.21-0.18-0.34-0.22c-0.14-0.05-0.29-0.08-0.44-0.08
	c-0.09-0.01-0.18-0.01-0.27,0c-0.08,0.02-0.15,0.05-0.22,0.1c-0.06,0.04-0.12,0.09-0.15,0.16c-0.04,0.08-0.06,0.16-0.06,0.25
	c-0.01,0.06-0.01,0.12,0,0.18c0.03,0.05,0.07,0.09,0.12,0.12l0.21,0.09l0.31,0.08l0.44,0.11c0.11,0.03,0.21,0.08,0.31,0.14
	c0.08,0.05,0.15,0.11,0.2,0.19c0.04,0.09,0.07,0.18,0.06,0.28c0.01,0.22-0.09,0.42-0.27,0.55C14.87,13.69,14.63,13.76,14.39,13.75z
	 M20.03,13.7h-0.25v-1.45c0.02-0.25-0.04-0.5-0.16-0.72c-0.1-0.16-0.27-0.25-0.46-0.24c-0.11,0-0.21,0.02-0.31,0.06
	c-0.09,0.04-0.18,0.1-0.26,0.17c-0.08,0.07-0.15,0.16-0.21,0.25c-0.06,0.1-0.11,0.22-0.14,0.33v1.6h-0.25v-1.45
	c0.02-0.25-0.03-0.5-0.15-0.73c-0.1-0.16-0.28-0.24-0.46-0.23c-0.1,0-0.21,0.02-0.3,0.06c-0.1,0.04-0.18,0.09-0.26,0.16
	c-0.08,0.08-0.16,0.16-0.22,0.26c-0.06,0.1-0.1,0.21-0.14,0.32v1.61h-0.21v-2.59h0.24v0.62c0.09-0.2,0.24-0.37,0.42-0.49
	c0.17-0.12,0.37-0.18,0.57-0.18c0.2-0.01,0.39,0.06,0.53,0.2c0.14,0.14,0.23,0.32,0.25,0.51c0.16-0.41,0.56-0.69,1-0.71
	c0.24-0.02,0.47,0.09,0.6,0.3c0.14,0.26,0.2,0.55,0.19,0.85L20.03,13.7z M22.13,13.75c-0.18,0-0.35-0.03-0.51-0.11
	c-0.15-0.07-0.29-0.17-0.4-0.29c-0.12-0.12-0.21-0.27-0.27-0.43c-0.07-0.17-0.1-0.35-0.1-0.53c0-0.18,0.03-0.35,0.1-0.51
	c0.07-0.16,0.17-0.31,0.3-0.43c0.12-0.12,0.25-0.21,0.4-0.28c0.32-0.14,0.68-0.14,1,0c0.3,0.14,0.54,0.4,0.66,0.71
	c0.07,0.16,0.1,0.33,0.1,0.51v0.07l0,0h-2.3c0.01,0.14,0.04,0.29,0.1,0.42c0.06,0.12,0.13,0.23,0.23,0.33
	c0.09,0.1,0.2,0.17,0.32,0.22c0.12,0.06,0.25,0.08,0.38,0.08c0.09,0.01,0.18,0.01,0.27,0c0.08-0.02,0.17-0.05,0.24-0.1
	c0.08-0.04,0.14-0.1,0.2-0.16c0.06-0.06,0.1-0.12,0.13-0.2l0.22,0.06c-0.03,0.1-0.09,0.19-0.16,0.26c-0.07,0.08-0.15,0.15-0.25,0.2
	c-0.1,0.06-0.2,0.1-0.31,0.13C22.37,13.74,22.25,13.75,22.13,13.75z M23.13,12.3c-0.01-0.14-0.04-0.28-0.1-0.41
	c-0.06-0.12-0.13-0.23-0.23-0.33c-0.09-0.09-0.2-0.16-0.31-0.22c-0.12-0.05-0.26-0.07-0.39-0.07c-0.13,0-0.26,0.02-0.38,0.07
	c-0.12,0.06-0.23,0.13-0.32,0.22c-0.09,0.1-0.17,0.21-0.22,0.33c-0.05,0.13-0.09,0.27-0.1,0.41H23.13z M24.25,10.06h0.25v3.13
	c0,0.08,0.03,0.16,0.08,0.23c0.06,0.05,0.15,0.08,0.23,0.08h0.13h0.15l0.05,0.2c-0.07,0.03-0.14,0.05-0.21,0.06h-0.22
	c-0.24,0.02-0.45-0.15-0.47-0.39c0-0.04,0-0.08,0.01-0.12V10.06z M25.75,10.06H26v3.13c0,0.09,0.03,0.17,0.09,0.23
	c0.06,0.05,0.14,0.08,0.22,0.08h0.14h0.14l0.05,0.2c-0.07,0.03-0.14,0.05-0.21,0.06h-0.22c-0.12,0.01-0.24-0.04-0.33-0.13
	c-0.11-0.1-0.15-0.24-0.13-0.38V10.06z M27.25,13.7v-0.45h0.22v0.42L27.25,13.7z"/>
<path class="st2" d="M4.25-27.49c-0.69,0.01-1.38-0.15-2-0.47c-0.6-0.3-1.13-0.71-1.57-1.21c-0.44-0.51-0.78-1.1-1-1.73
	c-0.49-1.29-0.49-2.71,0-4c0.23-0.63,0.57-1.21,1-1.72c0.44-0.51,0.97-0.93,1.57-1.23c0.62-0.3,1.31-0.45,2-0.44
	c0.69,0,1.38,0.16,2,0.47c0.6,0.31,1.13,0.73,1.57,1.24c0.43,0.51,0.77,1.1,1,1.73c0.24,0.64,0.36,1.32,0.36,2
	c0.01,0.7-0.12,1.4-0.38,2.06c-0.23,0.63-0.56,1.21-1,1.71c-0.44,0.49-0.97,0.9-1.57,1.19C5.61-27.61,4.93-27.47,4.25-27.49z
	 M-0.45-32.89c0,0.65,0.12,1.3,0.35,1.91c0.24,0.6,0.57,1.16,1,1.64c0.41,0.47,0.91,0.86,1.47,1.13c0.58,0.3,1.23,0.46,1.88,0.46
	c0.66,0.01,1.31-0.14,1.9-0.44c0.56-0.29,1.06-0.69,1.47-1.17c0.83-0.97,1.28-2.21,1.28-3.49c-0.01-0.65-0.14-1.3-0.39-1.9
	c-0.23-0.6-0.57-1.16-1-1.64c-0.4-0.49-0.9-0.89-1.46-1.18c-0.56-0.28-1.18-0.42-1.8-0.42c-0.66-0.01-1.3,0.14-1.89,0.44
	c-0.57,0.29-1.07,0.69-1.48,1.17C0.04-35.41-0.43-34.17-0.45-32.89z M11.37-27.57v-10.64h3.42c0.75-0.02,1.5,0.13,2.19,0.42
	c0.6,0.26,1.13,0.65,1.56,1.14c0.42,0.49,0.74,1.06,0.93,1.68c0.21,0.67,0.32,1.37,0.31,2.07c0,0.73-0.11,1.46-0.35,2.15
	c-0.22,0.62-0.56,1.19-1,1.68c-0.43,0.47-0.97,0.84-1.57,1.08c-0.66,0.26-1.36,0.39-2.07,0.38L11.37-27.57z M19.48-32.9
	c0.01-0.68-0.1-1.36-0.31-2c-0.19-0.59-0.49-1.13-0.9-1.59c-0.42-0.43-0.92-0.77-1.48-1c-0.63-0.26-1.32-0.38-2-0.37h-3.12v10h3.12
	c0.69,0.01,1.37-0.12,2-0.38c0.56-0.24,1.06-0.61,1.46-1.07c0.4-0.47,0.7-1.01,0.89-1.59C19.36-31.54,19.47-32.22,19.48-32.9z
	 M26.25-27.49c-0.69,0-1.38-0.16-2-0.47c-0.59-0.3-1.12-0.71-1.56-1.21c-0.44-0.51-0.78-1.1-1-1.73c-0.24-0.64-0.36-1.32-0.36-2
	c0-1.39,0.51-2.72,1.43-3.76c0.42-0.49,0.92-0.89,1.49-1.19c0.62-0.3,1.31-0.45,2-0.44c0.69,0,1.38,0.16,2,0.47
	c0.6,0.31,1.13,0.73,1.57,1.24c0.43,0.52,0.77,1.1,1,1.73c0.24,0.64,0.36,1.32,0.36,2c0,0.7-0.13,1.4-0.38,2.06
	c-0.25,0.63-0.6,1.2-1.05,1.71c-0.44,0.49-0.98,0.9-1.57,1.19C27.57-27.61,26.91-27.48,26.25-27.49z M21.59-32.89
	c-0.01,0.65,0.11,1.3,0.35,1.91c0.23,0.6,0.57,1.16,1,1.64c0.41,0.47,0.91,0.86,1.47,1.13c1.19,0.57,2.59,0.57,3.78,0
	c0.56-0.29,1.06-0.69,1.47-1.17c0.41-0.48,0.72-1.04,0.94-1.63c0.23-0.59,0.34-1.22,0.34-1.86c-0.02-0.65-0.16-1.28-0.41-1.88
	c-0.23-0.6-0.57-1.16-1-1.64c-0.41-0.47-0.91-0.85-1.47-1.13c-0.56-0.29-1.18-0.45-1.81-0.47c-0.66-0.01-1.31,0.15-1.9,0.44
	c-0.56,0.29-1.07,0.69-1.48,1.17C22.04-35.4,21.59-34.17,21.59-32.89z M33.38-27.57v-10.64h4.34c0.42,0,0.83,0.09,1.2,0.27
	c0.36,0.18,0.68,0.43,0.95,0.74c0.26,0.3,0.47,0.63,0.62,1c0.15,0.38,0.23,0.78,0.23,1.18c0,0.4-0.07,0.81-0.2,1.19
	c-0.12,0.36-0.31,0.7-0.55,1c-0.24,0.29-0.54,0.54-0.87,0.72c-0.34,0.18-0.71,0.29-1.1,0.32l2.7,4.18h-0.36l-2.7-4.14h-4v4.18H33.38
	z M33.68-32.05h4.14c0.38,0.01,0.75-0.08,1.08-0.25c0.31-0.17,0.59-0.4,0.82-0.67c0.23-0.28,0.4-0.6,0.52-0.94
	c0.12-0.35,0.18-0.71,0.18-1.08c0.01-0.37-0.04-0.74-0.17-1.09c-0.14-0.34-0.33-0.66-0.58-0.93c-0.25-0.27-0.54-0.49-0.86-0.66
	c-0.33-0.16-0.69-0.24-1.05-0.24h-4L33.68-32.05z M43.01-27.57v-10.64h0.3v10.34H50v0.3L43.01-27.57z M58.68-27.87v0.3h-7v-10.64
	h6.87v0.3h-6.56v4.75h5.75v0.3h-5.75v5L58.68-27.87z M66.87-36.75c-0.35-0.43-0.8-0.78-1.31-1c-0.52-0.18-1.08-0.26-1.63-0.25
	c-0.53-0.01-1.06,0.05-1.57,0.18c-0.39,0.1-0.75,0.27-1.07,0.51c-0.27,0.22-0.48,0.49-0.61,0.81c-0.14,0.33-0.2,0.69-0.2,1.05
	c-0.01,0.33,0.06,0.65,0.2,0.95c0.14,0.26,0.35,0.48,0.6,0.64c0.31,0.2,0.65,0.35,1,0.45c0.42,0.13,0.93,0.25,1.52,0.37
	s1.12,0.25,1.6,0.39c0.43,0.12,0.84,0.3,1.23,0.52c0.31,0.2,0.58,0.46,0.77,0.78c0.19,0.36,0.29,0.76,0.27,1.17
	c0.04,0.8-0.34,1.55-1,2c-0.83,0.5-1.78,0.74-2.75,0.69c-0.78,0.02-1.56-0.12-2.29-0.4c-0.7-0.28-1.33-0.71-1.85-1.25l0.23-0.2
	c0.49,0.53,1.09,0.95,1.76,1.22c0.69,0.26,1.43,0.38,2.17,0.37c0.88,0.05,1.75-0.16,2.51-0.59c0.61-0.39,0.96-1.07,0.92-1.79
	c0.01-0.35-0.06-0.69-0.21-1c-0.15-0.29-0.38-0.53-0.65-0.71c-0.34-0.23-0.72-0.4-1.11-0.51c-0.51-0.16-1.02-0.29-1.54-0.4
	c-0.59-0.11-1.12-0.23-1.57-0.36c-0.41-0.1-0.8-0.26-1.16-0.48c-0.3-0.18-0.54-0.43-0.71-0.73c-0.17-0.34-0.25-0.72-0.24-1.1
	c-0.01-0.42,0.08-0.84,0.26-1.23c0.18-0.35,0.44-0.66,0.75-0.9c0.35-0.25,0.75-0.44,1.17-0.55c0.5-0.13,1.02-0.2,1.54-0.19
	c0.61-0.01,1.21,0.09,1.78,0.29c0.53,0.22,1,0.57,1.38,1L66.87-36.75z M75.9-36.75c-0.35-0.43-0.8-0.78-1.31-1
	c-0.52-0.18-1.08-0.26-1.63-0.25c-0.53-0.01-1.06,0.05-1.57,0.18c-0.39,0.1-0.75,0.27-1.07,0.51c-0.27,0.21-0.48,0.49-0.62,0.81
	c-0.13,0.33-0.2,0.69-0.19,1.05c-0.01,0.33,0.05,0.65,0.19,0.95c0.14,0.26,0.35,0.48,0.6,0.64c0.31,0.2,0.65,0.35,1,0.45
	c0.42,0.13,0.93,0.25,1.52,0.37s1.12,0.25,1.6,0.39c0.43,0.12,0.84,0.29,1.22,0.52c0.67,0.41,1.06,1.16,1,1.95
	c0.03,0.79-0.34,1.55-1,2c-0.83,0.5-1.78,0.74-2.75,0.69c-0.78,0.02-1.56-0.12-2.29-0.4c-0.7-0.28-1.33-0.71-1.85-1.25l0.22-0.2
	c0.49,0.53,1.1,0.95,1.77,1.22c0.69,0.26,1.42,0.38,2.16,0.37c0.88,0.05,1.75-0.16,2.52-0.59c0.61-0.39,0.96-1.07,0.92-1.79
	c0.01-0.35-0.06-0.69-0.21-1c-0.15-0.29-0.38-0.53-0.65-0.71c-0.34-0.22-0.72-0.4-1.11-0.51c-0.49-0.16-0.99-0.29-1.49-0.4
	c-0.59-0.11-1.11-0.23-1.56-0.36c-0.41-0.1-0.8-0.26-1.16-0.48c-0.3-0.18-0.54-0.43-0.71-0.73c-0.17-0.34-0.25-0.72-0.24-1.1
	c-0.01-0.42,0.08-0.84,0.26-1.23c0.18-0.35,0.44-0.66,0.75-0.9c0.35-0.25,0.75-0.44,1.17-0.55c0.5-0.13,1.02-0.2,1.54-0.19
	c0.61-0.01,1.21,0.09,1.78,0.29c0.53,0.22,1,0.57,1.38,1L75.9-36.75z M114.3-11.86H-0.38v0.2H114.3V-11.86z"/>
</svg>
