<?xml version="1.0" encoding="utf-8"?>
<!-- Generator: Adobe Illustrator 22.0.0, SVG Export Plug-In . SVG Version: 6.00 Build 0)  -->
<svg version="1.1" id="Layer_2" xmlns="http://www.w3.org/2000/svg" xmlns:xlink="http://www.w3.org/1999/xlink" x="0px" y="0px"
	 viewBox="0 0 116.66 14.85" style="enable-background:new 0 0 116.66 14.85;" xml:space="preserve">
<path d="M1.7,3.76C1.46,3.77,1.22,3.71,1,3.6C0.8,3.5,0.63,3.36,0.48,3.2C0.33,3.03,0.22,2.83,0.14,2.62C0.05,2.41,0.01,2.19,0,1.96
	C0,1.5,0.17,1.06,0.48,0.71C0.62,0.53,0.8,0.39,1,0.28c0.21-0.1,0.43-0.15,0.66-0.15c0.24,0,0.47,0.06,0.68,0.16
	c0.2,0.1,0.37,0.24,0.52,0.41C3.01,0.87,3.12,1.07,3.2,1.28c0.08,0.21,0.12,0.43,0.12,0.65c0,0.23-0.04,0.46-0.13,0.68
	c-0.08,0.21-0.2,0.41-0.35,0.58C2.69,3.35,2.52,3.48,2.32,3.58C2.13,3.69,1.92,3.75,1.7,3.76z M0.29,1.96c0,0.2,0.04,0.4,0.11,0.59
	c0.07,0.18,0.17,0.35,0.29,0.5c0.12,0.14,0.27,0.26,0.44,0.34C1.31,3.48,1.5,3.52,1.7,3.52c0.2,0.01,0.4-0.04,0.58-0.13
	C2.45,3.3,2.6,3.18,2.72,3.03C2.84,2.88,2.93,2.71,3,2.53c0.07-0.18,0.1-0.38,0.1-0.57c0-0.2-0.04-0.4-0.1-0.59
	c-0.08-0.18-0.18-0.35-0.3-0.5C2.58,0.73,2.43,0.61,2.26,0.53C2.09,0.44,1.89,0.4,1.7,0.4c-0.2,0-0.4,0.04-0.58,0.13
	C0.95,0.62,0.8,0.74,0.68,0.89c-0.12,0.15-0.22,0.32-0.29,0.5C0.33,1.58,0.29,1.77,0.29,1.96z M6.34,3.73H6.09V2.28
	c0.03-0.25,0-0.5-0.09-0.73C5.9,1.36,5.7,1.26,5.49,1.28c-0.11,0-0.22,0.02-0.32,0.06c-0.11,0.04-0.21,0.1-0.3,0.17
	c-0.1,0.07-0.18,0.16-0.25,0.26C4.55,1.87,4.5,1.97,4.47,2.08v1.61H4.22V1.14h0.23v0.62c0.05-0.1,0.12-0.2,0.2-0.28
	c0.08-0.07,0.17-0.14,0.26-0.2c0.1-0.05,0.2-0.1,0.31-0.13c0.11-0.01,0.23-0.01,0.34,0c0.24-0.03,0.48,0.09,0.6,0.3
	c0.13,0.26,0.2,0.56,0.18,0.85L6.34,3.73z M8.44,3.78c-0.18,0-0.35-0.03-0.51-0.11C7.78,3.6,7.64,3.5,7.53,3.38
	C7.41,3.26,7.32,3.11,7.26,2.95c-0.07-0.17-0.1-0.35-0.1-0.53c0-0.18,0.03-0.35,0.1-0.51c0.06-0.16,0.15-0.31,0.27-0.43
	c0.11-0.12,0.25-0.22,0.4-0.28c0.16-0.07,0.33-0.11,0.5-0.11c0.18,0,0.35,0.04,0.51,0.11c0.15,0.07,0.29,0.17,0.4,0.29
	c0.12,0.12,0.21,0.26,0.27,0.42C9.67,2.07,9.7,2.25,9.7,2.42v0.11H7.42c0.01,0.15,0.05,0.29,0.11,0.42
	c0.05,0.12,0.13,0.24,0.22,0.33c0.09,0.1,0.2,0.17,0.32,0.22c0.21,0.08,0.44,0.08,0.65,0C8.8,3.48,8.89,3.45,8.96,3.4
	c0.08-0.04,0.15-0.09,0.2-0.16c0.06-0.06,0.11-0.13,0.14-0.2L9.52,3.1c-0.04,0.1-0.1,0.19-0.17,0.26C9.28,3.44,9.2,3.51,9.1,3.56
	C9,3.62,8.9,3.67,8.79,3.69C8.68,3.74,8.56,3.77,8.44,3.78z M9.44,2.33C9.43,2.19,9.4,2.05,9.34,1.92C9.29,1.8,9.21,1.68,9.11,1.59
	C9.02,1.5,8.91,1.43,8.8,1.37C8.68,1.32,8.56,1.29,8.43,1.28c-0.13,0-0.26,0.02-0.38,0.07C7.93,1.41,7.82,1.48,7.73,1.57
	C7.64,1.67,7.56,1.78,7.51,1.9C7.46,2.03,7.43,2.17,7.42,2.31L9.44,2.33z M13.12,3.78c-0.18,0-0.35-0.03-0.51-0.11
	c-0.15-0.07-0.29-0.17-0.4-0.29c-0.12-0.12-0.2-0.27-0.26-0.43c-0.07-0.16-0.1-0.33-0.1-0.51c0-0.18,0.03-0.36,0.1-0.52
	c0.06-0.16,0.15-0.31,0.27-0.43c0.23-0.25,0.56-0.4,0.9-0.4c0.17,0,0.34,0.04,0.5,0.11c0.15,0.07,0.29,0.17,0.4,0.29
	c0.11,0.13,0.2,0.27,0.27,0.43c0.06,0.17,0.1,0.34,0.1,0.52c0,0.17-0.04,0.35-0.1,0.51c-0.06,0.16-0.15,0.31-0.27,0.43
	C13.79,3.63,13.46,3.78,13.12,3.78z M12.12,2.45c0,0.15,0.03,0.29,0.08,0.43c0.05,0.13,0.12,0.25,0.22,0.35
	c0.09,0.1,0.2,0.18,0.32,0.24c0.12,0.06,0.25,0.09,0.39,0.09c0.14,0,0.28-0.03,0.4-0.09c0.12-0.06,0.23-0.14,0.32-0.24
	c0.1-0.1,0.17-0.23,0.22-0.36c0.06-0.14,0.09-0.29,0.08-0.44c0-0.15-0.02-0.29-0.08-0.43c-0.05-0.13-0.12-0.25-0.22-0.35
	c-0.09-0.1-0.2-0.18-0.32-0.24c-0.25-0.12-0.53-0.12-0.78,0c-0.12,0.06-0.24,0.14-0.33,0.24c-0.09,0.11-0.17,0.23-0.22,0.36
	c-0.06,0.14-0.09,0.29-0.1,0.44H12.12z M15.31,3.73V1.34H15v-0.2h0.36V1.05c-0.03-0.26,0.01-0.53,0.14-0.77
	c0.12-0.18,0.33-0.28,0.54-0.27c0.1-0.02,0.19-0.02,0.29,0c0.08,0.02,0.16,0.06,0.23,0.12l-0.09,0.18L16.3,0.28h-0.21
	c-0.16-0.01-0.3,0.07-0.39,0.2c-0.1,0.18-0.15,0.38-0.14,0.59v0.09h0.74v0.2h-0.74v2.39L15.31,3.73z M19.62,3.61h-0.07l-0.12,0.06
	h-0.16c-0.07,0.01-0.13,0.01-0.2,0c-0.06,0.01-0.13,0.01-0.19,0c-0.06-0.02-0.12-0.05-0.17-0.09c-0.04-0.04-0.08-0.09-0.11-0.14
	c-0.01-0.07-0.01-0.13,0-0.2v-2h-0.4v-0.2h0.36V0.28h0.25v0.89h0.61v0.2h-0.61v1.91c0,0.08,0.03,0.16,0.1,0.21
	c0.07,0.05,0.15,0.08,0.23,0.08c0.09,0,0.18-0.02,0.26-0.06l0.14-0.06L19.62,3.61z M22.42,3.73h-0.24V2.28c0-0.64-0.22-1-0.65-1
	c-0.11,0-0.21,0.02-0.31,0.06c-0.1,0.04-0.2,0.1-0.28,0.17c-0.09,0.07-0.17,0.16-0.24,0.26c-0.06,0.1-0.11,0.2-0.15,0.31v1.61H20.3
	v-3.6h0.25v1.67c0.1-0.2,0.26-0.36,0.45-0.48c0.18-0.12,0.39-0.18,0.6-0.18c0.13,0,0.25,0.02,0.37,0.08
	c0.1,0.05,0.19,0.13,0.26,0.23c0.07,0.11,0.12,0.23,0.15,0.36c0.02,0.16,0.02,0.32,0,0.48L22.42,3.73z M24.53,3.78
	c-0.18,0-0.35-0.03-0.51-0.11c-0.15-0.07-0.29-0.17-0.4-0.29c-0.12-0.12-0.21-0.27-0.27-0.43c-0.07-0.17-0.1-0.35-0.1-0.53
	c0-0.18,0.03-0.35,0.1-0.51c0.06-0.16,0.15-0.3,0.26-0.43c0.12-0.12,0.25-0.21,0.4-0.28c0.32-0.14,0.68-0.14,1,0
	c0.3,0.14,0.54,0.4,0.66,0.71c0.07,0.16,0.1,0.33,0.1,0.51v0.07l0,0h-2.26c0.01,0.14,0.04,0.29,0.1,0.42
	c0.06,0.12,0.13,0.23,0.23,0.33c0.09,0.1,0.2,0.17,0.32,0.22c0.21,0.08,0.44,0.08,0.65,0c0.08-0.02,0.17-0.05,0.24-0.1
	c0.08-0.04,0.14-0.1,0.2-0.16c0.06-0.06,0.1-0.12,0.13-0.2l0.22,0.06c-0.03,0.1-0.09,0.19-0.16,0.26c-0.07,0.08-0.15,0.15-0.25,0.2
	c-0.1,0.06-0.2,0.1-0.31,0.13C24.77,3.72,24.65,3.76,24.53,3.78z M25.53,2.33c-0.01-0.14-0.04-0.28-0.1-0.41
	C25.37,1.8,25.3,1.69,25.2,1.59C25.11,1.5,25,1.43,24.89,1.37C24.77,1.32,24.63,1.3,24.5,1.3c-0.13,0-0.26,0.02-0.38,0.07
	C24,1.43,23.89,1.5,23.8,1.59c-0.09,0.1-0.17,0.21-0.22,0.33c-0.05,0.13-0.09,0.27-0.1,0.41H25.53z M29.28,3.61h-0.07l-0.12,0.06
	h-0.16c-0.07,0.01-0.13,0.01-0.2,0c-0.06,0.01-0.13,0.01-0.19,0c-0.06-0.02-0.12-0.05-0.17-0.09c-0.04-0.04-0.08-0.09-0.11-0.14
	c-0.01-0.07-0.01-0.13,0-0.2v-2H27.9v-0.2h0.36V0.28h0.25v0.89h0.61v0.2h-0.61v1.91c0,0.08,0.03,0.16,0.1,0.21
	c0.07,0.05,0.15,0.08,0.23,0.08c0.09,0,0.18-0.02,0.26-0.06l0.14-0.06L29.28,3.61z M32.09,3.73h-0.25V2.28c0-0.64-0.22-1-0.65-1
	c-0.11,0-0.21,0.02-0.31,0.06c-0.1,0.04-0.2,0.1-0.28,0.17c-0.09,0.07-0.17,0.16-0.24,0.26c-0.06,0.1-0.11,0.2-0.15,0.31v1.61H30
	v-3.6h0.25v1.67c0.1-0.2,0.26-0.37,0.45-0.49c0.18-0.12,0.39-0.18,0.6-0.18c0.13,0,0.25,0.02,0.37,0.08
	c0.11,0.05,0.2,0.13,0.26,0.23c0.07,0.11,0.12,0.23,0.15,0.36c0.03,0.16,0.05,0.32,0.05,0.48L32.09,3.73z M33.09,0.55V0.09h0.25
	v0.46H33.09z M33.09,3.73V1.14h0.25v2.59H33.09z M36.49,3.73h-0.25V2.28c0.02-0.25-0.03-0.5-0.14-0.73C36,1.4,35.83,1.31,35.65,1.32
	c-0.11,0-0.22,0.02-0.33,0.06c-0.11,0.04-0.21,0.1-0.3,0.17c-0.09,0.07-0.18,0.16-0.24,0.26c-0.07,0.09-0.13,0.2-0.16,0.31v1.61
	h-0.25V1.14h0.24v0.62c0.05-0.1,0.11-0.2,0.19-0.28c0.08-0.08,0.17-0.15,0.27-0.21c0.1-0.05,0.2-0.1,0.31-0.13
	c0.11-0.02,0.23-0.02,0.34,0c0.24-0.02,0.47,0.09,0.6,0.3C36.45,1.71,36.5,2,36.49,2.29L36.49,3.73z M39.62,3.73h-0.25V2.28
	c0.02-0.25-0.03-0.51-0.15-0.73c-0.1-0.15-0.27-0.24-0.45-0.23c-0.11,0-0.22,0.02-0.32,0.06c-0.11,0.04-0.21,0.1-0.31,0.17
	c-0.09,0.07-0.17,0.16-0.24,0.26c-0.07,0.1-0.12,0.2-0.16,0.31v1.61H37.5V1.14h0.23v0.62c0.05-0.1,0.12-0.2,0.2-0.28
	c0.08-0.08,0.16-0.15,0.26-0.21c0.1-0.05,0.2-0.1,0.31-0.13c0.11-0.01,0.23-0.01,0.34,0c0.24-0.02,0.47,0.09,0.6,0.3
	c0.13,0.26,0.2,0.56,0.18,0.85V3.73z M41.72,3.78c-0.18,0-0.35-0.03-0.51-0.11c-0.15-0.07-0.29-0.17-0.4-0.29
	c-0.12-0.12-0.21-0.27-0.27-0.43c-0.07-0.17-0.1-0.35-0.1-0.53c0-0.18,0.03-0.35,0.1-0.51c0.06-0.16,0.15-0.3,0.26-0.43
	c0.12-0.12,0.26-0.21,0.41-0.28c0.32-0.15,0.68-0.15,1,0c0.16,0.07,0.29,0.17,0.41,0.29c0.11,0.12,0.2,0.26,0.26,0.42
	c0.07,0.16,0.1,0.33,0.1,0.51v0.07l0,0H40.7c0.01,0.14,0.04,0.29,0.1,0.42c0.04,0.13,0.11,0.26,0.2,0.37
	c0.09,0.1,0.2,0.17,0.32,0.22c0.12,0.06,0.25,0.08,0.38,0.08c0.09,0.01,0.18,0.01,0.27,0c0.08-0.02,0.17-0.05,0.24-0.1
	c0.08-0.04,0.14-0.1,0.2-0.16c0.06-0.06,0.1-0.12,0.13-0.2l0.22,0.06c-0.03,0.1-0.09,0.19-0.16,0.26c-0.07,0.08-0.15,0.15-0.25,0.2
	c-0.1,0.06-0.2,0.1-0.31,0.13C41.93,3.79,41.83,3.8,41.72,3.78z M42.72,2.33c-0.01-0.14-0.04-0.28-0.1-0.41
	c-0.06-0.12-0.13-0.23-0.23-0.33c-0.09-0.09-0.2-0.16-0.31-0.22c-0.12-0.05-0.26-0.07-0.39-0.07c-0.13,0-0.26,0.02-0.38,0.07
	c-0.12,0.06-0.23,0.13-0.32,0.22c-0.09,0.1-0.17,0.21-0.22,0.33c-0.05,0.13-0.09,0.27-0.1,0.41H42.72z M44.6,3.78
	c-0.19,0-0.39-0.03-0.57-0.1c-0.18-0.06-0.35-0.16-0.48-0.3l0.12-0.17c0.13,0.12,0.28,0.21,0.44,0.28c0.16,0.06,0.32,0.09,0.49,0.09
	c0.19,0.01,0.38-0.04,0.55-0.14c0.13-0.09,0.21-0.24,0.2-0.4c0.01-0.07-0.01-0.14-0.05-0.2c-0.04-0.06-0.1-0.11-0.16-0.14
	c-0.08-0.04-0.17-0.08-0.26-0.1l-0.35-0.1c-0.13-0.02-0.26-0.06-0.39-0.1c-0.09-0.03-0.18-0.07-0.26-0.12
	c-0.07-0.04-0.13-0.1-0.16-0.17c-0.02-0.08-0.02-0.17,0-0.25c0-0.12,0.02-0.23,0.07-0.34c0.05-0.1,0.12-0.18,0.21-0.24
	c0.09-0.06,0.19-0.11,0.3-0.14c0.12-0.02,0.25-0.02,0.37,0c0.18,0,0.37,0.03,0.54,0.1c0.14,0.06,0.27,0.15,0.36,0.27l-0.14,0.13
	c-0.09-0.1-0.2-0.18-0.33-0.22c-0.14-0.05-0.29-0.08-0.44-0.08c-0.09-0.01-0.19-0.01-0.28,0c-0.08,0.02-0.15,0.05-0.22,0.1
	c-0.06,0.04-0.11,0.1-0.15,0.16c-0.05,0.14-0.05,0.29,0,0.43c0.03,0.05,0.07,0.09,0.12,0.12l0.22,0.09l0.31,0.08l0.43,0.11
	c0.11,0.03,0.22,0.08,0.32,0.14c0.08,0.05,0.14,0.11,0.19,0.19c0.05,0.08,0.08,0.18,0.07,0.28c0.01,0.22-0.09,0.42-0.27,0.55
	C45.17,3.75,44.88,3.82,44.6,3.78z M47.58,3.61h-0.06L47.4,3.67h-0.16c-0.07,0.01-0.13,0.01-0.2,0c-0.07,0.01-0.13,0.01-0.2,0
	c-0.06-0.02-0.11-0.05-0.16-0.09c-0.04-0.04-0.08-0.09-0.11-0.14c-0.02-0.07-0.02-0.13,0-0.2v-2h-0.36v-0.2h0.36V0.28h0.25v0.89h0.6
	v0.2h-0.6v1.91c-0.01,0.08,0.03,0.16,0.1,0.21c0.07,0.05,0.15,0.08,0.23,0.08c0.09,0,0.18-0.02,0.26-0.06l0.14-0.06L47.58,3.61z
	 M49.62,2.42c0-0.17,0.04-0.35,0.1-0.51C49.78,1.75,49.88,1.6,50,1.48c0.12-0.12,0.26-0.21,0.41-0.28c0.16-0.07,0.33-0.11,0.51-0.11
	c0.22,0,0.44,0.05,0.63,0.16c0.18,0.11,0.32,0.26,0.4,0.45l-0.24,0.08c-0.07-0.14-0.19-0.26-0.33-0.34
	c-0.14-0.08-0.31-0.12-0.47-0.12c-0.14,0-0.27,0.02-0.4,0.08c-0.12,0.06-0.23,0.14-0.32,0.24C50,1.86,49.9,2.14,49.9,2.42
	c0,0.3,0.1,0.59,0.3,0.81c0.09,0.1,0.2,0.18,0.32,0.24c0.12,0.06,0.26,0.09,0.4,0.09c0.09,0.01,0.18,0.01,0.27,0
	c0.08-0.03,0.16-0.07,0.24-0.11c0.07-0.05,0.12-0.1,0.17-0.17c0.05-0.05,0.09-0.11,0.12-0.18l0.24,0.07
	c-0.03,0.09-0.08,0.18-0.15,0.25c-0.07,0.08-0.15,0.15-0.24,0.2c-0.1,0.06-0.2,0.1-0.31,0.13c-0.28,0.08-0.59,0.06-0.86-0.06
	c-0.15-0.08-0.29-0.18-0.4-0.31c-0.11-0.13-0.2-0.27-0.27-0.43C49.66,2.78,49.62,2.6,49.62,2.42z M53.84,3.78
	c-0.18,0.01-0.35-0.03-0.51-0.11c-0.15-0.07-0.29-0.17-0.4-0.29c-0.24-0.25-0.37-0.59-0.36-0.94c0-0.18,0.03-0.36,0.1-0.52
	c0.06-0.16,0.15-0.3,0.26-0.43c0.12-0.12,0.25-0.22,0.4-0.29c0.16-0.07,0.33-0.11,0.51-0.11c0.17,0,0.34,0.04,0.5,0.11
	c0.15,0.07,0.28,0.17,0.4,0.29c0.11,0.13,0.2,0.27,0.27,0.43c0.06,0.17,0.09,0.34,0.09,0.52c0.01,0.35-0.12,0.69-0.36,0.94
	c-0.11,0.12-0.25,0.22-0.4,0.29C54.18,3.75,54.01,3.79,53.84,3.78z M52.84,2.45c0,0.15,0.03,0.29,0.08,0.43
	c0.05,0.13,0.12,0.25,0.22,0.35c0.09,0.1,0.2,0.18,0.32,0.24c0.12,0.06,0.25,0.09,0.39,0.09c0.14,0,0.28-0.03,0.4-0.09
	c0.12-0.06,0.23-0.14,0.32-0.24c0.09-0.11,0.17-0.23,0.22-0.36c0.05-0.14,0.08-0.29,0.08-0.44c0-0.15-0.03-0.29-0.08-0.43
	c-0.05-0.13-0.13-0.25-0.22-0.35c-0.09-0.1-0.2-0.18-0.32-0.24C54.13,1.35,54,1.32,53.86,1.32c-0.14,0-0.28,0.03-0.4,0.09
	c-0.12,0.06-0.23,0.14-0.32,0.24c-0.09,0.11-0.17,0.23-0.22,0.36c-0.06,0.14-0.09,0.29-0.1,0.44H52.84z M58.07,3.73h-0.25V2.28
	c0.02-0.25-0.03-0.5-0.14-0.73c-0.1-0.15-0.27-0.24-0.45-0.23c-0.11,0-0.22,0.02-0.33,0.06c-0.11,0.04-0.21,0.1-0.3,0.17
	c-0.09,0.07-0.17,0.16-0.24,0.26c-0.07,0.1-0.12,0.2-0.16,0.31v1.61H56V1.14h0.24v0.62c0.05-0.1,0.12-0.19,0.19-0.28
	c0.08-0.08,0.17-0.15,0.27-0.21c0.1-0.05,0.2-0.1,0.31-0.13c0.11-0.02,0.23-0.02,0.34,0c0.24-0.02,0.47,0.09,0.6,0.3
	c0.13,0.26,0.18,0.56,0.17,0.85L58.07,3.73z M60.14,3.78c-0.17,0-0.34-0.04-0.5-0.11c-0.15-0.08-0.28-0.18-0.39-0.3
	c-0.11-0.13-0.2-0.27-0.26-0.43c-0.06-0.16-0.09-0.33-0.09-0.5c0-0.17,0.03-0.35,0.09-0.51c0.05-0.16,0.14-0.31,0.25-0.43
	c0.1-0.12,0.23-0.23,0.37-0.3c0.25-0.12,0.54-0.14,0.8-0.06l0.28,0.13c0.08,0.06,0.16,0.13,0.23,0.2c0.07,0.07,0.13,0.15,0.18,0.23
	V0.09h0.25v3.29c0,0.09,0,0.13,0.11,0.13v0.22h-0.09c-0.07,0.01-0.13-0.03-0.17-0.08c-0.05-0.04-0.07-0.1-0.07-0.16V3.2
	c-0.11,0.17-0.25,0.32-0.43,0.42C60.53,3.72,60.34,3.78,60.14,3.78z M60.14,3.56c0.1,0,0.2-0.02,0.29-0.06
	c0.1-0.03,0.2-0.08,0.28-0.15c0.09-0.06,0.16-0.14,0.23-0.22c0.06-0.08,0.1-0.17,0.11-0.27V2.01c-0.03-0.1-0.09-0.19-0.16-0.27
	c-0.06-0.09-0.14-0.16-0.23-0.22c-0.09-0.06-0.18-0.11-0.28-0.15c-0.09-0.04-0.19-0.05-0.29-0.05c-0.14,0-0.28,0.03-0.41,0.09
	c-0.12,0.07-0.22,0.15-0.31,0.26c-0.09,0.1-0.16,0.23-0.2,0.36C59.12,2.16,59.1,2.3,59.1,2.44c0,0.15,0.03,0.29,0.08,0.43
	C59.23,3,59.31,3.12,59.4,3.22c0.09,0.1,0.21,0.19,0.33,0.25c0.14,0.07,0.3,0.1,0.46,0.09H60.14z M63.48,3.78
	c-0.17,0.01-0.35-0.03-0.5-0.11c-0.16-0.07-0.3-0.17-0.41-0.29c-0.12-0.12-0.2-0.27-0.26-0.43c-0.06-0.16-0.1-0.34-0.1-0.51
	c0-0.18,0.04-0.35,0.1-0.52c0.07-0.16,0.16-0.3,0.27-0.43c0.11-0.12,0.25-0.22,0.4-0.29c0.16-0.07,0.33-0.11,0.5-0.11
	c0.17,0,0.34,0.04,0.5,0.11c0.15,0.07,0.29,0.17,0.4,0.29c0.12,0.12,0.21,0.27,0.27,0.43c0.07,0.16,0.1,0.34,0.1,0.52
	c0,0.18-0.03,0.35-0.1,0.51c-0.06,0.16-0.14,0.31-0.26,0.43c-0.11,0.12-0.25,0.22-0.41,0.29C63.83,3.75,63.65,3.79,63.48,3.78z
	 M62.48,2.45c0,0.29,0.1,0.57,0.3,0.78c0.09,0.1,0.2,0.18,0.32,0.24c0.12,0.06,0.26,0.09,0.4,0.09c0.14,0,0.27-0.03,0.39-0.09
	C64,3.42,64.11,3.36,64.2,3.28c0.09-0.11,0.16-0.23,0.22-0.36c0.05-0.14,0.08-0.29,0.08-0.44c0-0.15-0.03-0.29-0.08-0.43
	c-0.06-0.13-0.13-0.25-0.22-0.35c-0.09-0.1-0.21-0.18-0.33-0.24c-0.25-0.12-0.53-0.12-0.78,0c-0.12,0.06-0.23,0.14-0.32,0.24
	c-0.1,0.1-0.17,0.23-0.22,0.36c-0.05,0.12-0.08,0.26-0.09,0.39H62.48z M69.41,3.73h-0.25V2.28c0.02-0.25-0.03-0.5-0.15-0.72
	c-0.1-0.16-0.28-0.25-0.47-0.24c-0.1,0-0.21,0.02-0.3,0.06c-0.1,0.04-0.19,0.1-0.27,0.17c-0.08,0.07-0.15,0.15-0.2,0.25
	c-0.06,0.1-0.11,0.21-0.14,0.33v1.6h-0.25V2.28c0.02-0.25-0.03-0.5-0.15-0.73c-0.1-0.15-0.28-0.24-0.46-0.23
	c-0.11,0-0.21,0.02-0.31,0.06c-0.09,0.04-0.18,0.09-0.26,0.16c-0.08,0.08-0.15,0.16-0.21,0.26c-0.06,0.1-0.11,0.21-0.14,0.32v1.61
	H65.6V1.14h0.23v0.62c0.1-0.2,0.24-0.37,0.42-0.49c0.17-0.12,0.37-0.18,0.58-0.18c0.2,0,0.39,0.07,0.53,0.2
	c0.14,0.13,0.23,0.32,0.24,0.51c0.17-0.41,0.56-0.69,1-0.71c0.24-0.02,0.48,0.09,0.61,0.3c0.13,0.26,0.2,0.56,0.18,0.85L69.41,3.73z
	 M71.24,3.78c-0.2,0-0.39-0.03-0.58-0.1c-0.18-0.06-0.35-0.16-0.48-0.3l0.13-0.17c0.12,0.12,0.27,0.21,0.43,0.28
	c0.16,0.06,0.33,0.09,0.5,0.09c0.19,0.01,0.38-0.04,0.54-0.14c0.14-0.09,0.21-0.24,0.21-0.4c0.02-0.07,0.02-0.13,0-0.2
	c-0.04-0.06-0.1-0.1-0.16-0.14c-0.08-0.04-0.17-0.08-0.26-0.1l-0.36-0.1c-0.13-0.02-0.26-0.06-0.38-0.1
	c-0.1-0.02-0.19-0.06-0.27-0.12c-0.07-0.04-0.12-0.1-0.15-0.17c-0.04-0.08-0.06-0.16-0.06-0.25c0-0.12,0.03-0.23,0.08-0.34
	c0.05-0.1,0.12-0.18,0.21-0.24c0.09-0.06,0.19-0.11,0.3-0.14c0.12-0.02,0.25-0.02,0.37,0c0.18,0,0.37,0.03,0.54,0.1
	c0.14,0.06,0.26,0.15,0.36,0.27l-0.14,0.13c-0.09-0.1-0.21-0.18-0.34-0.22c-0.14-0.05-0.29-0.08-0.44-0.08
	C71.2,1.31,71.1,1.29,71,1.28c-0.08,0.01-0.16,0.05-0.22,0.1c-0.06,0.04-0.12,0.09-0.15,0.16c-0.04,0.08-0.06,0.16-0.06,0.25
	c-0.01,0.06-0.01,0.12,0,0.18c0.03,0.05,0.07,0.09,0.12,0.12l0.21,0.09l0.31,0.08l0.44,0.11c0.11,0.03,0.21,0.08,0.31,0.14
	c0.08,0.05,0.15,0.11,0.2,0.19c0.04,0.09,0.07,0.18,0.06,0.28c0.01,0.22-0.09,0.42-0.27,0.55C71.75,3.69,71.5,3.78,71.24,3.78z
	 M74.59,0.55V0.09h0.25v0.46H74.59z M74.59,3.73V1.14h0.25v2.59H74.59z M78,3.73h-0.25V2.28c0.02-0.25-0.03-0.5-0.14-0.73
	c-0.1-0.15-0.28-0.24-0.46-0.23c-0.11,0-0.22,0.02-0.32,0.06c-0.11,0.04-0.21,0.1-0.3,0.17c-0.1,0.07-0.18,0.16-0.25,0.26
	c-0.07,0.09-0.12,0.2-0.15,0.31v1.61h-0.25V1.14h0.23v0.62c0.06-0.1,0.12-0.19,0.2-0.28c0.08-0.08,0.17-0.15,0.26-0.21
	c0.1-0.05,0.2-0.1,0.31-0.13c0.11-0.01,0.23-0.01,0.34,0c0.24-0.03,0.48,0.09,0.6,0.3c0.13,0.26,0.2,0.55,0.18,0.84V3.73z
	 M81.69,3.61h-0.07L81.5,3.67h-0.16c-0.06,0.01-0.13,0.01-0.19,0c-0.07,0.01-0.13,0.01-0.2,0c-0.06-0.02-0.11-0.05-0.16-0.09
	c-0.05-0.04-0.09-0.08-0.11-0.14c-0.01-0.07-0.01-0.13,0-0.2v-2h-0.37v-0.2h0.37V0.28h0.25v0.89h0.6v0.2h-0.6v1.91
	c-0.01,0.08,0.03,0.16,0.1,0.21c0.06,0.05,0.14,0.08,0.22,0.08c0.09,0,0.19-0.02,0.27-0.06l0.14-0.06L81.69,3.61z M84.5,3.73h-0.25
	V2.28c0-0.64-0.21-1-0.64-1c-0.11,0-0.22,0.02-0.32,0.06c-0.1,0.04-0.2,0.1-0.28,0.17c-0.09,0.07-0.17,0.16-0.23,0.26
	c-0.07,0.09-0.12,0.2-0.15,0.31v1.61h-0.25v-3.6h0.25v1.67c0.1-0.2,0.25-0.37,0.44-0.49c0.18-0.12,0.39-0.18,0.61-0.18
	c0.13,0,0.25,0.03,0.37,0.08c0.1,0.05,0.19,0.13,0.25,0.23c0.07,0.11,0.12,0.23,0.15,0.36c0.02,0.16,0.02,0.32,0,0.48L84.5,3.73z
	 M86.61,3.78c-0.18,0.01-0.35-0.03-0.51-0.11c-0.16-0.07-0.29-0.17-0.41-0.29c-0.11-0.13-0.2-0.27-0.27-0.43
	c-0.06-0.17-0.1-0.35-0.1-0.53c0-0.17,0.04-0.35,0.1-0.51c0.06-0.16,0.16-0.3,0.27-0.43c0.11-0.12,0.25-0.22,0.4-0.28
	c0.16-0.07,0.33-0.11,0.5-0.11c0.18,0,0.35,0.04,0.51,0.11c0.15,0.07,0.29,0.17,0.4,0.29c0.12,0.12,0.21,0.26,0.27,0.42
	c0.06,0.16,0.09,0.34,0.09,0.51v0.11h-2.28c0.01,0.15,0.05,0.29,0.11,0.42c0.05,0.12,0.13,0.23,0.22,0.33
	c0.09,0.09,0.2,0.17,0.32,0.22c0.12,0.06,0.26,0.08,0.39,0.08c0.09,0.01,0.17,0.01,0.26,0c0.09-0.02,0.17-0.05,0.24-0.1
	c0.08-0.04,0.15-0.09,0.2-0.16c0.06-0.06,0.11-0.12,0.14-0.2l0.22,0.06c-0.04,0.1-0.09,0.18-0.16,0.26
	c-0.07,0.08-0.16,0.15-0.25,0.2c-0.1,0.06-0.2,0.1-0.31,0.13C86.84,3.79,86.73,3.8,86.61,3.78z M87.61,2.33
	c-0.01-0.14-0.04-0.28-0.1-0.41c-0.05-0.12-0.13-0.23-0.22-0.33c-0.09-0.09-0.2-0.16-0.32-0.22c-0.12-0.05-0.24-0.08-0.37-0.09
	c-0.13,0-0.27,0.02-0.39,0.07c-0.12,0.06-0.22,0.13-0.32,0.22c-0.09,0.1-0.17,0.21-0.22,0.33c-0.05,0.13-0.08,0.27-0.09,0.41
	L87.61,2.33z M93.35,1.14h0.25l-1.13,2.59h-0.21l-0.58-1.37L91.1,3.73h-0.21l-1.13-2.59H90l1,2.32l0.55-1.28l-0.44-1h0.21l0.36,0.86
	l0.35-0.86h0.22l-0.44,1l0.55,1.28L93.35,1.14z M95.32,3.78c-0.34,0-0.67-0.15-0.9-0.4c-0.12-0.12-0.21-0.27-0.27-0.43
	c-0.06-0.16-0.09-0.34-0.09-0.51c0-0.18,0.03-0.35,0.09-0.52c0.07-0.16,0.16-0.3,0.27-0.43c0.11-0.12,0.25-0.22,0.4-0.29
	c0.16-0.07,0.33-0.11,0.5-0.11c0.17,0,0.34,0.04,0.5,0.11c0.15,0.07,0.29,0.17,0.4,0.29c0.12,0.12,0.21,0.27,0.27,0.43
	c0.07,0.16,0.1,0.34,0.1,0.52c0,0.18-0.03,0.35-0.1,0.51c-0.06,0.16-0.14,0.31-0.26,0.43c-0.11,0.12-0.25,0.22-0.41,0.29
	C95.67,3.75,95.49,3.79,95.32,3.78z M94.32,2.45c0,0.29,0.1,0.57,0.3,0.78c0.09,0.1,0.2,0.18,0.32,0.24
	c0.12,0.06,0.26,0.09,0.4,0.09c0.14,0,0.27-0.03,0.39-0.09c0.1-0.05,0.19-0.12,0.27-0.19c0.09-0.11,0.16-0.23,0.22-0.36
	c0.05-0.14,0.08-0.29,0.08-0.44c0-0.15-0.03-0.29-0.08-0.43C96.16,1.92,96.09,1.81,96,1.7c-0.09-0.1-0.21-0.18-0.33-0.24
	c-0.25-0.12-0.53-0.12-0.78,0c-0.12,0.06-0.23,0.14-0.32,0.24c-0.1,0.1-0.17,0.23-0.22,0.36c-0.04,0.13-0.06,0.26-0.05,0.39H94.32z
	 M98.67,1.36c-0.22,0.01-0.44,0.08-0.62,0.21c-0.18,0.13-0.3,0.32-0.36,0.54v1.62h-0.25V1.14h0.24v0.64
	c0.08-0.18,0.2-0.33,0.36-0.45c0.13-0.11,0.3-0.18,0.47-0.2h0.16V1.36z M99.41,0.09h0.25v3.13c0,0.09,0.03,0.17,0.09,0.23
	c0.06,0.05,0.14,0.08,0.22,0.08h0.14h0.14v0.2c-0.07,0.03-0.14,0.05-0.21,0.06h-0.22c-0.12,0.01-0.24-0.04-0.33-0.13
	c-0.09-0.09-0.14-0.21-0.13-0.34L99.41,0.09z M102,3.78c-0.17,0-0.34-0.04-0.5-0.11c-0.15-0.08-0.28-0.18-0.4-0.3
	c-0.11-0.13-0.2-0.27-0.26-0.43c-0.06-0.16-0.09-0.33-0.09-0.5c0-0.17,0.03-0.35,0.09-0.51c0.05-0.16,0.14-0.31,0.25-0.43
	c0.11-0.12,0.23-0.23,0.38-0.3c0.15-0.07,0.31-0.11,0.47-0.11c0.11-0.02,0.21-0.02,0.32,0c0.1,0.04,0.19,0.08,0.28,0.13
	c0.09,0.06,0.17,0.12,0.24,0.2c0.07,0.07,0.13,0.15,0.18,0.23V0.09h0.25v3.29c0,0.09,0,0.13,0.1,0.13v0.22h-0.09
	c-0.07,0-0.13-0.03-0.17-0.08c-0.04-0.04-0.07-0.1-0.07-0.16V3.2c-0.1,0.17-0.25,0.32-0.42,0.42C102.39,3.72,102.2,3.78,102,3.78z
	 M102,3.56c0.1,0,0.2-0.02,0.29-0.06c0.1-0.03,0.2-0.08,0.29-0.15c0.08-0.07,0.16-0.14,0.23-0.22c0.06-0.08,0.1-0.17,0.11-0.27V2.01
	c-0.04-0.1-0.09-0.19-0.16-0.27c-0.07-0.08-0.14-0.16-0.23-0.22c-0.09-0.06-0.18-0.11-0.28-0.15c-0.08-0.04-0.16-0.07-0.25-0.09
	c-0.14,0-0.28,0.03-0.41,0.09c-0.12,0.06-0.23,0.15-0.31,0.26c-0.09,0.1-0.16,0.23-0.2,0.36c-0.05,0.13-0.07,0.27-0.07,0.41
	c-0.01,0.15,0.02,0.29,0.08,0.43c0.05,0.13,0.12,0.25,0.22,0.35c0.18,0.21,0.45,0.33,0.73,0.34L102,3.56z M104.34,4.14l0.08-0.4
	h-0.09V3.28h0.25v0.43l-0.1,0.4L104.34,4.14z M0.29,13.73v-3.54h1.45c0.14,0,0.29,0.03,0.42,0.09c0.24,0.14,0.43,0.35,0.54,0.61
	c0.05,0.13,0.08,0.26,0.08,0.4c0,0.14-0.03,0.28-0.08,0.41c-0.04,0.13-0.11,0.25-0.2,0.35c-0.09,0.1-0.2,0.19-0.32,0.25
	c-0.13,0.06-0.27,0.09-0.41,0.09H0.54v1.34H0.29z M0.54,12.16h1.22c0.11,0,0.22-0.02,0.32-0.07c0.09-0.05,0.17-0.12,0.23-0.2
	c0.07-0.08,0.12-0.18,0.15-0.28c0.04-0.11,0.06-0.22,0.06-0.33c0-0.12-0.02-0.23-0.07-0.34c-0.04-0.1-0.1-0.19-0.17-0.27
	C2.2,10.59,2.11,10.53,2,10.49c-0.09-0.05-0.2-0.07-0.3-0.07H0.54V12.16z M4.6,13.78c-0.18,0-0.35-0.03-0.51-0.11
	c-0.31-0.14-0.55-0.4-0.66-0.72c-0.06-0.16-0.1-0.34-0.1-0.51c0-0.18,0.04-0.35,0.1-0.52c0.06-0.16,0.15-0.3,0.27-0.43
	c0.11-0.12,0.25-0.22,0.4-0.29c0.32-0.15,0.68-0.15,1,0c0.15,0.07,0.29,0.17,0.4,0.29c0.12,0.12,0.21,0.27,0.27,0.43
	c0.07,0.16,0.1,0.34,0.1,0.52c0,0.18-0.03,0.35-0.1,0.51c-0.06,0.16-0.15,0.31-0.27,0.43c-0.11,0.13-0.25,0.23-0.4,0.29
	C4.95,13.75,4.77,13.79,4.6,13.78z M3.6,12.45c0,0.29,0.1,0.57,0.3,0.78c0.09,0.1,0.2,0.18,0.32,0.24c0.12,0.06,0.26,0.09,0.4,0.09
	c0.13,0,0.26-0.03,0.38-0.09c0.11-0.05,0.22-0.11,0.31-0.19c0.1-0.1,0.17-0.23,0.22-0.36c0.06-0.14,0.09-0.29,0.08-0.44
	c0-0.15-0.02-0.29-0.08-0.43c-0.05-0.13-0.12-0.25-0.22-0.35C5.23,11.59,5.12,11.49,5,11.41c-0.25-0.12-0.53-0.12-0.78,0
	c-0.12,0.06-0.24,0.14-0.33,0.24c-0.09,0.11-0.16,0.23-0.21,0.36c-0.06,0.14-0.1,0.29-0.1,0.44H3.6z M6.74,10.09H7v3.13
	c0,0.08,0.03,0.16,0.08,0.23c0.06,0.05,0.15,0.08,0.23,0.08h0.13h0.15v0.2c-0.06,0.03-0.13,0.05-0.2,0.06H7.17
	c-0.24,0-0.43-0.18-0.44-0.42c0-0.03,0-0.06,0.01-0.09V10.09z M8.38,14.61h0.17h0.08l0,0c0.03-0.03,0.05-0.07,0.07-0.11l0.12-0.25
	l0.19-0.45L7.9,11.14h0.26l1,2.35l1-2.35h0.24L9,14.55c-0.04,0.09-0.1,0.17-0.18,0.22c-0.1,0.05-0.22,0.08-0.33,0.07H8.38V14.61z
	 M12,13.78c-0.55,0-0.83-0.38-0.83-1.15v-1.49h0.25v1.46c0,0.67,0.22,1,0.66,1c0.11,0,0.22-0.02,0.32-0.06
	c0.1-0.04,0.2-0.09,0.29-0.16c0.09-0.07,0.16-0.16,0.23-0.25c0.07-0.1,0.13-0.21,0.16-0.32v-1.67h0.25v2.24c0,0.09,0,0.13,0.11,0.13
	v0.22h-0.08c-0.06,0-0.13-0.02-0.17-0.07c-0.05-0.03-0.09-0.1-0.08-0.16v-0.39c-0.11,0.2-0.27,0.37-0.47,0.49
	C12.45,13.72,12.23,13.78,12,13.78z M15.55,11.36c-0.22,0.01-0.43,0.08-0.61,0.21c-0.18,0.13-0.3,0.32-0.36,0.54v1.62h-0.25v-2.59
	h0.24v0.64c0.08-0.18,0.2-0.33,0.35-0.45c0.14-0.11,0.3-0.18,0.48-0.2h0.15V11.36z M17.25,13.78c-0.18,0-0.35-0.03-0.51-0.11
	c-0.15-0.07-0.29-0.17-0.41-0.29c-0.11-0.13-0.2-0.27-0.26-0.43c-0.07-0.17-0.1-0.35-0.1-0.53c0-0.18,0.03-0.35,0.1-0.51
	c0.06-0.16,0.15-0.3,0.26-0.43c0.12-0.12,0.25-0.21,0.4-0.28c0.32-0.14,0.68-0.14,1,0c0.3,0.14,0.54,0.4,0.66,0.71
	c0.07,0.16,0.1,0.33,0.1,0.51v0.07l0,0h-2.26c0.01,0.14,0.04,0.29,0.1,0.42c0.06,0.12,0.13,0.23,0.23,0.33
	c0.09,0.1,0.2,0.17,0.32,0.22c0.12,0.06,0.25,0.08,0.38,0.08c0.09,0.01,0.18,0.01,0.27,0c0.08-0.02,0.17-0.05,0.24-0.1
	c0.09-0.04,0.16-0.09,0.23-0.16c0.06-0.06,0.1-0.12,0.13-0.2l0.22,0.06c-0.03,0.1-0.09,0.19-0.16,0.26
	c-0.07,0.08-0.15,0.15-0.25,0.2c-0.1,0.06-0.2,0.1-0.31,0.13C17.51,13.77,17.38,13.79,17.25,13.78z M18.25,12.33
	c-0.01-0.14-0.04-0.28-0.1-0.41c-0.06-0.12-0.13-0.23-0.23-0.33c-0.09-0.09-0.2-0.17-0.32-0.22c-0.12-0.05-0.25-0.07-0.38-0.07
	c-0.13,0-0.26,0.02-0.38,0.07c-0.12,0.06-0.23,0.13-0.32,0.22c-0.09,0.1-0.17,0.21-0.22,0.33c-0.05,0.13-0.09,0.27-0.1,0.41H18.25z
	 M20.44,13.61h-0.06l-0.12,0.06H20.1c-0.13,0.03-0.27,0.03-0.4,0c-0.06-0.02-0.11-0.05-0.16-0.09c-0.04-0.04-0.08-0.09-0.11-0.14
	c-0.01-0.07-0.01-0.13,0-0.2v-2H19v-0.2h0.36v-0.76h0.25v0.89h0.61v0.2h-0.61v1.91c-0.01,0.08,0.03,0.16,0.1,0.21
	c0.07,0.05,0.15,0.08,0.23,0.08c0.09,0,0.18-0.02,0.26-0.06l0.14-0.06L20.44,13.61z M23.25,13.73H23v-1.45c0-0.64-0.21-1-0.64-1
	c-0.11,0-0.21,0.02-0.31,0.06c-0.1,0.04-0.2,0.1-0.29,0.17c-0.09,0.08-0.16,0.16-0.23,0.26c-0.06,0.1-0.11,0.2-0.15,0.31v1.61h-0.25
	v-3.6h0.25v1.67c0.1-0.2,0.25-0.37,0.44-0.49c0.18-0.12,0.39-0.18,0.61-0.18c0.13,0,0.25,0.03,0.37,0.08
	c0.1,0.05,0.19,0.13,0.26,0.23c0.07,0.11,0.12,0.23,0.15,0.36c0.02,0.16,0.02,0.32,0,0.48L23.25,13.73z M24.9,13.78
	c-0.12,0-0.23-0.02-0.34-0.06c-0.1-0.04-0.19-0.1-0.27-0.17c-0.08-0.07-0.14-0.15-0.18-0.25c-0.06-0.1-0.1-0.21-0.11-0.32
	c0-0.11,0.03-0.22,0.08-0.31c0.05-0.1,0.13-0.18,0.22-0.24c0.11-0.07,0.23-0.13,0.35-0.16c0.14-0.04,0.28-0.06,0.43-0.06
	c0.14-0.01,0.29-0.01,0.43,0c0.13,0.02,0.26,0.05,0.38,0.1v-0.26c0.01-0.21-0.06-0.42-0.21-0.58c-0.15-0.15-0.36-0.23-0.57-0.22
	c-0.14,0-0.27,0.03-0.4,0.08c-0.15,0.06-0.3,0.13-0.43,0.23l-0.1-0.17c0.29-0.21,0.64-0.33,1-0.34c0.27-0.02,0.54,0.08,0.74,0.27
	c0.19,0.2,0.29,0.47,0.27,0.75v1.31c0,0.09,0,0.13,0.11,0.13v0.22h-0.1c-0.06,0-0.12-0.02-0.16-0.07c-0.04-0.04-0.07-0.1-0.07-0.16
	v-0.22c-0.12,0.15-0.28,0.28-0.46,0.36C25.32,13.73,25.11,13.78,24.9,13.78z M24.95,13.58c0.18,0.01,0.36-0.03,0.53-0.11
	c0.15-0.06,0.27-0.16,0.37-0.29c0.05-0.06,0.08-0.13,0.08-0.2v-0.46c-0.12-0.04-0.25-0.08-0.38-0.1c-0.13-0.01-0.27-0.01-0.4,0
	c-0.12,0-0.24,0.02-0.35,0.05c-0.1,0.02-0.19,0.06-0.28,0.11c-0.07,0.05-0.14,0.11-0.18,0.19c-0.04,0.07-0.06,0.15-0.06,0.23
	c-0.02,0.08-0.02,0.17,0,0.25c0.03,0.07,0.08,0.14,0.14,0.19c0.06,0.06,0.13,0.1,0.21,0.13c0.12,0.04,0.25,0.05,0.37,0.01H24.95z
	 M29.31,13.73h-0.25v-1.45c0.02-0.25-0.03-0.5-0.14-0.73c-0.1-0.15-0.28-0.24-0.46-0.23c-0.11,0-0.22,0.02-0.32,0.06
	c-0.11,0.04-0.21,0.1-0.31,0.17c-0.09,0.07-0.17,0.16-0.24,0.26c-0.07,0.09-0.12,0.2-0.15,0.31v1.61h-0.25v-2.59h0.23v0.62
	c0.05-0.1,0.12-0.2,0.2-0.28c0.08-0.08,0.16-0.15,0.26-0.21c0.1-0.05,0.2-0.1,0.31-0.13c0.11-0.01,0.23-0.01,0.34,0
	c0.24-0.03,0.48,0.09,0.6,0.3c0.13,0.26,0.2,0.56,0.18,0.85L29.31,13.73z M31.41,13.78c-0.18,0-0.35-0.03-0.51-0.11
	c-0.15-0.07-0.29-0.17-0.4-0.29c-0.12-0.12-0.21-0.27-0.27-0.43c-0.07-0.17-0.1-0.35-0.1-0.53c0-0.18,0.03-0.35,0.1-0.51
	c0.06-0.16,0.15-0.3,0.26-0.43c0.12-0.12,0.26-0.21,0.41-0.28c0.16-0.07,0.33-0.11,0.5-0.11c0.18,0,0.35,0.04,0.51,0.11
	c0.15,0.07,0.29,0.17,0.4,0.29c0.11,0.12,0.2,0.27,0.27,0.42c0.06,0.16,0.09,0.34,0.09,0.51v0.11h-2.28
	c0.01,0.14,0.04,0.29,0.1,0.42c0.06,0.12,0.13,0.23,0.23,0.33c0.09,0.1,0.2,0.17,0.32,0.22c0.21,0.08,0.44,0.08,0.65,0
	c0.08-0.02,0.17-0.05,0.24-0.1c0.08-0.04,0.14-0.1,0.2-0.16c0.06-0.06,0.11-0.13,0.14-0.2l0.22,0.06c-0.04,0.1-0.1,0.18-0.17,0.26
	c-0.07,0.08-0.15,0.15-0.25,0.2c-0.1,0.06-0.2,0.1-0.31,0.13C31.65,13.74,31.53,13.77,31.41,13.78z M32.41,12.33
	c-0.01-0.14-0.04-0.28-0.1-0.41c-0.06-0.12-0.13-0.23-0.23-0.33c-0.09-0.09-0.2-0.16-0.31-0.22c-0.12-0.05-0.24-0.08-0.37-0.09
	c-0.13,0-0.26,0.02-0.38,0.07c-0.12,0.06-0.23,0.13-0.32,0.22c-0.09,0.1-0.17,0.21-0.22,0.33c-0.05,0.13-0.09,0.27-0.1,0.41
	L32.41,12.33z M36.16,13.61h-0.07l-0.12,0.06h-0.16c-0.07,0.01-0.13,0.01-0.2,0c-0.06,0.01-0.13,0.01-0.19,0
	c-0.06-0.02-0.12-0.05-0.17-0.09c-0.04-0.04-0.08-0.09-0.11-0.14c-0.01-0.07-0.01-0.13,0-0.2v-2h-0.37v-0.2h0.37v-0.76h0.24v0.89H36
	v0.2h-0.61v1.91c0,0.08,0.03,0.16,0.1,0.21c0.07,0.05,0.15,0.08,0.23,0.08c0.09,0,0.19-0.02,0.27-0.06l0.13-0.06L36.16,13.61z
	 M37.88,13.78c-0.17,0.01-0.35-0.03-0.5-0.11c-0.14-0.07-0.27-0.17-0.38-0.29c-0.12-0.12-0.21-0.27-0.27-0.43
	c-0.07-0.17-0.1-0.35-0.1-0.53c0-0.18,0.03-0.35,0.1-0.51c0.06-0.16,0.15-0.31,0.27-0.43c0.11-0.12,0.25-0.22,0.4-0.28
	c0.16-0.07,0.33-0.11,0.5-0.11c0.18,0,0.35,0.04,0.51,0.11c0.15,0.07,0.29,0.17,0.4,0.29c0.12,0.12,0.21,0.26,0.27,0.42
	c0.06,0.16,0.09,0.34,0.09,0.51v0.11h-2.31c0.01,0.15,0.05,0.29,0.11,0.42c0.05,0.12,0.13,0.23,0.22,0.33
	c0.09,0.09,0.2,0.17,0.32,0.22c0.21,0.08,0.44,0.08,0.65,0c0.09-0.02,0.17-0.05,0.24-0.1c0.08-0.04,0.15-0.09,0.2-0.16
	c0.06-0.06,0.11-0.13,0.14-0.2l0.22,0.06c-0.04,0.1-0.1,0.19-0.17,0.26c-0.07,0.08-0.15,0.15-0.24,0.2c-0.1,0.06-0.21,0.1-0.32,0.13
	C38.12,13.74,38,13.77,37.88,13.78z M38.88,12.33c-0.01-0.14-0.04-0.28-0.1-0.41c-0.05-0.12-0.13-0.23-0.22-0.33
	c-0.1-0.09-0.2-0.16-0.32-0.22c-0.12-0.05-0.26-0.07-0.39-0.07c-0.13,0-0.26,0.02-0.38,0.07c-0.12,0.06-0.23,0.13-0.32,0.22
	c-0.09,0.1-0.17,0.21-0.22,0.33c-0.05,0.13-0.08,0.27-0.09,0.41H38.88z M39.76,12.42c0-0.18,0.03-0.35,0.1-0.51
	c0.06-0.16,0.14-0.31,0.26-0.43c0.11-0.12,0.25-0.21,0.4-0.28c0.36-0.18,0.78-0.18,1.14,0c0.18,0.1,0.32,0.26,0.41,0.45l-0.25,0.08
	c-0.07-0.14-0.18-0.26-0.32-0.34c-0.15-0.08-0.33-0.12-0.5-0.11c-0.14-0.01-0.27,0.02-0.4,0.08c-0.12,0.06-0.23,0.14-0.32,0.24
	c-0.1,0.1-0.17,0.22-0.22,0.35c-0.05,0.14-0.08,0.28-0.08,0.43c0,0.15,0.03,0.31,0.08,0.45c0.06,0.13,0.13,0.25,0.22,0.36
	c0.09,0.1,0.2,0.18,0.33,0.24c0.12,0.06,0.25,0.09,0.39,0.09c0.09,0.01,0.18,0.01,0.27,0c0.09-0.02,0.17-0.06,0.24-0.11
	c0.07-0.04,0.14-0.09,0.2-0.15c0.05-0.05,0.08-0.11,0.11-0.18l0.25,0.07c-0.04,0.09-0.09,0.18-0.16,0.25
	c-0.07,0.08-0.15,0.15-0.24,0.2c-0.1,0.06-0.2,0.1-0.31,0.13c-0.12,0.02-0.23,0.02-0.35,0c-0.18,0-0.35-0.03-0.51-0.11
	c-0.15-0.07-0.29-0.17-0.4-0.29c-0.12-0.12-0.21-0.27-0.27-0.43C39.78,12.75,39.75,12.58,39.76,12.42z M45,13.73h-0.25v-1.45
	c0-0.64-0.21-1-0.64-1c-0.11,0-0.21,0.02-0.31,0.06c-0.11,0.04-0.2,0.1-0.29,0.17c-0.09,0.07-0.17,0.16-0.23,0.26
	c-0.07,0.09-0.12,0.2-0.15,0.31v1.61h-0.25v-3.6h0.25v1.67c0.11-0.2,0.27-0.37,0.47-0.48c0.18-0.12,0.39-0.18,0.61-0.18
	c0.13,0,0.25,0.03,0.37,0.08c0.1,0.05,0.19,0.13,0.25,0.23c0.07,0.11,0.12,0.23,0.15,0.36c0.03,0.17,0.03,0.34,0.02,0.51V13.73z
	 M48.15,13.73H47.9v-1.45c0.02-0.25-0.03-0.5-0.14-0.73c-0.1-0.15-0.27-0.24-0.45-0.23c-0.11,0-0.22,0.02-0.33,0.06
	c-0.11,0.04-0.21,0.1-0.3,0.17c-0.09,0.07-0.17,0.16-0.24,0.26c-0.07,0.1-0.12,0.2-0.16,0.31v1.61H46v-2.59h0.24v0.62
	c0.05-0.1,0.12-0.19,0.19-0.28c0.08-0.08,0.17-0.15,0.27-0.21c0.1-0.05,0.2-0.1,0.31-0.13c0.11-0.02,0.23-0.02,0.34,0
	c0.24-0.02,0.47,0.09,0.6,0.3c0.13,0.26,0.19,0.56,0.17,0.85L48.15,13.73z M50.24,13.78c-0.34,0-0.67-0.15-0.9-0.4
	c-0.12-0.12-0.21-0.27-0.27-0.43c-0.06-0.16-0.09-0.34-0.09-0.51c0-0.18,0.03-0.35,0.09-0.52c0.07-0.16,0.16-0.3,0.27-0.43
	c0.11-0.12,0.25-0.22,0.4-0.29c0.16-0.07,0.33-0.11,0.5-0.11c0.17,0,0.34,0.04,0.5,0.11c0.31,0.14,0.56,0.4,0.67,0.72
	c0.07,0.16,0.1,0.34,0.1,0.52c0,0.18-0.03,0.35-0.1,0.51c-0.11,0.32-0.35,0.58-0.66,0.72C50.59,13.75,50.42,13.79,50.24,13.78z
	 M49.24,12.45c0,0.29,0.1,0.56,0.29,0.78c0.09,0.1,0.2,0.18,0.32,0.24c0.12,0.06,0.26,0.09,0.4,0.09c0.14,0,0.27-0.03,0.39-0.09
	c0.13-0.04,0.25-0.1,0.36-0.19c0.09-0.11,0.16-0.23,0.22-0.36c0.05-0.14,0.08-0.29,0.08-0.44c0-0.15-0.03-0.29-0.08-0.43
	c-0.06-0.13-0.13-0.25-0.22-0.35c-0.09-0.1-0.2-0.18-0.32-0.24c-0.12-0.06-0.26-0.09-0.4-0.09c-0.14,0-0.27,0.03-0.39,0.09
	c-0.12,0.06-0.23,0.14-0.32,0.24c-0.1,0.1-0.17,0.23-0.22,0.36c-0.06,0.12-0.1,0.25-0.12,0.39H49.24z M52.38,10.09h0.25v3.13
	c0,0.09,0.03,0.17,0.09,0.23c0.06,0.05,0.14,0.08,0.22,0.08h0.14h0.14l0.05,0.2c-0.07,0.03-0.14,0.05-0.21,0.06h-0.22
	c-0.12,0.01-0.24-0.04-0.33-0.13c-0.09-0.09-0.14-0.21-0.13-0.34L52.38,10.09z M55,13.78c-0.18,0-0.35-0.03-0.51-0.11
	c-0.31-0.14-0.55-0.4-0.66-0.72c-0.07-0.16-0.1-0.33-0.1-0.51c0-0.18,0.03-0.36,0.1-0.52c0.06-0.16,0.15-0.31,0.27-0.43
	c0.35-0.39,0.92-0.51,1.4-0.29c0.15,0.07,0.29,0.17,0.4,0.29c0.12,0.12,0.21,0.27,0.27,0.43c0.06,0.17,0.1,0.34,0.1,0.52
	c0,0.17-0.04,0.35-0.1,0.51c-0.06,0.16-0.15,0.31-0.27,0.43C55.67,13.63,55.34,13.78,55,13.78z M54,12.45c0,0.29,0.1,0.57,0.3,0.78
	c0.09,0.1,0.2,0.18,0.32,0.24c0.12,0.06,0.26,0.09,0.4,0.09c0.14,0,0.27-0.03,0.39-0.09c0.11-0.05,0.2-0.11,0.29-0.19
	c0.1-0.1,0.17-0.23,0.22-0.36c0.06-0.14,0.09-0.29,0.08-0.44c0-0.15-0.02-0.29-0.08-0.43c-0.05-0.13-0.12-0.25-0.22-0.35
	c-0.09-0.1-0.2-0.18-0.32-0.24c-0.25-0.12-0.53-0.12-0.78,0c-0.12,0.06-0.24,0.14-0.33,0.24c-0.09,0.11-0.17,0.23-0.22,0.36
	C54.01,12.19,54,12.32,54,12.45z M58.15,13.77c-0.17,0-0.34-0.04-0.49-0.11c-0.15-0.08-0.28-0.18-0.39-0.3
	c-0.11-0.13-0.19-0.27-0.25-0.43c-0.06-0.16-0.09-0.32-0.09-0.49c0-0.17,0.03-0.35,0.08-0.51c0.06-0.16,0.14-0.3,0.25-0.43
	c0.11-0.12,0.23-0.23,0.38-0.3c0.15-0.07,0.32-0.11,0.49-0.11c0.21,0,0.42,0.06,0.59,0.18c0.17,0.11,0.32,0.26,0.43,0.43v-0.56h0.23
	v2.64c0.01,0.16-0.03,0.32-0.1,0.47c-0.07,0.13-0.16,0.24-0.27,0.33c-0.12,0.09-0.25,0.16-0.39,0.2c-0.15,0.04-0.3,0.06-0.46,0.06
	c-0.14,0.02-0.27,0.02-0.41,0c-0.11-0.03-0.21-0.07-0.31-0.12c-0.09-0.05-0.18-0.11-0.25-0.19c-0.08-0.07-0.14-0.16-0.19-0.25
	l0.17-0.12c0.09,0.17,0.24,0.31,0.41,0.39c0.18,0.08,0.37,0.12,0.57,0.12c0.13,0.02,0.25,0.02,0.38,0c0.11-0.04,0.21-0.1,0.3-0.17
	c0.09-0.07,0.16-0.16,0.21-0.26c0.06-0.12,0.09-0.25,0.08-0.38v-0.57c-0.1,0.17-0.25,0.31-0.42,0.41
	C58.53,13.77,58.34,13.79,58.15,13.77z M58.21,13.56c0.11,0,0.23-0.02,0.33-0.07c0.1-0.04,0.2-0.09,0.28-0.16
	c0.08-0.06,0.15-0.14,0.21-0.22c0.05-0.08,0.08-0.16,0.1-0.25v-0.85c-0.04-0.1-0.09-0.2-0.16-0.28c-0.06-0.09-0.13-0.16-0.22-0.22
	c-0.09-0.06-0.18-0.11-0.28-0.14c-0.1-0.02-0.2-0.02-0.3,0c-0.15,0-0.29,0.03-0.42,0.1c-0.12,0.06-0.23,0.15-0.31,0.26
	c-0.09,0.11-0.15,0.23-0.19,0.36c-0.05,0.13-0.07,0.26-0.07,0.4c0,0.15,0.03,0.29,0.08,0.43c0.05,0.13,0.13,0.25,0.22,0.35
	c0.09,0.11,0.2,0.19,0.33,0.25C57.94,13.56,58.08,13.58,58.21,13.56z M60.58,14.61h0.17h0.08h0.06c0.03-0.04,0.05-0.07,0.07-0.11
	c0.04-0.08,0.08-0.16,0.11-0.25l0.19-0.45l-1.16-2.66h0.26l1,2.35l1-2.35h0.24l-1.42,3.41c-0.03,0.09-0.09,0.17-0.18,0.22
	c-0.1,0.05-0.22,0.08-0.33,0.07h-0.09L60.58,14.61z M66.87,13.73h-0.25v-1.45c0-0.64-0.21-1-0.64-1c-0.11,0-0.21,0.02-0.31,0.06
	c-0.11,0.04-0.2,0.1-0.29,0.17c-0.09,0.07-0.17,0.16-0.23,0.26c-0.07,0.09-0.12,0.2-0.15,0.31v1.61h-0.25v-3.6H65v1.67
	c0.1-0.2,0.25-0.37,0.44-0.49c0.18-0.12,0.39-0.18,0.61-0.18c0.13,0,0.25,0.03,0.37,0.08c0.1,0.05,0.19,0.13,0.25,0.23
	c0.07,0.11,0.12,0.23,0.15,0.36c0.04,0.16,0.06,0.32,0.05,0.48L66.87,13.73z M68.51,13.78c-0.11,0-0.22-0.02-0.33-0.06
	c-0.1-0.04-0.19-0.1-0.27-0.17c-0.08-0.07-0.14-0.16-0.19-0.25c-0.04-0.1-0.06-0.21-0.06-0.32c0-0.11,0.03-0.22,0.08-0.31
	c0.05-0.1,0.13-0.18,0.22-0.24c0.1-0.07,0.22-0.12,0.34-0.15c0.14-0.04,0.29-0.06,0.44-0.06c0.14-0.01,0.28-0.01,0.42,0
	c0.13,0.02,0.26,0.05,0.39,0.1v-0.26c0.01-0.21-0.06-0.42-0.21-0.58c-0.15-0.15-0.36-0.23-0.57-0.22c-0.14,0-0.27,0.03-0.4,0.08
	c-0.16,0.06-0.3,0.13-0.44,0.23l-0.09-0.17c0.29-0.21,0.64-0.33,1-0.34c0.27-0.02,0.54,0.08,0.74,0.27c0.19,0.2,0.28,0.47,0.26,0.75
	v1.3c0,0.09,0,0.13,0.11,0.13v0.22h-0.1c-0.06,0-0.11-0.02-0.15-0.07c-0.04-0.04-0.07-0.1-0.07-0.16v-0.22
	c-0.13,0.15-0.28,0.27-0.46,0.36C68.96,13.74,68.74,13.78,68.51,13.78z M68.51,13.58c0.18,0.01,0.36-0.03,0.53-0.11
	c0.15-0.06,0.28-0.16,0.38-0.29c0.05-0.06,0.08-0.13,0.08-0.2v-0.46c-0.12-0.04-0.25-0.08-0.38-0.1c-0.13-0.01-0.27-0.01-0.4,0
	c-0.12,0-0.24,0.02-0.36,0.05c-0.09,0.02-0.19,0.06-0.27,0.11c-0.15,0.09-0.24,0.25-0.24,0.42c-0.01,0.08-0.01,0.17,0,0.25
	c0.03,0.07,0.08,0.14,0.14,0.19c0.13,0.12,0.3,0.18,0.47,0.18L68.51,13.58z M71.63,13.78c-0.2,0-0.39-0.03-0.58-0.1
	c-0.18-0.06-0.35-0.16-0.48-0.3l0.13-0.17c0.12,0.12,0.27,0.21,0.43,0.28c0.16,0.06,0.33,0.09,0.5,0.09
	c0.19,0.01,0.38-0.04,0.54-0.14c0.14-0.09,0.21-0.24,0.21-0.4c0.02-0.07,0.02-0.13,0-0.2c-0.04-0.06-0.1-0.1-0.16-0.14
	c-0.08-0.04-0.17-0.08-0.26-0.1l-0.36-0.1c-0.13-0.02-0.26-0.06-0.38-0.1c-0.11-0.02-0.22-0.06-0.32-0.12
	c-0.07-0.04-0.12-0.1-0.15-0.17c-0.04-0.08-0.06-0.16-0.06-0.25c0-0.12,0.03-0.23,0.08-0.34c0.05-0.1,0.13-0.18,0.23-0.24
	c0.09-0.06,0.19-0.11,0.3-0.14c0.12-0.02,0.25-0.02,0.37,0c0.18,0,0.37,0.03,0.54,0.1c0.14,0.06,0.26,0.15,0.36,0.27l-0.14,0.13
	c-0.09-0.1-0.21-0.18-0.34-0.22c-0.14-0.05-0.29-0.08-0.44-0.08c-0.09-0.01-0.18-0.01-0.27,0c-0.08,0.01-0.16,0.05-0.22,0.1
	c-0.06,0.04-0.12,0.09-0.15,0.16c-0.04,0.08-0.06,0.16-0.06,0.25c-0.01,0.06-0.01,0.12,0,0.18c0.03,0.05,0.07,0.09,0.12,0.12
	l0.21,0.09l0.31,0.08l0.44,0.11c0.11,0.03,0.21,0.08,0.31,0.14c0.08,0.05,0.15,0.11,0.2,0.19c0.04,0.09,0.07,0.18,0.06,0.28
	c0.01,0.22-0.09,0.42-0.27,0.55C72.12,13.73,71.88,13.8,71.63,13.78z M78.8,13.73h-0.25v-1.45c0.02-0.25-0.04-0.5-0.16-0.72
	c-0.1-0.16-0.27-0.25-0.46-0.24c-0.11,0-0.21,0.02-0.31,0.06c-0.09,0.04-0.18,0.1-0.26,0.17c-0.08,0.07-0.15,0.16-0.21,0.25
	c-0.06,0.1-0.11,0.22-0.14,0.33v1.6h-0.24v-1.45c0.02-0.25-0.03-0.5-0.15-0.73c-0.11-0.15-0.28-0.24-0.47-0.23
	c-0.1,0-0.21,0.02-0.3,0.06c-0.1,0.04-0.18,0.09-0.26,0.16c-0.08,0.08-0.15,0.16-0.21,0.26c-0.06,0.1-0.11,0.21-0.15,0.32v1.61H75
	v-2.59h0.24v0.62c0.09-0.2,0.24-0.37,0.42-0.49c0.17-0.12,0.37-0.18,0.57-0.18c0.2-0.01,0.39,0.07,0.54,0.2
	c0.13,0.14,0.22,0.32,0.24,0.51c0.17-0.41,0.56-0.69,1-0.71c0.24-0.02,0.47,0.09,0.6,0.3c0.14,0.26,0.21,0.55,0.19,0.85L78.8,13.73z
	 M80.44,13.78c-0.12,0-0.23-0.02-0.34-0.06c-0.1-0.04-0.19-0.1-0.27-0.17c-0.08-0.07-0.14-0.15-0.18-0.25
	c-0.04-0.1-0.07-0.21-0.07-0.32c0-0.11,0.03-0.22,0.09-0.31c0.05-0.1,0.13-0.18,0.22-0.24c0.1-0.07,0.22-0.13,0.34-0.16
	c0.14-0.04,0.29-0.06,0.44-0.06c0.14-0.01,0.28-0.01,0.42,0c0.13,0.02,0.26,0.05,0.38,0.1v-0.26c0.01-0.21-0.06-0.42-0.21-0.58
	c-0.15-0.15-0.36-0.23-0.57-0.22c-0.14,0-0.27,0.03-0.4,0.08c-0.15,0.06-0.3,0.14-0.43,0.23l-0.1-0.17c0.28-0.2,0.61-0.32,0.95-0.34
	c0.27-0.02,0.54,0.08,0.74,0.27c0.19,0.2,0.29,0.47,0.27,0.75v1.31c0,0.09,0,0.13,0.11,0.13v0.22h-0.1c-0.06,0-0.12-0.02-0.16-0.07
	c-0.04-0.04-0.07-0.1-0.07-0.16v-0.22c-0.12,0.15-0.28,0.28-0.46,0.36C80.85,13.73,80.65,13.78,80.44,13.78z M80.44,13.58
	c0.18,0.01,0.36-0.03,0.53-0.11c0.15-0.06,0.27-0.16,0.37-0.29c0.05-0.06,0.08-0.13,0.08-0.2v-0.46c-0.12-0.04-0.24-0.08-0.37-0.1
	c-0.14-0.01-0.27-0.01-0.41,0c-0.12,0-0.24,0.02-0.35,0.05c-0.1,0.02-0.19,0.06-0.28,0.11c-0.07,0.05-0.13,0.11-0.17,0.19
	c-0.04,0.07-0.07,0.15-0.07,0.23c0,0.09,0.02,0.17,0.05,0.25c0.04,0.07,0.08,0.14,0.14,0.19c0.06,0.06,0.14,0.1,0.22,0.13
	c0.1,0.03,0.21,0.03,0.31,0.01H80.44z M83.8,13.78c-0.17,0-0.34-0.04-0.5-0.11c-0.15-0.07-0.29-0.18-0.4-0.3
	c-0.11-0.13-0.2-0.27-0.26-0.43c-0.06-0.16-0.09-0.33-0.09-0.5c0-0.17,0.03-0.35,0.09-0.51c0.05-0.16,0.14-0.31,0.25-0.43
	c0.11-0.12,0.23-0.23,0.38-0.3c0.15-0.07,0.31-0.11,0.47-0.11c0.11-0.02,0.21-0.02,0.32,0l0.28,0.13c0.09,0.06,0.17,0.13,0.24,0.2
	c0.07,0.07,0.12,0.15,0.17,0.23v-1.56H85v3.29c0,0.09,0,0.13,0.11,0.13v0.22H85c-0.07,0-0.13-0.03-0.17-0.08
	c-0.05-0.04-0.07-0.1-0.07-0.16V13.2c-0.11,0.17-0.25,0.32-0.43,0.42C84.17,13.72,83.99,13.77,83.8,13.78z M83.8,13.56
	c0.1,0,0.2-0.02,0.29-0.06c0.21-0.07,0.38-0.19,0.51-0.37c0.07-0.08,0.1-0.17,0.11-0.27v-0.85c-0.03-0.1-0.08-0.19-0.15-0.27
	c-0.07-0.08-0.14-0.16-0.23-0.22c-0.09-0.06-0.18-0.11-0.28-0.15c-0.1-0.02-0.19-0.02-0.29,0c-0.14,0-0.28,0.03-0.41,0.09
	c-0.12,0.06-0.23,0.15-0.32,0.26c-0.09,0.11-0.15,0.23-0.2,0.36c-0.04,0.13-0.07,0.27-0.07,0.41c0,0.15,0.03,0.29,0.08,0.43
	c0.06,0.13,0.13,0.25,0.23,0.35c0.09,0.1,0.2,0.19,0.32,0.25c0.14,0.05,0.3,0.06,0.45,0.04H83.8z M87.15,13.78
	c-0.18,0-0.35-0.03-0.51-0.11c-0.15-0.07-0.29-0.17-0.41-0.29c-0.11-0.13-0.2-0.27-0.27-0.43c-0.06-0.17-0.09-0.35-0.09-0.53
	c0-0.17,0.03-0.35,0.09-0.51c0.07-0.16,0.16-0.3,0.27-0.43c0.24-0.24,0.56-0.38,0.9-0.39c0.18,0,0.35,0.04,0.51,0.11
	c0.15,0.07,0.29,0.17,0.41,0.29c0.11,0.12,0.2,0.26,0.26,0.42c0.07,0.16,0.1,0.33,0.1,0.51v0.07l0,0h-2.28
	c0.01,0.14,0.04,0.29,0.1,0.42c0.06,0.12,0.13,0.23,0.23,0.33c0.09,0.1,0.2,0.17,0.32,0.22c0.12,0.06,0.25,0.08,0.38,0.08
	c0.09,0.02,0.17,0.02,0.26,0c0.09-0.02,0.17-0.05,0.25-0.1c0.08-0.04,0.14-0.1,0.2-0.16c0.05-0.06,0.1-0.13,0.13-0.2l0.22,0.06
	c-0.03,0.1-0.09,0.19-0.16,0.26c-0.07,0.08-0.15,0.15-0.25,0.2c-0.1,0.06-0.2,0.1-0.31,0.13C87.39,13.77,87.27,13.79,87.15,13.78z
	 M88.15,12.33c-0.01-0.14-0.04-0.28-0.1-0.41c-0.06-0.12-0.13-0.23-0.23-0.33c-0.09-0.09-0.2-0.16-0.32-0.22
	c-0.24-0.09-0.52-0.09-0.76,0c-0.12,0.06-0.23,0.13-0.32,0.22c-0.09,0.09-0.17,0.21-0.22,0.33c-0.06,0.13-0.09,0.27-0.1,0.41H88.15z
	 M90.74,10.55v-0.46H91v0.46H90.74z M90.74,13.73v-2.59H91v2.59H90.74z M93.18,13.61h-0.07l-0.12,0.06h-0.16
	c-0.07,0.01-0.13,0.01-0.2,0c-0.06,0.01-0.13,0.01-0.19,0c-0.06-0.02-0.12-0.05-0.17-0.09c-0.04-0.04-0.08-0.09-0.11-0.14
	c-0.01-0.07-0.01-0.13,0-0.2v-2H91.8v-0.2h0.36v-0.76h0.25v0.89H93v0.2h-0.61v1.91c0,0.08,0.03,0.16,0.1,0.21
	c0.07,0.05,0.15,0.08,0.23,0.08c0.09,0,0.19-0.02,0.27-0.06l0.13-0.06L93.18,13.61z M96.67,13.78c-0.21,0.01-0.42-0.06-0.6-0.18
	c-0.17-0.11-0.32-0.25-0.42-0.43v1.62H95.4v-3.65h0.23v0.52c0.1-0.17,0.25-0.31,0.42-0.41c0.17-0.11,0.36-0.16,0.56-0.16
	c0.17,0,0.35,0.04,0.5,0.12c0.15,0.07,0.28,0.17,0.39,0.3c0.11,0.13,0.2,0.27,0.26,0.43c0.11,0.32,0.11,0.68,0,1
	c-0.05,0.16-0.13,0.3-0.24,0.43c-0.1,0.12-0.23,0.22-0.38,0.29C97,13.74,96.83,13.78,96.67,13.78z M96.61,13.56
	c0.14,0,0.28-0.03,0.4-0.1c0.12-0.06,0.23-0.14,0.32-0.25c0.09-0.1,0.16-0.23,0.2-0.36c0.05-0.13,0.07-0.27,0.07-0.41
	c0-0.15-0.03-0.29-0.08-0.43c-0.05-0.13-0.13-0.25-0.22-0.35c-0.09-0.11-0.21-0.19-0.34-0.25c-0.12-0.06-0.26-0.09-0.4-0.09
	c-0.1-0.01-0.19-0.01-0.29,0c-0.1,0.04-0.19,0.09-0.28,0.16c-0.09,0.06-0.17,0.13-0.23,0.22c-0.06,0.07-0.1,0.16-0.11,0.26v0.86
	c0.04,0.1,0.1,0.19,0.16,0.27c0.07,0.08,0.15,0.15,0.23,0.22c0.08,0.06,0.17,0.11,0.27,0.14C96.4,13.51,96.5,13.55,96.61,13.56z
	 M99.79,13.78c-0.18,0-0.35-0.03-0.51-0.11c-0.15-0.07-0.29-0.17-0.4-0.29c-0.12-0.12-0.2-0.27-0.26-0.43
	c-0.07-0.16-0.1-0.33-0.1-0.51c0-0.18,0.03-0.36,0.1-0.52c0.06-0.16,0.15-0.31,0.27-0.43c0.23-0.25,0.56-0.4,0.9-0.4
	c0.17,0,0.34,0.04,0.5,0.11c0.15,0.07,0.29,0.17,0.4,0.29c0.11,0.13,0.2,0.27,0.27,0.43c0.06,0.17,0.1,0.34,0.1,0.52
	c0,0.17-0.04,0.35-0.1,0.51c-0.06,0.16-0.15,0.31-0.27,0.43C100.46,13.63,100.13,13.78,99.79,13.78z M98.79,12.45
	c0,0.15,0.03,0.29,0.08,0.43c0.05,0.13,0.12,0.25,0.22,0.35c0.09,0.1,0.2,0.18,0.32,0.24c0.12,0.06,0.25,0.09,0.39,0.09
	c0.14,0,0.28-0.03,0.4-0.09c0.12-0.06,0.23-0.14,0.32-0.24c0.1-0.1,0.17-0.23,0.22-0.36c0.06-0.14,0.09-0.29,0.08-0.44
	c0-0.15-0.02-0.29-0.08-0.43c-0.05-0.13-0.12-0.25-0.22-0.35c-0.09-0.1-0.2-0.18-0.32-0.24c-0.25-0.12-0.53-0.12-0.78,0
	c-0.12,0.06-0.24,0.14-0.33,0.24c-0.09,0.11-0.17,0.23-0.22,0.36c-0.06,0.14-0.09,0.29-0.1,0.44H98.79z M102.73,13.78
	c-0.2,0-0.39-0.03-0.58-0.1c-0.18-0.06-0.34-0.16-0.47-0.3l0.12-0.17c0.12,0.12,0.27,0.21,0.43,0.28c0.16,0.06,0.33,0.09,0.5,0.09
	c0.19,0.01,0.38-0.04,0.54-0.14c0.14-0.09,0.21-0.24,0.21-0.4c0.02-0.07,0.02-0.13,0-0.2c-0.04-0.06-0.1-0.1-0.16-0.14
	c-0.08-0.04-0.17-0.08-0.26-0.1l-0.36-0.1c-0.13-0.02-0.26-0.06-0.38-0.1c-0.11-0.02-0.22-0.06-0.32-0.12
	c-0.07-0.04-0.12-0.1-0.15-0.17c-0.04-0.08-0.06-0.16-0.06-0.25c0-0.12,0.03-0.23,0.08-0.34c0.05-0.1,0.12-0.18,0.21-0.24
	c0.09-0.06,0.19-0.11,0.3-0.14c0.12-0.02,0.25-0.02,0.37,0c0.18,0,0.37,0.03,0.54,0.1c0.14,0.06,0.26,0.15,0.36,0.27l-0.14,0.13
	c-0.09-0.1-0.21-0.18-0.34-0.22c-0.23-0.07-0.48-0.07-0.71,0c-0.08,0.02-0.15,0.05-0.22,0.1c-0.06,0.04-0.11,0.1-0.15,0.16
	c-0.05,0.14-0.05,0.29,0,0.43c0.03,0.05,0.07,0.09,0.12,0.12l0.21,0.09l0.31,0.08l0.44,0.11c0.11,0.03,0.21,0.08,0.31,0.14
	c0.08,0.05,0.15,0.11,0.2,0.19c0.05,0.09,0.07,0.18,0.07,0.28c0.01,0.22-0.1,0.43-0.28,0.55C103.24,13.79,102.98,13.83,102.73,13.78
	z M105.38,13.78c-0.2,0-0.39-0.03-0.58-0.1c-0.18-0.06-0.34-0.16-0.47-0.3l0.12-0.17c0.12,0.12,0.27,0.21,0.43,0.28
	c0.16,0.06,0.33,0.09,0.5,0.09c0.19,0.01,0.38-0.04,0.54-0.14c0.14-0.09,0.21-0.24,0.21-0.4c0.02-0.07,0.02-0.13,0-0.2
	c-0.04-0.06-0.1-0.1-0.16-0.14c-0.08-0.04-0.17-0.08-0.26-0.1l-0.36-0.1c-0.13-0.02-0.26-0.06-0.38-0.1
	c-0.1-0.02-0.19-0.06-0.27-0.12c-0.07-0.04-0.12-0.1-0.15-0.17c-0.04-0.08-0.06-0.16-0.06-0.25c0-0.12,0.03-0.23,0.08-0.34
	c0.05-0.1,0.12-0.18,0.21-0.24c0.09-0.06,0.19-0.11,0.3-0.14c0.12-0.02,0.25-0.02,0.37,0c0.18,0,0.37,0.03,0.54,0.1
	c0.14,0.06,0.26,0.15,0.36,0.27l-0.14,0.13c-0.09-0.1-0.21-0.18-0.34-0.22c-0.23-0.07-0.48-0.07-0.71,0
	c-0.08,0.02-0.15,0.05-0.22,0.1c-0.06,0.04-0.11,0.1-0.15,0.16c-0.04,0.08-0.06,0.16-0.06,0.25c-0.01,0.06-0.01,0.12,0,0.18
	c0.03,0.05,0.07,0.09,0.12,0.12l0.21,0.09l0.31,0.08l0.44,0.11c0.11,0.03,0.21,0.08,0.31,0.14c0.08,0.05,0.15,0.11,0.2,0.19
	c0.05,0.09,0.07,0.18,0.07,0.28c0.01,0.22-0.1,0.43-0.28,0.55C105.89,13.79,105.63,13.83,105.38,13.78z M107.2,10.55v-0.46h0.25
	v0.46H107.2z M107.2,13.73v-2.59h0.25v2.59H107.2z M109.7,13.78c-0.41,0-0.79-0.22-1-0.57v0.52h-0.23v-3.64h0.25v1.61
	c0.11-0.17,0.26-0.32,0.43-0.44c0.17-0.12,0.37-0.17,0.58-0.17c0.17,0,0.35,0.04,0.5,0.12c0.14,0.08,0.27,0.18,0.37,0.31
	c0.1,0.13,0.19,0.27,0.24,0.43c0.05,0.16,0.08,0.32,0.08,0.49c0,0.18-0.03,0.35-0.09,0.52c-0.06,0.16-0.15,0.3-0.27,0.42
	c-0.11,0.12-0.24,0.22-0.39,0.29C110.02,13.74,109.86,13.78,109.7,13.78z M109.7,13.56c0.15,0,0.29-0.03,0.42-0.1
	c0.13-0.06,0.24-0.14,0.33-0.25c0.09-0.11,0.16-0.23,0.21-0.36c0.05-0.13,0.08-0.27,0.08-0.41c0-0.14-0.03-0.28-0.07-0.42
	c-0.05-0.13-0.12-0.25-0.21-0.36c-0.09-0.1-0.19-0.19-0.31-0.25c-0.13-0.06-0.27-0.09-0.41-0.09c-0.1-0.02-0.21-0.02-0.31,0
	c-0.09,0.04-0.18,0.09-0.26,0.16c-0.09,0.06-0.16,0.13-0.22,0.22c-0.07,0.08-0.12,0.17-0.16,0.26v0.85c0.01,0.1,0.05,0.2,0.11,0.28
	c0.06,0.08,0.14,0.15,0.22,0.21c0.09,0.07,0.18,0.12,0.29,0.15c0.07,0.05,0.15,0.09,0.24,0.11H109.7z M111.81,10.09h0.25v3.13
	c0,0.09,0.03,0.17,0.09,0.23c0.06,0.05,0.14,0.08,0.22,0.08h0.14h0.14v0.2c-0.07,0.03-0.14,0.05-0.21,0.06h-0.22
	c-0.12,0.01-0.24-0.04-0.33-0.13c-0.09-0.09-0.14-0.21-0.13-0.34L111.81,10.09z M114.43,13.78c-0.17,0.01-0.35-0.03-0.5-0.11
	c-0.16-0.07-0.29-0.17-0.41-0.29c-0.12-0.12-0.21-0.27-0.27-0.43c-0.07-0.17-0.1-0.35-0.1-0.53c0-0.18,0.03-0.35,0.1-0.51
	c0.06-0.16,0.15-0.31,0.27-0.43c0.11-0.12,0.25-0.22,0.4-0.28c0.16-0.07,0.33-0.11,0.5-0.11c0.18,0,0.35,0.04,0.51,0.11
	c0.15,0.07,0.29,0.17,0.4,0.29c0.12,0.12,0.21,0.26,0.27,0.42c0.06,0.16,0.09,0.34,0.09,0.51v0.11h-2.28
	c0.01,0.15,0.05,0.29,0.11,0.42c0.05,0.12,0.13,0.23,0.22,0.33c0.09,0.1,0.2,0.17,0.32,0.22c0.21,0.08,0.44,0.08,0.65,0
	c0.09-0.02,0.17-0.05,0.24-0.1c0.08-0.04,0.15-0.09,0.2-0.16c0.06-0.06,0.11-0.13,0.14-0.2l0.22,0.06c-0.04,0.1-0.09,0.18-0.16,0.26
	c-0.07,0.08-0.16,0.15-0.25,0.2c-0.1,0.06-0.21,0.1-0.32,0.13C114.67,13.74,114.55,13.77,114.43,13.78z M115.43,12.33
	c-0.01-0.14-0.04-0.28-0.1-0.41c-0.05-0.12-0.13-0.23-0.22-0.33c-0.1-0.09-0.2-0.16-0.32-0.22c-0.12-0.05-0.26-0.07-0.39-0.07
	c-0.13,0-0.26,0.02-0.38,0.07c-0.12,0.06-0.22,0.13-0.32,0.22c-0.09,0.1-0.17,0.21-0.22,0.33c-0.05,0.13-0.08,0.27-0.09,0.41H115.43
	z M116.44,13.73v-0.45h0.22v0.42L116.44,13.73z"/>
</svg>
