<?xml version="1.0" encoding="utf-8"?>
<!-- Generator: Adobe Illustrator 22.0.0, SVG Export Plug-In . SVG Version: 6.00 Build 0)  -->
<svg version="1.1" id="Layer_1" xmlns="http://www.w3.org/2000/svg" xmlns:xlink="http://www.w3.org/1999/xlink" x="0px" y="0px"
	 viewBox="0 0 140.16 4.77" style="enable-background:new 0 0 140.16 4.77;" xml:space="preserve">
<style type="text/css">
	.st0{display:none;fill:#C62026;}
	.st1{fill:#010101;}
	.st2{display:none;fill:#010101;}
</style>
<path class="st0" d="M-0.69-58.81L3.8-48.54l4.47-10.27H8.6L4-48.16H3.63L-1-58.81H-0.69z M8.76-48.16v-1h0.3v1H8.76z"/>
<path class="st1" d="M2.33,0.69c-0.26-0.28-0.62-0.42-1-0.39C1.06,0.28,0.79,0.35,0.57,0.5C0.41,0.63,0.33,0.83,0.34,1.03
	c-0.02,0.09-0.02,0.19,0,0.28c0.05,0.08,0.11,0.15,0.19,0.2c0.1,0.05,0.21,0.1,0.32,0.13l0.47,0.12c0.19,0,0.36,0.08,0.52,0.13
	c0.14,0.04,0.27,0.1,0.39,0.18c0.11,0.07,0.19,0.16,0.25,0.27c0.06,0.12,0.09,0.25,0.09,0.39c0,0.14-0.03,0.28-0.09,0.41
	C2.42,3.26,2.33,3.36,2.22,3.43C2.1,3.51,1.96,3.57,1.82,3.61C1.65,3.65,1.48,3.67,1.3,3.67C0.82,3.67,0.36,3.5,0,3.19l0.14-0.2
	c0.15,0.16,0.34,0.28,0.54,0.37C0.91,3.45,1.16,3.5,1.41,3.5c0.25,0.01,0.51-0.05,0.73-0.17C2.31,3.21,2.41,3.02,2.4,2.81
	c0-0.1-0.02-0.2-0.07-0.29C2.28,2.43,2.21,2.35,2.12,2.3C2.02,2.23,1.9,2.18,1.78,2.15C1.62,2.1,1.46,2.06,1.29,2.03L0.79,1.9
	C0.66,1.86,0.53,1.8,0.42,1.73C0.33,1.67,0.25,1.58,0.2,1.48C0.15,1.37,0.13,1.24,0.13,1.12c0-0.15,0.03-0.3,0.09-0.43
	c0.06-0.12,0.15-0.23,0.26-0.31c0.11-0.09,0.24-0.15,0.37-0.19c0.17-0.05,0.34-0.07,0.51-0.07C1.58,0.1,1.79,0.13,2,0.19
	C2.18,0.26,2.35,0.36,2.49,0.5L2.33,0.69z M4.1,3.69c-0.11,0-0.22-0.02-0.33-0.06c-0.1-0.04-0.19-0.1-0.27-0.17
	C3.42,3.38,3.36,3.29,3.31,3.19c-0.04-0.1-0.06-0.21-0.06-0.32c0-0.11,0.03-0.22,0.08-0.31c0.05-0.1,0.13-0.18,0.22-0.24
	c0.11-0.06,0.22-0.1,0.34-0.13c0.14-0.04,0.29-0.06,0.44-0.06c0.14-0.01,0.28-0.01,0.42,0c0.13,0.02,0.26,0.05,0.39,0.1V1.97
	c0.01-0.21-0.06-0.42-0.21-0.58c-0.15-0.14-0.36-0.22-0.57-0.2c-0.14,0-0.27,0.03-0.4,0.08C3.8,1.33,3.66,1.4,3.52,1.5L3.43,1.33
	c0.29-0.21,0.64-0.33,1-0.34C4.7,0.97,4.97,1.07,5.17,1.26c0.19,0.2,0.29,0.47,0.27,0.75v1.28c0,0.09,0,0.13,0.1,0.13v0.22H5.4
	c-0.06,0-0.12-0.02-0.16-0.07C5.2,3.53,5.17,3.47,5.17,3.41V3.19C5.04,3.34,4.89,3.46,4.71,3.55C4.52,3.64,4.31,3.69,4.1,3.69z
	 M4.15,3.49C4.33,3.5,4.51,3.46,4.68,3.38c0.15-0.06,0.28-0.16,0.38-0.29c0.05-0.06,0.08-0.13,0.08-0.2V2.43
	c-0.12-0.04-0.25-0.08-0.38-0.1c-0.13-0.01-0.27-0.01-0.4,0C4.24,2.31,4.12,2.31,4,2.33C3.91,2.35,3.81,2.39,3.73,2.44
	C3.58,2.53,3.49,2.69,3.49,2.86c-0.02,0.08-0.02,0.17,0,0.25C3.52,3.18,3.57,3.25,3.63,3.3c0.13,0.12,0.3,0.18,0.47,0.18L4.15,3.49z
	 M6.5,4.52h0.17h0.08l0.06-0.05C6.84,4.43,6.86,4.4,6.88,4.36C6.93,4.27,6.97,4.18,7,4.09l0.19-0.45L6,1.05h0.26l1,2.35l1-2.35H8.5
	L7.1,4.46C7.07,4.55,7,4.63,6.92,4.68C6.82,4.73,6.7,4.76,6.59,4.75H6.5V4.52z M11.72,3.68c-0.17,0-0.34-0.04-0.5-0.11
	c-0.14-0.07-0.27-0.18-0.38-0.3c-0.11-0.13-0.2-0.27-0.26-0.43c-0.06-0.16-0.09-0.32-0.09-0.49c0-0.17,0.03-0.35,0.09-0.51
	c0.06-0.16,0.14-0.3,0.24-0.43c0.11-0.12,0.24-0.23,0.39-0.3C11.36,1.04,11.53,1,11.7,1c0.21,0,0.42,0.06,0.59,0.18
	c0.17,0.12,0.31,0.26,0.43,0.43V1.05h0.22v2.64c0,0.16-0.03,0.32-0.09,0.47c-0.07,0.13-0.16,0.24-0.27,0.33
	c-0.12,0.09-0.25,0.16-0.39,0.2c-0.15,0.04-0.31,0.06-0.47,0.06c-0.13,0.02-0.27,0.02-0.4,0C11.21,4.71,11.1,4.66,11,4.59
	c-0.09-0.05-0.17-0.11-0.24-0.19c-0.07-0.07-0.14-0.15-0.19-0.24l0.17-0.12c0.09,0.17,0.24,0.31,0.42,0.39
	c0.18,0.08,0.37,0.12,0.56,0.12c0.13,0.02,0.25,0.02,0.38,0c0.11-0.04,0.22-0.1,0.31-0.17c0.09-0.07,0.16-0.16,0.21-0.26
	C12.67,4,12.7,3.87,12.7,3.74V3.17c-0.11,0.17-0.25,0.31-0.43,0.41C12.1,3.66,11.91,3.69,11.72,3.68z M11.78,3.47
	c0.11,0,0.22-0.02,0.32-0.07c0.1-0.04,0.2-0.09,0.28-0.16c0.08-0.06,0.16-0.13,0.21-0.22c0.05-0.08,0.09-0.16,0.11-0.25V1.92
	c-0.04-0.1-0.1-0.19-0.16-0.28c-0.07-0.08-0.14-0.16-0.23-0.22c-0.09-0.06-0.18-0.11-0.28-0.14c-0.09-0.04-0.19-0.05-0.29-0.05
	c-0.15,0-0.29,0.03-0.42,0.1c-0.12,0.06-0.23,0.15-0.31,0.26c-0.09,0.1-0.16,0.23-0.2,0.36c-0.04,0.13-0.07,0.26-0.07,0.4
	c0,0.15,0.03,0.29,0.08,0.43c0.06,0.13,0.13,0.25,0.22,0.35c0.09,0.1,0.21,0.19,0.33,0.25C11.5,3.44,11.64,3.47,11.78,3.47z
	 M15.06,3.69c-0.18,0-0.35-0.03-0.51-0.11c-0.31-0.14-0.55-0.4-0.66-0.72c-0.07-0.16-0.1-0.33-0.1-0.51c0-0.18,0.04-0.35,0.1-0.52
	c0.06-0.16,0.15-0.3,0.27-0.43c0.35-0.39,0.92-0.51,1.4-0.29c0.15,0.07,0.29,0.17,0.4,0.29c0.12,0.12,0.21,0.27,0.27,0.43
	c0.07,0.16,0.1,0.34,0.1,0.52c0,0.18-0.03,0.35-0.1,0.51c-0.06,0.16-0.15,0.31-0.27,0.43C15.73,3.54,15.4,3.69,15.06,3.69z
	 M14.06,2.36c0,0.29,0.1,0.57,0.3,0.78c0.09,0.1,0.2,0.18,0.32,0.24c0.12,0.06,0.26,0.09,0.4,0.09c0.14,0,0.27-0.03,0.39-0.09
	c0.12-0.06,0.23-0.14,0.32-0.24c0.1-0.1,0.17-0.23,0.22-0.36c0.06-0.14,0.09-0.29,0.08-0.44c0-0.15-0.02-0.29-0.08-0.43
	c-0.05-0.13-0.12-0.25-0.22-0.35c-0.09-0.1-0.2-0.18-0.32-0.24c-0.25-0.12-0.53-0.12-0.78,0c-0.12,0.06-0.24,0.14-0.33,0.24
	c-0.09,0.11-0.17,0.23-0.22,0.36C14.07,2.06,14.02,2.21,14,2.36H14.06z M18.26,3.69c-0.34,0-0.67-0.15-0.9-0.4
	c-0.12-0.12-0.21-0.27-0.27-0.43C17.03,2.7,17,2.52,17,2.35c0-0.18,0.03-0.35,0.09-0.52c0.07-0.16,0.16-0.3,0.27-0.43
	c0.11-0.12,0.25-0.22,0.4-0.29C17.92,1.04,18.09,1,18.26,1c0.17,0,0.34,0.04,0.5,0.11c0.31,0.14,0.56,0.4,0.67,0.72
	c0.07,0.16,0.1,0.34,0.1,0.52c0,0.18-0.03,0.35-0.1,0.51c-0.11,0.32-0.35,0.58-0.66,0.72C18.61,3.66,18.44,3.69,18.26,3.69z
	 M17.26,2.36c0,0.29,0.1,0.56,0.29,0.78c0.09,0.1,0.2,0.18,0.32,0.24c0.12,0.06,0.26,0.09,0.4,0.09c0.14,0,0.27-0.03,0.39-0.09
	C18.78,3.34,18.9,3.27,19,3.19c0.09-0.11,0.16-0.23,0.22-0.36c0.05-0.14,0.08-0.29,0.08-0.44c0-0.15-0.03-0.29-0.08-0.43
	C19.16,1.83,19.09,1.71,19,1.61c-0.09-0.1-0.2-0.18-0.32-0.24c-0.12-0.06-0.26-0.09-0.4-0.09c-0.14,0-0.27,0.03-0.39,0.09
	c-0.12,0.06-0.23,0.14-0.32,0.24c-0.1,0.1-0.17,0.23-0.22,0.36c-0.06,0.12-0.09,0.25-0.1,0.39H17.26z M21.45,3.69
	c-0.17,0-0.34-0.04-0.5-0.11c-0.15-0.08-0.28-0.18-0.4-0.3c-0.11-0.13-0.2-0.27-0.26-0.43c-0.06-0.16-0.09-0.33-0.09-0.5
	c0-0.17,0.03-0.35,0.09-0.51c0.05-0.16,0.14-0.31,0.25-0.43c0.11-0.12,0.23-0.23,0.38-0.3C21.07,1.04,21.23,1,21.39,1
	c0.11-0.02,0.21-0.02,0.32,0c0.1,0.05,0.2,0.12,0.29,0.19c0.09,0.06,0.17,0.12,0.24,0.2c0.07,0.07,0.13,0.15,0.18,0.23V0h0.25v3.29
	c0,0.09,0,0.13,0.1,0.13v0.22h-0.09c-0.07,0-0.13-0.03-0.17-0.08c-0.05-0.04-0.07-0.1-0.07-0.16V3.11
	c-0.11,0.17-0.25,0.32-0.43,0.42C21.84,3.63,21.65,3.69,21.45,3.69z M21.45,3.47c0.1,0,0.2-0.02,0.29-0.06
	c0.1-0.03,0.2-0.08,0.29-0.15c0.08-0.07,0.16-0.14,0.23-0.22c0.06-0.08,0.1-0.17,0.11-0.27V1.92c-0.04-0.1-0.09-0.19-0.16-0.27
	c-0.07-0.08-0.14-0.16-0.23-0.22c-0.09-0.06-0.18-0.11-0.28-0.15c-0.09-0.04-0.19-0.05-0.29-0.05c-0.14,0-0.28,0.03-0.41,0.09
	c-0.12,0.07-0.23,0.15-0.32,0.26c-0.09,0.11-0.15,0.23-0.2,0.36c-0.04,0.13-0.07,0.27-0.07,0.41c0,0.15,0.03,0.29,0.08,0.43
	c0.06,0.13,0.13,0.25,0.23,0.35C20.9,3.34,21.17,3.46,21.45,3.47z M24.91,3.69c-0.2,0-0.4-0.05-0.57-0.16
	c-0.17-0.1-0.31-0.24-0.41-0.41v0.52H23.7V0H24v1.61c0.11-0.17,0.26-0.32,0.43-0.44C24.61,1.06,24.81,1,25.02,1
	c0.17,0,0.34,0.04,0.49,0.12c0.15,0.08,0.27,0.18,0.38,0.31c0.1,0.13,0.18,0.27,0.23,0.43c0.06,0.16,0.08,0.32,0.08,0.49
	c0,0.18-0.03,0.35-0.09,0.52c-0.12,0.31-0.36,0.57-0.66,0.71C25.28,3.66,25.1,3.7,24.91,3.69z M24.86,3.47
	c0.15,0,0.29-0.03,0.42-0.1c0.13-0.06,0.24-0.14,0.33-0.25c0.09-0.11,0.16-0.23,0.21-0.36c0.05-0.13,0.08-0.27,0.08-0.41
	c0-0.14-0.03-0.28-0.07-0.42c-0.05-0.13-0.12-0.25-0.21-0.36c-0.09-0.1-0.19-0.19-0.31-0.25c-0.12-0.06-0.26-0.09-0.4-0.09
	c-0.11,0-0.21,0.02-0.31,0.05c-0.19,0.08-0.36,0.21-0.49,0.38c-0.07,0.08-0.12,0.17-0.16,0.26v0.85c0.01,0.1,0.05,0.2,0.11,0.28
	c0.06,0.08,0.14,0.15,0.22,0.21c0.09,0.07,0.18,0.12,0.29,0.15C24.66,3.45,24.76,3.47,24.86,3.47z M27.09,4.52h0.16h0.09l0.05-0.05
	c0.03-0.03,0.05-0.07,0.07-0.11l0.12-0.25c0-0.11,0.11-0.26,0.19-0.45l-1.16-2.59h0.26l1,2.35l1-2.35h0.25L27.7,4.48
	c-0.04,0.09-0.1,0.17-0.18,0.22c-0.1,0.05-0.22,0.08-0.33,0.07H27.1L27.09,4.52z M30.87,3.69c-0.18,0-0.35-0.03-0.51-0.11
	C30.22,3.51,30.1,3.41,30,3.29c-0.11-0.13-0.2-0.27-0.27-0.43c-0.06-0.17-0.09-0.35-0.09-0.53c0-0.17,0.03-0.35,0.09-0.51
	c0.07-0.16,0.16-0.3,0.27-0.43c0.11-0.12,0.25-0.21,0.4-0.28C30.56,1.04,30.73,1,30.9,1c0.18,0,0.35,0.04,0.51,0.11
	c0.15,0.07,0.29,0.17,0.41,0.29c0.11,0.12,0.2,0.26,0.26,0.42c0.06,0.16,0.1,0.34,0.1,0.51V2.4l0,0h-2.33
	c0.01,0.14,0.04,0.29,0.1,0.42c0.06,0.12,0.13,0.23,0.23,0.33c0.09,0.09,0.19,0.17,0.31,0.22c0.12,0.06,0.26,0.08,0.39,0.08
	c0.09,0.02,0.17,0.02,0.26,0c0.09-0.02,0.17-0.05,0.25-0.1c0.07-0.04,0.14-0.09,0.19-0.16c0.06-0.06,0.11-0.12,0.14-0.2l0.22,0.06
	c-0.03,0.1-0.09,0.19-0.16,0.26c-0.07,0.08-0.16,0.15-0.25,0.2c-0.1,0.06-0.2,0.1-0.31,0.13C31.11,3.68,30.99,3.69,30.87,3.69z
	 M31.87,2.24c-0.01-0.14-0.05-0.28-0.11-0.41c-0.05-0.12-0.13-0.24-0.22-0.33c-0.09-0.09-0.2-0.16-0.32-0.22
	c-0.12-0.05-0.25-0.07-0.38-0.07c-0.13,0-0.27,0.02-0.39,0.07c-0.11,0.06-0.22,0.13-0.31,0.22c-0.09,0.09-0.17,0.21-0.22,0.33
	c-0.06,0.13-0.09,0.27-0.1,0.41H31.87z M35.61,3.52h-0.06l-0.12,0.06h-0.16c-0.13,0.03-0.27,0.03-0.4,0
	c-0.06-0.02-0.11-0.05-0.16-0.09c-0.04-0.04-0.08-0.09-0.11-0.14c-0.02-0.07-0.02-0.13,0-0.2v-2h-0.4v-0.2h0.36V0.19h0.25v0.89h0.6
	v0.2h-0.6v1.91c-0.01,0.08,0.03,0.16,0.1,0.21c0.07,0.05,0.15,0.08,0.23,0.08c0.09,0,0.18-0.02,0.26-0.06l0.14-0.06L35.61,3.52z
	 M37.33,3.69c-0.35,0-0.68-0.14-0.91-0.4c-0.12-0.12-0.21-0.27-0.27-0.43c-0.06-0.16-0.09-0.34-0.09-0.51c0-0.18,0.03-0.36,0.1-0.52
	c0.06-0.16,0.15-0.3,0.26-0.43c0.12-0.12,0.25-0.22,0.4-0.29C36.98,1.04,37.15,1,37.33,1c0.17,0,0.34,0.04,0.49,0.11
	c0.15,0.07,0.29,0.17,0.41,0.29c0.11,0.13,0.2,0.27,0.27,0.43c0.06,0.17,0.09,0.34,0.09,0.52c0.01,0.35-0.12,0.69-0.36,0.94
	c-0.11,0.12-0.25,0.22-0.4,0.29C37.67,3.66,37.5,3.69,37.33,3.69z M36.33,2.36c0,0.29,0.1,0.56,0.29,0.78
	c0.09,0.1,0.21,0.18,0.33,0.24c0.25,0.12,0.53,0.12,0.78,0c0.1-0.05,0.19-0.11,0.27-0.19c0.09-0.11,0.17-0.23,0.22-0.36
	c0.05-0.14,0.08-0.29,0.08-0.44c0-0.15-0.03-0.29-0.08-0.43C38.17,1.83,38.09,1.71,38,1.61c-0.09-0.1-0.2-0.18-0.32-0.24
	c-0.12-0.06-0.25-0.09-0.39-0.09c-0.14,0-0.28,0.03-0.4,0.09c-0.12,0.06-0.23,0.14-0.32,0.24c-0.1,0.1-0.17,0.23-0.22,0.36
	c-0.04,0.13-0.05,0.26-0.04,0.39H36.33z M41.61,3.69c-0.11,0-0.22-0.02-0.33-0.06c-0.1-0.04-0.19-0.09-0.27-0.17
	c-0.08-0.07-0.14-0.16-0.19-0.25c-0.04-0.1-0.06-0.21-0.06-0.32c0-0.11,0.03-0.22,0.08-0.31c0.05-0.1,0.13-0.18,0.22-0.24
	c0.1-0.07,0.22-0.12,0.34-0.15c0.14-0.04,0.29-0.06,0.44-0.06c0.14-0.01,0.28-0.01,0.42,0c0.13,0.02,0.26,0.05,0.39,0.1V1.97
	c0.01-0.21-0.06-0.42-0.21-0.58c-0.15-0.15-0.36-0.23-0.57-0.22c-0.14,0-0.28,0.03-0.41,0.08c-0.15,0.06-0.3,0.14-0.43,0.23
	l-0.09-0.17c0.29-0.21,0.64-0.33,1-0.34c0.27-0.01,0.53,0.09,0.73,0.27c0.19,0.2,0.29,0.47,0.27,0.75v1.3c0,0.09,0,0.13,0.11,0.13
	v0.22h-0.1c-0.06,0-0.12-0.02-0.16-0.07c-0.04-0.04-0.07-0.1-0.07-0.16V3.19c-0.12,0.15-0.27,0.28-0.45,0.36
	C42.06,3.64,41.84,3.69,41.61,3.69z M41.61,3.49c0.18,0.01,0.36-0.03,0.53-0.11c0.15-0.06,0.28-0.16,0.37-0.29
	c0.05-0.05,0.09-0.12,0.09-0.2V2.43c-0.12-0.04-0.25-0.08-0.38-0.1c-0.13-0.01-0.27-0.01-0.4,0c-0.12-0.02-0.24-0.02-0.36,0
	c-0.09,0.02-0.19,0.06-0.27,0.11c-0.15,0.09-0.24,0.25-0.24,0.42c-0.02,0.08-0.02,0.17,0,0.25c0.03,0.07,0.08,0.14,0.14,0.19
	c0.13,0.12,0.3,0.18,0.47,0.18L41.61,3.49z M43.92,0h0.26v3.13c-0.01,0.08,0.02,0.17,0.08,0.23c0.06,0.06,0.15,0.08,0.23,0.08h0.13
	h0.14l0.05,0.2c-0.07,0.03-0.14,0.05-0.21,0.06h-0.21c-0.13,0.01-0.25-0.04-0.34-0.13c-0.09-0.09-0.14-0.21-0.13-0.34V0z M45.46,0
	h0.26v3.13c0,0.08,0.03,0.16,0.08,0.23c0.06,0.05,0.15,0.08,0.23,0.08h0.13h0.14l0.05,0.2c-0.07,0.03-0.14,0.05-0.21,0.06h-0.21
	c-0.13,0.01-0.25-0.04-0.34-0.13c-0.09-0.09-0.14-0.21-0.13-0.34V0z M48.09,3.69c-0.18,0-0.35-0.03-0.51-0.11
	c-0.15-0.07-0.29-0.17-0.41-0.29c-0.11-0.13-0.2-0.27-0.27-0.43c-0.06-0.17-0.09-0.35-0.09-0.53c0-0.17,0.03-0.35,0.09-0.51
	c0.07-0.16,0.16-0.3,0.27-0.43c0.11-0.12,0.25-0.21,0.4-0.28C47.73,1.04,47.9,1,48.07,1c0.18,0,0.35,0.04,0.51,0.11
	c0.15,0.07,0.29,0.17,0.41,0.29c0.11,0.12,0.2,0.26,0.26,0.42c0.06,0.16,0.1,0.34,0.1,0.51V2.4l0,0h-2.28
	c0.01,0.14,0.04,0.29,0.1,0.42c0.06,0.12,0.13,0.23,0.23,0.33c0.09,0.09,0.19,0.17,0.31,0.22c0.12,0.06,0.26,0.08,0.39,0.08
	c0.09,0.02,0.17,0.02,0.26,0c0.09-0.02,0.17-0.05,0.25-0.1c0.08-0.04,0.14-0.1,0.2-0.16c0.05-0.06,0.1-0.13,0.13-0.2l0.22,0.06
	c-0.03,0.1-0.09,0.19-0.16,0.26c-0.07,0.08-0.15,0.15-0.25,0.2c-0.1,0.06-0.2,0.1-0.31,0.13C48.33,3.68,48.21,3.69,48.09,3.69z
	 M49.09,2.24c-0.01-0.14-0.05-0.28-0.11-0.41c-0.05-0.12-0.13-0.24-0.22-0.33c-0.09-0.09-0.2-0.16-0.32-0.22
	c-0.12-0.05-0.25-0.07-0.38-0.07c-0.13,0-0.27,0.02-0.39,0.07c-0.11,0.06-0.22,0.13-0.31,0.22c-0.09,0.09-0.17,0.21-0.22,0.33
	c-0.06,0.13-0.09,0.27-0.1,0.41H49.09z M51.37,1.27c-0.22,0.01-0.43,0.08-0.61,0.21c-0.18,0.14-0.31,0.33-0.37,0.54v1.62h-0.25V1.05
	h0.24v0.64c0.08-0.18,0.2-0.33,0.36-0.45c0.14-0.11,0.3-0.18,0.48-0.2h0.15L51.37,1.27z M53,3.68c-0.17,0-0.34-0.04-0.49-0.11
	c-0.15-0.08-0.28-0.18-0.39-0.3C52.01,3.14,51.93,3,51.87,2.84c-0.06-0.16-0.09-0.32-0.09-0.49c0-0.17,0.03-0.35,0.08-0.51
	c0.06-0.16,0.14-0.3,0.25-0.43c0.11-0.12,0.23-0.23,0.38-0.3C52.64,1.04,52.81,1,52.98,1c0.21-0.01,0.42,0.06,0.6,0.18
	C53.74,1.3,53.89,1.44,54,1.61V1.05h0.23v2.64c0.01,0.16-0.03,0.32-0.1,0.47c-0.06,0.13-0.15,0.24-0.26,0.33
	c-0.12,0.09-0.25,0.15-0.39,0.2c-0.15,0.04-0.31,0.06-0.47,0.06c-0.13,0.02-0.27,0.02-0.4,0c-0.11-0.03-0.22-0.07-0.32-0.12
	c-0.09-0.05-0.18-0.11-0.25-0.19c-0.07-0.07-0.13-0.15-0.18-0.24l0.17-0.12c0.09,0.17,0.24,0.31,0.42,0.39
	c0.18,0.08,0.37,0.12,0.56,0.12c0.13,0.02,0.25,0.02,0.38,0c0.11-0.04,0.22-0.1,0.31-0.17c0.08-0.08,0.15-0.16,0.21-0.26
	c0.07-0.15,0.1-0.31,0.09-0.47V3.12c-0.1,0.17-0.25,0.31-0.42,0.41C53.4,3.63,53.2,3.68,53,3.68z M53.06,3.47
	c0.11,0,0.23-0.02,0.33-0.07c0.1-0.04,0.2-0.09,0.28-0.16c0.08-0.06,0.15-0.13,0.21-0.22c0.05-0.08,0.08-0.16,0.1-0.25V1.92
	c-0.04-0.1-0.09-0.2-0.16-0.28c-0.06-0.09-0.13-0.16-0.22-0.22c-0.09-0.06-0.18-0.11-0.28-0.14C53.22,1.23,53.11,1.2,53,1.19
	c-0.14,0-0.28,0.03-0.41,0.1c-0.13,0.06-0.23,0.15-0.32,0.26c-0.09,0.11-0.15,0.23-0.19,0.36c-0.05,0.13-0.07,0.26-0.07,0.4
	c0,0.15,0.03,0.29,0.08,0.43c0.05,0.13,0.13,0.25,0.22,0.35c0.09,0.11,0.2,0.19,0.33,0.25C52.77,3.42,52.92,3.46,53.06,3.47
	L53.06,3.47z M55.27,0.46V0h0.25v0.46H55.27z M55.27,3.64V1.05h0.25v2.59H55.27z M56.37,2.33c0-0.18,0.03-0.35,0.1-0.51
	c0.06-0.16,0.14-0.31,0.26-0.43C56.97,1.14,57.3,1,57.65,1c0.22,0,0.43,0.05,0.62,0.16c0.18,0.1,0.32,0.26,0.41,0.45l-0.25,0.08
	c-0.07-0.14-0.18-0.26-0.32-0.34c-0.14-0.08-0.31-0.12-0.47-0.12c-0.14,0-0.27,0.02-0.4,0.08c-0.12,0.06-0.23,0.14-0.32,0.24
	c-0.1,0.1-0.17,0.22-0.22,0.35c-0.05,0.14-0.08,0.28-0.08,0.43c0,0.15,0.03,0.31,0.08,0.45c0.06,0.13,0.13,0.25,0.22,0.36
	c0.09,0.1,0.21,0.18,0.33,0.24c0.12,0.06,0.25,0.09,0.39,0.09c0.09,0.01,0.18,0.01,0.27,0c0.09-0.03,0.17-0.06,0.25-0.11
	c0.07-0.04,0.14-0.09,0.19-0.15c0.05-0.05,0.09-0.11,0.11-0.18l0.25,0.07c-0.04,0.09-0.09,0.17-0.15,0.25
	c-0.07,0.08-0.15,0.15-0.25,0.2c-0.1,0.06-0.2,0.1-0.31,0.13c-0.12,0.02-0.23,0.02-0.35,0c-0.17,0.01-0.35-0.03-0.5-0.11
	c-0.16-0.07-0.29-0.17-0.41-0.29c-0.12-0.12-0.21-0.27-0.27-0.43C56.4,2.69,56.37,2.51,56.37,2.33z M62.28,1.27
	c-0.22,0.01-0.43,0.08-0.61,0.21c-0.18,0.13-0.31,0.32-0.37,0.54v1.62h-0.25V1.05h0.24v0.64c0.08-0.18,0.2-0.33,0.36-0.45
	c0.14-0.11,0.3-0.18,0.48-0.2h0.15L62.28,1.27z M64,3.69c-0.18,0.01-0.35-0.03-0.51-0.11c-0.15-0.07-0.29-0.17-0.41-0.29
	c-0.11-0.13-0.2-0.27-0.27-0.43c-0.06-0.17-0.1-0.35-0.1-0.53c0-0.17,0.04-0.35,0.1-0.51c0.07-0.16,0.16-0.3,0.27-0.43
	c0.11-0.12,0.25-0.21,0.4-0.28c0.32-0.14,0.68-0.14,1,0c0.15,0.07,0.29,0.17,0.41,0.29c0.11,0.12,0.2,0.26,0.26,0.42
	c0.06,0.16,0.09,0.34,0.09,0.51v0.11H63c0.01,0.15,0.05,0.29,0.11,0.42c0.05,0.12,0.13,0.24,0.23,0.33c0.09,0.1,0.19,0.17,0.31,0.22
	c0.12,0.06,0.26,0.08,0.39,0.08c0.09,0.01,0.17,0.01,0.26,0c0.09-0.02,0.17-0.05,0.24-0.1c0.08-0.04,0.15-0.09,0.2-0.16
	c0.06-0.06,0.11-0.12,0.14-0.2l0.22,0.06c-0.04,0.1-0.09,0.18-0.16,0.26c-0.07,0.08-0.16,0.15-0.25,0.2c-0.1,0.06-0.2,0.1-0.31,0.13
	C64.25,3.71,64.13,3.71,64,3.69z M65,2.24c-0.01-0.14-0.04-0.28-0.1-0.41c-0.05-0.12-0.13-0.23-0.22-0.33
	c-0.09-0.09-0.2-0.16-0.32-0.22C64.25,1.23,64.12,1.2,64,1.19c-0.13,0-0.27,0.02-0.39,0.07c-0.11,0.06-0.22,0.13-0.31,0.22
	c-0.1,0.09-0.17,0.2-0.22,0.33c-0.06,0.13-0.09,0.27-0.1,0.41L65,2.24z M66.67,3.69c-0.11,0-0.22-0.02-0.33-0.06
	c-0.1-0.04-0.19-0.09-0.27-0.17c-0.08-0.07-0.14-0.16-0.19-0.25c-0.04-0.1-0.06-0.21-0.06-0.32c-0.01-0.11,0.02-0.22,0.08-0.31
	c0.05-0.1,0.13-0.18,0.22-0.24c0.1-0.07,0.22-0.13,0.34-0.16c0.14-0.04,0.29-0.06,0.44-0.06c0.14-0.01,0.28-0.01,0.42,0
	c0.13,0.02,0.26,0.05,0.38,0.1V1.96c0.01-0.21-0.06-0.42-0.21-0.58c-0.15-0.15-0.35-0.23-0.56-0.22c-0.14,0-0.28,0.03-0.41,0.08
	c-0.15,0.06-0.3,0.14-0.43,0.23L66,1.34c0.29-0.21,0.64-0.33,1-0.34c0.27-0.01,0.53,0.09,0.73,0.27c0.19,0.2,0.29,0.47,0.27,0.75
	v1.27c0,0.09,0,0.13,0.11,0.13v0.22H68c-0.06,0-0.12-0.02-0.16-0.07c-0.04-0.04-0.07-0.1-0.07-0.16V3.19
	c-0.12,0.15-0.28,0.27-0.45,0.36C67.12,3.64,66.89,3.69,66.67,3.69z M66.67,3.49c0.18,0.01,0.36-0.03,0.53-0.11
	c0.15-0.06,0.28-0.16,0.37-0.29c0.05-0.05,0.08-0.13,0.08-0.2V2.43c-0.12-0.04-0.24-0.08-0.37-0.1c-0.13-0.01-0.27-0.01-0.4,0
	c-0.12-0.02-0.24-0.02-0.36,0c-0.09,0.02-0.19,0.06-0.27,0.11c-0.15,0.09-0.24,0.25-0.24,0.42c-0.02,0.08-0.02,0.17,0,0.25
	c0.03,0.07,0.08,0.14,0.14,0.19c0.13,0.12,0.3,0.18,0.47,0.18L66.67,3.49z M68.78,2.33c0-0.18,0.03-0.35,0.1-0.51
	c0.06-0.16,0.14-0.31,0.26-0.43C69.38,1.14,69.71,1,70.06,1c0.22,0,0.43,0.05,0.62,0.16c0.18,0.1,0.32,0.26,0.41,0.45l-0.25,0.08
	c-0.07-0.14-0.18-0.26-0.32-0.34c-0.14-0.08-0.31-0.12-0.47-0.12c-0.14,0-0.27,0.02-0.4,0.08c-0.12,0.06-0.23,0.14-0.32,0.24
	c-0.2,0.21-0.3,0.49-0.3,0.78c0,0.15,0.03,0.31,0.08,0.45c0.06,0.13,0.13,0.25,0.22,0.36c0.09,0.1,0.21,0.18,0.33,0.24
	c0.12,0.06,0.25,0.09,0.39,0.09c0.09,0.01,0.18,0.01,0.27,0c0.09-0.03,0.17-0.06,0.25-0.11c0.07-0.04,0.14-0.09,0.19-0.15
	c0.05-0.05,0.09-0.11,0.11-0.18l0.25,0.07c-0.04,0.09-0.09,0.17-0.15,0.25c-0.07,0.08-0.15,0.15-0.25,0.2
	c-0.1,0.06-0.2,0.1-0.31,0.13c-0.12,0.02-0.23,0.02-0.35,0c-0.17,0.01-0.35-0.03-0.5-0.11C69.4,3.5,69.27,3.4,69.15,3.28
	c-0.12-0.12-0.21-0.27-0.27-0.43C68.81,2.69,68.78,2.51,68.78,2.33z M73.09,3.52h-0.07L72.9,3.58h-0.16c-0.07,0.01-0.13,0.01-0.2,0
	c-0.06,0.01-0.13,0.01-0.19,0c-0.06-0.02-0.11-0.05-0.16-0.09c-0.05-0.04-0.09-0.08-0.11-0.14c-0.01-0.07-0.01-0.13,0-0.2v-2h-0.37
	v-0.2H72V0.19h0.25v0.89h0.6v0.2h-0.6v1.91c-0.01,0.08,0.03,0.16,0.09,0.21c0.07,0.05,0.15,0.08,0.23,0.08
	c0.09,0,0.19-0.02,0.27-0.06l0.13-0.06L73.09,3.52z M73.78,0.46V0H74v0.46H73.78z M73.78,3.64V1.05H74v2.59H73.78z M76.15,3.69
	c-0.18,0.01-0.35-0.03-0.51-0.11c-0.15-0.07-0.29-0.17-0.4-0.29C75,3.04,74.87,2.7,74.88,2.35c0-0.18,0.03-0.36,0.1-0.52
	c0.11-0.32,0.36-0.58,0.67-0.72C75.81,1.04,75.98,1,76.15,1c0.17,0,0.34,0.04,0.5,0.11c0.15,0.07,0.28,0.17,0.4,0.29
	c0.11,0.13,0.2,0.27,0.27,0.43c0.06,0.17,0.1,0.34,0.1,0.52c0,0.17-0.04,0.35-0.1,0.51c-0.06,0.16-0.16,0.3-0.27,0.43
	c-0.11,0.12-0.25,0.22-0.4,0.29C76.49,3.66,76.32,3.69,76.15,3.69z M75.15,2.36c0,0.15,0.03,0.29,0.08,0.43
	c0.05,0.13,0.12,0.25,0.22,0.35c0.09,0.1,0.2,0.18,0.32,0.24c0.12,0.06,0.25,0.09,0.39,0.09c0.14,0,0.28-0.03,0.4-0.09
	c0.12-0.06,0.23-0.14,0.32-0.24c0.09-0.11,0.17-0.23,0.22-0.36c0.05-0.14,0.08-0.29,0.08-0.44c0-0.15-0.03-0.29-0.08-0.43
	c-0.05-0.13-0.13-0.25-0.22-0.35c-0.09-0.1-0.2-0.18-0.32-0.24c-0.12-0.06-0.25-0.09-0.39-0.09c-0.14,0-0.28,0.03-0.4,0.09
	c-0.12,0.06-0.23,0.14-0.32,0.24c-0.09,0.11-0.17,0.23-0.22,0.36c-0.06,0.14-0.09,0.29-0.1,0.44H75.15z M80.38,3.64h-0.25V2.19
	c0.02-0.25-0.03-0.5-0.14-0.73c-0.1-0.15-0.27-0.24-0.45-0.23c-0.11,0-0.22,0.02-0.33,0.06c-0.11,0.04-0.21,0.1-0.3,0.17
	c-0.09,0.07-0.17,0.16-0.24,0.26c-0.07,0.1-0.12,0.2-0.16,0.31v1.61h-0.25V1.05h0.24v0.62c0.05-0.1,0.12-0.19,0.19-0.28
	c0.09-0.08,0.2-0.15,0.31-0.2c0.1-0.05,0.2-0.1,0.31-0.13c0.11-0.02,0.23-0.02,0.34,0c0.24-0.02,0.47,0.09,0.6,0.3
	c0.13,0.26,0.19,0.56,0.17,0.85L80.38,3.64z M82.21,3.69c-0.19,0-0.39-0.03-0.57-0.1c-0.18-0.06-0.35-0.16-0.48-0.3l0.12-0.17
	c0.13,0.12,0.28,0.21,0.44,0.28c0.16,0.06,0.32,0.09,0.49,0.09c0.19,0.01,0.38-0.04,0.55-0.14c0.13-0.09,0.2-0.24,0.2-0.4
	c0.02-0.07,0.02-0.13,0-0.2c-0.04-0.06-0.1-0.11-0.16-0.14c-0.08-0.04-0.17-0.08-0.26-0.1l-0.35-0.1c-0.13-0.02-0.26-0.06-0.39-0.1
	c-0.09-0.03-0.18-0.07-0.26-0.12c-0.07-0.04-0.13-0.1-0.16-0.17c-0.02-0.08-0.02-0.17,0-0.25c0-0.12,0.02-0.23,0.07-0.34
	c0.05-0.1,0.12-0.18,0.21-0.24c0.09-0.06,0.19-0.11,0.3-0.14c0.12-0.02,0.25-0.02,0.37,0c0.18,0,0.37,0.03,0.54,0.1
	c0.14,0.06,0.27,0.15,0.36,0.27l-0.14,0.13c-0.09-0.1-0.2-0.18-0.33-0.22c-0.14-0.05-0.29-0.08-0.44-0.08
	c-0.09-0.01-0.19-0.01-0.28,0c-0.08,0.02-0.15,0.05-0.22,0.1c-0.06,0.04-0.11,0.1-0.15,0.16c-0.05,0.14-0.05,0.29,0,0.43
	c0.03,0.05,0.07,0.09,0.12,0.12l0.22,0.09l0.31,0.08l0.43,0.11c0.11,0.03,0.22,0.08,0.32,0.14c0.08,0.05,0.14,0.11,0.19,0.19
	c0.05,0.08,0.08,0.18,0.07,0.28c0.01,0.22-0.09,0.42-0.27,0.55C82.81,3.67,82.51,3.74,82.21,3.69z M88.72,1.05H89l-1.12,2.59h-0.21
	l-0.58-1.37L86.5,3.64h-0.21l-1.12-2.59h0.24l1,2.32l0.54-1.28l-0.44-1h0.22l0.36,0.86l0.35-0.86h0.22l-0.44,1l0.54,1.28L88.72,1.05
	z M89.71,0.46V0H90v0.46H89.71z M89.71,3.64V1.05H90v2.59H89.71z M92.15,3.52h-0.07l-0.12,0.06H91.8c-0.07,0.01-0.13,0.01-0.2,0
	c-0.07,0.01-0.13,0.01-0.2,0c-0.06-0.02-0.11-0.05-0.16-0.09c-0.04-0.04-0.08-0.09-0.11-0.14c-0.01-0.07-0.01-0.13,0-0.2v-2h-0.36
	v-0.2h0.36V0.19h0.25v0.89H92v0.2h-0.61v1.91c0,0.08,0.03,0.16,0.1,0.21c0.07,0.05,0.15,0.08,0.23,0.08c0.09,0,0.18-0.02,0.26-0.06
	l0.14-0.06L92.15,3.52z M95,3.64h-0.3V2.19c0-0.64-0.21-1-0.64-1c-0.11,0-0.21,0.02-0.31,0.06c-0.1,0.04-0.2,0.1-0.29,0.17
	c-0.09,0.08-0.16,0.16-0.23,0.26c-0.06,0.1-0.11,0.2-0.15,0.31V3.6h-0.25V0h0.25v1.67c0.1-0.2,0.25-0.37,0.44-0.49
	C93.7,1.06,93.91,1,94.13,1c0.13,0,0.25,0.03,0.37,0.08c0.1,0.05,0.19,0.13,0.26,0.23c0.07,0.11,0.12,0.23,0.15,0.36
	c0.05,0.17,0.08,0.34,0.09,0.52V3.64z M97.26,3.46l1.84-2.22h-1.81V1.05h2.09v0.14l-1.84,2.22h1.83V3.6h-2.11V3.46z M101.22,3.69
	c-0.18,0.01-0.35-0.03-0.51-0.11c-0.15-0.07-0.29-0.17-0.41-0.29c-0.11-0.13-0.2-0.27-0.27-0.43c-0.06-0.17-0.1-0.35-0.1-0.53
	c0-0.17,0.04-0.35,0.1-0.51c0.07-0.16,0.16-0.3,0.27-0.43c0.11-0.12,0.25-0.21,0.4-0.28c0.16-0.07,0.33-0.11,0.5-0.11
	c0.18,0,0.35,0.04,0.51,0.11c0.15,0.07,0.29,0.17,0.4,0.29c0.12,0.12,0.21,0.26,0.27,0.42c0.06,0.16,0.09,0.34,0.09,0.51v0.11h-2.28
	c0.01,0.15,0.05,0.29,0.11,0.42c0.05,0.12,0.13,0.24,0.23,0.33c0.09,0.1,0.19,0.17,0.31,0.22c0.12,0.06,0.26,0.08,0.39,0.08
	c0.09,0.01,0.17,0.01,0.26,0c0.09-0.02,0.17-0.05,0.24-0.1c0.08-0.04,0.15-0.09,0.2-0.16c0.06-0.06,0.11-0.12,0.14-0.2l0.22,0.06
	c-0.04,0.1-0.09,0.18-0.16,0.26c-0.07,0.08-0.16,0.15-0.25,0.2c-0.1,0.06-0.2,0.1-0.31,0.13C101.45,3.7,101.34,3.71,101.22,3.69z
	 M102.22,2.24c-0.01-0.14-0.04-0.28-0.1-0.41c-0.05-0.12-0.13-0.23-0.22-0.33c-0.09-0.09-0.2-0.16-0.32-0.22
	c-0.12-0.05-0.25-0.07-0.38-0.07c-0.13,0-0.27,0.02-0.39,0.07c-0.11,0.06-0.22,0.13-0.31,0.22c-0.1,0.09-0.17,0.2-0.22,0.33
	c-0.06,0.13-0.09,0.27-0.1,0.41H102.22z M104.5,1.27c-0.22,0.01-0.43,0.08-0.61,0.21c-0.18,0.13-0.31,0.32-0.37,0.54v1.62h-0.25
	V1.05h0.24v0.64c0.08-0.18,0.2-0.33,0.36-0.45c0.14-0.11,0.3-0.18,0.48-0.2h0.15V1.27z M106.18,3.69c-0.17,0.01-0.35-0.03-0.5-0.11
	c-0.16-0.07-0.3-0.17-0.41-0.29c-0.12-0.12-0.2-0.27-0.26-0.43c-0.06-0.16-0.1-0.34-0.1-0.51c0-0.18,0.04-0.35,0.1-0.52
	c0.07-0.16,0.16-0.3,0.27-0.43c0.11-0.12,0.25-0.22,0.4-0.29c0.32-0.15,0.68-0.15,1,0c0.15,0.07,0.29,0.17,0.4,0.29
	c0.12,0.12,0.21,0.27,0.27,0.43c0.07,0.16,0.1,0.34,0.1,0.52c0,0.18-0.03,0.35-0.1,0.51c-0.06,0.16-0.15,0.31-0.27,0.43
	C106.85,3.54,106.52,3.69,106.18,3.69z M105.18,2.36c0,0.29,0.1,0.57,0.3,0.78c0.09,0.1,0.2,0.18,0.32,0.24
	c0.12,0.06,0.26,0.09,0.4,0.09c0.14,0,0.27-0.03,0.39-0.09c0.12-0.06,0.23-0.14,0.33-0.24c0.09-0.11,0.16-0.23,0.21-0.36
	c0.06-0.14,0.09-0.29,0.08-0.44c0-0.15-0.02-0.29-0.08-0.43c-0.05-0.13-0.12-0.25-0.21-0.35c-0.1-0.1-0.21-0.18-0.33-0.24
	c-0.25-0.12-0.53-0.12-0.78,0c-0.12,0.06-0.23,0.14-0.32,0.24c-0.1,0.1-0.17,0.23-0.22,0.36c-0.07,0.14-0.1,0.29-0.11,0.44H105.18z
	 M109.85,0h0.25v3.13c0,0.09,0.03,0.17,0.09,0.23c0.06,0.05,0.14,0.08,0.22,0.08h0.14h0.14v0.2c-0.07,0.03-0.14,0.05-0.21,0.06
	h-0.22c-0.12,0.01-0.24-0.04-0.33-0.13c-0.09-0.09-0.14-0.21-0.13-0.34L109.85,0z M112,3.69c-0.34,0.01-0.65-0.18-0.79-0.48
	c-0.04-0.1-0.06-0.21-0.06-0.32c-0.01-0.11,0.02-0.22,0.08-0.31c0.05-0.1,0.13-0.18,0.22-0.24c0.1-0.07,0.22-0.13,0.34-0.16
	c0.14-0.04,0.29-0.06,0.44-0.06c0.14-0.01,0.28-0.01,0.42,0c0.13,0.02,0.26,0.05,0.38,0.1V1.96c0.01-0.21-0.06-0.42-0.21-0.58
	c-0.15-0.15-0.36-0.23-0.57-0.22c-0.14,0-0.27,0.03-0.4,0.08c-0.15,0.06-0.3,0.14-0.43,0.23l-0.09-0.17c0.27-0.2,0.6-0.32,0.94-0.34
	c0.27-0.02,0.54,0.08,0.74,0.27c0.19,0.2,0.29,0.47,0.27,0.75v1.31c0,0.09,0,0.13,0.11,0.13v0.22h-0.1c-0.06,0-0.12-0.02-0.16-0.07
	c-0.04-0.04-0.07-0.1-0.07-0.16V3.19c-0.12,0.15-0.28,0.28-0.46,0.36C112.41,3.64,112.21,3.69,112,3.69z M112,3.49
	c0.18,0.01,0.36-0.03,0.53-0.11c0.15-0.06,0.28-0.16,0.37-0.29c0.05-0.05,0.08-0.13,0.08-0.2V2.43c-0.12-0.04-0.24-0.08-0.37-0.1
	c-0.14-0.01-0.27-0.01-0.41,0c-0.12-0.02-0.23-0.02-0.35,0c-0.1,0.02-0.19,0.06-0.27,0.11c-0.15,0.09-0.24,0.25-0.24,0.42
	c-0.02,0.08-0.02,0.17,0,0.25c0.03,0.07,0.08,0.14,0.14,0.19c0.13,0.12,0.3,0.18,0.47,0.18L112,3.49z M115.44,3.52h-0.07l-0.12,0.06
	h-0.16c-0.07,0.01-0.13,0.01-0.2,0c-0.06,0.01-0.13,0.01-0.19,0c-0.06-0.02-0.12-0.05-0.17-0.09c-0.04-0.04-0.08-0.09-0.11-0.14
	c-0.01-0.07-0.01-0.13,0-0.2v-2H114v-0.2h0.37V0.19h0.24v0.89h0.61v0.2h-0.61v1.91c0,0.08,0.03,0.16,0.1,0.21
	c0.07,0.05,0.15,0.08,0.23,0.08c0.09,0,0.19-0.02,0.27-0.06l0.13-0.06L115.44,3.52z M117.16,3.69c-0.17,0.01-0.35-0.03-0.5-0.11
	c-0.16-0.07-0.29-0.17-0.41-0.29c-0.12-0.12-0.21-0.27-0.27-0.43c-0.07-0.17-0.1-0.35-0.1-0.53c0-0.18,0.03-0.35,0.1-0.51
	c0.06-0.16,0.15-0.31,0.27-0.43c0.11-0.12,0.25-0.22,0.4-0.28c0.16-0.07,0.33-0.11,0.5-0.11c0.18,0,0.35,0.04,0.51,0.11
	c0.15,0.07,0.29,0.17,0.4,0.29c0.12,0.12,0.21,0.26,0.27,0.42c0.06,0.16,0.09,0.34,0.09,0.51v0.11h-2.28
	c0.01,0.15,0.05,0.29,0.11,0.42c0.05,0.12,0.13,0.23,0.22,0.33c0.09,0.1,0.2,0.17,0.32,0.22c0.21,0.08,0.44,0.08,0.65,0
	c0.09-0.02,0.17-0.05,0.24-0.1c0.08-0.04,0.15-0.09,0.2-0.16c0.06-0.06,0.11-0.13,0.14-0.2l0.22,0.06c-0.04,0.1-0.09,0.18-0.16,0.26
	c-0.07,0.08-0.16,0.15-0.25,0.2c-0.1,0.06-0.21,0.1-0.32,0.13C117.4,3.65,117.28,3.68,117.16,3.69z M118.16,2.24
	c-0.01-0.14-0.04-0.28-0.1-0.41c-0.05-0.12-0.13-0.23-0.22-0.33c-0.1-0.09-0.2-0.16-0.32-0.22c-0.12-0.05-0.26-0.07-0.39-0.07
	c-0.13,0-0.26,0.02-0.38,0.07c-0.12,0.06-0.23,0.13-0.32,0.22c-0.09,0.1-0.17,0.21-0.22,0.33c-0.05,0.13-0.08,0.27-0.09,0.41H118.16
	z M119.1,1.05l0.83,1.07v0.07V2.12l0.84-1.07h0.28l-1,1.3l1,1.29h-0.27L120,2.57V2.51v0.06l-0.83,1.07h-0.27l1-1.29l-1-1.3H119.1z
	 M124.61,1.27c-0.22,0.01-0.43,0.08-0.61,0.21c-0.18,0.13-0.31,0.32-0.37,0.54v1.62h-0.25V1.05h0.24v0.64
	c0.08-0.18,0.2-0.33,0.36-0.45c0.13-0.11,0.3-0.18,0.47-0.2h0.16V1.27z M126.14,3.69c-0.56,0-0.83-0.38-0.83-1.15V1.05h0.25v1.46
	c0,0.64,0.22,1,0.65,1c0.11,0,0.22-0.02,0.32-0.06c0.1-0.04,0.2-0.09,0.29-0.16c0.09-0.07,0.17-0.15,0.24-0.25
	c0.07-0.1,0.13-0.21,0.16-0.32V1.05h0.25v2.24c0,0.09,0,0.13,0.1,0.13v0.22h-0.07c-0.07,0-0.13-0.02-0.18-0.07
	c-0.05-0.04-0.08-0.1-0.08-0.16V3.02c-0.1,0.2-0.26,0.37-0.46,0.49C126.59,3.62,126.37,3.69,126.14,3.69z M129.72,3.69
	c-0.2,0-0.4-0.05-0.57-0.16c-0.17-0.1-0.31-0.24-0.41-0.41v0.52h-0.23V0h0.25v1.61c0.12-0.18,0.26-0.32,0.44-0.44
	c0.17-0.12,0.37-0.17,0.58-0.17c0.17,0,0.35,0.04,0.5,0.12c0.14,0.08,0.27,0.18,0.37,0.31c0.1,0.13,0.18,0.27,0.23,0.43
	c0.06,0.16,0.09,0.32,0.09,0.49c0,0.18-0.04,0.35-0.1,0.52c-0.06,0.16-0.15,0.3-0.26,0.42c-0.11,0.12-0.24,0.22-0.39,0.29
	C130.06,3.65,129.89,3.69,129.72,3.69z M129.67,3.47c0.15,0,0.29-0.03,0.42-0.1c0.13-0.06,0.24-0.14,0.33-0.25
	c0.09-0.11,0.16-0.23,0.21-0.36c0.06-0.13,0.08-0.27,0.08-0.41c0-0.14-0.02-0.29-0.07-0.42c-0.05-0.13-0.12-0.25-0.2-0.36
	c-0.09-0.1-0.2-0.19-0.32-0.25c-0.12-0.06-0.26-0.09-0.4-0.09c-0.11,0-0.21,0.02-0.31,0.05c-0.1,0.04-0.19,0.09-0.27,0.16
	c-0.08,0.06-0.16,0.14-0.22,0.22c-0.06,0.08-0.12,0.17-0.16,0.26v0.85c0.01,0.1,0.05,0.2,0.11,0.28c0.06,0.08,0.14,0.15,0.23,0.21
	c0.08,0.07,0.18,0.12,0.28,0.15C129.47,3.45,129.57,3.47,129.67,3.47z M133,3.69c-0.2,0.01-0.4-0.05-0.57-0.16
	c-0.17-0.1-0.32-0.24-0.42-0.41v0.52h-0.23V0h0.25v1.61c0.12-0.17,0.27-0.32,0.44-0.44c0.17-0.12,0.37-0.17,0.58-0.17
	c0.17,0,0.35,0.04,0.5,0.12c0.14,0.08,0.27,0.18,0.37,0.31c0.1,0.13,0.18,0.28,0.24,0.43c0.05,0.16,0.08,0.32,0.08,0.49
	c0,0.18-0.03,0.35-0.09,0.52c-0.07,0.15-0.16,0.3-0.27,0.42c-0.11,0.12-0.24,0.22-0.39,0.29C133.34,3.65,133.17,3.69,133,3.69z
	 M132.95,3.47c0.15,0,0.29-0.03,0.42-0.1c0.12-0.06,0.23-0.15,0.32-0.25c0.1-0.1,0.17-0.23,0.22-0.36c0.05-0.13,0.08-0.27,0.08-0.41
	c0-0.14-0.03-0.29-0.08-0.42c-0.04-0.13-0.11-0.25-0.2-0.36c-0.09-0.1-0.2-0.19-0.32-0.25c-0.12-0.07-0.25-0.12-0.39-0.13
	c-0.11,0-0.21,0.02-0.31,0.05c-0.09,0.04-0.18,0.09-0.26,0.16c-0.09,0.06-0.16,0.13-0.22,0.22c-0.07,0.08-0.12,0.17-0.17,0.26v0.85
	c0.01,0.1,0.05,0.2,0.11,0.28c0.07,0.08,0.14,0.15,0.23,0.21c0.09,0.07,0.18,0.12,0.29,0.15c0.1,0.06,0.21,0.09,0.33,0.1H132.95z
	 M136.22,3.69c-0.18,0-0.35-0.03-0.51-0.11c-0.15-0.07-0.29-0.17-0.4-0.29c-0.12-0.12-0.21-0.27-0.27-0.43
	c-0.07-0.17-0.1-0.35-0.1-0.53c0-0.18,0.03-0.35,0.1-0.51c0.06-0.16,0.15-0.3,0.26-0.43c0.12-0.12,0.25-0.21,0.4-0.28
	c0.16-0.07,0.33-0.11,0.51-0.11c0.17,0,0.34,0.04,0.5,0.11c0.16,0.07,0.29,0.17,0.41,0.29c0.11,0.12,0.2,0.26,0.26,0.42
	c0.07,0.16,0.1,0.33,0.1,0.51V2.4l0,0h-2.28c0.01,0.14,0.04,0.29,0.1,0.42c0.06,0.12,0.13,0.23,0.23,0.33
	c0.09,0.1,0.2,0.17,0.32,0.22c0.12,0.06,0.25,0.08,0.38,0.08c0.09,0.01,0.18,0.01,0.27,0c0.08-0.02,0.17-0.05,0.24-0.1
	c0.08-0.04,0.14-0.1,0.2-0.16c0.06-0.06,0.1-0.12,0.13-0.2l0.22,0.06c-0.03,0.1-0.09,0.19-0.16,0.26c-0.07,0.08-0.15,0.15-0.25,0.2
	c-0.1,0.06-0.2,0.1-0.31,0.13C136.46,3.68,136.34,3.69,136.22,3.69z M137.22,2.24c-0.01-0.14-0.04-0.28-0.1-0.41
	c-0.06-0.12-0.13-0.23-0.23-0.33c-0.09-0.09-0.2-0.16-0.31-0.22c-0.12-0.05-0.26-0.07-0.39-0.07c-0.13,0-0.26,0.02-0.38,0.07
	c-0.12,0.06-0.23,0.13-0.32,0.22c-0.09,0.1-0.17,0.21-0.22,0.33c-0.05,0.13-0.09,0.27-0.1,0.41H137.22z M139.5,1.27
	c-0.22,0.01-0.43,0.08-0.61,0.21c-0.18,0.13-0.3,0.32-0.36,0.54v1.62h-0.25V1.05h0.24v0.64c0.08-0.18,0.2-0.33,0.35-0.45
	c0.14-0.11,0.3-0.18,0.48-0.2h0.15V1.27z M139.94,3.64V3.19h0.22v0.42L139.94,3.64z"/>
<path class="st2" d="M0.2-27.63v-10.64h0.3v10.34h6.69v0.3L0.2-27.63z M12.32-38.27h0.27l4.63,10.64h-0.33l-1.66-3.8H9.66L8-27.63
	H7.67L12.32-38.27z M15.09-31.73l-2.64-6.08L9.78-31.7L15.09-31.73z M25.18-37.97H21.1v10.34h-0.29v-10.34h-4.08v-0.3h8.45V-37.97z
	 M33.93-27.93v0.3h-7v-10.64h6.85v0.3h-6.54v4.75H33v0.3h-5.76v5L33.93-27.93z M35.26-38.27l4.11,5.16l4.11-5.16h0.37l-4.3,5.4
	l4.18,5.24h-0.37l-4-5l-4,5H35l4.19-5.24l-4.31-5.4H35.26z M44.65-31.54v-0.27h4.24v0.3L44.65-31.54z M54.62-38.27h0.27l4.64,10.64
	H59.2l-1.67-3.8H52l-1.67,3.8H50L54.62-38.27z M57.4-31.73l-2.64-6.08l-2.67,6.11L57.4-31.73z M61.3-27.63v-10.64h0.3v10.34h6.68
	v0.3L61.3-27.63z M70-27.63v-10.64h0.3v10.34H77v0.3L70-27.63z M85.65-27.93v0.3h-7v-10.64h6.86v0.3H79v4.75h5.75v0.3H79v5
	L85.65-27.93z M87.91-27.63v-10.64h4.34c0.42,0,0.83,0.09,1.2,0.27c0.38,0.17,0.72,0.43,1,0.74c0.26,0.29,0.47,0.63,0.62,1
	c0.15,0.38,0.23,0.78,0.23,1.18c0,0.4-0.07,0.81-0.2,1.19c-0.12,0.36-0.31,0.7-0.55,1c-0.24,0.29-0.53,0.53-0.86,0.72
	c-0.34,0.18-0.72,0.29-1.11,0.32l2.7,4.18h-0.36l-2.75-4.14h-4v4.18H87.91z M88.21-32.11h4.14c0.38,0.01,0.75-0.08,1.08-0.25
	c0.32-0.17,0.59-0.39,0.82-0.67c0.23-0.28,0.4-0.6,0.52-0.94c0.14-0.34,0.21-0.71,0.23-1.08c0-0.37-0.07-0.74-0.21-1.09
	c-0.13-0.34-0.33-0.66-0.58-0.93c-0.24-0.27-0.54-0.49-0.86-0.66c-0.31-0.15-0.65-0.23-1-0.24h-4L88.21-32.11z M105.64-29.44
	c-0.93,1.17-2.34,1.87-3.84,1.89c-0.69,0-1.38-0.16-2-0.47c-0.61-0.31-1.15-0.73-1.59-1.24c-0.44-0.51-0.77-1.1-1-1.73
	c-0.25-0.64-0.37-1.32-0.37-2c0.01-1.37,0.48-2.69,1.35-3.74c0.42-0.5,0.94-0.91,1.53-1.21c0.62-0.31,1.31-0.46,2-0.45
	c0.5,0,0.99,0.05,1.47,0.17c0.4,0.11,0.78,0.27,1.14,0.48c0.32,0.2,0.61,0.45,0.85,0.74c0.24,0.29,0.44,0.61,0.61,0.94l-0.29,0.09
	c-0.35-0.69-0.89-1.25-1.57-1.62c-0.69-0.34-1.44-0.51-2.21-0.5c-0.66-0.01-1.3,0.14-1.89,0.44c-0.55,0.29-1.04,0.69-1.43,1.17
	c-0.44,0.49-0.78,1.05-1.01,1.67c-0.21,0.6-0.31,1.23-0.31,1.86c0,0.66,0.12,1.31,0.36,1.93c0.24,0.59,0.57,1.14,1,1.62
	c0.42,0.47,0.93,0.85,1.5,1.13c0.57,0.28,1.2,0.42,1.84,0.42c0.7,0,1.38-0.16,2-0.48c0.71-0.37,1.34-0.87,1.86-1.48v-2.58h-2.5v-0.3
	h2.8v5.06h-0.3V-29.44z M107.1-38.27l4.1,6.17l4.13-6.17h0.34l-4.32,6.52v4.12h-0.3v-4.18l-4.3-6.49L107.1-38.27z M120.91-27.63
	v-10.64h6.85v0.3h-6.55v4.74h5.59v0.3h-5.59v5.3H120.91z M129.93-27.63v-10.64h4.34c0.42,0,0.83,0.09,1.2,0.27
	c0.36,0.18,0.69,0.43,0.95,0.74c0.26,0.29,0.47,0.63,0.62,1c0.15,0.38,0.23,0.78,0.23,1.18c0,0.4-0.07,0.81-0.2,1.19
	c-0.12,0.36-0.31,0.7-0.55,1c-0.24,0.29-0.53,0.53-0.86,0.72c-0.34,0.18-0.72,0.29-1.11,0.32l2.7,4.18h-0.36l-2.7-4.14h-4v4.18
	H129.93z M130.23-32.11h4.14c0.38,0.01,0.75-0.08,1.08-0.25c0.32-0.17,0.59-0.39,0.82-0.67c0.23-0.28,0.4-0.6,0.52-0.94
	c0.12-0.35,0.18-0.71,0.18-1.08c0-0.37-0.07-0.74-0.21-1.09c-0.13-0.34-0.33-0.66-0.58-0.93c-0.24-0.27-0.54-0.49-0.86-0.66
	c-0.31-0.15-0.65-0.23-1-0.24h-4L130.23-32.11z M146.55-27.93v0.3h-7v-10.64h6.86v0.3h-6.56v4.75h5.75v0.3h-5.75v5L146.55-27.93z
	 M155.8-27.93v0.3h-7v-10.64h6.85v0.3h-6.55v4.75h5.74v0.3h-5.74v5L155.8-27.93z M160.81-11.91h-161v0.2h161V-11.91z"/>
</svg>
