<?xml version="1.0" encoding="utf-8"?>
<!-- Generator: Adobe Illustrator 22.0.0, SVG Export Plug-In . SVG Version: 6.00 Build 0)  -->
<svg version="1.1" id="Layer_1" xmlns="http://www.w3.org/2000/svg" xmlns:xlink="http://www.w3.org/1999/xlink" x="0px" y="0px"
	 viewBox="0 0 127.41 14.76" style="enable-background:new 0 0 127.41 14.76;" xml:space="preserve">
<style type="text/css">
	.st0{display:none;fill:#C62026;}
	.st1{fill:#010101;}
	.st2{display:none;fill:#010101;}
</style>
<path class="st0" d="M-0.57-58.81l4.49,10.27l4.47-10.27h0.33l-4.6,10.65H3.75l-4.63-10.65H-0.57z M10.49-48.16v-10.65h0.3v10.65
	H10.49z M13.31-48.16v-1h0.3v1H13.31z"/>
<path class="st1" d="M1.5,0.1h0.22l1.5,3.54H2.95L2.46,2.47h-1.7L0.27,3.64H0L1.5,0.1z M2.39,2.26L1.61,0.41L0.82,2.26H2.39z
	 M6.05,3.64H5.8V2.19c0.02-0.25-0.03-0.5-0.14-0.73C5.57,1.29,5.4,1.19,5.21,1.19c-0.11,0-0.22,0.02-0.33,0.06
	c-0.11,0.04-0.21,0.1-0.3,0.17C4.49,1.49,4.41,1.58,4.34,1.68c-0.07,0.1-0.12,0.2-0.16,0.31V3.6H3.93V1.05h0.24v0.62
	c0.05-0.1,0.12-0.19,0.19-0.28c0.08-0.08,0.17-0.14,0.27-0.2c0.1-0.05,0.2-0.1,0.31-0.13c0.11-0.02,0.23-0.02,0.34,0
	c0.24-0.02,0.47,0.09,0.6,0.3c0.13,0.26,0.19,0.56,0.17,0.85L6.05,3.64z M9.69,3.69c-0.18,0-0.35-0.03-0.51-0.11
	c-0.15-0.07-0.29-0.17-0.4-0.29C8.66,3.17,8.57,3.02,8.51,2.86c-0.07-0.17-0.1-0.35-0.1-0.53c0-0.18,0.03-0.35,0.1-0.51
	c0.06-0.16,0.15-0.3,0.26-0.43c0.12-0.12,0.25-0.21,0.4-0.28C9.33,1.04,9.5,1,9.68,1c0.17,0,0.34,0.04,0.5,0.11
	c0.16,0.07,0.29,0.17,0.41,0.29c0.11,0.12,0.2,0.26,0.26,0.42c0.07,0.16,0.1,0.33,0.1,0.51V2.4l0,0H8.67
	c0.01,0.14,0.04,0.29,0.1,0.42C8.83,2.94,8.9,3.05,9,3.15c0.09,0.1,0.2,0.17,0.32,0.22C9.44,3.43,9.57,3.45,9.7,3.45
	c0.09,0.01,0.18,0.01,0.27,0c0.08-0.02,0.17-0.05,0.24-0.1c0.08-0.04,0.14-0.1,0.2-0.16c0.06-0.06,0.1-0.12,0.13-0.2l0.22,0.06
	c-0.03,0.1-0.09,0.19-0.16,0.26c-0.07,0.08-0.15,0.15-0.25,0.2c-0.1,0.06-0.2,0.1-0.31,0.13C9.93,3.68,9.81,3.69,9.69,3.69z
	 M10.69,2.24c-0.01-0.14-0.04-0.28-0.1-0.41c-0.06-0.12-0.13-0.23-0.23-0.33c-0.09-0.09-0.2-0.16-0.31-0.22
	C9.93,1.23,9.79,1.21,9.66,1.21c-0.13,0-0.26,0.02-0.38,0.07C9.16,1.34,9.05,1.41,8.96,1.5C8.87,1.6,8.79,1.71,8.74,1.83
	C8.69,1.96,8.65,2.1,8.64,2.24H10.69z M12.39,3.69c-0.12,0-0.23-0.02-0.34-0.06c-0.1-0.04-0.19-0.1-0.27-0.17
	c-0.08-0.07-0.14-0.15-0.18-0.25c-0.05-0.1-0.07-0.21-0.07-0.32c0-0.11,0.03-0.22,0.08-0.31c0.05-0.1,0.13-0.18,0.22-0.24
	c0.11-0.07,0.23-0.13,0.35-0.16c0.14-0.04,0.28-0.06,0.43-0.06c0.14-0.01,0.29-0.01,0.43,0c0.13,0.02,0.26,0.05,0.38,0.1V1.96
	c0.01-0.21-0.06-0.42-0.21-0.58c-0.15-0.15-0.36-0.23-0.57-0.22c-0.14,0-0.27,0.03-0.4,0.08c-0.15,0.06-0.3,0.13-0.43,0.23
	l-0.1-0.17c0.28-0.2,0.61-0.32,0.95-0.34c0.27-0.02,0.54,0.08,0.74,0.27c0.19,0.2,0.29,0.47,0.27,0.75v1.31c0,0.09,0,0.13,0.11,0.13
	v0.22h-0.1c-0.06,0-0.12-0.02-0.16-0.07c-0.04-0.04-0.07-0.1-0.07-0.16V3.19c-0.12,0.15-0.28,0.28-0.46,0.36
	C12.8,3.64,12.6,3.68,12.39,3.69z M12.39,3.49c0.19,0.01,0.37-0.03,0.54-0.11c0.15-0.06,0.27-0.16,0.37-0.29
	c0.05-0.06,0.08-0.13,0.08-0.2V2.43c-0.12-0.04-0.25-0.08-0.38-0.1c-0.13-0.01-0.27-0.01-0.4,0c-0.12-0.02-0.23-0.02-0.35,0
	c-0.1,0.02-0.19,0.06-0.28,0.11c-0.07,0.05-0.14,0.11-0.18,0.19c-0.04,0.07-0.06,0.15-0.06,0.23c-0.02,0.08-0.02,0.17,0,0.25
	c0.03,0.07,0.08,0.14,0.14,0.19c0.13,0.12,0.3,0.18,0.47,0.18L12.39,3.49z M15.5,3.69c-0.19,0-0.39-0.03-0.57-0.1
	c-0.18-0.06-0.35-0.16-0.48-0.3l0.12-0.17c0.13,0.12,0.28,0.21,0.44,0.28c0.16,0.06,0.32,0.09,0.49,0.09
	c0.19,0.01,0.38-0.04,0.55-0.14c0.13-0.09,0.2-0.24,0.2-0.4c0.01-0.07-0.01-0.14-0.05-0.2c-0.04-0.06-0.1-0.11-0.16-0.14
	c-0.08-0.04-0.17-0.08-0.26-0.1l-0.36-0.1c-0.13-0.02-0.26-0.06-0.38-0.1c-0.09-0.02-0.18-0.06-0.26-0.12
	c-0.07-0.04-0.13-0.1-0.16-0.17c-0.04-0.08-0.06-0.16-0.05-0.25c0-0.12,0.02-0.23,0.07-0.34c0.05-0.1,0.12-0.18,0.21-0.24
	c0.09-0.06,0.19-0.11,0.3-0.14c0.12-0.02,0.25-0.02,0.37,0c0.18,0,0.37,0.03,0.54,0.1c0.14,0.06,0.26,0.15,0.36,0.27l-0.14,0.13
	c-0.09-0.1-0.2-0.18-0.33-0.22c-0.14-0.05-0.3-0.08-0.45-0.08h-0.27c-0.08,0.02-0.15,0.05-0.22,0.1c-0.06,0.04-0.11,0.1-0.15,0.16
	c-0.05,0.14-0.05,0.29,0,0.43c0.03,0.05,0.07,0.09,0.12,0.12l0.21,0.09l0.31,0.08l0.44,0.11c0.11,0.04,0.22,0.08,0.32,0.14
	c0.08,0.05,0.14,0.11,0.19,0.19c0.05,0.09,0.07,0.18,0.07,0.28c0.01,0.22-0.1,0.43-0.28,0.55C16.02,3.65,15.76,3.71,15.5,3.69z
	 M17.45,4.52h0.17h0.08c0,0,0,0,0.05-0.05c0.03-0.03,0.05-0.07,0.07-0.11l0.12-0.25l0.19-0.45l-1.16-2.59h0.26l1,2.35l1-2.35h0.24
	l-1.42,3.41c-0.04,0.09-0.1,0.17-0.18,0.22c-0.1,0.05-0.22,0.08-0.33,0.07h-0.09V4.52z M20.12,2.4V2.19h1.4v0.23L20.12,2.4z
	 M23.58,3.69c-0.17,0.01-0.35-0.03-0.5-0.11c-0.16-0.07-0.3-0.17-0.41-0.29c-0.12-0.12-0.2-0.27-0.26-0.43
	c-0.06-0.16-0.09-0.34-0.09-0.51c0-0.18,0.03-0.35,0.09-0.52c0.07-0.16,0.16-0.3,0.27-0.43c0.11-0.12,0.25-0.22,0.4-0.29
	C23.24,1.04,23.41,1,23.58,1c0.17,0,0.34,0.04,0.5,0.11c0.15,0.07,0.29,0.17,0.4,0.29c0.12,0.12,0.21,0.27,0.27,0.43
	c0.07,0.16,0.1,0.34,0.1,0.52c0,0.18-0.03,0.35-0.1,0.51c-0.06,0.16-0.14,0.31-0.26,0.43c-0.11,0.12-0.25,0.22-0.41,0.29
	C23.93,3.66,23.75,3.7,23.58,3.69z M22.58,2.36c0,0.29,0.1,0.57,0.3,0.78c0.09,0.1,0.2,0.18,0.32,0.24c0.12,0.06,0.26,0.09,0.4,0.09
	c0.14,0,0.27-0.03,0.39-0.09c0.12-0.06,0.24-0.14,0.33-0.24c0.09-0.11,0.16-0.23,0.22-0.36c0.05-0.14,0.08-0.29,0.08-0.44
	c0-0.15-0.03-0.29-0.08-0.43c-0.06-0.13-0.13-0.25-0.22-0.35c-0.09-0.1-0.21-0.18-0.33-0.24c-0.25-0.12-0.53-0.12-0.78,0
	c-0.12,0.06-0.23,0.14-0.32,0.24c-0.1,0.1-0.17,0.23-0.22,0.36c-0.07,0.14-0.1,0.29-0.11,0.44H22.58z M26.97,3.69
	c-0.21,0.01-0.42-0.06-0.6-0.18c-0.17-0.11-0.31-0.26-0.42-0.43V4.7H25.7V1.05h0.23v0.52c0.11-0.17,0.25-0.31,0.42-0.41
	C26.52,1.05,26.71,1,26.91,1c0.34,0.01,0.67,0.16,0.89,0.42c0.11,0.13,0.2,0.27,0.26,0.43c0.11,0.32,0.11,0.68,0,1
	c-0.05,0.16-0.13,0.3-0.24,0.43c-0.1,0.12-0.23,0.22-0.38,0.29C27.3,3.65,27.13,3.69,26.97,3.69z M26.91,3.47
	c0.14,0,0.28-0.03,0.41-0.1c0.12-0.06,0.23-0.15,0.31-0.25c0.09-0.1,0.16-0.23,0.2-0.36c0.05-0.13,0.07-0.27,0.07-0.41
	c0-0.15-0.03-0.29-0.08-0.43c-0.05-0.13-0.13-0.25-0.22-0.35c-0.09-0.1-0.21-0.19-0.33-0.25c-0.22-0.09-0.47-0.09-0.69,0
	c-0.1,0.04-0.2,0.09-0.29,0.16c-0.09,0.06-0.17,0.13-0.23,0.22c-0.06,0.08-0.1,0.17-0.11,0.26v0.86c0.04,0.1,0.1,0.19,0.16,0.27
	c0.07,0.08,0.15,0.15,0.23,0.22c0.08,0.06,0.17,0.11,0.27,0.14C26.71,3.48,26.81,3.48,26.91,3.47z M30.12,3.69
	c-0.18,0.01-0.35-0.03-0.51-0.11c-0.16-0.07-0.29-0.17-0.41-0.29c-0.12-0.12-0.21-0.27-0.27-0.43c-0.06-0.17-0.1-0.35-0.1-0.53
	c0-0.17,0.04-0.35,0.1-0.51c0.06-0.16,0.15-0.31,0.27-0.43c0.11-0.12,0.25-0.22,0.4-0.28C29.76,1.04,29.93,1,30.1,1
	c0.18,0,0.35,0.04,0.51,0.11c0.15,0.07,0.29,0.17,0.4,0.29c0.12,0.12,0.21,0.26,0.27,0.42c0.06,0.16,0.09,0.34,0.09,0.51v0.11h-2.25
	c0.01,0.15,0.05,0.29,0.11,0.42c0.05,0.12,0.13,0.23,0.22,0.33c0.09,0.09,0.2,0.17,0.32,0.22c0.12,0.06,0.26,0.08,0.39,0.08
	c0.09,0.01,0.17,0.01,0.26,0c0.09-0.02,0.17-0.05,0.24-0.1c0.08-0.04,0.15-0.09,0.2-0.16c0.06-0.06,0.11-0.13,0.14-0.2l0.22,0.06
	c-0.04,0.1-0.09,0.18-0.16,0.26c-0.07,0.08-0.16,0.15-0.25,0.2c-0.1,0.06-0.21,0.1-0.32,0.13C30.37,3.71,30.24,3.71,30.12,3.69z
	 M31.12,2.24c-0.01-0.14-0.04-0.28-0.1-0.41C30.97,1.71,30.89,1.6,30.8,1.5c-0.1-0.09-0.2-0.16-0.32-0.22
	c-0.11-0.05-0.24-0.08-0.36-0.09c-0.13,0-0.26,0.02-0.38,0.07c-0.12,0.06-0.22,0.13-0.32,0.22c-0.09,0.1-0.17,0.21-0.22,0.33
	c-0.05,0.13-0.08,0.27-0.09,0.41L31.12,2.24z M34.28,3.64h-0.25V2.19c0.02-0.25-0.03-0.5-0.14-0.73c-0.1-0.15-0.27-0.24-0.45-0.23
	c-0.11,0-0.22,0.02-0.33,0.06c-0.11,0.04-0.21,0.1-0.3,0.17c-0.09,0.07-0.18,0.16-0.24,0.26c-0.07,0.09-0.13,0.2-0.16,0.31v1.61
	h-0.29V1.05h0.24v0.62c0.05-0.1,0.11-0.2,0.19-0.28c0.08-0.08,0.17-0.15,0.27-0.21c0.1-0.06,0.2-0.1,0.31-0.13
	c0.11-0.02,0.23-0.02,0.34,0c0.24-0.02,0.47,0.09,0.6,0.3c0.13,0.26,0.18,0.56,0.17,0.85L34.28,3.64z M38.12,3.69
	c-0.21,0-0.42-0.06-0.59-0.18c-0.17-0.11-0.32-0.25-0.42-0.43V4.7h-0.29V1.05h0.23v0.52c0.1-0.17,0.25-0.31,0.42-0.41
	C37.64,1.05,37.83,1,38.03,1c0.17,0,0.35,0.04,0.5,0.12c0.15,0.07,0.28,0.17,0.39,0.3c0.11,0.13,0.2,0.27,0.26,0.43
	c0.06,0.16,0.09,0.33,0.09,0.5c0,0.17-0.03,0.35-0.08,0.51c-0.05,0.16-0.13,0.3-0.24,0.43c-0.11,0.12-0.23,0.22-0.38,0.29
	C38.43,3.65,38.28,3.69,38.12,3.69z M38.06,3.47c0.14,0,0.28-0.03,0.41-0.1c0.12-0.06,0.23-0.14,0.32-0.25
	c0.09-0.11,0.15-0.23,0.2-0.36c0.04-0.13,0.07-0.27,0.07-0.41c0-0.15-0.03-0.29-0.08-0.43c-0.06-0.13-0.13-0.25-0.22-0.35
	c-0.09-0.11-0.21-0.19-0.34-0.25c-0.12-0.06-0.26-0.09-0.4-0.09c-0.1,0-0.2,0.02-0.29,0.05c-0.1,0.04-0.19,0.09-0.28,0.16
	c-0.09,0.06-0.17,0.13-0.23,0.22c-0.06,0.07-0.1,0.16-0.11,0.26v0.86c0.04,0.1,0.09,0.19,0.16,0.27l0.22,0.22
	c0.08,0.06,0.17,0.11,0.27,0.14c0.08,0.03,0.17,0.05,0.26,0.06H38.06z M40.76,3.69c-0.12,0-0.23-0.02-0.34-0.06
	c-0.1-0.04-0.19-0.1-0.27-0.17c-0.08-0.07-0.14-0.15-0.18-0.25c-0.04-0.1-0.06-0.21-0.06-0.32c-0.01-0.11,0.02-0.22,0.08-0.31
	c0.05-0.1,0.13-0.18,0.22-0.24c0.1-0.07,0.22-0.13,0.34-0.16c0.14-0.04,0.29-0.06,0.44-0.06c0.14-0.01,0.28-0.01,0.42,0
	c0.13,0.02,0.26,0.05,0.38,0.1V1.96c0.01-0.21-0.06-0.42-0.21-0.58c-0.15-0.15-0.36-0.23-0.57-0.22c-0.14,0-0.27,0.03-0.4,0.08
	c-0.15,0.06-0.3,0.14-0.43,0.23l-0.1-0.17c0.28-0.2,0.61-0.32,0.95-0.34c0.27-0.02,0.54,0.08,0.74,0.27
	c0.19,0.2,0.29,0.47,0.27,0.75v1.31c0,0.09,0,0.13,0.11,0.13v0.22h-0.1c-0.06,0-0.12-0.02-0.16-0.07c-0.04-0.04-0.07-0.1-0.07-0.16
	V3.19c-0.12,0.15-0.28,0.28-0.46,0.36C41.17,3.64,40.97,3.69,40.76,3.69z M40.76,3.49c0.18,0.01,0.36-0.03,0.53-0.11
	c0.15-0.06,0.27-0.16,0.37-0.29c0.05-0.06,0.08-0.13,0.08-0.2V2.43c-0.12-0.04-0.24-0.08-0.37-0.1c-0.14-0.01-0.27-0.01-0.41,0
	c-0.12-0.02-0.23-0.02-0.35,0c-0.1,0.02-0.19,0.06-0.28,0.11c-0.07,0.05-0.13,0.11-0.17,0.19c-0.04,0.07-0.07,0.15-0.07,0.23
	c-0.02,0.08-0.02,0.17,0,0.25c0.04,0.07,0.08,0.14,0.14,0.19c0.06,0.06,0.14,0.1,0.22,0.13c0.11,0.06,0.24,0.08,0.36,0.06H40.76z
	 M42.87,2.33c-0.01-0.35,0.12-0.69,0.36-0.94c0.11-0.12,0.25-0.21,0.4-0.28c0.36-0.18,0.78-0.18,1.14,0
	c0.18,0.11,0.32,0.26,0.4,0.45l-0.24,0.08C44.86,1.5,44.74,1.38,44.6,1.3c-0.15-0.08-0.31-0.12-0.48-0.11
	c-0.14-0.01-0.27,0.02-0.4,0.08c-0.12,0.06-0.23,0.14-0.32,0.24c-0.1,0.1-0.17,0.22-0.22,0.35C43.13,2,43.1,2.14,43.1,2.29
	c0,0.15,0.03,0.31,0.08,0.45c0.06,0.13,0.13,0.25,0.22,0.36c0.09,0.1,0.2,0.18,0.32,0.24c0.12,0.06,0.26,0.09,0.4,0.09
	c0.09,0.01,0.18,0.01,0.27,0c0.09-0.02,0.17-0.06,0.24-0.11c0.07-0.04,0.14-0.09,0.2-0.15c0.05-0.05,0.08-0.11,0.11-0.18l0.24,0.07
	c-0.03,0.09-0.08,0.18-0.15,0.25c-0.07,0.08-0.15,0.15-0.24,0.2c-0.1,0.06-0.2,0.1-0.31,0.13c-0.12,0.02-0.23,0.02-0.35,0
	c-0.18,0-0.35-0.03-0.51-0.11c-0.15-0.07-0.29-0.17-0.4-0.29c-0.12-0.12-0.21-0.27-0.27-0.43C42.89,2.66,42.87,2.49,42.87,2.33z
	 M47.89,3.64l-1-1.39l-0.61,0.57v0.82h-0.26V0h0.25v2.54l1.57-1.49h0.28l-1.08,1l1.12,1.54L47.89,3.64z M49.48,3.69
	c-0.12,0-0.23-0.02-0.34-0.06c-0.1-0.04-0.19-0.1-0.27-0.17c-0.08-0.07-0.14-0.15-0.18-0.25c-0.05-0.1-0.07-0.21-0.07-0.32
	c0-0.11,0.03-0.22,0.08-0.31c0.06-0.09,0.13-0.18,0.22-0.24c0.11-0.07,0.23-0.13,0.35-0.16c0.14-0.04,0.28-0.06,0.43-0.06
	c0.14,0.01,0.28,0.03,0.42,0.07c0.13,0.02,0.26,0.05,0.38,0.1V2.03c0.01-0.21-0.06-0.42-0.21-0.58c-0.15-0.15-0.36-0.23-0.57-0.22
	c-0.14,0-0.27,0.03-0.4,0.08c-0.15,0.06-0.3,0.13-0.43,0.23l-0.1-0.17c0.29-0.21,0.64-0.33,1-0.34c0.27-0.02,0.54,0.08,0.74,0.27
	c0.19,0.2,0.29,0.47,0.27,0.75v1.24c0,0.09,0,0.13,0.11,0.13v0.22h-0.1c-0.06,0-0.12-0.02-0.16-0.07c-0.04-0.04-0.07-0.1-0.07-0.16
	V3.19c-0.12,0.15-0.28,0.28-0.46,0.36C49.92,3.64,49.7,3.69,49.48,3.69z M49.48,3.49c0.18,0.01,0.36-0.03,0.53-0.11
	c0.15-0.06,0.27-0.16,0.37-0.29c0.05-0.06,0.08-0.13,0.08-0.2V2.43c-0.12-0.04-0.25-0.08-0.38-0.1c-0.13-0.01-0.27-0.01-0.4,0
	c-0.12-0.02-0.23-0.02-0.35,0c-0.1,0.02-0.19,0.06-0.28,0.11c-0.07,0.05-0.13,0.12-0.18,0.19c-0.04,0.07-0.06,0.15-0.06,0.23
	c-0.02,0.08-0.02,0.17,0,0.25c0.04,0.07,0.08,0.14,0.14,0.19c0.06,0.06,0.13,0.1,0.21,0.13c0.11,0.06,0.24,0.08,0.37,0.06H49.48z
	 M52.81,3.68c-0.17,0-0.34-0.04-0.49-0.11c-0.15-0.08-0.28-0.18-0.39-0.3C51.82,3.14,51.74,3,51.68,2.84
	c-0.06-0.16-0.09-0.32-0.09-0.49c0-0.17,0.03-0.35,0.08-0.51c0.06-0.16,0.14-0.3,0.25-0.43c0.11-0.12,0.23-0.23,0.38-0.3
	C52.45,1.04,52.62,1,52.79,1c0.21-0.01,0.42,0.06,0.6,0.18c0.16,0.12,0.31,0.26,0.42,0.43V1.05h0.23v2.64
	c0.01,0.16-0.03,0.32-0.1,0.47c-0.07,0.13-0.16,0.24-0.27,0.33c-0.11,0.09-0.24,0.16-0.38,0.2c-0.15,0.04-0.31,0.06-0.47,0.06
	c-0.14,0.02-0.27,0.02-0.41,0c-0.1-0.04-0.2-0.09-0.29-0.16c-0.09-0.05-0.18-0.11-0.25-0.19c-0.07-0.07-0.13-0.15-0.18-0.24
	l0.17-0.12c0.09,0.17,0.24,0.31,0.42,0.39c0.18,0.08,0.37,0.12,0.56,0.12c0.13,0.02,0.25,0.02,0.38,0c0.11-0.04,0.22-0.1,0.31-0.17
	c0.08-0.07,0.15-0.16,0.2-0.26c0.06-0.12,0.09-0.25,0.08-0.38V3.17c-0.1,0.17-0.25,0.31-0.42,0.41C53.21,3.66,53.01,3.7,52.81,3.68z
	 M52.87,3.47c0.11,0,0.23-0.02,0.33-0.07c0.1-0.04,0.2-0.09,0.28-0.16c0.08-0.06,0.15-0.13,0.21-0.22c0.05-0.08,0.08-0.16,0.1-0.25
	V1.92c-0.04-0.1-0.09-0.2-0.16-0.28c-0.06-0.09-0.13-0.16-0.22-0.22c-0.09-0.06-0.18-0.11-0.28-0.14c-0.1-0.04-0.2-0.05-0.3-0.05
	c-0.15,0-0.29,0.03-0.42,0.1c-0.12,0.06-0.23,0.15-0.31,0.26c-0.09,0.11-0.15,0.23-0.19,0.36c-0.05,0.13-0.07,0.26-0.07,0.4
	c0,0.15,0.03,0.29,0.08,0.43c0.05,0.13,0.13,0.25,0.22,0.35c0.09,0.11,0.2,0.19,0.33,0.25C52.59,3.44,52.73,3.47,52.87,3.47z
	 M55.12,0.46V0h0.25v0.46H55.12z M55.12,3.64V1.05h0.25v2.59H55.12z M58.47,3.64h-0.25V2.19c0.02-0.25-0.03-0.5-0.14-0.73
	c-0.1-0.15-0.27-0.24-0.45-0.23c-0.11,0-0.22,0.02-0.33,0.06c-0.11,0.04-0.21,0.1-0.3,0.17c-0.09,0.07-0.17,0.16-0.24,0.26
	c-0.07,0.09-0.13,0.2-0.16,0.31v1.61h-0.25V1.05h0.24v0.62c0.05-0.1,0.12-0.19,0.19-0.28c0.08-0.08,0.17-0.15,0.27-0.21
	c0.1-0.05,0.2-0.1,0.31-0.13c0.11-0.02,0.23-0.02,0.34,0c0.24-0.02,0.47,0.09,0.6,0.3c0.13,0.26,0.18,0.56,0.17,0.85L58.47,3.64z
	 M60.52,3.68c-0.17,0-0.34-0.04-0.49-0.11c-0.15-0.08-0.28-0.18-0.39-0.3C59.53,3.14,59.45,3,59.39,2.84
	c-0.06-0.16-0.09-0.32-0.09-0.49c0-0.17,0.03-0.35,0.08-0.51c0.06-0.16,0.14-0.3,0.25-0.43c0.11-0.12,0.23-0.23,0.38-0.3
	C60.16,1.04,60.33,1,60.5,1c0.22-0.01,0.44,0.06,0.62,0.19c0.17,0.11,0.32,0.26,0.43,0.43V1.06h0.23v2.63
	c0.01,0.16-0.03,0.32-0.1,0.47c-0.07,0.13-0.16,0.24-0.27,0.33c-0.11,0.09-0.24,0.16-0.38,0.2c-0.15,0.04-0.31,0.06-0.47,0.06
	c-0.14,0.02-0.27,0.02-0.41,0c-0.11-0.03-0.21-0.07-0.31-0.12c-0.09-0.05-0.18-0.11-0.25-0.19c-0.07-0.07-0.13-0.15-0.18-0.24
	l0.17-0.12c0.09,0.17,0.24,0.31,0.41,0.39c0.18,0.08,0.37,0.12,0.57,0.12c0.13,0.02,0.25,0.02,0.38,0c0.11-0.04,0.21-0.1,0.3-0.17
	c0.09-0.07,0.16-0.16,0.21-0.26c0.06-0.12,0.09-0.25,0.08-0.38V3.21c-0.1,0.17-0.25,0.31-0.42,0.41
	C60.92,3.69,60.72,3.71,60.52,3.68z M60.58,3.47c0.11,0,0.23-0.02,0.33-0.07c0.1-0.04,0.2-0.09,0.28-0.16
	c0.08-0.06,0.15-0.14,0.21-0.22c0.05-0.08,0.08-0.16,0.1-0.25V1.92c-0.04-0.1-0.09-0.2-0.16-0.28c-0.06-0.09-0.13-0.16-0.22-0.22
	c-0.09-0.06-0.18-0.11-0.28-0.14c-0.1-0.04-0.2-0.05-0.3-0.05c-0.15,0-0.29,0.03-0.42,0.1C60,1.39,59.89,1.48,59.81,1.59
	c-0.09,0.11-0.15,0.23-0.19,0.36c-0.05,0.13-0.07,0.26-0.07,0.4c0,0.15,0.03,0.29,0.08,0.43c0.05,0.13,0.13,0.25,0.22,0.35
	c0.09,0.11,0.2,0.19,0.33,0.25C60.3,3.44,60.44,3.47,60.58,3.47z M65.47,3.52H65.4l-0.12,0.06h-0.16c-0.07,0.01-0.13,0.01-0.2,0
	c-0.06,0.01-0.13,0.01-0.19,0c-0.06-0.02-0.11-0.05-0.16-0.09c-0.05-0.04-0.09-0.08-0.11-0.14c-0.01-0.07-0.01-0.13,0-0.2v-2h-0.37
	v-0.2h0.37V0.19h0.25v0.89h0.6v0.2h-0.6v1.91c-0.01,0.08,0.03,0.16,0.1,0.21c0.06,0.05,0.14,0.08,0.22,0.08
	c0.09,0,0.19-0.02,0.27-0.06l0.13-0.06L65.47,3.52z M68.28,3.64h-0.25V2.19c0-0.64-0.22-1-0.65-1c-0.11,0-0.21,0.02-0.31,0.06
	c-0.1,0.04-0.2,0.1-0.28,0.17c-0.09,0.07-0.17,0.16-0.23,0.26c-0.07,0.09-0.12,0.2-0.15,0.31V3.6h-0.29V0h0.25v1.67
	c0.1-0.2,0.25-0.37,0.44-0.49C66.99,1.06,67.2,1,67.41,1c0.13,0,0.25,0.02,0.37,0.08c0.11,0.05,0.2,0.13,0.26,0.23
	c0.07,0.11,0.12,0.23,0.15,0.36c0.02,0.16,0.02,0.32,0,0.48L68.28,3.64z M69.92,3.69c-0.34,0.01-0.66-0.19-0.8-0.5
	c-0.02-0.1-0.02-0.2,0-0.3c-0.01-0.11,0.02-0.22,0.08-0.31c0.05-0.1,0.13-0.18,0.22-0.24c0.1-0.07,0.22-0.13,0.34-0.16
	c0.14-0.04,0.29-0.06,0.44-0.06c0.14-0.01,0.28-0.01,0.42,0c0.13,0.02,0.26,0.05,0.38,0.1V1.96c0.01-0.21-0.06-0.42-0.21-0.58
	c-0.15-0.15-0.36-0.23-0.57-0.22c-0.14,0-0.27,0.03-0.4,0.08c-0.15,0.06-0.3,0.14-0.43,0.23L69.3,1.3c0.27-0.2,0.6-0.32,0.94-0.34
	c0.27-0.02,0.54,0.08,0.74,0.27c0.19,0.2,0.29,0.47,0.27,0.75v1.31c0,0.09,0,0.13,0.11,0.13v0.22h-0.1c-0.06,0-0.12-0.02-0.16-0.07
	c-0.04-0.04-0.07-0.1-0.07-0.16V3.19c-0.12,0.15-0.28,0.28-0.46,0.36C70.37,3.65,70.14,3.69,69.92,3.69z M69.92,3.49
	c0.18,0.01,0.36-0.03,0.53-0.11c0.15-0.06,0.28-0.16,0.37-0.29c0.05-0.05,0.08-0.13,0.08-0.2V2.43c-0.12-0.04-0.24-0.08-0.37-0.1
	c-0.14-0.01-0.27-0.01-0.41,0c-0.12-0.02-0.23-0.02-0.35,0c-0.1,0.02-0.19,0.06-0.27,0.11c-0.15,0.09-0.24,0.25-0.24,0.42
	c-0.02,0.08-0.02,0.17,0,0.25c0.03,0.07,0.08,0.14,0.14,0.19c0.13,0.12,0.3,0.18,0.47,0.18L69.92,3.49z M73.35,3.52h-0.07
	l-0.12,0.06H73c-0.07,0.01-0.13,0.01-0.2,0c-0.06,0.01-0.13,0.01-0.19,0c-0.06-0.02-0.12-0.05-0.17-0.09
	c-0.04-0.04-0.08-0.09-0.11-0.14c-0.01-0.07-0.01-0.13,0-0.2v-2h-0.36v-0.2h0.36V0.19h0.25v0.89h0.54v0.2h-0.61v1.91
	c0,0.08,0.03,0.16,0.1,0.21c0.07,0.05,0.15,0.08,0.23,0.08c0.09,0,0.19-0.02,0.27-0.06l0.13-0.06L73.35,3.52z M76.84,3.69
	c-0.21,0.01-0.42-0.06-0.6-0.18c-0.17-0.11-0.32-0.25-0.42-0.43V4.7h-0.25V1.05h0.23v0.52c0.1-0.16,0.25-0.29,0.42-0.38
	c0.17-0.11,0.36-0.16,0.56-0.16c0.17,0,0.35,0.04,0.5,0.12c0.15,0.07,0.28,0.17,0.39,0.3c0.11,0.13,0.2,0.27,0.26,0.43
	c0.11,0.32,0.11,0.68,0,1c-0.05,0.16-0.13,0.3-0.24,0.43c-0.1,0.12-0.23,0.22-0.38,0.29C77.16,3.67,77,3.7,76.84,3.69z M76.78,3.47
	c0.14,0,0.28-0.03,0.4-0.1c0.12-0.06,0.23-0.14,0.32-0.25c0.09-0.1,0.16-0.23,0.2-0.36c0.04-0.13,0.07-0.27,0.07-0.41
	c0-0.15-0.03-0.29-0.08-0.43c-0.05-0.13-0.13-0.25-0.22-0.35c-0.09-0.11-0.21-0.19-0.34-0.25c-0.12-0.06-0.26-0.09-0.4-0.09
	c-0.1,0-0.2,0.02-0.29,0.05c-0.1,0.04-0.19,0.09-0.28,0.16c-0.09,0.06-0.17,0.13-0.23,0.22c-0.06,0.07-0.1,0.16-0.11,0.26v0.86
	c0.04,0.1,0.1,0.19,0.16,0.27c0.07,0.08,0.15,0.15,0.23,0.22c0.08,0.06,0.17,0.11,0.27,0.14C76.57,3.45,76.68,3.47,76.78,3.47z
	 M80.12,1.27c-0.22,0.01-0.43,0.08-0.61,0.21c-0.18,0.13-0.31,0.32-0.37,0.54v1.62h-0.25V1.05h0.23v0.64
	c0.08-0.18,0.2-0.33,0.36-0.45c0.13-0.11,0.3-0.18,0.47-0.2h0.17V1.27z M81.8,3.69c-0.18,0.01-0.35-0.03-0.51-0.11
	C81.14,3.51,81,3.41,80.88,3.29c-0.11-0.13-0.2-0.27-0.27-0.43c-0.06-0.17-0.1-0.35-0.1-0.53c0-0.17,0.04-0.35,0.1-0.51
	c0.06-0.16,0.16-0.3,0.27-0.43c0.11-0.12,0.25-0.22,0.4-0.28C81.44,1.04,81.61,1,81.78,1c0.18,0,0.35,0.04,0.51,0.11
	c0.15,0.07,0.29,0.17,0.4,0.29c0.12,0.12,0.21,0.26,0.27,0.42c0.06,0.16,0.09,0.34,0.09,0.51v0.11h-2.28
	c0.01,0.15,0.05,0.29,0.11,0.42c0.06,0.12,0.14,0.24,0.24,0.33c0.09,0.09,0.2,0.17,0.32,0.22c0.12,0.06,0.26,0.08,0.39,0.08
	c0.09,0.01,0.17,0.01,0.26,0c0.09-0.02,0.17-0.05,0.24-0.1c0.08-0.04,0.15-0.09,0.2-0.16c0.06-0.06,0.11-0.12,0.14-0.2l0.22,0.06
	c-0.04,0.1-0.09,0.18-0.16,0.26c-0.07,0.08-0.16,0.15-0.25,0.2c-0.1,0.06-0.2,0.1-0.31,0.13C82.05,3.71,81.92,3.71,81.8,3.69z
	 M82.8,2.24c-0.01-0.14-0.04-0.28-0.1-0.41c-0.05-0.12-0.13-0.23-0.22-0.33c-0.09-0.09-0.2-0.16-0.32-0.22
	c-0.12-0.05-0.25-0.07-0.38-0.07c-0.13,0-0.27,0.02-0.39,0.07c-0.12,0.06-0.22,0.13-0.32,0.22c-0.09,0.09-0.16,0.21-0.21,0.33
	c-0.06,0.13-0.09,0.27-0.1,0.41H82.8z M84.67,3.69c-0.19,0-0.39-0.03-0.57-0.1c-0.18-0.06-0.35-0.16-0.48-0.3l0.13-0.17
	c0.12,0.12,0.27,0.21,0.43,0.28c0.16,0.06,0.32,0.09,0.49,0.09c0.19,0.01,0.38-0.04,0.55-0.14c0.14-0.09,0.21-0.24,0.21-0.4
	c0.02-0.07,0.02-0.13,0-0.2c-0.04-0.06-0.1-0.1-0.16-0.14c-0.08-0.04-0.17-0.08-0.26-0.1l-0.36-0.1c-0.13-0.02-0.26-0.06-0.38-0.1
	c-0.1-0.02-0.19-0.06-0.27-0.12c-0.07-0.04-0.12-0.1-0.16-0.17c-0.02-0.08-0.02-0.17,0-0.25c0-0.12,0.03-0.23,0.08-0.34
	c0.05-0.09,0.12-0.18,0.2-0.24c0.09-0.06,0.2-0.11,0.31-0.14c0.29-0.1,0.61-0.1,0.9,0c0.14,0.06,0.27,0.15,0.37,0.27l-0.14,0.13
	c-0.09-0.1-0.21-0.18-0.34-0.22c-0.14-0.05-0.29-0.08-0.44-0.08c-0.09-0.01-0.18-0.01-0.27,0c-0.08,0.01-0.16,0.05-0.22,0.1
	c-0.06,0.04-0.12,0.09-0.15,0.16c-0.04,0.08-0.06,0.16-0.06,0.25c-0.02,0.06-0.02,0.12,0,0.18c0.02,0.05,0.07,0.1,0.12,0.12
	l0.21,0.09l0.31,0.08l0.43,0.11c0.11,0.03,0.22,0.08,0.32,0.14c0.08,0.05,0.15,0.11,0.2,0.19c0.04,0.09,0.07,0.18,0.06,0.28
	c0.01,0.22-0.09,0.42-0.27,0.55C85.24,3.59,84.96,3.7,84.67,3.69z M87.6,3.69c-0.18,0-0.35-0.03-0.51-0.11
	c-0.15-0.07-0.29-0.17-0.4-0.29c-0.12-0.12-0.21-0.27-0.27-0.43c-0.07-0.17-0.1-0.35-0.1-0.53c0-0.18,0.03-0.35,0.1-0.51
	c0.06-0.16,0.15-0.31,0.27-0.43c0.11-0.12,0.25-0.22,0.4-0.28C87.25,1.04,87.42,1,87.59,1c0.18,0,0.35,0.04,0.51,0.11
	c0.15,0.07,0.29,0.17,0.4,0.29c0.12,0.12,0.21,0.26,0.27,0.42c0.06,0.16,0.09,0.34,0.09,0.51v0.11h-2.28
	c0.01,0.15,0.05,0.29,0.11,0.42c0.05,0.12,0.13,0.23,0.22,0.33c0.09,0.1,0.2,0.17,0.32,0.22c0.21,0.08,0.44,0.08,0.65,0
	c0.09-0.02,0.17-0.05,0.24-0.1c0.08-0.04,0.15-0.09,0.2-0.16c0.06-0.06,0.11-0.13,0.14-0.2l0.22,0.06c-0.04,0.1-0.1,0.19-0.17,0.26
	c-0.07,0.08-0.15,0.15-0.24,0.2c-0.1,0.06-0.21,0.1-0.32,0.13C87.84,3.65,87.72,3.68,87.6,3.69z M88.6,2.24
	c-0.01-0.14-0.04-0.28-0.1-0.41c-0.05-0.12-0.13-0.24-0.23-0.33c-0.09-0.09-0.2-0.16-0.31-0.22c-0.12-0.05-0.26-0.07-0.39-0.07
	c-0.13,0-0.26,0.02-0.38,0.07c-0.12,0.06-0.23,0.13-0.32,0.22c-0.09,0.1-0.17,0.21-0.22,0.33c-0.05,0.13-0.08,0.27-0.09,0.41H88.6z
	 M90.89,1.27c-0.22,0-0.44,0.07-0.61,0.21c-0.18,0.13-0.31,0.32-0.37,0.54v1.62h-0.25V1.05h0.24v0.64c0.08-0.18,0.2-0.33,0.36-0.45
	c0.13-0.11,0.3-0.18,0.47-0.2h0.16V1.27z M92.41,3.64l-1.08-2.59h0.26l1,2.34l1-2.34h0.24l-1.08,2.59H92.41z M95.51,3.69
	c-0.18,0-0.35-0.03-0.51-0.11c-0.15-0.07-0.29-0.17-0.41-0.29c-0.11-0.13-0.2-0.27-0.27-0.43c-0.06-0.17-0.09-0.35-0.09-0.53
	c0-0.17,0.03-0.35,0.09-0.51c0.07-0.16,0.16-0.3,0.27-0.43c0.11-0.12,0.25-0.21,0.4-0.28C95.15,1.04,95.32,1,95.49,1
	c0.18,0,0.35,0.04,0.51,0.11c0.15,0.07,0.29,0.17,0.41,0.29c0.11,0.12,0.2,0.26,0.26,0.42c0.06,0.16,0.1,0.34,0.1,0.51V2.4l0,0
	h-2.28c0.01,0.14,0.04,0.29,0.1,0.42c0.06,0.12,0.13,0.23,0.23,0.33c0.09,0.1,0.19,0.17,0.31,0.22c0.12,0.06,0.26,0.08,0.39,0.08
	c0.09,0.02,0.17,0.02,0.26,0c0.09-0.02,0.17-0.05,0.24-0.1c0.08-0.04,0.15-0.09,0.2-0.16c0.06-0.06,0.11-0.12,0.14-0.2l0.22,0.06
	c-0.04,0.1-0.09,0.18-0.16,0.26c-0.07,0.08-0.16,0.15-0.25,0.2c-0.1,0.06-0.2,0.1-0.31,0.13C95.75,3.68,95.63,3.69,95.51,3.69z
	 M96.51,2.24C96.5,2.1,96.46,1.96,96.4,1.83c-0.05-0.12-0.13-0.24-0.22-0.33c-0.09-0.09-0.2-0.16-0.32-0.22
	c-0.12-0.05-0.25-0.07-0.38-0.07c-0.13,0-0.27,0.02-0.39,0.07c-0.11,0.06-0.22,0.13-0.31,0.22c-0.09,0.09-0.17,0.21-0.22,0.33
	c-0.06,0.13-0.09,0.27-0.1,0.41H96.51z M98.39,3.69c-0.2,0-0.39-0.03-0.58-0.1c-0.18-0.06-0.35-0.16-0.48-0.3l0.13-0.17
	c0.12,0.12,0.27,0.21,0.43,0.28c0.16,0.06,0.33,0.09,0.5,0.09c0.19,0.01,0.38-0.04,0.54-0.14c0.14-0.09,0.21-0.24,0.21-0.4
	c0.02-0.07,0.02-0.13,0-0.2c-0.04-0.06-0.1-0.1-0.16-0.14c-0.08-0.04-0.17-0.08-0.26-0.1l-0.36-0.1c-0.13-0.02-0.26-0.06-0.38-0.1
	c-0.1-0.02-0.19-0.06-0.27-0.12c-0.07-0.04-0.12-0.1-0.15-0.17c-0.04-0.08-0.06-0.16-0.06-0.25c0-0.12,0.03-0.23,0.08-0.34
	c0.05-0.1,0.12-0.18,0.21-0.24c0.09-0.06,0.19-0.11,0.3-0.14c0.12-0.02,0.25-0.02,0.37,0c0.18,0,0.37,0.03,0.54,0.1
	c0.14,0.06,0.26,0.15,0.36,0.27l-0.14,0.13c-0.09-0.1-0.21-0.18-0.34-0.22c-0.14-0.05-0.29-0.08-0.44-0.08
	c-0.1-0.03-0.21-0.05-0.32-0.06c-0.08,0.02-0.15,0.05-0.22,0.1c-0.06,0.04-0.11,0.1-0.15,0.16c-0.04,0.08-0.06,0.16-0.06,0.25
	c-0.01,0.06-0.01,0.12,0,0.18c0.03,0.05,0.07,0.09,0.12,0.12l0.21,0.09l0.31,0.08l0.44,0.11c0.11,0.03,0.21,0.08,0.31,0.14
	c0.08,0.05,0.15,0.11,0.2,0.19c0.05,0.09,0.07,0.18,0.07,0.28c0,0.22-0.1,0.42-0.28,0.55C98.88,3.6,98.64,3.68,98.39,3.69z
	 M1.47,13.52H1.41l-0.12,0.06H1.12c-0.06,0.01-0.13,0.01-0.19,0c-0.07,0.01-0.13,0.01-0.2,0c-0.06-0.02-0.11-0.05-0.16-0.09
	c-0.04-0.04-0.08-0.09-0.11-0.14c-0.02-0.07-0.02-0.13,0-0.2v-2h-0.4v-0.2h0.36v-0.76h0.25v0.89h0.6v0.2h-0.6v1.91
	c-0.01,0.08,0.03,0.16,0.1,0.21c0.06,0.05,0.14,0.08,0.22,0.08c0.09,0,0.19-0.02,0.27-0.06l0.14-0.06L1.47,13.52z M4.28,13.64H4.03
	v-1.45c0-0.64-0.21-1-0.64-1c-0.1,0.02-0.19,0.05-0.27,0.1c-0.1,0.04-0.2,0.1-0.29,0.17c-0.09,0.07-0.17,0.16-0.23,0.26
	c-0.07,0.09-0.12,0.2-0.15,0.31v1.61H2.12V10h0.25v1.67c0.11-0.2,0.28-0.37,0.48-0.48c0.18-0.12,0.39-0.18,0.61-0.18
	c0.13,0,0.25,0.03,0.37,0.08c0.1,0.05,0.19,0.13,0.25,0.23c0.07,0.11,0.12,0.23,0.15,0.36c0.02,0.16,0.02,0.32,0,0.48L4.28,13.64z
	 M6.39,13.69c-0.18,0.01-0.35-0.03-0.51-0.11c-0.15-0.07-0.29-0.17-0.41-0.29c-0.11-0.13-0.2-0.27-0.27-0.43
	c-0.06-0.17-0.1-0.35-0.1-0.53c0-0.17,0.04-0.35,0.1-0.51c0.07-0.16,0.16-0.3,0.27-0.43c0.11-0.12,0.25-0.21,0.4-0.28
	c0.32-0.14,0.68-0.14,1,0c0.15,0.07,0.29,0.17,0.41,0.29c0.11,0.12,0.2,0.26,0.26,0.42c0.06,0.16,0.09,0.34,0.09,0.51v0.11H5.36
	c0.01,0.15,0.05,0.29,0.11,0.42c0.05,0.12,0.13,0.24,0.23,0.33c0.09,0.1,0.19,0.17,0.31,0.22c0.12,0.06,0.26,0.08,0.39,0.08
	c0.09,0.02,0.17,0.02,0.26,0c0.09-0.02,0.17-0.05,0.24-0.1c0.09-0.04,0.17-0.11,0.22-0.2c0.06-0.06,0.11-0.12,0.14-0.2l0.22,0.06
	c-0.04,0.1-0.09,0.18-0.16,0.26c-0.07,0.08-0.16,0.15-0.25,0.2c-0.1,0.06-0.2,0.1-0.31,0.13C6.64,13.68,6.52,13.7,6.39,13.69z
	 M7.39,12.24c-0.01-0.14-0.05-0.28-0.11-0.41c-0.03-0.12-0.09-0.23-0.16-0.33c-0.09-0.09-0.2-0.16-0.32-0.22
	c-0.13-0.06-0.28-0.09-0.42-0.09c-0.13,0-0.27,0.02-0.39,0.07c-0.11,0.06-0.22,0.13-0.31,0.22c-0.1,0.09-0.17,0.2-0.22,0.33
	c-0.06,0.13-0.09,0.27-0.1,0.41L7.39,12.24z M9.8,12.33c0-0.17,0.03-0.35,0.09-0.51c0.04-0.16,0.12-0.31,0.23-0.43
	c0.11-0.12,0.25-0.22,0.4-0.28c0.16-0.07,0.33-0.11,0.51-0.11c0.22,0,0.44,0.05,0.63,0.16c0.18,0.11,0.32,0.26,0.4,0.45l-0.24,0.08
	c-0.07-0.14-0.19-0.26-0.33-0.34c-0.14-0.08-0.31-0.12-0.47-0.12c-0.14,0-0.27,0.02-0.4,0.08c-0.12,0.06-0.23,0.14-0.32,0.24
	c-0.19,0.22-0.29,0.49-0.29,0.78c0,0.15,0.02,0.31,0.08,0.45c0.05,0.13,0.13,0.25,0.22,0.36c0.09,0.1,0.2,0.18,0.32,0.24
	c0.12,0.06,0.26,0.09,0.4,0.09c0.09,0.01,0.18,0.01,0.27,0c0.08-0.03,0.16-0.07,0.24-0.11c0.07-0.04,0.14-0.09,0.19-0.15
	c0.05-0.05,0.09-0.11,0.12-0.18l0.24,0.07c-0.03,0.09-0.08,0.18-0.15,0.25c-0.07,0.08-0.15,0.15-0.24,0.2
	c-0.1,0.06-0.2,0.1-0.31,0.13c-0.12,0.02-0.23,0.02-0.35,0c-0.18,0-0.35-0.03-0.51-0.11c-0.15-0.07-0.29-0.16-0.41-0.28
	c-0.11-0.13-0.2-0.27-0.27-0.43C9.8,12.69,9.79,12.51,9.8,12.33z M14.01,13.69c-0.18,0.01-0.35-0.03-0.51-0.11
	c-0.15-0.07-0.29-0.17-0.4-0.29c-0.24-0.25-0.37-0.59-0.36-0.94c0-0.18,0.03-0.36,0.1-0.52c0.11-0.32,0.36-0.58,0.67-0.72
	c0.16-0.07,0.33-0.11,0.5-0.11c0.17,0,0.34,0.04,0.5,0.11c0.15,0.07,0.28,0.17,0.4,0.29c0.11,0.13,0.2,0.27,0.27,0.43
	c0.06,0.17,0.09,0.34,0.09,0.52c0.01,0.35-0.12,0.69-0.36,0.94c-0.11,0.12-0.25,0.22-0.4,0.29C14.35,13.66,14.18,13.69,14.01,13.69z
	 M13.01,12.36c0,0.15,0.03,0.29,0.08,0.43c0.05,0.13,0.12,0.25,0.22,0.35c0.09,0.1,0.2,0.18,0.32,0.24
	c0.12,0.06,0.25,0.09,0.39,0.09c0.14,0,0.28-0.03,0.4-0.09c0.11-0.05,0.21-0.11,0.3-0.19c0.09-0.11,0.17-0.23,0.22-0.36
	c0.05-0.14,0.08-0.29,0.08-0.44c0-0.15-0.03-0.29-0.08-0.43c-0.05-0.13-0.13-0.25-0.22-0.35c-0.09-0.1-0.2-0.18-0.32-0.24
	c-0.12-0.06-0.25-0.09-0.39-0.09c-0.14,0-0.28,0.03-0.4,0.09c-0.12,0.06-0.23,0.14-0.32,0.24c-0.09,0.11-0.17,0.23-0.22,0.36
	c-0.05,0.13-0.07,0.26-0.08,0.39H13.01z M18.24,13.64h-0.25v-1.45c0.02-0.25-0.03-0.5-0.14-0.73c-0.1-0.15-0.27-0.24-0.45-0.23
	c-0.11,0-0.22,0.02-0.33,0.06c-0.11,0.04-0.21,0.1-0.3,0.17c-0.09,0.07-0.17,0.16-0.24,0.26c-0.07,0.1-0.12,0.2-0.16,0.31v1.61
	h-0.25v-2.59h0.24v0.62c0.05-0.1,0.12-0.19,0.19-0.28c0.08-0.08,0.17-0.14,0.27-0.2c0.1-0.05,0.2-0.1,0.31-0.13
	c0.11-0.02,0.23-0.02,0.34,0c0.24-0.02,0.47,0.09,0.6,0.3c0.13,0.26,0.19,0.56,0.17,0.85V13.64z M20.31,13.69
	c-0.17,0-0.34-0.04-0.49-0.11c-0.15-0.07-0.29-0.18-0.4-0.3c-0.11-0.13-0.2-0.27-0.26-0.43c-0.06-0.16-0.09-0.33-0.09-0.5
	c0-0.17,0.03-0.35,0.09-0.51c0.05-0.16,0.14-0.31,0.25-0.43c0.1-0.12,0.23-0.23,0.37-0.3c0.25-0.12,0.54-0.14,0.8-0.06l0.28,0.13
	c0.08,0.06,0.16,0.13,0.23,0.2c0.07,0.07,0.13,0.15,0.18,0.23V10h0.25v3.29c0,0.09,0,0.13,0.11,0.13v0.22h-0.09
	c-0.07,0.01-0.13-0.03-0.17-0.08c-0.05-0.04-0.07-0.1-0.07-0.16v-0.29c-0.11,0.17-0.25,0.32-0.43,0.42
	C20.7,13.63,20.51,13.69,20.31,13.69z M20.31,13.47c0.1,0,0.2-0.02,0.29-0.06c0.1-0.04,0.2-0.09,0.29-0.15
	c0.08-0.07,0.15-0.14,0.22-0.22c0.06-0.08,0.1-0.17,0.11-0.27v-0.85c-0.03-0.1-0.08-0.19-0.15-0.27c-0.07-0.09-0.15-0.16-0.24-0.22
	c-0.09-0.06-0.18-0.11-0.28-0.15c-0.1-0.02-0.19-0.02-0.29,0c-0.14,0-0.28,0.03-0.4,0.09c-0.12,0.06-0.23,0.15-0.32,0.26
	c-0.09,0.1-0.16,0.23-0.2,0.36c-0.05,0.13-0.07,0.27-0.07,0.41c0,0.15,0.03,0.29,0.08,0.43c0.05,0.13,0.13,0.25,0.22,0.35
	c0.09,0.1,0.21,0.19,0.33,0.25c0.15,0.05,0.31,0.06,0.46,0.04H20.31z M23.65,13.69c-0.17,0.01-0.35-0.03-0.5-0.11
	c-0.16-0.07-0.3-0.17-0.41-0.29c-0.12-0.12-0.2-0.27-0.26-0.43c-0.06-0.16-0.09-0.34-0.09-0.51c0-0.18,0.03-0.35,0.09-0.52
	c0.07-0.16,0.16-0.3,0.27-0.43c0.11-0.12,0.25-0.22,0.4-0.29c0.16-0.07,0.33-0.11,0.5-0.11c0.17,0,0.34,0.04,0.5,0.11
	c0.15,0.07,0.29,0.17,0.4,0.29c0.12,0.12,0.21,0.27,0.27,0.43c0.07,0.16,0.1,0.34,0.1,0.52c0,0.18-0.03,0.35-0.1,0.51
	c-0.06,0.16-0.14,0.31-0.26,0.43c-0.11,0.12-0.25,0.22-0.41,0.29C24,13.66,23.82,13.7,23.65,13.69z M22.65,12.36
	c0,0.29,0.1,0.57,0.3,0.78c0.09,0.1,0.2,0.18,0.32,0.24c0.12,0.06,0.26,0.09,0.4,0.09c0.14,0,0.27-0.03,0.39-0.09
	c0.12-0.06,0.23-0.14,0.33-0.24c0.09-0.11,0.16-0.23,0.22-0.36c0.05-0.14,0.08-0.29,0.08-0.44c0-0.15-0.03-0.29-0.08-0.43
	c-0.06-0.13-0.13-0.25-0.22-0.35c-0.09-0.1-0.21-0.18-0.33-0.24c-0.25-0.12-0.53-0.12-0.78,0c-0.12,0.06-0.23,0.14-0.32,0.24
	c-0.1,0.1-0.17,0.23-0.22,0.36c-0.07,0.14-0.1,0.29-0.11,0.44H22.65z M29.58,13.64h-0.25v-1.45c0.02-0.25-0.03-0.5-0.15-0.72
	c-0.1-0.16-0.28-0.25-0.47-0.24c-0.1,0-0.21,0.02-0.3,0.06c-0.1,0.04-0.19,0.1-0.27,0.17c-0.08,0.07-0.15,0.16-0.2,0.25
	c-0.06,0.1-0.11,0.21-0.14,0.33v1.6h-0.25v-1.45c0.02-0.25-0.03-0.5-0.15-0.73c-0.1-0.15-0.28-0.24-0.46-0.23
	c-0.11,0-0.21,0.02-0.31,0.06c-0.09,0.04-0.18,0.09-0.26,0.16c-0.08,0.08-0.15,0.16-0.21,0.26c-0.06,0.1-0.11,0.21-0.14,0.32v1.61
	h-0.25v-2.59H26v0.62c0.1-0.19,0.24-0.36,0.42-0.48c0.17-0.12,0.37-0.18,0.58-0.18c0.2-0.01,0.39,0.07,0.53,0.2
	c0.14,0.13,0.23,0.32,0.24,0.51c0.17-0.41,0.56-0.69,1-0.71c0.24-0.02,0.48,0.09,0.61,0.3c0.13,0.26,0.2,0.56,0.18,0.85L29.58,13.64
	z M30.5,10.95l0.07-0.5h-0.1V10h0.26v0.45l-0.1,0.5H30.5z M32.44,13.69c-0.19,0-0.39-0.03-0.57-0.1c-0.18-0.06-0.35-0.16-0.48-0.3
	l0.12-0.17c0.13,0.12,0.28,0.21,0.44,0.28c0.16,0.06,0.32,0.09,0.49,0.09c0.19,0.01,0.38-0.04,0.55-0.14c0.13-0.09,0.2-0.24,0.2-0.4
	c0.02-0.07,0.02-0.13,0-0.2c-0.04-0.06-0.1-0.11-0.16-0.14c-0.08-0.04-0.17-0.08-0.26-0.1l-0.35-0.1c-0.13-0.02-0.26-0.06-0.39-0.1
	c-0.11-0.02-0.22-0.06-0.31-0.12c-0.07-0.04-0.13-0.1-0.16-0.17c-0.02-0.08-0.02-0.17,0-0.25c0-0.12,0.02-0.23,0.07-0.34
	c0.05-0.1,0.12-0.18,0.21-0.24c0.09-0.06,0.19-0.11,0.3-0.14c0.12-0.02,0.25-0.02,0.37,0c0.18,0,0.37,0.03,0.54,0.1
	c0.14,0.06,0.27,0.15,0.36,0.27l-0.14,0.13c-0.09-0.1-0.2-0.18-0.33-0.22c-0.14-0.05-0.29-0.08-0.44-0.08
	c-0.09-0.01-0.19-0.01-0.28,0c-0.08,0.02-0.15,0.05-0.22,0.1c-0.06,0.04-0.11,0.1-0.15,0.16c-0.05,0.14-0.05,0.29,0,0.43
	c0.03,0.05,0.07,0.09,0.12,0.12l0.22,0.09l0.31,0.08l0.43,0.11c0.11,0.03,0.22,0.08,0.32,0.14c0.08,0.05,0.14,0.11,0.19,0.19
	c0.05,0.08,0.08,0.18,0.07,0.28c0.01,0.22-0.09,0.42-0.27,0.55C33.01,13.66,32.72,13.73,32.44,13.69z M35.91,13.64v-2.39h-0.36v-0.2
	h0.36v-0.09c-0.02-0.27,0.05-0.54,0.21-0.77c0.12-0.18,0.33-0.28,0.54-0.27c0.1-0.01,0.19-0.01,0.29,0
	c0.08,0.03,0.16,0.07,0.23,0.12l-0.06,0.25l-0.22-0.1c-0.07-0.01-0.14-0.01-0.21,0c-0.16-0.01-0.3,0.07-0.39,0.2
	c-0.1,0.18-0.15,0.38-0.14,0.59v0.09h0.74v0.2h-0.78v2.39L35.91,13.64z M38.86,11.27c-0.22,0.01-0.43,0.08-0.61,0.21
	c-0.18,0.14-0.31,0.33-0.37,0.54v1.62h-0.25v-2.59h0.24v0.64c0.08-0.18,0.2-0.33,0.36-0.45c0.14-0.11,0.3-0.18,0.48-0.2h0.15
	L38.86,11.27z M40.56,13.69c-0.18,0-0.35-0.03-0.51-0.11c-0.15-0.07-0.29-0.17-0.41-0.29c-0.11-0.13-0.2-0.27-0.27-0.43
	c-0.06-0.17-0.09-0.35-0.09-0.53c0-0.17,0.03-0.35,0.09-0.51c0.07-0.16,0.16-0.3,0.27-0.43c0.11-0.12,0.25-0.21,0.4-0.28
	c0.16-0.07,0.33-0.11,0.5-0.11c0.18,0,0.35,0.04,0.51,0.11c0.15,0.07,0.29,0.17,0.41,0.29c0.11,0.12,0.2,0.26,0.26,0.42
	c0.07,0.16,0.1,0.33,0.1,0.51v0.07l0,0h-2.28c0.01,0.14,0.04,0.29,0.1,0.42c0.06,0.12,0.13,0.23,0.23,0.33
	c0.09,0.09,0.19,0.17,0.31,0.22c0.12,0.06,0.26,0.08,0.39,0.08c0.09,0.02,0.17,0.02,0.26,0c0.09-0.02,0.17-0.05,0.25-0.1
	c0.08-0.04,0.14-0.1,0.2-0.16c0.05-0.06,0.1-0.13,0.13-0.2l0.22,0.06c-0.03,0.1-0.09,0.19-0.16,0.26c-0.07,0.08-0.15,0.15-0.25,0.2
	c-0.1,0.06-0.2,0.1-0.31,0.13C40.8,13.68,40.68,13.69,40.56,13.69z M41.56,12.24c-0.01-0.14-0.05-0.28-0.11-0.41
	c-0.05-0.12-0.13-0.24-0.22-0.33c-0.09-0.09-0.2-0.16-0.32-0.22c-0.12-0.05-0.25-0.07-0.38-0.07c-0.13,0-0.27,0.02-0.39,0.07
	c-0.11,0.06-0.22,0.13-0.31,0.22c-0.09,0.09-0.17,0.21-0.22,0.33c-0.06,0.13-0.09,0.27-0.1,0.41H41.56z M43.44,13.69
	c-0.2,0-0.39-0.03-0.58-0.1c-0.18-0.06-0.34-0.16-0.47-0.3l0.12-0.17c0.12,0.12,0.27,0.21,0.43,0.28c0.16,0.06,0.33,0.09,0.5,0.09
	c0.19,0.01,0.38-0.04,0.54-0.14c0.14-0.09,0.21-0.24,0.21-0.4c0.02-0.07,0.02-0.13,0-0.2c-0.04-0.06-0.1-0.1-0.16-0.14
	c-0.08-0.04-0.17-0.08-0.26-0.1l-0.36-0.1c-0.13-0.02-0.26-0.06-0.38-0.1c-0.1-0.03-0.19-0.07-0.27-0.12
	c-0.07-0.04-0.12-0.1-0.15-0.17c-0.04-0.08-0.06-0.16-0.06-0.25c0-0.12,0.03-0.23,0.08-0.34c0.05-0.1,0.12-0.18,0.21-0.24
	c0.09-0.06,0.19-0.11,0.3-0.14c0.12-0.02,0.25-0.02,0.37,0c0.18,0,0.37,0.03,0.54,0.1c0.14,0.06,0.26,0.15,0.36,0.27l-0.14,0.13
	c-0.09-0.1-0.21-0.18-0.34-0.22c-0.23-0.07-0.48-0.07-0.71,0c-0.08,0.02-0.15,0.05-0.22,0.1c-0.06,0.04-0.11,0.1-0.15,0.16
	c-0.04,0.08-0.06,0.16-0.06,0.25c-0.01,0.06-0.01,0.12,0,0.18c0.03,0.05,0.07,0.09,0.12,0.12l0.21,0.09l0.31,0.08l0.44,0.11
	c0.11,0.03,0.21,0.08,0.31,0.14c0.08,0.05,0.15,0.11,0.2,0.19c0.05,0.09,0.07,0.18,0.07,0.28c0.01,0.22-0.1,0.43-0.28,0.55
	C43.95,13.7,43.69,13.74,43.44,13.69z M47.38,13.64h-0.26v-1.45c0-0.64-0.22-1-0.65-1c-0.11,0-0.21,0.02-0.31,0.06
	c-0.1,0.04-0.2,0.1-0.28,0.17c-0.09,0.07-0.17,0.16-0.24,0.26c-0.06,0.1-0.11,0.2-0.15,0.31v1.61h-0.25V10h0.25v1.67
	c0.1-0.2,0.26-0.37,0.45-0.49c0.18-0.12,0.39-0.18,0.6-0.18c0.13,0,0.25,0.03,0.37,0.08c0.1,0.05,0.19,0.13,0.26,0.23
	c0.07,0.11,0.12,0.23,0.15,0.36c0.02,0.16,0.02,0.32,0,0.48L47.38,13.64z M50.51,13.64h-0.25v-1.45c0.02-0.25-0.03-0.5-0.14-0.73
	c-0.1-0.15-0.27-0.24-0.45-0.23c-0.11,0-0.22,0.02-0.33,0.06c-0.11,0.04-0.21,0.1-0.3,0.17c-0.1,0.07-0.18,0.16-0.25,0.26
	c-0.07,0.09-0.12,0.2-0.15,0.31v1.61h-0.25v-2.59h0.23v0.62c0.06-0.1,0.12-0.19,0.2-0.28c0.09-0.08,0.19-0.14,0.3-0.2
	c0.1-0.05,0.21-0.1,0.32-0.13c0.11-0.02,0.23-0.02,0.34,0c0.24-0.02,0.47,0.09,0.59,0.3c0.13,0.26,0.2,0.56,0.18,0.85L50.51,13.64z
	 M52.62,13.69c-0.18,0.01-0.35-0.03-0.51-0.11c-0.16-0.07-0.29-0.17-0.41-0.29c-0.12-0.12-0.21-0.27-0.27-0.43
	c-0.06-0.17-0.1-0.35-0.1-0.53c0-0.17,0.04-0.35,0.1-0.51c0.06-0.16,0.15-0.31,0.27-0.43c0.11-0.12,0.25-0.22,0.4-0.28
	c0.16-0.07,0.33-0.11,0.5-0.11c0.18,0,0.35,0.04,0.51,0.11c0.15,0.07,0.29,0.17,0.4,0.29c0.12,0.12,0.21,0.26,0.27,0.42
	c0.06,0.16,0.09,0.34,0.09,0.51v0.11h-2.28c0.01,0.15,0.05,0.29,0.11,0.42c0.05,0.12,0.13,0.23,0.22,0.33
	c0.09,0.09,0.2,0.17,0.32,0.22c0.21,0.08,0.44,0.08,0.65,0c0.09-0.02,0.17-0.05,0.24-0.1c0.08-0.04,0.15-0.09,0.2-0.16
	c0.06-0.06,0.11-0.13,0.14-0.2l0.22,0.06c-0.04,0.1-0.09,0.18-0.16,0.26c-0.07,0.08-0.16,0.15-0.25,0.2
	c-0.1,0.06-0.21,0.1-0.32,0.13C52.85,13.65,52.74,13.68,52.62,13.69z M53.62,12.24c-0.01-0.14-0.04-0.28-0.1-0.41
	c-0.05-0.12-0.13-0.23-0.22-0.33c-0.1-0.09-0.2-0.16-0.32-0.22c-0.12-0.05-0.26-0.07-0.39-0.07c-0.13,0-0.26,0.02-0.38,0.07
	c-0.12,0.06-0.22,0.13-0.32,0.22c-0.09,0.1-0.17,0.21-0.22,0.33c-0.05,0.13-0.08,0.27-0.09,0.41H53.62z M55.49,13.69
	c-0.19,0-0.39-0.03-0.57-0.1c-0.18-0.06-0.35-0.16-0.48-0.3l0.13-0.17c0.12,0.12,0.27,0.21,0.43,0.28c0.16,0.06,0.32,0.09,0.49,0.09
	c0.19,0.01,0.38-0.04,0.55-0.14c0.14-0.09,0.21-0.24,0.21-0.4c0-0.07-0.02-0.14-0.05-0.2c-0.04-0.06-0.1-0.1-0.16-0.14
	c-0.08-0.04-0.17-0.08-0.26-0.1l-0.36-0.1c-0.13-0.02-0.26-0.06-0.38-0.1c-0.1-0.02-0.19-0.06-0.27-0.12
	c-0.07-0.04-0.12-0.1-0.16-0.17c-0.04-0.08-0.05-0.16-0.05-0.25c0-0.12,0.03-0.23,0.08-0.34c0.04-0.1,0.11-0.18,0.2-0.24
	c0.09-0.06,0.2-0.11,0.31-0.14c0.12-0.02,0.24-0.02,0.36,0c0.18,0,0.37,0.03,0.54,0.1c0.14,0.06,0.27,0.15,0.37,0.27l-0.14,0.13
	c-0.09-0.1-0.21-0.18-0.34-0.22c-0.14-0.05-0.29-0.08-0.44-0.08c-0.09-0.01-0.18-0.01-0.27,0c-0.08,0.02-0.16,0.05-0.23,0.1
	c-0.06,0.04-0.11,0.1-0.14,0.16c-0.04,0.08-0.06,0.16-0.06,0.25c-0.02,0.06-0.02,0.12,0,0.18c0.02,0.05,0.07,0.1,0.12,0.12
	l0.21,0.09l0.31,0.08l0.43,0.11c0.11,0.03,0.22,0.08,0.32,0.14c0.08,0.05,0.14,0.11,0.19,0.19c0.05,0.08,0.08,0.18,0.07,0.28
	c0.01,0.22-0.09,0.42-0.27,0.55C55.98,13.64,55.73,13.7,55.49,13.69z M58.12,13.69c-0.19,0-0.39-0.03-0.57-0.1
	c-0.18-0.06-0.35-0.16-0.48-0.3l0.13-0.17c0.12,0.12,0.27,0.21,0.43,0.28c0.16,0.06,0.32,0.09,0.49,0.09
	c0.19,0.01,0.38-0.04,0.55-0.14c0.14-0.09,0.21-0.24,0.21-0.4c0-0.07-0.02-0.14-0.06-0.2c-0.04-0.06-0.09-0.11-0.15-0.14
	c-0.08-0.04-0.17-0.08-0.26-0.1l-0.36-0.1c-0.13-0.02-0.26-0.06-0.38-0.1c-0.09-0.03-0.17-0.07-0.25-0.12
	c-0.07-0.04-0.12-0.1-0.16-0.17c-0.02-0.08-0.02-0.17,0-0.25c0-0.12,0.03-0.23,0.08-0.34c0.04-0.1,0.11-0.18,0.2-0.24
	c0.09-0.06,0.2-0.11,0.31-0.14c0.12-0.02,0.24-0.02,0.36,0c0.18,0,0.37,0.03,0.54,0.1c0.14,0.06,0.27,0.15,0.37,0.27l-0.14,0.13
	c-0.09-0.1-0.21-0.18-0.34-0.22c-0.16-0.08-0.34-0.13-0.52-0.14c-0.09-0.01-0.18-0.01-0.27,0c-0.08,0.02-0.16,0.05-0.23,0.1
	c-0.06,0.04-0.11,0.1-0.15,0.16c-0.03,0.08-0.05,0.16-0.05,0.25c-0.02,0.06-0.02,0.12,0,0.18c0.02,0.05,0.07,0.1,0.12,0.12
	l0.21,0.09l0.37,0.1l0.43,0.11c0.11,0.03,0.22,0.08,0.32,0.14c0.08,0.05,0.14,0.11,0.19,0.19c0.05,0.08,0.08,0.18,0.07,0.28
	c0.01,0.22-0.09,0.42-0.27,0.55C58.65,13.62,58.39,13.7,58.12,13.69z M62.12,13.69c-0.22,0-0.44-0.08-0.61-0.23
	c-0.07-0.07-0.13-0.16-0.18-0.25c-0.04-0.1-0.06-0.21-0.06-0.32c-0.01-0.11,0.02-0.22,0.08-0.31c0.05-0.1,0.13-0.18,0.22-0.24
	c0.1-0.07,0.22-0.13,0.34-0.16c0.14-0.04,0.29-0.06,0.44-0.06c0.14-0.01,0.28-0.01,0.42,0c0.13,0.02,0.26,0.05,0.38,0.1v-0.26
	c0.01-0.21-0.06-0.42-0.21-0.58c-0.15-0.15-0.36-0.23-0.57-0.22c-0.14,0-0.27,0.03-0.4,0.08c-0.15,0.06-0.3,0.14-0.43,0.23
	l-0.09-0.17c0.27-0.2,0.6-0.32,0.94-0.34c0.27-0.02,0.54,0.08,0.74,0.27c0.19,0.2,0.29,0.47,0.27,0.75v1.31c0,0.09,0,0.13,0.11,0.13
	v0.22h-0.1c-0.06,0-0.12-0.02-0.16-0.07c-0.04-0.04-0.07-0.1-0.07-0.16v-0.22c-0.12,0.15-0.28,0.28-0.46,0.36
	C62.53,13.64,62.33,13.69,62.12,13.69z M62.12,13.49c0.18,0.01,0.36-0.03,0.53-0.11c0.18-0.04,0.35-0.14,0.47-0.29
	c0.05-0.05,0.08-0.13,0.08-0.2v-0.46c-0.12-0.04-0.24-0.08-0.37-0.1c-0.14-0.01-0.27-0.01-0.41,0c-0.12,0-0.24,0.02-0.35,0.05
	c-0.1,0.02-0.19,0.06-0.27,0.11c-0.15,0.09-0.24,0.25-0.24,0.42c0,0.09,0.01,0.17,0.05,0.25c0.03,0.07,0.08,0.14,0.14,0.19
	c0.13,0.12,0.3,0.18,0.47,0.18L62.12,13.49z M66.55,13.64H66.3v-1.45c0.02-0.25-0.03-0.5-0.14-0.73c-0.1-0.15-0.27-0.24-0.45-0.23
	c-0.11,0-0.22,0.02-0.33,0.06c-0.11,0.04-0.21,0.1-0.3,0.17c-0.09,0.08-0.18,0.16-0.25,0.26c-0.06,0.1-0.11,0.2-0.15,0.31v1.61
	h-0.25v-2.59h0.23v0.62c0.06-0.1,0.12-0.19,0.2-0.28c0.08-0.08,0.17-0.14,0.26-0.2c0.1-0.05,0.2-0.1,0.31-0.13
	c0.11-0.02,0.23-0.02,0.34,0c0.24-0.02,0.47,0.09,0.6,0.3c0.13,0.26,0.18,0.56,0.17,0.85L66.55,13.64z M68.62,13.69
	c-0.17,0-0.34-0.04-0.5-0.11c-0.15-0.08-0.28-0.18-0.39-0.3c-0.11-0.13-0.2-0.27-0.26-0.43c-0.06-0.16-0.1-0.33-0.1-0.5
	c0-0.17,0.03-0.35,0.09-0.51c0.06-0.16,0.14-0.3,0.25-0.43c0.11-0.12,0.24-0.22,0.38-0.3C68.24,11.04,68.4,11,68.57,11
	c0.11-0.02,0.21-0.02,0.32,0l0.28,0.13c0.08,0.06,0.16,0.13,0.23,0.2c0.07,0.07,0.13,0.15,0.18,0.23V10h0.25v3.29
	c0,0.09,0,0.13,0.1,0.13v0.22h-0.09c-0.07,0-0.13-0.03-0.17-0.08c-0.04-0.04-0.06-0.1-0.06-0.16v-0.29
	c-0.11,0.17-0.25,0.32-0.43,0.42C69.01,13.63,68.82,13.69,68.62,13.69z M68.62,13.47c0.1,0,0.2-0.02,0.29-0.06
	c0.1-0.03,0.2-0.08,0.28-0.15c0.09-0.06,0.16-0.14,0.23-0.22c0.06-0.08,0.1-0.17,0.11-0.27v-0.85c-0.04-0.1-0.09-0.19-0.16-0.27
	c-0.06-0.09-0.14-0.16-0.23-0.22c-0.09-0.06-0.18-0.11-0.28-0.15c-0.1-0.02-0.19-0.02-0.29,0c-0.14,0-0.28,0.03-0.41,0.09
	c-0.12,0.07-0.22,0.15-0.31,0.26c-0.09,0.1-0.16,0.23-0.2,0.36c-0.05,0.13-0.07,0.27-0.07,0.41c0,0.15,0.03,0.29,0.08,0.43
	c0.05,0.13,0.13,0.25,0.22,0.35c0.09,0.1,0.21,0.19,0.33,0.25c0.15,0.05,0.31,0.06,0.46,0.04H68.62z M74.28,13.64l-1-1.39
	l-0.62,0.57v0.82h-0.25V10h0.25v2.54l1.58-1.49h0.29l-1.08,1l1.12,1.54L74.28,13.64z M76.23,13.69c-0.18,0.01-0.35-0.03-0.51-0.11
	c-0.15-0.07-0.29-0.17-0.41-0.29c-0.11-0.13-0.2-0.27-0.27-0.43c-0.06-0.17-0.1-0.35-0.1-0.53c0-0.17,0.04-0.35,0.1-0.51
	c0.07-0.16,0.16-0.3,0.27-0.43c0.11-0.12,0.25-0.21,0.4-0.28c0.32-0.14,0.68-0.14,1,0c0.15,0.07,0.29,0.17,0.4,0.29
	c0.12,0.12,0.21,0.26,0.27,0.42c0.06,0.16,0.09,0.34,0.09,0.51v0.11H75.2c0.01,0.15,0.05,0.29,0.11,0.42
	c0.05,0.12,0.13,0.24,0.23,0.33c0.09,0.1,0.19,0.17,0.31,0.22c0.12,0.06,0.26,0.08,0.39,0.08c0.09,0.01,0.17,0.01,0.26,0
	c0.09-0.02,0.17-0.05,0.24-0.1c0.08-0.04,0.15-0.09,0.2-0.16c0.06-0.06,0.11-0.12,0.14-0.2l0.22,0.06c-0.04,0.1-0.09,0.18-0.16,0.26
	c-0.07,0.08-0.16,0.15-0.25,0.2c-0.1,0.06-0.2,0.1-0.31,0.13C76.46,13.7,76.35,13.71,76.23,13.69z M77.23,12.24
	c0-0.14-0.04-0.28-0.1-0.41c-0.05-0.12-0.13-0.23-0.22-0.33c-0.09-0.09-0.2-0.16-0.32-0.22c-0.12-0.05-0.24-0.08-0.37-0.09
	c-0.13,0-0.27,0.02-0.39,0.07c-0.11,0.06-0.22,0.13-0.31,0.22c-0.1,0.09-0.17,0.2-0.22,0.33c-0.06,0.13-0.09,0.27-0.1,0.41
	L77.23,12.24z M79.39,13.69c-0.18,0.01-0.35-0.03-0.51-0.11c-0.16-0.07-0.29-0.17-0.41-0.29c-0.12-0.12-0.21-0.27-0.27-0.43
	c-0.06-0.17-0.1-0.35-0.1-0.53c0-0.17,0.04-0.35,0.1-0.51c0.06-0.16,0.15-0.31,0.27-0.43c0.11-0.12,0.25-0.22,0.4-0.28
	c0.16-0.07,0.33-0.11,0.5-0.11c0.18,0,0.35,0.04,0.51,0.11c0.15,0.07,0.29,0.17,0.4,0.29c0.12,0.12,0.21,0.26,0.27,0.42
	c0.06,0.16,0.09,0.34,0.09,0.51v0.11h-2.28c0.01,0.15,0.05,0.29,0.11,0.42c0.05,0.12,0.13,0.23,0.22,0.33
	c0.09,0.09,0.2,0.17,0.32,0.22c0.12,0.06,0.26,0.08,0.39,0.08c0.09,0.01,0.17,0.01,0.26,0c0.09-0.02,0.17-0.05,0.24-0.1
	c0.09-0.05,0.16-0.12,0.22-0.2c0.06-0.06,0.11-0.13,0.14-0.2l0.22,0.06c-0.04,0.1-0.09,0.18-0.16,0.26
	c-0.07,0.08-0.16,0.15-0.25,0.2c-0.1,0.06-0.21,0.1-0.32,0.13C79.63,13.68,79.51,13.7,79.39,13.69z M80.39,12.24
	c-0.01-0.14-0.04-0.28-0.1-0.41c-0.05-0.12-0.13-0.23-0.22-0.33c-0.09-0.09-0.2-0.16-0.32-0.22c-0.12-0.05-0.26-0.07-0.39-0.07
	c-0.13,0-0.26,0.02-0.38,0.07c-0.12,0.06-0.22,0.13-0.32,0.22c-0.09,0.1-0.17,0.21-0.22,0.33c-0.05,0.13-0.08,0.27-0.09,0.41H80.39z
	 M82.71,13.69c-0.21,0-0.42-0.06-0.6-0.18c-0.17-0.11-0.31-0.26-0.42-0.43v1.62h-0.25v-3.65h0.23v0.52
	c0.12-0.16,0.27-0.29,0.45-0.38c0.17-0.11,0.36-0.16,0.56-0.16c0.17,0,0.35,0.04,0.5,0.12c0.15,0.07,0.29,0.17,0.4,0.3
	c0.11,0.13,0.19,0.27,0.25,0.43c0.07,0.16,0.1,0.33,0.1,0.5c0,0.17-0.03,0.35-0.09,0.51c-0.05,0.16-0.13,0.3-0.24,0.43
	c-0.1,0.12-0.23,0.22-0.38,0.29C83.06,13.68,82.88,13.71,82.71,13.69z M82.65,13.47c0.28,0,0.54-0.13,0.72-0.35
	c0.09-0.1,0.16-0.23,0.2-0.36c0.05-0.13,0.07-0.27,0.07-0.41c0-0.15-0.02-0.29-0.08-0.43c-0.05-0.13-0.13-0.25-0.22-0.35
	c-0.09-0.1-0.21-0.19-0.33-0.25c-0.13-0.06-0.27-0.09-0.41-0.09c-0.09-0.01-0.19-0.01-0.28,0c-0.1,0.04-0.2,0.09-0.29,0.16
	c-0.09,0.06-0.17,0.13-0.23,0.22c-0.06,0.08-0.1,0.17-0.11,0.26v0.86c0.04,0.1,0.1,0.19,0.17,0.27c0.07,0.08,0.14,0.15,0.22,0.22
	c0.08,0.06,0.17,0.11,0.27,0.14C82.44,13.42,82.54,13.45,82.65,13.47z M85.57,13.69c-0.2,0-0.39-0.03-0.58-0.1
	c-0.18-0.06-0.34-0.16-0.47-0.3l0.12-0.17c0.12,0.12,0.27,0.21,0.43,0.28c0.16,0.06,0.33,0.09,0.5,0.09
	c0.19,0.01,0.38-0.04,0.54-0.14c0.14-0.09,0.21-0.24,0.21-0.4c0.02-0.07,0.02-0.13,0-0.2c-0.04-0.06-0.1-0.1-0.16-0.14
	c-0.08-0.04-0.17-0.08-0.26-0.1l-0.36-0.1c-0.13-0.02-0.26-0.06-0.38-0.1c-0.1-0.02-0.19-0.06-0.27-0.12
	c-0.07-0.04-0.12-0.1-0.15-0.17c-0.04-0.08-0.06-0.16-0.06-0.25c0-0.12,0.03-0.23,0.08-0.34c0.03-0.09,0.09-0.17,0.16-0.24
	c0.09-0.06,0.19-0.11,0.3-0.14c0.12-0.02,0.25-0.02,0.37,0c0.18,0,0.37,0.03,0.54,0.1c0.14,0.06,0.26,0.15,0.36,0.27l-0.14,0.13
	c-0.09-0.1-0.21-0.18-0.34-0.22c-0.23-0.07-0.48-0.07-0.71,0c-0.08,0.02-0.15,0.05-0.22,0.1c-0.06,0.04-0.11,0.1-0.15,0.16
	c-0.04,0.08-0.06,0.16-0.06,0.25c-0.01,0.06-0.01,0.12,0,0.18c0.03,0.05,0.07,0.09,0.12,0.12l0.21,0.09l0.31,0.08l0.44,0.11
	c0.11,0.03,0.21,0.08,0.31,0.14c0.08,0.05,0.15,0.11,0.2,0.19c0.05,0.09,0.07,0.18,0.07,0.28c0.01,0.22-0.1,0.43-0.28,0.55
	C86.04,13.69,85.8,13.72,85.57,13.69z M88.93,10.46V10h0.25v0.46H88.93z M88.93,13.64v-2.59h0.25v2.59H88.93z M91.37,13.52H91.3
	l-0.12,0.06h-0.16c-0.07,0.01-0.13,0.01-0.2,0c-0.07,0.01-0.13,0.01-0.2,0c-0.06-0.02-0.11-0.05-0.16-0.09
	c-0.04-0.04-0.08-0.09-0.11-0.14c-0.01-0.07-0.01-0.13,0-0.2v-2h-0.36v-0.2h0.36v-0.76h0.25v0.89h0.61v0.2H90.6v1.91
	c0,0.08,0.03,0.16,0.1,0.21c0.07,0.05,0.15,0.08,0.23,0.08c0.09,0,0.18-0.02,0.26-0.06l0.14-0.06L91.37,13.52z M93.7,13.64v-2.39
	h-0.36v-0.2h0.36v-0.09c-0.02-0.26,0.05-0.52,0.2-0.74c0.12-0.18,0.32-0.28,0.53-0.27c0.1-0.02,0.19-0.02,0.29,0
	c0.08,0.02,0.16,0.06,0.23,0.12l-0.09,0.18l-0.17-0.06c-0.07-0.01-0.14-0.01-0.21,0c-0.16-0.01-0.3,0.07-0.39,0.2
	c-0.1,0.18-0.15,0.38-0.14,0.59v0.09h0.74v0.2h-0.74v2.39L93.7,13.64z M96.65,11.27c-0.22,0.01-0.43,0.08-0.61,0.21
	c-0.18,0.14-0.31,0.33-0.37,0.54v1.62h-0.25v-2.59h0.24v0.64c0.08-0.18,0.2-0.33,0.36-0.45c0.14-0.11,0.3-0.18,0.48-0.2h0.15
	L96.65,11.27z M98.33,13.69c-0.17,0.01-0.35-0.03-0.5-0.11c-0.16-0.07-0.3-0.17-0.41-0.29c-0.12-0.12-0.2-0.27-0.26-0.43
	c-0.06-0.16-0.1-0.34-0.1-0.51c0-0.18,0.04-0.35,0.1-0.52c0.07-0.16,0.16-0.3,0.27-0.43c0.11-0.12,0.25-0.22,0.4-0.29
	c0.16-0.07,0.33-0.11,0.5-0.11c0.17,0,0.34,0.04,0.5,0.11c0.15,0.07,0.29,0.17,0.4,0.29c0.12,0.12,0.21,0.27,0.27,0.43
	c0.07,0.16,0.1,0.34,0.1,0.52c0,0.18-0.03,0.35-0.1,0.51c-0.06,0.16-0.14,0.31-0.26,0.43c-0.11,0.12-0.25,0.22-0.41,0.29
	C98.68,13.66,98.5,13.7,98.33,13.69z M97.33,12.36c0,0.29,0.1,0.57,0.3,0.78c0.09,0.1,0.2,0.18,0.32,0.24
	c0.12,0.06,0.26,0.09,0.4,0.09c0.14,0,0.27-0.03,0.39-0.09c0.12-0.06,0.23-0.14,0.33-0.24c0.09-0.11,0.16-0.23,0.22-0.36
	c0.05-0.14,0.08-0.29,0.08-0.44c0-0.15-0.03-0.29-0.08-0.43c-0.06-0.13-0.13-0.25-0.22-0.35c-0.09-0.1-0.21-0.18-0.33-0.24
	c-0.25-0.12-0.53-0.12-0.78,0c-0.12,0.06-0.23,0.14-0.32,0.24c-0.1,0.1-0.17,0.23-0.22,0.36c-0.07,0.14-0.1,0.29-0.11,0.44H97.33z
	 M104.26,13.64h-0.25v-1.45c0.02-0.25-0.03-0.5-0.15-0.72c-0.1-0.16-0.28-0.25-0.47-0.24c-0.1,0-0.21,0.02-0.3,0.06
	c-0.1,0.04-0.19,0.1-0.27,0.17c-0.08,0.07-0.15,0.15-0.2,0.25c-0.06,0.1-0.11,0.21-0.14,0.33v1.6h-0.25v-1.45
	c0.02-0.25-0.03-0.5-0.15-0.73c-0.1-0.15-0.28-0.24-0.46-0.23c-0.11,0-0.21,0.02-0.31,0.06c-0.09,0.04-0.18,0.09-0.26,0.16
	c-0.08,0.08-0.15,0.16-0.21,0.26c-0.06,0.1-0.11,0.21-0.14,0.32v1.61h-0.25v-2.59h0.23v0.62c0.1-0.2,0.25-0.36,0.44-0.48
	c0.17-0.12,0.37-0.18,0.58-0.18c0.2-0.01,0.39,0.07,0.53,0.2c0.14,0.13,0.23,0.32,0.24,0.51c0.17-0.41,0.56-0.69,1-0.71
	c0.24-0.02,0.48,0.09,0.61,0.3c0.13,0.26,0.2,0.56,0.18,0.85V13.64z M107.86,13.69c-0.17,0-0.34-0.04-0.5-0.11
	c-0.15-0.08-0.28-0.18-0.39-0.3c-0.11-0.13-0.2-0.27-0.26-0.43c-0.06-0.16-0.09-0.33-0.09-0.5c0-0.17,0.03-0.35,0.08-0.51
	c0.06-0.16,0.15-0.3,0.25-0.43c0.11-0.12,0.24-0.22,0.38-0.3c0.15-0.07,0.31-0.11,0.48-0.11c0.11-0.02,0.21-0.02,0.32,0l0.28,0.13
	c0.08,0.06,0.16,0.13,0.23,0.2c0.07,0.07,0.13,0.15,0.18,0.23V10h0.3v3.29c0,0.09,0,0.13,0.11,0.13v0.22h-0.11
	c-0.07,0.01-0.13-0.03-0.17-0.08c-0.05-0.04-0.07-0.1-0.07-0.16v-0.29c-0.11,0.17-0.25,0.32-0.43,0.42
	C108.27,13.64,108.07,13.69,107.86,13.69z M107.91,13.47c0.1,0,0.2-0.02,0.29-0.06c0.1-0.03,0.2-0.08,0.28-0.15
	c0.09-0.06,0.16-0.14,0.23-0.22c0.06-0.08,0.1-0.17,0.11-0.27v-0.85c-0.04-0.1-0.09-0.19-0.16-0.27c-0.06-0.09-0.14-0.16-0.23-0.22
	c-0.09-0.06-0.18-0.11-0.28-0.15c-0.1-0.02-0.19-0.02-0.29,0c-0.14,0-0.28,0.03-0.41,0.09c-0.12,0.07-0.22,0.15-0.31,0.26
	c-0.09,0.1-0.16,0.23-0.2,0.36c-0.05,0.13-0.07,0.27-0.07,0.41c0,0.15,0.03,0.29,0.08,0.43c0.05,0.13,0.13,0.25,0.22,0.35
	c0.09,0.1,0.21,0.19,0.33,0.25C107.63,13.47,107.77,13.49,107.91,13.47z M110.75,13.69c-0.11,0-0.22-0.02-0.33-0.06
	c-0.1-0.04-0.19-0.09-0.27-0.17c-0.08-0.07-0.14-0.16-0.19-0.25c-0.04-0.1-0.06-0.21-0.06-0.32c0-0.11,0.03-0.22,0.08-0.31
	c0.05-0.1,0.13-0.18,0.22-0.24c0.1-0.07,0.22-0.13,0.34-0.16c0.14-0.04,0.29-0.06,0.44-0.06c0.14-0.01,0.28-0.01,0.42,0
	c0.13,0.02,0.26,0.05,0.39,0.1v-0.26c0.01-0.21-0.06-0.42-0.21-0.58c-0.15-0.15-0.36-0.23-0.57-0.22c-0.14,0-0.27,0.03-0.4,0.08
	c-0.16,0.06-0.3,0.13-0.44,0.23l-0.09-0.17c0.29-0.21,0.64-0.33,1-0.34c0.27-0.02,0.54,0.08,0.74,0.27c0.19,0.2,0.29,0.47,0.27,0.75
	v1.31c0,0.09,0,0.13,0.1,0.13v0.22h-0.1c-0.06,0-0.12-0.02-0.16-0.07c-0.04-0.04-0.06-0.1-0.06-0.16v-0.22
	c-0.13,0.15-0.28,0.27-0.46,0.36C111.2,13.64,110.98,13.69,110.75,13.69z M110.8,13.49c0.18,0.01,0.36-0.03,0.53-0.11
	c0.15-0.06,0.28-0.16,0.37-0.29c0.05-0.05,0.09-0.12,0.09-0.2v-0.46c-0.12-0.04-0.25-0.08-0.38-0.1c-0.13-0.01-0.27-0.01-0.4,0
	c-0.12,0-0.24,0.02-0.36,0.05c-0.09,0.02-0.19,0.06-0.27,0.11c-0.15,0.09-0.24,0.25-0.24,0.42c-0.01,0.08-0.01,0.17,0,0.25
	c0.03,0.07,0.08,0.14,0.14,0.19c0.13,0.12,0.3,0.18,0.47,0.18L110.8,13.49z M116.85,13.64h-0.24v-1.45c0.01-0.25-0.04-0.5-0.16-0.72
	c-0.1-0.16-0.27-0.25-0.46-0.24c-0.11,0-0.21,0.02-0.31,0.06c-0.09,0.04-0.18,0.1-0.26,0.17c-0.08,0.07-0.15,0.16-0.21,0.25
	c-0.06,0.1-0.11,0.22-0.14,0.33v1.6h-0.25v-1.45c0.02-0.25-0.03-0.5-0.15-0.73c-0.1-0.15-0.28-0.24-0.46-0.23
	c-0.1,0-0.21,0.02-0.3,0.06c-0.1,0.04-0.18,0.09-0.26,0.16c-0.08,0.08-0.16,0.16-0.22,0.26c-0.06,0.1-0.1,0.21-0.14,0.32v1.61h-0.25
	v-2.59h0.24v0.62c0.09-0.2,0.24-0.37,0.42-0.49c0.17-0.12,0.37-0.18,0.57-0.18c0.2-0.01,0.39,0.06,0.53,0.2
	c0.14,0.14,0.23,0.32,0.25,0.51c0.16-0.41,0.56-0.69,1-0.71c0.24-0.02,0.47,0.09,0.6,0.3c0.13,0.26,0.2,0.56,0.18,0.85L116.85,13.64
	z M118.5,13.69c-0.12,0-0.23-0.02-0.34-0.06c-0.1-0.04-0.19-0.1-0.27-0.17c-0.08-0.07-0.14-0.15-0.18-0.25
	c-0.05-0.1-0.07-0.21-0.07-0.32c0-0.11,0.03-0.22,0.08-0.31c0.06-0.1,0.14-0.18,0.23-0.24c0.1-0.07,0.22-0.13,0.34-0.16
	c0.14-0.04,0.29-0.06,0.44-0.06c0.14-0.01,0.28-0.01,0.42,0c0.13,0.02,0.26,0.05,0.38,0.1v-0.26c0.01-0.21-0.06-0.42-0.21-0.58
	c-0.15-0.15-0.36-0.23-0.57-0.22c-0.14,0-0.27,0.03-0.4,0.08c-0.15,0.06-0.3,0.13-0.43,0.23l-0.1-0.17c0.29-0.21,0.64-0.33,1-0.34
	c0.27-0.02,0.54,0.08,0.74,0.27c0.19,0.2,0.29,0.47,0.27,0.75v1.31c0,0.09,0,0.13,0.11,0.13v0.22h-0.1c-0.06,0-0.12-0.02-0.16-0.07
	c-0.04-0.04-0.07-0.1-0.07-0.16v-0.22c-0.12,0.15-0.28,0.28-0.46,0.36C118.95,13.64,118.72,13.69,118.5,13.69z M118.55,13.49
	c0.18,0.01,0.36-0.03,0.53-0.11c0.15-0.06,0.27-0.16,0.37-0.29c0.05-0.06,0.08-0.13,0.08-0.2v-0.46c-0.12-0.04-0.24-0.08-0.37-0.1
	c-0.14-0.01-0.27-0.01-0.41,0c-0.12,0-0.24,0.02-0.35,0.05c-0.1,0.02-0.19,0.06-0.28,0.11c-0.07,0.05-0.13,0.11-0.17,0.19
	c-0.05,0.07-0.07,0.15-0.07,0.23c-0.01,0.08-0.01,0.17,0,0.25c0.04,0.07,0.08,0.14,0.14,0.19c0.06,0.06,0.13,0.1,0.21,0.13
	C118.33,13.51,118.44,13.51,118.55,13.49z M121.83,13.68c-0.17,0-0.34-0.04-0.49-0.11c-0.15-0.08-0.28-0.18-0.39-0.3
	c-0.11-0.13-0.19-0.27-0.25-0.43c-0.06-0.16-0.09-0.32-0.09-0.49c0-0.17,0.03-0.35,0.08-0.51c0.06-0.16,0.14-0.3,0.25-0.43
	c0.11-0.12,0.23-0.23,0.38-0.3c0.15-0.07,0.32-0.11,0.49-0.11c0.21-0.01,0.42,0.06,0.6,0.18c0.16,0.12,0.31,0.26,0.42,0.43v-0.56
	h0.23v2.64c0.01,0.16-0.03,0.32-0.1,0.47c-0.06,0.13-0.15,0.24-0.26,0.33c-0.12,0.09-0.25,0.15-0.39,0.2
	c-0.15,0.04-0.31,0.06-0.47,0.06c-0.13,0.02-0.27,0.02-0.4,0c-0.11-0.03-0.22-0.07-0.32-0.12c-0.09-0.05-0.18-0.12-0.25-0.19
	c-0.07-0.07-0.13-0.15-0.18-0.24l0.17-0.12c0.09,0.17,0.24,0.31,0.42,0.39c0.18,0.08,0.37,0.12,0.56,0.12
	c0.13,0.02,0.25,0.02,0.38,0c0.11-0.04,0.22-0.1,0.31-0.17c0.08-0.08,0.15-0.16,0.21-0.26c0.05-0.12,0.07-0.25,0.07-0.38v-0.57
	c-0.1,0.17-0.25,0.31-0.42,0.41C122.21,13.69,122.02,13.71,121.83,13.68z M121.89,13.47c0.11,0,0.23-0.02,0.33-0.07
	c0.1-0.04,0.2-0.09,0.28-0.16c0.08-0.06,0.16-0.13,0.21-0.22c0.05-0.07,0.09-0.16,0.1-0.25v-0.85c-0.04-0.1-0.09-0.2-0.16-0.28
	c-0.06-0.09-0.13-0.16-0.22-0.22c-0.09-0.06-0.18-0.11-0.28-0.14c-0.1-0.02-0.2-0.02-0.3,0c-0.14,0-0.28,0.03-0.41,0.1
	c-0.13,0.06-0.23,0.15-0.32,0.26c-0.09,0.11-0.15,0.23-0.19,0.36c-0.05,0.13-0.07,0.26-0.07,0.4c0,0.15,0.03,0.29,0.08,0.43
	c0.06,0.13,0.13,0.25,0.22,0.35c0.09,0.11,0.2,0.19,0.33,0.25C121.62,13.47,121.76,13.49,121.89,13.47z M125.19,13.69
	c-0.18,0-0.35-0.03-0.51-0.11c-0.15-0.07-0.29-0.17-0.4-0.29c-0.12-0.12-0.21-0.27-0.27-0.43c-0.07-0.17-0.1-0.35-0.1-0.53
	c0-0.18,0.03-0.35,0.1-0.51c0.06-0.16,0.15-0.3,0.26-0.43c0.12-0.12,0.26-0.21,0.41-0.28c0.16-0.07,0.33-0.11,0.5-0.11
	c0.18,0,0.35,0.04,0.51,0.11c0.15,0.07,0.29,0.17,0.4,0.29c0.11,0.12,0.2,0.27,0.27,0.42c0.06,0.16,0.09,0.34,0.09,0.51v0.11h-2.28
	c0.01,0.14,0.04,0.29,0.1,0.42c0.06,0.12,0.13,0.23,0.23,0.33c0.09,0.1,0.2,0.17,0.32,0.22c0.21,0.08,0.44,0.08,0.65,0
	c0.08-0.02,0.17-0.05,0.24-0.1c0.08-0.04,0.14-0.1,0.2-0.16c0.06-0.06,0.11-0.13,0.14-0.2l0.22,0.06c-0.04,0.1-0.1,0.18-0.17,0.26
	c-0.07,0.08-0.15,0.15-0.25,0.2c-0.1,0.06-0.2,0.1-0.31,0.13C125.43,13.65,125.31,13.68,125.19,13.69z M126.19,12.24
	c-0.01-0.14-0.04-0.28-0.1-0.41c-0.05-0.12-0.13-0.24-0.23-0.33c-0.09-0.09-0.2-0.16-0.31-0.22c-0.12-0.05-0.26-0.07-0.39-0.07
	c-0.13,0-0.26,0.02-0.38,0.07c-0.12,0.06-0.23,0.13-0.32,0.22c-0.09,0.1-0.17,0.21-0.22,0.33c-0.05,0.13-0.09,0.27-0.1,0.41H126.19z
	 M127.19,13.64v-0.45h0.22v0.42L127.19,13.64z"/>
<path class="st2" d="M7.91-30.39c0,0.34-0.08,0.68-0.21,1c-0.13,0.33-0.33,0.62-0.57,0.88c-0.24,0.26-0.53,0.47-0.85,0.61
	c-0.31,0.14-0.65,0.22-1,0.22H0.32v-10.59h4.71c0.35,0,0.69,0.08,1,0.24c0.3,0.15,0.56,0.36,0.77,0.62
	c0.21,0.26,0.38,0.55,0.49,0.87c0.11,0.32,0.17,0.66,0.17,1c0,0.52-0.14,1.04-0.41,1.49c-0.26,0.44-0.65,0.79-1.12,1
	c0.29,0.09,0.57,0.22,0.82,0.4c0.24,0.18,0.45,0.39,0.63,0.63c0.17,0.24,0.3,0.51,0.39,0.79C7.86-30.96,7.91-30.68,7.91-30.39z
	 M0.62-37.97v4.83h4.32c0.31,0,0.62-0.07,0.9-0.21c0.27-0.14,0.5-0.33,0.7-0.56c0.19-0.23,0.34-0.49,0.45-0.77
	c0.1-0.28,0.14-0.58,0.13-0.88c0-0.31-0.05-0.62-0.16-0.91c-0.1-0.28-0.24-0.55-0.43-0.78c-0.17-0.23-0.39-0.42-0.64-0.56
	C5.62-37.94,5.33-38,5.03-38L0.62-37.97z M7.62-30.39c0-0.31-0.06-0.63-0.17-0.92c-0.12-0.29-0.28-0.55-0.48-0.79
	c-0.2-0.23-0.44-0.41-0.71-0.54c-0.28-0.14-0.58-0.21-0.89-0.2H0.62v4.91h4.63c0.32,0,0.64-0.07,0.93-0.21
	c0.28-0.14,0.53-0.32,0.75-0.55c0.21-0.23,0.38-0.5,0.5-0.79c0.12-0.29,0.18-0.6,0.18-0.91H7.62z M10.12-27.63v-10.64h0.3v10.34h6.7
	v0.3L10.12-27.63z M18.83-27.63v-10.64h0.29v10.64H18.83z M28.24-36.81c-0.35-0.44-0.8-0.78-1.31-1c-0.52-0.18-1.08-0.26-1.63-0.25
	c-0.53-0.01-1.05,0.05-1.56,0.18c-0.39,0.1-0.76,0.27-1.08,0.51c-0.27,0.22-0.48,0.49-0.61,0.81c-0.14,0.33-0.2,0.69-0.2,1.05
	c-0.01,0.33,0.06,0.65,0.2,0.95c0.14,0.26,0.35,0.48,0.6,0.64c0.31,0.2,0.65,0.35,1,0.45c0.43,0.13,0.93,0.25,1.52,0.37
	c0.59,0.12,1.13,0.25,1.61,0.39c0.43,0.12,0.84,0.3,1.22,0.52c0.31,0.2,0.58,0.46,0.77,0.78c0.56,1.08,0.29,2.4-0.65,3.17
	c-0.83,0.5-1.79,0.74-2.76,0.69c-0.78,0.02-1.55-0.12-2.28-0.4c-0.7-0.28-1.33-0.71-1.86-1.25l0.23-0.2
	c0.49,0.53,1.09,0.95,1.76,1.22c0.69,0.26,1.43,0.38,2.17,0.37c0.88,0.05,1.75-0.16,2.51-0.59c0.61-0.39,0.96-1.07,0.92-1.79
	c0.01-0.35-0.06-0.69-0.21-1c-0.15-0.29-0.37-0.53-0.64-0.71c-0.34-0.22-0.72-0.4-1.11-0.51c-0.53-0.16-1.07-0.3-1.62-0.4
	c-0.59-0.11-1.11-0.23-1.57-0.36c-0.41-0.1-0.79-0.26-1.15-0.48c-0.3-0.17-0.55-0.43-0.72-0.73c-0.17-0.34-0.25-0.72-0.24-1.1
	c-0.01-0.43,0.08-0.85,0.27-1.23c0.17-0.36,0.43-0.66,0.75-0.9c0.35-0.26,0.75-0.44,1.17-0.55c0.5-0.13,1.01-0.2,1.53-0.19
	c0.61-0.01,1.21,0.09,1.78,0.29c0.53,0.22,1.01,0.56,1.39,1L28.24-36.81z M38.29-37.97h-4.08v10.34h-0.3v-10.34h-4.08v-0.3h8.46
	V-37.97z M47.03-27.93v0.3h-7v-10.64h6.85v0.3h-6.53v4.75h5.77v0.3h-5.77v5L47.03-27.93z M49.3-27.63v-10.64h4.33
	c0.42,0,0.83,0.09,1.2,0.27c0.36,0.18,0.69,0.43,0.95,0.74c0.27,0.29,0.48,0.63,0.63,1c0.15,0.38,0.22,0.78,0.22,1.18
	c0.01,0.43-0.05,0.86-0.19,1.27c-0.13,0.36-0.32,0.7-0.56,1c-0.24,0.29-0.53,0.53-0.86,0.72c-0.34,0.18-0.71,0.29-1.1,0.32l2.7,4.18
	h-0.36l-2.7-4.22h-4v4.18H49.3z M49.6-32.11h4.14c0.38,0.01,0.75-0.08,1.08-0.25c0.31-0.17,0.59-0.39,0.81-0.67
	c0.23-0.28,0.4-0.6,0.52-0.94c0.12-0.35,0.18-0.71,0.18-1.08c0-0.37-0.07-0.74-0.21-1.09c-0.13-0.34-0.33-0.66-0.58-0.93
	c-0.24-0.27-0.54-0.49-0.86-0.66c-0.33-0.16-0.69-0.24-1.05-0.24h-4L49.6-32.11z M62.84-27.63v-10.64h4.33
	c0.42,0,0.83,0.09,1.2,0.27c0.38,0.18,0.72,0.43,1,0.74c0.26,0.3,0.47,0.63,0.62,1c0.15,0.38,0.22,0.78,0.22,1.18
	c-0.01,0.43-0.09,0.87-0.25,1.27c-0.13,0.37-0.33,0.71-0.59,1c-0.25,0.3-0.56,0.54-0.91,0.72c-0.37,0.18-0.77,0.27-1.18,0.27h-4.16
	v4.18L62.84-27.63z M63.12-32.11h4.14c0.38,0.01,0.75-0.08,1.09-0.25c0.31-0.17,0.59-0.4,0.81-0.68c0.22-0.28,0.39-0.6,0.51-0.94
	c0.12-0.34,0.18-0.71,0.18-1.07c0-0.37-0.07-0.74-0.21-1.09c-0.27-0.69-0.78-1.26-1.44-1.59c-0.31-0.15-0.65-0.23-1-0.24h-4.08
	V-32.11z M74.88-38.27h0.24l4.64,10.64h-0.33l-1.67-3.8h-5.53l-1.67,3.8h-0.33L74.88-38.27z M77.66-31.73l-2.64-6.08l-2.67,6.11
	L77.66-31.73z M80.4-33.02c0-0.65,0.12-1.3,0.34-1.91c0.23-0.62,0.57-1.2,1-1.7c0.43-0.49,0.96-0.9,1.55-1.18
	c0.66-0.33,1.39-0.49,2.13-0.47c0.85-0.03,1.7,0.2,2.42,0.65c0.64,0.41,1.15,0.99,1.47,1.67l-0.29,0.09c-0.19-0.37-0.43-0.7-0.72-1
	c-0.27-0.26-0.57-0.48-0.9-0.65c-0.31-0.17-0.65-0.29-1-0.36c-0.33-0.07-0.66-0.11-1-0.11c-0.69-0.02-1.38,0.13-2,0.44
	c-0.57,0.28-1.07,0.68-1.47,1.16c-0.4,0.46-0.71,1-0.92,1.58c-0.21,0.58-0.31,1.2-0.31,1.82c-0.01,0.68,0.12,1.36,0.37,2
	c0.23,0.6,0.57,1.16,1,1.64c0.42,0.47,0.93,0.85,1.5,1.13c0.57,0.28,1.2,0.42,1.84,0.42c0.36,0,0.73-0.04,1.08-0.13
	c0.37-0.09,0.73-0.23,1.07-0.41c0.37-0.18,0.7-0.41,1-0.69c0.3-0.29,0.56-0.63,0.76-1l0.28,0.08c-0.18,0.4-0.42,0.75-0.73,1.06
	c-0.3,0.3-0.63,0.57-1,0.78c-0.38,0.21-0.78,0.37-1.2,0.48c-0.41,0.1-0.82,0.15-1.24,0.15c-0.7,0.01-1.38-0.16-2-0.48
	c-0.6-0.31-1.14-0.73-1.57-1.25c-0.44-0.52-0.77-1.11-1-1.75C80.58-31.61,80.42-32.31,80.4-33.02z M91.62-27.63v-10.64h0.3v6.91
	l6.78-6.91h0.42l-4.54,4.65l4.75,6h-0.39l-4.58-5.79l-2.44,2.47v3.31H91.62z M104.37-38.27h0.27l4.63,10.64h-0.33l-1.67-3.8h-5.56
	l-1.66,3.8h-0.33L104.37-38.27z M107.12-31.73l-2.62-6.08l-2.67,6.11L107.12-31.73z M118.75-29.44c-0.93,1.17-2.34,1.87-3.84,1.89
	c-0.69,0-1.38-0.16-2-0.47c-0.61-0.31-1.15-0.73-1.59-1.24c-0.43-0.51-0.77-1.1-1-1.73c-0.24-0.64-0.37-1.32-0.37-2
	c0-1.37,0.48-2.69,1.36-3.74c0.42-0.5,0.94-0.91,1.53-1.21c0.62-0.31,1.31-0.46,2-0.45c0.5,0,0.99,0.05,1.47,0.17
	c0.4,0.11,0.78,0.27,1.14,0.48c0.32,0.2,0.6,0.45,0.84,0.74c0.24,0.29,0.45,0.6,0.61,0.94l-0.28,0.09c-0.35-0.69-0.9-1.25-1.58-1.62
	c-0.68-0.34-1.44-0.51-2.2-0.5c-0.66-0.01-1.3,0.14-1.89,0.44c-0.55,0.29-1.04,0.69-1.43,1.17c-0.4,0.48-0.71,1.04-0.91,1.63
	c-0.21,0.6-0.32,1.23-0.32,1.86c0,0.66,0.13,1.32,0.37,1.93c0.23,0.59,0.57,1.14,1,1.62c0.42,0.47,0.93,0.85,1.5,1.13
	c0.58,0.28,1.21,0.42,1.85,0.42c0.7,0,1.38-0.16,2-0.48c0.66-0.37,1.25-0.86,1.74-1.44v-2.58h-2.51v-0.3h2.81v5.06h-0.3
	L118.75-29.44z M128.44-27.93v0.3h-7v-10.64h6.85v0.3h-6.55v4.75h5.74v0.3h-5.74v5L128.44-27.93z M128.76-11.92H-0.07v0.2h128.83
	V-11.92z"/>
</svg>
