<?xml version="1.0" encoding="utf-8"?>
<!-- Generator: Adobe Illustrator 22.0.0, SVG Export Plug-In . SVG Version: 6.00 Build 0)  -->
<svg version="1.1" id="Layer_1" xmlns="http://www.w3.org/2000/svg" xmlns:xlink="http://www.w3.org/1999/xlink" x="0px" y="0px"
	 viewBox="0 0 114.83 47.1" style="enable-background:new 0 0 114.83 47.1;" xml:space="preserve">
<style type="text/css">
	.st0{fill:#C62026;}
	.st1{display:none;fill:#010101;}
	.st2{fill:#010101;}
</style>
<path class="st0" d="M1.21,10.65V0h0.3v10.65H1.21z M4.48,10.65V0h0.3v10.65H4.48z M7.75,10.65V0h0.3v10.65H7.75z M10.57,10.65v-1
	h0.3v1H10.57z"/>
<path class="st1" d="M1,60.66c0.01-0.23,0.06-0.45,0.15-0.66c0.08-0.21,0.19-0.4,0.33-0.57c0.15-0.17,0.33-0.3,0.53-0.4
	c0.22-0.11,0.46-0.17,0.71-0.16c0.29-0.01,0.57,0.07,0.81,0.22c0.21,0.13,0.39,0.32,0.5,0.55l-0.21,0.12
	c-0.06-0.11-0.14-0.22-0.23-0.31c-0.08-0.08-0.17-0.15-0.27-0.2C3.22,59.2,3.11,59.17,3,59.16c-0.1-0.01-0.21-0.01-0.31,0
	c-0.21,0-0.41,0.04-0.6,0.14c-0.17,0.09-0.32,0.21-0.44,0.36c-0.12,0.14-0.21,0.31-0.27,0.49c-0.06,0.18-0.09,0.37-0.09,0.56
	c0,0.21,0.03,0.41,0.11,0.6c0.07,0.18,0.17,0.35,0.3,0.5c0.12,0.15,0.27,0.27,0.44,0.35c0.18,0.08,0.37,0.13,0.56,0.13
	c0.11,0.01,0.22,0.01,0.33,0c0.12-0.03,0.23-0.07,0.33-0.13c0.11-0.06,0.2-0.13,0.29-0.21c0.09-0.09,0.16-0.2,0.22-0.32l0.22,0.11
	c-0.06,0.13-0.14,0.25-0.24,0.35c-0.1,0.1-0.22,0.19-0.35,0.26c-0.13,0.07-0.26,0.12-0.4,0.16c-0.14,0.01-0.28,0.01-0.42,0
	c-0.24,0-0.47-0.07-0.68-0.19c-0.2-0.1-0.38-0.24-0.53-0.41c-0.14-0.18-0.25-0.38-0.34-0.59C1.05,61.11,1,60.89,1,60.66z M6,62.5
	c-0.18,0-0.35-0.03-0.51-0.11c-0.31-0.14-0.55-0.4-0.66-0.72c-0.07-0.16-0.1-0.33-0.1-0.51c0-0.18,0.04-0.35,0.1-0.52
	c0.06-0.16,0.15-0.3,0.27-0.43c0.35-0.39,0.92-0.51,1.4-0.29c0.15,0.07,0.29,0.17,0.4,0.29c0.12,0.12,0.21,0.27,0.27,0.43
	c0.07,0.16,0.1,0.34,0.1,0.52c0,0.18-0.03,0.35-0.1,0.51c-0.06,0.16-0.15,0.31-0.27,0.43c-0.11,0.13-0.25,0.23-0.4,0.29
	C6.35,62.47,6.17,62.51,6,62.5z M5,61.17c0,0.29,0.1,0.57,0.3,0.78c0.09,0.1,0.2,0.18,0.32,0.24c0.12,0.06,0.26,0.09,0.4,0.09
	c0.14,0,0.27-0.03,0.39-0.09c0.11-0.05,0.2-0.11,0.29-0.19c0.1-0.1,0.17-0.23,0.22-0.36c0.07-0.15,0.09-0.32,0.08-0.49
	c0-0.15-0.02-0.29-0.08-0.43c-0.05-0.13-0.12-0.25-0.22-0.35c-0.09-0.1-0.2-0.18-0.32-0.24c-0.25-0.12-0.53-0.12-0.78,0
	c-0.12,0.06-0.24,0.14-0.33,0.24c-0.09,0.11-0.16,0.23-0.21,0.36C5.01,60.87,4.99,61.02,5,61.17z M11.92,62.45h-0.25V61
	c0.02-0.25-0.03-0.5-0.15-0.72c-0.1-0.16-0.28-0.25-0.47-0.24c-0.1,0-0.21,0.02-0.3,0.06c-0.1,0.04-0.19,0.1-0.27,0.17
	c-0.08,0.07-0.15,0.15-0.2,0.25c-0.06,0.1-0.11,0.21-0.14,0.33v1.6H9.89V61c0.02-0.25-0.03-0.5-0.15-0.73C9.64,60.1,9.46,60,9.27,60
	c-0.1,0-0.2,0.02-0.3,0.06c-0.09,0.04-0.18,0.09-0.26,0.16c-0.08,0.08-0.15,0.16-0.21,0.26c-0.06,0.1-0.11,0.21-0.14,0.32v1.61H8.11
	v-2.55h0.23v0.62c0.1-0.19,0.24-0.36,0.42-0.48c0.17-0.12,0.37-0.18,0.57-0.18c0.2-0.01,0.39,0.07,0.54,0.2
	c0.14,0.14,0.22,0.32,0.24,0.51c0.17-0.41,0.56-0.69,1-0.71c0.24-0.02,0.48,0.09,0.61,0.3c0.13,0.26,0.2,0.56,0.18,0.85L11.92,62.45
	z M14.19,62.5c-0.21,0-0.42-0.06-0.6-0.18c-0.17-0.11-0.31-0.26-0.42-0.43v1.62h-0.25v-3.65h0.23v0.52
	c0.11-0.17,0.25-0.31,0.42-0.41c0.33-0.19,0.73-0.19,1.06,0c0.15,0.07,0.29,0.17,0.4,0.3c0.11,0.13,0.2,0.27,0.26,0.43
	c0.06,0.16,0.09,0.33,0.09,0.5c0,0.17-0.03,0.35-0.09,0.51c-0.05,0.16-0.13,0.31-0.24,0.43c-0.1,0.13-0.23,0.23-0.38,0.29
	C14.52,62.49,14.35,62.52,14.19,62.5z M14.13,62.28c0.14,0,0.28-0.03,0.41-0.1c0.12-0.06,0.23-0.14,0.31-0.25
	c0.09-0.1,0.16-0.23,0.2-0.36c0.05-0.13,0.07-0.27,0.07-0.41c0-0.15-0.02-0.29-0.08-0.43c-0.05-0.13-0.12-0.25-0.22-0.35
	c-0.09-0.11-0.2-0.19-0.33-0.25c-0.13-0.06-0.27-0.09-0.41-0.09c-0.1,0-0.19,0.02-0.28,0.05c-0.1,0.04-0.2,0.09-0.29,0.16
	c-0.09,0.06-0.17,0.13-0.23,0.22c-0.06,0.08-0.1,0.17-0.11,0.26v0.86c0.04,0.1,0.1,0.19,0.17,0.27c0.07,0.08,0.14,0.15,0.22,0.22
	c0.08,0.06,0.17,0.11,0.27,0.14C13.93,62.26,14.03,62.28,14.13,62.28z M16.86,62.5c-0.11,0-0.22-0.02-0.33-0.06
	c-0.1-0.04-0.19-0.1-0.27-0.17c-0.08-0.07-0.14-0.15-0.18-0.25C16.03,61.92,16,61.81,16,61.7c0-0.11,0.03-0.22,0.08-0.31
	c0.05-0.1,0.13-0.18,0.22-0.24c0.1-0.07,0.22-0.13,0.34-0.16c0.14-0.04,0.29-0.06,0.44-0.06c0.14-0.01,0.29-0.01,0.43,0
	c0.13,0.02,0.26,0.05,0.38,0.1v-0.26c0.01-0.21-0.06-0.42-0.21-0.58c-0.15-0.15-0.36-0.23-0.57-0.22c-0.14,0-0.27,0.03-0.4,0.08
	c-0.15,0.06-0.3,0.13-0.43,0.23l-0.1-0.17c0.28-0.2,0.61-0.32,0.95-0.34c0.27-0.02,0.54,0.08,0.74,0.27
	c0.19,0.2,0.29,0.47,0.27,0.75v1.31c0,0.09,0,0.13,0.11,0.13v0.22h-0.1c-0.06,0-0.12-0.02-0.16-0.07c-0.04-0.04-0.07-0.1-0.07-0.16
	V62c-0.13,0.15-0.28,0.27-0.46,0.36C17.27,62.45,17.07,62.49,16.86,62.5z M16.91,62.3c0.19,0.01,0.37-0.03,0.54-0.11
	c0.15-0.06,0.27-0.16,0.37-0.29c0.05-0.06,0.08-0.13,0.08-0.2v-0.46c-0.12-0.04-0.25-0.08-0.38-0.1c-0.13-0.01-0.27-0.01-0.4,0
	c-0.12-0.02-0.24-0.02-0.36,0c-0.09,0.02-0.19,0.06-0.27,0.11c-0.15,0.09-0.24,0.25-0.24,0.42c0,0.09,0.02,0.17,0.05,0.25
	c0.03,0.07,0.08,0.14,0.14,0.19c0.13,0.12,0.3,0.18,0.47,0.18V62.3z M20.38,60.08c-0.22,0.01-0.43,0.08-0.61,0.21
	c-0.18,0.14-0.31,0.33-0.37,0.54v1.62h-0.25v-2.59h0.24v0.64c0.08-0.18,0.2-0.33,0.36-0.45c0.14-0.11,0.3-0.18,0.48-0.2h0.15
	L20.38,60.08z M22.08,62.5c-0.18,0-0.35-0.03-0.51-0.11c-0.15-0.07-0.29-0.17-0.41-0.29c-0.11-0.13-0.2-0.27-0.27-0.43
	c-0.06-0.17-0.09-0.35-0.09-0.53c0-0.17,0.03-0.35,0.09-0.51c0.07-0.16,0.16-0.3,0.27-0.43c0.11-0.12,0.25-0.21,0.4-0.28
	c0.16-0.07,0.33-0.11,0.5-0.11c0.18,0,0.35,0.04,0.51,0.11c0.15,0.07,0.29,0.17,0.41,0.29c0.11,0.12,0.2,0.26,0.26,0.42
	c0.06,0.16,0.1,0.34,0.1,0.51v0.07l0,0h-2.28c0.01,0.14,0.04,0.29,0.1,0.42c0.06,0.12,0.13,0.23,0.23,0.33
	c0.09,0.1,0.19,0.17,0.31,0.22c0.12,0.06,0.26,0.08,0.39,0.08c0.09,0.02,0.17,0.02,0.26,0c0.09-0.02,0.17-0.05,0.24-0.1
	c0.08-0.04,0.15-0.09,0.2-0.16c0.06-0.06,0.11-0.12,0.14-0.2l0.22,0.06c-0.03,0.1-0.09,0.19-0.16,0.26
	c-0.07,0.08-0.16,0.15-0.25,0.2c-0.1,0.06-0.2,0.1-0.31,0.13C22.32,62.49,22.2,62.5,22.08,62.5z M23.08,61.05
	c-0.01-0.14-0.05-0.28-0.11-0.41c-0.05-0.12-0.13-0.24-0.22-0.33c-0.09-0.09-0.2-0.16-0.32-0.22c-0.12-0.05-0.25-0.07-0.38-0.07
	c-0.13,0-0.27,0.02-0.39,0.07c-0.11,0.06-0.22,0.13-0.31,0.22c-0.09,0.09-0.17,0.21-0.22,0.33c-0.06,0.13-0.09,0.27-0.1,0.41H23.08z
	 M25.2,62.5c-0.17,0-0.34-0.04-0.5-0.11c-0.15-0.08-0.28-0.18-0.39-0.3c-0.11-0.13-0.2-0.27-0.26-0.43
	c-0.06-0.16-0.09-0.33-0.09-0.5c0-0.17,0.03-0.35,0.08-0.51c0.06-0.16,0.14-0.3,0.25-0.43c0.11-0.12,0.24-0.22,0.38-0.3
	c0.15-0.07,0.31-0.11,0.48-0.11c0.11-0.02,0.21-0.02,0.32,0l0.28,0.13c0.08,0.06,0.16,0.13,0.23,0.2c0.07,0.07,0.13,0.15,0.18,0.23
	v-1.56h0.25v3.29c0,0.09,0,0.13,0.1,0.13v0.22h-0.09c-0.07,0-0.13-0.03-0.17-0.08c-0.04-0.04-0.06-0.1-0.06-0.16v-0.29
	c-0.11,0.17-0.25,0.32-0.43,0.42C25.59,62.44,25.4,62.5,25.2,62.5z M25.25,62.28c0.1,0,0.2-0.02,0.29-0.06
	c0.1-0.03,0.2-0.08,0.28-0.15c0.09-0.06,0.16-0.14,0.23-0.22c0.06-0.08,0.1-0.17,0.11-0.27v-0.85c-0.04-0.1-0.09-0.19-0.16-0.27
	c-0.06-0.09-0.14-0.16-0.23-0.22c-0.09-0.06-0.18-0.11-0.28-0.15C25.4,60.04,25.3,60.01,25.2,60c-0.14,0-0.28,0.03-0.41,0.09
	c-0.12,0.07-0.22,0.15-0.31,0.26c-0.09,0.1-0.16,0.23-0.2,0.36c-0.05,0.13-0.07,0.27-0.07,0.41c0,0.15,0.03,0.29,0.08,0.43
	c0.05,0.13,0.13,0.25,0.22,0.35c0.09,0.1,0.21,0.19,0.33,0.25C24.97,62.22,25.11,62.27,25.25,62.28z M30.14,62.33h-0.06l-0.12,0.06
	h-0.17c-0.06,0.01-0.13,0.01-0.19,0c-0.07,0.01-0.13,0.01-0.2,0c-0.06-0.02-0.11-0.05-0.16-0.09c-0.04-0.04-0.08-0.09-0.11-0.14
	c-0.02-0.07-0.02-0.13,0-0.2v-2h-0.36v-0.2h0.36V59h0.25v0.89h0.6v0.2h-0.6V62c-0.01,0.08,0.03,0.16,0.1,0.21
	c0.06,0.05,0.14,0.08,0.22,0.08c0.09,0,0.19-0.02,0.27-0.06l0.14-0.06L30.14,62.33z M31.85,62.5c-0.34,0-0.67-0.15-0.9-0.4
	c-0.12-0.12-0.21-0.27-0.27-0.43c-0.06-0.16-0.09-0.34-0.09-0.51c0-0.18,0.03-0.35,0.09-0.52c0.07-0.16,0.16-0.3,0.27-0.43
	c0.11-0.12,0.25-0.22,0.4-0.29c0.16-0.07,0.33-0.11,0.5-0.11c0.34,0,0.67,0.15,0.9,0.4c0.12,0.12,0.21,0.27,0.27,0.43
	c0.07,0.16,0.1,0.34,0.1,0.52c0,0.18-0.03,0.35-0.1,0.51c-0.11,0.32-0.35,0.58-0.66,0.72C32.2,62.47,32.03,62.5,31.85,62.5z
	 M30.85,61.17c0,0.29,0.1,0.56,0.29,0.78c0.09,0.1,0.2,0.18,0.33,0.24c0.25,0.12,0.53,0.12,0.78,0c0.12-0.06,0.24-0.14,0.33-0.24
	c0.09-0.11,0.16-0.23,0.22-0.36c0.05-0.14,0.08-0.29,0.08-0.44c0-0.15-0.03-0.29-0.08-0.43c-0.06-0.13-0.13-0.25-0.22-0.35
	c-0.09-0.1-0.2-0.18-0.32-0.24c-0.12-0.06-0.26-0.09-0.4-0.09c-0.14,0-0.27,0.03-0.39,0.09c-0.12,0.06-0.23,0.14-0.32,0.24
	c-0.1,0.1-0.17,0.23-0.22,0.36c-0.06,0.14-0.09,0.29-0.09,0.44H30.85z M37.62,62.45h-0.25V61c0.02-0.25-0.03-0.5-0.14-0.73
	c-0.1-0.15-0.27-0.24-0.45-0.23c-0.11,0-0.22,0.02-0.33,0.06c-0.11,0.04-0.21,0.1-0.3,0.17c-0.09,0.07-0.17,0.16-0.24,0.26
	c-0.07,0.09-0.13,0.2-0.16,0.31v1.61H35.5v-2.59h0.24v0.62c0.05-0.1,0.12-0.19,0.19-0.28c0.08-0.08,0.17-0.14,0.27-0.2
	c0.1-0.05,0.2-0.1,0.31-0.13c0.11-0.02,0.23-0.02,0.34,0c0.24-0.02,0.47,0.09,0.6,0.3c0.13,0.26,0.18,0.56,0.17,0.85V62.45z
	 M39.71,62.5c-0.17,0.01-0.35-0.03-0.5-0.11c-0.16-0.07-0.3-0.17-0.41-0.29c-0.12-0.12-0.2-0.27-0.26-0.43
	c-0.06-0.16-0.09-0.34-0.09-0.51c0-0.18,0.03-0.35,0.09-0.52c0.07-0.16,0.16-0.3,0.27-0.43c0.11-0.12,0.25-0.22,0.4-0.29
	c0.16-0.07,0.33-0.11,0.5-0.11c0.34,0,0.67,0.15,0.9,0.4c0.12,0.12,0.21,0.27,0.27,0.43c0.07,0.16,0.1,0.34,0.1,0.52
	c0,0.18-0.03,0.35-0.1,0.51c-0.06,0.16-0.14,0.31-0.26,0.43c-0.11,0.12-0.25,0.22-0.41,0.29C40.06,62.47,39.88,62.51,39.71,62.5z
	 M38.71,61.17C38.7,61.47,38.8,61.77,39,62c0.09,0.1,0.2,0.18,0.32,0.24c0.12,0.06,0.26,0.09,0.4,0.09c0.14,0,0.27-0.03,0.39-0.09
	c0.12-0.06,0.24-0.14,0.33-0.24c0.09-0.11,0.16-0.23,0.22-0.36c0.05-0.14,0.08-0.29,0.08-0.44c0-0.15-0.03-0.29-0.08-0.43
	c-0.06-0.13-0.13-0.25-0.22-0.35c-0.09-0.1-0.21-0.18-0.33-0.24c-0.25-0.12-0.53-0.12-0.78,0c-0.12,0.06-0.23,0.14-0.32,0.24
	c-0.1,0.1-0.17,0.23-0.22,0.36C38.74,60.9,38.71,61.04,38.71,61.17L38.71,61.17z M43.06,60.08c-0.22,0-0.44,0.07-0.61,0.21
	c-0.18,0.13-0.31,0.32-0.37,0.54v1.62h-0.25v-2.59h0.24v0.64c0.08-0.18,0.2-0.33,0.35-0.45c0.14-0.11,0.3-0.18,0.48-0.2h0.16V60.08z
	 M47.59,62.45h-0.25V61c0.02-0.25-0.03-0.5-0.15-0.72c-0.1-0.16-0.28-0.25-0.47-0.24c-0.1,0-0.2,0.02-0.3,0.06
	c-0.1,0.04-0.18,0.1-0.26,0.17c-0.08,0.07-0.15,0.16-0.21,0.25c-0.06,0.1-0.11,0.21-0.14,0.33v1.6h-0.25V61
	c0.02-0.25-0.03-0.5-0.15-0.73C45.33,60.12,45.17,60.01,45,60c-0.1,0-0.21,0.02-0.3,0.06c-0.1,0.04-0.19,0.09-0.27,0.16
	c-0.08,0.08-0.15,0.16-0.21,0.26c-0.06,0.1-0.11,0.21-0.14,0.32v1.61h-0.25v-2.55H44v0.62c0.1-0.2,0.24-0.37,0.42-0.49
	c0.17-0.12,0.37-0.18,0.58-0.18c0.2-0.01,0.39,0.06,0.53,0.2c0.14,0.14,0.23,0.32,0.25,0.51c0.16-0.41,0.56-0.69,1-0.71
	c0.24-0.02,0.48,0.09,0.61,0.3c0.13,0.26,0.2,0.56,0.18,0.85L47.59,62.45z M49.23,62.5c-0.11,0-0.22-0.02-0.33-0.06
	c-0.1-0.04-0.19-0.1-0.27-0.17c-0.08-0.07-0.14-0.15-0.18-0.25c-0.05-0.1-0.07-0.21-0.07-0.32c0-0.11,0.03-0.22,0.08-0.31
	c0.05-0.1,0.13-0.18,0.22-0.24c0.1-0.07,0.21-0.12,0.32-0.15c0.14-0.04,0.29-0.06,0.44-0.06c0.14-0.01,0.28-0.01,0.42,0
	c0.13,0.02,0.26,0.05,0.39,0.1v-0.26c0.01-0.21-0.06-0.42-0.21-0.58c-0.15-0.15-0.36-0.23-0.57-0.22c-0.14,0-0.27,0.03-0.4,0.08
	c-0.15,0.06-0.3,0.13-0.43,0.23l-0.1-0.17c0.28-0.2,0.61-0.32,0.95-0.34c0.27-0.02,0.54,0.08,0.74,0.27
	c0.19,0.2,0.29,0.47,0.27,0.75v1.3c0,0.09,0,0.13,0.11,0.13v0.22h-0.1c-0.06,0-0.12-0.02-0.16-0.07c-0.04-0.04-0.07-0.1-0.07-0.16
	V62c-0.13,0.15-0.28,0.27-0.46,0.36C49.63,62.45,49.43,62.49,49.23,62.5z M49.28,62.3c0.19,0.01,0.37-0.03,0.54-0.11
	c0.15-0.06,0.27-0.16,0.37-0.29c0.05-0.06,0.08-0.13,0.08-0.2v-0.46c-0.12-0.04-0.25-0.08-0.38-0.1c-0.13-0.01-0.27-0.01-0.4,0
	c-0.12-0.02-0.24-0.02-0.36,0c-0.09,0.02-0.19,0.06-0.27,0.11c-0.15,0.09-0.24,0.25-0.24,0.42c0,0.09,0.02,0.17,0.05,0.25
	c0.03,0.07,0.08,0.14,0.14,0.19c0.13,0.12,0.3,0.18,0.47,0.18L49.28,62.3z M51.54,58.81h0.26v3.13c0,0.08,0.03,0.16,0.08,0.23
	c0.06,0.05,0.15,0.08,0.23,0.08h0.13h0.14v0.2c-0.07,0.03-0.14,0.05-0.21,0.06h-0.21c-0.13,0.01-0.25-0.04-0.34-0.13
	c-0.09-0.09-0.14-0.21-0.13-0.34L51.54,58.81z M54.26,61.14c0-0.18,0.03-0.35,0.1-0.51c0.06-0.16,0.14-0.31,0.26-0.43
	c0.12-0.12,0.26-0.21,0.41-0.28c0.16-0.07,0.33-0.11,0.51-0.11c0.22,0,0.44,0.05,0.63,0.16c0.17,0.11,0.31,0.27,0.4,0.45l-0.25,0.08
	c-0.07-0.14-0.18-0.26-0.32-0.34c-0.14-0.08-0.31-0.12-0.47-0.12c-0.14,0-0.27,0.02-0.4,0.08c-0.12,0.06-0.23,0.14-0.32,0.24
	c-0.2,0.21-0.3,0.49-0.3,0.78c0,0.15,0.03,0.31,0.09,0.45c0.05,0.13,0.12,0.25,0.21,0.36c0.09,0.1,0.21,0.18,0.33,0.24
	c0.12,0.06,0.26,0.09,0.4,0.09c0.09,0.01,0.17,0.01,0.26,0c0.09-0.03,0.17-0.06,0.25-0.11c0.07-0.04,0.14-0.09,0.19-0.15
	c0.05-0.05,0.09-0.11,0.11-0.18l0.25,0.07c-0.04,0.09-0.09,0.18-0.15,0.25c-0.07,0.08-0.15,0.15-0.24,0.2
	c-0.1,0.06-0.2,0.1-0.31,0.13c-0.28,0.08-0.59,0.06-0.86-0.06c-0.15-0.07-0.29-0.17-0.41-0.29c-0.11-0.13-0.2-0.27-0.27-0.43
	C54.29,61.53,54.26,61.33,54.26,61.14z M58.48,62.5c-0.35,0-0.68-0.14-0.91-0.4c-0.12-0.12-0.21-0.27-0.27-0.43
	c-0.06-0.16-0.09-0.34-0.09-0.51c0-0.18,0.03-0.36,0.1-0.52c0.06-0.16,0.15-0.3,0.26-0.43c0.12-0.12,0.25-0.22,0.4-0.29
	c0.16-0.07,0.33-0.11,0.51-0.11c0.17,0,0.34,0.04,0.49,0.11c0.15,0.07,0.29,0.17,0.41,0.29c0.11,0.13,0.2,0.27,0.27,0.43
	c0.06,0.17,0.09,0.34,0.09,0.52c0.01,0.35-0.12,0.69-0.36,0.94c-0.11,0.12-0.25,0.22-0.4,0.29C58.82,62.47,58.65,62.5,58.48,62.5z
	 M57.48,61.17c0,0.29,0.1,0.56,0.29,0.78c0.09,0.1,0.21,0.18,0.33,0.24c0.25,0.12,0.53,0.12,0.78,0c0.13-0.06,0.24-0.14,0.33-0.24
	c0.09-0.11,0.17-0.23,0.22-0.36c0.05-0.14,0.08-0.29,0.08-0.44c0-0.15-0.03-0.29-0.08-0.43c-0.05-0.13-0.13-0.25-0.22-0.35
	c-0.09-0.1-0.2-0.18-0.32-0.24c-0.12-0.06-0.25-0.09-0.39-0.09c-0.14,0-0.28,0.03-0.4,0.09c-0.12,0.06-0.23,0.14-0.32,0.24
	c-0.1,0.1-0.17,0.23-0.22,0.36c-0.06,0.14-0.1,0.29-0.1,0.44H57.48z M62.71,62.45h-0.25V61c0.02-0.25-0.03-0.5-0.14-0.73
	c-0.1-0.15-0.27-0.24-0.45-0.23c-0.11,0-0.22,0.02-0.33,0.06c-0.11,0.04-0.21,0.1-0.3,0.17c-0.09,0.07-0.17,0.16-0.24,0.26
	c-0.07,0.09-0.13,0.2-0.16,0.31v1.61h-0.25v-2.59h0.24v0.62c0.04-0.1,0.1-0.19,0.17-0.28c0.08-0.08,0.17-0.15,0.27-0.21
	c0.1-0.05,0.2-0.1,0.31-0.13c0.11-0.02,0.23-0.02,0.34,0c0.24-0.02,0.47,0.09,0.6,0.3c0.13,0.26,0.18,0.56,0.17,0.85L62.71,62.45z
	 M64.78,62.5c-0.17,0-0.34-0.04-0.5-0.11c-0.15-0.08-0.28-0.18-0.39-0.3c-0.11-0.13-0.2-0.27-0.26-0.43
	c-0.06-0.16-0.09-0.33-0.09-0.5c0-0.17,0.03-0.35,0.08-0.51c0.06-0.16,0.14-0.3,0.25-0.43c0.11-0.12,0.24-0.22,0.38-0.3
	c0.15-0.07,0.31-0.11,0.48-0.11c0.11-0.02,0.21-0.02,0.32,0l0.28,0.13c0.08,0.06,0.16,0.13,0.23,0.2c0.07,0.07,0.13,0.15,0.18,0.23
	v-1.56H66v3.29c0,0.09,0,0.13,0.1,0.13v0.22H66c-0.07,0-0.13-0.03-0.17-0.08c-0.04-0.04-0.06-0.1-0.06-0.16v-0.29
	c-0.11,0.17-0.25,0.32-0.43,0.42C65.17,62.44,64.98,62.5,64.78,62.5z M64.78,62.28c0.1,0,0.2-0.02,0.29-0.06
	c0.1-0.03,0.2-0.08,0.28-0.15c0.09-0.06,0.16-0.14,0.23-0.22c0.06-0.08,0.1-0.17,0.11-0.27v-0.85c-0.04-0.1-0.09-0.19-0.16-0.27
	c-0.06-0.09-0.14-0.16-0.23-0.22c-0.09-0.06-0.18-0.11-0.28-0.15c-0.09-0.04-0.19-0.05-0.29-0.05c-0.14,0-0.28,0.03-0.41,0.09
	c-0.12,0.07-0.22,0.15-0.31,0.26c-0.09,0.1-0.16,0.23-0.2,0.36c-0.05,0.13-0.07,0.27-0.07,0.41c0,0.15,0.03,0.29,0.08,0.43
	c0.05,0.13,0.13,0.25,0.22,0.35c0.09,0.1,0.21,0.19,0.33,0.25c0.14,0.07,0.3,0.1,0.46,0.09H64.78z M68.12,62.5
	c-0.18,0-0.35-0.03-0.51-0.11c-0.31-0.14-0.55-0.4-0.66-0.72c-0.07-0.16-0.1-0.33-0.1-0.51c0-0.18,0.04-0.35,0.1-0.52
	c0.06-0.16,0.15-0.3,0.27-0.43c0.35-0.39,0.92-0.51,1.4-0.29c0.15,0.07,0.29,0.17,0.4,0.29c0.12,0.12,0.21,0.27,0.27,0.43
	c0.07,0.16,0.1,0.34,0.1,0.52c0,0.18-0.03,0.35-0.1,0.51c-0.06,0.16-0.15,0.31-0.27,0.43C68.79,62.35,68.46,62.5,68.12,62.5z
	 M67.12,61.17c0,0.29,0.1,0.57,0.3,0.78c0.09,0.1,0.2,0.18,0.32,0.24c0.12,0.06,0.26,0.09,0.4,0.09c0.14,0,0.27-0.03,0.39-0.09
	c0.12-0.06,0.23-0.14,0.32-0.24c0.1-0.1,0.17-0.23,0.22-0.36c0.06-0.14,0.09-0.29,0.08-0.44c0-0.15-0.02-0.29-0.08-0.43
	c-0.05-0.13-0.12-0.25-0.22-0.35c-0.09-0.1-0.2-0.18-0.32-0.24c-0.25-0.12-0.53-0.12-0.78,0c-0.12,0.06-0.24,0.14-0.33,0.24
	c-0.09,0.11-0.16,0.23-0.21,0.36c-0.07,0.14-0.1,0.29-0.11,0.44H67.12z M74.05,62.45H73.8V61c0.02-0.25-0.03-0.5-0.15-0.72
	c-0.1-0.16-0.28-0.25-0.47-0.24c-0.1,0-0.21,0.02-0.3,0.06c-0.1,0.04-0.19,0.1-0.27,0.17c-0.08,0.07-0.15,0.15-0.2,0.25
	c-0.06,0.1-0.11,0.21-0.14,0.33v1.6H72V61c0.02-0.25-0.03-0.5-0.15-0.73C71.76,60.11,71.59,60,71.4,60c-0.1,0-0.2,0.02-0.3,0.06
	c-0.09,0.04-0.18,0.09-0.26,0.16c-0.08,0.08-0.15,0.16-0.21,0.26c-0.06,0.1-0.11,0.21-0.14,0.32v1.61h-0.25v-2.55h0.23v0.62
	c0.1-0.2,0.24-0.37,0.42-0.49c0.17-0.12,0.37-0.18,0.57-0.18c0.2-0.01,0.39,0.06,0.54,0.19c0.14,0.14,0.22,0.32,0.24,0.51
	c0.17-0.41,0.56-0.69,1-0.71c0.24-0.02,0.48,0.09,0.61,0.3c0.13,0.26,0.2,0.56,0.18,0.85L74.05,62.45z M75.88,62.5
	c-0.2,0-0.39-0.03-0.58-0.1c-0.18-0.06-0.35-0.16-0.48-0.3l0.13-0.17c0.12,0.12,0.27,0.21,0.43,0.28c0.16,0.06,0.33,0.09,0.5,0.09
	c0.19,0.01,0.38-0.04,0.54-0.14c0.14-0.09,0.21-0.24,0.21-0.4c0.02-0.07,0.02-0.13,0-0.2c-0.04-0.06-0.1-0.1-0.16-0.14
	c-0.08-0.04-0.17-0.08-0.26-0.1l-0.36-0.1c-0.13-0.02-0.26-0.06-0.38-0.1c-0.1-0.02-0.19-0.06-0.27-0.12
	c-0.07-0.04-0.12-0.1-0.15-0.17c-0.04-0.08-0.06-0.16-0.06-0.25c0-0.12,0.03-0.23,0.08-0.34c0.05-0.09,0.12-0.18,0.2-0.24
	c0.09-0.06,0.2-0.11,0.31-0.14c0.29-0.1,0.61-0.1,0.9,0c0.14,0.06,0.27,0.15,0.37,0.27l-0.14,0.13c-0.09-0.1-0.21-0.18-0.34-0.22
	c-0.14-0.05-0.29-0.08-0.44-0.08c-0.09-0.01-0.18-0.01-0.27,0c-0.08,0.01-0.16,0.05-0.22,0.1c-0.06,0.04-0.12,0.09-0.15,0.16
	c-0.04,0.08-0.06,0.16-0.06,0.25c-0.02,0.06-0.02,0.12,0,0.18c0.02,0.05,0.07,0.1,0.12,0.12l0.21,0.09l0.31,0.08l0.43,0.11
	c0.11,0.03,0.22,0.08,0.32,0.14c0.08,0.05,0.15,0.11,0.2,0.19c0.04,0.09,0.07,0.18,0.06,0.28c0.01,0.22-0.09,0.42-0.27,0.55
	C76.41,62.39,76.15,62.49,75.88,62.5z M77.8,62.86l0.07-0.4h-0.09V62H78v0.43l-0.11,0.4L77.8,62.86z M83.05,61
	c0,0.21-0.03,0.41-0.1,0.61c-0.05,0.17-0.14,0.33-0.26,0.47c-0.11,0.13-0.24,0.24-0.39,0.32c-0.16,0.07-0.33,0.11-0.5,0.11
	c-0.17,0-0.34-0.04-0.49-0.11c-0.15-0.08-0.28-0.19-0.39-0.32c-0.12-0.14-0.2-0.3-0.26-0.47c-0.12-0.4-0.12-0.82,0-1.22
	c0.06-0.17,0.15-0.34,0.26-0.48c0.11-0.13,0.24-0.24,0.39-0.31c0.15-0.08,0.32-0.12,0.49-0.12c0.17,0,0.35,0.04,0.5,0.12
	c0.15,0.07,0.28,0.18,0.39,0.31c0.12,0.14,0.21,0.3,0.26,0.48C83.02,60.59,83.05,60.79,83.05,61z M82.79,61
	c0-0.18-0.02-0.35-0.07-0.52c-0.05-0.15-0.11-0.28-0.2-0.41c-0.09-0.11-0.19-0.19-0.31-0.26c-0.13-0.06-0.27-0.09-0.41-0.09
	c-0.14,0-0.28,0.03-0.4,0.09c-0.12,0.07-0.22,0.15-0.31,0.26c-0.09,0.12-0.16,0.26-0.2,0.41c-0.08,0.33-0.08,0.67,0,1
	c0.04,0.15,0.11,0.28,0.2,0.4c0.08,0.11,0.19,0.2,0.31,0.26c0.12,0.07,0.26,0.1,0.4,0.1c0.14,0,0.28-0.03,0.41-0.1
	c0.12-0.06,0.23-0.15,0.31-0.26c0.09-0.12,0.16-0.26,0.2-0.4C82.77,61.32,82.79,61.16,82.79,61z M83.91,62.45V62h0.22v0.42
	L83.91,62.45z M87.48,61c0,0.21-0.03,0.41-0.1,0.61c-0.05,0.17-0.14,0.33-0.26,0.47c-0.11,0.13-0.24,0.24-0.39,0.32
	c-0.16,0.07-0.33,0.11-0.5,0.11c-0.17,0-0.34-0.04-0.49-0.11c-0.15-0.08-0.28-0.19-0.39-0.32c-0.12-0.14-0.2-0.3-0.26-0.47
	c-0.12-0.4-0.12-0.82,0-1.22c0.06-0.17,0.15-0.34,0.26-0.48c0.11-0.13,0.24-0.24,0.39-0.31c0.15-0.08,0.32-0.12,0.49-0.12
	c0.17,0,0.35,0.04,0.5,0.12c0.15,0.07,0.28,0.18,0.39,0.31c0.12,0.14,0.21,0.3,0.26,0.48C87.45,60.59,87.48,60.79,87.48,61z
	 M87.22,61c0-0.18-0.02-0.35-0.07-0.52c-0.05-0.15-0.11-0.28-0.2-0.41c-0.09-0.11-0.19-0.19-0.31-0.26
	c-0.13-0.06-0.27-0.09-0.41-0.09c-0.14,0-0.28,0.03-0.4,0.09c-0.12,0.07-0.22,0.15-0.31,0.26c-0.09,0.12-0.16,0.26-0.2,0.41
	c-0.08,0.33-0.08,0.67,0,1c0.04,0.15,0.11,0.28,0.2,0.4c0.08,0.11,0.19,0.2,0.31,0.26c0.12,0.07,0.26,0.1,0.4,0.1
	c0.14,0,0.28-0.03,0.41-0.1c0.12-0.06,0.23-0.15,0.31-0.26c0.09-0.12,0.16-0.26,0.2-0.4C87.2,61.32,87.22,61.16,87.22,61z
	 M88.24,62.45c-0.01-0.1-0.01-0.21,0-0.31c0.02-0.12,0.06-0.24,0.11-0.35c0.07-0.13,0.16-0.24,0.26-0.34
	c0.13-0.13,0.28-0.23,0.44-0.31l0.3-0.14c0.11-0.04,0.21-0.09,0.3-0.16c0.08-0.06,0.16-0.13,0.22-0.21c0.08-0.15,0.08-0.34,0-0.49
	c-0.02-0.05-0.04-0.1-0.07-0.14c-0.07-0.06-0.14-0.1-0.22-0.13c-0.2-0.07-0.42-0.07-0.62,0l-0.24,0.12
	c-0.06,0.04-0.12,0.09-0.17,0.14l-0.1,0.11L88.28,60l0.1-0.1c0.06-0.06,0.13-0.11,0.2-0.16c0.1-0.07,0.21-0.12,0.32-0.15
	c0.13-0.05,0.26-0.07,0.4-0.07c0.14,0,0.28,0.02,0.41,0.06c0.1,0.04,0.2,0.1,0.29,0.17c0.08,0.07,0.15,0.15,0.19,0.25
	c0.04,0.1,0.06,0.2,0.06,0.3c0.01,0.13-0.03,0.25-0.1,0.36c-0.07,0.1-0.15,0.18-0.24,0.26c-0.1,0.07-0.2,0.13-0.31,0.18l-0.27,0.13
	c-0.22,0.09-0.42,0.22-0.59,0.39c-0.14,0.16-0.22,0.36-0.22,0.57h1.79v0.23L88.24,62.45z M94.84,62.45h-0.25V61
	c0-0.64-0.22-1-0.65-1c-0.11,0-0.21,0.02-0.31,0.06c-0.1,0.04-0.2,0.1-0.28,0.17c-0.09,0.07-0.17,0.16-0.23,0.26
	c-0.07,0.09-0.12,0.2-0.15,0.31v1.61h-0.25v-3.6H93v1.67c0.1-0.2,0.25-0.37,0.44-0.49c0.18-0.12,0.39-0.18,0.6-0.18
	c0.13,0,0.25,0.02,0.37,0.08c0.11,0.05,0.2,0.13,0.26,0.23c0.07,0.11,0.12,0.23,0.15,0.36c0.02,0.16,0.02,0.32,0,0.48L94.84,62.45z
	 M96.48,62.5c-0.12,0-0.23-0.02-0.34-0.06c-0.1-0.04-0.19-0.1-0.27-0.17c-0.08-0.07-0.14-0.15-0.18-0.25
	c-0.04-0.1-0.07-0.21-0.07-0.32c0-0.11,0.03-0.22,0.09-0.31c0.05-0.1,0.13-0.18,0.22-0.24c0.1-0.07,0.22-0.13,0.34-0.16
	c0.14-0.04,0.29-0.06,0.44-0.06c0.14-0.01,0.28-0.01,0.42,0c0.13,0.02,0.26,0.05,0.38,0.1v-0.26c0.01-0.21-0.06-0.42-0.21-0.58
	c-0.15-0.15-0.36-0.23-0.57-0.22c-0.14,0-0.27,0.03-0.4,0.08c-0.15,0.06-0.3,0.14-0.43,0.23l-0.1-0.17c0.29-0.21,0.64-0.33,1-0.34
	c0.27-0.02,0.54,0.08,0.74,0.27c0.19,0.2,0.29,0.47,0.27,0.75v1.31c0,0.09,0,0.13,0.11,0.13v0.22h-0.1c-0.06,0-0.12-0.02-0.16-0.07
	c-0.04-0.04-0.07-0.1-0.07-0.16V62c-0.12,0.15-0.28,0.28-0.46,0.36C96.93,62.45,96.7,62.5,96.48,62.5z M96.48,62.3
	c0.18,0.01,0.36-0.03,0.53-0.11c0.15-0.06,0.27-0.16,0.37-0.29c0.05-0.06,0.08-0.13,0.08-0.2v-0.46c-0.12-0.04-0.24-0.08-0.37-0.1
	c-0.14-0.01-0.27-0.01-0.41,0c-0.12-0.02-0.23-0.02-0.35,0c-0.1,0.02-0.19,0.06-0.28,0.11c-0.07,0.05-0.13,0.11-0.17,0.19
	c-0.04,0.07-0.07,0.15-0.07,0.23c-0.01,0.08-0.01,0.17,0,0.25c0.04,0.07,0.08,0.14,0.14,0.19c0.06,0.06,0.14,0.1,0.22,0.13
	c0.11,0.06,0.24,0.08,0.36,0.06H96.48z M99.59,62.5c-0.19,0-0.39-0.03-0.57-0.1c-0.18-0.06-0.35-0.16-0.48-0.3l0.12-0.17
	c0.13,0.12,0.28,0.21,0.44,0.28c0.16,0.06,0.32,0.09,0.49,0.09c0.19,0.01,0.38-0.04,0.55-0.14c0.14-0.09,0.21-0.24,0.21-0.4
	c0-0.07-0.02-0.14-0.06-0.2c-0.04-0.06-0.09-0.11-0.15-0.14c-0.08-0.04-0.17-0.08-0.26-0.1l-0.36-0.1c-0.13-0.02-0.26-0.06-0.38-0.1
	c-0.1-0.02-0.19-0.06-0.27-0.12c-0.07-0.04-0.12-0.1-0.16-0.17c-0.02-0.08-0.02-0.17,0-0.25c0-0.12,0.02-0.23,0.07-0.34
	c0.05-0.1,0.12-0.18,0.21-0.24c0.09-0.06,0.2-0.11,0.31-0.14c0.12-0.02,0.24-0.02,0.36,0c0.18,0,0.37,0.03,0.54,0.1
	c0.14,0.06,0.27,0.15,0.37,0.27l-0.14,0.13c-0.09-0.1-0.21-0.18-0.34-0.22c-0.15-0.08-0.32-0.13-0.49-0.14
	c-0.09-0.01-0.18-0.01-0.27,0c-0.08,0.02-0.16,0.05-0.23,0.1c-0.06,0.04-0.11,0.1-0.15,0.16c-0.02,0.08-0.02,0.17,0,0.25
	c-0.02,0.06-0.02,0.12,0,0.18c0.02,0.05,0.07,0.1,0.12,0.12l0.21,0.09l0.31,0.08l0.43,0.11c0.11,0.03,0.22,0.08,0.32,0.14
	c0.08,0.05,0.14,0.11,0.19,0.19c0.05,0.08,0.08,0.18,0.07,0.28c0.01,0.22-0.09,0.42-0.27,0.55C100.12,62.42,99.86,62.5,99.59,62.5z
	 M1.85,72.5C1.51,72.51,1.2,72.31,1.06,72C1.02,71.9,1,71.8,1,71.7c-0.01-0.11,0.02-0.22,0.08-0.31c0.05-0.1,0.13-0.18,0.22-0.24
	c0.1-0.07,0.22-0.12,0.34-0.15c0.14-0.04,0.29-0.06,0.44-0.06c0.14-0.01,0.28-0.01,0.42,0c0.13,0.02,0.26,0.05,0.38,0.1v-0.26
	c0.01-0.21-0.06-0.42-0.21-0.58C2.52,70.06,2.31,69.98,2.1,70c-0.14,0-0.27,0.03-0.4,0.08c-0.15,0.06-0.3,0.14-0.43,0.23l-0.09-0.17
	c0.27-0.2,0.6-0.32,0.94-0.34c0.27-0.02,0.54,0.08,0.74,0.27c0.19,0.2,0.29,0.47,0.27,0.75v1.28c0,0.09,0,0.13,0.11,0.13v0.22h-0.1
	c-0.05,0-0.1-0.02-0.14-0.06c-0.04-0.04-0.07-0.1-0.07-0.16V72c-0.12,0.15-0.28,0.28-0.46,0.36C2.28,72.45,2.06,72.5,1.85,72.5z
	 M1.85,72.3c0.18,0.01,0.36-0.03,0.53-0.11c0.15-0.06,0.28-0.16,0.37-0.29c0.05-0.05,0.08-0.13,0.08-0.2v-0.46
	c-0.12-0.04-0.24-0.08-0.37-0.1c-0.14-0.01-0.27-0.01-0.41,0c-0.12,0-0.24,0.02-0.35,0.05c-0.1,0.02-0.19,0.06-0.27,0.11
	c-0.15,0.09-0.24,0.25-0.24,0.42c0,0.09,0.01,0.17,0.05,0.25c0.03,0.07,0.08,0.14,0.14,0.19c0.06,0.06,0.13,0.1,0.21,0.13
	c0.1,0.03,0.21,0.03,0.31,0.01H1.85z M5.41,72.5c-0.21,0.01-0.42-0.06-0.6-0.18c-0.17-0.11-0.31-0.26-0.42-0.43v1.62H4.14v-3.65
	h0.23v0.52c0.11-0.16,0.25-0.29,0.42-0.38c0.17-0.11,0.36-0.16,0.56-0.16c0.17,0,0.35,0.04,0.5,0.12c0.15,0.07,0.29,0.17,0.4,0.3
	c0.11,0.13,0.19,0.27,0.25,0.43c0.11,0.32,0.11,0.68,0,1c-0.05,0.16-0.13,0.3-0.24,0.43c-0.1,0.12-0.23,0.22-0.38,0.29
	C5.73,72.48,5.57,72.51,5.41,72.5z M5.35,72.28c0.14,0,0.28-0.03,0.41-0.1c0.12-0.06,0.23-0.15,0.31-0.25
	c0.09-0.1,0.16-0.23,0.2-0.36c0.05-0.13,0.07-0.27,0.07-0.41c0-0.15-0.03-0.29-0.08-0.43C6.2,70.6,6.11,70.48,6,70.38
	c-0.09-0.1-0.21-0.19-0.33-0.25C5.56,70.06,5.43,70.02,5.3,70c-0.09-0.01-0.19-0.01-0.28,0c-0.1,0.04-0.2,0.09-0.29,0.16
	c-0.09,0.06-0.17,0.13-0.23,0.22c-0.06,0.08-0.1,0.17-0.11,0.26v0.86c0.04,0.1,0.1,0.19,0.16,0.27c0.07,0.08,0.15,0.15,0.23,0.22
	c0.08,0.06,0.17,0.11,0.27,0.14C5.14,72.2,5.24,72.25,5.35,72.28z M8.71,72.5c-0.21,0-0.42-0.06-0.6-0.18
	c-0.17-0.11-0.31-0.26-0.42-0.43v1.62H7.44v-3.65h0.23v0.52c0.11-0.16,0.25-0.29,0.42-0.38c0.17-0.11,0.37-0.16,0.57-0.16
	c0.17,0,0.34,0.04,0.49,0.12c0.15,0.07,0.29,0.17,0.4,0.3c0.11,0.13,0.2,0.27,0.26,0.43c0.06,0.16,0.09,0.33,0.09,0.5
	c0,0.17-0.03,0.35-0.09,0.51c-0.05,0.16-0.13,0.31-0.24,0.43c-0.1,0.13-0.23,0.23-0.38,0.29C9.04,72.49,8.87,72.51,8.71,72.5z
	 M8.65,72.28c0.14,0,0.28-0.03,0.41-0.1c0.12-0.06,0.23-0.14,0.31-0.25c0.09-0.1,0.16-0.23,0.2-0.36c0.05-0.13,0.07-0.27,0.07-0.41
	c0-0.15-0.02-0.29-0.08-0.43c-0.05-0.13-0.12-0.25-0.22-0.35C9.25,70.27,9.13,70.19,9,70.13c-0.12-0.06-0.26-0.09-0.4-0.09
	c-0.1-0.01-0.19-0.01-0.29,0c-0.1,0.04-0.2,0.09-0.29,0.16c-0.09,0.06-0.16,0.14-0.23,0.22c-0.06,0.08-0.1,0.17-0.11,0.26v0.86
	c0.09,0.19,0.22,0.36,0.39,0.49c0.08,0.06,0.17,0.11,0.27,0.14C8.43,72.23,8.54,72.27,8.65,72.28z M12,70.08
	c-0.22,0.01-0.43,0.08-0.61,0.21c-0.18,0.13-0.3,0.32-0.36,0.54v1.62h-0.25v-2.59H11v0.64c0.08-0.18,0.2-0.33,0.35-0.45
	c0.14-0.11,0.3-0.18,0.48-0.2H12V70.08z M13.66,72.5c-0.18,0.01-0.35-0.03-0.51-0.11c-0.15-0.07-0.29-0.17-0.4-0.29
	c-0.12-0.12-0.21-0.27-0.27-0.43c-0.06-0.16-0.09-0.34-0.09-0.51c0-0.18,0.03-0.36,0.1-0.52c0.06-0.16,0.15-0.3,0.26-0.43
	c0.12-0.12,0.25-0.22,0.4-0.29c0.16-0.07,0.33-0.11,0.51-0.11c0.17,0,0.34,0.04,0.5,0.11c0.15,0.07,0.28,0.17,0.4,0.29
	c0.11,0.13,0.2,0.27,0.27,0.43c0.06,0.17,0.09,0.34,0.09,0.52c0.01,0.35-0.12,0.69-0.36,0.94c-0.11,0.12-0.25,0.22-0.4,0.29
	C14,72.47,13.83,72.5,13.66,72.5z M12.66,71.17c0,0.15,0.03,0.29,0.08,0.43c0.05,0.13,0.12,0.25,0.21,0.35
	c0.09,0.1,0.21,0.18,0.33,0.24c0.25,0.12,0.53,0.12,0.78,0c0.13-0.06,0.24-0.14,0.33-0.24c0.09-0.11,0.17-0.23,0.22-0.36
	c0.05-0.14,0.08-0.29,0.08-0.44c0-0.15-0.03-0.29-0.08-0.43c-0.05-0.13-0.13-0.25-0.22-0.35c-0.09-0.1-0.2-0.18-0.32-0.24
	c-0.12-0.06-0.25-0.09-0.39-0.09c-0.14,0-0.28,0.03-0.4,0.09c-0.12,0.06-0.23,0.14-0.32,0.24c-0.09,0.11-0.17,0.23-0.22,0.36
	c-0.06,0.14-0.09,0.29-0.1,0.44H12.66z M15.63,69.86l0.84,1.07V71v-0.07l0.83-1.07h0.28l-1,1.3l1,1.29H17.3l-0.83-1.07v-0.06v0.06
	l-0.83,1.07h-0.28l1-1.29l-1-1.3H15.63z M18.39,69.27v-0.46h0.25v0.46H18.39z M18.39,72.45v-2.59h0.25v2.59H18.39z M23.48,72.45
	h-0.25V71c0.02-0.25-0.03-0.5-0.15-0.72c-0.1-0.16-0.28-0.25-0.47-0.24c-0.1,0-0.2,0.02-0.3,0.06c-0.1,0.04-0.19,0.1-0.27,0.17
	c-0.08,0.07-0.15,0.16-0.2,0.25c-0.06,0.1-0.11,0.21-0.14,0.33v1.6h-0.25V71c0.02-0.25-0.03-0.5-0.15-0.73
	c-0.1-0.15-0.28-0.24-0.46-0.23c-0.11,0-0.21,0.02-0.31,0.06c-0.09,0.04-0.18,0.09-0.26,0.16c-0.08,0.08-0.15,0.16-0.21,0.26
	c-0.06,0.1-0.11,0.21-0.14,0.32v1.61h-0.25v-2.59h0.23v0.62c0.1-0.2,0.24-0.37,0.42-0.49c0.17-0.12,0.37-0.18,0.58-0.18
	c0.2-0.01,0.39,0.07,0.53,0.2c0.14,0.13,0.23,0.32,0.24,0.51c0.17-0.41,0.56-0.69,1-0.71c0.24-0.02,0.48,0.09,0.61,0.3
	c0.13,0.26,0.2,0.56,0.18,0.85L23.48,72.45z M25.12,72.5c-0.11,0-0.22-0.02-0.33-0.06c-0.1-0.04-0.19-0.09-0.27-0.17
	c-0.08-0.07-0.14-0.16-0.19-0.25c-0.04-0.1-0.06-0.21-0.06-0.32c0-0.11,0.03-0.22,0.08-0.31c0.05-0.1,0.13-0.18,0.22-0.24
	c0.1-0.07,0.22-0.13,0.34-0.16c0.14-0.04,0.29-0.06,0.44-0.06c0.14-0.01,0.28-0.01,0.42,0c0.13,0.02,0.26,0.05,0.39,0.1v-0.26
	c0.01-0.21-0.06-0.42-0.21-0.58c-0.15-0.15-0.36-0.23-0.57-0.22c-0.14,0-0.27,0.03-0.4,0.08c-0.16,0.06-0.3,0.13-0.44,0.23
	l-0.09-0.17c0.28-0.2,0.61-0.32,0.95-0.34c0.27-0.02,0.54,0.08,0.74,0.27c0.19,0.2,0.29,0.47,0.27,0.75v1.31c0,0.09,0,0.13,0.1,0.13
	v0.22h-0.09c-0.06,0-0.13-0.02-0.17-0.07c-0.04-0.04-0.06-0.1-0.06-0.16V72c-0.13,0.15-0.28,0.27-0.46,0.36
	C25.54,72.45,25.33,72.5,25.12,72.5z M25.17,72.3c0.18,0.01,0.36-0.03,0.53-0.11c0.15-0.06,0.28-0.16,0.38-0.29
	c0.05-0.06,0.08-0.13,0.08-0.2v-0.46c-0.12-0.04-0.25-0.08-0.38-0.1c-0.13-0.01-0.27-0.01-0.4,0c-0.12,0-0.24,0.02-0.36,0.05
	c-0.09,0.02-0.19,0.06-0.27,0.11c-0.15,0.09-0.24,0.25-0.24,0.42c-0.02,0.08-0.02,0.17,0,0.25c0.03,0.07,0.08,0.14,0.14,0.19
	c0.13,0.12,0.3,0.18,0.47,0.18L25.17,72.3z M28.55,72.33h-0.07l-0.12,0.06H28.2c-0.06,0.01-0.13,0.01-0.19,0
	c-0.07,0.01-0.13,0.01-0.2,0c-0.06-0.02-0.11-0.05-0.16-0.09c-0.05-0.04-0.09-0.08-0.11-0.14c-0.02-0.07-0.02-0.13,0-0.2v-2h-0.37
	v-0.2h0.37V69h0.25v0.89h0.6v0.2h-0.6V72c-0.01,0.08,0.03,0.16,0.1,0.21c0.06,0.05,0.14,0.08,0.22,0.08c0.09,0,0.19-0.02,0.27-0.06
	l0.14-0.06L28.55,72.33z M30.28,72.5c-0.18,0.01-0.35-0.03-0.51-0.11c-0.15-0.07-0.29-0.17-0.41-0.29c-0.11-0.13-0.2-0.27-0.27-0.43
	C29.03,71.5,29,71.32,29,71.14c0-0.17,0.03-0.35,0.09-0.51c0.07-0.16,0.16-0.3,0.27-0.43c0.11-0.12,0.25-0.21,0.4-0.28
	c0.16-0.07,0.33-0.11,0.5-0.11c0.18,0,0.35,0.04,0.51,0.11c0.15,0.07,0.29,0.17,0.41,0.29c0.11,0.12,0.2,0.26,0.26,0.42
	c0.06,0.16,0.1,0.34,0.1,0.51v0.07l0,0h-2.29c0.01,0.15,0.05,0.29,0.11,0.42c0.06,0.12,0.13,0.23,0.23,0.33
	c0.09,0.1,0.19,0.17,0.31,0.22c0.12,0.06,0.26,0.08,0.39,0.08c0.09,0.01,0.17,0.01,0.26,0c0.09-0.02,0.17-0.05,0.24-0.1
	c0.08-0.03,0.15-0.09,0.21-0.16c0.06-0.06,0.11-0.12,0.14-0.2l0.22,0.06c-0.04,0.1-0.09,0.18-0.16,0.26
	c-0.07,0.08-0.16,0.15-0.25,0.2c-0.1,0.06-0.2,0.1-0.31,0.13C30.52,72.49,30.4,72.5,30.28,72.5z M31.28,71.05
	c0-0.14-0.04-0.28-0.1-0.41c-0.05-0.12-0.13-0.23-0.22-0.33c-0.09-0.09-0.2-0.16-0.32-0.22c-0.12-0.05-0.25-0.07-0.38-0.07
	c-0.13,0-0.27,0.02-0.39,0.07c-0.11,0.06-0.22,0.13-0.31,0.22c-0.1,0.09-0.17,0.2-0.22,0.33c-0.06,0.13-0.09,0.27-0.1,0.41H31.28z
	 M32.35,68.81h0.26v3.13c-0.01,0.08,0.02,0.17,0.08,0.23c0.06,0.05,0.15,0.08,0.23,0.08h0.13h0.14l0.05,0.2
	c-0.07,0.03-0.14,0.05-0.21,0.06h-0.21c-0.13,0.01-0.25-0.04-0.34-0.13c-0.09-0.09-0.14-0.21-0.13-0.34V68.81z M34,73.33h0.16h0.08
	h0.06c0.03-0.03,0.05-0.07,0.07-0.11c0.04-0.08,0.08-0.16,0.11-0.25l0.19-0.45l-1.15-2.59h0.26l1,2.35l1-2.35H36l-1.43,3.41
	c-0.03,0.09-0.09,0.17-0.17,0.22c-0.11,0.05-0.22,0.08-0.34,0.07H34V73.33z M39.42,71.27c0.21,0.03,0.41,0.14,0.54,0.31
	c0.14,0.17,0.22,0.39,0.21,0.61c0,0.14-0.03,0.28-0.09,0.41c-0.05,0.12-0.13,0.22-0.22,0.31c-0.1,0.09-0.23,0.16-0.36,0.2
	c-0.14,0.05-0.3,0.08-0.45,0.08c-0.23,0-0.46-0.05-0.66-0.16c-0.18-0.1-0.32-0.25-0.41-0.44l0.18-0.15
	c0.07,0.16,0.18,0.29,0.33,0.38c0.17,0.1,0.36,0.15,0.56,0.14c0.23,0.01,0.45-0.06,0.63-0.21c0.16-0.15,0.24-0.36,0.23-0.57
	c0.01-0.22-0.08-0.43-0.24-0.58c-0.19-0.15-0.43-0.22-0.67-0.21h-0.12v-0.22H39c0.22,0.02,0.44-0.05,0.62-0.18
	c0.14-0.12,0.22-0.3,0.21-0.49c0-0.1-0.02-0.2-0.06-0.29c-0.04-0.08-0.09-0.16-0.16-0.22c-0.07-0.06-0.16-0.11-0.25-0.14
	c-0.11-0.02-0.21-0.02-0.32,0c-0.18,0-0.36,0.04-0.52,0.13c-0.15,0.09-0.26,0.22-0.33,0.38L38,70.18c0.04-0.09,0.1-0.17,0.16-0.25
	c0.07-0.07,0.15-0.13,0.24-0.19c0.09-0.05,0.2-0.09,0.3-0.12c0.11-0.01,0.23-0.01,0.34,0c0.14,0,0.28,0.02,0.42,0.06
	c0.12,0.05,0.22,0.11,0.32,0.19c0.09,0.08,0.16,0.17,0.22,0.28c0.05,0.12,0.07,0.24,0.07,0.37c0,0.1-0.01,0.2-0.05,0.29
	c-0.03,0.08-0.07,0.16-0.13,0.23c-0.06,0.07-0.14,0.13-0.22,0.18C39.59,71.25,39.51,71.27,39.42,71.27z M43.74,72.33h-0.07
	l-0.12,0.06h-0.16c-0.06,0.01-0.13,0.01-0.19,0c-0.07,0.01-0.13,0.01-0.2,0c-0.06-0.02-0.11-0.05-0.16-0.09
	c-0.05-0.04-0.09-0.08-0.11-0.14c-0.02-0.07-0.02-0.13,0-0.2v-2h-0.37v-0.2h0.37V69h0.25v0.89h0.6v0.2h-0.6V72
	c-0.01,0.08,0.03,0.16,0.1,0.21c0.06,0.05,0.14,0.08,0.22,0.08c0.09,0,0.19-0.02,0.27-0.06l0.14-0.06L43.74,72.33z M44.43,69.27
	v-0.46h0.25v0.46H44.43z M44.43,72.45v-2.59h0.25v2.59H44.43z M49.52,72.45h-0.25V71c0.02-0.25-0.03-0.5-0.15-0.72
	c-0.1-0.16-0.27-0.25-0.46-0.24c-0.11,0-0.21,0.02-0.31,0.06c-0.1,0.04-0.18,0.1-0.26,0.17c-0.08,0.07-0.15,0.16-0.21,0.25
	c-0.06,0.1-0.11,0.22-0.14,0.33v1.6h-0.25V71c0.02-0.25-0.03-0.5-0.15-0.73c-0.1-0.15-0.28-0.24-0.46-0.23
	c-0.1,0-0.21,0.02-0.3,0.06c-0.1,0.04-0.19,0.09-0.26,0.16c-0.09,0.07-0.16,0.16-0.22,0.26c-0.06,0.1-0.11,0.21-0.14,0.32v1.61
	h-0.25v-2.59H46v0.62c0.09-0.2,0.24-0.37,0.42-0.49c0.17-0.12,0.37-0.18,0.57-0.18c0.2-0.01,0.39,0.06,0.53,0.2
	c0.14,0.14,0.23,0.32,0.25,0.51c0.16-0.41,0.56-0.69,1-0.71c0.24-0.02,0.47,0.09,0.6,0.3c0.13,0.26,0.2,0.56,0.18,0.85L49.52,72.45z
	 M51.63,72.5c-0.18,0-0.35-0.03-0.51-0.11c-0.15-0.07-0.29-0.17-0.41-0.29c-0.11-0.13-0.2-0.27-0.27-0.43
	c-0.06-0.17-0.09-0.35-0.09-0.53c0-0.17,0.03-0.35,0.09-0.51c0.07-0.16,0.16-0.3,0.27-0.43c0.11-0.12,0.25-0.21,0.4-0.28
	c0.16-0.07,0.33-0.11,0.5-0.11c0.18,0,0.35,0.04,0.51,0.11c0.15,0.07,0.29,0.17,0.41,0.29c0.11,0.12,0.2,0.26,0.26,0.42
	c0.06,0.16,0.1,0.34,0.1,0.51v0.07l0,0h-2.28c0.01,0.14,0.04,0.29,0.1,0.42c0.06,0.12,0.13,0.23,0.23,0.33
	c0.09,0.1,0.19,0.17,0.31,0.22c0.12,0.06,0.26,0.08,0.39,0.08c0.09,0.02,0.17,0.02,0.26,0c0.09-0.02,0.17-0.05,0.25-0.1
	c0.07-0.04,0.14-0.09,0.19-0.16c0.06-0.06,0.11-0.12,0.14-0.2l0.22,0.06c-0.03,0.1-0.09,0.19-0.16,0.26
	c-0.07,0.08-0.16,0.15-0.25,0.2c-0.1,0.06-0.2,0.1-0.31,0.13C51.87,72.49,51.75,72.5,51.63,72.5z M52.63,71.05
	c-0.01-0.14-0.05-0.28-0.11-0.41c-0.05-0.12-0.13-0.24-0.22-0.33c-0.09-0.09-0.2-0.16-0.32-0.22c-0.12-0.05-0.25-0.07-0.38-0.07
	c-0.13,0-0.27,0.02-0.39,0.07c-0.11,0.06-0.22,0.13-0.31,0.22c-0.09,0.09-0.17,0.21-0.22,0.33c-0.06,0.13-0.09,0.27-0.1,0.41H52.63z
	 M54.51,72.5c-0.2,0-0.39-0.03-0.58-0.1c-0.18-0.06-0.34-0.16-0.47-0.3l0.12-0.17c0.12,0.12,0.27,0.21,0.43,0.28
	c0.16,0.06,0.33,0.09,0.5,0.09c0.19,0.01,0.38-0.04,0.54-0.14c0.14-0.09,0.21-0.24,0.21-0.4c0.02-0.07,0.02-0.13,0-0.2
	c-0.04-0.06-0.1-0.1-0.16-0.14c-0.08-0.04-0.17-0.08-0.26-0.1l-0.36-0.1c-0.13-0.02-0.26-0.06-0.38-0.1
	c-0.09-0.02-0.18-0.06-0.26-0.12c-0.07-0.04-0.13-0.1-0.16-0.17c-0.04-0.08-0.06-0.16-0.05-0.25c0-0.12,0.02-0.23,0.07-0.34
	c0.05-0.1,0.12-0.18,0.21-0.24c0.09-0.06,0.19-0.11,0.3-0.14c0.12-0.02,0.25-0.02,0.37,0c0.18,0,0.37,0.03,0.54,0.1
	c0.14,0.06,0.26,0.15,0.36,0.27l-0.14,0.13c-0.09-0.1-0.2-0.18-0.33-0.22c-0.14-0.05-0.3-0.08-0.45-0.08
	c-0.09-0.01-0.18-0.01-0.27,0c-0.08,0.02-0.15,0.05-0.22,0.1c-0.06,0.04-0.11,0.1-0.15,0.16c-0.04,0.08-0.06,0.16-0.06,0.25
	c-0.01,0.06-0.01,0.12,0,0.18c0.03,0.05,0.07,0.09,0.12,0.12l0.21,0.09l0.31,0.08l0.44,0.11c0.11,0.03,0.21,0.08,0.31,0.14
	c0.08,0.05,0.15,0.11,0.2,0.19c0.05,0.09,0.07,0.18,0.07,0.28c0.01,0.22-0.1,0.43-0.28,0.55C55.03,72.45,54.77,72.52,54.51,72.5z
	 M60,72.45h-0.25V71c0-0.64-0.22-1-0.65-1c-0.11,0-0.21,0.02-0.31,0.06c-0.1,0.04-0.2,0.1-0.28,0.17c-0.09,0.07-0.17,0.16-0.23,0.26
	c-0.07,0.09-0.12,0.2-0.15,0.31v1.61h-0.25v-3.6h0.25v1.67c0.1-0.2,0.25-0.37,0.44-0.49c0.18-0.12,0.39-0.18,0.6-0.18
	c0.13,0,0.25,0.02,0.37,0.08c0.11,0.05,0.2,0.13,0.26,0.23c0.07,0.11,0.12,0.23,0.15,0.36C59.99,70.65,60,70.83,60,71V72.45z
	 M61,69.27v-0.46h0.25v0.46H61z M61,72.45v-2.59h0.25v2.59H61z M63.32,72.49c-0.17,0-0.34-0.04-0.49-0.11
	c-0.15-0.08-0.28-0.18-0.39-0.3c-0.11-0.13-0.2-0.27-0.26-0.43c-0.06-0.16-0.09-0.32-0.09-0.49c0-0.17,0.03-0.35,0.09-0.51
	c0.06-0.16,0.14-0.3,0.25-0.43c0.21-0.26,0.53-0.41,0.87-0.41c0.21,0,0.42,0.06,0.59,0.18c0.17,0.12,0.31,0.26,0.43,0.43v-0.56h0.23
	v2.64c0,0.16-0.03,0.32-0.1,0.47c-0.07,0.13-0.16,0.24-0.27,0.33c-0.12,0.09-0.25,0.16-0.39,0.2c-0.15,0.04-0.3,0.06-0.46,0.06
	c-0.14,0.02-0.27,0.02-0.41,0c-0.11-0.03-0.22-0.07-0.32-0.12c-0.09-0.05-0.17-0.11-0.24-0.19c-0.07-0.07-0.13-0.15-0.19-0.24
	l0.17-0.12c0.1,0.17,0.24,0.31,0.42,0.39c0.18,0.08,0.37,0.12,0.57,0.12c0.12,0.02,0.25,0.02,0.37,0c0.11-0.04,0.22-0.1,0.31-0.17
	c0.09-0.07,0.16-0.16,0.21-0.26c0.05-0.12,0.08-0.25,0.08-0.38v-0.57c-0.11,0.17-0.25,0.31-0.43,0.41
	C63.69,72.5,63.51,72.52,63.32,72.49z M63.38,72.28c0.11,0,0.22-0.02,0.32-0.07c0.1-0.04,0.2-0.09,0.29-0.16
	c0.08-0.06,0.15-0.14,0.21-0.22c0.05-0.08,0.08-0.16,0.1-0.25v-0.85c-0.04-0.1-0.09-0.2-0.16-0.28c-0.06-0.09-0.14-0.16-0.23-0.22
	c-0.08-0.06-0.17-0.11-0.27-0.14c-0.1-0.02-0.2-0.02-0.3,0c-0.15,0-0.29,0.03-0.42,0.1c-0.12,0.06-0.23,0.15-0.31,0.26
	c-0.09,0.1-0.16,0.23-0.2,0.36c-0.04,0.13-0.06,0.26-0.06,0.4c-0.01,0.15,0.02,0.29,0.08,0.43c0.05,0.13,0.12,0.25,0.22,0.35
	c0.18,0.21,0.45,0.33,0.73,0.34V72.28z M67.7,72.45h-0.25V71c0-0.64-0.22-1-0.65-1c-0.11,0-0.21,0.02-0.31,0.06
	c-0.1,0.04-0.2,0.1-0.28,0.17c-0.09,0.07-0.17,0.16-0.23,0.26c-0.07,0.09-0.12,0.2-0.15,0.31v1.61h-0.25v-3.6h0.25v1.67
	c0.1-0.2,0.25-0.37,0.44-0.49c0.18-0.12,0.39-0.18,0.6-0.18c0.13,0,0.25,0.02,0.37,0.08c0.11,0.05,0.2,0.13,0.26,0.23
	c0.07,0.11,0.12,0.23,0.15,0.36c0.02,0.16,0.02,0.32,0,0.48L67.7,72.45z M69.8,72.5c-0.18,0-0.35-0.03-0.51-0.11
	c-0.15-0.07-0.29-0.17-0.4-0.29c-0.12-0.12-0.21-0.27-0.27-0.43c-0.07-0.17-0.1-0.35-0.1-0.53c0-0.18,0.03-0.35,0.1-0.51
	c0.06-0.16,0.15-0.3,0.26-0.43c0.12-0.12,0.26-0.21,0.41-0.28c0.16-0.07,0.33-0.11,0.5-0.11c0.18,0,0.35,0.04,0.51,0.11
	c0.3,0.14,0.54,0.4,0.66,0.71c0.07,0.16,0.1,0.33,0.1,0.51v0.07l0,0h-2.28c0.01,0.14,0.04,0.29,0.1,0.42
	c0.06,0.12,0.13,0.23,0.23,0.33c0.09,0.1,0.2,0.17,0.32,0.22c0.21,0.08,0.44,0.08,0.65,0c0.08-0.02,0.17-0.05,0.24-0.1
	c0.08-0.04,0.14-0.1,0.2-0.16c0.06-0.06,0.11-0.13,0.14-0.2l0.22,0.06c-0.04,0.1-0.1,0.18-0.17,0.26c-0.07,0.08-0.15,0.15-0.25,0.2
	c-0.1,0.06-0.2,0.1-0.31,0.13C70.04,72.43,69.92,72.48,69.8,72.5z M70.8,71.05c-0.01-0.14-0.04-0.28-0.1-0.41
	c-0.06-0.12-0.13-0.23-0.23-0.33c-0.09-0.09-0.2-0.16-0.31-0.22c-0.12-0.05-0.26-0.07-0.39-0.07c-0.13,0-0.26,0.02-0.38,0.07
	c-0.12,0.06-0.23,0.13-0.32,0.22c-0.09,0.1-0.17,0.21-0.22,0.33c-0.05,0.13-0.09,0.27-0.1,0.41H70.8z M73.09,70.08
	c-0.22,0.01-0.44,0.08-0.62,0.21c-0.18,0.13-0.3,0.32-0.36,0.54v1.62h-0.25v-2.59h0.24v0.64c0.08-0.18,0.2-0.33,0.35-0.45
	c0.14-0.11,0.3-0.18,0.48-0.2h0.16V70.08z M76.43,72.5c-0.2,0-0.39-0.05-0.56-0.16c-0.17-0.1-0.32-0.24-0.42-0.41v0.52h-0.23v-3.64
	h0.25v1.61c0.12-0.18,0.26-0.32,0.44-0.44c0.17-0.12,0.37-0.17,0.58-0.17c0.17,0,0.35,0.04,0.5,0.12c0.14,0.08,0.27,0.18,0.37,0.31
	c0.1,0.13,0.18,0.27,0.23,0.43c0.06,0.16,0.09,0.32,0.09,0.49c0,0.18-0.04,0.35-0.1,0.52c-0.06,0.16-0.15,0.3-0.26,0.42
	c-0.11,0.12-0.24,0.22-0.39,0.29C76.77,72.46,76.6,72.5,76.43,72.5z M76.38,72.28c0.15,0,0.29-0.03,0.42-0.1
	c0.13-0.06,0.24-0.14,0.33-0.25c0.09-0.11,0.16-0.23,0.21-0.36c0.06-0.13,0.08-0.27,0.08-0.41c0-0.14-0.02-0.29-0.07-0.42
	c-0.05-0.13-0.12-0.25-0.2-0.36c-0.09-0.1-0.2-0.19-0.32-0.25c-0.12-0.06-0.26-0.09-0.4-0.09c-0.1-0.02-0.21-0.02-0.31,0
	c-0.1,0.04-0.19,0.09-0.27,0.16c-0.08,0.06-0.16,0.14-0.22,0.22c-0.06,0.08-0.12,0.17-0.16,0.26v0.85c0.01,0.1,0.05,0.2,0.11,0.28
	c0.06,0.08,0.14,0.15,0.23,0.21c0.08,0.07,0.18,0.12,0.28,0.15C76.18,72.22,76.28,72.26,76.38,72.28z M79.33,72.5
	c-0.55,0-0.83-0.38-0.83-1.15v-1.49h0.25v1.46c0,0.64,0.22,1,0.65,1c0.11,0,0.22-0.02,0.32-0.06c0.1-0.04,0.2-0.09,0.29-0.16
	c0.09-0.07,0.17-0.15,0.24-0.25c0.07-0.1,0.13-0.21,0.16-0.32v-1.67h0.25v2.24c0,0.09,0,0.13,0.11,0.13v0.22h-0.08
	c-0.07,0-0.13-0.02-0.18-0.07c-0.05-0.04-0.07-0.1-0.07-0.16v-0.39c-0.22,0.41-0.65,0.67-1.11,0.66V72.5z M82.93,70.08
	c-0.22,0.01-0.43,0.08-0.61,0.21c-0.18,0.14-0.31,0.33-0.37,0.54v1.62H81.7v-2.59h0.24v0.64c0.08-0.18,0.2-0.33,0.36-0.45
	c0.14-0.11,0.3-0.18,0.48-0.2h0.15V70.08z M84.48,72.5c-0.2,0-0.39-0.03-0.58-0.1c-0.18-0.06-0.35-0.16-0.48-0.3l0.13-0.17
	c0.12,0.12,0.27,0.21,0.43,0.28c0.16,0.06,0.33,0.09,0.5,0.09c0.19,0.01,0.38-0.04,0.54-0.14c0.14-0.09,0.21-0.24,0.21-0.4
	c0.02-0.07,0.02-0.13,0-0.2c-0.04-0.06-0.1-0.1-0.16-0.14c-0.08-0.04-0.17-0.08-0.26-0.1l-0.36-0.1c-0.13-0.02-0.26-0.06-0.38-0.1
	c-0.1-0.02-0.19-0.06-0.27-0.12c-0.07-0.04-0.12-0.1-0.15-0.17c-0.04-0.08-0.06-0.16-0.06-0.25c0-0.12,0.03-0.23,0.08-0.34
	c0.05-0.1,0.12-0.18,0.21-0.24c0.09-0.06,0.19-0.11,0.3-0.14c0.12-0.02,0.25-0.02,0.37,0c0.18,0,0.37,0.03,0.54,0.1
	c0.14,0.06,0.26,0.15,0.36,0.27l-0.14,0.13c-0.09-0.1-0.21-0.18-0.34-0.22c-0.23-0.07-0.48-0.07-0.71,0
	c-0.08,0.02-0.15,0.05-0.22,0.1c-0.06,0.04-0.11,0.1-0.15,0.16c-0.04,0.08-0.06,0.16-0.06,0.25c-0.01,0.06-0.01,0.12,0,0.18
	c0.03,0.05,0.07,0.09,0.12,0.12l0.21,0.09l0.31,0.08l0.44,0.11c0.11,0.03,0.21,0.08,0.31,0.14c0.08,0.05,0.15,0.11,0.2,0.19
	c0.05,0.09,0.07,0.18,0.07,0.28c0.01,0.22-0.1,0.43-0.28,0.55C84.99,72.51,84.73,72.55,84.48,72.5z M87.46,72.33h-0.07l-0.12,0.06
	h-0.16c-0.06,0.01-0.13,0.01-0.19,0c-0.07,0.01-0.13,0.01-0.2,0c-0.06-0.02-0.11-0.05-0.16-0.09c-0.04-0.04-0.08-0.09-0.11-0.14
	c-0.01-0.07-0.01-0.13,0-0.2v-2H86v-0.2h0.37V69h0.25v0.89h0.6v0.2h-0.6V72c-0.01,0.08,0.03,0.16,0.1,0.21
	c0.06,0.05,0.14,0.08,0.22,0.08c0.09,0,0.19-0.02,0.27-0.06l0.14-0.06L87.46,72.33z M88.15,69.27v-0.46h0.25v0.46H88.15z
	 M88.15,72.45v-2.59h0.25v2.59H88.15z M91.55,72.45H91.3V71c0.02-0.25-0.03-0.5-0.14-0.73c-0.1-0.15-0.27-0.24-0.45-0.23
	c-0.11,0-0.22,0.02-0.33,0.06c-0.11,0.04-0.21,0.1-0.3,0.17c-0.09,0.07-0.17,0.16-0.24,0.26c-0.07,0.09-0.13,0.2-0.16,0.31v1.61
	h-0.25v-2.59h0.24v0.62c0.05-0.1,0.12-0.19,0.19-0.28c0.08-0.08,0.17-0.15,0.27-0.21c0.1-0.05,0.2-0.1,0.31-0.13
	c0.11-0.02,0.23-0.02,0.34,0c0.24-0.02,0.47,0.09,0.6,0.3c0.13,0.26,0.19,0.56,0.17,0.85L91.55,72.45z M93.6,72.49
	c-0.17,0-0.34-0.04-0.49-0.11c-0.15-0.08-0.28-0.18-0.39-0.3c-0.11-0.13-0.19-0.27-0.25-0.43c-0.06-0.16-0.09-0.32-0.09-0.49
	c0-0.17,0.03-0.35,0.08-0.51c0.06-0.16,0.14-0.3,0.25-0.43c0.11-0.12,0.23-0.23,0.38-0.3c0.15-0.07,0.32-0.11,0.49-0.11
	c0.21-0.01,0.42,0.06,0.6,0.18c0.16,0.12,0.31,0.26,0.42,0.43v-0.56h0.23v2.64c0.01,0.16-0.03,0.32-0.1,0.47
	c-0.06,0.13-0.15,0.24-0.27,0.33c-0.11,0.09-0.24,0.16-0.38,0.2c-0.15,0.04-0.31,0.06-0.47,0.06c-0.13,0.02-0.27,0.02-0.4,0
	c-0.11-0.02-0.22-0.06-0.32-0.12c-0.09-0.05-0.18-0.11-0.25-0.19c-0.07-0.07-0.13-0.15-0.18-0.24l0.17-0.12
	c0.09,0.17,0.24,0.31,0.42,0.39c0.18,0.08,0.37,0.12,0.56,0.12c0.13,0.02,0.25,0.02,0.38,0c0.11-0.04,0.22-0.1,0.31-0.17
	c0.08-0.07,0.15-0.16,0.2-0.26c0.06-0.12,0.09-0.25,0.08-0.38v-0.57c-0.1,0.17-0.25,0.31-0.42,0.41
	C93.98,72.5,93.79,72.52,93.6,72.49z M93.66,72.28c0.11,0,0.23-0.02,0.33-0.07c0.1-0.04,0.2-0.09,0.28-0.16
	c0.08-0.06,0.15-0.13,0.21-0.22c0.05-0.07,0.09-0.16,0.1-0.25v-0.85c-0.04-0.1-0.09-0.2-0.16-0.28c-0.06-0.09-0.13-0.16-0.22-0.22
	c-0.09-0.06-0.18-0.11-0.28-0.14c-0.1-0.02-0.2-0.02-0.3,0c-0.14,0-0.28,0.03-0.41,0.1c-0.13,0.06-0.23,0.15-0.32,0.26
	c-0.09,0.11-0.15,0.23-0.19,0.36c-0.05,0.13-0.07,0.26-0.07,0.4c0,0.15,0.03,0.29,0.08,0.43c0.05,0.13,0.13,0.25,0.22,0.35
	c0.09,0.11,0.2,0.19,0.33,0.25C93.39,72.28,93.53,72.3,93.66,72.28z M98.66,72.5c-0.21,0-0.42-0.06-0.6-0.18
	c-0.17-0.11-0.31-0.26-0.42-0.43v1.62h-0.25v-3.65h0.23v0.52c0.1-0.15,0.23-0.28,0.38-0.38c0.17-0.11,0.36-0.16,0.56-0.16
	c0.17,0,0.35,0.04,0.5,0.12c0.15,0.07,0.29,0.17,0.4,0.3c0.11,0.13,0.19,0.27,0.25,0.43c0.07,0.16,0.1,0.33,0.1,0.5
	c0,0.17-0.03,0.35-0.09,0.51c-0.05,0.16-0.13,0.3-0.24,0.43c-0.1,0.13-0.23,0.23-0.38,0.29C98.96,72.48,98.81,72.51,98.66,72.5z
	 M98.6,72.28c0.28,0,0.54-0.13,0.72-0.35c0.09-0.1,0.16-0.23,0.2-0.36c0.05-0.13,0.07-0.27,0.07-0.41c0-0.15-0.02-0.29-0.08-0.43
	c-0.05-0.13-0.13-0.25-0.22-0.35c-0.09-0.11-0.2-0.19-0.33-0.25c-0.13-0.06-0.27-0.09-0.41-0.09c-0.09-0.01-0.19-0.01-0.28,0
	c-0.1,0.04-0.2,0.09-0.29,0.16c-0.09,0.06-0.17,0.13-0.23,0.22c-0.06,0.08-0.1,0.17-0.11,0.26v0.86c0.04,0.1,0.1,0.19,0.17,0.27
	c0.07,0.08,0.14,0.15,0.22,0.22c0.08,0.06,0.17,0.11,0.27,0.14C98.39,72.23,98.49,72.26,98.6,72.28z M101.92,70.08
	c-0.22,0.01-0.43,0.08-0.61,0.21c-0.18,0.14-0.31,0.33-0.37,0.54v1.62h-0.24v-2.59h0.23v0.64c0.08-0.18,0.2-0.33,0.36-0.45
	c0.14-0.11,0.3-0.18,0.48-0.2h0.15L101.92,70.08z M103.62,72.5c-0.18,0-0.35-0.03-0.51-0.11c-0.15-0.07-0.29-0.17-0.41-0.29
	c-0.11-0.13-0.2-0.27-0.27-0.43c-0.06-0.17-0.09-0.35-0.09-0.53c0-0.17,0.03-0.35,0.09-0.51c0.07-0.16,0.16-0.3,0.27-0.43
	c0.11-0.12,0.25-0.21,0.4-0.28c0.16-0.07,0.33-0.11,0.5-0.11c0.18,0,0.35,0.04,0.51,0.11c0.15,0.07,0.29,0.17,0.41,0.29
	c0.11,0.12,0.2,0.26,0.26,0.42c0.06,0.16,0.1,0.34,0.1,0.51v0.07l0,0h-2.28c0.01,0.14,0.04,0.29,0.1,0.42
	c0.06,0.12,0.13,0.23,0.23,0.33c0.09,0.1,0.2,0.17,0.32,0.22c0.12,0.06,0.25,0.09,0.38,0.08c0.09,0.02,0.17,0.02,0.26,0
	c0.09-0.02,0.17-0.05,0.25-0.1c0.07-0.04,0.14-0.09,0.19-0.16c0.06-0.06,0.11-0.12,0.14-0.2l0.22,0.06
	c-0.03,0.1-0.09,0.19-0.16,0.26c-0.07,0.08-0.15,0.15-0.25,0.2c-0.1,0.06-0.2,0.1-0.31,0.13C103.86,72.49,103.74,72.5,103.62,72.5z
	 M104.62,71.05c-0.01-0.14-0.04-0.28-0.1-0.41c-0.06-0.12-0.13-0.23-0.23-0.33c-0.09-0.09-0.2-0.16-0.32-0.22
	c-0.12-0.05-0.25-0.07-0.38-0.07c-0.13,0-0.27,0.02-0.39,0.07c-0.11,0.06-0.22,0.13-0.31,0.22c-0.09,0.09-0.17,0.21-0.22,0.33
	c-0.06,0.13-0.09,0.27-0.1,0.41H104.62z M106.5,72.5c-0.2,0-0.39-0.03-0.58-0.1c-0.18-0.06-0.34-0.16-0.47-0.3l0.12-0.17
	c0.12,0.12,0.27,0.21,0.43,0.28c0.16,0.06,0.33,0.09,0.5,0.09c0.19,0.01,0.38-0.04,0.54-0.14c0.14-0.09,0.21-0.24,0.21-0.4
	c0.02-0.07,0.02-0.13,0-0.2c-0.04-0.06-0.1-0.11-0.16-0.14c-0.08-0.04-0.17-0.08-0.26-0.1l-0.36-0.1c-0.13-0.02-0.26-0.06-0.38-0.1
	c-0.09-0.02-0.18-0.06-0.26-0.12c-0.07-0.04-0.13-0.1-0.16-0.17c-0.04-0.08-0.06-0.16-0.05-0.25c0-0.12,0.02-0.23,0.07-0.34
	c0.05-0.1,0.12-0.18,0.21-0.24c0.09-0.06,0.19-0.11,0.3-0.14c0.12-0.02,0.25-0.02,0.37,0c0.18,0,0.37,0.03,0.54,0.1
	c0.14,0.06,0.26,0.15,0.36,0.27l-0.14,0.13c-0.09-0.1-0.2-0.18-0.33-0.22c-0.14-0.05-0.3-0.08-0.45-0.08
	c-0.09-0.01-0.18-0.01-0.27,0c-0.08,0.02-0.15,0.05-0.22,0.1c-0.06,0.04-0.11,0.1-0.15,0.16c-0.04,0.08-0.06,0.16-0.06,0.25
	c-0.01,0.06-0.01,0.12,0,0.18c0.03,0.05,0.07,0.09,0.12,0.12l0.21,0.09l0.31,0.08l0.44,0.11c0.11,0.03,0.21,0.08,0.31,0.14
	c0.08,0.05,0.15,0.11,0.2,0.19c0.05,0.09,0.07,0.18,0.07,0.28c0.01,0.22-0.1,0.43-0.28,0.55C107.02,72.45,106.76,72.52,106.5,72.5z
	 M109.15,72.5c-0.2,0-0.39-0.03-0.58-0.1c-0.18-0.06-0.35-0.16-0.48-0.3l0.13-0.17c0.12,0.12,0.27,0.21,0.43,0.28
	c0.16,0.06,0.33,0.09,0.5,0.09c0.19,0.01,0.38-0.04,0.54-0.14c0.14-0.09,0.21-0.24,0.21-0.4c0-0.07-0.02-0.14-0.05-0.2
	c-0.04-0.06-0.1-0.1-0.16-0.14c-0.08-0.04-0.17-0.08-0.26-0.1l-0.36-0.1c-0.13-0.02-0.26-0.06-0.38-0.1
	c-0.1-0.02-0.19-0.06-0.27-0.12c-0.07-0.04-0.12-0.1-0.15-0.17c-0.04-0.08-0.06-0.16-0.06-0.25c0-0.12,0.03-0.23,0.08-0.34
	c0.05-0.1,0.12-0.18,0.21-0.24c0.09-0.06,0.19-0.11,0.3-0.14c0.12-0.02,0.25-0.02,0.37,0c0.18,0,0.37,0.03,0.54,0.1
	c0.14,0.06,0.26,0.15,0.36,0.27l-0.14,0.13c-0.09-0.1-0.21-0.18-0.34-0.22c-0.23-0.07-0.48-0.07-0.71,0
	c-0.08,0.02-0.15,0.05-0.22,0.1c-0.06,0.04-0.11,0.1-0.15,0.16c-0.04,0.08-0.06,0.16-0.06,0.25c-0.01,0.06-0.01,0.12,0,0.18
	c0.03,0.05,0.07,0.09,0.12,0.12l0.21,0.09l0.31,0.08l0.44,0.11c0.11,0.03,0.21,0.08,0.31,0.14c0.08,0.05,0.15,0.11,0.2,0.19
	c0.05,0.09,0.07,0.18,0.07,0.28c0.01,0.22-0.1,0.43-0.28,0.55C109.62,72.5,109.38,72.53,109.15,72.5z M111.78,72.5
	c-0.56,0-0.83-0.38-0.83-1.15v-1.49h0.25v1.46c0,0.64,0.22,1,0.65,1c0.11,0,0.22-0.02,0.32-0.06c0.1-0.04,0.2-0.09,0.29-0.16
	c0.09-0.07,0.17-0.15,0.24-0.25c0.07-0.1,0.13-0.21,0.16-0.32v-1.67h0.25v2.24c0,0.09,0,0.13,0.1,0.13v0.22h-0.07
	c-0.07,0-0.13-0.02-0.18-0.07c-0.05-0.04-0.08-0.1-0.08-0.16v-0.39c-0.1,0.2-0.26,0.37-0.46,0.49
	C112.23,72.43,112.01,72.5,111.78,72.5z M115.38,70.08c-0.22,0.01-0.43,0.08-0.61,0.21c-0.18,0.13-0.31,0.32-0.37,0.54v1.62h-0.25
	v-2.59h0.24v0.64c0.08-0.18,0.2-0.33,0.36-0.45c0.14-0.11,0.3-0.18,0.48-0.2h0.15V70.08z M117.08,72.5
	c-0.18,0.01-0.35-0.03-0.51-0.11c-0.15-0.07-0.29-0.17-0.41-0.29c-0.11-0.13-0.2-0.27-0.27-0.43c-0.06-0.17-0.1-0.35-0.1-0.53
	c0-0.17,0.04-0.35,0.1-0.51c0.07-0.16,0.16-0.3,0.27-0.43c0.11-0.12,0.25-0.21,0.4-0.28c0.16-0.07,0.33-0.11,0.5-0.11
	c0.18,0,0.35,0.04,0.51,0.11c0.15,0.07,0.29,0.17,0.4,0.29c0.12,0.12,0.21,0.26,0.27,0.42c0.06,0.16,0.09,0.34,0.09,0.51v0.11h-2.28
	c0.01,0.15,0.05,0.29,0.11,0.42c0.05,0.12,0.13,0.24,0.23,0.33c0.09,0.1,0.19,0.17,0.31,0.22c0.12,0.06,0.26,0.08,0.39,0.08
	c0.09,0.01,0.17,0.01,0.26,0c0.09-0.02,0.17-0.05,0.24-0.1c0.08-0.04,0.15-0.09,0.2-0.16c0.06-0.06,0.11-0.12,0.14-0.2l0.22,0.06
	c-0.04,0.1-0.09,0.18-0.16,0.26c-0.07,0.08-0.16,0.15-0.25,0.2c-0.1,0.06-0.2,0.1-0.31,0.13C117.31,72.51,117.2,72.52,117.08,72.5z
	 M118.08,71.05c-0.01-0.14-0.04-0.28-0.1-0.41c-0.05-0.12-0.13-0.23-0.22-0.33c-0.09-0.09-0.2-0.16-0.32-0.22
	c-0.12-0.05-0.25-0.07-0.38-0.07c-0.13,0-0.27,0.02-0.39,0.07c-0.11,0.06-0.22,0.13-0.31,0.22c-0.1,0.09-0.17,0.2-0.22,0.33
	c-0.06,0.13-0.09,0.27-0.1,0.41H118.08z M1.85,82.5C1.51,82.51,1.2,82.31,1.06,82C1.02,81.9,1,81.8,1,81.7
	c-0.01-0.11,0.02-0.22,0.08-0.31c0.05-0.1,0.13-0.18,0.22-0.24c0.1-0.07,0.22-0.12,0.34-0.15c0.14-0.04,0.29-0.06,0.44-0.06
	c0.14-0.01,0.28-0.01,0.42,0c0.13,0.02,0.26,0.05,0.38,0.1v-0.26c0.01-0.21-0.06-0.42-0.21-0.58C2.52,80.06,2.31,79.98,2.1,80
	c-0.14,0-0.27,0.03-0.4,0.08c-0.15,0.06-0.3,0.14-0.43,0.23l-0.09-0.17c0.27-0.2,0.6-0.32,0.94-0.34c0.27-0.02,0.54,0.08,0.74,0.27
	c0.19,0.2,0.29,0.47,0.27,0.75v1.28c0,0.09,0,0.13,0.11,0.13v0.22h-0.1c-0.05,0-0.1-0.02-0.14-0.06c-0.04-0.04-0.07-0.1-0.07-0.16
	V82c-0.12,0.15-0.28,0.28-0.46,0.36C2.28,82.45,2.06,82.5,1.85,82.5z M1.85,82.3c0.18,0.01,0.36-0.03,0.53-0.11
	c0.15-0.06,0.28-0.16,0.37-0.29c0.05-0.05,0.08-0.13,0.08-0.2v-0.46c-0.12-0.04-0.24-0.08-0.37-0.1c-0.14-0.01-0.27-0.01-0.41,0
	c-0.12,0-0.24,0.02-0.35,0.05c-0.1,0.02-0.19,0.06-0.27,0.11c-0.15,0.09-0.24,0.25-0.24,0.42c0,0.09,0.01,0.17,0.05,0.25
	c0.03,0.07,0.08,0.14,0.14,0.19c0.06,0.06,0.13,0.1,0.21,0.13c0.1,0.03,0.21,0.03,0.31,0.01H1.85z M6.26,82.45H6V81
	c0.02-0.25-0.03-0.5-0.14-0.73C5.77,80.11,5.6,80,5.42,80c-0.11,0-0.22,0.02-0.33,0.06c-0.11,0.04-0.21,0.1-0.3,0.17
	c-0.1,0.07-0.18,0.16-0.25,0.26c-0.07,0.09-0.12,0.2-0.15,0.31v1.61H4.14v-2.55h0.23v0.62c0.06-0.1,0.12-0.19,0.2-0.28
	c0.08-0.08,0.17-0.14,0.27-0.2c0.1-0.06,0.2-0.1,0.31-0.13c0.11-0.02,0.23-0.02,0.34,0c0.24-0.02,0.47,0.09,0.6,0.3
	c0.13,0.26,0.18,0.56,0.17,0.85V82.45z M8.33,82.5c-0.17,0-0.34-0.04-0.5-0.11c-0.15-0.08-0.28-0.18-0.39-0.3
	c-0.12-0.12-0.21-0.27-0.26-0.43c-0.07-0.16-0.1-0.33-0.1-0.5c0-0.17,0.03-0.35,0.09-0.51c0.06-0.16,0.14-0.3,0.25-0.43
	C7.53,80.1,7.66,80,7.8,79.92c0.15-0.07,0.31-0.11,0.48-0.11c0.11-0.02,0.21-0.02,0.32,0l0.28,0.13c0.08,0.06,0.16,0.13,0.23,0.2
	c0.07,0.07,0.13,0.15,0.18,0.23v-1.56h0.25v3.29c0,0.09,0,0.13,0.1,0.13v0.22H9.55c-0.07,0-0.13-0.03-0.17-0.08
	c-0.04-0.04-0.07-0.1-0.07-0.16v-0.29c-0.1,0.17-0.25,0.32-0.42,0.42C8.72,82.44,8.53,82.5,8.33,82.5z M8.38,82.28
	c0.1,0,0.2-0.02,0.29-0.06C8.79,82.19,8.9,82.14,9,82.07c0.09-0.06,0.16-0.14,0.23-0.22c0.06-0.08,0.1-0.17,0.11-0.27v-0.85
	c-0.04-0.1-0.09-0.19-0.16-0.27c-0.06-0.09-0.14-0.16-0.23-0.22c-0.09-0.06-0.18-0.11-0.28-0.15c-0.1-0.02-0.19-0.02-0.29,0
	c-0.14,0-0.28,0.03-0.41,0.09c-0.12,0.06-0.23,0.15-0.31,0.26c-0.09,0.1-0.16,0.23-0.2,0.36c-0.05,0.13-0.07,0.27-0.07,0.41
	c0,0.15,0.03,0.29,0.08,0.43c0.05,0.13,0.13,0.25,0.22,0.35c0.09,0.11,0.2,0.19,0.33,0.25C8.14,82.28,8.26,82.29,8.38,82.28z
	 M12,82.45c0-0.09,0-0.2,0-0.31c0.02-0.12,0.06-0.24,0.12-0.35c0.06-0.13,0.15-0.24,0.25-0.34c0.13-0.13,0.28-0.24,0.45-0.31
	l0.3-0.14c0.1-0.04,0.2-0.1,0.29-0.16c0.09-0.06,0.17-0.13,0.23-0.21c0.06-0.08,0.09-0.19,0.09-0.29c0.01-0.07,0.01-0.13,0-0.2
	c-0.03-0.07-0.07-0.13-0.13-0.18c-0.07-0.05-0.14-0.1-0.22-0.13c-0.11-0.02-0.21-0.02-0.32,0c-0.1-0.02-0.21-0.02-0.31,0l-0.24,0.12
	l-0.17,0.14l-0.1,0.11L12,80l0.1-0.1c0.06-0.06,0.13-0.12,0.21-0.16c0.09-0.07,0.2-0.12,0.31-0.15c0.13-0.05,0.27-0.07,0.41-0.07
	c0.14,0,0.27,0.02,0.4,0.06c0.11,0.04,0.21,0.1,0.3,0.17c0.08,0.07,0.14,0.16,0.18,0.25c0.04,0.1,0.06,0.2,0.06,0.3
	c0,0.13-0.03,0.25-0.09,0.36c-0.07,0.1-0.15,0.19-0.25,0.26c-0.1,0.07-0.2,0.13-0.3,0.18l-0.27,0.13c-0.22,0.09-0.43,0.22-0.6,0.39
	c-0.14,0.16-0.22,0.36-0.22,0.57H14v0.23L12,82.45z M17.59,82.33h-0.07l-0.12,0.06h-0.16c-0.07,0.01-0.13,0.01-0.2,0
	c-0.06,0.01-0.13,0.01-0.19,0c-0.06-0.02-0.12-0.05-0.17-0.09c-0.04-0.04-0.08-0.09-0.11-0.14c-0.01-0.07-0.01-0.13,0-0.2v-2H16.2
	v-0.2h0.37V79h0.24v0.89h0.61v0.2h-0.61V82c0,0.08,0.03,0.16,0.1,0.21c0.07,0.05,0.15,0.08,0.23,0.08c0.09,0,0.19-0.02,0.27-0.06
	l0.13-0.06L17.59,82.33z M18.28,79.27v-0.46h0.25v0.46H18.28z M18.28,82.45v-2.59h0.25v2.59H18.28z M23.37,82.45h-0.25V81
	c0.02-0.25-0.03-0.5-0.15-0.72C22.88,80.11,22.7,80,22.5,80c-0.1,0-0.21,0.02-0.3,0.06c-0.1,0.04-0.19,0.1-0.27,0.17
	c-0.08,0.07-0.15,0.16-0.2,0.25c-0.06,0.1-0.11,0.21-0.14,0.33v1.6h-0.25V81c0.02-0.25-0.03-0.5-0.15-0.73
	c-0.1-0.15-0.28-0.24-0.46-0.23c-0.11,0-0.21,0.02-0.31,0.06c-0.09,0.04-0.18,0.09-0.26,0.16c-0.08,0.08-0.15,0.16-0.21,0.26
	c-0.06,0.1-0.11,0.21-0.14,0.32v1.61h-0.25v-2.59h0.23v0.62c0.1-0.2,0.24-0.37,0.42-0.49c0.17-0.12,0.37-0.18,0.58-0.18
	c0.2-0.01,0.39,0.07,0.53,0.2c0.14,0.13,0.23,0.32,0.24,0.51c0.17-0.41,0.56-0.69,1-0.71c0.24-0.02,0.48,0.09,0.61,0.3
	c0.13,0.26,0.2,0.56,0.18,0.85L23.37,82.45z M25.48,82.5c-0.18,0.01-0.35-0.03-0.51-0.11c-0.15-0.07-0.29-0.17-0.41-0.29
	c-0.11-0.13-0.2-0.27-0.27-0.43c-0.06-0.17-0.1-0.35-0.1-0.53c0-0.17,0.04-0.35,0.1-0.51c0.07-0.16,0.16-0.3,0.27-0.43
	c0.11-0.12,0.25-0.21,0.4-0.28c0.16-0.07,0.33-0.11,0.5-0.11c0.18,0,0.35,0.04,0.51,0.11c0.15,0.07,0.29,0.17,0.41,0.29
	c0.11,0.12,0.2,0.26,0.26,0.42c0.06,0.16,0.09,0.34,0.09,0.51v0.11h-2.28c0.01,0.15,0.05,0.29,0.11,0.42
	c0.05,0.12,0.13,0.24,0.23,0.33c0.09,0.1,0.19,0.17,0.31,0.22c0.12,0.06,0.26,0.08,0.39,0.08c0.09,0.01,0.17,0.01,0.26,0
	c0.09-0.02,0.17-0.05,0.24-0.1c0.08-0.04,0.15-0.09,0.2-0.16c0.06-0.06,0.11-0.12,0.14-0.2l0.22,0.06c-0.04,0.1-0.09,0.18-0.16,0.26
	c-0.07,0.08-0.16,0.15-0.25,0.2c-0.1,0.06-0.2,0.1-0.31,0.13C25.71,82.51,25.6,82.52,25.48,82.5z M26.48,81.05
	c-0.01-0.14-0.04-0.28-0.1-0.41c-0.05-0.12-0.13-0.23-0.22-0.33c-0.09-0.09-0.2-0.16-0.32-0.22c-0.12-0.05-0.25-0.07-0.38-0.07
	c-0.13,0-0.27,0.02-0.39,0.07c-0.11,0.06-0.22,0.13-0.31,0.22c-0.1,0.09-0.17,0.2-0.22,0.33c-0.06,0.13-0.09,0.27-0.1,0.41H26.48z
	 M28.36,82.5c-0.2,0-0.39-0.03-0.58-0.1c-0.18-0.06-0.35-0.16-0.48-0.3l0.13-0.17c0.12,0.12,0.27,0.21,0.43,0.28
	c0.16,0.06,0.33,0.09,0.5,0.09c0.19,0.01,0.38-0.04,0.54-0.14c0.14-0.09,0.21-0.24,0.21-0.4c0-0.07-0.02-0.14-0.05-0.2
	c-0.04-0.06-0.1-0.1-0.16-0.14c-0.08-0.04-0.17-0.08-0.26-0.1l-0.36-0.1c-0.13-0.02-0.26-0.06-0.38-0.1
	c-0.1-0.02-0.19-0.06-0.27-0.12c-0.07-0.04-0.12-0.1-0.15-0.17c-0.04-0.08-0.06-0.16-0.06-0.25c0-0.12,0.03-0.23,0.08-0.34
	c0.05-0.1,0.12-0.18,0.21-0.24c0.09-0.07,0.19-0.11,0.3-0.14c0.12-0.02,0.25-0.02,0.37,0c0.18,0,0.37,0.03,0.54,0.1
	c0.14,0.06,0.26,0.15,0.36,0.27l-0.14,0.13c-0.09-0.1-0.21-0.18-0.34-0.22c-0.14-0.05-0.29-0.08-0.44-0.08
	c-0.09-0.01-0.18-0.01-0.27,0c-0.08,0.01-0.16,0.05-0.22,0.1c-0.06,0.04-0.12,0.09-0.15,0.16c-0.04,0.08-0.06,0.16-0.06,0.25
	c-0.02,0.06-0.02,0.12,0,0.18c0.02,0.05,0.07,0.1,0.12,0.12l0.21,0.09l0.31,0.08l0.44,0.11c0.11,0.03,0.21,0.08,0.31,0.14
	c0.08,0.05,0.15,0.11,0.2,0.19c0.04,0.09,0.07,0.18,0.06,0.28c0.01,0.22-0.09,0.42-0.27,0.55C28.84,82.44,28.6,82.51,28.36,82.5z
	 M33.83,82.45h-0.25V81c0-0.64-0.21-1-0.64-1c-0.11,0-0.21,0.02-0.31,0.06c-0.1,0.04-0.2,0.1-0.28,0.17
	c-0.09,0.07-0.17,0.16-0.24,0.26c-0.06,0.1-0.11,0.2-0.15,0.31v1.61h-0.25v-3.6H32v1.67c0.1-0.2,0.26-0.37,0.45-0.49
	c0.18-0.12,0.39-0.18,0.6-0.18c0.13,0,0.25,0.03,0.37,0.08c0.1,0.05,0.19,0.13,0.26,0.23c0.07,0.11,0.12,0.23,0.15,0.36
	c0.02,0.16,0.02,0.32,0,0.48L33.83,82.45z M34.84,79.27v-0.46h0.25v0.46H34.84z M34.84,82.45v-2.59h0.25v2.59H34.84z M37.17,82.49
	c-0.17,0-0.34-0.04-0.5-0.11c-0.14-0.08-0.27-0.18-0.38-0.3c-0.11-0.13-0.2-0.27-0.26-0.43c-0.06-0.16-0.09-0.32-0.09-0.49
	c0-0.17,0.03-0.35,0.09-0.51c0.06-0.16,0.14-0.3,0.24-0.43c0.11-0.12,0.24-0.23,0.39-0.3c0.15-0.07,0.32-0.11,0.49-0.11
	c0.21,0,0.42,0.06,0.59,0.18c0.17,0.12,0.31,0.26,0.43,0.43v-0.56h0.23v2.64c0,0.16-0.03,0.32-0.1,0.47
	c-0.07,0.13-0.16,0.24-0.27,0.33c-0.12,0.09-0.25,0.16-0.39,0.2c-0.15,0.04-0.31,0.06-0.47,0.06c-0.13,0.02-0.27,0.02-0.4,0
	c-0.11-0.03-0.22-0.07-0.32-0.12c-0.09-0.05-0.17-0.11-0.24-0.19C36.13,83.18,36.06,83.09,36,83l0.17-0.12
	c0.09,0.17,0.24,0.31,0.42,0.39c0.18,0.08,0.37,0.12,0.56,0.12c0.13,0.02,0.25,0.02,0.38,0c0.11-0.04,0.22-0.1,0.31-0.17
	c0.09-0.07,0.16-0.16,0.21-0.26c0.05-0.12,0.08-0.25,0.08-0.38v-0.57c-0.11,0.17-0.25,0.31-0.43,0.41
	C37.53,82.49,37.35,82.51,37.17,82.49z M37.23,82.28c0.11,0,0.22-0.02,0.32-0.07c0.1-0.04,0.2-0.09,0.28-0.16
	c0.08-0.06,0.16-0.13,0.21-0.22c0.05-0.08,0.09-0.16,0.11-0.25v-0.85c-0.04-0.1-0.1-0.19-0.16-0.28c-0.07-0.08-0.14-0.16-0.23-0.22
	c-0.09-0.06-0.18-0.11-0.28-0.14c-0.1-0.02-0.19-0.02-0.29,0c-0.15,0-0.29,0.03-0.42,0.1c-0.12,0.06-0.23,0.15-0.31,0.26
	c-0.09,0.1-0.16,0.23-0.2,0.36c-0.04,0.13-0.07,0.26-0.07,0.4c0,0.15,0.03,0.29,0.08,0.43c0.06,0.13,0.13,0.25,0.22,0.35
	c0.09,0.1,0.21,0.19,0.33,0.25C36.95,82.28,37.09,82.3,37.23,82.28z M41.54,82.45h-0.25V81c0-0.64-0.21-1-0.64-1
	c-0.11,0-0.21,0.02-0.31,0.06c-0.1,0.04-0.2,0.1-0.29,0.17c-0.09,0.08-0.16,0.16-0.23,0.26c-0.06,0.1-0.11,0.2-0.15,0.31v1.61h-0.25
	v-3.6h0.25v1.67c0.1-0.2,0.25-0.37,0.44-0.49c0.18-0.12,0.39-0.18,0.61-0.18c0.13,0,0.25,0.03,0.37,0.08
	c0.1,0.05,0.19,0.13,0.26,0.23c0.07,0.11,0.12,0.23,0.15,0.36c0.02,0.16,0.02,0.32,0,0.48L41.54,82.45z M43.65,82.5
	c-0.18,0-0.35-0.03-0.51-0.11c-0.15-0.07-0.29-0.17-0.41-0.29c-0.11-0.13-0.2-0.27-0.27-0.43c-0.06-0.17-0.09-0.35-0.09-0.53
	c0-0.17,0.03-0.35,0.09-0.51c0.07-0.16,0.16-0.3,0.27-0.43c0.24-0.24,0.56-0.38,0.9-0.39c0.18,0,0.35,0.04,0.51,0.11
	c0.15,0.07,0.29,0.17,0.41,0.29c0.11,0.12,0.2,0.26,0.26,0.42c0.07,0.16,0.1,0.33,0.1,0.51v0.07l0,0h-2.28
	c0.01,0.14,0.04,0.29,0.1,0.42C42.79,81.77,42.89,81.9,43,82c0.09,0.1,0.2,0.17,0.32,0.22c0.12,0.06,0.25,0.08,0.38,0.08
	c0.09,0.02,0.17,0.02,0.26,0c0.09-0.02,0.17-0.05,0.25-0.1c0.08-0.04,0.14-0.1,0.2-0.16c0.05-0.06,0.1-0.13,0.13-0.2l0.22,0.06
	c-0.03,0.1-0.09,0.19-0.16,0.26c-0.07,0.08-0.15,0.15-0.25,0.2c-0.1,0.06-0.2,0.1-0.31,0.13C43.91,82.52,43.78,82.52,43.65,82.5z
	 M44.65,81.05c-0.01-0.14-0.04-0.28-0.1-0.41c-0.06-0.12-0.13-0.23-0.23-0.33c-0.09-0.09-0.2-0.16-0.32-0.22
	c-0.24-0.09-0.52-0.09-0.76,0c-0.12,0.06-0.23,0.13-0.32,0.22c-0.09,0.09-0.17,0.21-0.22,0.33c-0.06,0.13-0.09,0.27-0.1,0.41H44.65z
	 M46.93,80.08c-0.22,0.01-0.43,0.08-0.61,0.21c-0.18,0.13-0.3,0.32-0.36,0.54v1.62h-0.25v-2.59H46v0.64
	c0.08-0.18,0.2-0.33,0.35-0.45c0.14-0.11,0.3-0.18,0.48-0.2h0.15L46.93,80.08z M50.23,82.33h-0.07l-0.12,0.06h-0.16
	c-0.07,0.01-0.13,0.01-0.2,0c-0.06,0.01-0.13,0.01-0.19,0c-0.06-0.02-0.12-0.05-0.17-0.09c-0.04-0.04-0.08-0.09-0.11-0.14
	c-0.01-0.07-0.01-0.13,0-0.2v-2h-0.36v-0.2h0.36V79h0.25v0.89H50v0.2h-0.61V82c0,0.08,0.03,0.16,0.1,0.21
	c0.07,0.05,0.15,0.08,0.23,0.08c0.09,0,0.18-0.02,0.26-0.06l0.14-0.06L50.23,82.33z M52,82.5c-0.18,0-0.35-0.03-0.51-0.11
	c-0.15-0.07-0.29-0.17-0.4-0.29c-0.12-0.12-0.21-0.27-0.27-0.43c-0.07-0.17-0.1-0.35-0.1-0.53c0-0.18,0.03-0.35,0.1-0.51
	c0.03-0.15,0.09-0.3,0.18-0.43c0.11-0.12,0.25-0.22,0.4-0.28c0.16-0.07,0.33-0.11,0.5-0.11c0.18,0,0.35,0.04,0.51,0.11
	c0.15,0.07,0.29,0.17,0.4,0.29c0.11,0.12,0.2,0.27,0.27,0.42c0.06,0.16,0.09,0.34,0.09,0.51v0.11h-2.24
	c0.01,0.15,0.05,0.29,0.11,0.42c0.05,0.12,0.13,0.24,0.22,0.33c0.09,0.1,0.2,0.17,0.32,0.22c0.21,0.08,0.44,0.08,0.65,0
	c0.08-0.02,0.17-0.05,0.24-0.1c0.08-0.04,0.14-0.1,0.2-0.16c0.06-0.06,0.11-0.13,0.14-0.2l0.22,0.06c-0.04,0.1-0.1,0.19-0.17,0.26
	c-0.07,0.08-0.15,0.15-0.25,0.2c-0.1,0.06-0.2,0.1-0.31,0.13C52.21,82.46,52.1,82.49,52,82.5z M53,81.05
	c-0.01-0.14-0.04-0.28-0.1-0.41c-0.05-0.12-0.13-0.24-0.23-0.33c-0.09-0.09-0.2-0.16-0.31-0.22c-0.12-0.05-0.26-0.07-0.39-0.07
	c-0.13,0-0.26,0.02-0.38,0.07c-0.12,0.06-0.23,0.13-0.32,0.22c-0.09,0.1-0.17,0.21-0.22,0.33c-0.05,0.13-0.08,0.27-0.1,0.41H53z
	 M56.13,82.45h-0.25V81c0.02-0.25-0.03-0.5-0.14-0.73c-0.1-0.15-0.27-0.24-0.45-0.23c-0.11,0-0.22,0.02-0.33,0.06
	c-0.11,0.04-0.21,0.1-0.3,0.17c-0.1,0.07-0.18,0.16-0.25,0.26c-0.07,0.09-0.12,0.2-0.15,0.31v1.61H54v-2.59h0.23v0.62
	c0.06-0.1,0.12-0.19,0.2-0.28c0.08-0.08,0.17-0.15,0.27-0.21c0.1-0.06,0.2-0.1,0.31-0.13c0.11-0.02,0.23-0.02,0.34,0
	c0.24-0.02,0.47,0.09,0.6,0.3c0.13,0.26,0.18,0.56,0.17,0.85L56.13,82.45z M58,82.5c-0.2,0-0.39-0.03-0.58-0.1
	c-0.18-0.06-0.35-0.16-0.48-0.3l0.13-0.17c0.12,0.12,0.27,0.21,0.43,0.28c0.16,0.06,0.33,0.09,0.5,0.09
	c0.19,0.01,0.38-0.04,0.54-0.14c0.14-0.09,0.21-0.24,0.21-0.4c0-0.07-0.02-0.14-0.05-0.2c-0.04-0.06-0.1-0.1-0.16-0.14
	c-0.08-0.04-0.17-0.08-0.26-0.1l-0.36-0.1c-0.13-0.02-0.26-0.06-0.38-0.1c-0.1-0.02-0.19-0.06-0.27-0.12
	c-0.07-0.04-0.12-0.1-0.15-0.17c-0.04-0.08-0.06-0.16-0.06-0.25c0-0.12,0.03-0.23,0.08-0.34c0.05-0.09,0.12-0.18,0.2-0.24
	c0.09-0.06,0.2-0.11,0.31-0.14c0.29-0.1,0.61-0.1,0.9,0c0.14,0.06,0.27,0.15,0.37,0.27l-0.14,0.13c-0.09-0.1-0.21-0.18-0.34-0.22
	C58.3,80,58.15,79.99,58,80c-0.09-0.01-0.18-0.01-0.27,0c-0.08,0.01-0.16,0.05-0.22,0.1c-0.06,0.04-0.12,0.09-0.15,0.16
	c-0.04,0.08-0.06,0.16-0.06,0.25c-0.02,0.06-0.02,0.12,0,0.18c0.03,0.05,0.07,0.09,0.12,0.12l0.21,0.09l0.31,0.08l0.44,0.11
	c0.11,0.03,0.21,0.08,0.31,0.14c0.08,0.05,0.15,0.11,0.2,0.19c0.04,0.09,0.07,0.18,0.06,0.28c0.01,0.22-0.09,0.42-0.27,0.55
	C58.49,82.41,58.25,82.49,58,82.5z M59.78,79.27v-0.46H60v0.46H59.78z M59.78,82.45v-2.59H60v2.59H59.78z M61.08,78.81h0.26v3.13
	c0,0.08,0.03,0.16,0.08,0.23c0.06,0.05,0.15,0.08,0.23,0.08h0.13h0.14v0.2c-0.07,0.03-0.14,0.05-0.21,0.06H61.5
	c-0.13,0.01-0.25-0.04-0.34-0.13c-0.09-0.09-0.14-0.21-0.13-0.34L61.08,78.81z M63.71,82.5c-0.18,0-0.35-0.03-0.51-0.11
	c-0.15-0.07-0.29-0.17-0.41-0.29c-0.11-0.13-0.2-0.27-0.27-0.43c-0.06-0.17-0.09-0.35-0.09-0.53c0-0.17,0.03-0.35,0.09-0.51
	c0.07-0.16,0.16-0.3,0.27-0.43c0.11-0.12,0.25-0.21,0.4-0.28c0.16-0.07,0.33-0.11,0.5-0.11c0.18,0,0.35,0.04,0.51,0.11
	c0.15,0.07,0.29,0.17,0.41,0.29c0.11,0.12,0.2,0.26,0.26,0.42c0.06,0.16,0.1,0.34,0.1,0.51v0.07l0,0h-2.28
	c0.01,0.14,0.04,0.29,0.1,0.42c0.05,0.14,0.12,0.26,0.21,0.37c0.09,0.1,0.19,0.17,0.31,0.22c0.12,0.06,0.26,0.08,0.39,0.08
	c0.09,0.02,0.17,0.02,0.26,0c0.09-0.02,0.17-0.05,0.25-0.1c0.07-0.04,0.14-0.09,0.19-0.16c0.06-0.06,0.11-0.12,0.14-0.2l0.22,0.06
	c-0.03,0.1-0.09,0.19-0.16,0.26c-0.07,0.08-0.16,0.15-0.25,0.2c-0.1,0.06-0.2,0.1-0.31,0.13C63.93,82.51,63.82,82.51,63.71,82.5z
	 M64.71,81.05c-0.01-0.14-0.05-0.28-0.11-0.41c-0.05-0.12-0.13-0.24-0.22-0.33c-0.09-0.09-0.2-0.16-0.32-0.22
	c-0.11-0.05-0.24-0.08-0.36-0.09c-0.13,0-0.27,0.02-0.39,0.07c-0.11,0.06-0.22,0.13-0.31,0.22c-0.09,0.09-0.17,0.21-0.22,0.33
	c-0.06,0.13-0.09,0.27-0.1,0.41L64.71,81.05z M68.12,82.5c-0.19,0-0.39-0.03-0.57-0.1c-0.18-0.06-0.35-0.16-0.48-0.3l0.12-0.17
	c0.13,0.12,0.28,0.21,0.44,0.28c0.16,0.06,0.32,0.09,0.49,0.09c0.19,0.01,0.38-0.04,0.55-0.14c0.13-0.09,0.2-0.24,0.2-0.4
	c0.01-0.07-0.01-0.14-0.05-0.2c-0.04-0.06-0.1-0.11-0.16-0.14c-0.08-0.04-0.16-0.08-0.25-0.1l-0.36-0.1
	c-0.13-0.02-0.26-0.06-0.39-0.1c-0.09-0.03-0.18-0.07-0.26-0.12c-0.07-0.04-0.13-0.1-0.16-0.17c-0.02-0.08-0.02-0.17,0-0.25
	c0-0.12,0.02-0.23,0.07-0.34c0.05-0.1,0.12-0.18,0.21-0.24c0.09-0.06,0.19-0.11,0.3-0.14c0.12-0.02,0.25-0.02,0.37,0
	c0.18,0,0.37,0.03,0.54,0.1c0.14,0.06,0.27,0.15,0.36,0.27l-0.14,0.13c-0.09-0.1-0.2-0.18-0.33-0.22c-0.14-0.05-0.29-0.08-0.44-0.08
	c-0.09-0.01-0.19-0.01-0.28,0c-0.08,0.02-0.15,0.05-0.22,0.1c-0.06,0.04-0.11,0.1-0.15,0.16c-0.02,0.08-0.02,0.17,0,0.25
	c-0.01,0.06-0.01,0.12,0,0.18c0.03,0.05,0.07,0.09,0.12,0.12l0.22,0.09l0.31,0.08l0.43,0.11c0.11,0.03,0.22,0.08,0.32,0.14
	c0.08,0.05,0.14,0.11,0.19,0.19c0.05,0.08,0.08,0.18,0.07,0.28c0.01,0.22-0.09,0.42-0.27,0.55C68.69,82.47,68.4,82.54,68.12,82.5z
	 M71.1,82.33h-0.06l-0.12,0.06h-0.17c-0.06,0.01-0.13,0.01-0.19,0c-0.07,0.01-0.13,0.01-0.2,0c-0.06-0.02-0.11-0.05-0.16-0.09
	c-0.04-0.04-0.08-0.09-0.11-0.14c-0.01-0.07-0.01-0.13,0-0.2v-2h-0.36v-0.2h0.36V79h0.25v0.89h0.6v0.2h-0.6V82
	c-0.01,0.08,0.03,0.16,0.1,0.21c0.06,0.05,0.14,0.08,0.22,0.08c0.09,0,0.19-0.02,0.27-0.06l0.14-0.06L71.1,82.33z M73,80.08
	c-0.22,0.01-0.43,0.08-0.61,0.21c-0.18,0.13-0.31,0.32-0.37,0.54v1.62h-0.25v-2.59H72v0.64c0.08-0.18,0.2-0.33,0.36-0.45
	c0.14-0.11,0.3-0.18,0.48-0.2H73V80.08z M74.72,82.5c-0.18,0.01-0.35-0.03-0.51-0.11c-0.15-0.07-0.29-0.17-0.41-0.29
	c-0.11-0.13-0.2-0.27-0.27-0.43c-0.06-0.17-0.1-0.35-0.1-0.53c0-0.17,0.04-0.35,0.1-0.51c0.07-0.16,0.16-0.3,0.27-0.43
	c0.11-0.12,0.25-0.21,0.4-0.28c0.16-0.07,0.33-0.11,0.5-0.11c0.18,0,0.35,0.04,0.51,0.11c0.15,0.07,0.29,0.17,0.41,0.29
	c0.11,0.12,0.2,0.26,0.26,0.42c0.06,0.16,0.09,0.34,0.09,0.51v0.11h-2.28c0.01,0.15,0.05,0.29,0.11,0.42
	c0.04,0.12,0.11,0.23,0.2,0.33c0.09,0.1,0.19,0.17,0.31,0.22c0.12,0.06,0.26,0.08,0.39,0.08c0.09,0.01,0.17,0.01,0.26,0
	c0.09-0.02,0.17-0.05,0.24-0.1c0.08-0.04,0.15-0.09,0.2-0.16c0.06-0.06,0.11-0.12,0.14-0.2l0.22,0.06c-0.04,0.1-0.09,0.18-0.16,0.26
	c-0.07,0.08-0.16,0.15-0.25,0.2c-0.1,0.06-0.2,0.1-0.31,0.13C74.93,82.51,74.83,82.51,74.72,82.5z M75.72,81.05
	c-0.01-0.14-0.04-0.28-0.1-0.41c-0.05-0.12-0.13-0.23-0.22-0.33c-0.09-0.09-0.2-0.16-0.32-0.22c-0.12-0.05-0.25-0.07-0.38-0.07
	c-0.13,0-0.27,0.02-0.39,0.07c-0.11,0.06-0.22,0.13-0.31,0.22c-0.1,0.09-0.17,0.2-0.22,0.33c-0.06,0.13-0.09,0.27-0.1,0.41H75.72z
	 M78.89,82.45h-0.25V81c0.02-0.25-0.03-0.5-0.14-0.73c-0.1-0.15-0.27-0.24-0.45-0.23c-0.11,0-0.22,0.02-0.33,0.06
	c-0.11,0.04-0.21,0.1-0.3,0.17c-0.09,0.07-0.17,0.16-0.24,0.26c-0.07,0.1-0.12,0.2-0.16,0.31v1.61h-0.25v-2.59H77v0.62
	c0.05-0.1,0.12-0.19,0.19-0.28c0.08-0.08,0.17-0.15,0.27-0.21c0.1-0.05,0.2-0.1,0.31-0.13c0.11-0.02,0.23-0.02,0.34,0
	c0.24-0.02,0.47,0.09,0.6,0.3c0.13,0.26,0.18,0.56,0.17,0.85L78.89,82.45z M80.94,82.49c-0.17,0-0.34-0.04-0.49-0.11
	c-0.15-0.08-0.28-0.18-0.39-0.3c-0.11-0.13-0.19-0.27-0.25-0.43c-0.06-0.16-0.09-0.32-0.09-0.49c0-0.17,0.03-0.35,0.08-0.51
	c0.06-0.16,0.14-0.3,0.25-0.43c0.11-0.12,0.23-0.23,0.38-0.3c0.15-0.07,0.32-0.11,0.49-0.11c0.21-0.01,0.42,0.06,0.6,0.18
	c0.16,0.12,0.31,0.26,0.42,0.43v-0.56h0.23v2.64c0.01,0.16-0.03,0.32-0.1,0.47C82,83.1,81.91,83.21,81.8,83.3
	c-0.11,0.09-0.24,0.16-0.38,0.2c-0.15,0.04-0.31,0.06-0.47,0.06c-0.14,0.02-0.27,0.02-0.41,0c-0.11-0.03-0.21-0.07-0.31-0.12
	c-0.09-0.05-0.18-0.11-0.25-0.19c-0.07-0.07-0.13-0.16-0.18-0.25l0.17-0.12c0.09,0.17,0.24,0.31,0.42,0.39
	c0.18,0.08,0.37,0.12,0.56,0.12c0.13,0.02,0.25,0.02,0.38,0c0.11-0.04,0.22-0.1,0.31-0.17c0.08-0.07,0.15-0.16,0.2-0.26
	c0.06-0.12,0.09-0.25,0.08-0.38v-0.57c-0.1,0.17-0.25,0.31-0.42,0.41C81.32,82.49,81.13,82.51,80.94,82.49z M81,82.28
	c0.11,0,0.23-0.02,0.33-0.07c0.1-0.04,0.2-0.09,0.28-0.16c0.08-0.06,0.15-0.13,0.21-0.22c0.05-0.07,0.09-0.16,0.1-0.25v-0.85
	c-0.04-0.1-0.09-0.2-0.16-0.28c-0.06-0.09-0.13-0.16-0.22-0.22c-0.09-0.06-0.18-0.11-0.28-0.14c-0.1-0.02-0.2-0.02-0.3,0
	c-0.15,0-0.29,0.03-0.42,0.1c-0.12,0.06-0.23,0.15-0.31,0.26c-0.09,0.11-0.15,0.23-0.19,0.36c-0.05,0.13-0.07,0.26-0.07,0.4
	c0,0.15,0.03,0.29,0.08,0.43c0.05,0.13,0.13,0.25,0.22,0.35c0.09,0.11,0.2,0.19,0.33,0.25C80.73,82.28,80.87,82.3,81,82.28z
	 M84.36,82.33h-0.07l-0.12,0.06h-0.16c-0.07,0.01-0.13,0.01-0.2,0c-0.06,0.01-0.13,0.01-0.19,0c-0.06-0.02-0.12-0.05-0.17-0.09
	c-0.04-0.04-0.08-0.09-0.11-0.14c-0.01-0.07-0.01-0.13,0-0.2v-2h-0.36v-0.2h0.36V79h0.25v0.89h0.61v0.2h-0.61V82
	c0,0.08,0.03,0.16,0.1,0.21c0.07,0.05,0.15,0.08,0.23,0.08c0.09,0,0.19-0.02,0.27-0.06l0.13-0.06L84.36,82.33z M87.17,82.45h-0.25
	V81c0-0.64-0.22-1-0.65-1c-0.11,0-0.21,0.02-0.31,0.06c-0.1,0.04-0.2,0.1-0.28,0.17c-0.09,0.07-0.17,0.16-0.23,0.26
	c-0.07,0.09-0.12,0.2-0.15,0.31v1.61h-0.25v-3.6h0.25v1.67c0.1-0.2,0.25-0.37,0.44-0.49c0.18-0.12,0.39-0.18,0.6-0.18
	c0.13,0,0.25,0.02,0.37,0.08c0.11,0.05,0.2,0.13,0.26,0.23c0.07,0.11,0.12,0.23,0.15,0.36c0.02,0.16,0.02,0.32,0,0.48L87.17,82.45z
	 M88.12,82.45V82h0.21v0.42L88.12,82.45z"/>
<path class="st2" d="M8.46,20.84H4.38v10.34h-0.3V20.84H0v-0.3h8.46V20.84z M13.92,31.26c-0.69,0-1.38-0.16-2-0.47
	c-0.6-0.3-1.13-0.71-1.57-1.21c-0.44-0.51-0.78-1.1-1-1.73c-0.24-0.64-0.36-1.32-0.36-2c0.01-1.39,0.52-2.72,1.44-3.76
	c0.44-0.49,0.97-0.9,1.57-1.19c0.62-0.3,1.31-0.45,2-0.44c0.69,0,1.38,0.16,2,0.47c0.6,0.31,1.13,0.73,1.56,1.24
	c0.43,0.51,0.77,1.1,1,1.73c0.24,0.64,0.36,1.32,0.36,2c0,0.71-0.13,1.4-0.39,2.06c-0.24,0.63-0.6,1.21-1.05,1.71
	c-0.44,0.49-0.97,0.9-1.56,1.19C15.29,31.15,14.61,31.28,13.92,31.26z M9.25,25.86c0,0.65,0.12,1.3,0.36,1.91
	c0.23,0.6,0.57,1.16,1,1.64c0.39,0.46,0.86,0.85,1.39,1.13c0.59,0.28,1.23,0.43,1.88,0.42c0.66,0.01,1.3-0.14,1.89-0.44
	c0.56-0.29,1.06-0.69,1.47-1.17c0.82-0.98,1.28-2.21,1.29-3.49c-0.01-1.3-0.49-2.56-1.34-3.55c-0.42-0.47-0.92-0.85-1.48-1.13
	c-0.57-0.28-1.2-0.43-1.83-0.42c-0.66-0.01-1.31,0.14-1.9,0.44c-0.56,0.29-1.07,0.69-1.48,1.17c-0.82,0.98-1.28,2.21-1.29,3.49
	L9.25,25.86z M25.25,31c0.69,0.03,1.38-0.13,2-0.45c0.51-0.28,0.94-0.68,1.25-1.17c0.31-0.5,0.53-1.05,0.64-1.63
	c0.13-0.61,0.19-1.23,0.19-1.85v-5.36h0.3v5.32c0,0.67-0.07,1.34-0.22,2c-0.13,0.62-0.38,1.2-0.73,1.72
	c-0.34,0.5-0.8,0.91-1.34,1.19c-0.64,0.32-1.35,0.47-2.06,0.45c-0.73,0.02-1.45-0.14-2.1-0.47c-0.54-0.29-1-0.71-1.34-1.23
	c-0.35-0.52-0.59-1.11-0.71-1.73c-0.14-0.66-0.21-1.33-0.21-2v-5.25h0.3v5.32c0,0.63,0.06,1.25,0.18,1.87
	c0.1,0.58,0.31,1.13,0.6,1.64c0.31,0.48,0.74,0.88,1.25,1.15C23.86,30.85,24.55,31.02,25.25,31z M40.51,29.37
	c-0.93,1.17-2.34,1.87-3.84,1.89c-0.69,0-1.38-0.16-2-0.47c-0.63-0.3-1.2-0.72-1.67-1.24c-0.43-0.51-0.77-1.1-1-1.73
	c-0.24-0.64-0.37-1.32-0.37-2c0.01-1.35,0.5-2.66,1.37-3.7c0.42-0.51,0.94-0.92,1.53-1.21c0.62-0.31,1.31-0.46,2-0.45
	c0.5,0,0.99,0.05,1.47,0.17c0.4,0.11,0.78,0.27,1.14,0.48c0.32,0.2,0.6,0.45,0.84,0.74c0.24,0.29,0.45,0.6,0.61,0.94l-0.28,0.09
	c-0.35-0.69-0.9-1.25-1.58-1.62c-0.68-0.34-1.44-0.51-2.2-0.5c-0.66-0.01-1.3,0.14-1.89,0.44c-0.55,0.29-1.04,0.69-1.43,1.17
	c-0.42,0.48-0.74,1.03-0.95,1.63c-0.21,0.6-0.32,1.23-0.32,1.86c0,0.66,0.13,1.32,0.37,1.93c0.23,0.6,0.57,1.15,1,1.62
	c0.42,0.47,0.93,0.85,1.5,1.13c0.58,0.28,1.21,0.42,1.85,0.42c0.7,0,1.38-0.16,2-0.48c0.71-0.37,1.33-0.87,1.85-1.48v-2.58H38v-0.3
	h2.81v5.06h-0.3L40.51,29.37z M51.2,20.54v10.64h-0.3v-5.29h-7.4v5.29h-0.29V20.54h0.29v5.05h7.4v-5.05H51.2z M54.47,21.12v10.06
	h-0.3V20.54h0.22l8.15,10.21V20.54h0.3v10.64h-0.35L54.47,21.12z M72.79,30.88v0.3h-7V20.54h6.86v0.3H66.1v4.75h5.75v0.3H66.1v5
	L72.79,30.88z M81,22c-0.36-0.44-0.81-0.78-1.33-1c-0.54-0.18-1.1-0.27-1.67-0.25c-0.53-0.01-1.06,0.05-1.57,0.18
	c-0.39,0.1-0.75,0.27-1.07,0.51c-0.27,0.22-0.48,0.49-0.61,0.81c-0.14,0.33-0.2,0.69-0.2,1.05c-0.01,0.33,0.06,0.65,0.2,0.95
	c0.14,0.26,0.35,0.48,0.6,0.64c0.31,0.2,0.65,0.35,1,0.45c0.42,0.13,0.93,0.25,1.52,0.37s1.13,0.25,1.61,0.39
	c0.43,0.12,0.84,0.3,1.22,0.52c0.31,0.2,0.58,0.46,0.77,0.78c0.19,0.36,0.29,0.76,0.27,1.17c0.04,0.8-0.34,1.55-1,2
	c-0.83,0.5-1.78,0.74-2.75,0.69c-0.78,0.02-1.55-0.12-2.28-0.4c-0.7-0.28-1.33-0.71-1.86-1.25l0.23-0.2
	c0.49,0.53,1.09,0.95,1.76,1.22c0.69,0.26,1.43,0.38,2.17,0.37c0.88,0.05,1.75-0.16,2.51-0.59c0.61-0.39,0.96-1.07,0.92-1.79
	c0.01-0.35-0.06-0.69-0.21-1c-0.15-0.29-0.37-0.53-0.64-0.71c-0.34-0.22-0.72-0.4-1.11-0.51C78.99,26.24,78.5,26.11,78,26
	c-0.59-0.11-1.12-0.23-1.57-0.36c-0.41-0.1-0.79-0.26-1.15-0.48c-0.3-0.17-0.55-0.43-0.72-0.73c-0.17-0.34-0.25-0.72-0.24-1.1
	c-0.01-0.42,0.08-0.84,0.26-1.23c0.18-0.35,0.44-0.66,0.75-0.9c0.35-0.25,0.75-0.44,1.17-0.55c0.49-0.13,0.99-0.19,1.5-0.19
	c0.61-0.01,1.21,0.09,1.78,0.29c0.53,0.22,1.01,0.57,1.39,1L81,22z M90,22c-0.35-0.43-0.79-0.77-1.3-1
	c-0.52-0.18-1.08-0.26-1.63-0.25c-0.53-0.01-1.06,0.05-1.57,0.18c-0.39,0.1-0.75,0.27-1.07,0.51c-0.27,0.22-0.48,0.49-0.61,0.81
	c-0.14,0.33-0.2,0.69-0.2,1.05c-0.01,0.33,0.06,0.65,0.2,0.95c0.14,0.26,0.35,0.48,0.6,0.64c0.31,0.2,0.65,0.35,1,0.45
	c0.42,0.13,0.93,0.25,1.52,0.37s1.12,0.25,1.6,0.39c0.43,0.12,0.84,0.3,1.23,0.52c0.31,0.2,0.58,0.46,0.77,0.78
	c0.19,0.36,0.29,0.76,0.27,1.17c0.04,0.8-0.34,1.55-1,2c-0.83,0.5-1.78,0.74-2.75,0.69c-0.78,0.02-1.56-0.12-2.29-0.4
	c-0.67-0.29-1.27-0.72-1.77-1.25l0.23-0.2c0.49,0.53,1.1,0.95,1.77,1.22c0.69,0.26,1.43,0.38,2.17,0.37
	c0.88,0.05,1.75-0.16,2.51-0.59c0.61-0.39,0.96-1.07,0.92-1.79c0.01-0.35-0.06-0.69-0.21-1c-0.15-0.29-0.38-0.53-0.65-0.71
	c-0.34-0.23-0.72-0.4-1.11-0.51c-0.54-0.16-1.08-0.3-1.63-0.4c-0.59-0.11-1.12-0.23-1.57-0.36c-0.41-0.1-0.8-0.26-1.16-0.48
	c-0.3-0.18-0.54-0.43-0.71-0.73c-0.17-0.34-0.25-0.72-0.24-1.1c-0.01-0.42,0.08-0.84,0.26-1.23c0.18-0.35,0.44-0.66,0.75-0.9
	c0.35-0.25,0.75-0.44,1.17-0.55c0.49-0.13,0.99-0.19,1.5-0.19c0.61-0.01,1.21,0.09,1.78,0.29c0.53,0.22,1,0.57,1.38,1L90,22z
	 M114.83,46.9H0.82v0.2h114.01V46.9z"/>
</svg>
