<?xml version="1.0" encoding="utf-8"?>
<!-- Generator: Adobe Illustrator 22.0.0, SVG Export Plug-In . SVG Version: 6.00 Build 0)  -->
<svg version="1.1" id="Layer_1" xmlns="http://www.w3.org/2000/svg" xmlns:xlink="http://www.w3.org/1999/xlink" x="0px" y="0px"
	 viewBox="0 0 136.61 24.82" style="enable-background:new 0 0 136.61 24.82;" xml:space="preserve">
<style type="text/css">
	.st0{display:none;fill:#C62026;}
	.st1{fill:#010101;}
	.st2{display:none;fill:#010101;}
</style>
<path class="st0" d="M0-67.46v-10.65h0.3v10.65H0z M3.27-67.46v-10.65h0.3v10.65H3.27z M6.09-67.46v-1h0.3v1H6.09z"/>
<path class="st1" d="M0.08,3.7V0.16h0.25V3.7H0.08z M2.59,3.58H2.52H2.4H2.24c-0.06,0.01-0.13,0.01-0.19,0
	c-0.07,0.01-0.13,0.01-0.2,0C1.79,3.56,1.74,3.53,1.69,3.49C1.64,3.46,1.6,3.41,1.58,3.35c-0.02-0.07-0.02-0.13,0-0.2v-2H1.17v-0.2
	h0.37V0.06h0.25v0.89h0.6v0.2h-0.6v1.9c-0.01,0.09,0.03,0.17,0.1,0.22c0.06,0.05,0.14,0.07,0.22,0.07c0.09,0.02,0.18,0.02,0.27,0
	l0.14-0.07L2.59,3.58z M5.45,3.75c-0.22,0-0.44-0.08-0.61-0.23C4.76,3.45,4.7,3.37,4.66,3.27C4.62,3.17,4.6,3.06,4.6,2.95
	c0-0.11,0.02-0.22,0.08-0.31C4.73,2.55,4.81,2.46,4.9,2.4C5,2.33,5.12,2.27,5.24,2.24C5.38,2.2,5.53,2.18,5.68,2.18
	c0.14-0.01,0.28-0.01,0.42,0c0.13,0.02,0.26,0.05,0.38,0.1V2.03C6.49,1.81,6.42,1.6,6.27,1.44C6.12,1.29,5.91,1.21,5.7,1.22
	c-0.14,0-0.27,0.03-0.4,0.08C5.15,1.36,5.01,1.44,4.87,1.53L4.79,1.4c0.27-0.2,0.6-0.32,0.94-0.34C6,1.05,6.27,1.15,6.47,1.34
	c0.19,0.2,0.29,0.47,0.27,0.75v1.27c0,0.08,0,0.12,0.11,0.12V3.7H6.79c-0.06,0-0.12-0.02-0.16-0.06C6.59,3.59,6.57,3.53,6.56,3.47
	V3.26C6.44,3.42,6.28,3.55,6.1,3.62C5.9,3.71,5.67,3.76,5.45,3.75z M5.45,3.55c0.18,0,0.36-0.03,0.53-0.1
	c0.15-0.06,0.27-0.16,0.37-0.29c0.05-0.05,0.08-0.13,0.08-0.2V2.5C6.31,2.45,6.19,2.42,6.06,2.39c-0.14-0.01-0.27-0.01-0.41,0
	c-0.12-0.02-0.23-0.02-0.35,0C5.2,2.42,5.11,2.46,5.03,2.51C4.96,2.56,4.89,2.62,4.85,2.69C4.81,2.76,4.79,2.85,4.79,2.93
	c-0.02,0.08-0.02,0.16,0,0.24c0.03,0.08,0.08,0.14,0.14,0.2c0.06,0.06,0.13,0.1,0.21,0.13C5.25,3.55,5.38,3.56,5.5,3.55H5.45z
	 M7.79,0.06h0.25v3.13c0,0.09,0.03,0.17,0.09,0.23C8.19,3.48,8.27,3.51,8.35,3.5h0.14h0.14v0.2C8.56,3.73,8.49,3.75,8.42,3.76
	c-0.07,0.01-0.15,0.01-0.22,0C8.08,3.77,7.96,3.72,7.87,3.64C7.79,3.54,7.76,3.4,7.79,3.27V0.06z M9.3,0.06h0.26v3.13
	C9.55,3.28,9.58,3.36,9.64,3.42C9.7,3.48,9.79,3.51,9.87,3.5H10h0.14l0.05,0.2c-0.07,0.03-0.14,0.05-0.21,0.06
	c-0.07,0.01-0.14,0.01-0.21,0C9.65,3.77,9.52,3.72,9.43,3.64C9.34,3.55,9.29,3.43,9.3,3.3V0.06z M11.91,3.75
	c-0.18,0-0.35-0.03-0.51-0.1c-0.15-0.07-0.28-0.17-0.4-0.29c-0.1-0.14-0.17-0.3-0.21-0.47c-0.12-0.32-0.12-0.68,0-1
	c0.06-0.16,0.16-0.3,0.27-0.43c0.35-0.39,0.92-0.51,1.4-0.29c0.15,0.07,0.29,0.17,0.4,0.29c0.12,0.12,0.21,0.27,0.27,0.43
	c0.12,0.32,0.12,0.68,0,1c-0.06,0.16-0.15,0.31-0.27,0.43c-0.23,0.25-0.56,0.4-0.9,0.39L11.91,3.75z M10.91,2.42
	c0,0.15,0.03,0.29,0.08,0.43c0.05,0.13,0.13,0.25,0.22,0.36c0.09,0.1,0.2,0.18,0.32,0.23c0.12,0.06,0.26,0.09,0.4,0.09
	c0.14,0,0.27-0.03,0.39-0.09c0.12-0.06,0.23-0.14,0.32-0.24c0.1-0.1,0.17-0.23,0.22-0.36c0.06-0.14,0.09-0.28,0.08-0.43
	c0.01-0.15-0.02-0.29-0.08-0.43c-0.05-0.13-0.12-0.26-0.22-0.36c-0.09-0.1-0.2-0.18-0.32-0.24c-0.25-0.12-0.53-0.12-0.78,0
	c-0.12,0.06-0.24,0.14-0.33,0.24C11.12,1.73,11.05,1.86,11,1.99c-0.07,0.13-0.11,0.28-0.11,0.43H10.91z M17.22,1.11h0.25L16.35,3.7
	h-0.21l-0.59-1.37L14.97,3.7h-0.18l-1.12-2.59h0.24l1,2.32l0.54-1.28l-0.44-1h0.21l0.36,0.86l0.36-0.86h0.22l-0.44,1l0.54,1.28
	L17.22,1.11z M18.96,3.75c-0.19,0-0.39-0.03-0.57-0.1c-0.18-0.06-0.34-0.16-0.48-0.29l0.12-0.17c0.13,0.12,0.28,0.21,0.44,0.27
	c0.16,0.06,0.32,0.09,0.49,0.09c0.19,0.01,0.39-0.04,0.55-0.14c0.14-0.08,0.22-0.23,0.21-0.39c0-0.07-0.02-0.15-0.06-0.21
	c-0.04-0.06-0.09-0.11-0.15-0.14l-0.26-0.1l-0.36-0.09l-0.38-0.1l-0.27-0.12C18.09,2.17,18.01,2,18.03,1.83
	c0-0.12,0.02-0.23,0.07-0.34c0.05-0.09,0.12-0.18,0.21-0.24c0.09-0.06,0.2-0.11,0.31-0.14c0.12-0.02,0.24-0.02,0.36,0
	c0.19,0,0.37,0.04,0.54,0.11c0.14,0.06,0.27,0.14,0.37,0.26l-0.14,0.13c-0.09-0.1-0.21-0.18-0.34-0.22
	c-0.14-0.05-0.29-0.08-0.44-0.08c-0.09-0.01-0.18-0.01-0.27,0c-0.08,0.02-0.16,0.05-0.23,0.1c-0.06,0.04-0.11,0.1-0.15,0.17
	c-0.03,0.08-0.05,0.16-0.05,0.24c-0.02,0.06-0.02,0.12,0,0.18c0.02,0.05,0.07,0.1,0.12,0.12c0.06,0.04,0.14,0.07,0.21,0.09
	l0.31,0.08l0.43,0.12c0.11,0.03,0.22,0.07,0.32,0.13c0.08,0.05,0.14,0.11,0.19,0.19c0.05,0.08,0.08,0.18,0.07,0.28
	c0.01,0.22-0.09,0.43-0.27,0.56C19.44,3.7,19.2,3.76,18.96,3.75z M24.44,3.7h-0.25V2.26c0-0.64-0.21-1-0.64-1
	c-0.11,0-0.21,0.02-0.31,0.06c-0.11,0.04-0.2,0.1-0.29,0.17c-0.09,0.08-0.16,0.16-0.23,0.26c-0.07,0.1-0.12,0.2-0.15,0.32v1.6h-0.25
	V0.06h0.25v1.67c0.1-0.2,0.25-0.37,0.44-0.49c0.18-0.12,0.39-0.18,0.61-0.18c0.13,0,0.25,0.03,0.37,0.08
	c0.1,0.05,0.19,0.13,0.25,0.23c0.07,0.11,0.13,0.24,0.15,0.37c0.02,0.16,0.02,0.31,0,0.47L24.44,3.7z M26.55,3.75
	c-0.18,0-0.35-0.03-0.51-0.1c-0.16-0.07-0.3-0.17-0.41-0.3c-0.11-0.13-0.2-0.27-0.27-0.43c-0.06-0.17-0.1-0.34-0.1-0.52
	c0-0.18,0.04-0.35,0.1-0.52c0.07-0.15,0.16-0.3,0.27-0.42c0.11-0.12,0.25-0.22,0.4-0.29c0.16-0.07,0.33-0.11,0.5-0.11
	c0.18,0,0.35,0.04,0.51,0.11c0.15,0.07,0.29,0.17,0.4,0.29c0.12,0.12,0.21,0.27,0.27,0.43c0.06,0.16,0.09,0.34,0.09,0.51v0.11h-2.28
	c0.01,0.14,0.05,0.28,0.11,0.41c0.06,0.13,0.13,0.24,0.23,0.34c0.09,0.09,0.19,0.16,0.31,0.21c0.12,0.06,0.26,0.08,0.39,0.08
	c0.09,0.01,0.17,0.01,0.26,0c0.09-0.02,0.17-0.06,0.24-0.11c0.07-0.04,0.14-0.09,0.2-0.15c0.06-0.06,0.11-0.13,0.14-0.2l0.22,0.06
	c-0.08,0.19-0.23,0.35-0.41,0.45c-0.1,0.06-0.2,0.11-0.31,0.14C26.78,3.76,26.67,3.76,26.55,3.75z M27.55,2.31
	c0-0.15-0.04-0.29-0.1-0.42c-0.05-0.12-0.13-0.23-0.22-0.33c-0.19-0.18-0.44-0.29-0.7-0.29c-0.13,0-0.27,0.03-0.39,0.08
	c-0.12,0.05-0.22,0.12-0.31,0.21c-0.1,0.09-0.17,0.2-0.22,0.33c-0.06,0.13-0.09,0.28-0.1,0.42H27.55z M29.24,3.75
	c-0.11,0-0.22-0.02-0.33-0.06c-0.1-0.04-0.19-0.09-0.27-0.17c-0.08-0.07-0.14-0.15-0.19-0.25c-0.04-0.1-0.06-0.21-0.06-0.32
	c0-0.11,0.02-0.22,0.08-0.31c0.06-0.09,0.13-0.18,0.22-0.24c0.1-0.07,0.22-0.13,0.34-0.16c0.14-0.04,0.29-0.06,0.44-0.06
	c0.14-0.01,0.28-0.01,0.42,0c0.13,0.02,0.26,0.05,0.38,0.1V2.03c0.01-0.22-0.06-0.43-0.21-0.59c-0.15-0.15-0.35-0.23-0.56-0.22
	c-0.14,0-0.28,0.03-0.41,0.08c-0.15,0.06-0.29,0.14-0.43,0.23l-0.09-0.17c0.28-0.2,0.61-0.32,0.95-0.34
	c0.27-0.01,0.53,0.09,0.73,0.28c0.19,0.2,0.29,0.47,0.27,0.75v1.27c0,0.08,0,0.12,0.11,0.12v0.22h-0.1c-0.06,0-0.12-0.02-0.16-0.06
	c-0.04-0.05-0.06-0.11-0.07-0.17V3.22c-0.12,0.16-0.27,0.28-0.45,0.36C29.66,3.68,29.45,3.74,29.24,3.75z M29.29,3.55
	c0.18,0,0.36-0.03,0.53-0.1c0.15-0.06,0.27-0.16,0.37-0.29c0.05-0.05,0.08-0.13,0.08-0.2V2.5c-0.12-0.05-0.24-0.08-0.37-0.11
	c-0.13-0.01-0.27-0.01-0.4,0c-0.12-0.02-0.24-0.02-0.36,0c-0.1,0.03-0.19,0.07-0.27,0.12c-0.07,0.04-0.14,0.11-0.18,0.18
	c-0.04,0.07-0.06,0.16-0.06,0.24c0,0.08,0.01,0.17,0.05,0.24c0.03,0.08,0.08,0.14,0.14,0.2c0.13,0.12,0.3,0.18,0.47,0.17L29.29,3.55
	z M32.67,3.58H32.6h-0.12h-0.16c-0.06,0.01-0.13,0.01-0.19,0c-0.07,0.01-0.13,0.01-0.2,0c-0.06-0.02-0.11-0.05-0.16-0.09
	c-0.05-0.03-0.09-0.08-0.11-0.14c-0.02-0.07-0.02-0.13,0-0.2v-2h-0.37v-0.2h0.37V0.06h0.25v0.89h0.6v0.2h-0.6v1.9
	c-0.01,0.09,0.03,0.17,0.1,0.22c0.06,0.05,0.14,0.07,0.22,0.07c0.09,0.02,0.18,0.02,0.27,0l0.13-0.07L32.67,3.58z M36.05,3.58h-0.07
	h-0.12H35.7c-0.07,0.01-0.13,0.01-0.2,0c-0.06,0.01-0.13,0.01-0.19,0c-0.06-0.02-0.12-0.05-0.17-0.09
	c-0.04-0.04-0.08-0.09-0.11-0.14c-0.01-0.07-0.01-0.13,0-0.2v-2h-0.37v-0.2h0.37V0.06h0.24v0.89h0.61v0.2h-0.61v1.9
	c0,0.08,0.03,0.17,0.1,0.22c0.07,0.05,0.15,0.07,0.23,0.07c0.09,0.02,0.18,0.02,0.27,0L36,3.27L36.05,3.58z M37.96,1.33
	c-0.22,0.01-0.43,0.08-0.61,0.21c-0.18,0.13-0.3,0.32-0.36,0.54V3.7h-0.2V1.11h0.24v0.64c0.08-0.17,0.2-0.33,0.35-0.45
	c0.14-0.11,0.31-0.18,0.48-0.2h0.15L37.96,1.33z M39.29,3.75c-0.11,0-0.22-0.02-0.33-0.06c-0.1-0.04-0.19-0.09-0.27-0.17
	c-0.08-0.07-0.14-0.15-0.19-0.25c-0.04-0.1-0.06-0.21-0.06-0.32c0-0.11,0.02-0.22,0.08-0.31c0.05-0.1,0.13-0.18,0.22-0.24
	c0.1-0.07,0.22-0.13,0.34-0.16c0.14-0.04,0.29-0.06,0.44-0.06c0.14-0.01,0.28-0.01,0.42,0c0.13,0.02,0.26,0.05,0.38,0.1V2.03
	c0.01-0.22-0.06-0.43-0.21-0.59c-0.15-0.15-0.35-0.23-0.56-0.22c-0.14,0-0.28,0.03-0.41,0.08c-0.15,0.06-0.29,0.14-0.43,0.23
	l-0.09-0.17c0.29-0.21,0.64-0.33,1-0.34c0.27-0.01,0.53,0.09,0.73,0.28c0.19,0.2,0.29,0.47,0.27,0.75v1.27c0,0.08,0,0.12,0.11,0.12
	v0.22h-0.1c-0.06,0-0.12-0.02-0.16-0.06c-0.04-0.05-0.06-0.11-0.07-0.17V3.22c-0.12,0.16-0.28,0.28-0.46,0.36
	C39.74,3.69,39.52,3.75,39.29,3.75z M39.29,3.55c0.18,0,0.36-0.03,0.53-0.1c0.15-0.06,0.27-0.16,0.37-0.29
	c0.05-0.05,0.08-0.13,0.08-0.2V2.5c-0.12-0.05-0.24-0.08-0.37-0.11c-0.13-0.01-0.27-0.01-0.4,0c-0.12-0.02-0.24-0.02-0.36,0
	c-0.1,0.02-0.19,0.06-0.27,0.12c-0.07,0.04-0.14,0.11-0.18,0.18c-0.04,0.07-0.06,0.16-0.06,0.24c-0.02,0.08-0.02,0.16,0,0.24
	c0.03,0.08,0.08,0.14,0.14,0.2c0.13,0.12,0.3,0.18,0.47,0.17L39.29,3.55z M43.7,3.7h-0.25V2.26c0.02-0.25-0.03-0.51-0.14-0.74
	c-0.1-0.15-0.27-0.24-0.45-0.23c-0.11,0-0.22,0.02-0.33,0.06c-0.11,0.04-0.21,0.1-0.3,0.17c-0.09,0.08-0.17,0.16-0.24,0.26
	c-0.07,0.1-0.13,0.2-0.16,0.32v1.6h-0.25V1.11h0.21v0.62c0.05-0.1,0.12-0.19,0.19-0.27c0.08-0.08,0.17-0.15,0.27-0.21
	c0.1-0.06,0.2-0.11,0.31-0.14c0.11-0.02,0.23-0.02,0.34,0c0.24-0.02,0.47,0.09,0.6,0.3c0.13,0.26,0.18,0.56,0.17,0.85L43.7,3.7z
	 M45.53,3.75c-0.2,0-0.39-0.03-0.58-0.1c-0.18-0.06-0.34-0.16-0.47-0.29l0.12-0.17c0.25,0.24,0.59,0.36,0.93,0.36
	c0.19,0.01,0.38-0.04,0.54-0.14c0.14-0.08,0.22-0.23,0.21-0.39c0-0.07-0.02-0.14-0.05-0.21c-0.04-0.06-0.1-0.1-0.16-0.14
	c-0.08-0.04-0.17-0.07-0.26-0.1l-0.36-0.09l-0.38-0.1c-0.09-0.03-0.18-0.07-0.26-0.12c-0.07-0.04-0.12-0.1-0.16-0.17
	c-0.02-0.09-0.02-0.17,0-0.26c0-0.12,0.02-0.23,0.07-0.34c0.05-0.09,0.12-0.18,0.21-0.24c0.09-0.06,0.19-0.11,0.3-0.14
	c0.12-0.02,0.25-0.02,0.37,0c0.19,0,0.37,0.04,0.54,0.11c0.14,0.06,0.26,0.14,0.36,0.26l-0.14,0.13c-0.09-0.1-0.2-0.18-0.33-0.22
	c-0.14-0.05-0.3-0.08-0.45-0.08c-0.09-0.01-0.18-0.01-0.27,0c-0.08,0.02-0.15,0.05-0.22,0.1c-0.06,0.04-0.11,0.1-0.15,0.17
	c-0.04,0.07-0.06,0.16-0.06,0.24c-0.01,0.06-0.01,0.12,0,0.18c0.03,0.05,0.07,0.09,0.12,0.12c0.07,0.04,0.14,0.07,0.21,0.09
	l0.31,0.08l0.44,0.12c0.11,0.03,0.21,0.07,0.31,0.13c0.08,0.05,0.15,0.11,0.2,0.19c0.05,0.09,0.07,0.18,0.07,0.28
	c0.01,0.22-0.1,0.43-0.28,0.56C46.04,3.71,45.79,3.78,45.53,3.75z M47.47,3.7V1.31H47.1v-0.2h0.37V1.02
	c-0.02-0.26,0.05-0.52,0.19-0.74C47.78,0.11,47.99,0,48.2,0.01c0.1-0.02,0.19-0.02,0.29,0c0.08,0.02,0.16,0.06,0.23,0.12l-0.09,0.18
	c-0.05-0.04-0.11-0.07-0.17-0.09c-0.07-0.01-0.14-0.01-0.21,0c-0.16-0.01-0.3,0.07-0.39,0.2C47.75,0.6,47.7,0.8,47.72,1.01V1.1h0.74
	v0.2h-0.74v2.39L47.47,3.7z M50.16,3.75c-0.17,0-0.34-0.03-0.5-0.1c-0.16-0.07-0.3-0.17-0.41-0.3c-0.12-0.12-0.21-0.27-0.27-0.43
	c-0.07-0.16-0.1-0.34-0.1-0.52c0-0.18,0.03-0.36,0.1-0.52c0.06-0.16,0.15-0.3,0.27-0.42c0.11-0.13,0.25-0.23,0.4-0.29
	c0.16-0.07,0.33-0.11,0.5-0.11c0.18,0,0.35,0.04,0.51,0.11c0.15,0.07,0.29,0.17,0.4,0.29c0.12,0.12,0.21,0.27,0.27,0.43
	c0.06,0.16,0.09,0.34,0.09,0.51v0.11h-2.28c0.01,0.14,0.05,0.28,0.11,0.41c0.06,0.12,0.13,0.24,0.22,0.34
	c0.09,0.09,0.2,0.16,0.32,0.21c0.12,0.06,0.25,0.08,0.38,0.08c0.09,0.01,0.18,0.01,0.27,0c0.09-0.02,0.17-0.06,0.24-0.11
	c0.07-0.04,0.14-0.09,0.2-0.15c0.06-0.06,0.1-0.13,0.14-0.2l0.22,0.06c-0.04,0.09-0.09,0.18-0.16,0.25
	c-0.16,0.16-0.35,0.28-0.57,0.34C50.39,3.76,50.28,3.76,50.16,3.75z M51.16,2.31c0-0.15-0.04-0.29-0.1-0.42
	c-0.05-0.12-0.13-0.23-0.22-0.33c-0.09-0.09-0.2-0.16-0.32-0.21c-0.12-0.05-0.26-0.08-0.39-0.08c-0.26,0-0.51,0.11-0.7,0.29
	c-0.09,0.1-0.17,0.21-0.22,0.33c-0.05,0.13-0.08,0.28-0.09,0.42H51.16z M53.45,1.33c-0.22,0-0.44,0.07-0.61,0.21
	c-0.18,0.13-0.31,0.32-0.37,0.54V3.7h-0.25V1.11h0.24v0.64c0.09-0.17,0.21-0.33,0.36-0.45c0.14-0.11,0.3-0.18,0.47-0.2h0.16
	L53.45,1.33z M56.79,3.58h-0.07H56.6c-0.05,0.01-0.11,0.01-0.16,0c-0.06,0.01-0.13,0.01-0.19,0c-0.07,0.01-0.13,0.01-0.2,0
	c-0.06-0.02-0.11-0.05-0.16-0.09c-0.05-0.03-0.09-0.08-0.11-0.14c-0.02-0.07-0.02-0.13,0-0.2v-2h-0.37v-0.2h0.37V0.06h0.25v0.89h0.6
	v0.2h-0.6v1.9c-0.01,0.09,0.03,0.17,0.1,0.22c0.06,0.05,0.14,0.07,0.22,0.07c0.09,0.02,0.18,0.02,0.27,0l0.14-0.07L56.79,3.58z
	 M58.45,3.75c-0.17,0-0.34-0.03-0.5-0.1c-0.15-0.07-0.29-0.17-0.41-0.29c-0.11-0.13-0.2-0.27-0.26-0.43c-0.11-0.32-0.11-0.68,0-1
	c0.07-0.16,0.16-0.3,0.27-0.43c0.11-0.12,0.25-0.22,0.4-0.29c0.16-0.07,0.33-0.11,0.5-0.11c0.17,0,0.34,0.04,0.5,0.11
	c0.15,0.07,0.29,0.17,0.4,0.29c0.12,0.12,0.21,0.27,0.27,0.43c0.12,0.32,0.12,0.68,0,1c-0.06,0.16-0.15,0.3-0.26,0.43
	c-0.12,0.12-0.26,0.22-0.41,0.29C58.79,3.72,58.62,3.75,58.45,3.75z M57.45,2.42c0,0.15,0.03,0.29,0.08,0.43
	c0.05,0.13,0.13,0.25,0.22,0.36c0.09,0.1,0.2,0.18,0.32,0.23c0.12,0.06,0.26,0.09,0.4,0.09c0.14,0,0.27-0.03,0.39-0.09
	c0.12-0.06,0.23-0.14,0.33-0.24c0.08-0.09,0.15-0.2,0.2-0.31c0.05-0.14,0.08-0.28,0.08-0.43c0-0.15-0.03-0.29-0.08-0.43
	c-0.05-0.13-0.13-0.25-0.22-0.36c-0.09-0.1-0.21-0.18-0.33-0.24c-0.25-0.12-0.53-0.12-0.78,0c-0.25,0.12-0.45,0.34-0.54,0.61
	c-0.05,0.12-0.09,0.25-0.09,0.38H57.45z M62.14,4.58h0.16h0.08h0.06c0.03-0.04,0.05-0.08,0.07-0.12c0.04-0.08,0.08-0.16,0.11-0.25
	l0.19-0.45l-1.15-2.59h0.26l1,2.35l1-2.35h0.25l-1.43,3.41c-0.03,0.09-0.09,0.17-0.17,0.22c-0.1,0.06-0.21,0.08-0.33,0.08h-0.09
	L62.14,4.58z M65.9,3.75c-0.17,0-0.34-0.03-0.5-0.1c-0.15-0.07-0.29-0.17-0.41-0.29c-0.11-0.13-0.2-0.27-0.26-0.43
	c-0.12-0.32-0.12-0.68,0-1C64.8,1.78,64.89,1.63,65,1.5c0.11-0.12,0.25-0.22,0.4-0.29c0.16-0.07,0.33-0.11,0.5-0.11
	c0.17,0,0.34,0.04,0.5,0.11c0.15,0.07,0.29,0.17,0.4,0.29c0.12,0.12,0.21,0.27,0.27,0.43c0.12,0.32,0.12,0.68,0,1
	c-0.06,0.16-0.15,0.3-0.26,0.43c-0.12,0.12-0.26,0.22-0.41,0.29C66.24,3.72,66.07,3.75,65.9,3.75z M64.9,2.42
	c0,0.15,0.03,0.29,0.08,0.43c0.05,0.13,0.13,0.25,0.22,0.36c0.09,0.1,0.2,0.18,0.32,0.23c0.12,0.06,0.26,0.09,0.4,0.09
	c0.14,0,0.27-0.03,0.39-0.09c0.12-0.06,0.23-0.14,0.33-0.24c0.09-0.11,0.17-0.23,0.22-0.36c0.05-0.14,0.08-0.28,0.08-0.43
	c0-0.15-0.03-0.29-0.08-0.43c-0.05-0.13-0.13-0.25-0.22-0.36c-0.09-0.1-0.21-0.18-0.33-0.24c-0.25-0.12-0.53-0.12-0.78,0
	c-0.25,0.12-0.45,0.34-0.54,0.61c-0.07,0.13-0.11,0.28-0.11,0.43H64.9z M68.79,3.75c-0.55,0-0.83-0.38-0.83-1.14v-1.5h0.25v1.46
	c0,0.67,0.22,1,0.66,1c0.11,0,0.22-0.02,0.32-0.06c0.1-0.04,0.2-0.09,0.29-0.16c0.08-0.07,0.16-0.15,0.23-0.24
	c0.07-0.1,0.12-0.21,0.16-0.32V1.11h0.25v2.25c0,0.08,0,0.12,0.11,0.12V3.7h-0.08c-0.06,0-0.12-0.02-0.17-0.06
	c-0.05-0.04-0.09-0.1-0.08-0.17V3.09c-0.11,0.2-0.27,0.37-0.47,0.49C69.24,3.7,69.02,3.76,68.79,3.75z M72.42,1.33
	c-0.22,0.01-0.43,0.08-0.61,0.21c-0.18,0.13-0.3,0.32-0.36,0.54V3.7H71.2V1.11h0.24v0.64c0.08-0.17,0.2-0.33,0.35-0.45
	c0.14-0.11,0.31-0.18,0.48-0.2h0.15V1.33z M75.79,3.75c-0.21,0.01-0.42-0.05-0.6-0.17c-0.17-0.11-0.31-0.26-0.42-0.43v1.62h-0.25
	V1.11h0.27v0.52c0.11-0.17,0.25-0.31,0.42-0.41c0.17-0.1,0.36-0.16,0.56-0.16c0.17,0,0.35,0.04,0.5,0.12
	c0.15,0.08,0.28,0.18,0.4,0.3c0.11,0.13,0.19,0.27,0.25,0.43c0.06,0.16,0.1,0.33,0.1,0.5c0,0.18-0.03,0.35-0.09,0.52
	c-0.06,0.15-0.14,0.3-0.24,0.43c-0.11,0.12-0.24,0.22-0.38,0.29C76.15,3.73,75.97,3.76,75.79,3.75z M75.79,3.53
	c0.14,0,0.28-0.03,0.41-0.1c0.12-0.06,0.23-0.15,0.31-0.25c0.09-0.1,0.16-0.23,0.2-0.36c0.05-0.13,0.07-0.27,0.07-0.41
	c0-0.14-0.03-0.29-0.08-0.42c-0.05-0.13-0.12-0.26-0.22-0.36c-0.1-0.1-0.21-0.18-0.33-0.25c-0.13-0.06-0.27-0.09-0.41-0.09
	c-0.1,0-0.19,0.02-0.28,0.06c-0.1,0.04-0.2,0.09-0.29,0.15c-0.09,0.06-0.16,0.14-0.23,0.22c-0.06,0.08-0.1,0.17-0.11,0.27v0.9
	c0.04,0.1,0.1,0.19,0.16,0.27c0.07,0.08,0.15,0.15,0.23,0.22c0.08,0.06,0.17,0.11,0.27,0.15C75.59,3.55,75.69,3.55,75.79,3.53z
	 M78.5,3.75c-0.11,0-0.22-0.02-0.33-0.06c-0.1-0.04-0.19-0.09-0.27-0.17c-0.08-0.07-0.14-0.15-0.19-0.25
	c-0.04-0.1-0.06-0.21-0.06-0.32c0-0.11,0.03-0.21,0.08-0.31c0.06-0.09,0.13-0.18,0.22-0.24c0.1-0.07,0.22-0.13,0.34-0.16
	c0.14-0.04,0.29-0.06,0.44-0.06c0.14-0.01,0.28-0.01,0.42,0c0.13,0.02,0.26,0.05,0.38,0.1V2.03c0.02-0.22-0.06-0.43-0.21-0.59
	c-0.15-0.15-0.35-0.23-0.56-0.22c-0.14,0-0.28,0.03-0.41,0.08c-0.15,0.06-0.29,0.14-0.43,0.23L77.79,1.4
	c0.28-0.2,0.61-0.32,0.95-0.34c0.27-0.01,0.54,0.09,0.74,0.28c0.18,0.21,0.27,0.48,0.26,0.75v1.27c0,0.08,0,0.12,0.11,0.12V3.7
	h-0.06c-0.06,0-0.12-0.02-0.16-0.06c-0.04-0.05-0.06-0.11-0.07-0.17V3.26c-0.12,0.16-0.27,0.28-0.45,0.36
	C78.92,3.71,78.71,3.75,78.5,3.75z M78.55,3.55c0.18,0,0.36-0.03,0.53-0.1c0.15-0.06,0.27-0.16,0.37-0.29
	c0.05-0.05,0.08-0.13,0.08-0.2V2.5c-0.12-0.05-0.24-0.08-0.37-0.11c-0.13-0.01-0.27-0.01-0.4,0c-0.12-0.02-0.24-0.02-0.36,0
	c-0.1,0.03-0.19,0.07-0.27,0.12c-0.07,0.04-0.14,0.11-0.18,0.18c-0.04,0.07-0.06,0.16-0.06,0.24c0,0.08,0.01,0.17,0.05,0.24
	c0.03,0.08,0.08,0.14,0.14,0.2c0.13,0.12,0.3,0.18,0.47,0.17L78.55,3.55z M82.02,1.33c-0.22,0.01-0.43,0.08-0.61,0.21
	c-0.18,0.13-0.31,0.32-0.37,0.54V3.7h-0.25V1.11h0.24v0.64c0.09-0.17,0.21-0.33,0.36-0.45c0.14-0.11,0.3-0.18,0.47-0.2h0.16V1.33z
	 M83.9,3.58h-0.07h-0.12h-0.16c-0.06,0.01-0.13,0.01-0.19,0c-0.07,0.01-0.13,0.01-0.2,0C83.1,3.56,83.05,3.53,83,3.49
	c-0.05-0.03-0.09-0.08-0.11-0.14c-0.02-0.07-0.02-0.13,0-0.2v-2h-0.37v-0.2h0.37V0.06h0.25v0.89h0.6v0.2h-0.6v1.9
	c-0.01,0.09,0.03,0.17,0.1,0.22c0.06,0.05,0.14,0.07,0.22,0.07c0.09,0.02,0.18,0.02,0.27,0l0.14-0.07L83.9,3.58z M86.71,3.7h-0.25
	V2.26c0.02-0.25-0.03-0.51-0.14-0.74c-0.1-0.15-0.27-0.24-0.45-0.23c-0.11,0-0.22,0.02-0.33,0.06c-0.11,0.04-0.21,0.1-0.3,0.17
	c-0.1,0.07-0.18,0.16-0.25,0.26c-0.07,0.1-0.12,0.2-0.15,0.32v1.6h-0.25V1.11h0.2v0.62c0.06-0.1,0.12-0.19,0.2-0.27
	c0.16-0.16,0.36-0.28,0.58-0.35c0.11-0.02,0.23-0.02,0.34,0c0.24-0.02,0.47,0.09,0.6,0.3c0.13,0.26,0.18,0.56,0.17,0.85L86.71,3.7z
	 M88.79,3.75c-0.18,0-0.35-0.03-0.51-0.1c-0.16-0.07-0.3-0.17-0.41-0.3c-0.11-0.13-0.2-0.27-0.27-0.43c-0.06-0.17-0.1-0.34-0.1-0.52
	c0-0.18,0.04-0.35,0.1-0.52c0.06-0.16,0.15-0.3,0.27-0.42c0.11-0.13,0.25-0.23,0.4-0.29c0.16-0.07,0.33-0.11,0.5-0.11
	c0.18,0,0.35,0.04,0.51,0.11c0.15,0.07,0.29,0.17,0.4,0.29c0.12,0.12,0.21,0.27,0.27,0.43c0.06,0.16,0.09,0.34,0.09,0.51v0.11h-2.25
	c0.01,0.14,0.05,0.28,0.11,0.41c0.06,0.12,0.13,0.24,0.22,0.34c0.09,0.09,0.2,0.16,0.32,0.21c0.12,0.06,0.26,0.08,0.39,0.08
	c0.09,0.01,0.17,0.01,0.26,0c0.09-0.02,0.17-0.06,0.24-0.11c0.07-0.04,0.14-0.09,0.2-0.15c0.06-0.06,0.11-0.13,0.14-0.2l0.22,0.06
	c-0.04,0.09-0.09,0.18-0.16,0.25c-0.07,0.08-0.16,0.15-0.25,0.2c-0.1,0.06-0.2,0.11-0.31,0.14C89.04,3.76,88.92,3.77,88.79,3.75z
	 M89.79,2.31c0-0.15-0.04-0.29-0.1-0.42c-0.05-0.12-0.13-0.23-0.22-0.33c-0.19-0.18-0.44-0.29-0.7-0.29c-0.13,0-0.27,0.03-0.39,0.08
	c-0.12,0.05-0.23,0.12-0.32,0.21c-0.09,0.09-0.16,0.21-0.21,0.33c-0.06,0.13-0.09,0.28-0.1,0.42H89.79z M92.1,1.33
	c-0.22,0.01-0.43,0.08-0.61,0.21c-0.18,0.13-0.31,0.32-0.37,0.54V3.7h-0.25V1.11h0.24v0.64c0.09-0.17,0.21-0.33,0.36-0.45
	c0.14-0.11,0.3-0.18,0.47-0.2h0.16V1.33z M94.87,3.75c-0.11,0-0.22-0.02-0.33-0.06c-0.1-0.04-0.19-0.1-0.27-0.17
	c-0.08-0.07-0.14-0.15-0.18-0.25c-0.05-0.1-0.07-0.21-0.07-0.32c0-0.11,0.03-0.21,0.08-0.31c0.06-0.09,0.13-0.18,0.22-0.24
	c0.1-0.07,0.22-0.13,0.34-0.16c0.14-0.04,0.29-0.06,0.44-0.06c0.14-0.01,0.28-0.01,0.42,0c0.13,0.02,0.26,0.05,0.39,0.1V2.03
	c0.01-0.22-0.06-0.43-0.21-0.59c-0.15-0.15-0.36-0.23-0.57-0.22c-0.14,0-0.27,0.03-0.4,0.08c-0.15,0.06-0.3,0.14-0.43,0.23
	l-0.1-0.17c0.29-0.21,0.64-0.33,1-0.34c0.52-0.03,0.97,0.37,1,0.9c0,0.03,0,0.07,0,0.1v1.27c0,0.08,0,0.12,0.11,0.12v0.22h-0.1
	c-0.06,0-0.12-0.02-0.16-0.06c-0.04-0.05-0.07-0.11-0.07-0.17V3.19c-0.12,0.16-0.28,0.28-0.46,0.36C95.32,3.67,95.1,3.73,94.87,3.75
	z M94.87,3.55c0.18,0,0.37-0.03,0.54-0.1c0.14-0.07,0.27-0.17,0.37-0.29c0.05-0.06,0.07-0.13,0.08-0.2V2.5
	c-0.12-0.05-0.25-0.08-0.38-0.11c-0.13-0.01-0.27-0.01-0.4,0c-0.12-0.02-0.24-0.02-0.36,0c-0.09,0.03-0.19,0.07-0.27,0.12
	c-0.07,0.04-0.14,0.11-0.18,0.18c-0.04,0.07-0.06,0.16-0.06,0.24c-0.01,0.08-0.01,0.16,0,0.24c0.03,0.08,0.08,0.14,0.14,0.2
	c0.13,0.12,0.3,0.18,0.47,0.17L94.87,3.55z M97.99,3.75c-0.2,0-0.39-0.03-0.58-0.1c-0.18-0.06-0.34-0.16-0.48-0.29l0.13-0.17
	c0.25,0.24,0.59,0.36,0.93,0.36c0.19,0.01,0.38-0.04,0.54-0.14c0.14-0.08,0.22-0.23,0.21-0.39c0.02-0.07,0.02-0.14,0-0.21
	c-0.04-0.06-0.1-0.1-0.16-0.14l-0.26-0.1l-0.36-0.09l-0.38-0.1l-0.27-0.12c-0.06-0.04-0.11-0.1-0.15-0.17
	c-0.04-0.08-0.06-0.17-0.06-0.26c0-0.12,0.03-0.23,0.08-0.34c0.05-0.09,0.12-0.18,0.21-0.24c0.09-0.06,0.19-0.11,0.3-0.14
	c0.12-0.02,0.25-0.02,0.37,0c0.19,0,0.37,0.04,0.54,0.11c0.14,0.06,0.26,0.15,0.36,0.26l-0.14,0.13c-0.09-0.1-0.21-0.18-0.34-0.22
	c-0.23-0.07-0.48-0.07-0.71,0c-0.08,0.02-0.15,0.05-0.22,0.1c-0.06,0.04-0.11,0.1-0.15,0.17c-0.04,0.07-0.06,0.16-0.06,0.24
	c-0.01,0.06-0.01,0.12,0,0.18c0.03,0.05,0.07,0.09,0.12,0.12c0.07,0.04,0.14,0.07,0.21,0.09l0.31,0.08l0.44,0.12
	c0.11,0.03,0.21,0.07,0.31,0.13c0.08,0.05,0.15,0.11,0.2,0.19c0.04,0.09,0.06,0.18,0.06,0.28C99,3.31,98.9,3.52,98.72,3.65
	C98.49,3.76,98.24,3.8,97.99,3.75z M101.35,0.52V0.06h0.25v0.46H101.35z M101.35,3.7V1.11h0.25V3.7H101.35z M102.79,3.7V1.31h-0.36
	v-0.2h0.36V1.02c-0.01-0.26,0.06-0.52,0.2-0.74c0.12-0.18,0.33-0.28,0.54-0.27c0.1-0.01,0.19-0.01,0.29,0
	c0.08,0.02,0.16,0.06,0.22,0.12l-0.09,0.18c-0.05-0.04-0.11-0.07-0.17-0.09c-0.07-0.01-0.14-0.01-0.21,0
	c-0.16-0.01-0.3,0.07-0.39,0.2c-0.1,0.18-0.15,0.38-0.14,0.59V1.1h0.74v0.2h-0.74v2.39L102.79,3.7z M107.05,3.58h-0.07h-0.12h-0.16
	c-0.06,0.01-0.13,0.01-0.19,0c-0.07,0.01-0.13,0.01-0.2,0c-0.06-0.02-0.11-0.05-0.16-0.09c-0.05-0.03-0.09-0.08-0.11-0.14
	c-0.02-0.07-0.02-0.13,0-0.2v-2h-0.37v-0.2h0.37V0.06h0.25v0.89h0.6v0.2h-0.6v1.9c-0.01,0.09,0.03,0.17,0.1,0.22
	c0.06,0.05,0.14,0.07,0.22,0.07c0.09,0.02,0.18,0.02,0.27,0l0.13-0.07L107.05,3.58z M109.86,3.7h-0.25V2.26c0-0.64-0.22-1-0.64-1
	c-0.11,0-0.22,0.02-0.32,0.06c-0.1,0.04-0.2,0.1-0.28,0.17c-0.09,0.07-0.17,0.16-0.23,0.26c-0.07,0.1-0.12,0.2-0.15,0.32v1.6h-0.2
	V0.06h0.25v1.67c0.1-0.2,0.25-0.37,0.44-0.49c0.18-0.12,0.39-0.18,0.6-0.18c0.13,0,0.25,0.02,0.37,0.08
	c0.1,0.05,0.19,0.13,0.26,0.23c0.07,0.11,0.13,0.24,0.15,0.37c0.02,0.16,0.02,0.31,0,0.47L109.86,3.7z M111.96,3.75
	c-0.18,0-0.35-0.03-0.51-0.1c-0.15-0.07-0.29-0.17-0.4-0.3c-0.12-0.13-0.21-0.29-0.26-0.46c-0.07-0.16-0.1-0.34-0.1-0.52
	c0-0.16,0.04-0.33,0.1-0.48c0.06-0.16,0.15-0.3,0.27-0.42c0.11-0.13,0.25-0.23,0.4-0.29c0.16-0.07,0.33-0.11,0.5-0.11
	c0.18,0,0.35,0.04,0.51,0.11c0.15,0.07,0.29,0.17,0.4,0.29c0.12,0.12,0.21,0.27,0.27,0.43c0.06,0.16,0.09,0.34,0.09,0.51v0.11h-2.28
	c0.01,0.14,0.05,0.28,0.11,0.41c0.06,0.12,0.13,0.24,0.22,0.34c0.09,0.09,0.2,0.16,0.32,0.21c0.12,0.06,0.25,0.08,0.38,0.08
	c0.09,0.01,0.18,0.01,0.27,0c0.08-0.03,0.17-0.06,0.24-0.11c0.07-0.04,0.14-0.09,0.2-0.15c0.06-0.06,0.1-0.13,0.14-0.2l0.22,0.06
	c-0.04,0.09-0.1,0.18-0.17,0.25c-0.07,0.08-0.15,0.15-0.24,0.2c-0.1,0.06-0.21,0.11-0.32,0.14C112.2,3.77,112.08,3.77,111.96,3.75z
	 M112.96,2.31c0-0.15-0.04-0.29-0.1-0.42c-0.05-0.12-0.13-0.24-0.23-0.33c-0.09-0.09-0.19-0.16-0.31-0.21
	c-0.12-0.05-0.26-0.08-0.39-0.08c-0.26,0-0.51,0.11-0.7,0.29c-0.09,0.1-0.17,0.21-0.22,0.33c-0.05,0.13-0.08,0.28-0.09,0.42H112.96z
	 M115.25,1.33c-0.22,0-0.44,0.07-0.61,0.21c-0.18,0.13-0.31,0.32-0.37,0.54V3.7h-0.25V1.11h0.24v0.64c0.09-0.17,0.21-0.33,0.36-0.45
	c0.14-0.11,0.3-0.18,0.47-0.2h0.16V1.33z M116.94,3.75c-0.17,0-0.34-0.03-0.5-0.1c-0.16-0.07-0.3-0.17-0.41-0.3
	c-0.11-0.13-0.19-0.29-0.24-0.46c-0.07-0.16-0.1-0.34-0.1-0.52c0-0.16,0.04-0.33,0.1-0.48c0.06-0.16,0.15-0.3,0.27-0.42
	c0.11-0.13,0.25-0.23,0.4-0.29c0.16-0.07,0.33-0.11,0.5-0.11c0.18,0,0.35,0.04,0.51,0.11c0.15,0.07,0.29,0.17,0.4,0.29
	c0.12,0.12,0.21,0.27,0.27,0.43c0.06,0.16,0.09,0.34,0.09,0.51v0.11h-2.28c0.01,0.14,0.05,0.28,0.11,0.41
	c0.06,0.12,0.13,0.24,0.22,0.34c0.09,0.09,0.2,0.16,0.32,0.21c0.12,0.06,0.25,0.08,0.38,0.08c0.09,0.01,0.18,0.01,0.27,0
	c0.09-0.02,0.17-0.06,0.24-0.11c0.07-0.04,0.14-0.09,0.2-0.15c0.06-0.06,0.1-0.13,0.14-0.2l0.22,0.06c-0.04,0.09-0.1,0.18-0.17,0.25
	c-0.07,0.08-0.15,0.15-0.25,0.2c-0.09,0.06-0.2,0.11-0.31,0.14C117.19,3.77,117.07,3.77,116.94,3.75z M117.94,2.31
	c0-0.15-0.04-0.29-0.1-0.42c-0.05-0.12-0.13-0.23-0.22-0.33c-0.09-0.09-0.2-0.16-0.32-0.21c-0.12-0.05-0.26-0.08-0.39-0.08
	c-0.26,0-0.51,0.11-0.7,0.29c-0.09,0.1-0.17,0.21-0.22,0.33c-0.05,0.13-0.08,0.28-0.09,0.42H117.94z M123.69,1.11h0.25l-1.15,2.59
	h-0.21L122,2.33l-0.58,1.37h-0.21l-1.13-2.59h0.25l1,2.32l0.54-1.28l-0.44-1h0.22l0.36,0.86l0.35-0.86h0.22l-0.44,1l0.55,1.28
	L123.69,1.11z M125.24,3.75c-0.11,0-0.22-0.02-0.33-0.06c-0.1-0.04-0.19-0.1-0.27-0.17c-0.08-0.07-0.14-0.15-0.19-0.25
	c-0.04-0.1-0.06-0.21-0.06-0.32c0-0.11,0.03-0.21,0.08-0.31c0.06-0.09,0.13-0.18,0.22-0.24c0.1-0.07,0.22-0.13,0.34-0.16
	c0.14-0.04,0.29-0.06,0.44-0.06c0.14-0.01,0.28-0.01,0.42,0c0.13,0.02,0.26,0.05,0.39,0.1V2.03c0.01-0.22-0.06-0.43-0.21-0.59
	c-0.15-0.15-0.36-0.23-0.57-0.22c-0.14,0-0.27,0.03-0.4,0.08c-0.15,0.06-0.3,0.14-0.44,0.23l-0.09-0.17c0.29-0.21,0.64-0.33,1-0.34
	c0.51-0.04,0.96,0.34,1,0.85c0,0.05,0,0.1,0,0.15v1.27c0,0.08,0,0.12,0.11,0.12v0.22h-0.1c-0.06,0-0.11-0.02-0.15-0.06
	c-0.04-0.05-0.07-0.11-0.07-0.17V3.19c-0.12,0.16-0.28,0.28-0.46,0.36C125.7,3.67,125.47,3.74,125.24,3.75z M125.24,3.55
	c0.18,0,0.36-0.03,0.53-0.1c0.15-0.06,0.28-0.16,0.38-0.29c0.05-0.06,0.07-0.13,0.08-0.2V2.5c-0.12-0.05-0.25-0.08-0.38-0.11
	c-0.13-0.01-0.27-0.01-0.4,0c-0.12-0.02-0.24-0.02-0.36,0c-0.1,0.03-0.19,0.07-0.27,0.12c-0.07,0.04-0.14,0.11-0.18,0.18
	c-0.04,0.07-0.06,0.16-0.06,0.24c-0.02,0.08-0.02,0.16,0,0.24c0.03,0.08,0.08,0.14,0.14,0.2c0.13,0.12,0.3,0.18,0.47,0.17
	L125.24,3.55z M128.36,3.75c-0.2,0-0.39-0.03-0.58-0.1c-0.18-0.06-0.34-0.16-0.48-0.29l0.13-0.17c0.25,0.24,0.59,0.36,0.93,0.36
	c0.19,0.01,0.38-0.04,0.54-0.14c0.14-0.08,0.22-0.23,0.21-0.39c0.02-0.07,0.02-0.14,0-0.21c-0.04-0.06-0.1-0.1-0.16-0.14l-0.26-0.1
	l-0.36-0.09l-0.38-0.1l-0.27-0.12c-0.06-0.04-0.11-0.1-0.15-0.17c-0.04-0.08-0.06-0.17-0.06-0.26c0-0.12,0.03-0.23,0.08-0.34
	c0.05-0.09,0.12-0.17,0.2-0.24c0.09-0.06,0.2-0.11,0.31-0.14c0.12-0.02,0.25-0.02,0.37,0c0.18,0,0.36,0.04,0.53,0.11
	c0.14,0.06,0.27,0.14,0.37,0.26l-0.14,0.13c-0.09-0.1-0.21-0.18-0.34-0.22c-0.14-0.05-0.29-0.08-0.44-0.08
	c-0.09-0.01-0.18-0.01-0.27,0c-0.08,0.02-0.15,0.05-0.22,0.1c-0.07,0.04-0.12,0.1-0.15,0.17c-0.04,0.07-0.06,0.16-0.06,0.24
	c-0.02,0.06-0.02,0.12,0,0.18c0.03,0.05,0.07,0.09,0.12,0.12c0.06,0.04,0.14,0.07,0.21,0.09l0.31,0.08l0.43,0.12
	c0.11,0.03,0.22,0.07,0.32,0.13c0.08,0.05,0.15,0.11,0.2,0.19c0.04,0.09,0.06,0.18,0.06,0.28c0.01,0.22-0.09,0.43-0.27,0.56
	C128.87,3.71,128.62,3.78,128.36,3.75z M2.12,13.7H1.87v-1.44c0.02-0.25-0.03-0.51-0.14-0.74c-0.1-0.15-0.27-0.24-0.45-0.23
	c-0.11,0-0.22,0.02-0.33,0.06c-0.11,0.04-0.21,0.1-0.3,0.17c-0.09,0.08-0.18,0.16-0.25,0.26c-0.07,0.1-0.12,0.2-0.15,0.32v1.6H0
	v-2.59h0.23v0.62c0.06-0.1,0.12-0.19,0.2-0.27c0.08-0.08,0.17-0.15,0.27-0.21c0.1-0.06,0.2-0.11,0.31-0.14
	c0.11-0.02,0.23-0.02,0.34,0c0.24-0.02,0.47,0.09,0.6,0.3c0.13,0.26,0.18,0.56,0.17,0.85V13.7z M4.21,13.75
	c-0.17,0-0.34-0.03-0.5-0.1c-0.15-0.07-0.29-0.17-0.41-0.29c-0.12-0.14-0.2-0.3-0.26-0.47c-0.12-0.32-0.12-0.68,0-1
	c0.07-0.16,0.16-0.3,0.27-0.43c0.11-0.12,0.25-0.22,0.4-0.29c0.16-0.07,0.33-0.11,0.5-0.11c0.17,0,0.34,0.04,0.5,0.11
	c0.15,0.07,0.29,0.17,0.4,0.29c0.12,0.12,0.21,0.27,0.27,0.43c0.12,0.32,0.12,0.68,0,1c-0.06,0.16-0.15,0.3-0.26,0.43
	C5,13.44,4.86,13.54,4.71,13.61C4.56,13.69,4.38,13.74,4.21,13.75z M3.21,12.42c0,0.15,0.03,0.29,0.08,0.43
	c0.05,0.13,0.13,0.25,0.22,0.36c0.09,0.1,0.2,0.18,0.32,0.23c0.12,0.06,0.26,0.09,0.4,0.09c0.14,0,0.27-0.03,0.39-0.09
	c0.12-0.06,0.23-0.14,0.33-0.24c0.08-0.09,0.14-0.2,0.19-0.31c0.06-0.13,0.09-0.28,0.09-0.43c0-0.15-0.03-0.3-0.09-0.43
	c-0.05-0.13-0.12-0.25-0.21-0.36c-0.09-0.1-0.21-0.18-0.33-0.24c-0.25-0.12-0.53-0.12-0.78,0c-0.12,0.06-0.23,0.14-0.32,0.24
	c-0.1,0.11-0.17,0.23-0.22,0.37c-0.05,0.12-0.09,0.25-0.09,0.38H3.21z M7.68,12.4c0.01-0.18,0.04-0.35,0.11-0.51
	c0.07-0.16,0.16-0.3,0.27-0.43c0.11-0.12,0.25-0.21,0.4-0.28C8.82,11,9.24,11,9.6,11.18c0.18,0.1,0.32,0.26,0.41,0.45l-0.25,0.08
	c-0.07-0.14-0.19-0.26-0.33-0.34c-0.14-0.08-0.3-0.12-0.46-0.12c-0.14,0-0.27,0.03-0.4,0.08c-0.12,0.06-0.23,0.14-0.32,0.24
	c-0.1,0.1-0.17,0.22-0.22,0.35c-0.05,0.14-0.08,0.29-0.08,0.44c0,0.15,0.03,0.3,0.08,0.44c0.05,0.13,0.13,0.25,0.22,0.36
	c0.09,0.1,0.2,0.18,0.33,0.24c0.12,0.06,0.25,0.09,0.39,0.09c0.09,0.01,0.18,0.01,0.27,0c0.08-0.03,0.16-0.06,0.24-0.1
	c0.07-0.05,0.14-0.1,0.2-0.16c0.05-0.05,0.08-0.11,0.11-0.18l0.25,0.07C10,13.21,9.95,13.3,9.88,13.37
	c-0.07,0.08-0.15,0.15-0.24,0.2c-0.1,0.06-0.2,0.11-0.31,0.14c-0.12,0.02-0.23,0.02-0.35,0c-0.18,0-0.35-0.03-0.51-0.1
	c-0.15-0.07-0.29-0.17-0.4-0.3c-0.12-0.12-0.22-0.26-0.28-0.42C7.72,12.74,7.68,12.57,7.68,12.4z M11.89,13.75
	c-0.17,0-0.34-0.03-0.5-0.1c-0.15-0.07-0.29-0.17-0.41-0.29c-0.11-0.13-0.2-0.27-0.26-0.43c-0.12-0.32-0.12-0.68,0-1
	c0.07-0.16,0.16-0.3,0.27-0.43c0.11-0.12,0.25-0.22,0.4-0.29c0.32-0.15,0.68-0.15,1,0c0.15,0.07,0.29,0.17,0.4,0.29
	c0.12,0.12,0.21,0.27,0.27,0.43c0.12,0.32,0.12,0.68,0,1c-0.06,0.16-0.15,0.31-0.27,0.43C12.56,13.62,12.23,13.76,11.89,13.75z
	 M10.89,12.42c0,0.15,0.03,0.29,0.08,0.43c0.05,0.13,0.13,0.25,0.22,0.36c0.09,0.1,0.2,0.18,0.32,0.23c0.12,0.06,0.26,0.09,0.4,0.09
	c0.14,0,0.27-0.03,0.39-0.09c0.12-0.06,0.23-0.14,0.32-0.24c0.07-0.09,0.13-0.2,0.17-0.31c0.06-0.14,0.09-0.28,0.08-0.43
	c0.01-0.15-0.02-0.29-0.08-0.43c-0.05-0.13-0.12-0.26-0.22-0.36c-0.09-0.1-0.2-0.18-0.32-0.24c-0.25-0.12-0.53-0.12-0.78,0
	c-0.12,0.06-0.23,0.14-0.32,0.24c-0.1,0.11-0.17,0.23-0.22,0.37c-0.04,0.12-0.06,0.25-0.06,0.38H10.89z M16.13,13.7h-0.25v-1.44
	c0.02-0.25-0.03-0.51-0.14-0.74c-0.1-0.15-0.28-0.24-0.46-0.23c-0.11,0-0.22,0.02-0.32,0.06c-0.11,0.04-0.21,0.1-0.3,0.17
	c-0.1,0.07-0.18,0.16-0.25,0.26c-0.07,0.1-0.12,0.2-0.15,0.32v1.6h-0.25v-2.59h0.23v0.62c0.05-0.1,0.12-0.19,0.2-0.27
	c0.08-0.08,0.16-0.15,0.26-0.21c0.1-0.06,0.21-0.11,0.32-0.14c0.11-0.02,0.22-0.02,0.33,0c0.24-0.03,0.48,0.09,0.6,0.3
	c0.13,0.26,0.2,0.56,0.18,0.85V13.7z M18.2,13.75c-0.17,0.01-0.35-0.03-0.5-0.11c-0.15-0.07-0.29-0.17-0.4-0.3
	c-0.12-0.12-0.2-0.27-0.26-0.43c-0.06-0.16-0.09-0.33-0.09-0.5c0-0.17,0.03-0.35,0.09-0.51c0.06-0.16,0.14-0.3,0.25-0.43
	c0.11-0.12,0.24-0.22,0.38-0.3c0.15-0.07,0.31-0.11,0.47-0.11c0.11-0.02,0.21-0.02,0.32,0c0.1,0.03,0.19,0.08,0.28,0.14
	c0.09,0.05,0.17,0.12,0.24,0.19c0.07,0.07,0.13,0.15,0.18,0.23v-1.56h0.25v3.3c0,0.08,0,0.12,0.1,0.12v0.22h-0.09
	c-0.06,0-0.13-0.02-0.17-0.07c-0.04-0.05-0.07-0.11-0.07-0.17v-0.27c-0.1,0.17-0.25,0.31-0.42,0.41
	C18.59,13.7,18.4,13.75,18.2,13.75z M18.2,13.53c0.1,0,0.2-0.02,0.29-0.06c0.11-0.03,0.2-0.08,0.29-0.15
	c0.09-0.06,0.16-0.14,0.23-0.22c0.06-0.08,0.1-0.17,0.11-0.27v-0.85c-0.04-0.1-0.09-0.19-0.16-0.27c-0.05-0.08-0.11-0.15-0.17-0.22
	c-0.09-0.06-0.18-0.11-0.28-0.15c-0.1-0.01-0.19-0.01-0.29,0c-0.14,0-0.28,0.03-0.41,0.1c-0.12,0.06-0.22,0.15-0.31,0.25
	c-0.09,0.11-0.16,0.23-0.2,0.36c-0.05,0.13-0.07,0.28-0.07,0.42c0,0.14,0.02,0.29,0.08,0.42c0.05,0.13,0.12,0.25,0.22,0.36
	c0.09,0.1,0.2,0.18,0.33,0.24c0.12,0.04,0.25,0.05,0.38,0.04H18.2z M21.54,13.75c-0.18,0-0.35-0.03-0.51-0.1
	c-0.15-0.07-0.29-0.17-0.4-0.29c-0.11-0.13-0.2-0.27-0.27-0.43c-0.06-0.17-0.09-0.34-0.09-0.52c0-0.18,0.03-0.36,0.1-0.52
	c0.06-0.16,0.15-0.3,0.26-0.43c0.12-0.12,0.26-0.22,0.41-0.29c0.16-0.07,0.33-0.11,0.5-0.11c0.17,0,0.34,0.04,0.5,0.11
	c0.15,0.07,0.28,0.17,0.4,0.29c0.11,0.13,0.2,0.27,0.27,0.43c0.11,0.32,0.11,0.68,0,1c-0.07,0.16-0.16,0.3-0.27,0.43
	c-0.11,0.12-0.25,0.22-0.4,0.29C21.89,13.69,21.71,13.74,21.54,13.75z M20.54,12.42c0,0.15,0.03,0.29,0.08,0.43
	c0.09,0.26,0.29,0.48,0.54,0.59c0.12,0.06,0.25,0.09,0.39,0.09c0.14,0,0.28-0.03,0.4-0.09c0.12-0.06,0.23-0.14,0.32-0.24
	c0.1-0.1,0.17-0.23,0.22-0.36c0.05-0.14,0.08-0.28,0.08-0.43c0-0.15-0.03-0.29-0.08-0.43c-0.05-0.13-0.12-0.26-0.22-0.36
	c-0.09-0.1-0.2-0.18-0.32-0.24c-0.12-0.06-0.25-0.09-0.39-0.09c-0.14,0-0.28,0.03-0.4,0.09c-0.12,0.06-0.23,0.14-0.32,0.24
	c-0.09,0.11-0.16,0.24-0.22,0.37c-0.06,0.14-0.09,0.28-0.1,0.43H20.54z M27.47,13.7h-0.25v-1.44c0.02-0.25-0.04-0.51-0.16-0.73
	c-0.1-0.16-0.27-0.25-0.46-0.24c-0.11,0-0.21,0.02-0.31,0.06c-0.09,0.04-0.18,0.1-0.26,0.17c-0.08,0.08-0.15,0.16-0.21,0.26
	c-0.06,0.1-0.11,0.21-0.14,0.32v1.6h-0.25v-1.44c0.02-0.25-0.03-0.51-0.15-0.73c-0.1-0.17-0.29-0.27-0.49-0.24
	c-0.21,0-0.41,0.08-0.56,0.23c-0.08,0.07-0.16,0.16-0.22,0.25c-0.06,0.1-0.11,0.22-0.14,0.33v1.6h-0.25v-2.59h0.24v0.62
	c0.09-0.2,0.24-0.37,0.42-0.49c0.17-0.12,0.37-0.18,0.57-0.18c0.2-0.01,0.39,0.06,0.53,0.2c0.14,0.14,0.23,0.32,0.25,0.51
	c0.16-0.41,0.56-0.69,1-0.71c0.24-0.02,0.47,0.1,0.6,0.31c0.14,0.26,0.2,0.55,0.19,0.84L27.47,13.7z M30.64,13.75
	c-0.12,0-0.23-0.02-0.34-0.06c-0.1-0.04-0.19-0.1-0.27-0.17c-0.08-0.07-0.14-0.15-0.18-0.25c-0.04-0.1-0.06-0.21-0.06-0.32
	c0-0.11,0.02-0.22,0.08-0.31c0.05-0.1,0.13-0.18,0.22-0.24c0.1-0.07,0.22-0.13,0.34-0.16c0.14-0.04,0.29-0.06,0.44-0.06
	c0.14-0.01,0.28-0.01,0.42,0c0.13,0.02,0.26,0.05,0.38,0.1v-0.25c0.01-0.22-0.06-0.43-0.21-0.59c-0.15-0.15-0.36-0.23-0.57-0.22
	c-0.14,0-0.27,0.03-0.4,0.08c-0.15,0.06-0.29,0.14-0.43,0.23l-0.09-0.17c0.27-0.2,0.6-0.32,0.94-0.34c0.27-0.01,0.54,0.09,0.74,0.28
	c0.19,0.2,0.29,0.47,0.27,0.75v1.27c0,0.08,0,0.12,0.11,0.12v0.22h-0.1c-0.06,0-0.12-0.02-0.16-0.06c-0.04-0.05-0.06-0.11-0.07-0.17
	v-0.21c-0.12,0.16-0.28,0.28-0.46,0.36C31.05,13.68,30.85,13.74,30.64,13.75z M30.64,13.55c0.18,0,0.36-0.03,0.53-0.1
	c0.15-0.06,0.27-0.16,0.37-0.29c0.05-0.06,0.07-0.13,0.08-0.2V12.5c-0.12-0.05-0.24-0.08-0.37-0.11c-0.14-0.01-0.27-0.01-0.41,0
	c-0.12-0.02-0.23-0.02-0.35,0c-0.1,0.03-0.19,0.07-0.28,0.12c-0.07,0.05-0.13,0.11-0.17,0.18c-0.04,0.07-0.07,0.16-0.07,0.24
	c0,0.08,0.02,0.16,0.05,0.24c0.03,0.07,0.08,0.14,0.14,0.2c0.07,0.05,0.14,0.1,0.22,0.13c0.1,0.04,0.2,0.06,0.31,0.05H30.64z
	 M34.07,13.58H34h-0.12h-0.16c-0.07,0.01-0.13,0.01-0.2,0c-0.06,0.01-0.13,0.01-0.19,0c-0.06-0.02-0.12-0.05-0.17-0.09
	c-0.04-0.04-0.08-0.09-0.11-0.14c-0.01-0.07-0.01-0.13,0-0.2v-2h-0.36v-0.2h0.36v-0.89h0.25v0.89h0.61v0.2H33.3v1.9
	c0,0.08,0.03,0.17,0.1,0.22c0.07,0.05,0.15,0.07,0.23,0.07c0.09,0.02,0.17,0.02,0.26,0l0.14-0.07L34.07,13.58z M36.93,13.75
	c-0.12,0-0.23-0.02-0.34-0.06c-0.1-0.04-0.19-0.1-0.27-0.17c-0.08-0.07-0.14-0.15-0.18-0.25c-0.05-0.1-0.07-0.21-0.07-0.32
	c0-0.11,0.03-0.21,0.08-0.31c0.06-0.09,0.13-0.17,0.22-0.24c0.11-0.07,0.23-0.13,0.35-0.16c0.14-0.04,0.29-0.06,0.44-0.06
	c0.14-0.01,0.28-0.01,0.42,0c0.13,0.02,0.26,0.05,0.38,0.1v-0.25c0.01-0.22-0.06-0.43-0.21-0.59c-0.15-0.15-0.36-0.23-0.57-0.22
	c-0.14,0-0.27,0.03-0.4,0.08c-0.15,0.06-0.3,0.14-0.43,0.23l-0.1-0.17c0.28-0.2,0.61-0.32,0.95-0.34c0.52-0.03,0.97,0.37,1,0.9
	c0,0.03,0,0.07,0,0.1v1.27c0,0.08,0,0.12,0.11,0.12v0.22h-0.1c-0.06,0-0.12-0.02-0.16-0.06c-0.04-0.05-0.06-0.11-0.07-0.17v-0.21
	c-0.12,0.16-0.28,0.28-0.46,0.36C37.34,13.66,37.14,13.73,36.93,13.75z M36.93,13.55c0.18,0,0.36-0.03,0.53-0.1
	c0.14-0.07,0.27-0.17,0.37-0.29c0.05-0.06,0.07-0.13,0.08-0.2V12.5c-0.12-0.05-0.25-0.08-0.38-0.11c-0.13-0.01-0.27-0.01-0.4,0
	c-0.12-0.02-0.23-0.02-0.35,0c-0.1,0.03-0.19,0.07-0.28,0.12c-0.07,0.05-0.13,0.11-0.18,0.18c-0.04,0.07-0.06,0.16-0.06,0.24
	c-0.01,0.08-0.01,0.16,0,0.24c0.03,0.08,0.08,0.14,0.14,0.2c0.06,0.05,0.13,0.1,0.21,0.13c0.12,0.05,0.24,0.06,0.37,0.05H36.93z
	 M39.24,10.06h0.25v3.13c0,0.08,0.03,0.17,0.08,0.23c0.06,0.06,0.15,0.09,0.23,0.08h0.13h0.14v0.2c-0.07,0.03-0.14,0.05-0.21,0.06
	c-0.07,0.01-0.14,0.01-0.21,0c-0.23,0.02-0.44-0.14-0.46-0.38c0-0.03,0-0.06,0-0.08L39.24,10.06z M40.79,10.06h0.25v3.13
	c0,0.09,0.03,0.17,0.09,0.23c0.06,0.06,0.14,0.09,0.22,0.08h0.13h0.15l0.05,0.2c-0.07,0.03-0.14,0.05-0.21,0.06
	c-0.07,0.01-0.15,0.01-0.22,0c-0.12,0.01-0.24-0.04-0.33-0.12c-0.09-0.09-0.14-0.21-0.13-0.34V10.06z M44.32,13.75
	c-0.12,0-0.23-0.02-0.34-0.06c-0.1-0.04-0.19-0.1-0.27-0.17c-0.08-0.07-0.14-0.15-0.18-0.25c-0.05-0.1-0.07-0.21-0.07-0.32
	c0-0.11,0.03-0.21,0.08-0.31c0.06-0.09,0.13-0.17,0.22-0.24c0.11-0.07,0.23-0.13,0.35-0.16c0.14-0.04,0.29-0.06,0.44-0.06
	c0.14-0.01,0.28-0.01,0.42,0c0.13,0.02,0.26,0.05,0.38,0.1v-0.25c0.01-0.22-0.06-0.43-0.21-0.59c-0.15-0.15-0.36-0.23-0.57-0.22
	c-0.14,0-0.27,0.03-0.4,0.08c-0.15,0.06-0.3,0.14-0.43,0.23l-0.1-0.17c0.28-0.2,0.61-0.32,0.95-0.34c0.52-0.03,0.97,0.37,1,0.9
	c0,0.03,0,0.07,0,0.1v1.27c0,0.08,0,0.12,0.11,0.12v0.22h-0.1c-0.06,0-0.12-0.02-0.16-0.06c-0.04-0.05-0.06-0.11-0.07-0.17v-0.21
	c-0.12,0.16-0.28,0.28-0.46,0.36C44.73,13.66,44.53,13.73,44.32,13.75z M44.32,13.55c0.18,0,0.36-0.03,0.53-0.1
	c0.14-0.07,0.27-0.17,0.37-0.29c0.05-0.06,0.07-0.13,0.08-0.2V12.5c-0.12-0.05-0.25-0.08-0.38-0.11c-0.13-0.01-0.27-0.01-0.4,0
	c-0.12-0.02-0.23-0.02-0.35,0c-0.1,0.03-0.19,0.07-0.28,0.12c-0.07,0.05-0.13,0.11-0.18,0.18c-0.04,0.07-0.06,0.16-0.06,0.24
	c0,0.08,0.02,0.16,0.05,0.24c0.03,0.07,0.08,0.14,0.14,0.2c0.06,0.05,0.13,0.1,0.21,0.13c0.1,0.04,0.21,0.06,0.32,0.05H44.32z
	 M48.73,13.7h-0.25v-1.44c0.02-0.25-0.03-0.51-0.14-0.74c-0.1-0.15-0.28-0.24-0.46-0.23c-0.11,0-0.22,0.02-0.32,0.06
	c-0.11,0.04-0.21,0.1-0.3,0.17c-0.1,0.07-0.18,0.16-0.25,0.26c-0.07,0.1-0.12,0.2-0.15,0.32v1.6h-0.25v-2.59h0.23v0.62
	c0.11-0.2,0.27-0.36,0.46-0.48c0.1-0.06,0.2-0.11,0.31-0.14c0.11-0.01,0.23-0.01,0.34,0c0.24-0.03,0.48,0.09,0.6,0.3
	c0.13,0.26,0.2,0.56,0.18,0.85V13.7z M50.79,13.75c-0.17,0.01-0.35-0.03-0.5-0.11c-0.15-0.07-0.29-0.17-0.4-0.3
	c-0.12-0.12-0.2-0.27-0.26-0.43c-0.06-0.16-0.09-0.33-0.09-0.5c0-0.17,0.03-0.35,0.09-0.51c0.06-0.16,0.14-0.3,0.25-0.43
	c0.11-0.12,0.24-0.22,0.38-0.3c0.15-0.07,0.31-0.11,0.47-0.11c0.11-0.02,0.21-0.02,0.32,0c0.1,0.03,0.19,0.08,0.28,0.14
	c0.09,0.05,0.17,0.12,0.24,0.19c0.07,0.07,0.13,0.15,0.18,0.23v-1.56H52v3.3c0,0.08,0,0.12,0.1,0.12v0.22h-0.09
	c-0.06,0-0.13-0.02-0.17-0.07c-0.05-0.04-0.07-0.11-0.07-0.17v-0.27c-0.11,0.17-0.25,0.31-0.43,0.41
	C51.17,13.7,50.98,13.75,50.79,13.75z M50.79,13.53c0.1,0,0.2-0.02,0.29-0.06c0.11-0.03,0.2-0.08,0.29-0.15
	c0.09-0.06,0.16-0.14,0.23-0.22c0.06-0.08,0.1-0.17,0.11-0.27v-0.85c-0.04-0.1-0.09-0.19-0.16-0.27c-0.07-0.08-0.15-0.15-0.23-0.22
	c-0.09-0.06-0.18-0.11-0.28-0.15c-0.1-0.01-0.19-0.01-0.29,0c-0.14,0-0.28,0.03-0.41,0.1c-0.12,0.06-0.23,0.15-0.32,0.25
	c-0.08,0.11-0.15,0.23-0.2,0.36c-0.04,0.14-0.07,0.28-0.07,0.42c0,0.14,0.03,0.29,0.08,0.42c0.06,0.13,0.14,0.25,0.23,0.36
	c0.09,0.1,0.2,0.18,0.33,0.24c0.14,0.05,0.3,0.07,0.45,0.04H50.79z M55.79,13.58h-0.07H55.6h-0.16c-0.07,0.01-0.13,0.01-0.2,0
	c-0.06,0.01-0.13,0.01-0.19,0c-0.06-0.02-0.12-0.05-0.17-0.09c-0.04-0.04-0.08-0.09-0.11-0.14c-0.01-0.07-0.01-0.13,0-0.2v-2H54.4
	v-0.2h0.37v-0.89h0.24v0.89h0.61v0.2h-0.61v1.9c0,0.08,0.03,0.17,0.1,0.22c0.07,0.05,0.15,0.07,0.23,0.07
	c0.09,0.02,0.18,0.02,0.27,0l0.13-0.07L55.79,13.58z M58.55,13.7H58.3v-1.44c0-0.64-0.22-1-0.65-1c-0.11,0-0.21,0.02-0.31,0.06
	c-0.1,0.04-0.2,0.1-0.28,0.17c-0.09,0.07-0.17,0.16-0.23,0.26c-0.07,0.1-0.12,0.2-0.15,0.32v1.6h-0.25v-3.61h0.25v1.67
	c0.1-0.2,0.25-0.37,0.44-0.49c0.18-0.12,0.39-0.18,0.6-0.18c0.13,0,0.25,0.02,0.37,0.08c0.1,0.05,0.19,0.13,0.26,0.23
	c0.07,0.11,0.13,0.24,0.15,0.37c0.02,0.16,0.02,0.31,0,0.47L58.55,13.7z M60.79,11.33c-0.22,0-0.44,0.07-0.61,0.21
	c-0.18,0.13-0.31,0.32-0.37,0.54v1.62h-0.25v-2.59h0.23v0.64c0.09-0.17,0.21-0.33,0.36-0.45c0.14-0.11,0.3-0.18,0.47-0.2h0.17V11.33
	z M62.46,13.75c-0.18,0-0.35-0.03-0.51-0.1c-0.15-0.07-0.29-0.17-0.4-0.29c-0.12-0.14-0.2-0.3-0.26-0.47c-0.12-0.32-0.12-0.68,0-1
	c0.06-0.16,0.15-0.31,0.27-0.43c0.35-0.39,0.92-0.51,1.4-0.29c0.15,0.07,0.29,0.17,0.4,0.29c0.11,0.13,0.21,0.27,0.27,0.43
	c0.12,0.32,0.12,0.68,0,1c-0.06,0.16-0.16,0.3-0.27,0.43c-0.23,0.25-0.56,0.4-0.9,0.39V13.75z M61.46,12.42
	c0,0.15,0.03,0.29,0.08,0.43c0.05,0.13,0.12,0.26,0.22,0.36c0.09,0.1,0.2,0.18,0.32,0.23c0.12,0.06,0.25,0.09,0.39,0.09
	c0.14,0,0.28-0.03,0.4-0.09c0.12-0.06,0.23-0.14,0.32-0.24c0.09-0.09,0.15-0.2,0.2-0.31c0.06-0.14,0.09-0.28,0.08-0.43
	c0.01-0.15-0.02-0.29-0.08-0.43c-0.05-0.13-0.12-0.26-0.22-0.36c-0.09-0.1-0.2-0.18-0.32-0.24c-0.25-0.12-0.53-0.12-0.78,0
	c-0.13,0.06-0.24,0.14-0.33,0.24c-0.09,0.11-0.16,0.24-0.22,0.37c-0.05,0.12-0.07,0.25-0.08,0.38H61.46z M65.38,13.75
	c-0.55,0-0.83-0.38-0.83-1.14v-1.5h0.24v1.46c0,0.64,0.22,1,0.65,1c0.11,0,0.22-0.02,0.32-0.06c0.1-0.04,0.2-0.09,0.29-0.16
	c0.19-0.14,0.33-0.34,0.4-0.56v-1.68h0.25v2.25c0,0.08,0,0.12,0.11,0.12v0.22h-0.02c-0.07,0-0.13-0.02-0.18-0.06
	c-0.05-0.04-0.07-0.11-0.07-0.17v-0.38c-0.11,0.2-0.27,0.37-0.47,0.49C65.86,13.71,65.62,13.77,65.38,13.75z M68.79,13.74
	c-0.17,0.01-0.34-0.03-0.49-0.11c-0.15-0.07-0.28-0.17-0.39-0.3c-0.11-0.12-0.19-0.27-0.25-0.42c-0.07-0.16-0.1-0.33-0.1-0.5
	c0-0.17,0.03-0.35,0.09-0.51c0.06-0.16,0.14-0.3,0.25-0.43c0.11-0.12,0.24-0.23,0.38-0.3c0.15-0.07,0.32-0.11,0.49-0.11
	c0.21,0,0.42,0.06,0.59,0.18c0.17,0.12,0.31,0.26,0.43,0.43v-0.56h0.23v2.64c0.01,0.16-0.03,0.32-0.1,0.47
	c-0.07,0.13-0.16,0.24-0.27,0.33c-0.12,0.09-0.25,0.16-0.39,0.2c-0.15,0.04-0.3,0.07-0.46,0.07c-0.14,0-0.28-0.02-0.41-0.05
	c-0.11-0.02-0.21-0.06-0.31-0.11c-0.09-0.05-0.17-0.12-0.25-0.19c-0.07-0.08-0.13-0.16-0.19-0.25l0.17-0.12
	c0.1,0.17,0.24,0.3,0.42,0.39c0.18,0.08,0.37,0.12,0.57,0.12c0.12,0.02,0.25,0.02,0.37,0c0.11-0.03,0.22-0.09,0.31-0.16
	c0.09-0.07,0.16-0.17,0.21-0.27c0.05-0.12,0.08-0.25,0.08-0.38v-0.61c-0.11,0.17-0.26,0.31-0.43,0.4
	C69.17,13.69,68.98,13.74,68.79,13.74z M68.85,13.53c0.11,0,0.22-0.02,0.32-0.06c0.1-0.04,0.2-0.09,0.29-0.16
	c0.08-0.07,0.15-0.15,0.21-0.23c0.05-0.08,0.08-0.16,0.1-0.25v-0.85c-0.04-0.1-0.09-0.19-0.16-0.28c-0.07-0.08-0.14-0.16-0.23-0.22
	c-0.08-0.06-0.17-0.11-0.27-0.14c-0.1-0.02-0.2-0.02-0.3,0c-0.15,0-0.29,0.03-0.42,0.1c-0.12,0.07-0.22,0.15-0.31,0.26
	c-0.08,0.11-0.15,0.23-0.2,0.36c-0.04,0.13-0.06,0.27-0.06,0.41c0,0.14,0.02,0.29,0.08,0.42c0.05,0.13,0.12,0.25,0.22,0.36
	c0.09,0.1,0.2,0.18,0.33,0.24c0.13,0.04,0.27,0.06,0.41,0.04H68.85z M73.18,13.7h-0.25v-1.44c0-0.64-0.22-1-0.65-1
	c-0.11,0-0.21,0.02-0.31,0.06c-0.1,0.04-0.2,0.1-0.28,0.17c-0.09,0.07-0.17,0.16-0.23,0.26c-0.07,0.1-0.12,0.2-0.15,0.32v1.6h-0.25
	v-3.61h0.25v1.67c0.1-0.2,0.25-0.37,0.44-0.49c0.18-0.12,0.39-0.18,0.6-0.18c0.13,0,0.25,0.02,0.37,0.08
	c0.1,0.05,0.19,0.13,0.26,0.23c0.07,0.11,0.13,0.24,0.15,0.37c0.02,0.16,0.02,0.31,0,0.47L73.18,13.7z M75.71,10.52v-0.46h0.25v0.46
	H75.71z M75.71,13.7v-2.59h0.25v2.59H75.71z M78.15,13.58h-0.07h-0.11H77.8c-0.06,0.01-0.13,0.01-0.19,0c-0.07,0.01-0.13,0.01-0.2,0
	c-0.06-0.02-0.11-0.05-0.16-0.09c-0.05-0.04-0.08-0.09-0.11-0.14c-0.02-0.07-0.02-0.13,0-0.2v-2h-0.37v-0.2h0.37v-0.89h0.25v0.89
	h0.6v0.2h-0.6v1.9c-0.01,0.09,0.03,0.17,0.1,0.22c0.06,0.05,0.14,0.07,0.22,0.07c0.09,0.02,0.18,0.02,0.27,0l0.14-0.07L78.15,13.58z
	 M79.66,13.75c-0.19,0-0.39-0.03-0.57-0.1c-0.18-0.06-0.34-0.16-0.48-0.29l0.18-0.17c0.12,0.12,0.27,0.21,0.43,0.27
	c0.16,0.06,0.32,0.09,0.49,0.09c0.19,0.01,0.39-0.04,0.55-0.14c0.14-0.08,0.22-0.23,0.21-0.39c0.02-0.07,0.02-0.14,0-0.21
	c-0.04-0.06-0.1-0.1-0.16-0.14l-0.26-0.1l-0.36-0.09l-0.38-0.1l-0.27-0.12c-0.15-0.09-0.23-0.26-0.21-0.43
	c-0.04-0.11-0.05-0.23-0.04-0.34c0.05-0.09,0.12-0.17,0.2-0.24c0.09-0.06,0.2-0.11,0.31-0.14c0.12-0.02,0.24-0.02,0.36,0
	c0.19,0,0.37,0.03,0.54,0.11c0.14,0.06,0.27,0.14,0.37,0.26l-0.14,0.13c-0.09-0.1-0.21-0.18-0.34-0.22
	c-0.14-0.05-0.29-0.08-0.44-0.08c-0.09-0.01-0.18-0.01-0.27,0c-0.08,0.02-0.15,0.05-0.22,0.1c-0.07,0.04-0.12,0.1-0.15,0.17
	c-0.04,0.07-0.06,0.16-0.06,0.24c-0.02,0.06-0.02,0.12,0,0.18c0.02,0.05,0.07,0.1,0.12,0.12c0.06,0.04,0.14,0.07,0.21,0.09
	l0.31,0.08l0.43,0.12c0.11,0.03,0.22,0.07,0.32,0.13c0.08,0.05,0.14,0.12,0.2,0.19c0.04,0.09,0.06,0.18,0.06,0.28
	c0.01,0.22-0.09,0.43-0.27,0.56C80.13,13.7,79.9,13.76,79.66,13.75z M85.14,13.7h-0.25v-1.44c0-0.64-0.21-1-0.64-1
	c-0.11,0-0.21,0.02-0.31,0.06c-0.1,0.04-0.2,0.1-0.29,0.17c-0.09,0.08-0.16,0.16-0.23,0.26c-0.07,0.1-0.12,0.21-0.15,0.32v1.6h-0.25
	v-3.61h0.25v1.67c0.11-0.2,0.26-0.36,0.44-0.49c0.18-0.12,0.39-0.18,0.61-0.18c0.13,0,0.25,0.03,0.37,0.08
	c0.1,0.06,0.19,0.14,0.26,0.23c0.07,0.12,0.12,0.24,0.15,0.37c0.02,0.16,0.02,0.31,0,0.47L85.14,13.7z M86.15,10.52v-0.46h0.25v0.46
	H86.15z M86.15,13.7v-2.59h0.25v2.59H86.15z M88.48,13.74c-0.17,0.01-0.35-0.03-0.5-0.11c-0.15-0.07-0.28-0.17-0.38-0.3
	c-0.11-0.12-0.2-0.26-0.26-0.42c-0.06-0.16-0.09-0.33-0.09-0.5c0-0.17,0.03-0.35,0.09-0.51c0.05-0.16,0.14-0.3,0.24-0.43
	c0.11-0.12,0.24-0.22,0.39-0.3c0.15-0.07,0.32-0.11,0.49-0.11c0.21,0,0.42,0.06,0.59,0.18c0.17,0.11,0.31,0.26,0.42,0.43v-0.56h0.23
	v2.64c0.01,0.16-0.03,0.32-0.1,0.47c-0.06,0.13-0.15,0.24-0.26,0.33c-0.12,0.09-0.25,0.16-0.39,0.2c-0.15,0.04-0.31,0.07-0.47,0.07
	c-0.13,0-0.27-0.02-0.4-0.05c-0.11-0.02-0.22-0.06-0.32-0.11c-0.09-0.06-0.17-0.12-0.24-0.19c-0.07-0.07-0.14-0.16-0.19-0.25
	l0.17-0.12c0.09,0.17,0.24,0.31,0.42,0.39c0.18,0.08,0.37,0.12,0.56,0.12c0.13,0.02,0.25,0.02,0.38,0c0.11-0.03,0.22-0.09,0.31-0.16
	c0.09-0.07,0.16-0.17,0.21-0.27c0.05-0.12,0.07-0.25,0.07-0.38v-0.61c-0.1,0.17-0.25,0.31-0.42,0.4
	C88.86,13.69,88.67,13.74,88.48,13.74z M88.54,13.53c0.11,0,0.22-0.02,0.32-0.06c0.1-0.04,0.19-0.1,0.28-0.16
	c0.08-0.06,0.15-0.14,0.21-0.23c0.05-0.07,0.09-0.16,0.1-0.25v-0.85c-0.04-0.1-0.09-0.19-0.16-0.28c-0.06-0.08-0.14-0.16-0.22-0.22
	c-0.09-0.06-0.18-0.1-0.28-0.14c-0.1-0.01-0.19-0.01-0.29,0c-0.15,0-0.29,0.03-0.42,0.1c-0.12,0.06-0.23,0.15-0.31,0.26
	c-0.09,0.11-0.15,0.23-0.2,0.36c-0.04,0.13-0.07,0.27-0.07,0.41c0,0.14,0.03,0.29,0.08,0.42c0.06,0.13,0.13,0.25,0.22,0.36
	c0.1,0.1,0.21,0.18,0.33,0.24C88.26,13.53,88.4,13.55,88.54,13.53z M92.85,13.7H92.6v-1.44c0-0.64-0.21-1-0.64-1
	c-0.11,0-0.21,0.02-0.31,0.06c-0.1,0.04-0.2,0.1-0.29,0.17c-0.09,0.08-0.16,0.16-0.23,0.26c-0.07,0.1-0.12,0.2-0.15,0.32v1.6h-0.25
	v-3.61h0.25v1.67c0.1-0.2,0.25-0.37,0.44-0.49c0.18-0.12,0.39-0.18,0.61-0.18c0.13,0,0.25,0.03,0.37,0.08
	c0.1,0.06,0.19,0.14,0.26,0.23c0.07,0.12,0.12,0.24,0.15,0.37c0.02,0.16,0.02,0.31,0,0.47L92.85,13.7z M96.46,13.75
	c-0.17,0.01-0.35-0.03-0.5-0.11c-0.15-0.07-0.29-0.17-0.4-0.3c-0.12-0.12-0.2-0.27-0.26-0.43c-0.06-0.16-0.09-0.33-0.09-0.5
	c0-0.17,0.03-0.35,0.09-0.51c0.06-0.16,0.14-0.3,0.25-0.43c0.1-0.12,0.23-0.22,0.37-0.3c0.25-0.12,0.54-0.14,0.8-0.06
	c0.1,0.04,0.19,0.08,0.28,0.14c0.09,0.05,0.16,0.12,0.23,0.19c0.07,0.07,0.13,0.15,0.18,0.23v-1.61h0.25v3.3
	c0,0.08,0,0.12,0.11,0.12v0.22h-0.09c-0.06,0-0.13-0.02-0.17-0.07c-0.05-0.04-0.07-0.11-0.07-0.17v-0.27
	c-0.11,0.17-0.25,0.31-0.43,0.41C96.84,13.7,96.65,13.75,96.46,13.75z M96.46,13.53c0.1,0,0.2-0.02,0.29-0.06
	c0.11-0.03,0.2-0.08,0.29-0.15c0.08-0.06,0.16-0.14,0.22-0.22c0.06-0.08,0.1-0.17,0.11-0.27v-0.85c-0.04-0.1-0.09-0.19-0.15-0.27
	c-0.14-0.16-0.32-0.29-0.52-0.37c-0.09-0.01-0.19-0.01-0.28,0c-0.14,0-0.28,0.03-0.41,0.1c-0.12,0.06-0.23,0.15-0.32,0.25
	c-0.09,0.11-0.15,0.23-0.2,0.36c-0.04,0.14-0.07,0.28-0.07,0.42c0,0.14,0.03,0.29,0.08,0.42c0.06,0.13,0.13,0.25,0.22,0.36
	c0.1,0.1,0.21,0.18,0.33,0.24c0.14,0.05,0.3,0.06,0.45,0.04H96.46z M99.79,13.75c-0.18,0-0.35-0.03-0.51-0.1
	c-0.16-0.07-0.3-0.17-0.41-0.3c-0.11-0.13-0.2-0.27-0.27-0.43c-0.06-0.17-0.09-0.34-0.09-0.52c0-0.18,0.03-0.35,0.09-0.52
	c0.07-0.15,0.16-0.3,0.27-0.42c0.11-0.12,0.25-0.22,0.4-0.29c0.16-0.07,0.33-0.11,0.5-0.11c0.18,0,0.35,0.04,0.51,0.11
	c0.15,0.07,0.29,0.17,0.41,0.29c0.12,0.12,0.2,0.27,0.26,0.43c0.06,0.16,0.1,0.34,0.1,0.51v0.06c0,0.02,0,0.03,0,0.05h-2.26
	c0.01,0.14,0.04,0.28,0.1,0.41c0.06,0.12,0.14,0.24,0.23,0.34c0.09,0.09,0.19,0.16,0.31,0.21c0.12,0.06,0.26,0.08,0.39,0.08
	c0.09,0.01,0.17,0.01,0.26,0c0.09-0.02,0.17-0.06,0.24-0.11c0.08-0.04,0.14-0.09,0.2-0.15c0.06-0.06,0.11-0.13,0.14-0.2l0.22,0.06
	c-0.04,0.09-0.09,0.18-0.16,0.25c-0.07,0.08-0.16,0.15-0.25,0.2c-0.1,0.06-0.2,0.11-0.31,0.14C100.04,13.76,99.91,13.76,99.79,13.75
	z M100.79,12.31c-0.01-0.15-0.05-0.29-0.11-0.42c-0.05-0.12-0.13-0.24-0.22-0.33c-0.09-0.09-0.2-0.16-0.32-0.21
	c-0.12-0.05-0.25-0.08-0.38-0.08c-0.13,0-0.27,0.03-0.39,0.08c-0.12,0.05-0.22,0.12-0.31,0.21c-0.09,0.09-0.17,0.21-0.22,0.33
	c-0.06,0.13-0.09,0.28-0.1,0.42H100.79z M103.98,13.7h-0.25v-1.44c0.02-0.25-0.03-0.51-0.14-0.74c-0.1-0.15-0.27-0.24-0.45-0.23
	c-0.11,0-0.22,0.02-0.33,0.06c-0.11,0.05-0.21,0.1-0.3,0.17c-0.09,0.08-0.17,0.16-0.24,0.26c-0.07,0.1-0.12,0.21-0.16,0.32v1.6
	h-0.25v-2.59h0.24v0.62c0.05-0.1,0.12-0.19,0.2-0.27c0.07-0.09,0.16-0.16,0.26-0.21c0.1-0.06,0.2-0.11,0.31-0.14
	c0.11-0.01,0.23-0.01,0.34,0c0.24-0.02,0.47,0.09,0.6,0.3c0.13,0.26,0.19,0.56,0.17,0.85L103.98,13.7z M105.79,13.75
	c-0.19,0-0.39-0.03-0.57-0.1c-0.18-0.06-0.35-0.16-0.48-0.29l0.12-0.17c0.13,0.12,0.28,0.21,0.44,0.27
	c0.16,0.06,0.32,0.09,0.49,0.09c0.19,0.01,0.39-0.04,0.55-0.14c0.13-0.08,0.21-0.23,0.2-0.39c0.02-0.07,0.02-0.14,0-0.21
	c-0.04-0.06-0.09-0.11-0.16-0.14c-0.08-0.04-0.16-0.07-0.25-0.1l-0.36-0.09l-0.39-0.1l-0.26-0.12c-0.15-0.09-0.23-0.26-0.21-0.43
	c0-0.12,0.02-0.23,0.07-0.34c0.05-0.09,0.12-0.18,0.21-0.24c0.09-0.06,0.19-0.11,0.3-0.14c0.12-0.02,0.25-0.02,0.37,0
	c0.19,0,0.37,0.04,0.54,0.11c0.14,0.05,0.27,0.14,0.36,0.26l-0.13,0.13c-0.09-0.1-0.21-0.18-0.34-0.22
	c-0.14-0.05-0.29-0.08-0.44-0.08c-0.09-0.01-0.19-0.01-0.28,0c-0.08,0.02-0.15,0.06-0.22,0.1c-0.06,0.04-0.11,0.1-0.15,0.17
	c-0.02,0.08-0.02,0.16,0,0.24c-0.01,0.06-0.01,0.12,0,0.18c0.03,0.05,0.07,0.09,0.12,0.12c0.07,0.04,0.14,0.07,0.22,0.09l0.31,0.08
	l0.43,0.12c0.11,0.03,0.22,0.07,0.32,0.13c0.08,0.05,0.14,0.11,0.19,0.19c0.05,0.08,0.08,0.18,0.07,0.28
	c0.01,0.22-0.09,0.43-0.27,0.56C106.35,13.73,106.07,13.79,105.79,13.75z M107.64,10.52v-0.46h0.25v0.46H107.64z M107.64,13.7v-2.59
	h0.25v2.59H107.64z M110.08,13.58h-0.07h-0.12h-0.16c-0.07,0.01-0.13,0.01-0.2,0c-0.06,0.01-0.13,0.01-0.19,0
	c-0.06-0.02-0.12-0.05-0.17-0.09c-0.04-0.04-0.08-0.09-0.11-0.14c-0.01-0.07-0.01-0.13,0-0.2v-2h-0.36v-0.2h0.36v-0.89h0.25v0.89
	h0.61v0.2h-0.61v1.9c0,0.08,0.03,0.17,0.1,0.22c0.07,0.05,0.15,0.07,0.23,0.07c0.09,0.02,0.18,0.02,0.27,0l0.13-0.07L110.08,13.58z
	 M110.94,14.58h0.17h0.08h0.06c0.02-0.04,0.04-0.08,0.06-0.12c0.05-0.08,0.09-0.16,0.12-0.25l0.19-0.45l-1.16-2.59h0.26l1,2.35
	l1-2.35h0.24l-1.42,3.41c-0.03,0.09-0.1,0.17-0.18,0.22c-0.1,0.06-0.21,0.08-0.33,0.08h-0.09V14.58z M115.91,13.75
	c-0.55,0-0.83-0.38-0.83-1.14v-1.5h0.25v1.46c0,0.67,0.22,1,0.66,1c0.11,0,0.22-0.02,0.32-0.06c0.1-0.04,0.19-0.09,0.28-0.16
	c0.19-0.14,0.33-0.34,0.4-0.56v-1.68h0.25v2.25c0,0.08,0,0.12,0.11,0.12v0.22h-0.08c-0.06,0-0.12-0.02-0.17-0.06
	c-0.05-0.04-0.09-0.1-0.08-0.17v-0.38c-0.11,0.2-0.27,0.37-0.47,0.49C116.36,13.7,116.14,13.76,115.91,13.75z M119.51,11.33
	c-0.22,0.01-0.43,0.08-0.61,0.21c-0.18,0.13-0.3,0.32-0.36,0.54v1.62h-0.25v-2.59h0.24v0.64c0.08-0.17,0.2-0.33,0.35-0.45
	c0.14-0.11,0.31-0.18,0.48-0.2h0.15V11.33z M121.21,13.75c-0.18,0-0.35-0.03-0.51-0.1c-0.16-0.07-0.3-0.17-0.41-0.3
	c-0.11-0.13-0.2-0.27-0.27-0.43c-0.06-0.17-0.09-0.34-0.09-0.52c0-0.18,0.03-0.35,0.09-0.52c0.07-0.15,0.16-0.3,0.27-0.42
	c0.11-0.12,0.25-0.22,0.4-0.29c0.16-0.07,0.33-0.11,0.5-0.11c0.18,0,0.35,0.04,0.51,0.11c0.15,0.07,0.29,0.17,0.41,0.29
	c0.12,0.12,0.2,0.27,0.26,0.43c0.07,0.16,0.1,0.33,0.1,0.51v0.06c0.01,0.02,0.01,0.03,0,0.05h-2.28c0.01,0.14,0.04,0.28,0.1,0.41
	c0.06,0.12,0.14,0.24,0.23,0.34c0.09,0.09,0.2,0.16,0.32,0.21c0.12,0.06,0.25,0.08,0.38,0.08c0.09,0.01,0.17,0.01,0.26,0
	c0.09-0.03,0.17-0.06,0.25-0.11c0.07-0.04,0.14-0.09,0.2-0.15c0.05-0.06,0.1-0.13,0.13-0.2l0.22,0.06
	c-0.04,0.09-0.09,0.18-0.16,0.25c-0.07,0.08-0.15,0.15-0.25,0.2c-0.1,0.06-0.2,0.11-0.31,0.14
	C121.44,13.76,121.33,13.76,121.21,13.75z M122.21,12.31c-0.01-0.14-0.04-0.29-0.1-0.42c-0.06-0.12-0.13-0.23-0.23-0.33
	c-0.09-0.09-0.2-0.16-0.32-0.21c-0.24-0.11-0.52-0.11-0.76,0c-0.12,0.05-0.23,0.12-0.32,0.21c-0.09,0.09-0.17,0.21-0.22,0.33
	c-0.06,0.13-0.09,0.28-0.1,0.42H122.21z M124.4,13.58h-0.06h-0.12h-0.17c-0.06,0.01-0.13,0.01-0.19,0c-0.07,0.01-0.13,0.01-0.2,0
	c-0.06-0.02-0.11-0.05-0.16-0.09c-0.05-0.04-0.08-0.09-0.11-0.14c-0.02-0.07-0.02-0.13,0-0.2v-2h-0.36v-0.2h0.36v-0.89h0.25v0.89
	h0.6v0.2h-0.6v1.9c-0.01,0.09,0.03,0.17,0.1,0.22c0.06,0.05,0.14,0.07,0.22,0.07c0.09,0.02,0.18,0.02,0.27,0l0.14-0.07L124.4,13.58z
	 M127.21,13.7h-0.25v-1.44c0-0.64-0.21-1-0.64-1c-0.11,0-0.21,0.02-0.31,0.06c-0.1,0.04-0.2,0.1-0.29,0.17
	c-0.08,0.08-0.16,0.17-0.23,0.26c-0.07,0.1-0.12,0.2-0.15,0.32v1.6h-0.25v-3.61h0.25v1.67c0.11-0.2,0.26-0.36,0.44-0.49
	c0.18-0.12,0.39-0.18,0.61-0.18c0.13,0,0.25,0.03,0.37,0.08c0.1,0.06,0.19,0.14,0.26,0.23c0.07,0.12,0.12,0.24,0.15,0.37
	c0.02,0.16,0.02,0.31,0,0.47L127.21,13.7z M128.85,13.75c-0.11,0-0.22-0.02-0.33-0.06c-0.1-0.04-0.19-0.1-0.27-0.17
	c-0.08-0.07-0.14-0.15-0.18-0.25c-0.05-0.1-0.07-0.21-0.07-0.32c0-0.11,0.03-0.21,0.08-0.31c0.06-0.09,0.13-0.18,0.22-0.24
	c0.1-0.07,0.22-0.13,0.34-0.16c0.14-0.04,0.29-0.06,0.44-0.06c0.14-0.01,0.29-0.01,0.43,0c0.13,0.02,0.26,0.05,0.38,0.1v-0.25
	c0.01-0.22-0.06-0.43-0.21-0.59c-0.15-0.15-0.36-0.23-0.57-0.22c-0.14,0-0.27,0.03-0.4,0.08c-0.15,0.06-0.3,0.14-0.43,0.23
	l-0.1-0.17c0.29-0.21,0.64-0.33,1-0.34c0.52-0.03,0.97,0.37,1,0.9c0,0.03,0,0.07,0,0.1v1.27c0,0.08,0,0.12,0.11,0.12v0.22h-0.1
	c-0.06,0-0.12-0.02-0.16-0.06c-0.04-0.05-0.07-0.11-0.07-0.17v-0.21c-0.12,0.16-0.28,0.28-0.46,0.36
	C129.3,13.67,129.08,13.73,128.85,13.75z M128.9,13.55c0.18,0,0.37-0.03,0.54-0.1c0.14-0.07,0.27-0.17,0.37-0.29
	c0.05-0.06,0.07-0.13,0.08-0.2V12.5c-0.12-0.05-0.25-0.08-0.38-0.11c-0.13-0.01-0.27-0.01-0.4,0c-0.12-0.02-0.23-0.02-0.35,0
	c-0.1,0.03-0.19,0.07-0.28,0.12c-0.07,0.05-0.13,0.11-0.18,0.18c-0.04,0.07-0.06,0.16-0.06,0.24c0,0.08,0.02,0.16,0.05,0.24
	c0.03,0.08,0.08,0.14,0.14,0.2c0.13,0.12,0.3,0.18,0.47,0.17V13.55z M133.27,13.7h-0.25v-1.44c0.02-0.26-0.03-0.51-0.15-0.74
	c-0.1-0.15-0.27-0.24-0.45-0.23c-0.11,0-0.22,0.02-0.32,0.06c-0.11,0.04-0.21,0.1-0.31,0.17c-0.09,0.08-0.17,0.16-0.24,0.26
	c-0.07,0.1-0.12,0.21-0.16,0.32v1.6h-0.25v-2.59h0.24v0.62c0.05-0.1,0.12-0.19,0.2-0.27c0.07-0.09,0.16-0.16,0.26-0.21
	c0.1-0.06,0.2-0.11,0.31-0.14c0.11-0.01,0.23-0.01,0.34,0c0.24-0.02,0.47,0.09,0.6,0.3c0.13,0.26,0.2,0.56,0.18,0.85L133.27,13.7z
	 M135.37,13.75c-0.18,0-0.35-0.03-0.51-0.1c-0.15-0.07-0.29-0.17-0.4-0.3c-0.12-0.12-0.21-0.27-0.27-0.43
	c-0.07-0.16-0.1-0.34-0.1-0.52c0-0.18,0.03-0.36,0.1-0.52c0.06-0.16,0.15-0.3,0.26-0.42c0.11-0.12,0.25-0.22,0.4-0.29
	c0.32-0.14,0.68-0.14,1,0c0.15,0.07,0.29,0.17,0.4,0.29c0.12,0.12,0.2,0.27,0.26,0.43c0.07,0.16,0.1,0.33,0.1,0.51v0.06
	c0.01,0.02,0.01,0.03,0,0.05h-2.27c0.01,0.14,0.04,0.28,0.1,0.41c0.06,0.12,0.14,0.24,0.23,0.34c0.09,0.09,0.2,0.16,0.32,0.21
	c0.12,0.06,0.25,0.08,0.38,0.08c0.09,0.01,0.18,0.01,0.27,0c0.08-0.03,0.16-0.07,0.24-0.11c0.07-0.04,0.14-0.09,0.2-0.15
	c0.06-0.06,0.1-0.13,0.14-0.2l0.21,0.06c-0.04,0.09-0.09,0.18-0.16,0.25c-0.07,0.08-0.15,0.15-0.25,0.2
	c-0.1,0.06-0.2,0.11-0.31,0.14C135.6,13.76,135.48,13.76,135.37,13.75z M136.37,12.31c0-0.15-0.04-0.29-0.1-0.42
	c-0.06-0.12-0.13-0.23-0.23-0.33c-0.09-0.09-0.19-0.16-0.31-0.21c-0.12-0.05-0.26-0.08-0.39-0.08c-0.26,0-0.51,0.11-0.7,0.29
	c-0.09,0.1-0.17,0.21-0.22,0.33c-0.05,0.13-0.09,0.28-0.1,0.42H136.37z M3.79,23.7H3.56v-1.44c0.02-0.25-0.03-0.5-0.15-0.73
	c-0.1-0.16-0.28-0.25-0.47-0.24c-0.1,0-0.2,0.02-0.3,0.06c-0.1,0.04-0.18,0.1-0.26,0.17c-0.08,0.08-0.15,0.16-0.21,0.26
	c-0.07,0.1-0.11,0.21-0.14,0.32v1.6H1.79v-1.44c0.02-0.25-0.03-0.51-0.15-0.73c-0.1-0.16-0.27-0.25-0.46-0.24
	c-0.1,0-0.21,0.02-0.3,0.06c-0.1,0.04-0.19,0.1-0.27,0.17c-0.08,0.07-0.15,0.16-0.21,0.25c-0.06,0.1-0.11,0.21-0.14,0.33v1.6H0
	v-2.59h0.23v0.62c0.1-0.19,0.24-0.36,0.42-0.49c0.17-0.12,0.37-0.18,0.58-0.18c0.2-0.01,0.39,0.06,0.53,0.2
	c0.14,0.14,0.23,0.32,0.25,0.51c0.16-0.41,0.56-0.69,1-0.71c0.25-0.02,0.48,0.1,0.61,0.31c0.13,0.26,0.2,0.55,0.18,0.84L3.79,23.7z
	 M5.9,23.75c-0.34,0.01-0.67-0.14-0.9-0.39c-0.12-0.12-0.21-0.27-0.27-0.43c-0.11-0.32-0.11-0.68,0-1C4.8,21.78,4.89,21.63,5,21.5
	c0.11-0.12,0.25-0.22,0.4-0.29c0.16-0.07,0.33-0.11,0.5-0.11c0.34,0,0.67,0.15,0.9,0.4c0.12,0.12,0.21,0.27,0.27,0.43
	c0.12,0.32,0.12,0.68,0,1c-0.06,0.16-0.15,0.3-0.26,0.43c-0.12,0.12-0.25,0.22-0.4,0.29C6.25,23.72,6.08,23.75,5.9,23.75z
	 M4.9,22.42c-0.01,0.15,0.02,0.29,0.08,0.43c0.05,0.13,0.12,0.25,0.21,0.36c0.09,0.1,0.2,0.18,0.32,0.23
	c0.12,0.06,0.26,0.09,0.4,0.09c0.14,0,0.27-0.03,0.39-0.09c0.12-0.06,0.24-0.14,0.33-0.24c0.09-0.11,0.17-0.23,0.22-0.36
	c0.05-0.14,0.08-0.28,0.08-0.43c0-0.15-0.03-0.29-0.08-0.43c-0.05-0.13-0.13-0.25-0.22-0.36c-0.09-0.1-0.2-0.18-0.32-0.24
	c-0.12-0.06-0.26-0.09-0.4-0.09c-0.14,0-0.27,0.03-0.39,0.09c-0.12,0.06-0.23,0.14-0.32,0.24c-0.09,0.11-0.17,0.23-0.22,0.37
	c-0.06,0.13-0.09,0.28-0.09,0.43H4.9z M8.04,20.06h0.25v3.13c0,0.09,0.03,0.17,0.09,0.23c0.06,0.06,0.14,0.09,0.22,0.08h0.19h0.14
	l0.05,0.2c-0.07,0.03-0.14,0.05-0.21,0.06c-0.07,0.01-0.15,0.01-0.22,0c-0.12,0.01-0.24-0.04-0.33-0.12
	c-0.09-0.09-0.14-0.21-0.13-0.34L8.04,20.06z M10.66,23.75c-0.18,0-0.35-0.03-0.51-0.1c-0.15-0.07-0.29-0.17-0.4-0.3
	c-0.12-0.12-0.21-0.27-0.27-0.43c-0.07-0.16-0.1-0.34-0.1-0.52c0-0.18,0.03-0.36,0.1-0.52c0.06-0.16,0.15-0.3,0.27-0.42
	c0.11-0.13,0.25-0.23,0.4-0.29c0.16-0.07,0.33-0.11,0.5-0.11c0.18,0,0.35,0.04,0.51,0.11c0.15,0.07,0.29,0.17,0.4,0.29
	c0.1,0.13,0.18,0.27,0.23,0.43c0.06,0.16,0.09,0.34,0.09,0.51v0.11H9.64c0.03,0.14,0.08,0.26,0.15,0.38
	c0.06,0.12,0.13,0.24,0.22,0.34c0.09,0.09,0.2,0.16,0.32,0.21c0.12,0.06,0.25,0.08,0.38,0.08c0.09,0.01,0.18,0.01,0.27,0
	c0.08-0.03,0.17-0.06,0.24-0.11c0.07-0.04,0.14-0.09,0.2-0.15c0.06-0.06,0.1-0.13,0.14-0.2l0.22,0.06c-0.04,0.09-0.1,0.18-0.17,0.25
	c-0.07,0.08-0.15,0.15-0.24,0.2c-0.1,0.06-0.21,0.11-0.32,0.14C10.92,23.74,10.79,23.76,10.66,23.75z M11.66,22.31
	c0-0.15-0.04-0.29-0.1-0.42c-0.05-0.12-0.13-0.24-0.23-0.33c-0.09-0.09-0.19-0.16-0.31-0.21c-0.12-0.05-0.26-0.08-0.39-0.08
	c-0.26,0-0.51,0.11-0.7,0.29c-0.09,0.1-0.17,0.21-0.22,0.33c-0.05,0.13-0.08,0.28-0.09,0.42H11.66z M12.54,22.4
	c0-0.18,0.03-0.35,0.09-0.52c0.07-0.16,0.16-0.3,0.27-0.43c0.11-0.12,0.25-0.21,0.4-0.28c0.36-0.18,0.78-0.18,1.14,0
	c0.18,0.1,0.32,0.26,0.41,0.45L14.6,21.7c-0.07-0.14-0.19-0.26-0.33-0.34c-0.15-0.07-0.32-0.09-0.48-0.07
	c-0.14,0-0.27,0.03-0.4,0.08c-0.12,0.06-0.23,0.14-0.32,0.24c-0.09,0.1-0.17,0.22-0.22,0.35c-0.05,0.14-0.08,0.29-0.08,0.44
	c0,0.15,0.03,0.3,0.08,0.44c0.05,0.13,0.13,0.25,0.22,0.36c0.09,0.1,0.2,0.18,0.33,0.24c0.12,0.06,0.25,0.09,0.39,0.09
	c0.09,0.01,0.18,0.01,0.27,0c0.08-0.03,0.16-0.06,0.24-0.1c0.07-0.05,0.14-0.1,0.2-0.16c0.05-0.05,0.08-0.11,0.11-0.18l0.25,0.07
	c-0.04,0.09-0.09,0.18-0.16,0.25c-0.07,0.08-0.15,0.15-0.24,0.2c-0.09,0.06-0.2,0.11-0.31,0.14c-0.12,0.02-0.23,0.02-0.35,0
	c-0.18,0-0.35-0.03-0.51-0.1c-0.15-0.07-0.29-0.17-0.4-0.3c-0.12-0.12-0.21-0.27-0.27-0.43C12.56,22.76,12.53,22.58,12.54,22.4z
	 M16.49,23.75c-0.55,0-0.83-0.38-0.83-1.14v-1.5h0.25v1.46c0,0.67,0.22,1,0.66,1c0.11,0,0.22-0.02,0.32-0.06
	c0.1-0.04,0.2-0.09,0.29-0.16c0.09-0.07,0.16-0.15,0.23-0.24c0.07-0.1,0.13-0.21,0.17-0.32v-1.68h0.21v2.25c0,0.08,0,0.12,0.11,0.12
	v0.22h-0.08c-0.06,0-0.12-0.02-0.17-0.06c-0.05-0.04-0.08-0.1-0.08-0.17v-0.39c-0.11,0.2-0.27,0.37-0.47,0.49
	C16.92,23.69,16.71,23.75,16.49,23.75z M18.89,20.06h0.25v3.13c0,0.08,0.03,0.17,0.08,0.23c0.06,0.06,0.15,0.09,0.23,0.08h0.13h0.15
	v0.2c-0.07,0.03-0.14,0.05-0.21,0.06c-0.07,0.01-0.15,0.01-0.22,0c-0.12,0.01-0.24-0.04-0.33-0.12c-0.09-0.09-0.14-0.21-0.13-0.34
	L18.89,20.06z M21.51,23.75c-0.18,0-0.35-0.03-0.51-0.1c-0.15-0.07-0.29-0.17-0.4-0.3c-0.12-0.12-0.21-0.27-0.27-0.43
	c-0.07-0.16-0.1-0.34-0.1-0.52c0-0.18,0.03-0.36,0.1-0.52c0.06-0.16,0.15-0.3,0.26-0.42c0.24-0.25,0.57-0.39,0.91-0.4
	c0.18,0,0.35,0.04,0.51,0.11c0.15,0.07,0.29,0.17,0.4,0.29c0.12,0.12,0.2,0.27,0.26,0.43c0.07,0.16,0.1,0.33,0.1,0.51v0.06
	c0.01,0.02,0.01,0.03,0,0.05h-2.28c0.01,0.14,0.04,0.28,0.1,0.41c0.06,0.12,0.14,0.24,0.23,0.34c0.09,0.09,0.2,0.16,0.32,0.21
	c0.12,0.06,0.25,0.08,0.38,0.08c0.09,0.01,0.18,0.01,0.27,0c0.08-0.03,0.16-0.07,0.24-0.11c0.07-0.04,0.14-0.09,0.2-0.15
	c0.06-0.06,0.1-0.13,0.14-0.2l0.21,0.06c-0.04,0.09-0.09,0.18-0.16,0.25c-0.07,0.08-0.15,0.15-0.25,0.2
	c-0.1,0.06-0.2,0.11-0.31,0.14C21.74,23.76,21.63,23.76,21.51,23.75z M22.51,22.31c0-0.15-0.04-0.29-0.1-0.42
	c-0.06-0.12-0.13-0.23-0.23-0.33c-0.09-0.09-0.19-0.16-0.31-0.21c-0.12-0.05-0.26-0.08-0.39-0.08c-0.26,0-0.51,0.11-0.7,0.29
	c-0.09,0.1-0.17,0.21-0.22,0.33c-0.05,0.13-0.09,0.28-0.1,0.42H22.51z M24.39,23.75c-0.19,0-0.39-0.03-0.57-0.1
	c-0.18-0.06-0.35-0.16-0.48-0.29l0.12-0.17c0.13,0.12,0.28,0.21,0.44,0.27c0.16,0.06,0.32,0.09,0.49,0.09
	c0.19,0.01,0.39-0.04,0.55-0.14c0.13-0.08,0.21-0.23,0.2-0.39c0.01-0.07-0.01-0.15-0.05-0.21c-0.04-0.06-0.09-0.1-0.15-0.14
	l-0.26-0.1l-0.36-0.09l-0.39-0.1l-0.26-0.12c-0.15-0.09-0.23-0.26-0.21-0.43c0-0.12,0.02-0.23,0.07-0.34
	c0.05-0.09,0.12-0.18,0.21-0.24c0.09-0.06,0.19-0.11,0.3-0.14c0.12-0.02,0.25-0.02,0.37,0c0.19,0,0.37,0.04,0.54,0.11
	c0.14,0.05,0.27,0.14,0.36,0.26l-0.14,0.13c-0.09-0.1-0.2-0.18-0.33-0.22c-0.14-0.05-0.29-0.08-0.44-0.08
	c-0.09-0.01-0.19-0.01-0.28,0c-0.08,0.02-0.15,0.06-0.22,0.1c-0.06,0.04-0.11,0.1-0.15,0.17c-0.03,0.08-0.05,0.16-0.05,0.24
	c-0.01,0.06-0.01,0.12,0,0.18c0.03,0.05,0.07,0.09,0.12,0.12c0.07,0.04,0.14,0.07,0.22,0.09l0.31,0.08l0.43,0.12
	c0.11,0.03,0.22,0.07,0.32,0.13c0.08,0.05,0.14,0.11,0.19,0.19c0.05,0.08,0.08,0.18,0.07,0.28c0.01,0.22-0.09,0.43-0.27,0.56
	C24.88,23.7,24.64,23.77,24.39,23.75z M26.31,24.11l0.08-0.4H26.3v-0.43h0.25v0.43l-0.1,0.4H26.31z M30.34,23.58h-0.06h-0.12H30
	c-0.13,0.03-0.27,0.03-0.4,0c-0.06-0.02-0.11-0.05-0.16-0.09c-0.05-0.04-0.08-0.09-0.11-0.14c-0.02-0.07-0.02-0.13,0-0.2v-2h-0.36
	v-0.2h0.36v-0.89h0.25v0.89h0.6v0.2h-0.6v1.9c-0.01,0.09,0.03,0.17,0.1,0.22c0.07,0.05,0.15,0.07,0.23,0.07
	c0.09,0.02,0.17,0.02,0.26,0l0.14-0.07L30.34,23.58z M33.15,23.7H32.9v-1.44c0-0.64-0.21-1-0.64-1c-0.11,0-0.21,0.02-0.31,0.06
	c-0.1,0.04-0.2,0.1-0.29,0.17c-0.08,0.08-0.16,0.17-0.23,0.26c-0.06,0.1-0.11,0.21-0.15,0.32v1.6h-0.25v-3.61h0.25v1.67
	c0.11-0.2,0.26-0.36,0.44-0.49c0.18-0.12,0.39-0.18,0.61-0.18c0.13,0,0.25,0.03,0.37,0.08c0.1,0.06,0.19,0.14,0.26,0.23
	c0.07,0.12,0.12,0.24,0.15,0.37c0.02,0.16,0.02,0.31,0,0.47L33.15,23.7z M35.26,23.75c-0.18,0-0.35-0.03-0.51-0.1
	c-0.16-0.07-0.3-0.17-0.41-0.3c-0.11-0.13-0.2-0.27-0.27-0.43c-0.06-0.17-0.09-0.34-0.09-0.52c0-0.18,0.03-0.35,0.09-0.52
	c0.07-0.15,0.16-0.3,0.27-0.42c0.11-0.12,0.25-0.22,0.4-0.29c0.16-0.07,0.33-0.11,0.5-0.11c0.18,0,0.35,0.04,0.51,0.11
	c0.15,0.07,0.29,0.17,0.41,0.29c0.12,0.12,0.2,0.27,0.26,0.43c0.06,0.16,0.1,0.34,0.1,0.51v0.06c0,0.02,0,0.03,0,0.05h-2.28
	c0.01,0.14,0.04,0.28,0.1,0.41c0.06,0.12,0.14,0.24,0.23,0.34c0.09,0.09,0.2,0.16,0.31,0.21c0.12,0.06,0.26,0.08,0.39,0.08
	c0.09,0.01,0.17,0.01,0.26,0c0.09-0.03,0.17-0.06,0.25-0.11c0.07-0.04,0.14-0.09,0.2-0.15c0.05-0.06,0.1-0.13,0.13-0.2l0.22,0.06
	c-0.04,0.09-0.09,0.18-0.16,0.25c-0.07,0.08-0.15,0.15-0.25,0.2c-0.1,0.06-0.2,0.11-0.31,0.14C35.49,23.76,35.38,23.76,35.26,23.75z
	 M36.26,22.31c-0.01-0.15-0.05-0.29-0.11-0.42c-0.05-0.12-0.13-0.24-0.22-0.33c-0.09-0.09-0.2-0.16-0.32-0.21
	c-0.12-0.05-0.25-0.08-0.38-0.08c-0.13,0-0.27,0.03-0.39,0.08c-0.11,0.05-0.22,0.12-0.31,0.21c-0.09,0.09-0.17,0.21-0.22,0.33
	c-0.06,0.13-0.09,0.28-0.1,0.42H36.26z M38.54,21.33c-0.22,0.01-0.43,0.08-0.61,0.21c-0.18,0.14-0.31,0.33-0.37,0.54v1.62h-0.25
	v-2.59h0.24v0.64c0.09-0.17,0.21-0.33,0.36-0.45c0.14-0.11,0.31-0.18,0.48-0.2h0.15L38.54,21.33z M40.24,23.75
	c-0.18,0-0.35-0.03-0.51-0.1c-0.16-0.07-0.3-0.17-0.41-0.3c-0.11-0.13-0.2-0.27-0.27-0.43c-0.06-0.17-0.09-0.34-0.09-0.52
	c0-0.18,0.03-0.35,0.09-0.52c0.07-0.15,0.16-0.3,0.27-0.42c0.11-0.12,0.25-0.22,0.4-0.29c0.16-0.07,0.33-0.11,0.5-0.11
	c0.18,0,0.35,0.04,0.51,0.11c0.15,0.07,0.29,0.17,0.41,0.29c0.12,0.12,0.2,0.27,0.26,0.43c0.06,0.16,0.1,0.34,0.1,0.51v0.06
	c0,0.02,0,0.03,0,0.05h-2.28c0.01,0.14,0.04,0.28,0.1,0.41c0.06,0.12,0.14,0.24,0.23,0.34c0.09,0.09,0.2,0.16,0.31,0.21
	c0.12,0.06,0.26,0.08,0.39,0.08c0.09,0.01,0.17,0.01,0.26,0c0.09-0.03,0.17-0.06,0.25-0.11c0.07-0.04,0.14-0.09,0.2-0.15
	c0.05-0.06,0.1-0.13,0.13-0.2l0.22,0.06c-0.04,0.09-0.09,0.18-0.16,0.25c-0.07,0.08-0.15,0.15-0.25,0.2
	c-0.1,0.06-0.2,0.11-0.31,0.14C40.47,23.76,40.36,23.76,40.24,23.75z M41.24,22.31c-0.01-0.15-0.05-0.29-0.11-0.42
	c-0.05-0.12-0.13-0.24-0.22-0.33c-0.09-0.09-0.2-0.16-0.32-0.21c-0.12-0.05-0.25-0.08-0.38-0.08c-0.13,0-0.27,0.03-0.39,0.08
	c-0.11,0.05-0.22,0.12-0.31,0.21c-0.09,0.09-0.17,0.21-0.22,0.33c-0.06,0.13-0.09,0.28-0.1,0.42H41.24z M44.47,23.75
	c-0.12,0-0.23-0.02-0.34-0.06c-0.1-0.04-0.19-0.1-0.27-0.17c-0.08-0.07-0.14-0.15-0.18-0.25c-0.05-0.1-0.07-0.21-0.07-0.32
	c0-0.11,0.03-0.21,0.08-0.31c0.06-0.09,0.13-0.17,0.22-0.24c0.11-0.07,0.23-0.13,0.35-0.16c0.14-0.04,0.29-0.06,0.44-0.06
	c0.14-0.01,0.28-0.01,0.42,0c0.13,0.02,0.26,0.05,0.38,0.1v-0.25c0.01-0.22-0.06-0.43-0.21-0.59c-0.15-0.15-0.36-0.23-0.57-0.22
	c-0.14,0-0.27,0.03-0.4,0.08c-0.15,0.06-0.3,0.14-0.43,0.23l-0.1-0.17c0.29-0.21,0.64-0.33,1-0.34c0.52-0.03,0.97,0.37,1,0.9
	c0,0.03,0,0.07,0,0.1v1.27c0,0.08,0,0.12,0.11,0.12v0.22h-0.11c-0.06,0-0.12-0.02-0.16-0.06c-0.04-0.05-0.06-0.11-0.07-0.17v-0.21
	c-0.12,0.16-0.28,0.28-0.46,0.36C44.91,23.66,44.69,23.73,44.47,23.75z M44.47,23.55c0.18,0,0.36-0.03,0.53-0.1
	c0.14-0.07,0.27-0.17,0.37-0.29c0.05-0.06,0.07-0.13,0.08-0.2V22.5c-0.12-0.05-0.25-0.08-0.38-0.11c-0.13-0.01-0.27-0.01-0.4,0
	c-0.12-0.02-0.23-0.02-0.35,0c-0.1,0.03-0.19,0.07-0.28,0.12c-0.07,0.05-0.13,0.11-0.18,0.18c-0.04,0.07-0.06,0.16-0.06,0.24
	c-0.01,0.08-0.01,0.16,0,0.24c0.03,0.07,0.08,0.14,0.14,0.2c0.06,0.05,0.13,0.1,0.21,0.13c0.12,0.05,0.24,0.06,0.37,0.05H44.47z
	 M47.98,21.33c-0.22,0.01-0.43,0.08-0.61,0.21c-0.18,0.13-0.3,0.32-0.36,0.54v1.62h-0.22v-2.59h0.24v0.64
	c0.08-0.17,0.2-0.33,0.35-0.45c0.14-0.11,0.31-0.18,0.48-0.2h0.15L47.98,21.33z M49.68,23.75c-0.18,0-0.35-0.03-0.51-0.1
	c-0.16-0.07-0.3-0.17-0.41-0.3c-0.11-0.13-0.2-0.27-0.26-0.43c-0.07-0.16-0.1-0.34-0.1-0.52c0-0.18,0.03-0.36,0.1-0.52
	c0.06-0.16,0.15-0.3,0.26-0.42c0.11-0.12,0.25-0.22,0.4-0.29c0.16-0.07,0.33-0.11,0.51-0.11c0.17,0,0.34,0.04,0.5,0.11
	c0.15,0.07,0.29,0.17,0.41,0.29c0.12,0.12,0.2,0.27,0.26,0.43c0.07,0.16,0.1,0.33,0.1,0.51v0.06c0.01,0.02,0.01,0.03,0,0.05h-2.28
	c0.01,0.14,0.04,0.28,0.1,0.41c0.06,0.12,0.14,0.24,0.23,0.34c0.09,0.09,0.2,0.16,0.32,0.21c0.12,0.06,0.25,0.08,0.38,0.08
	c0.09,0.01,0.17,0.01,0.26,0c0.09-0.03,0.17-0.06,0.25-0.11c0.07-0.04,0.14-0.09,0.2-0.15c0.05-0.06,0.1-0.13,0.13-0.2l0.22,0.06
	c-0.04,0.09-0.09,0.18-0.16,0.25c-0.07,0.08-0.15,0.15-0.25,0.2c-0.1,0.06-0.2,0.11-0.31,0.14C49.91,23.76,49.8,23.76,49.68,23.75z
	 M50.68,22.31c-0.01-0.14-0.04-0.29-0.1-0.42c-0.06-0.12-0.13-0.23-0.23-0.33c-0.09-0.09-0.2-0.16-0.32-0.21
	c-0.24-0.11-0.52-0.11-0.76,0c-0.12,0.05-0.23,0.12-0.32,0.21c-0.07,0.1-0.13,0.21-0.16,0.33c-0.06,0.13-0.09,0.28-0.1,0.42H50.68z
	 M54.09,23.75c-0.19,0-0.39-0.03-0.57-0.1c-0.18-0.06-0.35-0.16-0.48-0.29l0.12-0.17c0.13,0.12,0.28,0.21,0.44,0.27
	c0.16,0.06,0.32,0.09,0.49,0.09c0.19,0.01,0.39-0.04,0.55-0.14c0.13-0.08,0.21-0.23,0.2-0.39c0.02-0.07,0.02-0.14,0-0.21
	c-0.04-0.06-0.09-0.11-0.15-0.14l-0.26-0.1l-0.36-0.09l-0.39-0.1l-0.26-0.12c-0.15-0.09-0.23-0.26-0.21-0.43
	c0-0.12,0.02-0.23,0.07-0.34c0.05-0.09,0.12-0.18,0.21-0.24c0.09-0.06,0.19-0.11,0.3-0.14c0.12-0.02,0.25-0.02,0.37,0
	c0.19,0,0.37,0.04,0.54,0.11c0.14,0.05,0.27,0.14,0.36,0.26l-0.14,0.13c-0.09-0.1-0.2-0.18-0.33-0.22
	c-0.14-0.05-0.29-0.08-0.44-0.08c-0.09-0.01-0.19-0.01-0.28,0c-0.08,0.02-0.15,0.06-0.22,0.1c-0.06,0.04-0.11,0.1-0.15,0.17
	c-0.02,0.08-0.02,0.16,0,0.24c-0.02,0.06-0.02,0.12,0,0.18c0.02,0.05,0.07,0.1,0.12,0.12c0.06,0.04,0.14,0.07,0.21,0.09l0.31,0.08
	l0.43,0.12c0.11,0.03,0.22,0.07,0.32,0.13c0.08,0.05,0.14,0.11,0.19,0.19c0.05,0.08,0.08,0.18,0.07,0.28
	c0.01,0.22-0.09,0.43-0.27,0.56C54.65,23.72,54.37,23.79,54.09,23.75z M59.73,23.7h-0.25v-1.44c0.02-0.25-0.03-0.5-0.15-0.73
	c-0.1-0.16-0.28-0.25-0.47-0.24c-0.1,0-0.21,0.02-0.3,0.06c-0.1,0.04-0.19,0.1-0.27,0.17c-0.08,0.07-0.15,0.16-0.2,0.26
	c-0.07,0.1-0.11,0.21-0.14,0.32v1.6H57.7v-1.44c0.02-0.25-0.03-0.51-0.15-0.73c-0.1-0.16-0.28-0.25-0.47-0.24
	c-0.1,0-0.2,0.02-0.3,0.06c-0.1,0.04-0.18,0.1-0.26,0.17c-0.08,0.07-0.15,0.16-0.21,0.25c-0.06,0.1-0.11,0.21-0.14,0.33v1.6h-0.25
	v-2.59h0.23v0.62c0.1-0.19,0.24-0.36,0.42-0.49c0.17-0.12,0.37-0.18,0.57-0.18c0.41-0.02,0.76,0.3,0.78,0.71
	c0.17-0.41,0.56-0.69,1-0.71c0.24-0.02,0.48,0.1,0.61,0.31c0.13,0.26,0.2,0.55,0.18,0.84L59.73,23.7z M61.79,23.75
	c-0.18,0-0.35-0.03-0.51-0.1c-0.15-0.07-0.28-0.17-0.4-0.29c-0.11-0.13-0.2-0.27-0.26-0.43c-0.07-0.16-0.1-0.34-0.1-0.52
	c0-0.18,0.04-0.35,0.1-0.52c0.06-0.16,0.16-0.3,0.27-0.43c0.35-0.39,0.92-0.51,1.4-0.29c0.15,0.07,0.29,0.17,0.4,0.29
	c0.12,0.12,0.21,0.27,0.27,0.43c0.12,0.32,0.12,0.68,0,1c-0.06,0.16-0.15,0.31-0.27,0.43c-0.23,0.25-0.56,0.4-0.9,0.39L61.79,23.75z
	 M60.79,22.42c0,0.15,0.03,0.29,0.08,0.43c0.05,0.13,0.13,0.25,0.22,0.36c0.09,0.1,0.2,0.18,0.32,0.23c0.12,0.06,0.26,0.09,0.4,0.09
	c0.14,0,0.27-0.03,0.39-0.09c0.12-0.06,0.23-0.14,0.32-0.24c0.11-0.08,0.2-0.19,0.27-0.31c0.06-0.14,0.09-0.28,0.08-0.43
	c0.01-0.15-0.02-0.29-0.08-0.43c-0.05-0.13-0.12-0.26-0.22-0.36c-0.09-0.1-0.2-0.18-0.32-0.24c-0.25-0.12-0.53-0.12-0.78,0
	c-0.12,0.06-0.24,0.14-0.33,0.24c-0.09,0.11-0.16,0.24-0.21,0.37C60.86,22.16,60.81,22.29,60.79,22.42z M65.02,23.75
	c-0.34,0.01-0.67-0.14-0.9-0.39c-0.12-0.12-0.21-0.27-0.27-0.43c-0.11-0.32-0.11-0.68,0-1c0.07-0.16,0.16-0.3,0.27-0.43
	c0.11-0.12,0.25-0.22,0.4-0.29c0.16-0.07,0.33-0.11,0.5-0.11c0.17,0,0.34,0.04,0.5,0.11c0.15,0.07,0.29,0.17,0.41,0.29
	c0.11,0.13,0.2,0.27,0.26,0.43c0.12,0.32,0.12,0.68,0,1c-0.06,0.16-0.15,0.3-0.26,0.43c-0.12,0.12-0.25,0.22-0.4,0.29
	C65.37,23.72,65.2,23.75,65.02,23.75z M64.02,22.42c-0.01,0.15,0.02,0.29,0.08,0.43c0.05,0.13,0.12,0.25,0.21,0.36
	c0.09,0.1,0.2,0.18,0.32,0.23c0.12,0.06,0.26,0.09,0.4,0.09c0.14,0,0.27-0.03,0.39-0.09c0.12-0.06,0.24-0.14,0.33-0.24
	c0.09-0.11,0.17-0.23,0.22-0.36c0.05-0.14,0.08-0.28,0.08-0.43c0-0.15-0.03-0.29-0.08-0.43c-0.05-0.13-0.13-0.25-0.22-0.36
	c-0.09-0.1-0.2-0.18-0.32-0.24c-0.12-0.06-0.26-0.09-0.4-0.09c-0.14,0-0.27,0.03-0.39,0.09c-0.12,0.06-0.23,0.14-0.32,0.24
	c-0.09,0.11-0.17,0.23-0.22,0.37c-0.06,0.13-0.09,0.28-0.09,0.43H64.02z M68.26,23.58h-0.07h-0.11h-0.17
	c-0.06,0.01-0.13,0.01-0.19,0c-0.07,0.01-0.13,0.01-0.2,0c-0.06-0.02-0.11-0.05-0.16-0.09c-0.05-0.04-0.08-0.09-0.11-0.14
	c-0.02-0.07-0.02-0.13,0-0.2v-2h-0.36v-0.2h0.36v-0.89h0.25v0.89h0.6v0.2h-0.6v1.9c-0.01,0.09,0.03,0.17,0.1,0.22
	c0.06,0.05,0.14,0.07,0.22,0.07c0.09,0.02,0.18,0.02,0.27,0l0.14-0.07L68.26,23.58z M71.07,23.7h-0.28v-1.44c0-0.64-0.21-1-0.64-1
	c-0.11,0-0.21,0.02-0.31,0.06c-0.1,0.04-0.2,0.1-0.29,0.17c-0.09,0.08-0.16,0.16-0.23,0.26c-0.07,0.1-0.12,0.2-0.15,0.32v1.6h-0.25
	v-3.61h0.25v1.67c0.1-0.2,0.25-0.37,0.44-0.49c0.18-0.12,0.39-0.18,0.61-0.18c0.13,0,0.25,0.03,0.37,0.08
	c0.1,0.05,0.19,0.13,0.25,0.23c0.07,0.11,0.13,0.24,0.15,0.37c0.02,0.16,0.02,0.31,0,0.47L71.07,23.7z M73.18,23.75
	c-0.18,0-0.35-0.03-0.51-0.1c-0.16-0.07-0.3-0.17-0.41-0.3c-0.11-0.13-0.2-0.27-0.27-0.43c-0.06-0.17-0.1-0.34-0.1-0.52
	c0-0.18,0.04-0.35,0.1-0.52c0.07-0.15,0.16-0.3,0.27-0.42c0.11-0.12,0.25-0.22,0.4-0.29c0.16-0.07,0.33-0.11,0.5-0.11
	c0.18,0,0.35,0.04,0.51,0.11c0.15,0.07,0.29,0.17,0.41,0.29c0.12,0.12,0.2,0.27,0.26,0.43c0.06,0.16,0.1,0.34,0.1,0.51v0.06
	c0,0.02,0,0.03,0,0.05h-2.29c0.01,0.14,0.05,0.28,0.11,0.41c0.06,0.13,0.13,0.24,0.23,0.34c0.09,0.09,0.19,0.16,0.31,0.21
	c0.12,0.06,0.26,0.08,0.39,0.08c0.09,0.01,0.17,0.01,0.26,0c0.09-0.02,0.17-0.06,0.24-0.11c0.08-0.04,0.14-0.09,0.2-0.15
	c0.06-0.06,0.11-0.13,0.14-0.2l0.22,0.06c-0.08,0.19-0.23,0.35-0.41,0.45c-0.1,0.06-0.2,0.11-0.31,0.14
	C73.41,23.76,73.3,23.76,73.18,23.75z M74.18,22.31c-0.01-0.15-0.05-0.29-0.11-0.42c-0.05-0.12-0.13-0.24-0.22-0.33
	c-0.19-0.18-0.44-0.29-0.7-0.29c-0.13,0-0.27,0.03-0.39,0.08c-0.12,0.05-0.22,0.12-0.31,0.21c-0.09,0.09-0.17,0.21-0.22,0.33
	c-0.06,0.13-0.09,0.28-0.1,0.42H74.18z M76.46,21.33c-0.22,0.01-0.43,0.08-0.61,0.21c-0.18,0.14-0.31,0.33-0.37,0.54v1.62h-0.25
	v-2.59h0.24v0.64c0.09-0.17,0.21-0.33,0.36-0.45c0.14-0.11,0.31-0.18,0.48-0.2h0.15V21.33z M79.23,23.75
	c-0.11,0-0.22-0.02-0.33-0.06c-0.1-0.04-0.19-0.1-0.27-0.17c-0.08-0.07-0.14-0.15-0.18-0.25c-0.05-0.1-0.07-0.21-0.07-0.32
	c0-0.11,0.03-0.21,0.08-0.31c0.06-0.09,0.13-0.17,0.22-0.24c0.11-0.07,0.23-0.13,0.35-0.16c0.14-0.04,0.28-0.06,0.43-0.06
	c0.14-0.01,0.29-0.01,0.43,0c0.13,0.02,0.26,0.05,0.38,0.1v-0.25c0.01-0.22-0.06-0.43-0.21-0.59c-0.15-0.15-0.36-0.23-0.57-0.22
	c-0.14,0-0.27,0.03-0.4,0.08c-0.15,0.06-0.3,0.14-0.43,0.23l-0.1-0.17c0.29-0.21,0.64-0.33,1-0.34c0.52-0.03,0.97,0.37,1,0.9
	c0,0.03,0,0.07,0,0.1v1.27c0,0.08,0,0.12,0.11,0.12v0.22h-0.1c-0.06,0-0.12-0.02-0.16-0.06c-0.04-0.05-0.06-0.11-0.07-0.17v-0.21
	c-0.12,0.16-0.28,0.28-0.46,0.36C79.68,23.67,79.46,23.73,79.23,23.75z M79.23,23.55c0.18,0,0.37-0.03,0.54-0.1
	c0.14-0.07,0.27-0.17,0.37-0.29c0.05-0.06,0.07-0.13,0.08-0.2V22.5c-0.12-0.05-0.25-0.08-0.38-0.11c-0.13-0.01-0.27-0.01-0.4,0
	c-0.12-0.02-0.23-0.02-0.35,0c-0.1,0.03-0.19,0.07-0.28,0.12c-0.07,0.05-0.13,0.11-0.18,0.18c-0.04,0.07-0.06,0.16-0.06,0.24
	c-0.01,0.08-0.01,0.16,0,0.24c0.03,0.08,0.08,0.14,0.14,0.2c0.13,0.12,0.3,0.18,0.47,0.17L79.23,23.55z M83.65,23.7H83.4v-1.44
	c0.02-0.26-0.03-0.51-0.15-0.74c-0.1-0.16-0.28-0.25-0.46-0.23c-0.11,0-0.22,0.02-0.32,0.06c-0.11,0.04-0.21,0.1-0.31,0.17
	c-0.09,0.08-0.17,0.16-0.24,0.26c-0.07,0.1-0.12,0.21-0.16,0.32v1.6h-0.24v-2.59h0.27v0.62c0.11-0.2,0.27-0.36,0.46-0.48
	c0.1-0.06,0.2-0.11,0.31-0.14c0.11-0.01,0.23-0.01,0.34,0c0.24-0.02,0.47,0.09,0.6,0.3c0.13,0.26,0.2,0.56,0.18,0.85L83.65,23.7z
	 M85.72,23.75c-0.17,0.01-0.35-0.03-0.5-0.11c-0.15-0.07-0.29-0.17-0.4-0.3c-0.12-0.12-0.2-0.27-0.26-0.43
	c-0.06-0.16-0.09-0.33-0.09-0.5c0-0.17,0.03-0.35,0.09-0.51c0.06-0.16,0.14-0.3,0.25-0.43c0.11-0.12,0.24-0.22,0.38-0.3
	c0.15-0.07,0.31-0.11,0.47-0.11c0.11-0.02,0.21-0.02,0.32,0c0.1,0.04,0.19,0.08,0.28,0.14c0.09,0.05,0.17,0.12,0.24,0.19
	c0.07,0.07,0.13,0.15,0.18,0.23v-1.56h0.24v3.3c0,0.08,0,0.12,0.11,0.12v0.22h-0.09c-0.06,0-0.13-0.02-0.17-0.07
	c-0.05-0.04-0.07-0.11-0.07-0.17v-0.28c-0.11,0.17-0.25,0.31-0.43,0.41C86.1,23.69,85.91,23.75,85.72,23.75z M85.72,23.53
	c0.1,0,0.2-0.02,0.29-0.06c0.11-0.03,0.2-0.08,0.29-0.15c0.09-0.06,0.16-0.13,0.22-0.22c0.07-0.07,0.11-0.17,0.12-0.27v-0.85
	c-0.04-0.1-0.09-0.19-0.16-0.27c-0.07-0.08-0.15-0.15-0.23-0.22c-0.09-0.06-0.18-0.11-0.28-0.15c-0.1-0.01-0.19-0.01-0.29,0
	c-0.14,0-0.28,0.03-0.41,0.1c-0.12,0.06-0.23,0.15-0.32,0.25c-0.08,0.11-0.15,0.23-0.2,0.36c-0.04,0.14-0.07,0.28-0.07,0.42
	c0.01,0.15,0.05,0.29,0.11,0.42c0.06,0.13,0.14,0.25,0.23,0.36c0.09,0.1,0.2,0.18,0.32,0.24c0.14,0.05,0.3,0.06,0.45,0.04H85.72z
	 M91.62,23.7h-0.25v-1.44c0.02-0.25-0.03-0.51-0.14-0.74c-0.1-0.15-0.26-0.23-0.44-0.23c-0.11,0-0.22,0.02-0.33,0.06
	c-0.11,0.04-0.21,0.1-0.3,0.17c-0.09,0.08-0.18,0.16-0.25,0.26c-0.07,0.1-0.12,0.2-0.15,0.32v1.6h-0.25v-2.59h0.23v0.62
	c0.06-0.1,0.12-0.19,0.2-0.27c0.16-0.16,0.36-0.28,0.58-0.35c0.11-0.02,0.23-0.02,0.34,0c0.24-0.02,0.47,0.09,0.6,0.3
	c0.13,0.26,0.18,0.56,0.17,0.85L91.62,23.7z M93.26,23.75c-0.11,0-0.22-0.02-0.33-0.06c-0.1-0.04-0.19-0.09-0.27-0.17
	c-0.08-0.07-0.14-0.15-0.19-0.25c-0.04-0.1-0.06-0.21-0.06-0.32c0-0.11,0.03-0.21,0.08-0.31c0.06-0.09,0.13-0.18,0.22-0.24
	c0.1-0.07,0.22-0.13,0.34-0.16c0.14-0.04,0.29-0.06,0.44-0.06c0.14-0.01,0.28-0.01,0.42,0c0.13,0.02,0.26,0.05,0.39,0.1v-0.25
	c0.01-0.22-0.06-0.43-0.21-0.59c-0.15-0.15-0.36-0.23-0.57-0.22c-0.14,0-0.28,0.03-0.41,0.08c-0.15,0.06-0.29,0.14-0.43,0.23
	l-0.09-0.17c0.29-0.21,0.64-0.33,1-0.34c0.27-0.01,0.53,0.09,0.73,0.28c0.19,0.2,0.29,0.47,0.27,0.75v1.27c0,0.08,0,0.12,0.11,0.12
	v0.22h-0.1c-0.06,0-0.12-0.02-0.16-0.06c-0.04-0.05-0.06-0.11-0.07-0.17v-0.21c-0.11,0.16-0.27,0.28-0.45,0.36
	C93.72,23.69,93.49,23.74,93.26,23.75z M93.26,23.55c0.18,0,0.36-0.03,0.53-0.1c0.15-0.06,0.28-0.16,0.38-0.29
	c0.05-0.06,0.07-0.13,0.08-0.2V22.5c-0.12-0.05-0.25-0.08-0.38-0.11c-0.13-0.01-0.27-0.01-0.4,0c-0.12-0.02-0.24-0.02-0.36,0
	c-0.1,0.03-0.19,0.07-0.27,0.12c-0.07,0.04-0.14,0.11-0.18,0.18c-0.04,0.07-0.06,0.16-0.06,0.24c-0.02,0.08-0.02,0.16,0,0.24
	c0.03,0.08,0.08,0.14,0.14,0.2c0.13,0.12,0.3,0.18,0.47,0.17L93.26,23.55z M96.69,23.58h-0.07H96.5h-0.16
	c-0.06,0.01-0.13,0.01-0.19,0c-0.07,0.01-0.13,0.01-0.2,0c-0.06-0.02-0.11-0.05-0.16-0.09c-0.05-0.03-0.09-0.08-0.11-0.14
	c-0.02-0.07-0.02-0.13,0-0.2v-2h-0.37v-0.2h0.37v-0.89h0.25v0.89h0.6v0.2h-0.6v1.9c-0.01,0.09,0.03,0.17,0.1,0.22
	c0.06,0.05,0.14,0.07,0.22,0.07c0.09,0.02,0.18,0.02,0.27,0l0.14-0.07L96.69,23.58z M98.18,23.75c-0.55,0-0.83-0.38-0.83-1.14v-1.5
	h0.25v1.46c0,0.67,0.22,1,0.66,1c0.11,0,0.22-0.02,0.32-0.06c0.1-0.04,0.2-0.09,0.29-0.16c0.09-0.07,0.16-0.15,0.23-0.24
	c0.07-0.1,0.13-0.21,0.17-0.32v-1.68h0.24v2.25c0,0.08,0,0.12,0.11,0.12v0.22h-0.08c-0.06,0-0.12-0.02-0.17-0.06
	c-0.05-0.04-0.08-0.1-0.08-0.17v-0.39c-0.11,0.2-0.27,0.37-0.47,0.49C98.63,23.69,98.41,23.75,98.18,23.75z M101.79,21.33
	c-0.22,0.01-0.43,0.08-0.61,0.21c-0.18,0.13-0.3,0.32-0.36,0.54v1.62h-0.25v-2.59h0.22v0.64c0.09-0.17,0.2-0.33,0.35-0.45
	c0.14-0.11,0.31-0.18,0.48-0.2h0.17V21.33z M103.11,23.75c-0.11,0-0.22-0.02-0.33-0.06c-0.1-0.04-0.19-0.09-0.27-0.17
	c-0.08-0.07-0.14-0.15-0.19-0.25c-0.04-0.1-0.06-0.21-0.06-0.32c0-0.11,0.03-0.21,0.08-0.31c0.06-0.09,0.13-0.18,0.22-0.24
	c0.1-0.07,0.22-0.13,0.34-0.16c0.14-0.04,0.29-0.06,0.44-0.06c0.14-0.01,0.28-0.01,0.42,0c0.13,0.02,0.26,0.05,0.38,0.1v-0.25
	c0.01-0.22-0.06-0.43-0.2-0.59c-0.15-0.15-0.36-0.23-0.57-0.22c-0.14,0-0.27,0.03-0.4,0.08c-0.15,0.06-0.3,0.14-0.44,0.23
	l-0.09-0.17c0.28-0.2,0.61-0.32,0.95-0.34c0.51-0.04,0.96,0.34,1,0.85c0,0.05,0,0.1,0,0.15v1.27c0,0.08,0,0.12,0.11,0.12v0.22h-0.1
	c-0.06,0-0.12-0.02-0.16-0.06c-0.04-0.05-0.06-0.11-0.06-0.17v-0.21c-0.12,0.16-0.28,0.28-0.46,0.36
	C103.53,23.66,103.33,23.73,103.11,23.75z M103.16,23.55c0.18,0,0.36-0.03,0.53-0.1c0.15-0.06,0.27-0.16,0.37-0.29
	c0.05-0.05,0.08-0.13,0.08-0.2V22.5c-0.12-0.05-0.24-0.08-0.37-0.11c-0.13-0.01-0.27-0.01-0.4,0c-0.12-0.02-0.24-0.02-0.36,0
	c-0.1,0.03-0.19,0.07-0.27,0.12c-0.07,0.04-0.14,0.11-0.18,0.18c-0.04,0.07-0.06,0.16-0.06,0.24c0,0.08,0.02,0.16,0.05,0.24
	c0.03,0.08,0.08,0.14,0.14,0.2c0.13,0.12,0.3,0.18,0.47,0.17L103.16,23.55z M105.42,20.06h0.26v3.13c-0.01,0.08,0.02,0.17,0.08,0.23
	c0.06,0.06,0.15,0.09,0.23,0.08h0.13h0.14v0.2c-0.07,0.03-0.14,0.05-0.21,0.06c-0.07,0.01-0.14,0.01-0.21,0
	c-0.12,0.01-0.25-0.04-0.34-0.12c-0.09-0.09-0.14-0.21-0.13-0.34L105.42,20.06z M108.44,23.7v-2.39h-0.37v-0.2h0.37v-0.09
	c-0.02-0.26,0.05-0.52,0.19-0.74c0.12-0.18,0.33-0.28,0.54-0.27c0.1-0.02,0.19-0.02,0.29,0c0.08,0.03,0.16,0.07,0.23,0.12
	l-0.09,0.18c-0.05-0.04-0.11-0.07-0.17-0.09c-0.07-0.02-0.15-0.02-0.22,0c-0.16,0-0.3,0.07-0.39,0.2c-0.1,0.18-0.14,0.38-0.13,0.59
	v0.09h0.73v0.2h-0.73v2.39L108.44,23.7z M111.13,23.75c-0.18,0-0.35-0.03-0.51-0.1c-0.15-0.07-0.29-0.17-0.4-0.3
	c-0.12-0.12-0.21-0.27-0.27-0.43c-0.07-0.16-0.1-0.34-0.1-0.52c0-0.18,0.03-0.36,0.1-0.52c0.06-0.16,0.15-0.3,0.26-0.42
	c0.11-0.12,0.25-0.22,0.4-0.29c0.16-0.07,0.33-0.11,0.51-0.11c0.17,0,0.34,0.04,0.5,0.11c0.16,0.07,0.29,0.17,0.41,0.29
	c0.12,0.12,0.2,0.27,0.26,0.43c0.07,0.16,0.1,0.33,0.1,0.51v0.06c0.01,0.02,0.01,0.03,0,0.05h-2.27c0.01,0.14,0.04,0.28,0.1,0.41
	c0.06,0.12,0.14,0.24,0.23,0.34c0.09,0.09,0.2,0.16,0.32,0.21c0.12,0.06,0.25,0.08,0.38,0.08c0.09,0.01,0.18,0.01,0.27,0
	c0.08-0.03,0.16-0.07,0.24-0.11c0.07-0.04,0.14-0.09,0.2-0.15c0.05-0.06,0.1-0.13,0.13-0.2l0.22,0.06
	c-0.04,0.09-0.09,0.18-0.16,0.25c-0.07,0.08-0.15,0.15-0.25,0.2c-0.1,0.06-0.2,0.11-0.31,0.14
	C111.37,23.76,111.25,23.76,111.13,23.75z M112.13,22.31c-0.01-0.14-0.04-0.29-0.1-0.42c-0.06-0.12-0.13-0.23-0.23-0.33
	c-0.09-0.09-0.2-0.16-0.31-0.21c-0.12-0.05-0.26-0.08-0.39-0.08c-0.13,0-0.26,0.03-0.38,0.08c-0.12,0.05-0.23,0.12-0.32,0.21
	c-0.09,0.1-0.17,0.21-0.22,0.33c-0.06,0.13-0.09,0.28-0.1,0.42H112.13z M114.29,23.75c-0.18,0-0.35-0.03-0.51-0.1
	c-0.16-0.07-0.3-0.17-0.41-0.3c-0.11-0.13-0.2-0.27-0.27-0.43c-0.06-0.17-0.09-0.34-0.09-0.52c0-0.18,0.03-0.35,0.09-0.52
	c0.07-0.15,0.16-0.3,0.27-0.42c0.11-0.12,0.25-0.22,0.4-0.29c0.16-0.07,0.33-0.11,0.5-0.11c0.18,0,0.35,0.04,0.51,0.11
	c0.15,0.07,0.29,0.17,0.41,0.29c0.12,0.12,0.2,0.27,0.26,0.43c0.07,0.16,0.1,0.33,0.1,0.51v0.06c0.01,0.02,0.01,0.03,0,0.05h-2.27
	c0.01,0.14,0.04,0.28,0.1,0.41c0.06,0.12,0.14,0.24,0.23,0.34c0.09,0.09,0.2,0.16,0.32,0.21c0.12,0.06,0.25,0.09,0.38,0.08
	c0.09,0.01,0.17,0.01,0.26,0c0.09-0.03,0.17-0.06,0.25-0.11c0.07-0.04,0.14-0.09,0.2-0.15c0.05-0.06,0.1-0.13,0.13-0.2l0.22,0.06
	c-0.04,0.09-0.09,0.18-0.16,0.25c-0.07,0.08-0.15,0.15-0.25,0.2c-0.1,0.06-0.2,0.11-0.31,0.14
	C114.53,23.76,114.41,23.76,114.29,23.75z M115.29,22.31c-0.01-0.14-0.04-0.29-0.1-0.42c-0.06-0.12-0.13-0.23-0.23-0.33
	c-0.09-0.09-0.2-0.16-0.32-0.21c-0.12-0.05-0.25-0.08-0.38-0.08c-0.13,0-0.27,0.03-0.39,0.08c-0.11,0.05-0.22,0.12-0.31,0.21
	c-0.09,0.09-0.17,0.21-0.22,0.33c-0.06,0.13-0.09,0.28-0.1,0.42H115.29z M116.37,20.06h0.25v3.13c0,0.08,0.03,0.17,0.08,0.23
	c0.06,0.06,0.15,0.09,0.23,0.08h0.13h0.14v0.2c-0.07,0.03-0.14,0.05-0.21,0.06c-0.07,0.01-0.14,0.01-0.21,0
	c-0.23,0.02-0.44-0.14-0.46-0.38c0-0.03,0-0.06,0-0.08L116.37,20.06z M117.89,20.52v-0.46h0.25v0.46H117.89z M117.89,23.7v-2.59
	h0.25v2.59H117.89z M121.29,23.7h-0.25v-1.44c0.02-0.25-0.03-0.51-0.14-0.74c-0.1-0.15-0.27-0.24-0.45-0.23
	c-0.11,0-0.22,0.02-0.33,0.06c-0.11,0.04-0.21,0.1-0.3,0.17c-0.09,0.08-0.18,0.16-0.25,0.26c-0.07,0.1-0.12,0.2-0.15,0.32v1.6h-0.25
	v-2.59h0.23v0.62c0.06-0.1,0.12-0.19,0.2-0.27c0.16-0.16,0.36-0.28,0.58-0.35c0.11-0.02,0.23-0.02,0.34,0
	c0.24-0.02,0.47,0.09,0.6,0.3c0.13,0.26,0.18,0.56,0.17,0.85L121.29,23.7z M123.34,23.74c-0.17,0.01-0.34-0.03-0.49-0.11
	c-0.15-0.07-0.28-0.17-0.39-0.3c-0.11-0.12-0.19-0.27-0.25-0.42c-0.07-0.16-0.1-0.33-0.1-0.5c0-0.17,0.03-0.35,0.09-0.51
	c0.06-0.16,0.14-0.3,0.25-0.43c0.11-0.12,0.24-0.23,0.38-0.3c0.15-0.07,0.32-0.11,0.49-0.11c0.21,0,0.42,0.06,0.59,0.18
	c0.17,0.12,0.31,0.26,0.43,0.43v-0.56h0.23v2.64c0.01,0.16-0.03,0.32-0.1,0.47c-0.07,0.13-0.16,0.24-0.27,0.33
	c-0.12,0.09-0.25,0.16-0.39,0.2c-0.15,0.04-0.3,0.07-0.46,0.07c-0.14,0-0.28-0.02-0.41-0.05c-0.11-0.02-0.21-0.06-0.31-0.11
	c-0.09-0.05-0.17-0.12-0.25-0.19c-0.07-0.08-0.13-0.16-0.19-0.25l0.17-0.12c0.1,0.17,0.24,0.3,0.42,0.39
	c0.18,0.08,0.37,0.12,0.57,0.12c0.12,0.02,0.25,0.02,0.37,0c0.11-0.03,0.22-0.09,0.31-0.16c0.09-0.07,0.16-0.17,0.21-0.27
	c0.05-0.12,0.08-0.25,0.08-0.38v-0.56c-0.11,0.17-0.26,0.31-0.43,0.4C123.72,23.72,123.53,23.76,123.34,23.74z M123.4,23.53
	c0.11,0,0.22-0.02,0.32-0.06c0.1-0.04,0.2-0.09,0.29-0.16c0.08-0.07,0.15-0.15,0.21-0.23c0.05-0.08,0.08-0.16,0.1-0.25v-0.85
	c-0.04-0.1-0.09-0.19-0.16-0.28c-0.07-0.08-0.14-0.16-0.23-0.22c-0.08-0.06-0.17-0.11-0.27-0.14c-0.1-0.02-0.2-0.02-0.3,0
	c-0.15,0-0.29,0.03-0.42,0.1c-0.12,0.07-0.22,0.15-0.31,0.26c-0.08,0.11-0.15,0.23-0.19,0.36c-0.05,0.13-0.07,0.27-0.07,0.41
	c0,0.14,0.02,0.29,0.08,0.42c0.05,0.13,0.12,0.25,0.22,0.36c0.09,0.1,0.2,0.18,0.33,0.24C123.13,23.53,123.27,23.55,123.4,23.53z
	 M126.42,23.75c-0.19,0-0.39-0.03-0.57-0.1c-0.18-0.06-0.35-0.16-0.48-0.29l0.12-0.17c0.13,0.12,0.28,0.21,0.44,0.27
	c0.16,0.06,0.32,0.09,0.49,0.09c0.19,0.01,0.39-0.04,0.55-0.14c0.13-0.09,0.21-0.23,0.2-0.39c0.02-0.07,0.02-0.14,0-0.21
	c-0.04-0.06-0.1-0.11-0.16-0.14c-0.08-0.04-0.17-0.07-0.26-0.1l-0.35-0.09l-0.39-0.1c-0.09-0.03-0.18-0.07-0.26-0.12
	c-0.07-0.04-0.12-0.1-0.16-0.17c-0.02-0.09-0.02-0.17,0-0.26c0-0.12,0.02-0.23,0.07-0.34c0.05-0.09,0.12-0.18,0.21-0.24
	c0.09-0.06,0.19-0.11,0.3-0.14c0.12-0.02,0.25-0.02,0.37,0c0.19,0,0.37,0.04,0.54,0.11c0.14,0.05,0.27,0.14,0.36,0.26l-0.14,0.13
	c-0.09-0.1-0.2-0.18-0.33-0.22c-0.14-0.05-0.29-0.08-0.44-0.08c-0.09-0.01-0.19-0.01-0.28,0c-0.08,0.02-0.15,0.05-0.22,0.1
	c-0.06,0.04-0.11,0.1-0.15,0.17c-0.02,0.08-0.02,0.16,0,0.24c-0.01,0.06-0.01,0.12,0,0.18c0.03,0.05,0.07,0.09,0.12,0.12
	c0.07,0.04,0.14,0.07,0.22,0.09l0.3,0.08l0.44,0.12c0.11,0.03,0.22,0.07,0.32,0.13c0.08,0.05,0.14,0.11,0.19,0.19
	c0.05,0.09,0.07,0.18,0.07,0.28c0.01,0.22-0.09,0.43-0.27,0.56C127.02,23.74,126.72,23.8,126.42,23.75z M128.19,23.7v-0.42h0.22
	v0.42H128.19z"/>
<path class="st2" d="M8-57.57v10.64H7.7v-5.29H0.3v5.29H0v-10.64h0.3v5.05h7.4v-5.05H8z M17.96-47.23v0.3h-7v-10.64h6.83v0.3h-6.52
	v4.75h5.74v0.3h-5.74v5L17.96-47.23z M23.65-57.57h0.27l4.64,10.64h-0.33l-1.67-3.8H21l-1.66,3.8h-0.33L23.65-57.57z M26.43-51.03
	l-2.64-6.08L21.12-51L26.43-51.03z M36.52-57.27h-4.08v10.34h-0.3v-10.34h-4.08v-0.3h8.46V-57.27z M41-52.32
	c0.01-0.65,0.12-1.3,0.34-1.91c0.23-0.62,0.57-1.2,1-1.7c0.43-0.5,0.96-0.9,1.55-1.18c0.67-0.32,1.4-0.49,2.14-0.47
	c0.85-0.03,1.69,0.2,2.41,0.65c0.64,0.41,1.15,0.99,1.47,1.67l-0.28,0.09c-0.19-0.37-0.44-0.71-0.73-1
	c-0.26-0.27-0.57-0.49-0.9-0.65c-0.31-0.17-0.65-0.29-1-0.36c-0.33-0.07-0.66-0.11-1-0.11c-0.69-0.02-1.38,0.13-2,0.44
	c-0.57,0.28-1.07,0.68-1.47,1.16c-0.4,0.47-0.71,1-0.92,1.58c-0.2,0.59-0.3,1.2-0.3,1.82c-0.01,1.33,0.48,2.61,1.37,3.59
	c0.42,0.47,0.92,0.86,1.49,1.13c0.57,0.28,1.2,0.42,1.84,0.42c0.36,0,0.73-0.04,1.08-0.13c0.37-0.09,0.74-0.23,1.08-0.41
	c0.36-0.18,0.7-0.42,1-0.69c0.3-0.3,0.55-0.63,0.75-1l0.29,0.08c-0.18,0.4-0.43,0.75-0.74,1.06c-0.3,0.31-0.63,0.57-1,0.78
	c-0.38,0.21-0.79,0.37-1.21,0.48c-0.41,0.1-0.82,0.15-1.24,0.15c-0.7,0.01-1.38-0.16-2-0.48c-0.6-0.31-1.13-0.73-1.57-1.25
	c-0.43-0.52-0.77-1.12-1-1.75C41.18-50.95,41.03-51.63,41-52.32z M56.32-46.85c-0.69,0-1.38-0.16-2-0.47
	c-0.6-0.3-1.13-0.71-1.57-1.21c-0.44-0.51-0.78-1.1-1-1.73c-0.49-1.29-0.49-2.71,0-4c0.24-0.64,0.59-1.23,1.04-1.75
	c0.44-0.5,0.98-0.91,1.58-1.2c0.62-0.3,1.31-0.45,2-0.44c0.69,0,1.38,0.16,2,0.47c0.6,0.31,1.13,0.73,1.56,1.24
	c0.43,0.51,0.77,1.1,1,1.73c0.24,0.64,0.36,1.32,0.36,2c0,0.71-0.13,1.4-0.39,2.06c-0.26,0.62-0.64,1.19-1.11,1.67
	c-0.44,0.49-0.97,0.9-1.56,1.19C57.63-47,56.98-46.85,56.32-46.85z M51.65-52.25c0,0.65,0.12,1.3,0.35,1.91
	c0.24,0.6,0.57,1.16,1,1.64c0.41,0.47,0.91,0.86,1.47,1.13c0.59,0.28,1.23,0.43,1.88,0.42c0.66,0.01,1.3-0.14,1.89-0.44
	c0.56-0.29,1.06-0.69,1.47-1.17c0.82-0.98,1.28-2.21,1.29-3.49c-0.01-1.3-0.49-2.56-1.34-3.55c-0.42-0.47-0.92-0.85-1.48-1.13
	c-0.57-0.28-1.2-0.43-1.83-0.42c-0.66-0.01-1.31,0.14-1.9,0.44c-0.57,0.29-1.07,0.69-1.48,1.17c-0.42,0.48-0.76,1.03-0.98,1.63
	C51.77-53.51,51.65-52.88,51.65-52.25z M63.79-56.99v10.06h-0.3v-10.64h0.22l8.15,10.21v-10.21h0.3v10.64h-0.37L63.79-56.99z
	 M75.11-46.93v-10.64h3.42c0.75-0.02,1.5,0.13,2.19,0.42c0.6,0.26,1.13,0.65,1.56,1.14c0.42,0.49,0.74,1.06,0.93,1.68
	c0.21,0.67,0.32,1.37,0.31,2.07c0,0.73-0.11,1.46-0.35,2.15c-0.22,0.62-0.56,1.19-1,1.68c-0.43,0.47-0.97,0.84-1.57,1.08
	c-0.66,0.26-1.36,0.39-2.07,0.38L75.11-46.93z M83.22-52.26c0.01-0.68-0.1-1.36-0.31-2c-0.19-0.59-0.49-1.13-0.9-1.59
	c-0.42-0.43-0.92-0.78-1.48-1c-0.63-0.26-1.32-0.38-2-0.37h-3.12v10h3.12c0.69,0.01,1.37-0.12,2-0.38c0.56-0.24,1.06-0.6,1.47-1.06
	c0.4-0.47,0.7-1.01,0.89-1.59C83.11-50.9,83.22-51.58,83.22-52.26z M89.95-47.11c0.69,0.03,1.38-0.13,2-0.45
	c0.51-0.28,0.94-0.68,1.25-1.17c0.3-0.52,0.5-1.08,0.59-1.67c0.13-0.61,0.19-1.23,0.19-1.85v-5.32h0.3v5.32c0,0.67-0.07,1.34-0.22,2
	c-0.13,0.62-0.38,1.2-0.73,1.72c-0.34,0.5-0.8,0.91-1.34,1.19c-1.32,0.61-2.84,0.61-4.16,0c-0.54-0.29-1-0.71-1.34-1.23
	c-0.34-0.52-0.57-1.1-0.7-1.71c-0.14-0.66-0.21-1.33-0.21-2v-5.29h0.3v5.32c0,0.63,0.07,1.25,0.19,1.87
	c0.14,0.59,0.38,1.14,0.72,1.64c0.31,0.48,0.74,0.88,1.25,1.15C88.63-47.27,89.28-47.11,89.95-47.11z M96.34-52.32
	c0.01-0.65,0.12-1.3,0.34-1.91c0.23-0.62,0.57-1.2,1-1.7c0.43-0.49,0.96-0.9,1.55-1.18c0.67-0.33,1.4-0.49,2.14-0.47
	c0.85-0.03,1.69,0.2,2.41,0.65c0.64,0.41,1.15,0.99,1.47,1.67l-0.28,0.09c-0.19-0.37-0.44-0.7-0.73-1c-0.27-0.26-0.57-0.48-0.9-0.65
	c-0.31-0.17-0.65-0.29-1-0.36c-0.33-0.07-0.66-0.11-1-0.11c-0.69-0.02-1.38,0.13-2,0.44c-0.57,0.28-1.07,0.68-1.47,1.16
	c-0.4,0.46-0.71,1-0.92,1.58c-0.21,0.58-0.31,1.2-0.31,1.82c-0.01,0.68,0.12,1.36,0.37,2c0.23,0.6,0.57,1.16,1,1.64
	c0.42,0.47,0.92,0.86,1.49,1.13c0.57,0.28,1.2,0.42,1.84,0.42c0.36,0,0.73-0.04,1.08-0.13c0.37-0.09,0.73-0.23,1.07-0.41
	c0.37-0.18,0.7-0.41,1-0.69c0.3-0.29,0.56-0.63,0.76-1l0.29,0.08c-0.18,0.4-0.43,0.75-0.74,1.06c-0.3,0.31-0.63,0.57-1,0.78
	c-0.38,0.21-0.79,0.37-1.21,0.48c-0.41,0.1-0.82,0.15-1.24,0.15c-0.7,0.01-1.38-0.16-2-0.48c-0.6-0.31-1.14-0.73-1.57-1.25
	c-0.43-0.52-0.77-1.11-1-1.75C96.51-50.91,96.36-51.61,96.34-52.32z M114.7-57.27h-4.08v10.34h-0.3v-10.34h-4.08v-0.3h8.46
	L114.7-57.27z M116.45-46.93v-10.64h0.3v10.64H116.45z M118.84-57.57l4.48,10.27l4.47-10.27h0.33l-4.63,10.64h-0.33l-4.64-10.64
	H118.84z M129.89-46.93v-10.64h0.3v10.64H129.89z M140.4-57.27h-4.08v10.34h-0.3v-10.34h-4.08v-0.3h8.46V-57.27z M141.36-57.57
	l4.11,6.17l4.13-6.17h0.34l-4.32,6.52v4.12h-0.3v-4.18l-4.3-6.49L141.36-57.57z M3.44-37.04h0.27l4.63,10.65H8.01L6.35-30.2H0.79
	l-1.67,3.81h-0.33L3.44-37.04z M6.21-30.5l-2.64-6.1L0.9-30.5H6.21z M10.41-36.45v10.06h-0.3v-10.65h0.23l8.14,10.22v-10.22h0.31
	v10.65h-0.34L10.41-36.45z M21.79-26.39v-10.65h3.42c0.75-0.02,1.5,0.13,2.2,0.42c0.6,0.26,1.13,0.65,1.56,1.14
	c0.42,0.5,0.74,1.07,0.93,1.69c0.2,0.67,0.3,1.36,0.3,2.06c0.01,0.75-0.11,1.49-0.35,2.2c-0.22,0.62-0.56,1.19-1,1.68
	c-0.44,0.47-0.98,0.84-1.57,1.08c-0.66,0.26-1.36,0.39-2.07,0.38H21.79z M29.9-31.73c0.01-0.68-0.09-1.35-0.3-2
	c-0.19-0.58-0.5-1.12-0.91-1.58c-0.42-0.44-0.92-0.78-1.48-1c-0.63-0.26-1.31-0.39-2-0.38h-3.16v10h3.12c0.69,0.01,1.37-0.12,2-0.38
	c0.57-0.23,1.08-0.58,1.5-1.04c0.41-0.46,0.71-1.01,0.89-1.6c0.21-0.65,0.31-1.33,0.3-2.02H29.9z M42.48-35.63
	c-0.36-0.41-0.81-0.74-1.32-0.94c-0.52-0.18-1.07-0.27-1.62-0.26c-0.53-0.01-1.06,0.05-1.57,0.18c-0.39,0.1-0.75,0.28-1.07,0.52
	c-0.27,0.21-0.48,0.49-0.62,0.8c-0.13,0.32-0.19,0.66-0.19,1c-0.02,0.34,0.04,0.69,0.19,1c0.14,0.27,0.35,0.49,0.6,0.65
	c0.31,0.19,0.65,0.34,1,0.45c0.43,0.12,0.94,0.25,1.53,0.37s1.12,0.25,1.6,0.39c0.43,0.12,0.84,0.29,1.22,0.52
	c0.32,0.19,0.59,0.46,0.77,0.78c0.2,0.36,0.29,0.76,0.27,1.17c0.04,0.8-0.34,1.55-1,2c-0.83,0.5-1.78,0.74-2.75,0.69
	c-0.78,0.01-1.56-0.12-2.29-0.4c-0.7-0.29-1.33-0.71-1.85-1.25l0.22-0.2c0.49,0.53,1.09,0.95,1.76,1.22
	c0.69,0.26,1.43,0.38,2.17,0.37c0.89,0.07,1.78-0.12,2.56-0.54c0.61-0.39,0.97-1.07,0.93-1.79c0-0.34-0.07-0.69-0.21-1
	c-0.16-0.29-0.38-0.53-0.65-0.71c-0.34-0.22-0.72-0.4-1.11-0.51c-0.52-0.16-1.05-0.29-1.59-0.39c-0.59-0.11-1.11-0.23-1.57-0.35
	c-0.39-0.13-0.76-0.32-1.1-0.55c-0.3-0.18-0.54-0.43-0.71-0.74c-0.17-0.34-0.25-0.72-0.24-1.1c-0.01-0.42,0.08-0.84,0.26-1.22
	c0.17-0.36,0.43-0.66,0.75-0.9c0.35-0.26,0.75-0.44,1.17-0.55c0.49-0.13,0.99-0.19,1.49-0.19c0.6-0.01,1.2,0.09,1.77,0.29
	c0.54,0.22,1.01,0.56,1.39,1L42.48-35.63z M55.34-26.39v-10l-4.72,7.89h-0.24l-4.73-7.89v10h-0.3v-10.65h0.24l4.91,8.19l4.9-8.19
	h0.24v10.65H55.34z M62.79-26.31c-0.69,0-1.38-0.16-2-0.47c-0.59-0.3-1.12-0.71-1.56-1.21c-0.44-0.51-0.78-1.1-1-1.73
	c-0.24-0.64-0.36-1.32-0.36-2c0-0.68,0.13-1.36,0.38-2c0.24-0.64,0.6-1.22,1.05-1.73c0.44-0.49,0.97-0.9,1.57-1.19
	c0.6-0.3,1.25-0.46,1.92-0.47c0.69,0,1.38,0.16,2,0.47c0.6,0.31,1.13,0.73,1.57,1.24c0.43,0.51,0.77,1.1,1,1.73
	c0.24,0.64,0.36,1.32,0.36,2c0,0.7-0.13,1.4-0.38,2.05c-0.23,0.63-0.57,1.21-1,1.72c-0.44,0.47-0.97,0.86-1.55,1.14
	C64.17-26.45,63.48-26.3,62.79-26.31z M58.13-31.71c0,0.65,0.11,1.3,0.35,1.91c0.23,0.6,0.57,1.15,1,1.63
	c0.41,0.48,0.91,0.87,1.47,1.14c0.57,0.28,1.2,0.42,1.84,0.42c0.66,0.01,1.31-0.15,1.9-0.45c0.56-0.29,1.06-0.68,1.47-1.16
	c0.41-0.48,0.72-1.04,0.94-1.63c0.23-0.59,0.34-1.22,0.34-1.86c0.01-1.31-0.47-2.57-1.34-3.55c-0.41-0.47-0.91-0.85-1.47-1.13
	c-0.57-0.28-1.2-0.42-1.84-0.42c-0.66-0.01-1.31,0.15-1.9,0.44c-0.56,0.29-1.06,0.68-1.47,1.16C58.59-34.23,58.13-32.99,58.13-31.71
	z M74.16-26.31c-0.69,0-1.38-0.16-2-0.47c-0.59-0.3-1.12-0.71-1.56-1.21c-0.44-0.51-0.78-1.1-1-1.73c-0.49-1.29-0.49-2.71,0-4
	c0.23-0.63,0.57-1.21,1-1.73c0.44-0.5,0.98-0.9,1.58-1.19c0.62-0.3,1.31-0.45,2-0.44c0.69,0,1.38,0.16,2,0.47
	c0.61,0.3,1.16,0.71,1.61,1.21c0.43,0.51,0.77,1.1,1,1.73c0.24,0.64,0.36,1.32,0.36,2c0,0.7-0.13,1.4-0.38,2.05
	c-0.23,0.63-0.57,1.21-1,1.72c-0.44,0.49-0.98,0.89-1.57,1.18C75.56-26.42,74.86-26.28,74.16-26.31z M69.5-31.71
	c0,0.65,0.12,1.3,0.35,1.91c0.24,0.6,0.57,1.15,1,1.63c0.41,0.48,0.91,0.87,1.47,1.14c0.58,0.28,1.22,0.43,1.87,0.42
	c0.66,0.01,1.31-0.15,1.9-0.45c0.56-0.29,1.06-0.68,1.47-1.16c0.41-0.48,0.72-1.04,0.94-1.63c0.21-0.6,0.31-1.23,0.29-1.86
	c0-1.31-0.47-2.57-1.33-3.55c-0.42-0.47-0.92-0.85-1.48-1.13c-1.18-0.57-2.55-0.57-3.73,0c-0.56,0.29-1.06,0.69-1.46,1.18
	C69.97-34.23,69.51-32.99,69.5-31.71z M88.06-36.74h-4.07v10.35h-0.3v-10.35h-4.08v-0.3h8.45V-36.74z M97.79-37.04v10.65h-0.3v-5.29
	h-7.37v5.29h-0.33v-10.65h0.3v5.06h7.39v-5.06H97.79z M101.08-36.45v10.06h-0.29v-10.65h0.23l8.14,10.22v-10.22h0.3v10.65h-0.35
	L101.08-36.45z M119.41-26.69v0.3h-7v-10.65h6.85v0.3h-6.55v4.76h5.74v0.3h-5.74v5L119.41-26.69z M127.6-35.63
	c-0.36-0.41-0.81-0.74-1.32-0.94c-0.52-0.18-1.07-0.27-1.62-0.26c-0.53-0.01-1.06,0.05-1.57,0.18c-0.39,0.1-0.75,0.28-1.07,0.52
	c-0.27,0.21-0.48,0.49-0.62,0.8c-0.13,0.32-0.19,0.66-0.19,1c-0.02,0.34,0.04,0.69,0.19,1c0.14,0.27,0.35,0.49,0.6,0.65
	c0.31,0.19,0.65,0.34,1,0.45c0.43,0.12,0.94,0.25,1.53,0.37s1.12,0.25,1.6,0.39c0.43,0.12,0.84,0.29,1.22,0.52
	c0.32,0.19,0.59,0.46,0.78,0.78c0.55,1.09,0.24,2.43-0.73,3.17c-0.83,0.5-1.78,0.74-2.75,0.69c-0.78,0.01-1.56-0.12-2.29-0.4
	c-0.7-0.29-1.33-0.71-1.85-1.25l0.28-0.15c0.49,0.53,1.09,0.95,1.76,1.22c0.69,0.26,1.43,0.38,2.17,0.37
	c0.88,0.04,1.75-0.16,2.51-0.59c0.61-0.39,0.97-1.07,0.93-1.79c0-0.34-0.07-0.69-0.21-1c-0.16-0.29-0.38-0.53-0.65-0.71
	c-0.34-0.22-0.72-0.4-1.11-0.51c-0.52-0.16-1.05-0.29-1.59-0.39c-0.59-0.11-1.11-0.23-1.57-0.35c-0.4-0.11-0.79-0.27-1.15-0.48
	c-0.3-0.18-0.54-0.43-0.71-0.74c-0.17-0.34-0.25-0.72-0.24-1.1c-0.01-0.42,0.08-0.84,0.26-1.22c0.17-0.36,0.43-0.66,0.75-0.9
	c0.35-0.26,0.75-0.44,1.17-0.55c0.5-0.13,1.02-0.2,1.54-0.19c0.6-0.01,1.2,0.09,1.77,0.29c0.54,0.22,1.01,0.56,1.39,1L127.6-35.63z
	 M136.62-35.63c-0.35-0.41-0.8-0.74-1.31-0.94c-0.52-0.18-1.08-0.27-1.63-0.26c-0.53-0.01-1.05,0.05-1.56,0.18
	c-0.39,0.1-0.76,0.28-1.08,0.52c-0.27,0.21-0.48,0.49-0.61,0.8c-0.13,0.32-0.2,0.66-0.2,1c-0.02,0.34,0.05,0.69,0.2,1
	c0.14,0.27,0.35,0.49,0.6,0.65c0.31,0.19,0.65,0.34,1,0.45c0.43,0.12,0.93,0.25,1.52,0.37s1.13,0.25,1.61,0.39
	c0.43,0.12,0.84,0.29,1.22,0.52c0.32,0.19,0.58,0.46,0.77,0.78c0.55,1.09,0.25,2.42-0.72,3.17c-0.83,0.5-1.79,0.74-2.76,0.69
	c-0.78,0.01-1.55-0.12-2.28-0.4c-0.7-0.29-1.33-0.71-1.86-1.25l0.26-0.15c0.49,0.53,1.09,0.95,1.76,1.22
	c0.69,0.26,1.43,0.38,2.17,0.37c0.88,0.04,1.75-0.16,2.51-0.59c0.61-0.39,0.96-1.07,0.92-1.79c0.01-0.34-0.06-0.69-0.21-1
	c-0.15-0.28-0.37-0.53-0.64-0.71c-0.34-0.22-0.72-0.4-1.11-0.51c-0.52-0.16-1.05-0.29-1.59-0.39c-0.59-0.11-1.11-0.23-1.57-0.35
	c-0.4-0.11-0.79-0.27-1.15-0.48c-0.3-0.18-0.55-0.43-0.72-0.74c-0.16-0.34-0.24-0.72-0.23-1.1c-0.01-0.42,0.08-0.84,0.26-1.22
	c0.17-0.36,0.43-0.66,0.75-0.9c0.35-0.26,0.75-0.44,1.17-0.55c0.5-0.13,1.01-0.2,1.53-0.19c0.61-0.01,1.21,0.09,1.78,0.29
	c0.54,0.22,1.01,0.56,1.39,1L136.62-35.63z M149.86-11.85H-0.39v0.2h150.25V-11.85z"/>
</svg>
