<?xml version="1.0" encoding="utf-8"?>
<!-- Generator: Adobe Illustrator 22.0.0, SVG Export Plug-In . SVG Version: 6.00 Build 0)  -->
<svg version="1.1" id="Layer_1" xmlns="http://www.w3.org/2000/svg" xmlns:xlink="http://www.w3.org/1999/xlink" x="0px" y="0px"
	 viewBox="0 0 115.5 47.1" style="enable-background:new 0 0 115.5 47.1;" xml:space="preserve">
<style type="text/css">
	.st0{fill:#C62026;}
</style>
<title>Asset 15</title>
<g id="Layer_2_1_">
	<g id="Layer_1-2">
		<path d="M8.46,20.84H4.38v10.34h-0.3V20.84H0v-0.3h8.46V20.84z M18.21,20.54v10.64h-0.3v-5.29h-7.4v5.29h-0.3V20.54h0.3v5.05h7.4
			v-5.05H18.21z M21.18,31.18V20.54h0.3v10.64H21.18z M24.74,21.12v10.06h-0.3V20.54h0.23l8.14,10.21V20.54h0.3v10.64h-0.34
			L24.74,21.12z M36.38,21.12v10.06h-0.3V20.54h0.23l8.14,10.21V20.54h0.3v10.64H44.4L36.38,21.12z M54.71,30.88v0.3h-7V20.54h6.85
			v0.3H48v4.75h5.74v0.3H48v5L54.71,30.88z M62.9,22c-0.35-0.44-0.81-0.78-1.32-1c-0.51-0.17-1.04-0.26-1.58-0.25
			c-0.53-0.01-1.06,0.05-1.57,0.18c-0.39,0.1-0.75,0.27-1.07,0.51c-0.27,0.21-0.48,0.49-0.62,0.81c-0.13,0.33-0.2,0.69-0.19,1.05
			c-0.01,0.33,0.05,0.65,0.19,0.95c0.14,0.26,0.35,0.48,0.6,0.64c0.31,0.2,0.65,0.35,1,0.45c0.43,0.13,0.94,0.25,1.53,0.37
			s1.12,0.25,1.6,0.39c0.43,0.12,0.84,0.29,1.22,0.52c0.67,0.41,1.06,1.16,1,1.95c0.04,0.8-0.34,1.55-1,2
			c-0.83,0.5-1.78,0.74-2.75,0.69c-0.78,0.02-1.56-0.12-2.29-0.4c-0.7-0.28-1.33-0.71-1.85-1.25l0.22-0.2
			c0.49,0.53,1.09,0.95,1.76,1.22c0.71,0.26,1.46,0.39,2.22,0.37c0.88,0.05,1.75-0.16,2.51-0.59c0.61-0.39,0.97-1.07,0.93-1.79
			c0.01-0.34-0.07-0.69-0.21-1c-0.16-0.29-0.38-0.53-0.65-0.71c-0.34-0.22-0.72-0.4-1.11-0.51c-0.52-0.16-1.05-0.29-1.59-0.4
			c-0.59-0.11-1.11-0.23-1.57-0.36c-0.41-0.1-0.79-0.26-1.15-0.48c-0.3-0.17-0.54-0.43-0.71-0.73c-0.17-0.34-0.25-0.72-0.24-1.1
			c-0.01-0.42,0.08-0.85,0.26-1.23c0.17-0.36,0.43-0.66,0.75-0.9c0.35-0.26,0.75-0.44,1.17-0.55c0.5-0.13,1.02-0.2,1.54-0.19
			c0.6-0.01,1.2,0.09,1.77,0.29c0.53,0.22,1.01,0.56,1.39,1L62.9,22z M71.92,22c-0.35-0.44-0.8-0.78-1.31-1
			c-0.52-0.18-1.06-0.26-1.61-0.25c-0.53-0.01-1.05,0.05-1.56,0.18c-0.39,0.1-0.76,0.27-1.08,0.51c-0.27,0.22-0.48,0.49-0.61,0.81
			c-0.14,0.33-0.2,0.69-0.2,1.05c-0.01,0.33,0.06,0.65,0.2,0.95c0.14,0.26,0.35,0.48,0.6,0.64c0.31,0.2,0.65,0.35,1,0.45
			c0.43,0.13,0.93,0.25,1.52,0.37S70,26,70.5,26.1c0.43,0.12,0.84,0.29,1.22,0.52c1.09,0.78,1.34,2.3,0.56,3.39
			c-0.15,0.22-0.34,0.4-0.56,0.56c-0.83,0.5-1.79,0.74-2.76,0.69c-0.78,0.02-1.55-0.12-2.28-0.4c-0.7-0.28-1.33-0.71-1.86-1.25
			l0.23-0.2c0.49,0.53,1.09,0.95,1.76,1.22c0.7,0.26,1.44,0.39,2.19,0.37c0.88,0.05,1.75-0.16,2.51-0.59
			c0.61-0.39,0.96-1.07,0.92-1.79c0.01-0.35-0.06-0.69-0.21-1c-0.15-0.29-0.37-0.53-0.64-0.71c-0.34-0.22-0.72-0.4-1.11-0.51
			c-0.51-0.16-1.03-0.29-1.56-0.4c-0.59-0.11-1.11-0.23-1.57-0.36c-0.41-0.1-0.79-0.26-1.15-0.48c-0.3-0.17-0.55-0.43-0.72-0.73
			c-0.17-0.34-0.25-0.72-0.24-1.1c-0.01-0.43,0.08-0.85,0.27-1.23c0.17-0.36,0.43-0.66,0.75-0.9c0.35-0.26,0.75-0.44,1.17-0.55
			c0.51-0.14,1.05-0.2,1.58-0.19c0.61-0.01,1.21,0.09,1.78,0.29c0.53,0.22,1.01,0.56,1.39,1L71.92,22z M115.5,46.9H0.82v0.2H115.5
			V46.9z"/>
		<path class="st0" d="M1.21,10.65V0h0.3v10.65H1.21z M4,10.65v-1h0.3v1H4z"/>
	</g>
</g>
</svg>
