<?xml version="1.0" encoding="utf-8"?>
<!-- Generator: Adobe Illustrator 22.0.0, SVG Export Plug-In . SVG Version: 6.00 Build 0)  -->
<svg version="1.1" id="Layer_1" xmlns="http://www.w3.org/2000/svg" xmlns:xlink="http://www.w3.org/1999/xlink" x="0px" y="0px"
	 viewBox="0 0 151.15 66.46" style="enable-background:new 0 0 151.15 66.46;" xml:space="preserve">
<style type="text/css">
	.st0{fill:#C62026;}
	.st1{display:none;fill:#010101;}
	.st2{fill:#010101;}
</style>
<path class="st0" d="M1.21,10.65V0h0.3v10.65H1.21z M4.48,10.65V0h0.3v10.65H4.48z M7.3,10.65v-1h0.3v1H7.3z"/>
<path class="st1" d="M1.29,81.81v-3.54h0.25v3.54H1.29z M3.8,81.69H3.73H3.61H3.45c-0.06,0.01-0.13,0.01-0.19,0
	c-0.07,0.01-0.13,0.01-0.2,0C3,81.67,2.95,81.64,2.9,81.6c-0.05-0.03-0.09-0.08-0.11-0.14c-0.02-0.07-0.02-0.13,0-0.2v-2H2.38v-0.2
	h0.37v-0.89H3v0.89h0.6v0.2H3v1.9c-0.01,0.09,0.03,0.17,0.1,0.22c0.06,0.05,0.14,0.07,0.22,0.07c0.09,0.02,0.18,0.02,0.27,0
	l0.14-0.07L3.8,81.69z M6.66,81.86c-0.22,0-0.44-0.08-0.61-0.23c-0.08-0.07-0.14-0.15-0.18-0.25c-0.04-0.1-0.06-0.21-0.06-0.32
	c0-0.11,0.02-0.22,0.08-0.31c0.05-0.1,0.13-0.18,0.22-0.24c0.1-0.07,0.22-0.13,0.34-0.16c0.14-0.04,0.29-0.06,0.44-0.06
	c0.14-0.01,0.28-0.01,0.42,0c0.13,0.02,0.26,0.05,0.38,0.1v-0.25c0.01-0.22-0.06-0.43-0.21-0.59c-0.15-0.15-0.36-0.23-0.57-0.22
	c-0.14,0-0.27,0.03-0.4,0.08c-0.15,0.06-0.29,0.14-0.43,0.23L6,79.51c0.27-0.2,0.6-0.32,0.94-0.34c0.27-0.01,0.54,0.09,0.74,0.28
	c0.19,0.2,0.29,0.47,0.27,0.75v1.27c0,0.08,0,0.12,0.11,0.12v0.22H8c-0.06,0-0.12-0.02-0.16-0.06c-0.04-0.05-0.06-0.11-0.07-0.17
	v-0.21c-0.12,0.16-0.28,0.28-0.46,0.36C7.11,81.82,6.88,81.87,6.66,81.86z M6.66,81.66c0.18,0,0.36-0.03,0.53-0.1
	c0.15-0.06,0.27-0.16,0.37-0.29c0.05-0.05,0.08-0.13,0.08-0.2v-0.46c-0.12-0.05-0.24-0.08-0.37-0.11c-0.14-0.01-0.27-0.01-0.41,0
	c-0.12-0.02-0.23-0.02-0.35,0c-0.1,0.02-0.19,0.06-0.27,0.12c-0.07,0.04-0.14,0.11-0.18,0.18C6.02,80.87,6,80.96,6,81.04
	c-0.02,0.08-0.02,0.16,0,0.24c0.03,0.08,0.08,0.14,0.14,0.2c0.06,0.06,0.13,0.1,0.21,0.13c0.11,0.05,0.24,0.06,0.36,0.05H6.66z
	 M9,78.17h0.25v3.13c0,0.09,0.03,0.17,0.09,0.23c0.06,0.06,0.14,0.09,0.22,0.08H9.7h0.14v0.2c-0.07,0.03-0.14,0.05-0.21,0.06
	c-0.07,0.01-0.15,0.01-0.22,0c-0.12,0.01-0.24-0.04-0.33-0.12C9,81.64,8.97,81.51,9,81.38V78.17z M10.51,78.17h0.26v3.13
	c-0.01,0.08,0.02,0.17,0.08,0.23c0.06,0.06,0.15,0.09,0.23,0.08h0.13h0.14l0.05,0.2c-0.07,0.03-0.14,0.05-0.21,0.06
	c-0.07,0.01-0.14,0.01-0.21,0c-0.12,0.01-0.25-0.04-0.34-0.12c-0.09-0.09-0.14-0.21-0.13-0.34V78.17z M13.12,81.86
	c-0.18,0-0.35-0.03-0.51-0.1c-0.15-0.07-0.28-0.17-0.4-0.29c-0.1-0.14-0.17-0.3-0.21-0.47c-0.12-0.32-0.12-0.68,0-1
	c0.06-0.16,0.16-0.3,0.27-0.43c0.35-0.39,0.92-0.51,1.4-0.29c0.15,0.07,0.29,0.17,0.4,0.29c0.12,0.12,0.21,0.27,0.27,0.43
	c0.12,0.32,0.12,0.68,0,1c-0.06,0.16-0.15,0.31-0.27,0.43c-0.23,0.25-0.56,0.4-0.9,0.39L13.12,81.86z M12.12,80.53
	c0,0.15,0.03,0.29,0.08,0.43c0.05,0.13,0.13,0.25,0.22,0.36c0.09,0.1,0.2,0.18,0.32,0.23c0.12,0.06,0.26,0.09,0.4,0.09
	c0.14,0,0.27-0.03,0.39-0.09c0.12-0.06,0.23-0.14,0.32-0.24c0.1-0.1,0.17-0.23,0.22-0.36c0.06-0.14,0.09-0.28,0.08-0.43
	c0.01-0.15-0.02-0.29-0.08-0.43c-0.05-0.13-0.12-0.26-0.22-0.36c-0.09-0.1-0.2-0.18-0.32-0.24c-0.25-0.12-0.53-0.12-0.78,0
	c-0.12,0.06-0.24,0.14-0.33,0.24c-0.09,0.11-0.16,0.24-0.21,0.37c-0.07,0.13-0.11,0.28-0.11,0.43H12.12z M18.43,79.22h0.25
	l-1.12,2.59h-0.21l-0.59-1.37l-0.58,1.37H16l-1.12-2.59h0.24l1,2.32l0.54-1.28l-0.44-1h0.21l0.36,0.86l0.36-0.86h0.22l-0.44,1
	l0.54,1.28L18.43,79.22z M20.17,81.86c-0.19,0-0.39-0.03-0.57-0.1c-0.18-0.06-0.34-0.16-0.48-0.29l0.12-0.17
	c0.13,0.12,0.28,0.21,0.44,0.27c0.16,0.06,0.32,0.09,0.49,0.09c0.19,0.01,0.39-0.04,0.55-0.14c0.14-0.08,0.22-0.23,0.21-0.39
	c0-0.07-0.02-0.15-0.06-0.21c-0.04-0.06-0.09-0.11-0.15-0.14l-0.26-0.1l-0.36-0.09l-0.38-0.1l-0.27-0.12
	c-0.15-0.09-0.23-0.26-0.21-0.43c0-0.12,0.02-0.23,0.07-0.34c0.05-0.09,0.12-0.18,0.21-0.24c0.09-0.06,0.2-0.11,0.31-0.14
	c0.12-0.02,0.24-0.02,0.36,0c0.19,0,0.37,0.04,0.54,0.11c0.14,0.06,0.27,0.14,0.37,0.26l-0.14,0.13c-0.09-0.1-0.21-0.18-0.34-0.22
	c-0.14-0.05-0.29-0.08-0.44-0.08c-0.09-0.01-0.18-0.01-0.27,0c-0.08,0.02-0.16,0.05-0.23,0.1c-0.06,0.04-0.11,0.1-0.15,0.17
	c-0.03,0.08-0.05,0.16-0.05,0.24c-0.02,0.06-0.02,0.12,0,0.18c0.02,0.05,0.07,0.1,0.12,0.12c0.06,0.04,0.14,0.07,0.21,0.09
	l0.31,0.08l0.43,0.12c0.11,0.03,0.22,0.07,0.32,0.13c0.08,0.05,0.14,0.11,0.19,0.19c0.05,0.08,0.08,0.18,0.07,0.28
	c0.01,0.22-0.09,0.43-0.27,0.56C20.65,81.81,20.41,81.87,20.17,81.86z M25.65,81.81H25.4v-1.44c0-0.64-0.21-1-0.64-1
	c-0.11,0-0.21,0.02-0.31,0.06c-0.11,0.04-0.2,0.1-0.29,0.17c-0.09,0.08-0.16,0.16-0.23,0.26c-0.07,0.1-0.12,0.2-0.15,0.32v1.6h-0.25
	v-3.61h0.25v1.67c0.1-0.2,0.25-0.37,0.44-0.49c0.18-0.12,0.39-0.18,0.61-0.18c0.13,0,0.25,0.03,0.37,0.08
	c0.1,0.05,0.19,0.13,0.25,0.23c0.07,0.11,0.13,0.24,0.15,0.37c0.02,0.16,0.02,0.31,0,0.47L25.65,81.81z M27.76,81.86
	c-0.18,0-0.35-0.03-0.51-0.1c-0.16-0.07-0.3-0.17-0.41-0.3c-0.11-0.13-0.2-0.27-0.27-0.43c-0.06-0.17-0.1-0.34-0.1-0.52
	c0-0.18,0.04-0.35,0.1-0.52c0.07-0.15,0.16-0.3,0.27-0.42c0.11-0.12,0.25-0.22,0.4-0.29c0.16-0.07,0.33-0.11,0.5-0.11
	c0.18,0,0.35,0.04,0.51,0.11c0.15,0.07,0.29,0.17,0.4,0.29c0.12,0.12,0.21,0.27,0.27,0.43c0.06,0.16,0.09,0.34,0.09,0.51v0.11h-2.28
	c0.01,0.14,0.05,0.28,0.11,0.41c0.06,0.13,0.13,0.24,0.23,0.34c0.09,0.09,0.19,0.16,0.31,0.21c0.12,0.06,0.26,0.08,0.39,0.08
	c0.09,0.01,0.17,0.01,0.26,0c0.09-0.02,0.17-0.06,0.24-0.11c0.07-0.04,0.14-0.09,0.2-0.15c0.06-0.06,0.11-0.13,0.14-0.2l0.22,0.06
	c-0.08,0.19-0.23,0.35-0.41,0.45c-0.1,0.06-0.2,0.11-0.31,0.14C27.99,81.87,27.88,81.87,27.76,81.86z M28.76,80.42
	c0-0.15-0.04-0.29-0.1-0.42c-0.05-0.12-0.13-0.23-0.22-0.33c-0.19-0.18-0.44-0.29-0.7-0.29c-0.13,0-0.27,0.03-0.39,0.08
	c-0.12,0.05-0.22,0.12-0.31,0.21c-0.1,0.09-0.17,0.2-0.22,0.33c-0.06,0.13-0.09,0.28-0.1,0.42H28.76z M30.45,81.86
	c-0.11,0-0.22-0.02-0.33-0.06c-0.1-0.04-0.19-0.09-0.27-0.17c-0.08-0.07-0.14-0.15-0.19-0.25c-0.04-0.1-0.06-0.21-0.06-0.32
	c0-0.11,0.02-0.22,0.08-0.31c0.06-0.09,0.13-0.18,0.22-0.24c0.1-0.07,0.22-0.13,0.34-0.16c0.14-0.04,0.29-0.06,0.44-0.06
	c0.14-0.01,0.28-0.01,0.42,0c0.13,0.02,0.26,0.05,0.38,0.1v-0.25c0.01-0.22-0.06-0.43-0.21-0.59c-0.15-0.15-0.35-0.23-0.56-0.22
	c-0.14,0-0.28,0.03-0.41,0.08c-0.15,0.06-0.29,0.14-0.43,0.23l-0.09-0.17c0.28-0.2,0.61-0.32,0.95-0.34
	c0.27-0.01,0.53,0.09,0.73,0.28c0.19,0.2,0.29,0.47,0.27,0.75v1.27c0,0.08,0,0.12,0.11,0.12v0.22h-0.1c-0.06,0-0.12-0.02-0.16-0.06
	c-0.04-0.05-0.06-0.11-0.07-0.17v-0.21c-0.12,0.16-0.27,0.28-0.45,0.36C30.87,81.79,30.66,81.85,30.45,81.86z M30.5,81.66
	c0.18,0,0.36-0.03,0.53-0.1c0.15-0.06,0.27-0.16,0.37-0.29c0.05-0.05,0.08-0.13,0.08-0.2v-0.46c-0.12-0.05-0.24-0.08-0.37-0.11
	c-0.13-0.01-0.27-0.01-0.4,0c-0.12-0.02-0.24-0.02-0.36,0c-0.1,0.03-0.19,0.07-0.27,0.12c-0.07,0.04-0.14,0.11-0.18,0.18
	c-0.04,0.07-0.06,0.16-0.06,0.24c0,0.08,0.01,0.17,0.05,0.24c0.03,0.08,0.08,0.14,0.14,0.2c0.13,0.12,0.3,0.18,0.47,0.17L30.5,81.66
	z M33.88,81.69h-0.07h-0.12h-0.16c-0.06,0.01-0.13,0.01-0.19,0c-0.07,0.01-0.13,0.01-0.2,0c-0.06-0.02-0.11-0.05-0.16-0.09
	c-0.05-0.03-0.09-0.08-0.11-0.14c-0.02-0.07-0.02-0.13,0-0.2v-2H32.5v-0.2h0.37v-0.89h0.25v0.89h0.6v0.2h-0.6v1.9
	c-0.01,0.09,0.03,0.17,0.1,0.22c0.06,0.05,0.14,0.07,0.22,0.07c0.09,0.02,0.18,0.02,0.27,0l0.13-0.07L33.88,81.69z M37.26,81.69
	h-0.07h-0.12h-0.16c-0.07,0.01-0.13,0.01-0.2,0c-0.06,0.01-0.13,0.01-0.19,0c-0.06-0.02-0.12-0.05-0.17-0.09
	c-0.04-0.04-0.08-0.09-0.11-0.14c-0.01-0.07-0.01-0.13,0-0.2v-2h-0.37v-0.2h0.37v-0.89h0.24v0.89h0.61v0.2h-0.61v1.9
	c0,0.08,0.03,0.17,0.1,0.22c0.07,0.05,0.15,0.07,0.23,0.07c0.09,0.02,0.18,0.02,0.27,0l0.13-0.07L37.26,81.69z M39.17,79.44
	c-0.22,0.01-0.43,0.08-0.61,0.21c-0.18,0.13-0.3,0.32-0.36,0.54v1.62H38v-2.59h0.24v0.64c0.08-0.17,0.2-0.33,0.35-0.45
	c0.14-0.11,0.31-0.18,0.48-0.2h0.15L39.17,79.44z M40.5,81.86c-0.11,0-0.22-0.02-0.33-0.06c-0.1-0.04-0.19-0.09-0.27-0.17
	c-0.08-0.07-0.14-0.15-0.19-0.25c-0.04-0.1-0.06-0.21-0.06-0.32c0-0.11,0.02-0.22,0.08-0.31c0.05-0.1,0.13-0.18,0.22-0.24
	c0.1-0.07,0.22-0.13,0.34-0.16c0.14-0.04,0.29-0.06,0.44-0.06c0.14-0.01,0.28-0.01,0.42,0c0.13,0.02,0.26,0.05,0.38,0.1v-0.25
	c0.01-0.22-0.06-0.43-0.21-0.59c-0.15-0.15-0.35-0.23-0.56-0.22c-0.14,0-0.28,0.03-0.41,0.08c-0.15,0.06-0.29,0.14-0.43,0.23
	l-0.09-0.17c0.29-0.21,0.64-0.33,1-0.34c0.27-0.01,0.53,0.09,0.73,0.28c0.19,0.2,0.29,0.47,0.27,0.75v1.27c0,0.08,0,0.12,0.11,0.12
	v0.22h-0.1c-0.06,0-0.12-0.02-0.16-0.06c-0.04-0.05-0.06-0.11-0.07-0.17v-0.21c-0.12,0.16-0.28,0.28-0.46,0.36
	C40.95,81.8,40.73,81.85,40.5,81.86z M40.5,81.66c0.18,0,0.36-0.03,0.53-0.1c0.15-0.06,0.27-0.16,0.37-0.29
	c0.05-0.05,0.08-0.13,0.08-0.2v-0.46c-0.12-0.05-0.24-0.08-0.37-0.11c-0.13-0.01-0.27-0.01-0.4,0c-0.12-0.02-0.24-0.02-0.36,0
	c-0.1,0.02-0.19,0.06-0.27,0.12c-0.07,0.04-0.14,0.11-0.18,0.18c-0.04,0.07-0.06,0.16-0.06,0.24c-0.02,0.08-0.02,0.16,0,0.24
	c0.03,0.08,0.08,0.14,0.14,0.2c0.13,0.12,0.3,0.18,0.47,0.17L40.5,81.66z M44.91,81.81h-0.25v-1.44c0.02-0.25-0.03-0.51-0.14-0.74
	c-0.1-0.15-0.27-0.24-0.45-0.23c-0.11,0-0.22,0.02-0.33,0.06c-0.11,0.04-0.21,0.1-0.3,0.17c-0.09,0.08-0.17,0.16-0.24,0.26
	c-0.07,0.1-0.13,0.2-0.16,0.32v1.6h-0.25v-2.59H43v0.62c0.05-0.1,0.12-0.19,0.19-0.27c0.08-0.08,0.17-0.15,0.27-0.21
	c0.1-0.06,0.2-0.11,0.31-0.14c0.11-0.02,0.23-0.02,0.34,0c0.24-0.02,0.47,0.09,0.6,0.3c0.13,0.26,0.18,0.56,0.17,0.85L44.91,81.81z
	 M46.74,81.86c-0.2,0-0.39-0.03-0.58-0.1c-0.18-0.06-0.34-0.16-0.47-0.29l0.12-0.17c0.25,0.24,0.59,0.36,0.93,0.36
	c0.19,0.01,0.38-0.04,0.54-0.14c0.14-0.08,0.22-0.23,0.21-0.39c0-0.07-0.02-0.14-0.05-0.21c-0.04-0.06-0.1-0.1-0.16-0.14
	c-0.08-0.04-0.17-0.07-0.26-0.1l-0.36-0.09l-0.38-0.1c-0.09-0.03-0.18-0.07-0.26-0.12c-0.07-0.04-0.12-0.1-0.16-0.17
	c-0.02-0.09-0.02-0.17,0-0.26c0-0.12,0.02-0.23,0.07-0.34c0.05-0.09,0.12-0.18,0.21-0.24c0.09-0.06,0.19-0.11,0.3-0.14
	c0.12-0.02,0.25-0.02,0.37,0c0.19,0,0.37,0.04,0.54,0.11c0.14,0.06,0.26,0.14,0.36,0.26l-0.14,0.13c-0.09-0.1-0.2-0.18-0.33-0.22
	c-0.14-0.05-0.3-0.08-0.45-0.08c-0.09-0.01-0.18-0.01-0.27,0c-0.08,0.02-0.15,0.05-0.22,0.1c-0.06,0.04-0.11,0.1-0.15,0.17
	c-0.04,0.07-0.06,0.16-0.06,0.24c-0.01,0.06-0.01,0.12,0,0.18c0.03,0.05,0.07,0.09,0.12,0.12c0.07,0.04,0.14,0.07,0.21,0.09
	l0.31,0.08l0.44,0.12c0.11,0.03,0.21,0.07,0.31,0.13c0.08,0.05,0.15,0.11,0.2,0.19c0.05,0.09,0.07,0.18,0.07,0.28
	c0.01,0.22-0.1,0.43-0.28,0.56C47.25,81.82,47,81.88,46.74,81.86z M48.68,81.81v-2.39h-0.37v-0.2h0.37v-0.09
	c-0.02-0.26,0.05-0.52,0.19-0.74c0.12-0.18,0.33-0.28,0.54-0.27c0.1-0.02,0.19-0.02,0.29,0c0.08,0.02,0.16,0.06,0.23,0.12
	l-0.09,0.18c-0.05-0.04-0.11-0.07-0.17-0.09c-0.07-0.01-0.14-0.01-0.21,0c-0.16-0.01-0.3,0.07-0.39,0.2
	c-0.11,0.18-0.16,0.38-0.14,0.59v0.09h0.74v0.2h-0.74v2.39L48.68,81.81z M51.37,81.86c-0.17,0-0.34-0.03-0.5-0.1
	c-0.16-0.07-0.3-0.17-0.41-0.3c-0.12-0.12-0.21-0.27-0.27-0.43c-0.07-0.16-0.1-0.34-0.1-0.52c0-0.18,0.03-0.36,0.1-0.52
	c0.06-0.16,0.15-0.3,0.27-0.42c0.11-0.13,0.25-0.23,0.4-0.29c0.16-0.07,0.33-0.11,0.5-0.11c0.18,0,0.35,0.04,0.51,0.11
	c0.15,0.07,0.29,0.17,0.4,0.29c0.12,0.12,0.21,0.27,0.27,0.43c0.06,0.16,0.09,0.34,0.09,0.51v0.11h-2.28
	c0.01,0.14,0.05,0.28,0.11,0.41c0.06,0.12,0.13,0.24,0.22,0.34c0.09,0.09,0.2,0.16,0.32,0.21c0.12,0.06,0.25,0.08,0.38,0.08
	c0.09,0.01,0.18,0.01,0.27,0c0.09-0.02,0.17-0.06,0.24-0.11c0.07-0.04,0.14-0.09,0.2-0.15c0.06-0.06,0.1-0.13,0.14-0.2l0.22,0.06
	c-0.04,0.09-0.09,0.18-0.16,0.25c-0.16,0.16-0.35,0.28-0.57,0.34C51.6,81.87,51.49,81.87,51.37,81.86z M52.37,80.42
	c0-0.15-0.04-0.29-0.1-0.42c-0.05-0.12-0.13-0.23-0.22-0.33c-0.09-0.09-0.2-0.16-0.32-0.21c-0.12-0.05-0.26-0.08-0.39-0.08
	c-0.26,0-0.51,0.11-0.7,0.29c-0.09,0.1-0.17,0.21-0.22,0.33c-0.05,0.13-0.08,0.28-0.09,0.42H52.37z M54.66,79.44
	c-0.22,0-0.44,0.07-0.61,0.21c-0.18,0.13-0.31,0.32-0.37,0.54v1.62h-0.25v-2.59h0.24v0.64c0.09-0.17,0.21-0.33,0.36-0.45
	c0.14-0.11,0.3-0.18,0.47-0.2h0.16L54.66,79.44z M58,81.69h-0.07h-0.12c-0.05,0.01-0.11,0.01-0.16,0c-0.06,0.01-0.13,0.01-0.19,0
	c-0.07,0.01-0.13,0.01-0.2,0c-0.06-0.02-0.11-0.05-0.16-0.09c-0.05-0.03-0.09-0.08-0.11-0.14c-0.02-0.07-0.02-0.13,0-0.2v-2h-0.37
	v-0.2h0.37v-0.89h0.25v0.89h0.6v0.2h-0.6v1.9c-0.01,0.09,0.03,0.17,0.1,0.22c0.06,0.05,0.14,0.07,0.22,0.07
	c0.09,0.02,0.18,0.02,0.27,0l0.14-0.07L58,81.69z M59.66,81.86c-0.17,0-0.34-0.03-0.5-0.1c-0.15-0.07-0.29-0.17-0.41-0.29
	c-0.11-0.13-0.2-0.27-0.26-0.43c-0.11-0.32-0.11-0.68,0-1c0.07-0.16,0.16-0.3,0.27-0.43c0.11-0.12,0.25-0.22,0.4-0.29
	c0.16-0.07,0.33-0.11,0.5-0.11c0.17,0,0.34,0.04,0.5,0.11c0.15,0.07,0.29,0.17,0.4,0.29c0.12,0.12,0.21,0.27,0.27,0.43
	c0.12,0.32,0.12,0.68,0,1c-0.06,0.16-0.15,0.3-0.26,0.43c-0.12,0.12-0.26,0.22-0.41,0.29C60,81.83,59.83,81.86,59.66,81.86z
	 M58.66,80.53c0,0.15,0.03,0.29,0.08,0.43c0.05,0.13,0.13,0.25,0.22,0.36c0.09,0.1,0.2,0.18,0.32,0.23c0.12,0.06,0.26,0.09,0.4,0.09
	c0.14,0,0.27-0.03,0.39-0.09c0.12-0.06,0.23-0.14,0.33-0.24c0.08-0.09,0.15-0.2,0.2-0.31c0.05-0.14,0.08-0.28,0.08-0.43
	c0-0.15-0.03-0.29-0.08-0.43c-0.05-0.13-0.13-0.25-0.22-0.36c-0.09-0.1-0.21-0.18-0.33-0.24c-0.25-0.12-0.53-0.12-0.78,0
	c-0.25,0.12-0.45,0.34-0.54,0.61c-0.05,0.12-0.09,0.25-0.09,0.38H58.66z M63.35,82.69h0.16h0.08h0.06c0.03-0.04,0.05-0.08,0.07-0.12
	c0.04-0.08,0.08-0.16,0.11-0.25l0.19-0.45l-1.15-2.59h0.26l1,2.35l1-2.35h0.25l-1.43,3.41c-0.03,0.09-0.09,0.17-0.17,0.22
	c-0.1,0.06-0.21,0.08-0.33,0.08h-0.09L63.35,82.69z M67.11,81.86c-0.17,0-0.34-0.03-0.5-0.1c-0.15-0.07-0.29-0.17-0.41-0.29
	c-0.11-0.13-0.2-0.27-0.26-0.43c-0.12-0.32-0.12-0.68,0-1c0.07-0.16,0.16-0.3,0.27-0.43c0.11-0.12,0.25-0.22,0.4-0.29
	c0.16-0.07,0.33-0.11,0.5-0.11c0.17,0,0.34,0.04,0.5,0.11c0.15,0.07,0.29,0.17,0.4,0.29c0.12,0.12,0.21,0.27,0.27,0.43
	c0.12,0.32,0.12,0.68,0,1c-0.06,0.16-0.15,0.3-0.26,0.43c-0.12,0.12-0.26,0.22-0.41,0.29C67.45,81.83,67.28,81.86,67.11,81.86z
	 M66.11,80.53c0,0.15,0.03,0.29,0.08,0.43c0.05,0.13,0.13,0.25,0.22,0.36c0.09,0.1,0.2,0.18,0.32,0.23c0.12,0.06,0.26,0.09,0.4,0.09
	c0.14,0,0.27-0.03,0.39-0.09c0.12-0.06,0.23-0.14,0.33-0.24c0.09-0.11,0.17-0.23,0.22-0.36c0.05-0.14,0.08-0.28,0.08-0.43
	c0-0.15-0.03-0.29-0.08-0.43c-0.05-0.13-0.13-0.25-0.22-0.36c-0.09-0.1-0.21-0.18-0.33-0.24c-0.25-0.12-0.53-0.12-0.78,0
	c-0.25,0.12-0.45,0.34-0.54,0.61c-0.07,0.13-0.11,0.28-0.11,0.43H66.11z M70,81.86c-0.55,0-0.83-0.38-0.83-1.14v-1.5h0.25v1.46
	c0,0.67,0.22,1,0.66,1c0.11,0,0.22-0.02,0.32-0.06c0.1-0.04,0.2-0.09,0.29-0.16c0.08-0.07,0.16-0.15,0.23-0.24
	c0.07-0.1,0.12-0.21,0.16-0.32v-1.68h0.25v2.25c0,0.08,0,0.12,0.11,0.12v0.22h-0.08c-0.06,0-0.12-0.02-0.17-0.06
	c-0.05-0.04-0.09-0.1-0.08-0.17V81.2c-0.11,0.2-0.27,0.37-0.47,0.49C70.45,81.81,70.23,81.86,70,81.86z M73.63,79.44
	c-0.22,0.01-0.43,0.08-0.61,0.21c-0.18,0.13-0.3,0.32-0.36,0.54v1.62h-0.25v-2.59h0.24v0.64c0.08-0.17,0.2-0.33,0.35-0.45
	c0.14-0.11,0.31-0.18,0.48-0.2h0.15V79.44z M77,81.86c-0.21,0.01-0.42-0.05-0.6-0.17c-0.17-0.11-0.31-0.26-0.42-0.43v1.62h-0.25
	v-3.66H76v0.52c0.11-0.17,0.25-0.31,0.42-0.41c0.17-0.1,0.36-0.16,0.56-0.16c0.17,0,0.35,0.04,0.5,0.12c0.15,0.08,0.28,0.18,0.4,0.3
	c0.11,0.13,0.19,0.27,0.25,0.43c0.06,0.16,0.1,0.33,0.1,0.5c0,0.18-0.03,0.35-0.09,0.52c-0.06,0.15-0.14,0.3-0.24,0.43
	c-0.11,0.12-0.24,0.22-0.38,0.29C77.36,81.83,77.18,81.87,77,81.86z M77,81.64c0.14,0,0.28-0.03,0.41-0.1
	c0.12-0.06,0.23-0.15,0.31-0.25c0.09-0.1,0.16-0.23,0.2-0.36c0.05-0.13,0.07-0.27,0.07-0.41c0-0.14-0.03-0.29-0.08-0.42
	c-0.05-0.13-0.12-0.26-0.22-0.36c-0.1-0.1-0.21-0.18-0.33-0.25c-0.13-0.06-0.27-0.09-0.41-0.09c-0.1,0-0.19,0.02-0.28,0.06
	c-0.1,0.04-0.2,0.09-0.29,0.15c-0.09,0.06-0.16,0.14-0.23,0.22c-0.06,0.08-0.1,0.17-0.11,0.27V81c0.04,0.1,0.1,0.19,0.16,0.27
	c0.07,0.08,0.15,0.15,0.23,0.22c0.08,0.06,0.17,0.11,0.27,0.15C76.8,81.66,76.9,81.66,77,81.64z M79.71,81.86
	c-0.11,0-0.22-0.02-0.33-0.06c-0.1-0.04-0.19-0.09-0.27-0.17c-0.08-0.07-0.14-0.15-0.19-0.25c-0.04-0.1-0.06-0.21-0.06-0.32
	c0-0.11,0.03-0.21,0.08-0.31c0.06-0.09,0.13-0.18,0.22-0.24c0.1-0.07,0.22-0.13,0.34-0.16c0.14-0.04,0.29-0.06,0.44-0.06
	c0.14-0.01,0.28-0.01,0.42,0c0.13,0.02,0.26,0.05,0.38,0.1v-0.25c0.02-0.22-0.06-0.43-0.21-0.59c-0.15-0.15-0.35-0.23-0.56-0.22
	c-0.14,0-0.28,0.03-0.41,0.08c-0.15,0.06-0.29,0.14-0.43,0.23L79,79.51c0.28-0.2,0.61-0.32,0.95-0.34c0.27-0.01,0.54,0.09,0.74,0.28
	c0.18,0.21,0.27,0.48,0.26,0.75v1.27c0,0.08,0,0.12,0.11,0.12v0.22H81c-0.06,0-0.12-0.02-0.16-0.06c-0.04-0.05-0.06-0.11-0.07-0.17
	v-0.21c-0.12,0.16-0.27,0.28-0.45,0.36C80.13,81.81,79.92,81.86,79.71,81.86z M79.76,81.66c0.18,0,0.36-0.03,0.53-0.1
	c0.15-0.06,0.27-0.16,0.37-0.29c0.05-0.05,0.08-0.13,0.08-0.2v-0.46c-0.12-0.05-0.24-0.08-0.37-0.11c-0.13-0.01-0.27-0.01-0.4,0
	c-0.12-0.02-0.24-0.02-0.36,0c-0.1,0.03-0.19,0.07-0.27,0.12c-0.07,0.04-0.14,0.11-0.18,0.18c-0.04,0.07-0.06,0.16-0.06,0.24
	c0,0.08,0.01,0.17,0.05,0.24c0.03,0.08,0.08,0.14,0.14,0.2c0.13,0.12,0.3,0.18,0.47,0.17L79.76,81.66z M83.23,79.44
	c-0.22,0.01-0.43,0.08-0.61,0.21c-0.18,0.13-0.31,0.32-0.37,0.54v1.62H82v-2.59h0.24v0.64c0.09-0.17,0.21-0.33,0.36-0.45
	c0.14-0.11,0.3-0.18,0.47-0.2h0.16V79.44z M85.11,81.69h-0.07h-0.12h-0.16c-0.06,0.01-0.13,0.01-0.19,0c-0.07,0.01-0.13,0.01-0.2,0
	c-0.06-0.02-0.11-0.05-0.16-0.09c-0.05-0.03-0.09-0.08-0.11-0.14c-0.02-0.07-0.02-0.13,0-0.2v-2h-0.37v-0.2h0.37v-0.89h0.25v0.89
	h0.6v0.2h-0.6v1.9c-0.01,0.09,0.03,0.17,0.1,0.22c0.06,0.05,0.14,0.07,0.22,0.07c0.09,0.02,0.18,0.02,0.27,0l0.14-0.07L85.11,81.69z
	 M87.92,81.81h-0.25v-1.44c0.02-0.25-0.03-0.51-0.14-0.74c-0.1-0.15-0.27-0.24-0.45-0.23c-0.11,0-0.22,0.02-0.33,0.06
	c-0.11,0.04-0.21,0.1-0.3,0.17c-0.1,0.07-0.18,0.16-0.25,0.26c-0.07,0.1-0.12,0.2-0.15,0.32v1.6H85.8v-2.59H86v0.62
	c0.06-0.1,0.12-0.19,0.2-0.27c0.16-0.16,0.36-0.28,0.58-0.35c0.11-0.02,0.23-0.02,0.34,0c0.24-0.02,0.47,0.09,0.6,0.3
	c0.13,0.26,0.18,0.56,0.17,0.85L87.92,81.81z M90,81.86c-0.18,0-0.35-0.03-0.51-0.1c-0.16-0.07-0.3-0.17-0.41-0.3
	c-0.11-0.13-0.2-0.27-0.27-0.43c-0.06-0.17-0.1-0.34-0.1-0.52c0-0.18,0.04-0.35,0.1-0.52c0.06-0.16,0.15-0.3,0.27-0.42
	c0.11-0.13,0.25-0.23,0.4-0.29c0.16-0.07,0.33-0.11,0.5-0.11c0.18,0,0.35,0.04,0.51,0.11c0.15,0.07,0.29,0.17,0.4,0.29
	c0.12,0.12,0.21,0.27,0.27,0.43c0.06,0.16,0.09,0.34,0.09,0.51v0.11H89c0.01,0.14,0.05,0.28,0.11,0.41
	c0.06,0.12,0.13,0.24,0.22,0.34c0.09,0.09,0.2,0.16,0.32,0.21c0.12,0.06,0.26,0.08,0.39,0.08c0.09,0.01,0.17,0.01,0.26,0
	c0.09-0.02,0.17-0.06,0.24-0.11c0.07-0.04,0.14-0.09,0.2-0.15c0.06-0.06,0.11-0.13,0.14-0.2l0.22,0.06
	c-0.04,0.09-0.09,0.18-0.16,0.25c-0.07,0.08-0.16,0.15-0.25,0.2c-0.1,0.06-0.2,0.11-0.31,0.14C90.25,81.87,90.13,81.87,90,81.86z
	 M91,80.42c0-0.15-0.04-0.29-0.1-0.42c-0.05-0.12-0.13-0.23-0.22-0.33c-0.19-0.18-0.44-0.29-0.7-0.29c-0.13,0-0.27,0.03-0.39,0.08
	c-0.12,0.05-0.23,0.12-0.32,0.21c-0.09,0.09-0.16,0.21-0.21,0.33c-0.06,0.13-0.09,0.28-0.1,0.42H91z M93.31,79.44
	c-0.22,0.01-0.43,0.08-0.61,0.21c-0.18,0.13-0.31,0.32-0.37,0.54v1.62h-0.25v-2.59h0.24v0.64c0.09-0.17,0.21-0.33,0.36-0.45
	c0.14-0.11,0.3-0.18,0.47-0.2h0.16V79.44z M96.08,81.86c-0.11,0-0.22-0.02-0.33-0.06c-0.1-0.04-0.19-0.1-0.27-0.17
	c-0.08-0.07-0.14-0.15-0.18-0.25c-0.05-0.1-0.07-0.21-0.07-0.32c0-0.11,0.03-0.21,0.08-0.31c0.06-0.09,0.13-0.18,0.22-0.24
	c0.1-0.07,0.22-0.13,0.34-0.16c0.14-0.04,0.29-0.06,0.44-0.06c0.14-0.01,0.28-0.01,0.42,0c0.13,0.02,0.26,0.05,0.39,0.1v-0.25
	c0.01-0.22-0.06-0.43-0.21-0.59c-0.15-0.15-0.36-0.23-0.57-0.22c-0.14,0-0.27,0.03-0.4,0.08c-0.15,0.06-0.3,0.14-0.43,0.23
	l-0.1-0.17c0.29-0.21,0.64-0.33,1-0.34c0.52-0.03,0.97,0.37,1,0.9c0,0.03,0,0.07,0,0.1v1.27c0,0.08,0,0.12,0.11,0.12v0.22h-0.1
	c-0.06,0-0.12-0.02-0.16-0.06c-0.04-0.05-0.07-0.11-0.07-0.17V81.3c-0.12,0.16-0.28,0.28-0.46,0.36
	C96.53,81.77,96.31,81.84,96.08,81.86z M96.08,81.66c0.18,0,0.37-0.03,0.54-0.1c0.14-0.07,0.27-0.17,0.37-0.29
	c0.05-0.06,0.07-0.13,0.08-0.2v-0.46c-0.12-0.05-0.25-0.08-0.38-0.11c-0.13-0.01-0.27-0.01-0.4,0c-0.12-0.02-0.24-0.02-0.36,0
	c-0.09,0.03-0.19,0.07-0.27,0.12c-0.07,0.04-0.14,0.11-0.18,0.18c-0.04,0.07-0.06,0.16-0.06,0.24c-0.01,0.08-0.01,0.16,0,0.24
	c0.03,0.08,0.08,0.14,0.14,0.2c0.13,0.12,0.3,0.18,0.47,0.17L96.08,81.66z M99.2,81.86c-0.2,0-0.39-0.03-0.58-0.1
	c-0.18-0.06-0.34-0.16-0.48-0.29l0.13-0.17c0.25,0.24,0.59,0.36,0.93,0.36c0.19,0.01,0.38-0.04,0.54-0.14
	c0.14-0.08,0.22-0.23,0.21-0.39c0.02-0.07,0.02-0.14,0-0.21c-0.04-0.06-0.1-0.1-0.16-0.14l-0.26-0.1l-0.36-0.09l-0.38-0.1
	l-0.27-0.12c-0.06-0.04-0.11-0.1-0.15-0.17c-0.04-0.08-0.06-0.17-0.06-0.26c0-0.12,0.03-0.23,0.08-0.34
	c0.05-0.09,0.12-0.18,0.21-0.24c0.09-0.06,0.19-0.11,0.3-0.14c0.12-0.02,0.25-0.02,0.37,0c0.19,0,0.37,0.04,0.54,0.11
	c0.14,0.06,0.26,0.15,0.36,0.26l-0.14,0.13c-0.09-0.1-0.21-0.18-0.34-0.22c-0.23-0.07-0.48-0.07-0.71,0
	c-0.08,0.02-0.15,0.05-0.22,0.1c-0.06,0.04-0.11,0.1-0.15,0.17c-0.04,0.07-0.06,0.16-0.06,0.24c-0.01,0.06-0.01,0.12,0,0.18
	c0.03,0.05,0.07,0.09,0.12,0.12c0.07,0.04,0.14,0.07,0.21,0.09l0.31,0.08l0.44,0.12c0.11,0.03,0.21,0.07,0.31,0.13
	c0.08,0.05,0.15,0.11,0.2,0.19c0.04,0.09,0.06,0.18,0.06,0.28c0.01,0.22-0.09,0.43-0.27,0.56C99.7,81.87,99.45,81.91,99.2,81.86z
	 M102.56,78.63v-0.46h0.25v0.46H102.56z M102.56,81.81v-2.59h0.25v2.59H102.56z M104,81.81v-2.39h-0.36v-0.2H104v-0.09
	c-0.01-0.26,0.06-0.52,0.2-0.74c0.12-0.18,0.33-0.28,0.54-0.27c0.1-0.01,0.19-0.01,0.29,0c0.08,0.02,0.16,0.06,0.22,0.12l-0.09,0.18
	c-0.05-0.04-0.11-0.07-0.17-0.09c-0.07-0.01-0.14-0.01-0.21,0c-0.16-0.01-0.3,0.07-0.39,0.2c-0.1,0.18-0.15,0.38-0.14,0.59v0.09
	h0.74v0.2h-0.74v2.39L104,81.81z M108.26,81.69h-0.07h-0.12h-0.16c-0.06,0.01-0.13,0.01-0.19,0c-0.07,0.01-0.13,0.01-0.2,0
	c-0.06-0.02-0.11-0.05-0.16-0.09c-0.05-0.03-0.09-0.08-0.11-0.14c-0.02-0.07-0.02-0.13,0-0.2v-2h-0.37v-0.2h0.37v-0.89h0.25v0.89
	h0.6v0.2h-0.6v1.9c-0.01,0.09,0.03,0.17,0.1,0.22c0.06,0.05,0.14,0.07,0.22,0.07c0.09,0.02,0.18,0.02,0.27,0l0.13-0.07L108.26,81.69
	z M111.07,81.81h-0.25v-1.44c0-0.64-0.22-1-0.64-1c-0.11,0-0.22,0.02-0.32,0.06c-0.1,0.04-0.2,0.1-0.28,0.17
	c-0.09,0.07-0.17,0.16-0.23,0.26c-0.07,0.1-0.12,0.2-0.15,0.32v1.6H109v-3.61h0.25v1.67c0.1-0.2,0.25-0.37,0.44-0.49
	c0.18-0.12,0.39-0.18,0.6-0.18c0.13,0,0.25,0.02,0.37,0.08c0.1,0.05,0.19,0.13,0.26,0.23c0.07,0.11,0.13,0.24,0.15,0.37
	c0.02,0.16,0.02,0.31,0,0.47L111.07,81.81z M113.17,81.86c-0.18,0-0.35-0.03-0.51-0.1c-0.15-0.07-0.29-0.17-0.4-0.3
	c-0.12-0.13-0.21-0.29-0.26-0.46c-0.07-0.16-0.1-0.34-0.1-0.52c0-0.16,0.04-0.33,0.1-0.48c0.06-0.16,0.15-0.3,0.27-0.42
	c0.11-0.13,0.25-0.23,0.4-0.29c0.16-0.07,0.33-0.11,0.5-0.11c0.18,0,0.35,0.04,0.51,0.11c0.15,0.07,0.29,0.17,0.4,0.29
	c0.12,0.12,0.21,0.27,0.27,0.43c0.06,0.16,0.09,0.34,0.09,0.51v0.11h-2.28c0.01,0.14,0.05,0.28,0.11,0.41
	c0.06,0.12,0.13,0.24,0.22,0.34c0.09,0.09,0.2,0.16,0.32,0.21c0.12,0.06,0.25,0.08,0.38,0.08c0.09,0.01,0.18,0.01,0.27,0
	c0.08-0.03,0.17-0.06,0.24-0.11c0.07-0.04,0.14-0.09,0.2-0.15c0.06-0.06,0.1-0.13,0.14-0.2l0.22,0.06c-0.04,0.09-0.1,0.18-0.17,0.25
	c-0.07,0.08-0.15,0.15-0.24,0.2c-0.1,0.06-0.21,0.11-0.32,0.14C113.41,81.88,113.29,81.88,113.17,81.86z M114.17,80.42
	c0-0.15-0.04-0.29-0.1-0.42c-0.05-0.12-0.13-0.24-0.23-0.33c-0.09-0.09-0.19-0.16-0.31-0.21c-0.12-0.05-0.26-0.08-0.39-0.08
	c-0.26,0-0.51,0.11-0.7,0.29c-0.09,0.1-0.17,0.21-0.22,0.33c-0.05,0.13-0.08,0.28-0.09,0.42H114.17z M116.46,79.44
	c-0.22,0-0.44,0.07-0.61,0.21c-0.18,0.13-0.31,0.32-0.37,0.54v1.62h-0.25v-2.59h0.24v0.64c0.09-0.17,0.21-0.33,0.36-0.45
	c0.14-0.11,0.3-0.18,0.47-0.2h0.16V79.44z M118.15,81.86c-0.17,0-0.34-0.03-0.5-0.1c-0.16-0.07-0.3-0.17-0.41-0.3
	c-0.11-0.13-0.19-0.29-0.24-0.46c-0.07-0.16-0.1-0.34-0.1-0.52c0-0.16,0.04-0.33,0.1-0.48c0.06-0.16,0.15-0.3,0.27-0.42
	c0.11-0.13,0.25-0.23,0.4-0.29c0.16-0.07,0.33-0.11,0.5-0.11c0.18,0,0.35,0.04,0.51,0.11c0.15,0.07,0.29,0.17,0.4,0.29
	c0.12,0.12,0.21,0.27,0.27,0.43c0.06,0.16,0.09,0.34,0.09,0.51v0.11h-2.28c0.01,0.14,0.05,0.28,0.11,0.41
	c0.06,0.12,0.13,0.24,0.22,0.34c0.09,0.09,0.2,0.16,0.32,0.21c0.12,0.06,0.25,0.08,0.38,0.08c0.09,0.01,0.18,0.01,0.27,0
	c0.09-0.02,0.17-0.06,0.24-0.11c0.07-0.04,0.14-0.09,0.2-0.15c0.06-0.06,0.1-0.13,0.14-0.2l0.22,0.06c-0.04,0.09-0.1,0.18-0.17,0.25
	c-0.07,0.08-0.15,0.15-0.25,0.2c-0.09,0.06-0.2,0.11-0.31,0.14C118.4,81.88,118.28,81.88,118.15,81.86z M119.15,80.42
	c0-0.15-0.04-0.29-0.1-0.42c-0.05-0.12-0.13-0.23-0.22-0.33c-0.09-0.09-0.2-0.16-0.32-0.21c-0.12-0.05-0.26-0.08-0.39-0.08
	c-0.26,0-0.51,0.11-0.7,0.29c-0.09,0.1-0.17,0.21-0.22,0.33c-0.05,0.13-0.08,0.28-0.09,0.42H119.15z M124.9,79.22h0.25L124,81.81
	h-0.21l-0.58-1.37l-0.58,1.37h-0.21l-1.13-2.59h0.25l1,2.32l0.54-1.28l-0.44-1h0.22l0.36,0.86l0.35-0.86h0.22l-0.44,1l0.55,1.28
	L124.9,79.22z M126.45,81.86c-0.11,0-0.22-0.02-0.33-0.06c-0.1-0.04-0.19-0.1-0.27-0.17c-0.08-0.07-0.14-0.15-0.19-0.25
	c-0.04-0.1-0.06-0.21-0.06-0.32c0-0.11,0.03-0.21,0.08-0.31c0.06-0.09,0.13-0.18,0.22-0.24c0.1-0.07,0.22-0.13,0.34-0.16
	c0.14-0.04,0.29-0.06,0.44-0.06c0.14-0.01,0.28-0.01,0.42,0c0.13,0.02,0.26,0.05,0.39,0.1v-0.25c0.01-0.22-0.06-0.43-0.21-0.59
	c-0.15-0.15-0.36-0.23-0.57-0.22c-0.14,0-0.27,0.03-0.4,0.08c-0.15,0.06-0.3,0.14-0.44,0.23l-0.09-0.17c0.29-0.21,0.64-0.33,1-0.34
	c0.51-0.04,0.96,0.34,1,0.85c0,0.05,0,0.1,0,0.15v1.27c0,0.08,0,0.12,0.11,0.12v0.22h-0.1c-0.06,0-0.11-0.02-0.15-0.06
	c-0.04-0.05-0.07-0.11-0.07-0.17V81.3c-0.12,0.16-0.28,0.28-0.46,0.36C126.91,81.78,126.68,81.84,126.45,81.86z M126.45,81.66
	c0.18,0,0.36-0.03,0.53-0.1c0.15-0.06,0.28-0.16,0.38-0.29c0.05-0.06,0.07-0.13,0.08-0.2v-0.46c-0.12-0.05-0.25-0.08-0.38-0.11
	c-0.13-0.01-0.27-0.01-0.4,0c-0.12-0.02-0.24-0.02-0.36,0c-0.1,0.03-0.19,0.07-0.27,0.12c-0.07,0.04-0.14,0.11-0.18,0.18
	c-0.04,0.07-0.06,0.16-0.06,0.24c-0.02,0.08-0.02,0.16,0,0.24c0.03,0.08,0.08,0.14,0.14,0.2c0.13,0.12,0.3,0.18,0.47,0.17
	L126.45,81.66z M129.57,81.86c-0.2,0-0.39-0.03-0.58-0.1c-0.18-0.06-0.34-0.16-0.48-0.29l0.13-0.17c0.25,0.24,0.59,0.36,0.93,0.36
	c0.19,0.01,0.38-0.04,0.54-0.14c0.14-0.08,0.22-0.23,0.21-0.39c0.02-0.07,0.02-0.14,0-0.21c-0.04-0.06-0.1-0.1-0.16-0.14l-0.26-0.1
	l-0.36-0.09l-0.38-0.1l-0.27-0.12c-0.06-0.04-0.11-0.1-0.15-0.17c-0.04-0.08-0.06-0.17-0.06-0.26c0-0.12,0.03-0.23,0.08-0.34
	c0.05-0.09,0.12-0.17,0.2-0.24c0.09-0.06,0.2-0.11,0.31-0.14c0.12-0.02,0.25-0.02,0.37,0c0.18,0,0.36,0.04,0.53,0.11
	c0.14,0.06,0.27,0.14,0.37,0.26l-0.14,0.13c-0.09-0.1-0.21-0.18-0.34-0.22c-0.14-0.05-0.29-0.08-0.44-0.08
	c-0.09-0.01-0.18-0.01-0.27,0c-0.08,0.02-0.15,0.05-0.22,0.1c-0.07,0.04-0.12,0.1-0.15,0.17c-0.04,0.07-0.06,0.16-0.06,0.24
	c-0.02,0.06-0.02,0.12,0,0.18c0.03,0.05,0.07,0.09,0.12,0.12c0.06,0.04,0.14,0.07,0.21,0.09l0.31,0.08l0.43,0.12
	c0.11,0.03,0.22,0.07,0.32,0.13c0.08,0.05,0.15,0.11,0.2,0.19c0.04,0.09,0.06,0.18,0.06,0.28c0.01,0.22-0.09,0.43-0.27,0.56
	C130.08,81.82,129.83,81.88,129.57,81.86z M3.33,91.81H3.08v-1.44c0.02-0.25-0.03-0.51-0.14-0.74c-0.1-0.15-0.27-0.24-0.45-0.23
	c-0.11,0-0.22,0.02-0.33,0.06c-0.11,0.04-0.21,0.1-0.3,0.17c-0.09,0.08-0.18,0.16-0.25,0.26c-0.07,0.1-0.12,0.2-0.15,0.32v1.6H1.21
	v-2.59h0.23v0.62c0.06-0.1,0.12-0.19,0.2-0.27c0.08-0.08,0.17-0.15,0.27-0.21c0.1-0.06,0.2-0.11,0.31-0.14
	c0.11-0.02,0.23-0.02,0.34,0c0.24-0.02,0.47,0.09,0.6,0.3c0.13,0.26,0.18,0.56,0.17,0.85V91.81z M5.42,91.86
	c-0.17,0-0.34-0.03-0.5-0.1c-0.15-0.07-0.29-0.17-0.41-0.29c-0.12-0.14-0.2-0.3-0.26-0.47c-0.12-0.32-0.12-0.68,0-1
	c0.07-0.16,0.16-0.3,0.27-0.43c0.11-0.12,0.25-0.22,0.4-0.29c0.16-0.07,0.33-0.11,0.5-0.11c0.17,0,0.34,0.04,0.5,0.11
	c0.15,0.07,0.29,0.17,0.4,0.29c0.12,0.12,0.21,0.27,0.27,0.43c0.12,0.32,0.12,0.68,0,1c-0.06,0.16-0.15,0.3-0.26,0.43
	c-0.12,0.12-0.26,0.22-0.41,0.29C5.77,91.8,5.59,91.85,5.42,91.86z M4.42,90.53c0,0.15,0.03,0.29,0.08,0.43
	c0.05,0.13,0.13,0.25,0.22,0.36c0.09,0.1,0.2,0.18,0.32,0.23c0.12,0.06,0.26,0.09,0.4,0.09c0.14,0,0.27-0.03,0.39-0.09
	c0.12-0.06,0.23-0.14,0.33-0.24c0.08-0.09,0.14-0.2,0.19-0.31c0.06-0.13,0.09-0.28,0.09-0.43c0-0.15-0.03-0.3-0.09-0.43
	c-0.05-0.13-0.12-0.25-0.21-0.36c-0.09-0.1-0.21-0.18-0.33-0.24c-0.25-0.12-0.53-0.12-0.78,0c-0.12,0.06-0.23,0.14-0.32,0.24
	c-0.1,0.11-0.17,0.23-0.22,0.37C4.44,90.27,4.4,90.4,4.4,90.53H4.42z M8.89,90.51C8.9,90.33,8.93,90.16,9,90
	c0.07-0.16,0.16-0.3,0.27-0.43c0.11-0.12,0.25-0.21,0.4-0.28c0.36-0.18,0.78-0.18,1.14,0c0.18,0.1,0.32,0.26,0.41,0.45l-0.25,0.08
	c-0.07-0.14-0.19-0.26-0.33-0.34c-0.14-0.08-0.3-0.12-0.46-0.12c-0.14,0-0.27,0.03-0.4,0.08c-0.12,0.06-0.23,0.14-0.32,0.24
	c-0.1,0.1-0.17,0.22-0.22,0.35c-0.05,0.14-0.08,0.29-0.08,0.44c0,0.15,0.03,0.3,0.08,0.44c0.05,0.13,0.13,0.25,0.22,0.36
	c0.09,0.1,0.2,0.18,0.33,0.24c0.12,0.06,0.25,0.09,0.39,0.09c0.09,0.01,0.18,0.01,0.27,0c0.08-0.03,0.16-0.06,0.24-0.1
	c0.07-0.05,0.14-0.1,0.2-0.16c0.05-0.05,0.08-0.11,0.11-0.18l0.25,0.07c-0.04,0.09-0.09,0.18-0.16,0.25
	c-0.07,0.08-0.15,0.15-0.24,0.2c-0.1,0.06-0.2,0.11-0.31,0.14c-0.12,0.02-0.23,0.02-0.35,0c-0.18,0-0.35-0.03-0.51-0.1
	c-0.15-0.07-0.29-0.17-0.4-0.3C9.16,91.3,9.06,91.16,9,91C8.93,90.85,8.89,90.68,8.89,90.51z M13.1,91.86c-0.17,0-0.34-0.03-0.5-0.1
	c-0.15-0.07-0.29-0.17-0.41-0.29c-0.11-0.13-0.2-0.27-0.26-0.43c-0.12-0.32-0.12-0.68,0-1c0.07-0.16,0.16-0.3,0.27-0.43
	c0.11-0.12,0.25-0.22,0.4-0.29c0.32-0.15,0.68-0.15,1,0c0.15,0.07,0.29,0.17,0.4,0.29c0.12,0.12,0.21,0.27,0.27,0.43
	c0.12,0.32,0.12,0.68,0,1c-0.06,0.16-0.15,0.31-0.27,0.43C13.77,91.72,13.44,91.87,13.1,91.86z M12.1,90.53
	c0,0.15,0.03,0.29,0.08,0.43c0.05,0.13,0.13,0.25,0.22,0.36c0.09,0.1,0.2,0.18,0.32,0.23c0.12,0.06,0.26,0.09,0.4,0.09
	c0.14,0,0.27-0.03,0.39-0.09c0.12-0.06,0.23-0.14,0.32-0.24c0.07-0.09,0.13-0.2,0.17-0.31c0.06-0.14,0.09-0.28,0.08-0.43
	c0.01-0.15-0.02-0.29-0.08-0.43c-0.05-0.13-0.12-0.26-0.22-0.36c-0.09-0.1-0.2-0.18-0.32-0.24c-0.25-0.12-0.53-0.12-0.78,0
	c-0.12,0.06-0.23,0.14-0.32,0.24c-0.1,0.11-0.17,0.23-0.22,0.37c-0.04,0.12-0.06,0.25-0.06,0.38H12.1z M17.34,91.81h-0.25v-1.44
	c0.02-0.25-0.03-0.51-0.14-0.74c-0.1-0.15-0.28-0.24-0.46-0.23c-0.11,0-0.22,0.02-0.32,0.06c-0.11,0.04-0.21,0.1-0.3,0.17
	c-0.1,0.07-0.18,0.16-0.25,0.26c-0.07,0.1-0.12,0.2-0.15,0.32v1.6h-0.25v-2.59h0.23v0.62c0.05-0.1,0.12-0.19,0.2-0.27
	c0.08-0.08,0.16-0.15,0.26-0.21c0.1-0.06,0.21-0.11,0.32-0.14c0.11-0.02,0.22-0.02,0.33,0c0.24-0.03,0.48,0.09,0.6,0.3
	c0.13,0.26,0.2,0.56,0.18,0.85L17.34,91.81z M19.41,91.86c-0.17,0.01-0.35-0.03-0.5-0.11c-0.15-0.07-0.29-0.17-0.4-0.3
	c-0.12-0.12-0.2-0.27-0.26-0.43c-0.06-0.16-0.09-0.33-0.09-0.5c0-0.17,0.03-0.35,0.09-0.51c0.06-0.16,0.14-0.3,0.25-0.43
	c0.11-0.12,0.24-0.22,0.38-0.3c0.15-0.07,0.31-0.11,0.47-0.11c0.11-0.02,0.21-0.02,0.32,0c0.1,0.03,0.19,0.08,0.28,0.14
	c0.09,0.05,0.17,0.12,0.24,0.19c0.07,0.07,0.13,0.15,0.18,0.23v-1.56h0.25v3.3c0,0.08,0,0.12,0.1,0.12v0.22h-0.09
	c-0.06,0-0.13-0.02-0.17-0.07c-0.04-0.05-0.07-0.11-0.07-0.17V91.3c-0.1,0.17-0.25,0.31-0.42,0.41
	C19.8,91.81,19.61,91.86,19.41,91.86z M19.41,91.64c0.1,0,0.2-0.02,0.29-0.06c0.11-0.03,0.2-0.08,0.29-0.15
	c0.09-0.06,0.16-0.14,0.23-0.22c0.06-0.08,0.1-0.17,0.11-0.27v-0.85c-0.04-0.1-0.09-0.19-0.16-0.27c-0.05-0.08-0.11-0.15-0.17-0.22
	c-0.09-0.06-0.18-0.11-0.28-0.15c-0.1-0.01-0.19-0.01-0.29,0c-0.14,0-0.28,0.03-0.41,0.1c-0.12,0.06-0.22,0.15-0.31,0.25
	c-0.09,0.11-0.16,0.23-0.2,0.36c-0.05,0.13-0.07,0.28-0.07,0.42c0,0.14,0.02,0.29,0.08,0.42c0.05,0.13,0.12,0.25,0.22,0.36
	c0.09,0.1,0.2,0.18,0.33,0.24c0.12,0.04,0.25,0.05,0.38,0.04H19.41z M22.75,91.86c-0.18,0-0.35-0.03-0.51-0.1
	c-0.15-0.07-0.29-0.17-0.4-0.29c-0.11-0.13-0.2-0.27-0.27-0.43c-0.06-0.17-0.09-0.34-0.09-0.52c0-0.18,0.03-0.36,0.1-0.52
	c0.06-0.16,0.15-0.3,0.26-0.43c0.12-0.12,0.26-0.22,0.41-0.29c0.16-0.07,0.33-0.11,0.5-0.11c0.17,0,0.34,0.04,0.5,0.11
	c0.15,0.07,0.28,0.17,0.4,0.29c0.11,0.13,0.2,0.27,0.27,0.43c0.11,0.32,0.11,0.68,0,1c-0.07,0.16-0.16,0.3-0.27,0.43
	c-0.11,0.12-0.25,0.22-0.4,0.29C23.1,91.8,22.92,91.85,22.75,91.86z M21.75,90.53c0,0.15,0.03,0.29,0.08,0.43
	c0.09,0.26,0.29,0.48,0.54,0.59c0.12,0.06,0.25,0.09,0.39,0.09c0.14,0,0.28-0.03,0.4-0.09c0.12-0.06,0.23-0.14,0.32-0.24
	c0.1-0.1,0.17-0.23,0.22-0.36c0.05-0.14,0.08-0.28,0.08-0.43c0-0.15-0.03-0.29-0.08-0.43c-0.05-0.13-0.12-0.26-0.22-0.36
	c-0.09-0.1-0.2-0.18-0.32-0.24c-0.12-0.06-0.25-0.09-0.39-0.09c-0.14,0-0.28,0.03-0.4,0.09c-0.12,0.06-0.23,0.14-0.32,0.24
	c-0.09,0.11-0.16,0.24-0.22,0.37c-0.06,0.14-0.09,0.28-0.1,0.43H21.75z M28.68,91.81h-0.25v-1.44c0.02-0.25-0.04-0.51-0.16-0.73
	c-0.1-0.16-0.27-0.25-0.46-0.24c-0.11,0-0.21,0.02-0.31,0.06c-0.09,0.04-0.18,0.1-0.26,0.17c-0.08,0.08-0.15,0.16-0.21,0.26
	c-0.06,0.1-0.11,0.21-0.14,0.32v1.6h-0.25v-1.44c0.02-0.25-0.03-0.51-0.15-0.73c-0.1-0.17-0.29-0.27-0.49-0.24
	c-0.21,0-0.41,0.08-0.56,0.23c-0.08,0.07-0.16,0.16-0.22,0.25c-0.06,0.1-0.11,0.22-0.14,0.33v1.6h-0.25v-2.59h0.24v0.62
	c0.09-0.2,0.24-0.37,0.42-0.49c0.17-0.12,0.37-0.18,0.57-0.18c0.2-0.01,0.39,0.06,0.53,0.2c0.14,0.14,0.23,0.32,0.25,0.51
	c0.16-0.41,0.56-0.69,1-0.71c0.24-0.02,0.47,0.1,0.6,0.31c0.14,0.26,0.2,0.55,0.19,0.84L28.68,91.81z M31.85,91.86
	c-0.12,0-0.23-0.02-0.34-0.06c-0.1-0.04-0.19-0.1-0.27-0.17c-0.08-0.07-0.14-0.15-0.18-0.25c-0.04-0.1-0.06-0.21-0.06-0.32
	c0-0.11,0.02-0.22,0.08-0.31c0.05-0.1,0.13-0.18,0.22-0.24c0.1-0.07,0.22-0.13,0.34-0.16c0.14-0.04,0.29-0.06,0.44-0.06
	c0.14-0.01,0.28-0.01,0.42,0c0.13,0.02,0.26,0.05,0.38,0.1v-0.25c0.01-0.22-0.06-0.43-0.21-0.59c-0.15-0.15-0.36-0.23-0.57-0.22
	c-0.14,0-0.27,0.03-0.4,0.08c-0.15,0.06-0.29,0.14-0.43,0.23l-0.09-0.17c0.27-0.2,0.6-0.32,0.94-0.34c0.27-0.01,0.54,0.09,0.74,0.28
	c0.19,0.2,0.29,0.47,0.27,0.75v1.27c0,0.08,0,0.12,0.11,0.12v0.22h-0.1c-0.06,0-0.12-0.02-0.16-0.06c-0.04-0.05-0.06-0.11-0.07-0.17
	v-0.21c-0.12,0.16-0.28,0.28-0.46,0.36C32.26,91.79,32.06,91.85,31.85,91.86z M31.85,91.66c0.18,0,0.36-0.03,0.53-0.1
	c0.15-0.06,0.27-0.16,0.37-0.29c0.05-0.06,0.07-0.13,0.08-0.2v-0.46c-0.12-0.05-0.24-0.08-0.37-0.11c-0.14-0.01-0.27-0.01-0.41,0
	c-0.12-0.02-0.23-0.02-0.35,0c-0.1,0.03-0.19,0.07-0.28,0.12c-0.07,0.05-0.13,0.11-0.17,0.18c-0.04,0.07-0.07,0.16-0.07,0.24
	c0,0.08,0.02,0.16,0.05,0.24c0.03,0.07,0.08,0.14,0.14,0.2c0.07,0.05,0.14,0.1,0.22,0.13c0.1,0.04,0.2,0.06,0.31,0.05H31.85z
	 M35.28,91.69h-0.07h-0.12h-0.16c-0.07,0.01-0.13,0.01-0.2,0c-0.06,0.01-0.13,0.01-0.19,0c-0.06-0.02-0.12-0.05-0.17-0.09
	c-0.04-0.04-0.08-0.09-0.11-0.14c-0.01-0.07-0.01-0.13,0-0.2v-2H33.9v-0.2h0.36v-0.89h0.25v0.89h0.61v0.2h-0.61v1.9
	c0,0.08,0.03,0.17,0.1,0.22c0.07,0.05,0.15,0.07,0.23,0.07c0.09,0.02,0.17,0.02,0.26,0l0.14-0.07L35.28,91.69z M38.14,91.86
	c-0.12,0-0.23-0.02-0.34-0.06c-0.1-0.04-0.19-0.1-0.27-0.17c-0.08-0.07-0.14-0.15-0.18-0.25c-0.05-0.1-0.07-0.21-0.07-0.32
	c0-0.11,0.03-0.21,0.08-0.31c0.06-0.09,0.13-0.17,0.22-0.24c0.11-0.07,0.23-0.13,0.35-0.16c0.14-0.04,0.29-0.06,0.44-0.06
	c0.14-0.01,0.28-0.01,0.42,0c0.13,0.02,0.26,0.05,0.38,0.1v-0.25c0.01-0.22-0.06-0.43-0.21-0.59c-0.15-0.15-0.36-0.23-0.57-0.22
	c-0.14,0-0.27,0.03-0.4,0.08c-0.15,0.06-0.3,0.14-0.43,0.23l-0.1-0.17c0.28-0.2,0.61-0.32,0.95-0.34c0.52-0.03,0.97,0.37,1,0.9
	c0,0.03,0,0.07,0,0.1v1.27c0,0.08,0,0.12,0.11,0.12v0.22h-0.1c-0.06,0-0.12-0.02-0.16-0.06c-0.04-0.05-0.06-0.11-0.07-0.17V91.3
	c-0.12,0.16-0.28,0.28-0.46,0.36C38.55,91.77,38.35,91.83,38.14,91.86z M38.14,91.66c0.18,0,0.36-0.03,0.53-0.1
	c0.14-0.07,0.27-0.17,0.37-0.29c0.05-0.06,0.07-0.13,0.08-0.2v-0.46c-0.12-0.05-0.25-0.08-0.38-0.11c-0.13-0.01-0.27-0.01-0.4,0
	c-0.12-0.02-0.23-0.02-0.35,0c-0.1,0.03-0.19,0.07-0.28,0.12c-0.07,0.05-0.13,0.11-0.18,0.18c-0.04,0.07-0.06,0.16-0.06,0.24
	c-0.01,0.08-0.01,0.16,0,0.24c0.03,0.08,0.08,0.14,0.14,0.2c0.06,0.05,0.13,0.1,0.21,0.13c0.12,0.05,0.24,0.06,0.37,0.05H38.14z
	 M40.45,88.17h0.25v3.13c0,0.08,0.03,0.17,0.08,0.23c0.06,0.06,0.15,0.09,0.23,0.08h0.13h0.14v0.2c-0.07,0.03-0.14,0.05-0.21,0.06
	c-0.07,0.01-0.14,0.01-0.21,0c-0.23,0.02-0.44-0.14-0.46-0.38c0-0.03,0-0.06,0-0.08L40.45,88.17z M42,88.17h0.25v3.13
	c0,0.09,0.03,0.17,0.09,0.23c0.06,0.06,0.14,0.09,0.22,0.08h0.13h0.15l0.05,0.2c-0.07,0.03-0.14,0.05-0.21,0.06
	c-0.07,0.01-0.15,0.01-0.22,0c-0.12,0.01-0.24-0.04-0.33-0.12c-0.09-0.09-0.14-0.21-0.13-0.34V88.17z M45.53,91.86
	c-0.12,0-0.23-0.02-0.34-0.06c-0.1-0.04-0.19-0.1-0.27-0.17c-0.08-0.07-0.14-0.15-0.18-0.25c-0.05-0.1-0.07-0.21-0.07-0.32
	c0-0.11,0.03-0.21,0.08-0.31c0.06-0.09,0.13-0.17,0.22-0.24c0.11-0.07,0.23-0.13,0.35-0.16c0.14-0.04,0.29-0.06,0.44-0.06
	c0.14-0.01,0.28-0.01,0.42,0c0.13,0.02,0.26,0.05,0.38,0.1v-0.25c0.01-0.22-0.06-0.43-0.21-0.59c-0.15-0.15-0.36-0.23-0.57-0.22
	c-0.14,0-0.27,0.03-0.4,0.08c-0.15,0.06-0.3,0.14-0.43,0.23l-0.1-0.17c0.28-0.2,0.61-0.32,0.95-0.34c0.52-0.03,0.97,0.37,1,0.9
	c0,0.03,0,0.07,0,0.1v1.27c0,0.08,0,0.12,0.11,0.12v0.22h-0.1c-0.06,0-0.12-0.02-0.16-0.06c-0.04-0.05-0.06-0.11-0.07-0.17V91.3
	c-0.12,0.16-0.28,0.28-0.46,0.36C45.94,91.77,45.74,91.83,45.53,91.86z M45.53,91.66c0.18,0,0.36-0.03,0.53-0.1
	c0.14-0.07,0.27-0.17,0.37-0.29c0.05-0.06,0.07-0.13,0.08-0.2v-0.46c-0.12-0.05-0.25-0.08-0.38-0.11c-0.13-0.01-0.27-0.01-0.4,0
	c-0.12-0.02-0.23-0.02-0.35,0c-0.1,0.03-0.19,0.07-0.28,0.12c-0.07,0.05-0.13,0.11-0.18,0.18c-0.04,0.07-0.06,0.16-0.06,0.24
	c0,0.08,0.02,0.16,0.05,0.24c0.03,0.07,0.08,0.14,0.14,0.2c0.06,0.05,0.13,0.1,0.21,0.13c0.1,0.04,0.21,0.06,0.32,0.05H45.53z
	 M49.94,91.81h-0.25v-1.44c0.02-0.25-0.03-0.51-0.14-0.74c-0.1-0.15-0.28-0.24-0.46-0.23c-0.11,0-0.22,0.02-0.32,0.06
	c-0.11,0.04-0.21,0.1-0.3,0.17c-0.1,0.07-0.18,0.16-0.25,0.26c-0.07,0.1-0.12,0.2-0.15,0.32v1.6h-0.25v-2.59h0.23v0.62
	c0.11-0.2,0.27-0.36,0.46-0.48c0.1-0.06,0.2-0.11,0.31-0.14c0.11-0.01,0.23-0.01,0.34,0c0.24-0.03,0.48,0.09,0.6,0.3
	c0.13,0.26,0.2,0.56,0.18,0.85V91.81z M52,91.86c-0.17,0.01-0.35-0.03-0.5-0.11c-0.15-0.07-0.29-0.17-0.4-0.3
	c-0.12-0.12-0.2-0.27-0.26-0.43c-0.06-0.16-0.09-0.33-0.09-0.5c0-0.17,0.03-0.35,0.09-0.51c0.06-0.16,0.14-0.3,0.25-0.43
	c0.11-0.12,0.24-0.22,0.38-0.3c0.15-0.07,0.31-0.11,0.47-0.11c0.11-0.02,0.21-0.02,0.32,0c0.1,0.03,0.19,0.08,0.28,0.14
	c0.09,0.05,0.17,0.12,0.24,0.19c0.07,0.07,0.13,0.15,0.18,0.23v-1.56h0.25v3.3c0,0.08,0,0.12,0.1,0.12v0.22h-0.09
	c-0.06,0-0.13-0.02-0.17-0.07c-0.05-0.04-0.07-0.11-0.07-0.17V91.3c-0.11,0.17-0.25,0.31-0.43,0.41
	C52.38,91.81,52.19,91.86,52,91.86z M52,91.64c0.1,0,0.2-0.02,0.29-0.06c0.11-0.03,0.2-0.08,0.29-0.15
	c0.09-0.06,0.16-0.14,0.23-0.22c0.06-0.08,0.1-0.17,0.11-0.27v-0.85c-0.04-0.1-0.09-0.19-0.16-0.27c-0.07-0.08-0.15-0.15-0.23-0.22
	c-0.09-0.06-0.18-0.11-0.28-0.15c-0.1-0.01-0.19-0.01-0.29,0c-0.14,0-0.28,0.03-0.41,0.1c-0.12,0.06-0.23,0.15-0.32,0.25
	c-0.08,0.11-0.15,0.23-0.2,0.36c-0.04,0.14-0.07,0.28-0.07,0.42c0,0.14,0.03,0.29,0.08,0.42c0.06,0.13,0.14,0.25,0.23,0.36
	c0.09,0.1,0.2,0.18,0.33,0.24c0.14,0.05,0.3,0.07,0.45,0.04H52z M57,91.69h-0.07h-0.12h-0.16c-0.07,0.01-0.13,0.01-0.2,0
	c-0.06,0.01-0.13,0.01-0.19,0c-0.06-0.02-0.12-0.05-0.17-0.09c-0.04-0.04-0.08-0.09-0.11-0.14c-0.01-0.07-0.01-0.13,0-0.2v-2h-0.37
	v-0.2h0.37v-0.89h0.24v0.89h0.61v0.2h-0.61v1.9c0,0.08,0.03,0.17,0.1,0.22c0.07,0.05,0.15,0.07,0.23,0.07
	c0.09,0.02,0.18,0.02,0.27,0l0.13-0.07L57,91.69z M59.76,91.81h-0.25v-1.44c0-0.64-0.22-1-0.65-1c-0.11,0-0.21,0.02-0.31,0.06
	c-0.1,0.04-0.2,0.1-0.28,0.17c-0.09,0.07-0.17,0.16-0.23,0.26c-0.07,0.1-0.12,0.2-0.15,0.32v1.6h-0.25v-3.61h0.25v1.67
	c0.1-0.2,0.25-0.37,0.44-0.49c0.18-0.12,0.39-0.18,0.6-0.18c0.13,0,0.25,0.02,0.37,0.08c0.1,0.05,0.19,0.13,0.26,0.23
	c0.07,0.11,0.13,0.24,0.15,0.37c0.02,0.16,0.02,0.31,0,0.47L59.76,91.81z M62,89.44c-0.22,0-0.44,0.07-0.61,0.21
	c-0.18,0.13-0.31,0.32-0.37,0.54v1.62h-0.25v-2.59H61v0.64c0.09-0.17,0.21-0.33,0.36-0.45c0.14-0.11,0.3-0.18,0.47-0.2H62V89.44z
	 M63.67,91.86c-0.18,0-0.35-0.03-0.51-0.1c-0.15-0.07-0.29-0.17-0.4-0.29c-0.12-0.14-0.2-0.3-0.26-0.47c-0.12-0.32-0.12-0.68,0-1
	c0.06-0.16,0.15-0.31,0.27-0.43c0.35-0.39,0.92-0.51,1.4-0.29c0.15,0.07,0.29,0.17,0.4,0.29c0.11,0.13,0.21,0.27,0.27,0.43
	c0.12,0.32,0.12,0.68,0,1c-0.06,0.16-0.16,0.3-0.27,0.43c-0.23,0.25-0.56,0.4-0.9,0.39V91.86z M62.67,90.53
	c0,0.15,0.03,0.29,0.08,0.43c0.05,0.13,0.12,0.26,0.22,0.36c0.09,0.1,0.2,0.18,0.32,0.23c0.12,0.06,0.25,0.09,0.39,0.09
	c0.14,0,0.28-0.03,0.4-0.09c0.12-0.06,0.23-0.14,0.32-0.24c0.09-0.09,0.15-0.2,0.2-0.31c0.06-0.14,0.09-0.28,0.08-0.43
	c0.01-0.15-0.02-0.29-0.08-0.43c-0.05-0.13-0.12-0.26-0.22-0.36c-0.09-0.1-0.2-0.18-0.32-0.24c-0.25-0.12-0.53-0.12-0.78,0
	c-0.13,0.06-0.24,0.14-0.33,0.24c-0.09,0.11-0.16,0.24-0.22,0.37c-0.05,0.12-0.07,0.25-0.08,0.38H62.67z M66.59,91.86
	c-0.55,0-0.83-0.38-0.83-1.14v-1.5H66v1.46c0,0.64,0.22,1,0.65,1c0.11,0,0.22-0.02,0.32-0.06c0.1-0.04,0.2-0.09,0.29-0.16
	c0.19-0.14,0.33-0.34,0.4-0.56v-1.68h0.25v2.25c0,0.08,0,0.12,0.11,0.12v0.22H68c-0.07,0-0.13-0.02-0.18-0.06
	c-0.05-0.04-0.07-0.11-0.07-0.17V91.2c-0.11,0.2-0.27,0.37-0.47,0.49C67.07,91.82,66.83,91.87,66.59,91.86z M70,91.85
	c-0.17,0.01-0.34-0.03-0.49-0.11c-0.15-0.07-0.28-0.17-0.39-0.3c-0.11-0.12-0.19-0.27-0.25-0.42c-0.07-0.16-0.1-0.33-0.1-0.5
	c0-0.17,0.03-0.35,0.09-0.51c0.06-0.16,0.14-0.3,0.25-0.43c0.11-0.12,0.24-0.23,0.38-0.3c0.15-0.07,0.32-0.11,0.49-0.11
	c0.21,0,0.42,0.06,0.59,0.18c0.17,0.12,0.31,0.26,0.43,0.43v-0.56h0.23v2.64c0.01,0.16-0.03,0.32-0.1,0.47
	c-0.07,0.13-0.16,0.24-0.27,0.33c-0.12,0.09-0.25,0.16-0.39,0.2c-0.15,0.04-0.3,0.07-0.46,0.07c-0.14,0-0.28-0.02-0.41-0.05
	c-0.11-0.02-0.21-0.06-0.31-0.11c-0.09-0.05-0.17-0.12-0.25-0.19c-0.07-0.08-0.13-0.16-0.19-0.25l0.17-0.12
	c0.1,0.17,0.24,0.3,0.42,0.39c0.18,0.08,0.37,0.12,0.57,0.12c0.12,0.02,0.25,0.02,0.37,0c0.11-0.03,0.22-0.09,0.31-0.16
	c0.09-0.07,0.16-0.17,0.21-0.27c0.05-0.12,0.08-0.25,0.08-0.38V91.3c-0.11,0.17-0.26,0.31-0.43,0.4C70.38,91.8,70.19,91.85,70,91.85
	z M70.06,91.64c0.11,0,0.22-0.02,0.32-0.06c0.1-0.04,0.2-0.09,0.29-0.16c0.08-0.07,0.15-0.15,0.21-0.23
	c0.05-0.08,0.08-0.16,0.1-0.25v-0.85c-0.04-0.1-0.09-0.19-0.16-0.28c-0.07-0.08-0.14-0.16-0.23-0.22c-0.08-0.06-0.17-0.11-0.27-0.14
	c-0.1-0.02-0.2-0.02-0.3,0c-0.15,0-0.29,0.03-0.42,0.1c-0.12,0.07-0.22,0.15-0.31,0.26c-0.08,0.11-0.15,0.23-0.2,0.36
	c-0.04,0.13-0.06,0.27-0.06,0.41c0,0.14,0.02,0.29,0.08,0.42c0.05,0.13,0.12,0.25,0.22,0.36c0.09,0.1,0.2,0.18,0.33,0.24
	c0.13,0.04,0.27,0.06,0.41,0.04H70.06z M74.39,91.81h-0.25v-1.44c0-0.64-0.22-1-0.65-1c-0.11,0-0.21,0.02-0.31,0.06
	c-0.1,0.04-0.2,0.1-0.28,0.17c-0.09,0.07-0.17,0.16-0.23,0.26c-0.07,0.1-0.12,0.2-0.15,0.32v1.6h-0.25v-3.61h0.25v1.67
	c0.1-0.2,0.25-0.37,0.44-0.49c0.18-0.12,0.39-0.18,0.6-0.18c0.13,0,0.25,0.02,0.37,0.08c0.1,0.05,0.19,0.13,0.26,0.23
	c0.07,0.11,0.13,0.24,0.15,0.37c0.02,0.16,0.02,0.31,0,0.47L74.39,91.81z M76.92,88.63v-0.46h0.25v0.46H76.92z M76.92,91.81v-2.59
	h0.25v2.59H76.92z M79.36,91.69h-0.07h-0.11h-0.17c-0.06,0.01-0.13,0.01-0.19,0c-0.07,0.01-0.13,0.01-0.2,0
	c-0.06-0.02-0.11-0.05-0.16-0.09c-0.05-0.04-0.08-0.09-0.11-0.14c-0.02-0.07-0.02-0.13,0-0.2v-2h-0.37v-0.2h0.37v-0.89h0.25v0.89
	h0.6v0.2h-0.6v1.9c-0.01,0.09,0.03,0.17,0.1,0.22c0.06,0.05,0.14,0.07,0.22,0.07c0.09,0.02,0.18,0.02,0.27,0l0.14-0.07L79.36,91.69z
	 M80.87,91.86c-0.19,0-0.39-0.03-0.57-0.1c-0.18-0.06-0.34-0.16-0.48-0.29L80,91.3c0.12,0.12,0.27,0.21,0.43,0.27
	c0.16,0.06,0.32,0.09,0.49,0.09c0.19,0.01,0.39-0.04,0.55-0.14c0.14-0.08,0.22-0.23,0.21-0.39c0.02-0.07,0.02-0.14,0-0.21
	c-0.04-0.06-0.1-0.1-0.16-0.14l-0.26-0.1l-0.36-0.09l-0.38-0.1l-0.27-0.12c-0.15-0.09-0.23-0.26-0.21-0.43
	C80,89.83,79.99,89.71,80,89.6c0.05-0.09,0.12-0.17,0.2-0.24c0.09-0.06,0.2-0.11,0.31-0.14c0.12-0.02,0.24-0.02,0.36,0
	c0.19,0,0.37,0.03,0.54,0.11c0.14,0.06,0.27,0.14,0.37,0.26l-0.14,0.13c-0.09-0.1-0.21-0.18-0.34-0.22
	c-0.14-0.05-0.29-0.08-0.44-0.08c-0.09-0.01-0.18-0.01-0.27,0c-0.08,0.02-0.15,0.05-0.22,0.1c-0.07,0.04-0.12,0.1-0.15,0.17
	c-0.04,0.07-0.06,0.16-0.06,0.24c-0.02,0.06-0.02,0.12,0,0.18c0.02,0.05,0.07,0.1,0.12,0.12c0.06,0.04,0.14,0.07,0.21,0.09
	l0.31,0.08l0.43,0.12c0.11,0.03,0.22,0.07,0.32,0.13c0.08,0.05,0.14,0.12,0.2,0.19c0.04,0.09,0.06,0.18,0.06,0.28
	c0.01,0.22-0.09,0.43-0.27,0.56C81.34,91.81,81.11,91.87,80.87,91.86z M86.35,91.81H86.1v-1.44c0-0.64-0.21-1-0.64-1
	c-0.11,0-0.21,0.02-0.31,0.06c-0.1,0.04-0.2,0.1-0.29,0.17c-0.09,0.08-0.16,0.16-0.23,0.26c-0.07,0.1-0.12,0.21-0.15,0.32v1.6h-0.25
	v-3.61h0.25v1.67c0.11-0.2,0.26-0.36,0.44-0.49c0.18-0.12,0.39-0.18,0.61-0.18c0.13,0,0.25,0.03,0.37,0.08
	c0.1,0.06,0.19,0.14,0.26,0.23c0.07,0.12,0.12,0.24,0.15,0.37c0.02,0.16,0.02,0.31,0,0.47L86.35,91.81z M87.36,88.63v-0.46h0.25
	v0.46H87.36z M87.36,91.81v-2.59h0.25v2.59H87.36z M89.69,91.85c-0.17,0.01-0.35-0.03-0.5-0.11c-0.15-0.07-0.28-0.17-0.38-0.3
	c-0.11-0.12-0.2-0.26-0.26-0.42c-0.06-0.16-0.09-0.33-0.09-0.5c0-0.17,0.03-0.35,0.09-0.51c0.05-0.16,0.14-0.3,0.24-0.43
	c0.11-0.12,0.24-0.22,0.39-0.3c0.15-0.07,0.32-0.11,0.49-0.11c0.21,0,0.42,0.06,0.59,0.18c0.17,0.11,0.31,0.26,0.42,0.43v-0.56h0.23
	v2.64c0.01,0.16-0.03,0.32-0.1,0.47c-0.06,0.13-0.15,0.24-0.26,0.33c-0.12,0.09-0.25,0.16-0.39,0.2c-0.15,0.04-0.31,0.07-0.47,0.07
	c-0.13,0-0.27-0.02-0.4-0.05c-0.11-0.02-0.22-0.06-0.32-0.11c-0.09-0.06-0.17-0.12-0.24-0.19c-0.07-0.07-0.14-0.16-0.19-0.25
	l0.17-0.12c0.09,0.17,0.24,0.31,0.42,0.39c0.18,0.08,0.37,0.12,0.56,0.12c0.13,0.02,0.25,0.02,0.38,0c0.11-0.03,0.22-0.09,0.31-0.16
	c0.09-0.07,0.16-0.17,0.21-0.27c0.05-0.12,0.07-0.25,0.07-0.38V91.3c-0.1,0.17-0.25,0.31-0.42,0.4
	C90.07,91.8,89.88,91.85,89.69,91.85z M89.75,91.64c0.11,0,0.22-0.02,0.32-0.06c0.1-0.04,0.19-0.1,0.28-0.16
	c0.08-0.06,0.15-0.14,0.21-0.23c0.05-0.07,0.09-0.16,0.1-0.25v-0.85c-0.04-0.1-0.09-0.19-0.16-0.28c-0.06-0.08-0.14-0.16-0.22-0.22
	c-0.09-0.06-0.18-0.1-0.28-0.14c-0.1-0.01-0.19-0.01-0.29,0c-0.15,0-0.29,0.03-0.42,0.1c-0.12,0.06-0.23,0.15-0.31,0.26
	c-0.09,0.11-0.15,0.23-0.2,0.36c-0.04,0.13-0.07,0.27-0.07,0.41c0,0.14,0.03,0.29,0.08,0.42c0.06,0.13,0.13,0.25,0.22,0.36
	c0.1,0.1,0.21,0.18,0.33,0.24C89.47,91.64,89.61,91.66,89.75,91.64z M94.06,91.81h-0.25v-1.44c0-0.64-0.21-1-0.64-1
	c-0.11,0-0.21,0.02-0.31,0.06c-0.1,0.04-0.2,0.1-0.29,0.17c-0.09,0.08-0.16,0.16-0.23,0.26c-0.07,0.1-0.12,0.2-0.15,0.32v1.6h-0.25
	v-3.61h0.25v1.67c0.1-0.2,0.25-0.37,0.44-0.49c0.18-0.12,0.39-0.18,0.61-0.18c0.13,0,0.25,0.03,0.37,0.08
	c0.1,0.06,0.19,0.14,0.26,0.23c0.07,0.12,0.12,0.24,0.15,0.37c0.02,0.16,0.02,0.31,0,0.47L94.06,91.81z M97.67,91.86
	c-0.17,0.01-0.35-0.03-0.5-0.11c-0.15-0.07-0.29-0.17-0.4-0.3c-0.12-0.12-0.2-0.27-0.26-0.43c-0.06-0.16-0.09-0.33-0.09-0.5
	c0-0.17,0.03-0.35,0.09-0.51c0.06-0.16,0.14-0.3,0.25-0.43c0.1-0.12,0.23-0.22,0.37-0.3c0.25-0.12,0.54-0.14,0.8-0.06
	c0.1,0.04,0.19,0.08,0.28,0.14c0.09,0.05,0.16,0.12,0.23,0.19c0.07,0.07,0.13,0.15,0.18,0.23v-1.61h0.25v3.3
	c0,0.08,0,0.12,0.11,0.12v0.22h-0.09c-0.06,0-0.13-0.02-0.17-0.07c-0.05-0.04-0.07-0.11-0.07-0.17V91.3
	c-0.11,0.17-0.25,0.31-0.43,0.41C98.05,91.81,97.86,91.86,97.67,91.86z M97.67,91.64c0.1,0,0.2-0.02,0.29-0.06
	c0.11-0.03,0.2-0.08,0.29-0.15c0.08-0.06,0.16-0.14,0.22-0.22c0.06-0.08,0.1-0.17,0.11-0.27v-0.85c-0.04-0.1-0.09-0.19-0.15-0.27
	c-0.14-0.16-0.32-0.29-0.52-0.37c-0.09-0.01-0.19-0.01-0.28,0c-0.14,0-0.28,0.03-0.41,0.1c-0.12,0.06-0.23,0.15-0.32,0.25
	c-0.09,0.11-0.15,0.23-0.2,0.36c-0.04,0.14-0.07,0.28-0.07,0.42c0,0.14,0.03,0.29,0.08,0.42c0.06,0.13,0.13,0.25,0.22,0.36
	c0.1,0.1,0.21,0.18,0.33,0.24c0.14,0.05,0.3,0.06,0.45,0.04H97.67z M101,91.86c-0.18,0-0.35-0.03-0.51-0.1
	c-0.16-0.07-0.3-0.17-0.41-0.3c-0.11-0.13-0.2-0.27-0.27-0.43c-0.06-0.17-0.09-0.34-0.09-0.52c0-0.18,0.03-0.35,0.09-0.52
	c0.07-0.15,0.16-0.3,0.27-0.42c0.11-0.12,0.25-0.22,0.4-0.29c0.16-0.07,0.33-0.11,0.5-0.11c0.18,0,0.35,0.04,0.51,0.11
	c0.15,0.07,0.29,0.17,0.41,0.29c0.12,0.12,0.2,0.27,0.26,0.43c0.06,0.16,0.1,0.34,0.1,0.51v0.06c0,0.02,0,0.03,0,0.05H100
	c0.01,0.14,0.04,0.28,0.1,0.41c0.06,0.12,0.14,0.24,0.23,0.34c0.09,0.09,0.19,0.16,0.31,0.21c0.12,0.06,0.26,0.08,0.39,0.08
	c0.09,0.01,0.17,0.01,0.26,0c0.09-0.02,0.17-0.06,0.24-0.11c0.08-0.04,0.14-0.09,0.2-0.15c0.06-0.06,0.11-0.13,0.14-0.2l0.22,0.06
	c-0.04,0.09-0.09,0.18-0.16,0.25c-0.07,0.08-0.16,0.15-0.25,0.2c-0.1,0.06-0.2,0.11-0.31,0.14C101.25,91.87,101.12,91.87,101,91.86z
	 M102,90.42c-0.01-0.15-0.05-0.29-0.11-0.42c-0.05-0.12-0.13-0.24-0.22-0.33c-0.09-0.09-0.2-0.16-0.32-0.21
	c-0.12-0.05-0.25-0.08-0.38-0.08c-0.13,0-0.27,0.03-0.39,0.08c-0.12,0.05-0.22,0.12-0.31,0.21c-0.09,0.09-0.17,0.21-0.22,0.33
	c-0.06,0.13-0.09,0.28-0.1,0.42H102z M105.19,91.81h-0.25v-1.44c0.02-0.25-0.03-0.51-0.14-0.74c-0.1-0.15-0.27-0.24-0.45-0.23
	c-0.11,0-0.22,0.02-0.33,0.06c-0.11,0.05-0.21,0.1-0.3,0.17c-0.09,0.08-0.17,0.16-0.24,0.26c-0.07,0.1-0.12,0.21-0.16,0.32v1.6
	h-0.25v-2.59h0.24v0.62c0.05-0.1,0.12-0.19,0.2-0.27c0.07-0.09,0.16-0.16,0.26-0.21c0.1-0.06,0.2-0.11,0.31-0.14
	c0.11-0.01,0.23-0.01,0.34,0c0.24-0.02,0.47,0.09,0.6,0.3c0.13,0.26,0.19,0.56,0.17,0.85L105.19,91.81z M107,91.86
	c-0.19,0-0.39-0.03-0.57-0.1c-0.18-0.06-0.35-0.16-0.48-0.29l0.12-0.17c0.13,0.12,0.28,0.21,0.44,0.27
	c0.16,0.06,0.32,0.09,0.49,0.09c0.19,0.01,0.39-0.04,0.55-0.14c0.13-0.08,0.21-0.23,0.2-0.39c0.02-0.07,0.02-0.14,0-0.21
	c-0.04-0.06-0.09-0.11-0.16-0.14c-0.08-0.04-0.16-0.07-0.25-0.1l-0.36-0.09l-0.39-0.1l-0.26-0.12c-0.15-0.09-0.23-0.26-0.21-0.43
	c0-0.12,0.02-0.23,0.07-0.34c0.05-0.09,0.12-0.18,0.21-0.24c0.09-0.06,0.19-0.11,0.3-0.14c0.12-0.02,0.25-0.02,0.37,0
	c0.19,0,0.37,0.04,0.54,0.11c0.14,0.05,0.27,0.14,0.36,0.26l-0.13,0.13c-0.09-0.1-0.21-0.18-0.34-0.22
	c-0.14-0.05-0.29-0.08-0.44-0.08c-0.09-0.01-0.19-0.01-0.28,0c-0.08,0.02-0.15,0.06-0.22,0.1c-0.06,0.04-0.11,0.1-0.15,0.17
	c-0.02,0.08-0.02,0.16,0,0.24c-0.01,0.06-0.01,0.12,0,0.18c0.03,0.05,0.07,0.09,0.12,0.12c0.07,0.04,0.14,0.07,0.22,0.09l0.31,0.08
	l0.43,0.12c0.11,0.03,0.22,0.07,0.32,0.13c0.08,0.05,0.14,0.11,0.19,0.19c0.05,0.08,0.08,0.18,0.07,0.28
	c0.01,0.22-0.09,0.43-0.27,0.56C107.56,91.83,107.28,91.9,107,91.86z M108.85,88.63v-0.46h0.25v0.46H108.85z M108.85,91.81v-2.59
	h0.25v2.59H108.85z M111.29,91.69h-0.07h-0.12h-0.16c-0.07,0.01-0.13,0.01-0.2,0c-0.06,0.01-0.13,0.01-0.19,0
	c-0.06-0.02-0.12-0.05-0.17-0.09c-0.04-0.04-0.08-0.09-0.11-0.14c-0.01-0.07-0.01-0.13,0-0.2v-2h-0.36v-0.2h0.36v-0.89h0.25v0.89
	h0.61v0.2h-0.61v1.9c0,0.08,0.03,0.17,0.1,0.22c0.07,0.05,0.15,0.07,0.23,0.07c0.09,0.02,0.18,0.02,0.27,0l0.13-0.07L111.29,91.69z
	 M112.15,92.69h0.17h0.08h0.06c0.02-0.04,0.04-0.08,0.06-0.12c0.05-0.08,0.09-0.16,0.12-0.25l0.19-0.45l-1.16-2.59h0.26l1,2.35
	l1-2.35h0.24l-1.42,3.41c-0.03,0.09-0.1,0.17-0.18,0.22c-0.1,0.06-0.21,0.08-0.33,0.08h-0.09V92.69z M117.12,91.86
	c-0.55,0-0.83-0.38-0.83-1.14v-1.5h0.25v1.46c0,0.67,0.22,1,0.66,1c0.11,0,0.22-0.02,0.32-0.06c0.1-0.04,0.19-0.09,0.28-0.16
	c0.19-0.14,0.33-0.34,0.4-0.56v-1.68h0.25v2.25c0,0.08,0,0.12,0.11,0.12v0.22h-0.08c-0.06,0-0.12-0.02-0.17-0.06
	c-0.05-0.04-0.09-0.1-0.08-0.17V91.2c-0.11,0.2-0.27,0.37-0.47,0.49C117.57,91.81,117.35,91.86,117.12,91.86z M120.72,89.44
	c-0.22,0.01-0.43,0.08-0.61,0.21c-0.18,0.13-0.3,0.32-0.36,0.54v1.62h-0.25v-2.59h0.24v0.64c0.08-0.17,0.2-0.33,0.35-0.45
	c0.14-0.11,0.31-0.18,0.48-0.2h0.15V89.44z M122.42,91.86c-0.18,0-0.35-0.03-0.51-0.1c-0.16-0.07-0.3-0.17-0.41-0.3
	c-0.11-0.13-0.2-0.27-0.27-0.43c-0.06-0.17-0.09-0.34-0.09-0.52c0-0.18,0.03-0.35,0.09-0.52c0.07-0.15,0.16-0.3,0.27-0.42
	c0.11-0.12,0.25-0.22,0.4-0.29c0.16-0.07,0.33-0.11,0.5-0.11c0.18,0,0.35,0.04,0.51,0.11c0.15,0.07,0.29,0.17,0.41,0.29
	c0.12,0.12,0.2,0.27,0.26,0.43c0.07,0.16,0.1,0.33,0.1,0.51v0.06c0.01,0.02,0.01,0.03,0,0.05h-2.28c0.01,0.14,0.04,0.28,0.1,0.41
	c0.06,0.12,0.14,0.24,0.23,0.34c0.09,0.09,0.2,0.16,0.32,0.21c0.12,0.06,0.25,0.08,0.38,0.08c0.09,0.01,0.17,0.01,0.26,0
	c0.09-0.03,0.17-0.06,0.25-0.11c0.07-0.04,0.14-0.09,0.2-0.15c0.05-0.06,0.1-0.13,0.13-0.2l0.22,0.06
	c-0.04,0.09-0.09,0.18-0.16,0.25c-0.07,0.08-0.15,0.15-0.25,0.2c-0.1,0.06-0.2,0.11-0.31,0.14
	C122.65,91.87,122.54,91.87,122.42,91.86z M123.42,90.42c-0.01-0.14-0.04-0.29-0.1-0.42c-0.06-0.12-0.13-0.23-0.23-0.33
	c-0.09-0.09-0.2-0.16-0.32-0.21c-0.24-0.11-0.52-0.11-0.76,0c-0.12,0.05-0.23,0.12-0.32,0.21c-0.09,0.09-0.17,0.21-0.22,0.33
	c-0.06,0.13-0.09,0.28-0.1,0.42H123.42z M125.61,91.69h-0.06h-0.12h-0.17c-0.06,0.01-0.13,0.01-0.19,0c-0.07,0.01-0.13,0.01-0.2,0
	c-0.06-0.02-0.11-0.05-0.16-0.09c-0.05-0.04-0.08-0.09-0.11-0.14c-0.02-0.07-0.02-0.13,0-0.2v-2h-0.36v-0.2h0.36v-0.89h0.25v0.89
	h0.6v0.2h-0.6v1.9c-0.01,0.09,0.03,0.17,0.1,0.22c0.06,0.05,0.14,0.07,0.22,0.07c0.09,0.02,0.18,0.02,0.27,0l0.14-0.07L125.61,91.69
	z M128.42,91.81h-0.25v-1.44c0-0.64-0.21-1-0.64-1c-0.11,0-0.21,0.02-0.31,0.06c-0.1,0.04-0.2,0.1-0.29,0.17
	c-0.08,0.08-0.16,0.17-0.23,0.26c-0.07,0.1-0.12,0.2-0.15,0.32v1.6h-0.25v-3.61h0.25v1.67c0.11-0.2,0.26-0.36,0.44-0.49
	c0.18-0.12,0.39-0.18,0.61-0.18c0.13,0,0.25,0.03,0.37,0.08c0.1,0.06,0.19,0.14,0.26,0.23c0.07,0.12,0.12,0.24,0.15,0.37
	c0.02,0.16,0.02,0.31,0,0.47L128.42,91.81z M130.06,91.86c-0.11,0-0.22-0.02-0.33-0.06c-0.1-0.04-0.19-0.1-0.27-0.17
	c-0.08-0.07-0.14-0.15-0.18-0.25c-0.05-0.1-0.07-0.21-0.07-0.32c0-0.11,0.03-0.21,0.08-0.31c0.06-0.09,0.13-0.18,0.22-0.24
	c0.1-0.07,0.22-0.13,0.34-0.16c0.14-0.04,0.29-0.06,0.44-0.06c0.14-0.01,0.29-0.01,0.43,0c0.13,0.02,0.26,0.05,0.38,0.1v-0.25
	c0.01-0.22-0.06-0.43-0.21-0.59c-0.15-0.15-0.36-0.23-0.57-0.22c-0.14,0-0.27,0.03-0.4,0.08c-0.15,0.06-0.3,0.14-0.43,0.23
	l-0.1-0.17c0.29-0.21,0.64-0.33,1-0.34c0.52-0.03,0.97,0.37,1,0.9c0,0.03,0,0.07,0,0.1v1.27c0,0.08,0,0.12,0.11,0.12v0.22h-0.1
	c-0.06,0-0.12-0.02-0.16-0.06c-0.04-0.05-0.07-0.11-0.07-0.17V91.3c-0.12,0.16-0.28,0.28-0.46,0.36
	C130.51,91.77,130.29,91.84,130.06,91.86z M130.11,91.66c0.18,0,0.37-0.03,0.54-0.1c0.14-0.07,0.27-0.17,0.37-0.29
	c0.05-0.06,0.07-0.13,0.08-0.2v-0.46c-0.12-0.05-0.25-0.08-0.38-0.11c-0.13-0.01-0.27-0.01-0.4,0c-0.12-0.02-0.23-0.02-0.35,0
	c-0.1,0.03-0.19,0.07-0.28,0.12c-0.07,0.05-0.13,0.11-0.18,0.18c-0.04,0.07-0.06,0.16-0.06,0.24c0,0.08,0.02,0.16,0.05,0.24
	c0.03,0.08,0.08,0.14,0.14,0.2c0.13,0.12,0.3,0.18,0.47,0.17V91.66z M134.48,91.81h-0.25v-1.44c0.02-0.26-0.03-0.51-0.15-0.74
	c-0.1-0.15-0.27-0.24-0.45-0.23c-0.11,0-0.22,0.02-0.32,0.06c-0.11,0.04-0.21,0.1-0.31,0.17c-0.09,0.08-0.17,0.16-0.24,0.26
	c-0.07,0.1-0.12,0.21-0.16,0.32v1.6h-0.25v-2.59h0.24v0.62c0.05-0.1,0.12-0.19,0.2-0.27c0.07-0.09,0.16-0.16,0.26-0.21
	c0.1-0.06,0.2-0.11,0.31-0.14c0.11-0.01,0.23-0.01,0.34,0c0.24-0.02,0.47,0.09,0.6,0.3c0.13,0.26,0.2,0.56,0.18,0.85L134.48,91.81z
	 M136.58,91.86c-0.18,0-0.35-0.03-0.51-0.1c-0.15-0.07-0.29-0.17-0.4-0.3c-0.12-0.12-0.21-0.27-0.27-0.43
	c-0.07-0.16-0.1-0.34-0.1-0.52c0-0.18,0.03-0.36,0.1-0.52c0.06-0.16,0.15-0.3,0.26-0.42c0.11-0.12,0.25-0.22,0.4-0.29
	c0.32-0.14,0.68-0.14,1,0c0.15,0.07,0.29,0.17,0.4,0.29c0.12,0.12,0.2,0.27,0.26,0.43c0.07,0.16,0.1,0.33,0.1,0.51v0.06
	c0.01,0.02,0.01,0.03,0,0.05h-2.27c0.01,0.14,0.04,0.28,0.1,0.41c0.06,0.12,0.14,0.24,0.23,0.34c0.09,0.09,0.2,0.16,0.32,0.21
	c0.12,0.06,0.25,0.08,0.38,0.08c0.09,0.01,0.18,0.01,0.27,0c0.08-0.03,0.16-0.07,0.24-0.11c0.07-0.04,0.14-0.09,0.2-0.15
	c0.06-0.06,0.1-0.13,0.14-0.2l0.21,0.06c-0.04,0.09-0.09,0.18-0.16,0.25c-0.07,0.08-0.15,0.15-0.25,0.2
	c-0.1,0.06-0.2,0.11-0.31,0.14C136.81,91.87,136.69,91.87,136.58,91.86z M137.58,90.42c0-0.15-0.04-0.29-0.1-0.42
	c-0.06-0.12-0.13-0.23-0.23-0.33c-0.09-0.09-0.19-0.16-0.31-0.21c-0.12-0.05-0.26-0.08-0.39-0.08c-0.26,0-0.51,0.11-0.7,0.29
	c-0.09,0.1-0.17,0.21-0.22,0.33c-0.05,0.13-0.09,0.28-0.1,0.42H137.58z M5,101.81H4.77v-1.44c0.02-0.25-0.03-0.5-0.15-0.73
	c-0.1-0.16-0.28-0.25-0.47-0.24c-0.1,0-0.2,0.02-0.3,0.06c-0.1,0.04-0.18,0.1-0.26,0.17c-0.08,0.08-0.15,0.16-0.21,0.26
	c-0.07,0.1-0.11,0.21-0.14,0.32v1.6H3v-1.44c0.02-0.25-0.03-0.51-0.15-0.73c-0.1-0.16-0.27-0.25-0.46-0.24
	c-0.1,0-0.21,0.02-0.3,0.06c-0.1,0.04-0.19,0.1-0.27,0.17c-0.08,0.07-0.15,0.16-0.21,0.25c-0.06,0.1-0.11,0.21-0.14,0.33v1.6H1.21
	v-2.59h0.23v0.62c0.1-0.19,0.24-0.36,0.42-0.49c0.17-0.12,0.37-0.18,0.58-0.18c0.2-0.01,0.39,0.06,0.53,0.2
	c0.14,0.14,0.23,0.32,0.25,0.51c0.16-0.41,0.56-0.69,1-0.71c0.25-0.02,0.48,0.1,0.61,0.31c0.13,0.26,0.2,0.55,0.18,0.84L5,101.81z
	 M7.11,101.86c-0.34,0.01-0.67-0.14-0.9-0.39c-0.12-0.12-0.21-0.27-0.27-0.43c-0.11-0.32-0.11-0.68,0-1
	c0.07-0.16,0.16-0.3,0.27-0.43c0.11-0.12,0.25-0.22,0.4-0.29c0.16-0.07,0.33-0.11,0.5-0.11c0.34,0,0.67,0.15,0.9,0.4
	c0.12,0.12,0.21,0.27,0.27,0.43c0.12,0.32,0.12,0.68,0,1c-0.06,0.16-0.15,0.3-0.26,0.43c-0.12,0.12-0.25,0.22-0.4,0.29
	C7.46,101.83,7.29,101.86,7.11,101.86z M6.11,100.53c-0.01,0.15,0.02,0.29,0.08,0.43c0.05,0.13,0.12,0.25,0.21,0.36
	c0.09,0.1,0.2,0.18,0.32,0.23c0.12,0.06,0.26,0.09,0.4,0.09c0.14,0,0.27-0.03,0.39-0.09c0.12-0.06,0.24-0.14,0.33-0.24
	c0.09-0.11,0.17-0.23,0.22-0.36c0.05-0.14,0.08-0.28,0.08-0.43c0-0.15-0.03-0.29-0.08-0.43c-0.05-0.13-0.13-0.25-0.22-0.36
	c-0.09-0.1-0.2-0.18-0.32-0.24c-0.12-0.06-0.26-0.09-0.4-0.09c-0.14,0-0.27,0.03-0.39,0.09c-0.12,0.06-0.23,0.14-0.32,0.24
	c-0.09,0.11-0.17,0.23-0.22,0.37c-0.06,0.13-0.09,0.28-0.09,0.43H6.11z M9.25,98.17H9.5v3.13c0,0.09,0.03,0.17,0.09,0.23
	c0.06,0.06,0.14,0.09,0.22,0.08H10h0.14l0.05,0.2c-0.07,0.03-0.14,0.05-0.21,0.06c-0.07,0.01-0.15,0.01-0.22,0
	c-0.12,0.01-0.24-0.04-0.33-0.12c-0.09-0.09-0.14-0.21-0.13-0.34L9.25,98.17z M11.87,101.86c-0.18,0-0.35-0.03-0.51-0.1
	c-0.15-0.07-0.29-0.17-0.4-0.3c-0.12-0.12-0.21-0.27-0.27-0.43c-0.07-0.16-0.1-0.34-0.1-0.52c0-0.18,0.03-0.36,0.1-0.52
	c0.06-0.16,0.15-0.3,0.27-0.42c0.11-0.13,0.25-0.23,0.4-0.29c0.16-0.07,0.33-0.11,0.5-0.11c0.18,0,0.35,0.04,0.51,0.11
	c0.15,0.07,0.29,0.17,0.4,0.29c0.1,0.13,0.18,0.27,0.23,0.43c0.06,0.16,0.09,0.34,0.09,0.51v0.11h-2.24
	c0.03,0.14,0.08,0.26,0.15,0.38c0.06,0.12,0.13,0.24,0.22,0.34c0.09,0.09,0.2,0.16,0.32,0.21c0.12,0.06,0.25,0.08,0.38,0.08
	c0.09,0.01,0.18,0.01,0.27,0c0.08-0.03,0.17-0.06,0.24-0.11c0.07-0.04,0.14-0.09,0.2-0.15c0.06-0.06,0.1-0.13,0.14-0.2l0.22,0.06
	c-0.04,0.09-0.1,0.18-0.17,0.25c-0.07,0.08-0.15,0.15-0.24,0.2c-0.1,0.06-0.21,0.11-0.32,0.14C12.13,101.85,12,101.87,11.87,101.86z
	 M12.87,100.42c0-0.15-0.04-0.29-0.1-0.42c-0.05-0.12-0.13-0.24-0.23-0.33c-0.09-0.09-0.19-0.16-0.31-0.21
	c-0.12-0.05-0.26-0.08-0.39-0.08c-0.26,0-0.51,0.11-0.7,0.29c-0.09,0.1-0.17,0.21-0.22,0.33c-0.05,0.13-0.08,0.28-0.09,0.42H12.87z
	 M13.75,100.51c0-0.18,0.03-0.35,0.09-0.52c0.07-0.16,0.16-0.3,0.27-0.43c0.11-0.12,0.25-0.21,0.4-0.28c0.36-0.18,0.78-0.18,1.14,0
	c0.18,0.1,0.32,0.26,0.41,0.45l-0.25,0.08c-0.07-0.14-0.19-0.26-0.33-0.34c-0.15-0.07-0.32-0.09-0.48-0.07
	c-0.14,0-0.27,0.03-0.4,0.08c-0.12,0.06-0.23,0.14-0.32,0.24c-0.09,0.1-0.17,0.22-0.22,0.35c-0.05,0.14-0.08,0.29-0.08,0.44
	c0,0.15,0.03,0.3,0.08,0.44c0.05,0.13,0.13,0.25,0.22,0.36c0.09,0.1,0.2,0.18,0.33,0.24c0.12,0.06,0.25,0.09,0.39,0.09
	c0.09,0.01,0.18,0.01,0.27,0c0.08-0.03,0.16-0.06,0.24-0.1c0.07-0.05,0.14-0.1,0.2-0.16c0.05-0.05,0.08-0.11,0.11-0.18l0.25,0.07
	c-0.04,0.09-0.09,0.18-0.16,0.25c-0.07,0.08-0.15,0.15-0.24,0.2c-0.09,0.06-0.2,0.11-0.31,0.14c-0.12,0.02-0.23,0.02-0.35,0
	c-0.18,0-0.35-0.03-0.51-0.1c-0.15-0.07-0.29-0.17-0.4-0.3c-0.12-0.12-0.21-0.27-0.27-0.43C13.77,100.86,13.74,100.69,13.75,100.51z
	 M17.7,101.86c-0.55,0-0.83-0.38-0.83-1.14v-1.5h0.25v1.46c0,0.67,0.22,1,0.66,1c0.11,0,0.22-0.02,0.32-0.06
	c0.1-0.04,0.2-0.09,0.29-0.16c0.09-0.07,0.16-0.15,0.23-0.24c0.07-0.1,0.13-0.21,0.17-0.32v-1.68H19v2.25c0,0.08,0,0.12,0.11,0.12
	v0.22h-0.08c-0.06,0-0.12-0.02-0.17-0.06c-0.05-0.04-0.08-0.1-0.08-0.17v-0.39c-0.11,0.2-0.27,0.37-0.47,0.49
	C18.13,101.79,17.92,101.86,17.7,101.86z M20.1,98.17h0.25v3.13c0,0.08,0.03,0.17,0.08,0.23c0.06,0.06,0.15,0.09,0.23,0.08h0.13
	h0.15v0.2c-0.07,0.03-0.14,0.05-0.21,0.06c-0.07,0.01-0.15,0.01-0.22,0c-0.12,0.01-0.24-0.04-0.33-0.12
	c-0.09-0.09-0.14-0.21-0.13-0.34L20.1,98.17z M22.72,101.86c-0.18,0-0.35-0.03-0.51-0.1c-0.15-0.07-0.29-0.17-0.4-0.3
	c-0.12-0.12-0.21-0.27-0.27-0.43c-0.07-0.16-0.1-0.34-0.1-0.52c0-0.18,0.03-0.36,0.1-0.52c0.06-0.16,0.15-0.3,0.26-0.42
	c0.24-0.25,0.57-0.39,0.91-0.4c0.18,0,0.35,0.04,0.51,0.11c0.15,0.07,0.29,0.17,0.4,0.29c0.12,0.12,0.2,0.27,0.26,0.43
	c0.07,0.16,0.1,0.33,0.1,0.51v0.06c0.01,0.02,0.01,0.03,0,0.05H21.7c0.01,0.14,0.04,0.28,0.1,0.41c0.06,0.12,0.14,0.24,0.23,0.34
	c0.09,0.09,0.2,0.16,0.32,0.21c0.12,0.06,0.25,0.08,0.38,0.08c0.09,0.01,0.18,0.01,0.27,0c0.08-0.03,0.16-0.07,0.24-0.11
	c0.07-0.04,0.14-0.09,0.2-0.15c0.06-0.06,0.1-0.13,0.14-0.2l0.21,0.06c-0.04,0.09-0.09,0.18-0.16,0.25
	c-0.07,0.08-0.15,0.15-0.25,0.2c-0.1,0.06-0.2,0.11-0.31,0.14C22.95,101.87,22.84,101.87,22.72,101.86z M23.72,100.42
	c0-0.15-0.04-0.29-0.1-0.42c-0.06-0.12-0.13-0.23-0.23-0.33c-0.09-0.09-0.19-0.16-0.31-0.21c-0.12-0.05-0.26-0.08-0.39-0.08
	c-0.26,0-0.51,0.11-0.7,0.29c-0.09,0.1-0.17,0.21-0.22,0.33c-0.05,0.13-0.09,0.28-0.1,0.42H23.72z M25.6,101.86
	c-0.19,0-0.39-0.03-0.57-0.1c-0.18-0.06-0.35-0.16-0.48-0.29l0.12-0.17c0.13,0.12,0.28,0.21,0.44,0.27
	c0.16,0.06,0.32,0.09,0.49,0.09c0.19,0.01,0.39-0.04,0.55-0.14c0.13-0.08,0.21-0.23,0.2-0.39c0.01-0.07-0.01-0.15-0.05-0.21
	c-0.04-0.06-0.09-0.1-0.15-0.14l-0.26-0.1l-0.36-0.09l-0.39-0.1l-0.26-0.12c-0.15-0.09-0.23-0.26-0.21-0.43
	c0-0.12,0.02-0.23,0.07-0.34c0.05-0.09,0.12-0.18,0.21-0.24c0.09-0.06,0.19-0.11,0.3-0.14c0.12-0.02,0.25-0.02,0.37,0
	c0.19,0,0.37,0.04,0.54,0.11c0.14,0.05,0.27,0.14,0.36,0.26l-0.14,0.13c-0.09-0.1-0.2-0.18-0.33-0.22
	c-0.14-0.05-0.29-0.08-0.44-0.08c-0.09-0.01-0.19-0.01-0.28,0c-0.08,0.02-0.15,0.06-0.22,0.1c-0.06,0.04-0.11,0.1-0.15,0.17
	c-0.03,0.08-0.05,0.16-0.05,0.24c-0.01,0.06-0.01,0.12,0,0.18c0.03,0.05,0.07,0.09,0.12,0.12c0.07,0.04,0.14,0.07,0.22,0.09
	l0.31,0.08l0.43,0.12c0.11,0.03,0.22,0.07,0.32,0.13c0.08,0.05,0.14,0.11,0.19,0.19c0.05,0.08,0.08,0.18,0.07,0.28
	c0.01,0.22-0.09,0.43-0.27,0.56C26.09,101.81,25.85,101.88,25.6,101.86z M27.52,102.22l0.08-0.4h-0.09v-0.43h0.25v0.43l-0.1,0.4
	H27.52z M31.55,101.69h-0.06h-0.12h-0.16c-0.13,0.03-0.27,0.03-0.4,0c-0.06-0.02-0.11-0.05-0.16-0.09
	c-0.05-0.04-0.08-0.09-0.11-0.14c-0.02-0.07-0.02-0.13,0-0.2v-2h-0.36v-0.2h0.36v-0.89h0.25v0.89h0.6v0.2h-0.6v1.9
	c-0.01,0.09,0.03,0.17,0.1,0.22c0.07,0.05,0.15,0.07,0.23,0.07c0.09,0.02,0.17,0.02,0.26,0l0.14-0.07L31.55,101.69z M34.36,101.81
	h-0.25v-1.44c0-0.64-0.21-1-0.64-1c-0.11,0-0.21,0.02-0.31,0.06c-0.1,0.04-0.2,0.1-0.29,0.17c-0.08,0.08-0.16,0.17-0.23,0.26
	c-0.06,0.1-0.11,0.21-0.15,0.32v1.6h-0.25v-3.61h0.25v1.67c0.11-0.2,0.26-0.36,0.44-0.49c0.18-0.12,0.39-0.18,0.61-0.18
	c0.13,0,0.25,0.03,0.37,0.08c0.1,0.06,0.19,0.14,0.26,0.23c0.07,0.12,0.12,0.24,0.15,0.37c0.02,0.16,0.02,0.31,0,0.47L34.36,101.81z
	 M36.47,101.86c-0.18,0-0.35-0.03-0.51-0.1c-0.16-0.07-0.3-0.17-0.41-0.3c-0.11-0.13-0.2-0.27-0.27-0.43
	c-0.06-0.17-0.09-0.34-0.09-0.52c0-0.18,0.03-0.35,0.09-0.52c0.07-0.15,0.16-0.3,0.27-0.42c0.11-0.12,0.25-0.22,0.4-0.29
	c0.16-0.07,0.33-0.11,0.5-0.11c0.18,0,0.35,0.04,0.51,0.11c0.15,0.07,0.29,0.17,0.41,0.29c0.12,0.12,0.2,0.27,0.26,0.43
	c0.06,0.16,0.1,0.34,0.1,0.51v0.06c0,0.02,0,0.03,0,0.05h-2.28c0.01,0.14,0.04,0.28,0.1,0.41c0.06,0.12,0.14,0.24,0.23,0.34
	c0.09,0.09,0.2,0.16,0.31,0.21c0.12,0.06,0.26,0.08,0.39,0.08c0.09,0.01,0.17,0.01,0.26,0c0.09-0.03,0.17-0.06,0.25-0.11
	c0.07-0.04,0.14-0.09,0.2-0.15c0.05-0.06,0.1-0.13,0.13-0.2l0.22,0.06c-0.04,0.09-0.09,0.18-0.16,0.25
	c-0.07,0.08-0.15,0.15-0.25,0.2c-0.1,0.06-0.2,0.11-0.31,0.14C36.7,101.87,36.59,101.87,36.47,101.86z M37.47,100.42
	c-0.01-0.15-0.05-0.29-0.11-0.42c-0.05-0.12-0.13-0.24-0.22-0.33c-0.09-0.09-0.2-0.16-0.32-0.21c-0.12-0.05-0.25-0.08-0.38-0.08
	c-0.13,0-0.27,0.03-0.39,0.08c-0.11,0.05-0.22,0.12-0.31,0.21c-0.09,0.09-0.17,0.21-0.22,0.33c-0.06,0.13-0.09,0.28-0.1,0.42H37.47z
	 M39.75,99.44c-0.22,0.01-0.43,0.08-0.61,0.21c-0.18,0.14-0.31,0.33-0.37,0.54v1.62h-0.25v-2.59h0.24v0.64
	c0.09-0.17,0.21-0.33,0.36-0.45c0.14-0.11,0.31-0.18,0.48-0.2h0.15L39.75,99.44z M41.45,101.86c-0.18,0-0.35-0.03-0.51-0.1
	c-0.16-0.07-0.3-0.17-0.41-0.3c-0.11-0.13-0.2-0.27-0.27-0.43c-0.06-0.17-0.09-0.34-0.09-0.52c0-0.18,0.03-0.35,0.09-0.52
	c0.07-0.15,0.16-0.3,0.27-0.42c0.11-0.12,0.25-0.22,0.4-0.29c0.16-0.07,0.33-0.11,0.5-0.11c0.18,0,0.35,0.04,0.51,0.11
	c0.15,0.07,0.29,0.17,0.41,0.29c0.12,0.12,0.2,0.27,0.26,0.43c0.06,0.16,0.1,0.34,0.1,0.51v0.06c0,0.02,0,0.03,0,0.05h-2.28
	c0.01,0.14,0.04,0.28,0.1,0.41c0.06,0.12,0.14,0.24,0.23,0.34c0.09,0.09,0.2,0.16,0.31,0.21c0.12,0.06,0.26,0.08,0.39,0.08
	c0.09,0.01,0.17,0.01,0.26,0c0.09-0.03,0.17-0.06,0.25-0.11c0.07-0.04,0.14-0.09,0.2-0.15c0.05-0.06,0.1-0.13,0.13-0.2l0.22,0.06
	c-0.04,0.09-0.09,0.18-0.16,0.25c-0.07,0.08-0.15,0.15-0.25,0.2c-0.1,0.06-0.2,0.11-0.31,0.14
	C41.68,101.87,41.57,101.87,41.45,101.86z M42.45,100.42c-0.01-0.15-0.05-0.29-0.11-0.42c-0.05-0.12-0.13-0.24-0.22-0.33
	c-0.09-0.09-0.2-0.16-0.32-0.21c-0.12-0.05-0.25-0.08-0.38-0.08c-0.13,0-0.27,0.03-0.39,0.08c-0.11,0.05-0.22,0.12-0.31,0.21
	c-0.09,0.09-0.17,0.21-0.22,0.33c-0.06,0.13-0.09,0.28-0.1,0.42H42.45z M45.68,101.86c-0.12,0-0.23-0.02-0.34-0.06
	c-0.1-0.04-0.19-0.1-0.27-0.17c-0.08-0.07-0.14-0.15-0.18-0.25c-0.05-0.1-0.07-0.21-0.07-0.32c0-0.11,0.03-0.21,0.08-0.31
	c0.06-0.09,0.13-0.17,0.22-0.24c0.11-0.07,0.23-0.13,0.35-0.16c0.14-0.04,0.29-0.06,0.44-0.06c0.14-0.01,0.28-0.01,0.42,0
	c0.13,0.02,0.26,0.05,0.38,0.1v-0.25c0.01-0.22-0.06-0.43-0.21-0.59c-0.15-0.15-0.36-0.23-0.57-0.22c-0.14,0-0.27,0.03-0.4,0.08
	c-0.15,0.06-0.3,0.14-0.43,0.23L45,99.47c0.29-0.21,0.64-0.33,1-0.34c0.52-0.03,0.97,0.37,1,0.9c0,0.03,0,0.07,0,0.1v1.27
	c0,0.08,0,0.12,0.11,0.12v0.22H47c-0.06,0-0.12-0.02-0.16-0.06c-0.04-0.05-0.06-0.11-0.07-0.17v-0.21
	c-0.12,0.16-0.28,0.28-0.46,0.36C46.12,101.77,45.9,101.84,45.68,101.86z M45.68,101.66c0.18,0,0.36-0.03,0.53-0.1
	c0.14-0.07,0.27-0.17,0.37-0.29c0.05-0.06,0.07-0.13,0.08-0.2v-0.46c-0.12-0.05-0.25-0.08-0.38-0.11c-0.13-0.01-0.27-0.01-0.4,0
	c-0.12-0.02-0.23-0.02-0.35,0c-0.1,0.03-0.19,0.07-0.28,0.12c-0.07,0.05-0.13,0.11-0.18,0.18c-0.04,0.07-0.06,0.16-0.06,0.24
	c-0.01,0.08-0.01,0.16,0,0.24c0.03,0.07,0.08,0.14,0.14,0.2c0.06,0.05,0.13,0.1,0.21,0.13c0.12,0.05,0.24,0.06,0.37,0.05H45.68z
	 M49.19,99.44c-0.22,0.01-0.43,0.08-0.61,0.21c-0.18,0.13-0.3,0.32-0.36,0.54v1.62H48v-2.59h0.24v0.64c0.08-0.17,0.2-0.33,0.35-0.45
	c0.14-0.11,0.31-0.18,0.48-0.2h0.15L49.19,99.44z M50.89,101.86c-0.18,0-0.35-0.03-0.51-0.1c-0.16-0.07-0.3-0.17-0.41-0.3
	c-0.11-0.13-0.2-0.27-0.26-0.43c-0.07-0.16-0.1-0.34-0.1-0.52c0-0.18,0.03-0.36,0.1-0.52c0.06-0.16,0.15-0.3,0.26-0.42
	c0.11-0.12,0.25-0.22,0.4-0.29c0.16-0.07,0.33-0.11,0.51-0.11c0.17,0,0.34,0.04,0.5,0.11c0.15,0.07,0.29,0.17,0.41,0.29
	c0.12,0.12,0.2,0.27,0.26,0.43c0.07,0.16,0.1,0.33,0.1,0.51v0.06c0.01,0.02,0.01,0.03,0,0.05h-2.28c0.01,0.14,0.04,0.28,0.1,0.41
	c0.06,0.12,0.14,0.24,0.23,0.34c0.09,0.09,0.2,0.16,0.32,0.21c0.12,0.06,0.25,0.08,0.38,0.08c0.09,0.01,0.17,0.01,0.26,0
	c0.09-0.03,0.17-0.06,0.25-0.11c0.07-0.04,0.14-0.09,0.2-0.15c0.05-0.06,0.1-0.13,0.13-0.2l0.22,0.06
	c-0.04,0.09-0.09,0.18-0.16,0.25c-0.07,0.08-0.15,0.15-0.25,0.2c-0.1,0.06-0.2,0.11-0.31,0.14
	C51.12,101.87,51.01,101.87,50.89,101.86z M51.89,100.42c-0.01-0.14-0.04-0.29-0.1-0.42c-0.06-0.12-0.13-0.23-0.23-0.33
	c-0.09-0.09-0.2-0.16-0.32-0.21c-0.24-0.11-0.52-0.11-0.76,0c-0.12,0.05-0.23,0.12-0.32,0.21c-0.07,0.1-0.13,0.21-0.16,0.33
	c-0.06,0.13-0.09,0.28-0.1,0.42H51.89z M55.3,101.86c-0.19,0-0.39-0.03-0.57-0.1c-0.18-0.06-0.35-0.16-0.48-0.29l0.12-0.17
	c0.13,0.12,0.28,0.21,0.44,0.27c0.16,0.06,0.32,0.09,0.49,0.09c0.19,0.01,0.39-0.04,0.55-0.14c0.13-0.08,0.21-0.23,0.2-0.39
	c0.02-0.07,0.02-0.14,0-0.21c-0.04-0.06-0.09-0.11-0.15-0.14l-0.26-0.1l-0.36-0.09l-0.39-0.1l-0.26-0.12
	c-0.15-0.09-0.23-0.26-0.21-0.43c0-0.12,0.02-0.23,0.07-0.34c0.05-0.09,0.12-0.18,0.21-0.24c0.09-0.06,0.19-0.11,0.3-0.14
	c0.12-0.02,0.25-0.02,0.37,0c0.19,0,0.37,0.04,0.54,0.11c0.14,0.05,0.27,0.14,0.36,0.26l-0.14,0.13c-0.09-0.1-0.2-0.18-0.33-0.22
	c-0.14-0.05-0.29-0.08-0.44-0.08c-0.09-0.01-0.19-0.01-0.28,0c-0.08,0.02-0.15,0.06-0.22,0.1c-0.06,0.04-0.11,0.1-0.15,0.17
	c-0.02,0.08-0.02,0.16,0,0.24c-0.02,0.06-0.02,0.12,0,0.18c0.02,0.05,0.07,0.1,0.12,0.12c0.06,0.04,0.14,0.07,0.21,0.09l0.31,0.08
	l0.43,0.12c0.11,0.03,0.22,0.07,0.32,0.13c0.08,0.05,0.14,0.11,0.19,0.19c0.05,0.08,0.08,0.18,0.07,0.28
	c0.01,0.22-0.09,0.43-0.27,0.56C55.86,101.83,55.58,101.9,55.3,101.86z M60.94,101.81h-0.25v-1.44c0.02-0.25-0.03-0.5-0.15-0.73
	c-0.1-0.16-0.28-0.25-0.47-0.24c-0.1,0-0.21,0.02-0.3,0.06c-0.1,0.04-0.19,0.1-0.27,0.17c-0.08,0.07-0.15,0.16-0.2,0.26
	c-0.07,0.1-0.11,0.21-0.14,0.32v1.6h-0.25v-1.44c0.02-0.25-0.03-0.51-0.15-0.73c-0.1-0.16-0.28-0.25-0.47-0.24
	c-0.1,0-0.2,0.02-0.3,0.06c-0.1,0.04-0.18,0.1-0.26,0.17c-0.08,0.07-0.15,0.16-0.21,0.25c-0.06,0.1-0.11,0.21-0.14,0.33v1.6h-0.25
	v-2.59h0.23v0.62c0.1-0.19,0.24-0.36,0.42-0.49c0.17-0.12,0.37-0.18,0.57-0.18c0.41-0.02,0.76,0.3,0.78,0.71
	c0.17-0.41,0.56-0.69,1-0.71c0.24-0.02,0.48,0.1,0.61,0.31c0.13,0.26,0.2,0.55,0.18,0.84L60.94,101.81z M63,101.86
	c-0.18,0-0.35-0.03-0.51-0.1c-0.15-0.07-0.28-0.17-0.4-0.29c-0.11-0.13-0.2-0.27-0.26-0.43c-0.07-0.16-0.1-0.34-0.1-0.52
	c0-0.18,0.04-0.35,0.1-0.52c0.06-0.16,0.16-0.3,0.27-0.43c0.35-0.39,0.92-0.51,1.4-0.29c0.15,0.07,0.29,0.17,0.4,0.29
	c0.12,0.12,0.21,0.27,0.27,0.43c0.12,0.32,0.12,0.68,0,1c-0.06,0.16-0.15,0.31-0.27,0.43c-0.23,0.25-0.56,0.4-0.9,0.39L63,101.86z
	 M62,100.53c0,0.15,0.03,0.29,0.08,0.43c0.05,0.13,0.13,0.25,0.22,0.36c0.09,0.1,0.2,0.18,0.32,0.23c0.12,0.06,0.26,0.09,0.4,0.09
	c0.14,0,0.27-0.03,0.39-0.09c0.12-0.06,0.23-0.14,0.32-0.24c0.11-0.08,0.2-0.19,0.27-0.31c0.06-0.14,0.09-0.28,0.08-0.43
	c0.01-0.15-0.02-0.29-0.08-0.43c-0.05-0.13-0.12-0.26-0.22-0.36c-0.09-0.1-0.2-0.18-0.32-0.24c-0.25-0.12-0.53-0.12-0.78,0
	c-0.12,0.06-0.24,0.14-0.33,0.24c-0.09,0.11-0.16,0.24-0.21,0.37C62.07,100.27,62.02,100.4,62,100.53z M66.23,101.86
	c-0.34,0.01-0.67-0.14-0.9-0.39c-0.12-0.12-0.21-0.27-0.27-0.43c-0.11-0.32-0.11-0.68,0-1c0.07-0.16,0.16-0.3,0.27-0.43
	c0.11-0.12,0.25-0.22,0.4-0.29c0.16-0.07,0.33-0.11,0.5-0.11c0.17,0,0.34,0.04,0.5,0.11c0.15,0.07,0.29,0.17,0.41,0.29
	c0.11,0.13,0.2,0.27,0.26,0.43c0.12,0.32,0.12,0.68,0,1c-0.06,0.16-0.15,0.3-0.26,0.43c-0.12,0.12-0.25,0.22-0.4,0.29
	C66.58,101.83,66.41,101.86,66.23,101.86z M65.23,100.53c-0.01,0.15,0.02,0.29,0.08,0.43c0.05,0.13,0.12,0.25,0.21,0.36
	c0.09,0.1,0.2,0.18,0.32,0.23c0.12,0.06,0.26,0.09,0.4,0.09c0.14,0,0.27-0.03,0.39-0.09c0.12-0.06,0.24-0.14,0.33-0.24
	c0.09-0.11,0.17-0.23,0.22-0.36c0.05-0.14,0.08-0.28,0.08-0.43c0-0.15-0.03-0.29-0.08-0.43c-0.05-0.13-0.13-0.25-0.22-0.36
	c-0.09-0.1-0.2-0.18-0.32-0.24c-0.12-0.06-0.26-0.09-0.4-0.09c-0.14,0-0.27,0.03-0.39,0.09c-0.12,0.06-0.23,0.14-0.32,0.24
	c-0.09,0.11-0.17,0.23-0.22,0.37c-0.06,0.13-0.09,0.28-0.09,0.43H65.23z M69.47,101.69H69.4h-0.11h-0.17
	c-0.06,0.01-0.13,0.01-0.19,0c-0.07,0.01-0.13,0.01-0.2,0c-0.06-0.02-0.11-0.05-0.16-0.09c-0.05-0.04-0.08-0.09-0.11-0.14
	c-0.02-0.07-0.02-0.13,0-0.2v-2H68.1v-0.2h0.36v-0.89h0.25v0.89h0.6v0.2h-0.6v1.9c-0.01,0.09,0.03,0.17,0.1,0.22
	c0.06,0.05,0.14,0.07,0.22,0.07c0.09,0.02,0.18,0.02,0.27,0l0.14-0.07L69.47,101.69z M72.28,101.81H72v-1.44c0-0.64-0.21-1-0.64-1
	c-0.11,0-0.21,0.02-0.31,0.06c-0.1,0.04-0.2,0.1-0.29,0.17c-0.09,0.08-0.16,0.16-0.23,0.26c-0.07,0.1-0.12,0.2-0.15,0.32v1.6h-0.25
	v-3.61h0.25v1.67c0.1-0.2,0.25-0.37,0.44-0.49c0.18-0.12,0.39-0.18,0.61-0.18c0.13,0,0.25,0.03,0.37,0.08
	c0.1,0.05,0.19,0.13,0.25,0.23c0.07,0.11,0.13,0.24,0.15,0.37c0.02,0.16,0.02,0.31,0,0.47L72.28,101.81z M74.39,101.86
	c-0.18,0-0.35-0.03-0.51-0.1c-0.16-0.07-0.3-0.17-0.41-0.3c-0.11-0.13-0.2-0.27-0.27-0.43c-0.06-0.17-0.1-0.34-0.1-0.52
	c0-0.18,0.04-0.35,0.1-0.52c0.07-0.15,0.16-0.3,0.27-0.42c0.11-0.12,0.25-0.22,0.4-0.29c0.16-0.07,0.33-0.11,0.5-0.11
	c0.18,0,0.35,0.04,0.51,0.11c0.15,0.07,0.29,0.17,0.41,0.29c0.12,0.12,0.2,0.27,0.26,0.43c0.06,0.16,0.1,0.34,0.1,0.51v0.06
	c0,0.02,0,0.03,0,0.05h-2.29c0.01,0.14,0.05,0.28,0.11,0.41c0.06,0.13,0.13,0.24,0.23,0.34c0.09,0.09,0.19,0.16,0.31,0.21
	c0.12,0.06,0.26,0.08,0.39,0.08c0.09,0.01,0.17,0.01,0.26,0c0.09-0.02,0.17-0.06,0.24-0.11c0.08-0.04,0.14-0.09,0.2-0.15
	c0.06-0.06,0.11-0.13,0.14-0.2l0.22,0.06c-0.08,0.19-0.23,0.35-0.41,0.45c-0.1,0.06-0.2,0.11-0.31,0.14
	C74.62,101.87,74.51,101.87,74.39,101.86z M75.39,100.42c-0.01-0.15-0.05-0.29-0.11-0.42c-0.05-0.12-0.13-0.24-0.22-0.33
	c-0.19-0.18-0.44-0.29-0.7-0.29c-0.13,0-0.27,0.03-0.39,0.08c-0.12,0.05-0.22,0.12-0.31,0.21c-0.09,0.09-0.17,0.21-0.22,0.33
	c-0.06,0.13-0.09,0.28-0.1,0.42H75.39z M77.67,99.44c-0.22,0.01-0.43,0.08-0.61,0.21c-0.18,0.14-0.31,0.33-0.37,0.54v1.62h-0.25
	v-2.59h0.24v0.64c0.09-0.17,0.21-0.33,0.36-0.45c0.14-0.11,0.31-0.18,0.48-0.2h0.15V99.44z M80.44,101.86
	c-0.11,0-0.22-0.02-0.33-0.06c-0.1-0.04-0.19-0.1-0.27-0.17c-0.08-0.07-0.14-0.15-0.18-0.25c-0.05-0.1-0.07-0.21-0.07-0.32
	c0-0.11,0.03-0.21,0.08-0.31c0.06-0.09,0.13-0.17,0.22-0.24c0.11-0.07,0.23-0.13,0.35-0.16c0.14-0.04,0.28-0.06,0.43-0.06
	c0.14-0.01,0.29-0.01,0.43,0c0.13,0.02,0.26,0.05,0.38,0.1v-0.25c0.01-0.22-0.06-0.43-0.21-0.59c-0.15-0.15-0.36-0.23-0.57-0.22
	c-0.14,0-0.27,0.03-0.4,0.08c-0.15,0.06-0.3,0.14-0.43,0.23l-0.1-0.17c0.29-0.21,0.64-0.33,1-0.34c0.52-0.03,0.97,0.37,1,0.9
	c0,0.03,0,0.07,0,0.1v1.27c0,0.08,0,0.12,0.11,0.12v0.22h-0.1c-0.06,0-0.12-0.02-0.16-0.06c-0.04-0.05-0.06-0.11-0.07-0.17v-0.21
	c-0.12,0.16-0.28,0.28-0.46,0.36C80.89,101.77,80.67,101.84,80.44,101.86z M80.44,101.66c0.18,0,0.37-0.03,0.54-0.1
	c0.14-0.07,0.27-0.17,0.37-0.29c0.05-0.06,0.07-0.13,0.08-0.2v-0.46c-0.12-0.05-0.25-0.08-0.38-0.11c-0.13-0.01-0.27-0.01-0.4,0
	c-0.12-0.02-0.23-0.02-0.35,0c-0.1,0.03-0.19,0.07-0.28,0.12c-0.07,0.05-0.13,0.11-0.18,0.18c-0.04,0.07-0.06,0.16-0.06,0.24
	c-0.01,0.08-0.01,0.16,0,0.24c0.03,0.08,0.08,0.14,0.14,0.2c0.13,0.12,0.3,0.18,0.47,0.17L80.44,101.66z M84.86,101.81h-0.25v-1.44
	c0.02-0.26-0.03-0.51-0.15-0.74c-0.1-0.16-0.28-0.25-0.46-0.23c-0.11,0-0.22,0.02-0.32,0.06c-0.11,0.04-0.21,0.1-0.31,0.17
	c-0.09,0.08-0.17,0.16-0.24,0.26c-0.07,0.1-0.12,0.21-0.16,0.32v1.6h-0.24v-2.59H83v0.62c0.11-0.2,0.27-0.36,0.46-0.48
	c0.1-0.06,0.2-0.11,0.31-0.14c0.11-0.01,0.23-0.01,0.34,0c0.24-0.02,0.47,0.09,0.6,0.3c0.13,0.26,0.2,0.56,0.18,0.85L84.86,101.81z
	 M86.93,101.86c-0.17,0.01-0.35-0.03-0.5-0.11c-0.15-0.07-0.29-0.17-0.4-0.3c-0.12-0.12-0.2-0.27-0.26-0.43
	c-0.06-0.16-0.09-0.33-0.09-0.5c0-0.17,0.03-0.35,0.09-0.51c0.06-0.16,0.14-0.3,0.25-0.43c0.11-0.12,0.24-0.22,0.38-0.3
	c0.15-0.07,0.31-0.11,0.47-0.11c0.11-0.02,0.21-0.02,0.32,0c0.1,0.04,0.19,0.08,0.28,0.14c0.09,0.05,0.17,0.12,0.24,0.19
	c0.07,0.07,0.13,0.15,0.18,0.23v-1.56h0.24v3.3c0,0.08,0,0.12,0.11,0.12v0.22h-0.09c-0.06,0-0.13-0.02-0.17-0.07
	c-0.05-0.04-0.07-0.11-0.07-0.17v-0.28c-0.11,0.17-0.25,0.31-0.43,0.41C87.31,101.8,87.12,101.86,86.93,101.86z M86.93,101.64
	c0.1,0,0.2-0.02,0.29-0.06c0.11-0.03,0.2-0.08,0.29-0.15c0.09-0.06,0.16-0.13,0.22-0.22c0.07-0.07,0.11-0.17,0.12-0.27v-0.85
	c-0.04-0.1-0.09-0.19-0.16-0.27c-0.07-0.08-0.15-0.15-0.23-0.22c-0.09-0.06-0.18-0.11-0.28-0.15c-0.1-0.01-0.19-0.01-0.29,0
	c-0.14,0-0.28,0.03-0.41,0.1c-0.12,0.06-0.23,0.15-0.32,0.25c-0.08,0.11-0.15,0.23-0.2,0.36c-0.04,0.14-0.07,0.28-0.07,0.42
	c0.01,0.15,0.05,0.29,0.11,0.42c0.06,0.13,0.14,0.25,0.23,0.36c0.09,0.1,0.2,0.18,0.32,0.24c0.14,0.05,0.3,0.06,0.45,0.04H86.93z
	 M92.83,101.81h-0.25v-1.44c0.02-0.25-0.03-0.51-0.14-0.74c-0.1-0.15-0.26-0.23-0.44-0.23c-0.11,0-0.22,0.02-0.33,0.06
	c-0.11,0.04-0.21,0.1-0.3,0.17c-0.09,0.08-0.18,0.16-0.25,0.26c-0.07,0.1-0.12,0.2-0.15,0.32v1.6h-0.25v-2.59h0.23v0.62
	c0.06-0.1,0.12-0.19,0.2-0.27c0.16-0.16,0.36-0.28,0.58-0.35c0.11-0.02,0.23-0.02,0.34,0c0.24-0.02,0.47,0.09,0.6,0.3
	c0.13,0.26,0.18,0.56,0.17,0.85L92.83,101.81z M94.47,101.86c-0.11,0-0.22-0.02-0.33-0.06c-0.1-0.04-0.19-0.09-0.27-0.17
	c-0.08-0.07-0.14-0.15-0.19-0.25c-0.04-0.1-0.06-0.21-0.06-0.32c0-0.11,0.03-0.21,0.08-0.31c0.06-0.09,0.13-0.18,0.22-0.24
	c0.1-0.07,0.22-0.13,0.34-0.16c0.14-0.04,0.29-0.06,0.44-0.06c0.14-0.01,0.28-0.01,0.42,0c0.13,0.02,0.26,0.05,0.39,0.1v-0.25
	c0.01-0.22-0.06-0.43-0.21-0.59c-0.15-0.15-0.36-0.23-0.57-0.22c-0.14,0-0.28,0.03-0.41,0.08c-0.15,0.06-0.29,0.14-0.43,0.23
	l-0.09-0.17c0.29-0.21,0.64-0.33,1-0.34c0.27-0.01,0.53,0.09,0.73,0.28c0.19,0.2,0.29,0.47,0.27,0.75v1.27c0,0.08,0,0.12,0.11,0.12
	v0.22h-0.1c-0.06,0-0.12-0.02-0.16-0.06c-0.04-0.05-0.06-0.11-0.07-0.17v-0.21c-0.11,0.16-0.27,0.28-0.45,0.36
	C94.93,101.8,94.7,101.85,94.47,101.86z M94.47,101.66c0.18,0,0.36-0.03,0.53-0.1c0.15-0.06,0.28-0.16,0.38-0.29
	c0.05-0.06,0.07-0.13,0.08-0.2v-0.46c-0.12-0.05-0.25-0.08-0.38-0.11c-0.13-0.01-0.27-0.01-0.4,0c-0.12-0.02-0.24-0.02-0.36,0
	c-0.1,0.03-0.19,0.07-0.27,0.12c-0.07,0.04-0.14,0.11-0.18,0.18c-0.04,0.07-0.06,0.16-0.06,0.24c-0.02,0.08-0.02,0.16,0,0.24
	c0.03,0.08,0.08,0.14,0.14,0.2c0.13,0.12,0.3,0.18,0.47,0.17L94.47,101.66z M97.9,101.69h-0.07h-0.12h-0.16
	c-0.06,0.01-0.13,0.01-0.19,0c-0.07,0.01-0.13,0.01-0.2,0c-0.06-0.02-0.11-0.05-0.16-0.09c-0.05-0.03-0.09-0.08-0.11-0.14
	c-0.02-0.07-0.02-0.13,0-0.2v-2h-0.37v-0.2h0.37v-0.89h0.25v0.89h0.6v0.2h-0.6v1.9c-0.01,0.09,0.03,0.17,0.1,0.22
	c0.06,0.05,0.14,0.07,0.22,0.07c0.09,0.02,0.18,0.02,0.27,0l0.14-0.07L97.9,101.69z M99.39,101.86c-0.55,0-0.83-0.38-0.83-1.14v-1.5
	h0.25v1.46c0,0.67,0.22,1,0.66,1c0.11,0,0.22-0.02,0.32-0.06c0.1-0.04,0.2-0.09,0.29-0.16c0.09-0.07,0.16-0.15,0.23-0.24
	c0.07-0.1,0.13-0.21,0.17-0.32v-1.68h0.24v2.25c0,0.08,0,0.12,0.11,0.12v0.22h-0.08c-0.06,0-0.12-0.02-0.17-0.06
	c-0.05-0.04-0.08-0.1-0.08-0.17v-0.39c-0.11,0.2-0.27,0.37-0.47,0.49C99.84,101.8,99.62,101.86,99.39,101.86z M103,99.44
	c-0.22,0.01-0.43,0.08-0.61,0.21c-0.18,0.13-0.3,0.32-0.36,0.54v1.62h-0.25v-2.59H102v0.64c0.09-0.17,0.2-0.33,0.35-0.45
	c0.14-0.11,0.31-0.18,0.48-0.2H103V99.44z M104.32,101.86c-0.11,0-0.22-0.02-0.33-0.06c-0.1-0.04-0.19-0.09-0.27-0.17
	c-0.08-0.07-0.14-0.15-0.19-0.25c-0.04-0.1-0.06-0.21-0.06-0.32c0-0.11,0.03-0.21,0.08-0.31c0.06-0.09,0.13-0.18,0.22-0.24
	c0.1-0.07,0.22-0.13,0.34-0.16c0.14-0.04,0.29-0.06,0.44-0.06c0.14-0.01,0.28-0.01,0.42,0c0.13,0.02,0.26,0.05,0.38,0.1v-0.25
	c0.01-0.22-0.06-0.43-0.2-0.59c-0.15-0.15-0.36-0.23-0.57-0.22c-0.14,0-0.27,0.03-0.4,0.08c-0.15,0.06-0.3,0.14-0.44,0.23
	l-0.09-0.17c0.28-0.2,0.61-0.32,0.95-0.34c0.51-0.04,0.96,0.34,1,0.85c0,0.05,0,0.1,0,0.15v1.27c0,0.08,0,0.12,0.11,0.12v0.22h-0.1
	c-0.06,0-0.12-0.02-0.16-0.06c-0.04-0.05-0.06-0.11-0.06-0.17v-0.21c-0.12,0.16-0.28,0.28-0.46,0.36
	C104.74,101.77,104.54,101.84,104.32,101.86z M104.37,101.66c0.18,0,0.36-0.03,0.53-0.1c0.15-0.06,0.27-0.16,0.37-0.29
	c0.05-0.05,0.08-0.13,0.08-0.2v-0.46c-0.12-0.05-0.24-0.08-0.37-0.11c-0.13-0.01-0.27-0.01-0.4,0c-0.12-0.02-0.24-0.02-0.36,0
	c-0.1,0.03-0.19,0.07-0.27,0.12c-0.07,0.04-0.14,0.11-0.18,0.18c-0.04,0.07-0.06,0.16-0.06,0.24c0,0.08,0.02,0.16,0.05,0.24
	c0.03,0.08,0.08,0.14,0.14,0.2c0.13,0.12,0.3,0.18,0.47,0.17L104.37,101.66z M106.63,98.17h0.26v3.13
	c-0.01,0.08,0.02,0.17,0.08,0.23c0.06,0.06,0.15,0.09,0.23,0.08h0.13h0.14v0.2c-0.07,0.03-0.14,0.05-0.21,0.06
	c-0.07,0.01-0.14,0.01-0.21,0c-0.12,0.01-0.25-0.04-0.34-0.12c-0.09-0.09-0.14-0.21-0.13-0.34L106.63,98.17z M109.65,101.81v-2.39
	h-0.37v-0.2h0.37v-0.09c-0.02-0.26,0.05-0.52,0.19-0.74c0.12-0.18,0.33-0.28,0.54-0.27c0.1-0.02,0.19-0.02,0.29,0
	c0.08,0.03,0.16,0.07,0.23,0.12l-0.09,0.18c-0.05-0.04-0.11-0.07-0.17-0.09c-0.07-0.02-0.15-0.02-0.22,0c-0.16,0-0.3,0.07-0.39,0.2
	c-0.1,0.18-0.14,0.38-0.13,0.59v0.09h0.73v0.2h-0.73v2.39L109.65,101.81z M112.34,101.86c-0.18,0-0.35-0.03-0.51-0.1
	c-0.15-0.07-0.29-0.17-0.4-0.3c-0.12-0.12-0.21-0.27-0.27-0.43c-0.07-0.16-0.1-0.34-0.1-0.52c0-0.18,0.03-0.36,0.1-0.52
	c0.06-0.16,0.15-0.3,0.26-0.42c0.11-0.12,0.25-0.22,0.4-0.29c0.16-0.07,0.33-0.11,0.51-0.11c0.17,0,0.34,0.04,0.5,0.11
	c0.16,0.07,0.29,0.17,0.41,0.29c0.12,0.12,0.2,0.27,0.26,0.43c0.07,0.16,0.1,0.33,0.1,0.51v0.06c0.01,0.02,0.01,0.03,0,0.05h-2.27
	c0.01,0.14,0.04,0.28,0.1,0.41c0.06,0.12,0.14,0.24,0.23,0.34c0.09,0.09,0.2,0.16,0.32,0.21c0.12,0.06,0.25,0.08,0.38,0.08
	c0.09,0.01,0.18,0.01,0.27,0c0.08-0.03,0.16-0.07,0.24-0.11c0.07-0.04,0.14-0.09,0.2-0.15c0.05-0.06,0.1-0.13,0.13-0.2l0.22,0.06
	c-0.04,0.09-0.09,0.18-0.16,0.25c-0.07,0.08-0.15,0.15-0.25,0.2c-0.1,0.06-0.2,0.11-0.31,0.14
	C112.58,101.87,112.46,101.87,112.34,101.86z M113.34,100.42c-0.01-0.14-0.04-0.29-0.1-0.42c-0.06-0.12-0.13-0.23-0.23-0.33
	c-0.09-0.09-0.2-0.16-0.31-0.21c-0.12-0.05-0.26-0.08-0.39-0.08c-0.13,0-0.26,0.03-0.38,0.08c-0.12,0.05-0.23,0.12-0.32,0.21
	c-0.09,0.1-0.17,0.21-0.22,0.33c-0.06,0.13-0.09,0.28-0.1,0.42H113.34z M115.5,101.86c-0.18,0-0.35-0.03-0.51-0.1
	c-0.16-0.07-0.3-0.17-0.41-0.3c-0.11-0.13-0.2-0.27-0.27-0.43c-0.06-0.17-0.09-0.34-0.09-0.52c0-0.18,0.03-0.35,0.09-0.52
	c0.07-0.15,0.16-0.3,0.27-0.42c0.11-0.12,0.25-0.22,0.4-0.29c0.16-0.07,0.33-0.11,0.5-0.11c0.18,0,0.35,0.04,0.51,0.11
	c0.15,0.07,0.29,0.17,0.41,0.29c0.12,0.12,0.2,0.27,0.26,0.43c0.07,0.16,0.1,0.33,0.1,0.51v0.06c0.01,0.02,0.01,0.03,0,0.05h-2.27
	c0.01,0.14,0.04,0.28,0.1,0.41c0.06,0.12,0.14,0.24,0.23,0.34c0.09,0.09,0.2,0.16,0.32,0.21c0.12,0.06,0.25,0.09,0.38,0.08
	c0.09,0.01,0.17,0.01,0.26,0c0.09-0.03,0.17-0.06,0.25-0.11c0.07-0.04,0.14-0.09,0.2-0.15c0.05-0.06,0.1-0.13,0.13-0.2l0.22,0.06
	c-0.04,0.09-0.09,0.18-0.16,0.25c-0.07,0.08-0.15,0.15-0.25,0.2c-0.1,0.06-0.2,0.11-0.31,0.14
	C115.74,101.87,115.62,101.87,115.5,101.86z M116.5,100.42c-0.01-0.14-0.04-0.29-0.1-0.42c-0.06-0.12-0.13-0.23-0.23-0.33
	c-0.09-0.09-0.2-0.16-0.32-0.21c-0.12-0.05-0.25-0.08-0.38-0.08c-0.13,0-0.27,0.03-0.39,0.08c-0.11,0.05-0.22,0.12-0.31,0.21
	c-0.09,0.09-0.17,0.21-0.22,0.33c-0.06,0.13-0.09,0.28-0.1,0.42H116.5z M117.58,98.17h0.25v3.13c0,0.08,0.03,0.17,0.08,0.23
	c0.06,0.06,0.15,0.09,0.23,0.08h0.13h0.14v0.2c-0.07,0.03-0.14,0.05-0.21,0.06c-0.07,0.01-0.14,0.01-0.21,0
	c-0.23,0.02-0.44-0.14-0.46-0.38c0-0.03,0-0.06,0-0.08L117.58,98.17z M119.1,98.63v-0.46h0.25v0.46H119.1z M119.1,101.81v-2.59h0.25
	v2.59H119.1z M122.5,101.81h-0.25v-1.44c0.02-0.25-0.03-0.51-0.14-0.74c-0.1-0.15-0.27-0.24-0.45-0.23c-0.11,0-0.22,0.02-0.33,0.06
	c-0.11,0.04-0.21,0.1-0.3,0.17c-0.09,0.08-0.18,0.16-0.25,0.26c-0.07,0.1-0.12,0.2-0.15,0.32v1.6h-0.25v-2.59h0.23v0.62
	c0.06-0.1,0.12-0.19,0.2-0.27c0.16-0.16,0.36-0.28,0.58-0.35c0.11-0.02,0.23-0.02,0.34,0c0.24-0.02,0.47,0.09,0.6,0.3
	c0.13,0.26,0.18,0.56,0.17,0.85L122.5,101.81z M124.55,101.85c-0.17,0.01-0.34-0.03-0.49-0.11c-0.15-0.07-0.28-0.17-0.39-0.3
	c-0.11-0.12-0.19-0.27-0.25-0.42c-0.07-0.16-0.1-0.33-0.1-0.5c0-0.17,0.03-0.35,0.09-0.51c0.06-0.16,0.14-0.3,0.25-0.43
	c0.11-0.12,0.24-0.23,0.38-0.3c0.15-0.07,0.32-0.11,0.49-0.11c0.21,0,0.42,0.06,0.59,0.18c0.17,0.12,0.31,0.26,0.43,0.43v-0.56h0.23
	v2.64c0.01,0.16-0.03,0.32-0.1,0.47c-0.07,0.13-0.16,0.24-0.27,0.33c-0.12,0.09-0.25,0.16-0.39,0.2c-0.15,0.04-0.3,0.07-0.46,0.07
	c-0.14,0-0.28-0.02-0.41-0.05c-0.11-0.02-0.21-0.06-0.31-0.11c-0.09-0.05-0.17-0.12-0.25-0.19c-0.07-0.08-0.13-0.16-0.19-0.25
	l0.17-0.12c0.1,0.17,0.24,0.3,0.42,0.39c0.18,0.08,0.37,0.12,0.57,0.12c0.12,0.02,0.25,0.02,0.37,0c0.11-0.03,0.22-0.09,0.31-0.16
	c0.09-0.07,0.16-0.17,0.21-0.27c0.05-0.12,0.08-0.25,0.08-0.38v-0.56c-0.11,0.17-0.26,0.31-0.43,0.4
	C124.93,101.83,124.74,101.87,124.55,101.85z M124.61,101.64c0.11,0,0.22-0.02,0.32-0.06c0.1-0.04,0.2-0.09,0.29-0.16
	c0.08-0.07,0.15-0.15,0.21-0.23c0.05-0.08,0.08-0.16,0.1-0.25v-0.85c-0.04-0.1-0.09-0.19-0.16-0.28c-0.07-0.08-0.14-0.16-0.23-0.22
	c-0.08-0.06-0.17-0.11-0.27-0.14c-0.1-0.02-0.2-0.02-0.3,0c-0.15,0-0.29,0.03-0.42,0.1c-0.12,0.07-0.22,0.15-0.31,0.26
	c-0.08,0.11-0.15,0.23-0.19,0.36c-0.05,0.13-0.07,0.27-0.07,0.41c0,0.14,0.02,0.29,0.08,0.42c0.05,0.13,0.12,0.25,0.22,0.36
	c0.09,0.1,0.2,0.18,0.33,0.24C124.34,101.64,124.48,101.66,124.61,101.64z M127.63,101.86c-0.19,0-0.39-0.03-0.57-0.1
	c-0.18-0.06-0.35-0.16-0.48-0.29l0.12-0.17c0.13,0.12,0.28,0.21,0.44,0.27c0.16,0.06,0.32,0.09,0.49,0.09
	c0.19,0.01,0.39-0.04,0.55-0.14c0.13-0.09,0.21-0.23,0.2-0.39c0.02-0.07,0.02-0.14,0-0.21c-0.04-0.06-0.1-0.11-0.16-0.14
	c-0.08-0.04-0.17-0.07-0.26-0.1l-0.35-0.09l-0.39-0.1c-0.09-0.03-0.18-0.07-0.26-0.12c-0.07-0.04-0.12-0.1-0.16-0.17
	c-0.02-0.09-0.02-0.17,0-0.26c0-0.12,0.02-0.23,0.07-0.34c0.05-0.09,0.12-0.18,0.21-0.24c0.09-0.06,0.19-0.11,0.3-0.14
	c0.12-0.02,0.25-0.02,0.37,0c0.19,0,0.37,0.04,0.54,0.11c0.14,0.05,0.27,0.14,0.36,0.26l-0.14,0.13c-0.09-0.1-0.2-0.18-0.33-0.22
	c-0.14-0.05-0.29-0.08-0.44-0.08c-0.09-0.01-0.19-0.01-0.28,0c-0.08,0.02-0.15,0.05-0.22,0.1c-0.06,0.04-0.11,0.1-0.15,0.17
	c-0.02,0.08-0.02,0.16,0,0.24c-0.01,0.06-0.01,0.12,0,0.18c0.03,0.05,0.07,0.09,0.12,0.12c0.07,0.04,0.14,0.07,0.22,0.09l0.3,0.08
	l0.44,0.12c0.11,0.03,0.22,0.07,0.32,0.13c0.08,0.05,0.14,0.11,0.19,0.19c0.05,0.09,0.07,0.18,0.07,0.28
	c0.01,0.22-0.09,0.43-0.27,0.56C128.23,101.84,127.93,101.91,127.63,101.86z M129.4,101.81v-0.42h0.22v0.42H129.4z"/>
<path class="st2" d="M9.21,20.54v10.64h-0.3v-5.29h-7.4v5.29h-0.3V20.54h0.3v5.05h7.4v-5.05H9.21z M19.17,30.88v0.3h-7V20.54H19v0.3
	h-6.52v4.75h5.74v0.3h-5.74v5L19.17,30.88z M24.86,20.54h0.27l4.64,10.64h-0.33l-1.67-3.8h-5.56l-1.66,3.8h-0.33L24.86,20.54z
	 M27.64,27.08L25,21l-2.67,6.11L27.64,27.08z M37.73,20.84h-4.08v10.34h-0.3V20.84h-4.08v-0.3h8.46V20.84z M42.21,25.79
	c0.01-0.65,0.12-1.3,0.34-1.91c0.23-0.62,0.57-1.2,1-1.7c0.43-0.5,0.96-0.9,1.55-1.18c0.67-0.32,1.4-0.49,2.14-0.47
	c0.85-0.03,1.69,0.2,2.41,0.65c0.64,0.41,1.15,0.99,1.47,1.67l-0.28,0.09c-0.19-0.37-0.44-0.71-0.73-1
	c-0.26-0.27-0.57-0.49-0.9-0.65c-0.31-0.17-0.65-0.29-1-0.36c-0.33-0.07-0.66-0.11-1-0.11c-0.69-0.02-1.38,0.13-2,0.44
	c-0.57,0.28-1.07,0.68-1.47,1.16c-0.4,0.47-0.71,1-0.92,1.58c-0.2,0.59-0.3,1.2-0.3,1.82c-0.01,1.33,0.48,2.61,1.37,3.59
	c0.42,0.47,0.92,0.86,1.49,1.13c0.57,0.28,1.2,0.42,1.84,0.42c0.36,0,0.73-0.04,1.08-0.13c0.37-0.09,0.74-0.23,1.08-0.41
	c0.36-0.18,0.7-0.42,1-0.69c0.3-0.3,0.55-0.63,0.75-1l0.29,0.08c-0.18,0.4-0.43,0.75-0.74,1.06c-0.3,0.31-0.63,0.57-1,0.78
	c-0.38,0.21-0.79,0.37-1.21,0.48c-0.41,0.1-0.82,0.15-1.24,0.15c-0.7,0.01-1.38-0.16-2-0.48c-0.6-0.31-1.13-0.73-1.57-1.25
	c-0.43-0.52-0.77-1.12-1-1.75C42.39,27.16,42.24,26.48,42.21,25.79z M57.53,31.26c-0.69,0-1.38-0.16-2-0.47
	c-0.6-0.3-1.13-0.71-1.57-1.21c-0.44-0.51-0.78-1.1-1-1.73c-0.49-1.29-0.49-2.71,0-4c0.24-0.64,0.59-1.23,1.04-1.75
	c0.44-0.5,0.98-0.91,1.58-1.2c0.62-0.3,1.31-0.45,2-0.44c0.69,0,1.38,0.16,2,0.47c0.6,0.31,1.13,0.73,1.56,1.24
	c0.43,0.51,0.77,1.1,1,1.73c0.24,0.64,0.36,1.32,0.36,2c0,0.71-0.13,1.4-0.39,2.06c-0.26,0.62-0.64,1.19-1.11,1.67
	c-0.44,0.49-0.97,0.9-1.56,1.19C58.84,31.11,58.19,31.26,57.53,31.26z M52.86,25.86c0,0.65,0.12,1.3,0.35,1.91
	c0.24,0.6,0.57,1.16,1,1.64c0.41,0.47,0.91,0.86,1.47,1.13c0.59,0.28,1.23,0.43,1.88,0.42c0.66,0.01,1.3-0.14,1.89-0.44
	c0.56-0.29,1.06-0.69,1.47-1.17c0.82-0.98,1.28-2.21,1.29-3.49c-0.01-1.3-0.49-2.56-1.34-3.55c-0.42-0.47-0.92-0.85-1.48-1.13
	c-0.57-0.28-1.2-0.43-1.83-0.42c-0.66-0.01-1.31,0.14-1.9,0.44c-0.57,0.29-1.07,0.69-1.48,1.17c-0.42,0.48-0.76,1.03-0.98,1.63
	C52.98,24.6,52.86,25.22,52.86,25.86z M65,21.12v10.06h-0.3V20.54h0.22l8.15,10.21V20.54h0.3v10.64H73L65,21.12z M76.32,31.18V20.54
	h3.42c0.75-0.02,1.5,0.13,2.19,0.42c0.6,0.26,1.13,0.65,1.56,1.14c0.42,0.49,0.74,1.06,0.93,1.68c0.21,0.67,0.32,1.37,0.31,2.07
	c0,0.73-0.11,1.46-0.35,2.15c-0.22,0.62-0.56,1.19-1,1.68c-0.43,0.47-0.97,0.84-1.57,1.08c-0.66,0.26-1.36,0.39-2.07,0.38
	L76.32,31.18z M84.43,25.85c0.01-0.68-0.1-1.36-0.31-2c-0.19-0.59-0.49-1.13-0.9-1.59c-0.42-0.43-0.92-0.77-1.48-1
	c-0.63-0.26-1.32-0.38-2-0.37h-3.12v10h3.12c0.69,0.01,1.37-0.12,2-0.38c0.56-0.24,1.06-0.6,1.47-1.06c0.4-0.47,0.7-1.01,0.89-1.59
	C84.32,27.21,84.43,26.53,84.43,25.85z M91.16,31c0.69,0.03,1.38-0.13,2-0.45c0.51-0.28,0.94-0.68,1.25-1.17
	c0.3-0.52,0.5-1.08,0.59-1.67c0.13-0.61,0.19-1.23,0.19-1.85v-5.32h0.3v5.32c0,0.67-0.07,1.34-0.22,2c-0.13,0.62-0.38,1.2-0.73,1.72
	c-0.34,0.5-0.8,0.91-1.34,1.19c-1.32,0.61-2.84,0.61-4.16,0c-0.54-0.29-1-0.71-1.34-1.23c-0.34-0.52-0.57-1.1-0.7-1.71
	c-0.14-0.66-0.21-1.33-0.21-2v-5.29h0.3v5.32c0,0.63,0.07,1.25,0.19,1.87c0.14,0.59,0.38,1.14,0.72,1.64
	c0.31,0.48,0.74,0.88,1.25,1.15C89.84,30.84,90.49,31,91.16,31z M97.55,25.79c0.01-0.65,0.12-1.3,0.34-1.91
	c0.23-0.62,0.57-1.2,1-1.7c0.43-0.49,0.96-0.9,1.55-1.18c0.67-0.33,1.4-0.49,2.14-0.47c0.85-0.03,1.69,0.2,2.41,0.65
	c0.64,0.41,1.15,0.99,1.47,1.67l-0.28,0.09c-0.19-0.37-0.44-0.7-0.73-1c-0.27-0.26-0.57-0.48-0.9-0.65c-0.31-0.17-0.65-0.29-1-0.36
	c-0.33-0.07-0.66-0.11-1-0.11c-0.69-0.02-1.38,0.13-2,0.44c-0.57,0.28-1.07,0.68-1.47,1.16c-0.4,0.46-0.71,1-0.92,1.58
	c-0.21,0.58-0.31,1.2-0.31,1.82c-0.01,0.68,0.12,1.36,0.37,2c0.23,0.6,0.57,1.16,1,1.64c0.42,0.47,0.92,0.86,1.49,1.13
	c0.57,0.28,1.2,0.42,1.84,0.42c0.36,0,0.73-0.04,1.08-0.13c0.37-0.09,0.73-0.23,1.07-0.41c0.37-0.18,0.7-0.41,1-0.69
	c0.3-0.29,0.56-0.63,0.76-1l0.29,0.08c-0.18,0.4-0.43,0.75-0.74,1.06c-0.3,0.31-0.63,0.57-1,0.78c-0.38,0.21-0.79,0.37-1.21,0.48
	c-0.41,0.1-0.82,0.15-1.24,0.15c-0.7,0.01-1.38-0.16-2-0.48c-0.6-0.31-1.14-0.73-1.57-1.25c-0.43-0.52-0.77-1.11-1-1.75
	C97.72,27.2,97.57,26.5,97.55,25.79z M115.91,20.84h-4.08v10.34h-0.3V20.84h-4.08v-0.3h8.46L115.91,20.84z M117.66,31.18V20.54h0.3
	v10.64H117.66z M120.05,20.54l4.48,10.27L129,20.54h0.33l-4.63,10.64h-0.33l-4.64-10.64H120.05z M131.1,31.18V20.54h0.3v10.64H131.1
	z M141.61,20.84h-4.08v10.34h-0.3V20.84h-4.08v-0.3h8.46V20.84z M142.57,20.54l4.11,6.17l4.13-6.17h0.34l-4.32,6.52v4.12h-0.3V27
	l-4.3-6.49L142.57,20.54z M4.65,41.07h0.27l4.63,10.65H9.22l-1.66-3.81H2l-1.67,3.81H0L4.65,41.07z M7.42,47.61l-2.64-6.1l-2.67,6.1
	H7.42z M11.62,41.66v10.06h-0.3V41.07h0.23l8.14,10.22V41.07H20v10.65h-0.34L11.62,41.66z M23,51.72V41.07h3.42
	c0.75-0.02,1.5,0.13,2.2,0.42c0.6,0.26,1.13,0.65,1.56,1.14c0.42,0.5,0.74,1.07,0.93,1.69c0.2,0.67,0.3,1.36,0.3,2.06
	c0.01,0.75-0.11,1.49-0.35,2.2c-0.22,0.62-0.56,1.19-1,1.68c-0.44,0.47-0.98,0.84-1.57,1.08c-0.66,0.26-1.36,0.39-2.07,0.38H23z
	 M31.11,46.38c0.01-0.68-0.09-1.35-0.3-2c-0.19-0.58-0.5-1.12-0.91-1.58c-0.42-0.44-0.92-0.78-1.48-1c-0.63-0.26-1.31-0.39-2-0.38
	h-3.16v10h3.12c0.69,0.01,1.37-0.12,2-0.38c0.57-0.23,1.08-0.58,1.5-1.04c0.41-0.46,0.71-1.01,0.89-1.6
	c0.21-0.65,0.31-1.33,0.3-2.02H31.11z M43.69,42.48c-0.36-0.41-0.81-0.74-1.32-0.94c-0.52-0.18-1.07-0.27-1.62-0.26
	c-0.53-0.01-1.06,0.05-1.57,0.18c-0.39,0.1-0.75,0.28-1.07,0.52c-0.27,0.21-0.48,0.49-0.62,0.8c-0.13,0.32-0.19,0.66-0.19,1
	c-0.02,0.34,0.04,0.69,0.19,1c0.14,0.27,0.35,0.49,0.6,0.65c0.31,0.19,0.65,0.34,1,0.45c0.43,0.12,0.94,0.25,1.53,0.37
	s1.12,0.25,1.6,0.39c0.43,0.12,0.84,0.29,1.22,0.52c0.32,0.19,0.59,0.46,0.77,0.78c0.2,0.36,0.29,0.76,0.27,1.17
	c0.04,0.8-0.34,1.55-1,2c-0.83,0.5-1.78,0.74-2.75,0.69c-0.78,0.01-1.56-0.12-2.29-0.4c-0.7-0.29-1.33-0.71-1.85-1.25l0.22-0.2
	c0.49,0.53,1.09,0.95,1.76,1.22c0.69,0.26,1.43,0.38,2.17,0.37c0.89,0.07,1.78-0.12,2.56-0.54c0.61-0.39,0.97-1.07,0.93-1.79
	c0-0.34-0.07-0.69-0.21-1c-0.16-0.29-0.38-0.53-0.65-0.71c-0.34-0.22-0.72-0.4-1.11-0.51c-0.52-0.16-1.05-0.29-1.59-0.39
	c-0.59-0.11-1.11-0.23-1.57-0.35c-0.39-0.13-0.76-0.32-1.1-0.55c-0.3-0.18-0.54-0.43-0.71-0.74c-0.17-0.34-0.25-0.72-0.24-1.1
	c-0.01-0.42,0.08-0.84,0.26-1.22c0.17-0.36,0.43-0.66,0.75-0.9c0.35-0.26,0.75-0.44,1.17-0.55c0.49-0.13,0.99-0.19,1.49-0.19
	c0.6-0.01,1.2,0.09,1.77,0.29c0.54,0.22,1.01,0.56,1.39,1L43.69,42.48z M56.55,51.72v-10l-4.72,7.89h-0.24l-4.73-7.89v10h-0.3V41.07
	h0.24l4.91,8.19l4.9-8.19h0.24v10.65H56.55z M64,51.8c-0.69,0-1.38-0.16-2-0.47c-0.59-0.3-1.12-0.71-1.56-1.21
	c-0.44-0.51-0.78-1.1-1-1.73c-0.24-0.64-0.36-1.32-0.36-2c0-0.68,0.13-1.36,0.38-2c0.24-0.64,0.6-1.22,1.05-1.73
	c0.44-0.49,0.97-0.9,1.57-1.19c0.6-0.3,1.25-0.46,1.92-0.47c0.69,0,1.38,0.16,2,0.47c0.6,0.31,1.13,0.73,1.57,1.24
	c0.43,0.51,0.77,1.1,1,1.73c0.24,0.64,0.36,1.32,0.36,2c0,0.7-0.13,1.4-0.38,2.05c-0.23,0.63-0.57,1.21-1,1.72
	c-0.44,0.47-0.97,0.86-1.55,1.14C65.38,51.66,64.69,51.81,64,51.8z M59.34,46.4c0,0.65,0.11,1.3,0.35,1.91
	c0.23,0.6,0.57,1.15,1,1.63c0.41,0.48,0.91,0.87,1.47,1.14c0.57,0.28,1.2,0.42,1.84,0.42c0.66,0.01,1.31-0.15,1.9-0.45
	c0.56-0.29,1.06-0.68,1.47-1.16c0.41-0.48,0.72-1.04,0.94-1.63c0.23-0.59,0.34-1.22,0.34-1.86c0.01-1.31-0.47-2.57-1.34-3.55
	c-0.41-0.47-0.91-0.85-1.47-1.13c-0.57-0.28-1.2-0.42-1.84-0.42c-0.66-0.01-1.31,0.15-1.9,0.44c-0.56,0.29-1.06,0.68-1.47,1.16
	C59.8,43.88,59.34,45.12,59.34,46.4z M75.37,51.8c-0.69,0-1.38-0.16-2-0.47c-0.59-0.3-1.12-0.71-1.56-1.21
	c-0.44-0.51-0.78-1.1-1-1.73c-0.49-1.29-0.49-2.71,0-4c0.23-0.63,0.57-1.21,1-1.73c0.44-0.5,0.98-0.9,1.58-1.19
	c0.62-0.3,1.31-0.45,2-0.44c0.69,0,1.38,0.16,2,0.47c0.61,0.3,1.16,0.71,1.61,1.21c0.43,0.51,0.77,1.1,1,1.73
	c0.24,0.64,0.36,1.32,0.36,2c0,0.7-0.13,1.4-0.38,2.05c-0.23,0.63-0.57,1.21-1,1.72c-0.44,0.49-0.98,0.89-1.57,1.18
	C76.77,51.69,76.07,51.83,75.37,51.8z M70.71,46.4c0,0.65,0.12,1.3,0.35,1.91c0.24,0.6,0.57,1.15,1,1.63
	c0.41,0.48,0.91,0.87,1.47,1.14c0.58,0.28,1.22,0.43,1.87,0.42c0.66,0.01,1.31-0.15,1.9-0.45c0.56-0.29,1.06-0.68,1.47-1.16
	c0.41-0.48,0.72-1.04,0.94-1.63c0.21-0.6,0.31-1.23,0.29-1.86c0-1.31-0.47-2.57-1.33-3.55c-0.42-0.47-0.92-0.85-1.48-1.13
	c-1.18-0.57-2.55-0.57-3.73,0C72.9,42.01,72.4,42.41,72,42.9C71.18,43.88,70.72,45.12,70.71,46.4z M89.27,41.37H85.2v10.35h-0.3
	V41.37h-4.08v-0.3h8.45V41.37z M99,41.07v10.65h-0.3v-5.29h-7.37v5.29H91V41.07h0.3v5.06h7.39v-5.06H99z M102.29,41.66v10.06H102
	V41.07h0.23l8.14,10.22V41.07h0.3v10.65h-0.35L102.29,41.66z M120.62,51.42v0.3h-7V41.07h6.85v0.3h-6.55v4.76h5.74v0.3h-5.74v5
	L120.62,51.42z M128.81,42.48c-0.36-0.41-0.81-0.74-1.32-0.94c-0.52-0.18-1.07-0.27-1.62-0.26c-0.53-0.01-1.06,0.05-1.57,0.18
	c-0.39,0.1-0.75,0.28-1.07,0.52c-0.27,0.21-0.48,0.49-0.62,0.8c-0.13,0.32-0.19,0.66-0.19,1c-0.02,0.34,0.04,0.69,0.19,1
	c0.14,0.27,0.35,0.49,0.6,0.65c0.31,0.19,0.65,0.34,1,0.45c0.43,0.12,0.94,0.25,1.53,0.37s1.12,0.25,1.6,0.39
	c0.43,0.12,0.84,0.29,1.22,0.52c0.32,0.19,0.59,0.46,0.78,0.78c0.55,1.09,0.24,2.43-0.73,3.17c-0.83,0.5-1.78,0.74-2.75,0.69
	c-0.78,0.01-1.56-0.12-2.29-0.4c-0.7-0.29-1.33-0.71-1.85-1.25L122,50c0.49,0.53,1.09,0.95,1.76,1.22c0.69,0.26,1.43,0.38,2.17,0.37
	c0.88,0.04,1.75-0.16,2.51-0.59c0.61-0.39,0.97-1.07,0.93-1.79c0-0.34-0.07-0.69-0.21-1c-0.16-0.29-0.38-0.53-0.65-0.71
	c-0.34-0.22-0.72-0.4-1.11-0.51c-0.52-0.16-1.05-0.29-1.59-0.39c-0.59-0.11-1.11-0.23-1.57-0.35c-0.4-0.11-0.79-0.27-1.15-0.48
	c-0.3-0.18-0.54-0.43-0.71-0.74c-0.17-0.34-0.25-0.72-0.24-1.1c-0.01-0.42,0.08-0.84,0.26-1.22c0.17-0.36,0.43-0.66,0.75-0.9
	c0.35-0.26,0.75-0.44,1.17-0.55c0.5-0.13,1.02-0.2,1.54-0.19c0.6-0.01,1.2,0.09,1.77,0.29c0.54,0.22,1.01,0.56,1.39,1L128.81,42.48z
	 M137.83,42.48c-0.35-0.41-0.8-0.74-1.31-0.94c-0.52-0.18-1.08-0.27-1.63-0.26c-0.53-0.01-1.05,0.05-1.56,0.18
	c-0.39,0.1-0.76,0.28-1.08,0.52c-0.27,0.21-0.48,0.49-0.61,0.8c-0.13,0.32-0.2,0.66-0.2,1c-0.02,0.34,0.05,0.69,0.2,1
	c0.14,0.27,0.35,0.49,0.6,0.65c0.31,0.19,0.65,0.34,1,0.45c0.43,0.12,0.93,0.25,1.52,0.37s1.13,0.25,1.61,0.39
	c0.43,0.12,0.84,0.29,1.22,0.52c0.32,0.19,0.58,0.46,0.77,0.78c0.55,1.09,0.25,2.42-0.72,3.17c-0.83,0.5-1.79,0.74-2.76,0.69
	c-0.78,0.01-1.55-0.12-2.28-0.4c-0.7-0.29-1.33-0.71-1.86-1.25L131,50c0.49,0.53,1.09,0.95,1.76,1.22c0.69,0.26,1.43,0.38,2.17,0.37
	c0.88,0.04,1.75-0.16,2.51-0.59c0.61-0.39,0.96-1.07,0.92-1.79c0.01-0.34-0.06-0.69-0.21-1c-0.15-0.28-0.37-0.53-0.64-0.71
	c-0.34-0.22-0.72-0.4-1.11-0.51c-0.52-0.16-1.05-0.29-1.59-0.39c-0.59-0.11-1.11-0.23-1.57-0.35c-0.4-0.11-0.79-0.27-1.15-0.48
	c-0.3-0.18-0.55-0.43-0.72-0.74c-0.16-0.34-0.24-0.72-0.23-1.1c-0.01-0.42,0.08-0.84,0.26-1.22c0.17-0.36,0.43-0.66,0.75-0.9
	c0.35-0.26,0.75-0.44,1.17-0.55c0.5-0.13,1.01-0.2,1.53-0.19c0.61-0.01,1.21,0.09,1.78,0.29c0.54,0.22,1.01,0.56,1.39,1
	L137.83,42.48z M151.07,66.26H0.82v0.2h150.25V66.26z"/>
</svg>
