<?xml version="1.0" encoding="utf-8"?>
<!-- Generator: Adobe Illustrator 22.0.0, SVG Export Plug-In . SVG Version: 6.00 Build 0)  -->
<svg version="1.1" id="Layer_1" xmlns="http://www.w3.org/2000/svg" xmlns:xlink="http://www.w3.org/1999/xlink" x="0px" y="0px"
	 viewBox="0 0 161.81 47.1" style="enable-background:new 0 0 161.81 47.1;" xml:space="preserve">
<style type="text/css">
	.st0{fill:#C62026;}
	.st1{display:none;fill:#010101;}
	.st2{fill:#010101;}
</style>
<path class="st0" d="M0.31,0L4.8,10.27L9.27,0H9.6L5,10.65H4.63L0,0H0.31z M9.76,10.65v-1h0.3v1H9.76z"/>
<path class="st1" d="M3.33,59.5c-0.26-0.28-0.62-0.42-1-0.39c-0.27-0.02-0.54,0.05-0.76,0.2c-0.16,0.13-0.24,0.33-0.23,0.53
	c-0.02,0.09-0.02,0.19,0,0.28c0.05,0.08,0.11,0.15,0.19,0.2c0.1,0.05,0.21,0.1,0.32,0.13l0.47,0.12c0.19,0,0.36,0.08,0.52,0.13
	c0.14,0.04,0.27,0.1,0.39,0.18c0.11,0.07,0.19,0.16,0.25,0.27c0.06,0.12,0.09,0.25,0.09,0.39c0,0.14-0.03,0.28-0.09,0.41
	c-0.06,0.12-0.15,0.22-0.26,0.29c-0.12,0.08-0.26,0.14-0.4,0.18c-0.17,0.04-0.34,0.06-0.52,0.06c-0.48,0-0.94-0.17-1.3-0.48
	l0.14-0.2c0.15,0.16,0.34,0.28,0.54,0.37c0.23,0.09,0.48,0.14,0.73,0.14c0.25,0.01,0.51-0.05,0.73-0.17
	c0.17-0.12,0.27-0.31,0.26-0.52c0-0.1-0.02-0.2-0.07-0.29c-0.05-0.09-0.12-0.17-0.21-0.22c-0.1-0.07-0.22-0.12-0.34-0.15
	c-0.16-0.05-0.32-0.09-0.49-0.12l-0.5-0.13c-0.13-0.04-0.26-0.1-0.37-0.17c-0.09-0.06-0.17-0.15-0.22-0.25
	c-0.05-0.11-0.07-0.24-0.07-0.36c0-0.15,0.03-0.3,0.09-0.43c0.06-0.12,0.15-0.23,0.26-0.31C1.59,59.1,1.72,59.04,1.85,59
	c0.17-0.05,0.34-0.07,0.51-0.07C2.58,58.91,2.79,58.94,3,59c0.18,0.07,0.35,0.17,0.49,0.31L3.33,59.5z M5.1,62.5
	c-0.11,0-0.22-0.02-0.33-0.06c-0.1-0.04-0.19-0.1-0.27-0.17C4.42,62.19,4.36,62.1,4.31,62c-0.04-0.1-0.06-0.21-0.06-0.32
	c0-0.11,0.03-0.22,0.08-0.31c0.05-0.1,0.13-0.18,0.22-0.24c0.11-0.06,0.22-0.1,0.34-0.13c0.14-0.04,0.29-0.06,0.44-0.06
	c0.14-0.01,0.28-0.01,0.42,0c0.13,0.02,0.26,0.05,0.39,0.1v-0.26c0.01-0.21-0.06-0.42-0.21-0.58c-0.15-0.14-0.36-0.22-0.57-0.2
	c-0.14,0-0.27,0.03-0.4,0.08c-0.16,0.06-0.3,0.13-0.44,0.23l-0.09-0.17c0.29-0.21,0.64-0.33,1-0.34c0.27-0.02,0.54,0.08,0.74,0.27
	c0.19,0.2,0.29,0.47,0.27,0.75v1.28c0,0.09,0,0.13,0.1,0.13v0.22H6.4c-0.06,0-0.12-0.02-0.16-0.07c-0.04-0.04-0.07-0.1-0.07-0.16V62
	c-0.13,0.15-0.28,0.27-0.46,0.36C5.52,62.45,5.31,62.5,5.1,62.5z M5.15,62.3c0.18,0.01,0.36-0.03,0.53-0.11
	c0.15-0.06,0.28-0.16,0.38-0.29c0.05-0.06,0.08-0.13,0.08-0.2v-0.46c-0.12-0.04-0.25-0.08-0.38-0.1c-0.13-0.01-0.27-0.01-0.4,0
	c-0.12-0.02-0.24-0.02-0.36,0c-0.09,0.02-0.19,0.06-0.27,0.11c-0.15,0.09-0.24,0.25-0.24,0.42c-0.02,0.08-0.02,0.17,0,0.25
	c0.03,0.07,0.08,0.14,0.14,0.19c0.13,0.12,0.3,0.18,0.47,0.18L5.15,62.3z M7.5,63.33h0.17h0.08l0.06-0.05
	c0.03-0.04,0.05-0.07,0.07-0.11C7.93,63.08,7.97,62.99,8,62.9l0.19-0.45L7,59.86h0.26l1,2.35l1-2.35H9.5l-1.4,3.41
	c-0.03,0.09-0.1,0.17-0.18,0.22c-0.1,0.05-0.22,0.08-0.33,0.07H7.5V63.33z M12.72,62.49c-0.17,0-0.34-0.04-0.5-0.11
	c-0.14-0.07-0.27-0.18-0.38-0.3c-0.11-0.13-0.2-0.27-0.26-0.43c-0.06-0.16-0.09-0.32-0.09-0.49c0-0.17,0.03-0.35,0.09-0.51
	c0.06-0.16,0.14-0.3,0.24-0.43c0.11-0.12,0.24-0.23,0.39-0.3c0.15-0.07,0.32-0.11,0.49-0.11c0.21,0,0.42,0.06,0.59,0.18
	c0.17,0.12,0.31,0.26,0.43,0.43v-0.56h0.22v2.64c0,0.16-0.03,0.32-0.09,0.47c-0.07,0.13-0.16,0.24-0.27,0.33
	c-0.12,0.09-0.25,0.16-0.39,0.2c-0.15,0.04-0.31,0.06-0.47,0.06c-0.13,0.02-0.27,0.02-0.4,0c-0.11-0.04-0.22-0.09-0.32-0.16
	c-0.09-0.05-0.17-0.11-0.24-0.19c-0.07-0.07-0.14-0.15-0.19-0.24l0.17-0.12c0.09,0.17,0.24,0.31,0.42,0.39
	c0.18,0.08,0.37,0.12,0.56,0.12c0.13,0.02,0.25,0.02,0.38,0c0.11-0.04,0.22-0.1,0.31-0.17c0.09-0.07,0.16-0.16,0.21-0.26
	c0.05-0.12,0.08-0.25,0.08-0.38v-0.57c-0.11,0.17-0.25,0.31-0.43,0.41C13.1,62.47,12.91,62.5,12.72,62.49z M12.78,62.28
	c0.11,0,0.22-0.02,0.32-0.07c0.1-0.04,0.2-0.09,0.28-0.16c0.08-0.06,0.16-0.13,0.21-0.22c0.05-0.08,0.09-0.16,0.11-0.25v-0.85
	c-0.04-0.1-0.1-0.19-0.16-0.28c-0.07-0.08-0.14-0.16-0.23-0.22c-0.09-0.06-0.18-0.11-0.28-0.14c-0.09-0.04-0.19-0.05-0.29-0.05
	c-0.15,0-0.29,0.03-0.42,0.1c-0.12,0.06-0.23,0.15-0.31,0.26c-0.09,0.1-0.16,0.23-0.2,0.36c-0.04,0.13-0.07,0.26-0.07,0.4
	c0,0.15,0.03,0.29,0.08,0.43c0.06,0.13,0.13,0.25,0.22,0.35c0.09,0.1,0.21,0.19,0.33,0.25C12.5,62.25,12.64,62.28,12.78,62.28z
	 M16.06,62.5c-0.18,0-0.35-0.03-0.51-0.11c-0.31-0.14-0.55-0.4-0.66-0.72c-0.07-0.16-0.1-0.33-0.1-0.51c0-0.18,0.04-0.35,0.1-0.52
	c0.06-0.16,0.15-0.3,0.27-0.43c0.35-0.39,0.92-0.51,1.4-0.29c0.15,0.07,0.29,0.17,0.4,0.29c0.12,0.12,0.21,0.27,0.27,0.43
	c0.07,0.16,0.1,0.34,0.1,0.52c0,0.18-0.03,0.35-0.1,0.51c-0.06,0.16-0.15,0.31-0.27,0.43C16.73,62.35,16.4,62.5,16.06,62.5z
	 M15.06,61.17c0,0.29,0.1,0.57,0.3,0.78c0.09,0.1,0.2,0.18,0.32,0.24c0.12,0.06,0.26,0.09,0.4,0.09c0.14,0,0.27-0.03,0.39-0.09
	c0.12-0.06,0.23-0.14,0.32-0.24c0.1-0.1,0.17-0.23,0.22-0.36c0.06-0.14,0.09-0.29,0.08-0.44c0-0.15-0.02-0.29-0.08-0.43
	c-0.05-0.13-0.12-0.25-0.22-0.35c-0.09-0.1-0.2-0.18-0.32-0.24c-0.25-0.12-0.53-0.12-0.78,0c-0.12,0.06-0.24,0.14-0.33,0.24
	c-0.09,0.11-0.17,0.23-0.22,0.36c-0.07,0.14-0.12,0.29-0.14,0.44H15.06z M19.26,62.5c-0.34,0-0.67-0.15-0.9-0.4
	c-0.12-0.12-0.21-0.27-0.27-0.43C18.03,61.51,18,61.33,18,61.16c0-0.18,0.03-0.35,0.09-0.52c0.07-0.16,0.16-0.3,0.27-0.43
	c0.11-0.12,0.25-0.22,0.4-0.29c0.16-0.07,0.33-0.11,0.5-0.11c0.17,0,0.34,0.04,0.5,0.11c0.31,0.14,0.56,0.4,0.67,0.72
	c0.07,0.16,0.1,0.34,0.1,0.52c0,0.18-0.03,0.35-0.1,0.51c-0.11,0.32-0.35,0.58-0.66,0.72C19.61,62.47,19.44,62.5,19.26,62.5z
	 M18.26,61.17c0,0.29,0.1,0.56,0.29,0.78c0.09,0.1,0.2,0.18,0.32,0.24c0.12,0.06,0.26,0.09,0.4,0.09c0.14,0,0.27-0.03,0.39-0.09
	C19.78,62.15,19.9,62.08,20,62c0.09-0.11,0.16-0.23,0.22-0.36c0.05-0.14,0.08-0.29,0.08-0.44c0-0.15-0.03-0.29-0.08-0.43
	c-0.06-0.13-0.13-0.25-0.22-0.35c-0.09-0.1-0.2-0.18-0.32-0.24c-0.12-0.06-0.26-0.09-0.4-0.09c-0.14,0-0.27,0.03-0.39,0.09
	c-0.12,0.06-0.23,0.14-0.32,0.24c-0.1,0.1-0.17,0.23-0.22,0.36c-0.06,0.12-0.09,0.25-0.1,0.39H18.26z M22.45,62.5
	c-0.17,0-0.34-0.04-0.5-0.11c-0.15-0.08-0.28-0.18-0.4-0.3c-0.11-0.13-0.2-0.27-0.26-0.43c-0.06-0.16-0.09-0.33-0.09-0.5
	c0-0.17,0.03-0.35,0.09-0.51c0.05-0.16,0.14-0.31,0.25-0.43c0.11-0.12,0.23-0.23,0.38-0.3c0.15-0.07,0.31-0.11,0.47-0.11
	c0.11-0.02,0.21-0.02,0.32,0c0.1,0.05,0.2,0.12,0.29,0.19c0.09,0.06,0.17,0.12,0.24,0.2c0.07,0.07,0.13,0.15,0.18,0.23v-1.62h0.25
	v3.29c0,0.09,0,0.13,0.1,0.13v0.22h-0.09c-0.07,0-0.13-0.03-0.17-0.08c-0.05-0.04-0.07-0.1-0.07-0.16v-0.29
	c-0.11,0.17-0.25,0.32-0.43,0.42C22.84,62.44,22.65,62.5,22.45,62.5z M22.45,62.28c0.1,0,0.2-0.02,0.29-0.06
	c0.1-0.03,0.2-0.08,0.29-0.15c0.08-0.07,0.16-0.14,0.23-0.22c0.06-0.08,0.1-0.17,0.11-0.27v-0.85c-0.04-0.1-0.09-0.19-0.16-0.27
	c-0.07-0.08-0.14-0.16-0.23-0.22c-0.09-0.06-0.18-0.11-0.28-0.15c-0.09-0.04-0.19-0.05-0.29-0.05c-0.14,0-0.28,0.03-0.41,0.09
	c-0.12,0.07-0.23,0.15-0.32,0.26c-0.09,0.11-0.15,0.23-0.2,0.36c-0.04,0.13-0.07,0.27-0.07,0.41c0,0.15,0.03,0.29,0.08,0.43
	c0.06,0.13,0.13,0.25,0.23,0.35C21.9,62.15,22.17,62.27,22.45,62.28z M25.91,62.5c-0.2,0-0.4-0.05-0.57-0.16
	c-0.17-0.1-0.31-0.24-0.41-0.41v0.52H24.7v-3.64H25v1.61c0.11-0.17,0.26-0.32,0.43-0.44c0.18-0.11,0.38-0.17,0.59-0.17
	c0.17,0,0.34,0.04,0.49,0.12c0.15,0.08,0.27,0.18,0.38,0.31c0.1,0.13,0.18,0.27,0.23,0.43c0.06,0.16,0.08,0.32,0.08,0.49
	c0,0.18-0.03,0.35-0.09,0.52c-0.12,0.31-0.36,0.57-0.66,0.71C26.28,62.47,26.1,62.51,25.91,62.5z M25.86,62.28
	c0.15,0,0.29-0.03,0.42-0.1c0.13-0.06,0.24-0.14,0.33-0.25c0.09-0.11,0.16-0.23,0.21-0.36c0.05-0.13,0.08-0.27,0.08-0.41
	c0-0.14-0.03-0.28-0.07-0.42c-0.05-0.13-0.12-0.25-0.21-0.36c-0.09-0.1-0.19-0.19-0.31-0.25c-0.12-0.06-0.26-0.09-0.4-0.09
	c-0.11,0-0.21,0.02-0.31,0.05c-0.19,0.08-0.36,0.21-0.49,0.38c-0.07,0.08-0.12,0.17-0.16,0.26v0.85c0.01,0.1,0.05,0.2,0.11,0.28
	c0.06,0.08,0.14,0.15,0.22,0.21c0.09,0.07,0.18,0.12,0.29,0.15C25.66,62.26,25.76,62.28,25.86,62.28z M28.09,63.33h0.16h0.09
	l0.05-0.05c0.03-0.03,0.05-0.07,0.07-0.11l0.12-0.25c0-0.11,0.11-0.26,0.19-0.45l-1.16-2.59h0.26l1,2.35l1-2.35h0.25l-1.42,3.41
	c-0.04,0.09-0.1,0.17-0.18,0.22c-0.1,0.05-0.22,0.08-0.33,0.07H28.1L28.09,63.33z M31.87,62.5c-0.18,0-0.35-0.03-0.51-0.11
	c-0.14-0.07-0.26-0.17-0.36-0.29c-0.11-0.13-0.2-0.27-0.27-0.43c-0.06-0.17-0.09-0.35-0.09-0.53c0-0.17,0.03-0.35,0.09-0.51
	c0.07-0.16,0.16-0.3,0.27-0.43c0.11-0.12,0.25-0.21,0.4-0.28c0.16-0.07,0.33-0.11,0.5-0.11c0.18,0,0.35,0.04,0.51,0.11
	c0.15,0.07,0.29,0.17,0.41,0.29c0.11,0.12,0.2,0.26,0.26,0.42c0.06,0.16,0.1,0.34,0.1,0.51v0.07l0,0h-2.33
	c0.01,0.14,0.04,0.29,0.1,0.42c0.06,0.12,0.13,0.23,0.23,0.33c0.09,0.09,0.19,0.17,0.31,0.22c0.12,0.06,0.26,0.08,0.39,0.08
	c0.09,0.02,0.17,0.02,0.26,0c0.09-0.02,0.17-0.05,0.25-0.1c0.07-0.04,0.14-0.09,0.19-0.16c0.06-0.06,0.11-0.12,0.14-0.2l0.22,0.06
	c-0.03,0.1-0.09,0.19-0.16,0.26c-0.07,0.08-0.16,0.15-0.25,0.2c-0.1,0.06-0.2,0.1-0.31,0.13C32.11,62.49,31.99,62.5,31.87,62.5z
	 M32.87,61.05c-0.01-0.14-0.05-0.28-0.11-0.41c-0.05-0.12-0.13-0.24-0.22-0.33c-0.09-0.09-0.2-0.16-0.32-0.22
	c-0.12-0.05-0.25-0.07-0.38-0.07c-0.13,0-0.27,0.02-0.39,0.07c-0.11,0.06-0.22,0.13-0.31,0.22c-0.09,0.09-0.17,0.21-0.22,0.33
	c-0.06,0.13-0.09,0.27-0.1,0.41H32.87z M36.61,62.33h-0.06l-0.12,0.06h-0.16c-0.13,0.03-0.27,0.03-0.4,0
	c-0.06-0.02-0.11-0.05-0.16-0.09c-0.04-0.04-0.08-0.09-0.11-0.14c-0.02-0.07-0.02-0.13,0-0.2v-2h-0.4v-0.2h0.36V59h0.25v0.89h0.6
	v0.2h-0.6V62c-0.01,0.08,0.03,0.16,0.1,0.21c0.07,0.05,0.15,0.08,0.23,0.08c0.09,0,0.18-0.02,0.26-0.06l0.14-0.06L36.61,62.33z
	 M38.33,62.5c-0.35,0-0.68-0.14-0.91-0.4c-0.12-0.12-0.21-0.27-0.27-0.43c-0.06-0.16-0.09-0.34-0.09-0.51c0-0.18,0.03-0.36,0.1-0.52
	c0.06-0.16,0.15-0.3,0.26-0.43c0.12-0.12,0.25-0.22,0.4-0.29c0.16-0.07,0.33-0.11,0.51-0.11c0.17,0,0.34,0.04,0.49,0.11
	c0.15,0.07,0.29,0.17,0.41,0.29c0.11,0.13,0.2,0.27,0.27,0.43c0.06,0.17,0.09,0.34,0.09,0.52c0.01,0.35-0.12,0.69-0.36,0.94
	c-0.11,0.12-0.25,0.22-0.4,0.29C38.67,62.47,38.5,62.5,38.33,62.5z M37.33,61.17c0,0.29,0.1,0.56,0.29,0.78
	c0.09,0.1,0.21,0.18,0.33,0.24c0.25,0.12,0.53,0.12,0.78,0c0.1-0.05,0.19-0.11,0.27-0.19c0.09-0.11,0.17-0.23,0.22-0.36
	c0.05-0.14,0.08-0.29,0.08-0.44c0-0.15-0.03-0.29-0.08-0.43c-0.05-0.13-0.13-0.25-0.22-0.35c-0.09-0.1-0.2-0.18-0.32-0.24
	c-0.12-0.06-0.25-0.09-0.39-0.09c-0.14,0-0.28,0.03-0.4,0.09c-0.12,0.06-0.23,0.14-0.32,0.24c-0.1,0.1-0.17,0.23-0.22,0.36
	c-0.04,0.13-0.05,0.26-0.04,0.39H37.33z M42.61,62.5c-0.11,0-0.22-0.02-0.33-0.06c-0.1-0.04-0.19-0.09-0.27-0.17
	c-0.08-0.07-0.14-0.16-0.19-0.25c-0.04-0.1-0.06-0.21-0.06-0.32c0-0.11,0.03-0.22,0.08-0.31c0.05-0.1,0.13-0.18,0.22-0.24
	c0.1-0.07,0.22-0.12,0.34-0.15c0.14-0.04,0.29-0.06,0.44-0.06c0.14-0.01,0.28-0.01,0.42,0c0.13,0.02,0.26,0.05,0.39,0.1v-0.26
	c0.01-0.21-0.06-0.42-0.21-0.58c-0.15-0.15-0.36-0.23-0.57-0.22c-0.14,0-0.28,0.03-0.41,0.08c-0.15,0.06-0.3,0.14-0.43,0.23
	l-0.09-0.17c0.29-0.21,0.64-0.33,1-0.34c0.27-0.01,0.53,0.09,0.73,0.27c0.19,0.2,0.29,0.47,0.27,0.75v1.3c0,0.09,0,0.13,0.11,0.13
	v0.22h-0.1c-0.06,0-0.12-0.02-0.16-0.07c-0.04-0.04-0.07-0.1-0.07-0.16V62c-0.12,0.15-0.27,0.28-0.45,0.36
	C43.06,62.45,42.84,62.5,42.61,62.5z M42.61,62.3c0.18,0.01,0.36-0.03,0.53-0.11c0.15-0.06,0.28-0.16,0.37-0.29
	c0.05-0.05,0.09-0.12,0.09-0.2v-0.46c-0.12-0.04-0.25-0.08-0.38-0.1c-0.13-0.01-0.27-0.01-0.4,0c-0.12-0.02-0.24-0.02-0.36,0
	c-0.09,0.02-0.19,0.06-0.27,0.11c-0.15,0.09-0.24,0.25-0.24,0.42c-0.02,0.08-0.02,0.17,0,0.25c0.03,0.07,0.08,0.14,0.14,0.19
	c0.13,0.12,0.3,0.18,0.47,0.18L42.61,62.3z M44.92,58.81h0.26v3.13c-0.01,0.08,0.02,0.17,0.08,0.23c0.06,0.06,0.15,0.08,0.23,0.08
	h0.13h0.14l0.05,0.2c-0.07,0.03-0.14,0.05-0.21,0.06h-0.21c-0.13,0.01-0.25-0.04-0.34-0.13c-0.09-0.09-0.14-0.21-0.13-0.34V58.81z
	 M46.46,58.81h0.26v3.13c0,0.08,0.03,0.16,0.08,0.23c0.06,0.05,0.15,0.08,0.23,0.08h0.13h0.14l0.05,0.2
	c-0.07,0.03-0.14,0.05-0.21,0.06h-0.21c-0.13,0.01-0.25-0.04-0.34-0.13c-0.09-0.09-0.14-0.21-0.13-0.34V58.81z M49.09,62.5
	c-0.18,0-0.35-0.03-0.51-0.11c-0.15-0.07-0.29-0.17-0.41-0.29c-0.11-0.13-0.2-0.27-0.27-0.43c-0.06-0.17-0.09-0.35-0.09-0.53
	c0-0.17,0.03-0.35,0.09-0.51c0.07-0.16,0.16-0.3,0.27-0.43c0.11-0.12,0.25-0.21,0.4-0.28c0.16-0.07,0.33-0.11,0.5-0.11
	c0.18,0,0.35,0.04,0.51,0.11c0.15,0.07,0.29,0.17,0.41,0.29c0.11,0.12,0.2,0.26,0.26,0.42c0.06,0.16,0.1,0.34,0.1,0.51v0.07l0,0
	h-2.28c0.01,0.14,0.04,0.29,0.1,0.42c0.06,0.12,0.13,0.23,0.23,0.33c0.09,0.09,0.19,0.17,0.31,0.22c0.12,0.06,0.26,0.08,0.39,0.08
	c0.09,0.02,0.17,0.02,0.26,0c0.09-0.02,0.17-0.05,0.25-0.1c0.08-0.04,0.14-0.1,0.2-0.16c0.05-0.06,0.1-0.13,0.13-0.2l0.22,0.06
	c-0.03,0.1-0.09,0.19-0.16,0.26c-0.07,0.08-0.15,0.15-0.25,0.2c-0.1,0.06-0.2,0.1-0.31,0.13C49.33,62.49,49.21,62.5,49.09,62.5z
	 M50.09,61.05c-0.01-0.14-0.05-0.28-0.11-0.41c-0.05-0.12-0.13-0.24-0.22-0.33c-0.09-0.09-0.2-0.16-0.32-0.22
	c-0.12-0.05-0.25-0.07-0.38-0.07c-0.13,0-0.27,0.02-0.39,0.07c-0.11,0.06-0.22,0.13-0.31,0.22c-0.09,0.09-0.17,0.21-0.22,0.33
	c-0.06,0.13-0.09,0.27-0.1,0.41H50.09z M52.37,60.08c-0.22,0.01-0.43,0.08-0.61,0.21c-0.18,0.14-0.31,0.33-0.37,0.54v1.62h-0.25
	v-2.59h0.24v0.64c0.08-0.18,0.2-0.33,0.36-0.45c0.14-0.11,0.3-0.18,0.48-0.2h0.15L52.37,60.08z M54,62.49
	c-0.17,0-0.34-0.04-0.49-0.11c-0.15-0.08-0.28-0.18-0.39-0.3c-0.11-0.13-0.19-0.27-0.25-0.43c-0.06-0.16-0.09-0.32-0.09-0.49
	c0-0.17,0.03-0.35,0.08-0.51c0.06-0.16,0.14-0.3,0.25-0.43c0.11-0.12,0.23-0.23,0.38-0.3c0.15-0.07,0.32-0.11,0.49-0.11
	c0.21-0.01,0.42,0.06,0.6,0.18c0.16,0.12,0.31,0.26,0.42,0.43v-0.56h0.23v2.64c0.01,0.16-0.03,0.32-0.1,0.47
	c-0.06,0.13-0.15,0.24-0.26,0.33c-0.12,0.09-0.25,0.15-0.39,0.2c-0.15,0.04-0.31,0.06-0.47,0.06c-0.13,0.02-0.27,0.02-0.4,0
	c-0.11-0.03-0.22-0.07-0.32-0.12c-0.09-0.05-0.18-0.11-0.25-0.19c-0.07-0.07-0.13-0.15-0.18-0.24l0.17-0.12
	c0.09,0.17,0.24,0.31,0.42,0.39c0.18,0.08,0.37,0.12,0.56,0.12c0.13,0.02,0.25,0.02,0.38,0c0.11-0.04,0.22-0.1,0.31-0.17
	c0.08-0.08,0.15-0.16,0.21-0.26c0.07-0.15,0.1-0.31,0.09-0.47v-0.57c-0.1,0.17-0.25,0.31-0.42,0.41C54.4,62.44,54.2,62.49,54,62.49z
	 M54.06,62.28c0.11,0,0.23-0.02,0.33-0.07c0.1-0.04,0.2-0.09,0.28-0.16c0.08-0.06,0.15-0.13,0.21-0.22c0.05-0.08,0.08-0.16,0.1-0.25
	v-0.85c-0.04-0.1-0.09-0.2-0.16-0.28c-0.06-0.09-0.13-0.16-0.22-0.22c-0.09-0.06-0.18-0.11-0.28-0.14c-0.1-0.05-0.21-0.08-0.32-0.09
	c-0.14,0-0.28,0.03-0.41,0.1c-0.13,0.06-0.23,0.15-0.32,0.26c-0.09,0.11-0.15,0.23-0.19,0.36c-0.05,0.13-0.07,0.26-0.07,0.4
	c0,0.15,0.03,0.29,0.08,0.43c0.05,0.13,0.13,0.25,0.22,0.35c0.09,0.11,0.2,0.19,0.33,0.25C53.77,62.23,53.92,62.27,54.06,62.28
	L54.06,62.28z M56.27,59.27v-0.46h0.25v0.46H56.27z M56.27,62.45v-2.59h0.25v2.59H56.27z M57.37,61.14c0-0.18,0.03-0.35,0.1-0.51
	c0.06-0.16,0.14-0.31,0.26-0.43c0.24-0.25,0.57-0.39,0.92-0.39c0.22,0,0.43,0.05,0.62,0.16c0.18,0.1,0.32,0.26,0.41,0.45l-0.25,0.08
	c-0.07-0.14-0.18-0.26-0.32-0.34c-0.14-0.08-0.31-0.12-0.47-0.12c-0.14,0-0.27,0.02-0.4,0.08c-0.12,0.06-0.23,0.14-0.32,0.24
	c-0.1,0.1-0.17,0.22-0.22,0.35c-0.05,0.14-0.08,0.28-0.08,0.43c0,0.15,0.03,0.31,0.08,0.45c0.06,0.13,0.13,0.25,0.22,0.36
	c0.09,0.1,0.21,0.18,0.33,0.24c0.12,0.06,0.25,0.09,0.39,0.09c0.09,0.01,0.18,0.01,0.27,0c0.09-0.03,0.17-0.06,0.25-0.11
	c0.07-0.04,0.14-0.09,0.19-0.15c0.05-0.05,0.09-0.11,0.11-0.18l0.25,0.07c-0.04,0.09-0.09,0.17-0.15,0.25
	c-0.07,0.08-0.15,0.15-0.25,0.2c-0.1,0.06-0.2,0.1-0.31,0.13c-0.12,0.02-0.23,0.02-0.35,0c-0.17,0.01-0.35-0.03-0.5-0.11
	c-0.16-0.07-0.29-0.17-0.41-0.29c-0.12-0.12-0.21-0.27-0.27-0.43C57.4,61.5,57.37,61.32,57.37,61.14z M63.28,60.08
	c-0.22,0.01-0.43,0.08-0.61,0.21c-0.18,0.13-0.31,0.32-0.37,0.54v1.62h-0.25v-2.59h0.24v0.64c0.08-0.18,0.2-0.33,0.36-0.45
	c0.14-0.11,0.3-0.18,0.48-0.2h0.15L63.28,60.08z M65,62.5c-0.18,0.01-0.35-0.03-0.51-0.11c-0.15-0.07-0.29-0.17-0.41-0.29
	c-0.11-0.13-0.2-0.27-0.27-0.43c-0.06-0.17-0.1-0.35-0.1-0.53c0-0.17,0.04-0.35,0.1-0.51c0.07-0.16,0.16-0.3,0.27-0.43
	c0.11-0.12,0.25-0.21,0.4-0.28c0.32-0.14,0.68-0.14,1,0c0.15,0.07,0.29,0.17,0.41,0.29c0.11,0.12,0.2,0.26,0.26,0.42
	c0.06,0.16,0.09,0.34,0.09,0.51v0.11H64c0.01,0.15,0.05,0.29,0.11,0.42c0.05,0.12,0.13,0.24,0.23,0.33c0.09,0.1,0.19,0.17,0.31,0.22
	c0.12,0.06,0.26,0.08,0.39,0.08c0.09,0.01,0.17,0.01,0.26,0c0.09-0.02,0.17-0.05,0.24-0.1c0.08-0.04,0.15-0.09,0.2-0.16
	c0.06-0.06,0.11-0.12,0.14-0.2l0.22,0.06c-0.04,0.1-0.09,0.18-0.16,0.26c-0.07,0.08-0.16,0.15-0.25,0.2c-0.1,0.06-0.2,0.1-0.31,0.13
	C65.25,62.52,65.13,62.52,65,62.5z M66,61.05c-0.01-0.14-0.04-0.28-0.1-0.41c-0.05-0.12-0.13-0.23-0.22-0.33
	c-0.09-0.09-0.2-0.16-0.32-0.22C65.25,60.04,65.12,60.01,65,60c-0.13,0-0.27,0.02-0.39,0.07c-0.11,0.06-0.22,0.13-0.31,0.22
	c-0.1,0.09-0.17,0.2-0.22,0.33c-0.06,0.13-0.09,0.27-0.1,0.41L66,61.05z M67.67,62.5c-0.11,0-0.22-0.02-0.33-0.06
	c-0.1-0.04-0.19-0.09-0.27-0.17c-0.08-0.07-0.14-0.16-0.19-0.25c-0.04-0.1-0.06-0.21-0.06-0.32c-0.01-0.11,0.02-0.22,0.08-0.31
	c0.05-0.1,0.13-0.18,0.22-0.24c0.1-0.07,0.22-0.13,0.34-0.16c0.14-0.04,0.29-0.06,0.44-0.06c0.14-0.01,0.28-0.01,0.42,0
	c0.13,0.02,0.26,0.05,0.38,0.1v-0.26c0.01-0.21-0.06-0.42-0.21-0.58c-0.15-0.15-0.35-0.23-0.56-0.22c-0.14,0-0.28,0.03-0.41,0.08
	c-0.15,0.06-0.3,0.14-0.43,0.23L67,60.15c0.29-0.21,0.64-0.33,1-0.34c0.27-0.01,0.53,0.09,0.73,0.27c0.19,0.2,0.29,0.47,0.27,0.75
	v1.27c0,0.09,0,0.13,0.11,0.13v0.22H69c-0.06,0-0.12-0.02-0.16-0.07c-0.04-0.04-0.07-0.1-0.07-0.16V62
	c-0.12,0.15-0.28,0.27-0.45,0.36C68.12,62.45,67.89,62.5,67.67,62.5z M67.67,62.3c0.18,0.01,0.36-0.03,0.53-0.11
	c0.15-0.06,0.28-0.16,0.37-0.29c0.05-0.05,0.08-0.13,0.08-0.2v-0.46c-0.12-0.04-0.24-0.08-0.37-0.1c-0.13-0.01-0.27-0.01-0.4,0
	c-0.12-0.02-0.24-0.02-0.36,0c-0.09,0.02-0.19,0.06-0.27,0.11c-0.15,0.09-0.24,0.25-0.24,0.42c-0.02,0.08-0.02,0.17,0,0.25
	c0.03,0.07,0.08,0.14,0.14,0.19c0.13,0.12,0.3,0.18,0.47,0.18L67.67,62.3z M69.78,61.14c0-0.18,0.03-0.35,0.1-0.51
	c0.06-0.16,0.14-0.31,0.26-0.43c0.24-0.25,0.57-0.39,0.92-0.39c0.22,0,0.43,0.05,0.62,0.16c0.18,0.1,0.32,0.26,0.41,0.45l-0.25,0.08
	c-0.07-0.14-0.18-0.26-0.32-0.34c-0.14-0.08-0.31-0.12-0.47-0.12c-0.14,0-0.27,0.02-0.4,0.08c-0.12,0.06-0.23,0.14-0.32,0.24
	c-0.2,0.21-0.3,0.49-0.3,0.78c0,0.15,0.03,0.31,0.08,0.45c0.06,0.13,0.13,0.25,0.22,0.36c0.09,0.1,0.21,0.18,0.33,0.24
	c0.12,0.06,0.25,0.09,0.39,0.09c0.09,0.01,0.18,0.01,0.27,0c0.09-0.03,0.17-0.06,0.25-0.11c0.07-0.04,0.14-0.09,0.19-0.15
	c0.05-0.05,0.09-0.11,0.11-0.18l0.25,0.07c-0.04,0.09-0.09,0.17-0.15,0.25c-0.07,0.08-0.15,0.15-0.25,0.2
	c-0.1,0.06-0.2,0.1-0.31,0.13c-0.12,0.02-0.23,0.02-0.35,0c-0.17,0.01-0.35-0.03-0.5-0.11c-0.16-0.07-0.29-0.17-0.41-0.29
	c-0.12-0.12-0.21-0.27-0.27-0.43C69.81,61.5,69.78,61.32,69.78,61.14z M74.09,62.33h-0.07l-0.12,0.06h-0.16
	c-0.07,0.01-0.13,0.01-0.2,0c-0.06,0.01-0.13,0.01-0.19,0c-0.06-0.02-0.11-0.05-0.16-0.09c-0.05-0.04-0.09-0.08-0.11-0.14
	c-0.01-0.07-0.01-0.13,0-0.2v-2h-0.37v-0.2H73V59h0.25v0.89h0.6v0.2h-0.6V62c-0.01,0.08,0.03,0.16,0.09,0.21
	c0.07,0.05,0.15,0.08,0.23,0.08c0.09,0,0.19-0.02,0.27-0.06l0.13-0.06L74.09,62.33z M74.78,59.27v-0.46H75v0.46H74.78z M74.78,62.45
	v-2.59H75v2.59H74.78z M77.15,62.5c-0.18,0.01-0.35-0.03-0.51-0.11c-0.15-0.07-0.29-0.17-0.4-0.29c-0.24-0.25-0.37-0.59-0.36-0.94
	c0-0.18,0.03-0.36,0.1-0.52c0.11-0.32,0.36-0.58,0.67-0.72c0.16-0.07,0.33-0.11,0.5-0.11c0.17,0,0.34,0.04,0.5,0.11
	c0.15,0.07,0.28,0.17,0.4,0.29c0.11,0.13,0.2,0.27,0.27,0.43c0.06,0.17,0.1,0.34,0.1,0.52c0,0.17-0.04,0.35-0.1,0.51
	c-0.06,0.16-0.16,0.3-0.27,0.43c-0.11,0.12-0.25,0.22-0.4,0.29C77.49,62.47,77.32,62.5,77.15,62.5z M76.15,61.17
	c0,0.15,0.03,0.29,0.08,0.43c0.05,0.13,0.12,0.25,0.22,0.35c0.09,0.1,0.2,0.18,0.32,0.24c0.12,0.06,0.25,0.09,0.39,0.09
	c0.14,0,0.28-0.03,0.4-0.09c0.12-0.06,0.23-0.14,0.32-0.24c0.09-0.11,0.17-0.23,0.22-0.36c0.05-0.14,0.08-0.29,0.08-0.44
	c0-0.15-0.03-0.29-0.08-0.43c-0.05-0.13-0.13-0.25-0.22-0.35c-0.09-0.1-0.2-0.18-0.32-0.24c-0.12-0.06-0.25-0.09-0.39-0.09
	c-0.14,0-0.28,0.03-0.4,0.09c-0.12,0.06-0.23,0.14-0.32,0.24c-0.09,0.11-0.17,0.23-0.22,0.36c-0.06,0.14-0.09,0.29-0.1,0.44H76.15z
	 M81.38,62.45h-0.25V61c0.02-0.25-0.03-0.5-0.14-0.73c-0.1-0.15-0.27-0.24-0.45-0.23c-0.11,0-0.22,0.02-0.33,0.06
	c-0.11,0.04-0.21,0.1-0.3,0.17c-0.09,0.07-0.17,0.16-0.24,0.26c-0.07,0.1-0.12,0.2-0.16,0.31v1.61h-0.25v-2.59h0.24v0.62
	c0.05-0.1,0.12-0.19,0.19-0.28c0.09-0.08,0.2-0.15,0.31-0.2c0.1-0.05,0.2-0.1,0.31-0.13c0.11-0.02,0.23-0.02,0.34,0
	c0.24-0.02,0.47,0.09,0.6,0.3c0.13,0.26,0.19,0.56,0.17,0.85L81.38,62.45z M83.21,62.5c-0.19,0-0.39-0.03-0.57-0.1
	c-0.18-0.06-0.35-0.16-0.48-0.3l0.12-0.17c0.13,0.12,0.28,0.21,0.44,0.28c0.16,0.06,0.32,0.09,0.49,0.09
	c0.19,0.01,0.38-0.04,0.55-0.14c0.13-0.09,0.2-0.24,0.2-0.4c0.02-0.07,0.02-0.13,0-0.2c-0.04-0.06-0.1-0.11-0.16-0.14
	c-0.08-0.04-0.17-0.08-0.26-0.1l-0.35-0.1c-0.13-0.02-0.26-0.06-0.39-0.1c-0.09-0.03-0.18-0.07-0.26-0.12
	c-0.07-0.04-0.13-0.1-0.16-0.17c-0.02-0.08-0.02-0.17,0-0.25c0-0.12,0.02-0.23,0.07-0.34c0.05-0.1,0.12-0.18,0.21-0.24
	c0.09-0.06,0.19-0.11,0.3-0.14c0.12-0.02,0.25-0.02,0.37,0c0.18,0,0.37,0.03,0.54,0.1c0.14,0.06,0.27,0.15,0.36,0.27l-0.14,0.13
	c-0.09-0.1-0.2-0.18-0.33-0.22c-0.14-0.05-0.29-0.08-0.44-0.08c-0.09-0.01-0.19-0.01-0.28,0c-0.08,0.02-0.15,0.05-0.22,0.1
	c-0.06,0.04-0.11,0.1-0.15,0.16c-0.05,0.14-0.05,0.29,0,0.43c0.03,0.05,0.07,0.09,0.12,0.12l0.22,0.09l0.31,0.08l0.43,0.11
	c0.11,0.03,0.22,0.08,0.32,0.14c0.08,0.05,0.14,0.11,0.19,0.19c0.05,0.08,0.08,0.18,0.07,0.28c0.01,0.22-0.09,0.42-0.27,0.55
	C83.81,62.48,83.51,62.55,83.21,62.5z M89.72,59.86H90l-1.12,2.59h-0.21l-0.58-1.37l-0.59,1.37h-0.21l-1.12-2.59h0.24l1,2.32
	l0.54-1.28l-0.44-1h0.22l0.36,0.86l0.35-0.86h0.22l-0.44,1l0.54,1.28L89.72,59.86z M90.71,59.27v-0.46H91v0.46H90.71z M90.71,62.45
	v-2.59H91v2.59H90.71z M93.15,62.33h-0.07l-0.12,0.06H92.8c-0.07,0.01-0.13,0.01-0.2,0c-0.07,0.01-0.13,0.01-0.2,0
	c-0.06-0.02-0.11-0.05-0.16-0.09c-0.04-0.04-0.08-0.09-0.11-0.14c-0.01-0.07-0.01-0.13,0-0.2v-2h-0.36v-0.2h0.36V59h0.25v0.89H93
	v0.2h-0.61V62c0,0.08,0.03,0.16,0.1,0.21c0.07,0.05,0.15,0.08,0.23,0.08c0.09,0,0.18-0.02,0.26-0.06l0.14-0.06L93.15,62.33z
	 M96,62.45h-0.3V61c0-0.64-0.21-1-0.64-1c-0.11,0-0.21,0.02-0.31,0.06c-0.1,0.04-0.2,0.1-0.29,0.17c-0.09,0.08-0.16,0.16-0.23,0.26
	c-0.06,0.1-0.11,0.2-0.15,0.31v1.61h-0.25v-3.6h0.25v1.67c0.1-0.2,0.25-0.37,0.44-0.49c0.18-0.12,0.39-0.18,0.61-0.18
	c0.13,0,0.25,0.03,0.37,0.08c0.1,0.05,0.19,0.13,0.26,0.23c0.07,0.11,0.12,0.23,0.15,0.36c0.05,0.17,0.08,0.34,0.09,0.52V62.45z
	 M98.26,62.27l1.84-2.22h-1.81v-0.19h2.09V60l-1.84,2.22h1.83v0.19h-2.11V62.27z M102.22,62.5c-0.18,0.01-0.35-0.03-0.51-0.11
	c-0.15-0.07-0.29-0.17-0.41-0.29c-0.11-0.13-0.2-0.27-0.27-0.43c-0.06-0.17-0.1-0.35-0.1-0.53c0-0.17,0.04-0.35,0.1-0.51
	c0.07-0.16,0.16-0.3,0.27-0.43c0.11-0.12,0.25-0.21,0.4-0.28c0.16-0.07,0.33-0.11,0.5-0.11c0.18,0,0.35,0.04,0.51,0.11
	c0.15,0.07,0.29,0.17,0.4,0.29c0.12,0.12,0.21,0.26,0.27,0.42c0.06,0.16,0.09,0.34,0.09,0.51v0.11h-2.28
	c0.01,0.15,0.05,0.29,0.11,0.42c0.05,0.12,0.13,0.24,0.23,0.33c0.09,0.1,0.19,0.17,0.31,0.22c0.12,0.06,0.26,0.08,0.39,0.08
	c0.09,0.01,0.17,0.01,0.26,0c0.09-0.02,0.17-0.05,0.24-0.1c0.08-0.04,0.15-0.09,0.2-0.16c0.06-0.06,0.11-0.12,0.14-0.2l0.22,0.06
	c-0.04,0.1-0.09,0.18-0.16,0.26c-0.07,0.08-0.16,0.15-0.25,0.2c-0.1,0.06-0.2,0.1-0.31,0.13C102.45,62.51,102.34,62.52,102.22,62.5z
	 M103.22,61.05c-0.01-0.14-0.04-0.28-0.1-0.41c-0.05-0.12-0.13-0.23-0.22-0.33c-0.09-0.09-0.2-0.16-0.32-0.22
	c-0.12-0.05-0.25-0.07-0.38-0.07c-0.13,0-0.27,0.02-0.39,0.07c-0.11,0.06-0.22,0.13-0.31,0.22c-0.1,0.09-0.17,0.2-0.22,0.33
	c-0.06,0.13-0.09,0.27-0.1,0.41H103.22z M105.5,60.08c-0.22,0.01-0.43,0.08-0.61,0.21c-0.18,0.13-0.31,0.32-0.37,0.54v1.62h-0.25
	v-2.59h0.24v0.64c0.08-0.18,0.2-0.33,0.36-0.45c0.14-0.11,0.3-0.18,0.48-0.2h0.15V60.08z M107.18,62.5
	c-0.17,0.01-0.35-0.03-0.5-0.11c-0.16-0.07-0.3-0.17-0.41-0.29c-0.12-0.12-0.2-0.27-0.26-0.43c-0.06-0.16-0.1-0.34-0.1-0.51
	c0-0.18,0.04-0.35,0.1-0.52c0.07-0.16,0.16-0.3,0.27-0.43c0.11-0.12,0.25-0.22,0.4-0.29c0.32-0.15,0.68-0.15,1,0
	c0.15,0.07,0.29,0.17,0.4,0.29c0.12,0.12,0.21,0.27,0.27,0.43c0.07,0.16,0.1,0.34,0.1,0.52c0,0.18-0.03,0.35-0.1,0.51
	c-0.06,0.16-0.15,0.31-0.27,0.43C107.85,62.35,107.52,62.5,107.18,62.5z M106.18,61.17c0,0.29,0.1,0.57,0.3,0.78
	c0.09,0.1,0.2,0.18,0.32,0.24c0.12,0.06,0.26,0.09,0.4,0.09c0.14,0,0.27-0.03,0.39-0.09c0.12-0.06,0.23-0.14,0.33-0.24
	c0.09-0.11,0.16-0.23,0.21-0.36c0.06-0.14,0.09-0.29,0.08-0.44c0-0.15-0.02-0.29-0.08-0.43c-0.05-0.13-0.12-0.25-0.21-0.35
	c-0.1-0.1-0.21-0.18-0.33-0.24c-0.25-0.12-0.53-0.12-0.78,0c-0.12,0.06-0.23,0.14-0.32,0.24c-0.1,0.1-0.17,0.23-0.22,0.36
	c-0.07,0.14-0.1,0.29-0.11,0.44H106.18z M110.85,58.81h0.25v3.13c0,0.09,0.03,0.17,0.09,0.23c0.06,0.05,0.14,0.08,0.22,0.08h0.14
	h0.14v0.2c-0.07,0.03-0.14,0.05-0.21,0.06h-0.22c-0.12,0.01-0.24-0.04-0.33-0.13c-0.09-0.09-0.14-0.21-0.13-0.34L110.85,58.81z
	 M113,62.5c-0.34,0.01-0.65-0.18-0.79-0.48c-0.04-0.1-0.06-0.21-0.06-0.32c-0.01-0.11,0.02-0.22,0.08-0.31
	c0.05-0.1,0.13-0.18,0.22-0.24c0.1-0.07,0.22-0.13,0.34-0.16c0.14-0.04,0.29-0.06,0.44-0.06c0.14-0.01,0.28-0.01,0.42,0
	c0.13,0.02,0.26,0.05,0.38,0.1v-0.26c0.01-0.21-0.06-0.42-0.21-0.58c-0.15-0.15-0.36-0.23-0.57-0.22c-0.14,0-0.27,0.03-0.4,0.08
	c-0.15,0.06-0.3,0.14-0.43,0.23l-0.09-0.17c0.27-0.2,0.6-0.32,0.94-0.34c0.27-0.02,0.54,0.08,0.74,0.27
	c0.19,0.2,0.29,0.47,0.27,0.75v1.31c0,0.09,0,0.13,0.11,0.13v0.22h-0.1c-0.06,0-0.12-0.02-0.16-0.07c-0.04-0.04-0.07-0.1-0.07-0.16
	V62c-0.12,0.15-0.28,0.28-0.46,0.36C113.41,62.45,113.21,62.5,113,62.5z M113,62.3c0.18,0.01,0.36-0.03,0.53-0.11
	c0.15-0.06,0.28-0.16,0.37-0.29c0.05-0.05,0.08-0.13,0.08-0.2v-0.46c-0.12-0.04-0.24-0.08-0.37-0.1c-0.14-0.01-0.27-0.01-0.41,0
	c-0.12-0.02-0.23-0.02-0.35,0c-0.1,0.02-0.19,0.06-0.27,0.11c-0.15,0.09-0.24,0.25-0.24,0.42c-0.02,0.08-0.02,0.17,0,0.25
	c0.03,0.07,0.08,0.14,0.14,0.19c0.13,0.12,0.3,0.18,0.47,0.18L113,62.3z M116.44,62.33h-0.07l-0.12,0.06h-0.16
	c-0.07,0.01-0.13,0.01-0.2,0c-0.06,0.01-0.13,0.01-0.19,0c-0.06-0.02-0.12-0.05-0.17-0.09c-0.04-0.04-0.08-0.09-0.11-0.14
	c-0.01-0.07-0.01-0.13,0-0.2v-2H115v-0.2h0.37V59h0.24v0.89h0.61v0.2h-0.61V62c0,0.08,0.03,0.16,0.1,0.21
	c0.07,0.05,0.15,0.08,0.23,0.08c0.09,0,0.19-0.02,0.27-0.06l0.13-0.06L116.44,62.33z M118.16,62.5c-0.17,0.01-0.35-0.03-0.5-0.11
	c-0.16-0.07-0.29-0.17-0.41-0.29c-0.12-0.12-0.21-0.27-0.27-0.43c-0.07-0.17-0.1-0.35-0.1-0.53c0-0.18,0.03-0.35,0.1-0.51
	c0.06-0.16,0.15-0.31,0.27-0.43c0.11-0.12,0.25-0.22,0.4-0.28c0.16-0.07,0.33-0.11,0.5-0.11c0.18,0,0.35,0.04,0.51,0.11
	c0.15,0.07,0.29,0.17,0.4,0.29c0.12,0.12,0.21,0.26,0.27,0.42c0.06,0.16,0.09,0.34,0.09,0.51v0.11h-2.28
	c0.01,0.15,0.05,0.29,0.11,0.42c0.05,0.12,0.13,0.23,0.22,0.33c0.09,0.1,0.2,0.17,0.32,0.22c0.21,0.08,0.44,0.08,0.65,0
	c0.09-0.02,0.17-0.05,0.24-0.1c0.08-0.04,0.15-0.09,0.2-0.16c0.06-0.06,0.11-0.13,0.14-0.2l0.22,0.06c-0.04,0.1-0.09,0.18-0.16,0.26
	c-0.07,0.08-0.16,0.15-0.25,0.2c-0.1,0.06-0.21,0.1-0.32,0.13C118.4,62.46,118.28,62.49,118.16,62.5z M119.16,61.05
	c-0.01-0.14-0.04-0.28-0.1-0.41c-0.05-0.12-0.13-0.23-0.22-0.33c-0.1-0.09-0.2-0.16-0.32-0.22c-0.12-0.05-0.26-0.07-0.39-0.07
	c-0.13,0-0.26,0.02-0.38,0.07c-0.12,0.06-0.23,0.13-0.32,0.22c-0.09,0.1-0.17,0.21-0.22,0.33c-0.05,0.13-0.08,0.27-0.09,0.41H119.16
	z M120.1,59.86l0.83,1.07V61v-0.07l0.84-1.07h0.28l-1,1.3l1,1.29h-0.27L121,61.38v-0.06v0.06l-0.83,1.07h-0.27l1-1.29l-1-1.3H120.1z
	 M125.61,60.08c-0.22,0.01-0.43,0.08-0.61,0.21c-0.18,0.13-0.31,0.32-0.37,0.54v1.62h-0.25v-2.59h0.24v0.64
	c0.08-0.18,0.2-0.33,0.36-0.45c0.13-0.11,0.3-0.18,0.47-0.2h0.16V60.08z M127.14,62.5c-0.56,0-0.83-0.38-0.83-1.15v-1.49h0.25v1.46
	c0,0.64,0.22,1,0.65,1c0.11,0,0.22-0.02,0.32-0.06c0.1-0.04,0.2-0.09,0.29-0.16c0.09-0.07,0.17-0.15,0.24-0.25
	c0.07-0.1,0.13-0.21,0.16-0.32v-1.67h0.25v2.24c0,0.09,0,0.13,0.1,0.13v0.22h-0.07c-0.07,0-0.13-0.02-0.18-0.07
	c-0.05-0.04-0.08-0.1-0.08-0.16v-0.39c-0.1,0.2-0.26,0.37-0.46,0.49C127.59,62.43,127.37,62.5,127.14,62.5z M130.72,62.5
	c-0.2,0-0.4-0.05-0.57-0.16c-0.17-0.1-0.31-0.24-0.41-0.41v0.52h-0.23v-3.64h0.25v1.61c0.12-0.18,0.26-0.32,0.44-0.44
	c0.17-0.12,0.37-0.17,0.58-0.17c0.17,0,0.35,0.04,0.5,0.12c0.14,0.08,0.27,0.18,0.37,0.31c0.1,0.13,0.18,0.27,0.23,0.43
	c0.06,0.16,0.09,0.32,0.09,0.49c0,0.18-0.04,0.35-0.1,0.52c-0.06,0.16-0.15,0.3-0.26,0.42c-0.11,0.12-0.24,0.22-0.39,0.29
	C131.06,62.46,130.89,62.5,130.72,62.5z M130.67,62.28c0.15,0,0.29-0.03,0.42-0.1c0.13-0.06,0.24-0.14,0.33-0.25
	c0.09-0.11,0.16-0.23,0.21-0.36c0.06-0.13,0.08-0.27,0.08-0.41c0-0.14-0.02-0.29-0.07-0.42c-0.05-0.13-0.12-0.25-0.2-0.36
	c-0.09-0.1-0.2-0.19-0.32-0.25c-0.12-0.06-0.26-0.09-0.4-0.09c-0.11,0-0.21,0.02-0.31,0.05c-0.1,0.04-0.19,0.09-0.27,0.16
	c-0.08,0.06-0.16,0.14-0.22,0.22c-0.06,0.08-0.12,0.17-0.16,0.26v0.85c0.01,0.1,0.05,0.2,0.11,0.28c0.06,0.08,0.14,0.15,0.23,0.21
	c0.08,0.07,0.18,0.12,0.28,0.15C130.47,62.26,130.57,62.28,130.67,62.28z M134,62.5c-0.2,0.01-0.4-0.05-0.57-0.16
	c-0.17-0.1-0.32-0.24-0.42-0.41v0.52h-0.23v-3.64h0.25v1.61c0.12-0.17,0.27-0.32,0.44-0.44c0.17-0.12,0.37-0.17,0.58-0.17
	c0.17,0,0.35,0.04,0.5,0.12c0.14,0.08,0.27,0.18,0.37,0.31c0.1,0.13,0.18,0.28,0.24,0.43c0.05,0.16,0.08,0.32,0.08,0.49
	c0,0.18-0.03,0.35-0.09,0.52c-0.07,0.15-0.16,0.3-0.27,0.42c-0.11,0.12-0.24,0.22-0.39,0.29C134.34,62.46,134.17,62.5,134,62.5z
	 M133.95,62.28c0.15,0,0.29-0.03,0.42-0.1c0.12-0.06,0.23-0.15,0.32-0.25c0.1-0.1,0.17-0.23,0.22-0.36
	c0.05-0.13,0.08-0.27,0.08-0.41c0-0.14-0.03-0.29-0.08-0.42c-0.04-0.13-0.11-0.25-0.2-0.36c-0.09-0.1-0.2-0.19-0.32-0.25
	c-0.12-0.07-0.25-0.12-0.39-0.13c-0.11,0-0.21,0.02-0.31,0.05c-0.09,0.04-0.18,0.09-0.26,0.16c-0.09,0.06-0.16,0.13-0.22,0.22
	c-0.07,0.08-0.12,0.17-0.17,0.26v0.85c0.01,0.1,0.05,0.2,0.11,0.28c0.07,0.08,0.14,0.15,0.23,0.21c0.09,0.07,0.18,0.12,0.29,0.15
	c0.1,0.06,0.21,0.09,0.33,0.1H133.95z M137.22,62.5c-0.18,0-0.35-0.03-0.51-0.11c-0.15-0.07-0.29-0.17-0.4-0.29
	c-0.12-0.12-0.21-0.27-0.27-0.43c-0.07-0.17-0.1-0.35-0.1-0.53c0-0.18,0.03-0.35,0.1-0.51c0.06-0.16,0.15-0.3,0.26-0.43
	c0.12-0.12,0.25-0.21,0.4-0.28c0.16-0.07,0.33-0.11,0.51-0.11c0.17,0,0.34,0.04,0.5,0.11c0.16,0.07,0.29,0.17,0.41,0.29
	c0.11,0.12,0.2,0.26,0.26,0.42c0.07,0.16,0.1,0.33,0.1,0.51v0.07l0,0h-2.28c0.01,0.14,0.04,0.29,0.1,0.42
	c0.06,0.12,0.13,0.23,0.23,0.33c0.09,0.1,0.2,0.17,0.32,0.22c0.12,0.06,0.25,0.08,0.38,0.08c0.09,0.01,0.18,0.01,0.27,0
	c0.08-0.02,0.17-0.05,0.24-0.1c0.08-0.04,0.14-0.1,0.2-0.16c0.06-0.06,0.1-0.12,0.13-0.2l0.22,0.06c-0.03,0.1-0.09,0.19-0.16,0.26
	c-0.07,0.08-0.15,0.15-0.25,0.2c-0.1,0.06-0.2,0.1-0.31,0.13C137.46,62.49,137.34,62.5,137.22,62.5z M138.22,61.05
	c-0.01-0.14-0.04-0.28-0.1-0.41c-0.06-0.12-0.13-0.23-0.23-0.33c-0.09-0.09-0.2-0.16-0.31-0.22c-0.12-0.05-0.26-0.07-0.39-0.07
	c-0.13,0-0.26,0.02-0.38,0.07c-0.12,0.06-0.23,0.13-0.32,0.22c-0.09,0.1-0.17,0.21-0.22,0.33c-0.05,0.13-0.09,0.27-0.1,0.41H138.22z
	 M140.5,60.08c-0.22,0.01-0.43,0.08-0.61,0.21c-0.18,0.13-0.3,0.32-0.36,0.54v1.62h-0.25v-2.59h0.24v0.64
	c0.08-0.18,0.2-0.33,0.35-0.45c0.14-0.11,0.3-0.18,0.48-0.2h0.15V60.08z M140.94,62.45V62h0.22v0.42L140.94,62.45z"/>
<path class="st2" d="M1.2,31.18V20.54h0.3v10.34h6.69v0.3L1.2,31.18z M13.32,20.54h0.27l4.63,10.64h-0.33l-1.66-3.8h-5.57L9,31.18
	H8.67L13.32,20.54z M16.09,27.08L13.45,21l-2.67,6.11L16.09,27.08z M26.18,20.84H22.1v10.34h-0.29V20.84h-4.08v-0.3h8.45V20.84z
	 M34.93,30.88v0.3h-7V20.54h6.85v0.3h-6.54v4.75H34v0.3h-5.76v5L34.93,30.88z M36.26,20.54l4.11,5.16l4.11-5.16h0.37l-4.3,5.4
	l4.18,5.24h-0.37l-4-5l-4,5H36l4.19-5.24l-4.31-5.4H36.26z M45.65,27.27V27h4.24v0.3L45.65,27.27z M55.62,20.54h0.27l4.64,10.64
	H60.2l-1.67-3.8H53l-1.67,3.8H51L55.62,20.54z M58.4,27.08L55.76,21l-2.67,6.11L58.4,27.08z M62.3,31.18V20.54h0.3v10.34h6.68v0.3
	L62.3,31.18z M71,31.18V20.54h0.3v10.34H78v0.3L71,31.18z M86.65,30.88v0.3h-7V20.54h6.86v0.3H80v4.75h5.75v0.3H80v5L86.65,30.88z
	 M88.91,31.18V20.54h4.34c0.42,0,0.83,0.09,1.2,0.27c0.38,0.17,0.72,0.43,1,0.74c0.26,0.29,0.47,0.63,0.62,1
	c0.15,0.38,0.23,0.78,0.23,1.18c0,0.4-0.07,0.81-0.2,1.19c-0.12,0.36-0.31,0.7-0.55,1c-0.24,0.29-0.53,0.53-0.86,0.72
	c-0.34,0.18-0.72,0.29-1.11,0.32l2.7,4.18h-0.36L93.17,27h-4v4.18H88.91z M89.21,26.7h4.14c0.38,0.01,0.75-0.08,1.08-0.25
	c0.32-0.17,0.59-0.39,0.82-0.67c0.23-0.28,0.4-0.6,0.52-0.94c0.14-0.34,0.21-0.71,0.23-1.08c0-0.37-0.07-0.74-0.21-1.09
	c-0.13-0.34-0.33-0.66-0.58-0.93c-0.24-0.27-0.54-0.49-0.86-0.66c-0.31-0.15-0.65-0.23-1-0.24h-4L89.21,26.7z M106.64,29.37
	c-0.93,1.17-2.34,1.87-3.84,1.89c-0.69,0-1.38-0.16-2-0.47c-0.61-0.31-1.15-0.73-1.59-1.24c-0.44-0.51-0.77-1.1-1-1.73
	c-0.25-0.64-0.37-1.32-0.37-2c0.01-1.37,0.48-2.69,1.35-3.74c0.42-0.5,0.94-0.91,1.53-1.21c0.62-0.31,1.31-0.46,2-0.45
	c0.5,0,0.99,0.05,1.47,0.17c0.4,0.11,0.78,0.27,1.14,0.48c0.32,0.2,0.61,0.45,0.85,0.74c0.24,0.29,0.44,0.61,0.61,0.94l-0.29,0.09
	c-0.35-0.69-0.89-1.25-1.57-1.62c-0.69-0.34-1.44-0.51-2.21-0.5c-0.66-0.01-1.3,0.14-1.89,0.44c-0.55,0.29-1.04,0.69-1.43,1.17
	c-0.44,0.49-0.78,1.05-1.01,1.67c-0.21,0.6-0.31,1.23-0.31,1.86c0,0.66,0.12,1.31,0.36,1.93c0.24,0.59,0.57,1.14,1,1.62
	c0.42,0.47,0.93,0.85,1.5,1.13c0.57,0.28,1.2,0.42,1.84,0.42c0.7,0,1.38-0.16,2-0.48c0.71-0.37,1.34-0.87,1.86-1.48v-2.58h-2.5v-0.3
	h2.8v5.06h-0.3V29.37z M108.1,20.54l4.1,6.17l4.13-6.17h0.34l-4.32,6.52v4.12h-0.3V27l-4.3-6.49L108.1,20.54z M121.91,31.18V20.54
	h6.85v0.3h-6.55v4.74h5.59v0.3h-5.59v5.3H121.91z M130.93,31.18V20.54h4.34c0.42,0,0.83,0.09,1.2,0.27
	c0.36,0.18,0.69,0.43,0.95,0.74c0.26,0.29,0.47,0.63,0.62,1c0.15,0.38,0.23,0.78,0.23,1.18c0,0.4-0.07,0.81-0.2,1.19
	c-0.12,0.36-0.31,0.7-0.55,1c-0.24,0.29-0.53,0.53-0.86,0.72c-0.34,0.18-0.72,0.29-1.11,0.32l2.7,4.18h-0.36l-2.7-4.14h-4v4.18
	H130.93z M131.23,26.7h4.14c0.38,0.01,0.75-0.08,1.08-0.25c0.32-0.17,0.59-0.39,0.82-0.67c0.23-0.28,0.4-0.6,0.52-0.94
	c0.12-0.35,0.18-0.71,0.18-1.08c0-0.37-0.07-0.74-0.21-1.09c-0.13-0.34-0.33-0.66-0.58-0.93c-0.24-0.27-0.54-0.49-0.86-0.66
	c-0.31-0.15-0.65-0.23-1-0.24h-4L131.23,26.7z M147.55,30.88v0.3h-7V20.54h6.86v0.3h-6.56v4.75h5.75v0.3h-5.75v5L147.55,30.88z
	 M156.8,30.88v0.3h-7V20.54h6.85v0.3h-6.55v4.75h5.74v0.3h-5.74v5L156.8,30.88z M161.81,46.9h-161v0.2h161V46.9z"/>
</svg>
