<?xml version="1.0" encoding="utf-8"?>
<!-- Generator: Adobe Illustrator 22.0.0, SVG Export Plug-In . SVG Version: 6.00 Build 0)  -->
<svg version="1.1" id="Layer_2" xmlns="http://www.w3.org/2000/svg" xmlns:xlink="http://www.w3.org/1999/xlink" x="0px" y="0px"
	 viewBox="0 0 118.62 34.65" style="enable-background:new 0 0 118.62 34.65;" xml:space="preserve">
<style type="text/css">
	.st0{fill:#020202;}
</style>
<path class="st0" d="M2.7,3.46v0.23H0.34V0.15h2.31v0.23H0.59v1.39h1.8v0.22h-1.8v1.47H2.7z M3.53,1.1l0.84,1.07v0.07V2.17L5.2,1.1
	h0.28l-1,1.3l1,1.29h-0.2L4.45,2.63V2.56v0.07L3.62,3.69H3.26l1-1.29l-1-1.3H3.53z M7.55,3.74c-0.21,0-0.41-0.06-0.59-0.17
	C6.79,3.46,6.64,3.31,6.54,3.13v1.63H6.29V1.1h0.23v0.53c0.1-0.17,0.25-0.31,0.42-0.41C7.11,1.12,7.3,1.07,7.5,1.07
	c0.17,0,0.34,0.03,0.5,0.11c0.3,0.15,0.53,0.41,0.65,0.73c0.06,0.16,0.09,0.33,0.09,0.5c0,0.18-0.03,0.35-0.08,0.52
	C8.6,3.09,8.52,3.23,8.41,3.35c-0.1,0.12-0.23,0.23-0.37,0.3C7.89,3.72,7.72,3.75,7.55,3.74z M7.49,3.52c0.14,0,0.28-0.03,0.41-0.1
	c0.12-0.06,0.23-0.14,0.32-0.25c0.09-0.11,0.15-0.23,0.2-0.36C8.46,2.68,8.49,2.54,8.49,2.4c0-0.14-0.03-0.29-0.08-0.42
	C8.36,1.85,8.28,1.73,8.18,1.63c-0.09-0.11-0.2-0.2-0.33-0.26c-0.12-0.06-0.26-0.09-0.4-0.09c-0.1,0-0.2,0.02-0.29,0.06
	c-0.1,0.04-0.19,0.09-0.28,0.15C6.79,1.55,6.72,1.63,6.65,1.71c-0.06,0.08-0.1,0.17-0.11,0.27v0.85C6.58,2.93,6.63,3.02,6.7,3.1
	c0.07,0.08,0.14,0.16,0.23,0.22C7.01,3.38,7.1,3.43,7.19,3.47C7.29,3.5,7.39,3.52,7.49,3.52z M10.69,3.74
	c-0.18,0-0.35-0.03-0.51-0.1c-0.15-0.07-0.29-0.18-0.4-0.3C9.66,3.22,9.57,3.07,9.51,2.91c-0.07-0.16-0.1-0.34-0.1-0.52
	c0-0.18,0.03-0.36,0.1-0.52c0.06-0.16,0.15-0.3,0.26-0.42c0.12-0.12,0.25-0.22,0.4-0.29c0.16-0.07,0.33-0.1,0.51-0.1
	c0.17,0,0.34,0.03,0.5,0.1c0.16,0.07,0.29,0.17,0.41,0.29c0.12,0.12,0.2,0.27,0.26,0.43c0.07,0.16,0.1,0.33,0.1,0.51v0.06l0,0H9.67
	c0.01,0.14,0.04,0.28,0.1,0.41C9.83,2.98,9.9,3.09,10,3.19c0.09,0.1,0.2,0.17,0.32,0.22c0.12,0.06,0.25,0.08,0.38,0.08h0.27
	c0.08-0.03,0.16-0.07,0.24-0.11c0.07-0.04,0.14-0.09,0.2-0.15c0.05-0.06,0.1-0.13,0.13-0.2l0.22,0.06
	c-0.04,0.09-0.09,0.18-0.16,0.25c-0.07,0.08-0.15,0.15-0.25,0.2c-0.1,0.06-0.2,0.11-0.31,0.14C10.93,3.72,10.81,3.74,10.69,3.74z
	 M11.69,2.3c-0.01-0.14-0.04-0.29-0.1-0.42c-0.06-0.12-0.13-0.23-0.23-0.33c-0.09-0.09-0.2-0.16-0.32-0.21
	c-0.12-0.05-0.25-0.08-0.38-0.08c-0.13,0-0.26,0.03-0.38,0.08c-0.12,0.05-0.23,0.12-0.32,0.21c-0.09,0.1-0.17,0.21-0.22,0.33
	C9.69,2.01,9.65,2.16,9.64,2.3H11.69z M13.97,1.32c-0.22,0.01-0.43,0.08-0.61,0.21c-0.18,0.13-0.3,0.32-0.36,0.54v1.62h-0.25V1.1
	h0.24v0.64c0.08-0.17,0.2-0.33,0.35-0.45c0.14-0.11,0.31-0.18,0.48-0.2h0.15L13.97,1.32z M14.7,0.51V0.05h0.24v0.46H14.7z
	 M14.7,3.69V1.1h0.24v2.59H14.7z M17.08,3.74c-0.18,0-0.35-0.03-0.51-0.1c-0.15-0.07-0.29-0.18-0.41-0.3
	c-0.11-0.13-0.2-0.27-0.27-0.43c-0.06-0.17-0.09-0.34-0.09-0.52c0-0.18,0.03-0.35,0.09-0.52c0.07-0.15,0.16-0.3,0.27-0.42
	c0.11-0.12,0.25-0.22,0.4-0.29c0.16-0.07,0.33-0.1,0.5-0.1c0.18,0,0.35,0.03,0.51,0.1c0.15,0.07,0.29,0.17,0.41,0.29
	c0.12,0.12,0.2,0.27,0.26,0.43c0.06,0.16,0.1,0.34,0.1,0.51v0.06l0,0h-2.28c0.01,0.14,0.04,0.28,0.1,0.41
	c0.06,0.12,0.13,0.23,0.23,0.33c0.09,0.1,0.2,0.17,0.32,0.22c0.12,0.06,0.25,0.08,0.38,0.08c0.09,0.01,0.17,0.01,0.26,0
	c0.09-0.03,0.17-0.06,0.25-0.11c0.07-0.04,0.14-0.09,0.2-0.15c0.05-0.06,0.1-0.13,0.13-0.2l0.22,0.06
	c-0.04,0.09-0.09,0.18-0.16,0.25c-0.07,0.08-0.15,0.15-0.25,0.2c-0.1,0.06-0.2,0.11-0.31,0.14C17.32,3.72,17.2,3.74,17.08,3.74z
	 M18.08,2.3c-0.01-0.15-0.05-0.29-0.11-0.42c-0.05-0.12-0.13-0.24-0.22-0.33c-0.09-0.09-0.2-0.16-0.32-0.21
	c-0.24-0.11-0.52-0.11-0.76,0c-0.12,0.05-0.23,0.12-0.32,0.21c-0.09,0.09-0.17,0.21-0.22,0.33c-0.06,0.13-0.09,0.28-0.1,0.42H18.08z
	 M21.25,3.69H21V2.25c0.02-0.25-0.03-0.51-0.14-0.74c-0.1-0.15-0.27-0.24-0.45-0.23c-0.11,0-0.22,0.02-0.33,0.06
	c-0.11,0.05-0.21,0.1-0.3,0.17c-0.09,0.08-0.17,0.16-0.24,0.26c-0.07,0.1-0.12,0.21-0.16,0.32v1.6h-0.25V1.1h0.24v0.62
	c0.05-0.1,0.12-0.19,0.2-0.27c0.08-0.08,0.16-0.15,0.26-0.21c0.1-0.06,0.2-0.11,0.31-0.14c0.11-0.02,0.23-0.02,0.34,0
	c0.24-0.02,0.47,0.09,0.6,0.29c0.13,0.26,0.19,0.56,0.17,0.85L21.25,3.69z M22.08,2.39c0-0.18,0.03-0.35,0.09-0.52
	c0.06-0.16,0.15-0.31,0.27-0.43c0.11-0.12,0.25-0.22,0.4-0.28c0.16-0.07,0.33-0.1,0.51-0.1c0.22,0,0.44,0.05,0.63,0.15
	c0.18,0.11,0.32,0.26,0.4,0.45l-0.24,0.08c-0.08-0.14-0.19-0.26-0.33-0.34c-0.14-0.08-0.31-0.12-0.47-0.12
	c-0.14,0-0.27,0.03-0.4,0.08c-0.12,0.06-0.23,0.14-0.32,0.24c-0.09,0.1-0.16,0.22-0.21,0.35c-0.06,0.14-0.08,0.29-0.08,0.44
	c0,0.15,0.02,0.3,0.08,0.44c0.05,0.13,0.12,0.26,0.22,0.36c0.09,0.1,0.2,0.18,0.32,0.24c0.12,0.06,0.26,0.09,0.4,0.09
	c0.09,0.01,0.18,0.01,0.27,0c0.08-0.03,0.17-0.06,0.24-0.11c0.07-0.04,0.14-0.09,0.19-0.15c0.05-0.05,0.09-0.11,0.12-0.18l0.24,0.07
	c-0.03,0.09-0.08,0.18-0.15,0.25c-0.07,0.08-0.15,0.15-0.24,0.2c-0.1,0.06-0.2,0.1-0.31,0.14c-0.12,0.02-0.23,0.02-0.35,0
	c-0.18,0-0.35-0.04-0.51-0.11c-0.15-0.07-0.29-0.18-0.41-0.3c-0.11-0.13-0.2-0.27-0.27-0.43C22.11,2.74,22.08,2.56,22.08,2.39z
	 M26.3,3.74c-0.18,0-0.35-0.03-0.51-0.1c-0.15-0.07-0.29-0.18-0.4-0.3c-0.12-0.12-0.21-0.27-0.27-0.43c-0.07-0.16-0.1-0.34-0.1-0.52
	c0-0.18,0.03-0.36,0.1-0.52c0.06-0.16,0.15-0.3,0.26-0.42c0.12-0.12,0.26-0.22,0.41-0.29c0.16-0.07,0.33-0.1,0.5-0.1
	c0.18,0,0.35,0.03,0.51,0.1c0.15,0.07,0.29,0.17,0.4,0.29c0.12,0.12,0.2,0.27,0.26,0.43c0.07,0.16,0.1,0.33,0.1,0.51v0.06l0,0h-2.28
	c0.01,0.14,0.04,0.28,0.1,0.41c0.06,0.12,0.13,0.23,0.23,0.33c0.09,0.1,0.2,0.17,0.32,0.22c0.12,0.06,0.25,0.08,0.38,0.08h0.27
	c0.08-0.03,0.16-0.07,0.24-0.11c0.07-0.04,0.14-0.09,0.2-0.15c0.06-0.06,0.1-0.13,0.13-0.2l0.22,0.06
	c-0.04,0.09-0.09,0.18-0.16,0.25c-0.07,0.08-0.15,0.15-0.25,0.2c-0.1,0.06-0.2,0.11-0.31,0.14C26.54,3.72,26.42,3.74,26.3,3.74z
	 M27.3,2.3c0-0.15-0.04-0.29-0.1-0.42c-0.06-0.12-0.13-0.23-0.23-0.33c-0.09-0.09-0.19-0.16-0.31-0.21
	c-0.12-0.05-0.26-0.08-0.39-0.08c-0.26,0-0.51,0.11-0.7,0.29c-0.09,0.1-0.17,0.21-0.22,0.33c-0.05,0.13-0.09,0.28-0.1,0.42H27.3z
	 M31.04,3.57h-0.06l-0.13,0.06h-0.16c-0.07,0.01-0.13,0.01-0.2,0c-0.07,0.01-0.13,0.01-0.2,0c-0.06-0.02-0.11-0.05-0.16-0.09
	c-0.04-0.04-0.08-0.09-0.11-0.14c-0.01-0.07-0.01-0.13,0-0.2v-2h-0.36V1h0.36V0.11h0.25V1h0.58v0.2h-0.61v1.9
	c-0.01,0.09,0.03,0.17,0.1,0.22c0.07,0.04,0.15,0.07,0.23,0.07c0.09,0.02,0.17,0.02,0.26,0l0.14-0.07L31.04,3.57z M33.85,3.69H33.6
	V2.25c0-0.64-0.21-1-0.64-1c-0.11,0-0.21,0.02-0.31,0.06c-0.1,0.04-0.2,0.1-0.29,0.17c-0.08,0.08-0.16,0.17-0.23,0.26
	c-0.06,0.1-0.11,0.21-0.15,0.32v1.6h-0.25V0.05h0.25v1.67c0.11-0.2,0.26-0.36,0.44-0.49c0.18-0.12,0.39-0.17,0.61-0.17
	c0.13,0,0.25,0.02,0.37,0.07c0.1,0.06,0.19,0.14,0.26,0.23c0.07,0.12,0.12,0.24,0.15,0.37c0.02,0.16,0.02,0.31,0,0.47L33.85,3.69z
	 M35.96,3.74c-0.18,0-0.35-0.03-0.51-0.1c-0.15-0.07-0.29-0.18-0.41-0.3c-0.11-0.13-0.2-0.27-0.27-0.43
	c-0.06-0.17-0.09-0.34-0.09-0.52c0-0.18,0.03-0.35,0.09-0.52c0.07-0.15,0.16-0.3,0.27-0.42c0.11-0.12,0.25-0.22,0.4-0.29
	c0.16-0.07,0.33-0.1,0.5-0.1c0.18,0,0.35,0.03,0.51,0.1c0.15,0.07,0.29,0.17,0.4,0.29c0.12,0.12,0.21,0.27,0.27,0.43
	c0.06,0.16,0.09,0.34,0.09,0.51V2.5h-2.28c0.01,0.14,0.05,0.28,0.11,0.41c0.05,0.12,0.13,0.24,0.23,0.33
	c0.09,0.1,0.19,0.17,0.31,0.22c0.12,0.06,0.26,0.08,0.39,0.08c0.09,0.01,0.17,0.01,0.26,0c0.09-0.02,0.17-0.06,0.24-0.11
	c0.07-0.04,0.14-0.09,0.2-0.15c0.06-0.06,0.11-0.13,0.14-0.2l0.22,0.06c-0.08,0.19-0.23,0.35-0.41,0.45c-0.1,0.06-0.2,0.1-0.31,0.14
	C36.19,3.75,36.08,3.75,35.96,3.74z M36.96,2.3c0-0.15-0.04-0.29-0.1-0.42c-0.05-0.12-0.13-0.23-0.22-0.33
	c-0.19-0.18-0.44-0.29-0.7-0.29c-0.13,0-0.27,0.03-0.39,0.08c-0.12,0.05-0.22,0.12-0.31,0.21c-0.1,0.09-0.17,0.2-0.22,0.33
	c-0.06,0.13-0.09,0.28-0.1,0.42H36.96z M39.1,4.63c-0.09-0.02-0.17-0.05-0.25-0.1c-0.09-0.02-0.18-0.07-0.25-0.14l0.14-0.16
	c0.05,0.05,0.11,0.08,0.18,0.09c0.07,0.01,0.13,0.01,0.2,0c0.06,0.01,0.12,0.01,0.18,0c0.06-0.02,0.12-0.06,0.16-0.11
	c0.05-0.04,0.09-0.09,0.12-0.15c0.02-0.07,0.02-0.14,0-0.21V1.1h0.27v2.73c0,0.1-0.02,0.21-0.06,0.3c-0.04,0.09-0.1,0.17-0.17,0.24
	c-0.07,0.06-0.15,0.11-0.23,0.15C39.3,4.58,39.2,4.62,39.1,4.63z M39.58,0.56V0.1h0.27v0.46H39.58z M41.95,3.74
	c-0.18,0-0.35-0.03-0.51-0.1c-0.15-0.07-0.29-0.18-0.4-0.3c-0.11-0.12-0.2-0.27-0.27-0.42c-0.06-0.17-0.09-0.34-0.09-0.52
	c0-0.18,0.03-0.36,0.1-0.52c0.06-0.16,0.15-0.3,0.26-0.43c0.12-0.12,0.26-0.22,0.41-0.29c0.16-0.07,0.33-0.1,0.5-0.1
	c0.17,0,0.34,0.03,0.5,0.1c0.15,0.07,0.28,0.17,0.4,0.29c0.11,0.13,0.2,0.27,0.27,0.43c0.11,0.32,0.11,0.68,0,1
	c-0.07,0.15-0.16,0.3-0.27,0.42c-0.11,0.12-0.25,0.23-0.4,0.3C42.3,3.68,42.12,3.73,41.95,3.74z M40.95,2.41
	c0,0.15,0.03,0.29,0.08,0.43c0.05,0.13,0.12,0.25,0.22,0.35c0.09,0.1,0.2,0.18,0.32,0.24c0.12,0.06,0.25,0.09,0.39,0.09
	c0.14,0,0.28-0.03,0.4-0.09c0.12-0.06,0.23-0.14,0.32-0.24c0.08-0.11,0.14-0.23,0.17-0.36c0.05-0.14,0.08-0.28,0.08-0.43
	c0-0.15-0.03-0.29-0.08-0.43c-0.05-0.13-0.12-0.26-0.22-0.36c-0.09-0.1-0.2-0.18-0.32-0.24c-0.12-0.06-0.25-0.09-0.39-0.09
	c-0.14,0-0.28,0.03-0.4,0.09c-0.12,0.06-0.23,0.14-0.32,0.24c-0.09,0.11-0.16,0.24-0.22,0.37c-0.04,0.14-0.06,0.28-0.05,0.43H40.95z
	 M44.15,4.57h0.16h0.09l0.05-0.05c0,0,0,0,0.07-0.11s0.07-0.14,0.12-0.25s0.11-0.26,0.18-0.45l-1.15-2.59h0.26l1,2.35l1-2.35h0.25
	l-1.43,3.39c-0.04,0.09-0.1,0.17-0.18,0.22c-0.1,0.06-0.21,0.08-0.33,0.08h-0.09V4.57z M49.4,3.74c-0.19,0.01-0.38-0.03-0.55-0.11
	c-0.15-0.07-0.29-0.18-0.4-0.3c-0.11-0.12-0.2-0.26-0.26-0.42c-0.12-0.32-0.12-0.68,0-1c0.06-0.16,0.15-0.31,0.27-0.43
	c0.23-0.25,0.56-0.4,0.9-0.39c0.17,0,0.34,0.03,0.5,0.1c0.15,0.07,0.28,0.17,0.4,0.29c0.11,0.13,0.2,0.27,0.27,0.43
	c0.12,0.32,0.12,0.68,0,1c-0.07,0.15-0.16,0.3-0.27,0.42c-0.11,0.12-0.25,0.23-0.4,0.3C49.72,3.7,49.56,3.74,49.4,3.74z M48.4,2.41
	c0,0.15,0.03,0.29,0.08,0.43c0.05,0.13,0.12,0.25,0.22,0.35c0.09,0.1,0.2,0.18,0.32,0.24c0.12,0.06,0.25,0.09,0.39,0.09
	c0.14,0,0.28-0.03,0.4-0.09c0.12-0.06,0.23-0.14,0.32-0.24c0.1-0.1,0.17-0.23,0.22-0.36c0.05-0.14,0.08-0.28,0.08-0.43
	c0-0.15-0.03-0.29-0.08-0.43c-0.05-0.13-0.12-0.26-0.22-0.36c-0.09-0.1-0.2-0.18-0.32-0.24c-0.12-0.06-0.25-0.09-0.39-0.09
	c-0.14,0-0.28,0.03-0.4,0.09c-0.12,0.06-0.23,0.14-0.32,0.24c-0.09,0.11-0.16,0.24-0.22,0.37c-0.06,0.14-0.09,0.28-0.1,0.43H48.4z
	 M51.59,3.69V1.3h-0.37V1.1h0.37V1.02c-0.02-0.26,0.05-0.53,0.19-0.75C51.9,0.09,52.11-0.01,52.32,0c0.1,0,0.2,0.02,0.29,0.05
	c0.08,0.03,0.16,0.07,0.23,0.12l-0.09,0.18c-0.05-0.04-0.11-0.07-0.17-0.09c-0.07-0.01-0.14-0.01-0.21,0c-0.16,0-0.31,0.07-0.4,0.2
	c-0.1,0.18-0.14,0.38-0.13,0.59v0.09h0.74v0.2h-0.73v2.39L51.59,3.69z M55.54,3.74c-0.55,0-0.83-0.38-0.83-1.14V1.1h0.25v1.46
	c0,0.64,0.22,1,0.65,1c0.11,0,0.22-0.02,0.32-0.06c0.1-0.04,0.2-0.09,0.29-0.16c0.19-0.14,0.33-0.34,0.4-0.56V1.1h0.23v2.24
	c0,0.09,0,0.13,0.1,0.13v0.22h-0.07c-0.07,0-0.13-0.02-0.18-0.06c-0.05-0.04-0.07-0.11-0.07-0.17V3.07
	c-0.11,0.2-0.27,0.37-0.47,0.49C55.97,3.68,55.76,3.74,55.54,3.74z M60.03,3.69h-0.25V2.25C59.8,2,59.75,1.74,59.64,1.51
	c-0.1-0.15-0.27-0.24-0.45-0.23c-0.11,0-0.22,0.02-0.33,0.06c-0.11,0.04-0.21,0.1-0.3,0.17c-0.09,0.08-0.17,0.16-0.24,0.26
	c-0.07,0.1-0.13,0.2-0.16,0.32v1.6h-0.25V1.1h0.24v0.62c0.05-0.1,0.12-0.19,0.19-0.27c0.08-0.08,0.17-0.15,0.27-0.21
	c0.1-0.06,0.2-0.11,0.31-0.14c0.11-0.02,0.23-0.02,0.34,0c0.24-0.02,0.47,0.09,0.6,0.29c0.13,0.26,0.18,0.56,0.17,0.85L60.03,3.69z
	 M62.3,3.74c-0.21,0-0.42-0.06-0.6-0.17c-0.17-0.12-0.31-0.27-0.42-0.44v1.63h-0.25V1.1h0.23v0.53c0.11-0.17,0.25-0.31,0.42-0.41
	c0.17-0.1,0.37-0.15,0.57-0.15c0.17-0.01,0.34,0.03,0.49,0.11c0.15,0.07,0.29,0.18,0.4,0.3c0.11,0.13,0.2,0.27,0.26,0.43
	c0.06,0.16,0.09,0.33,0.09,0.5c0,0.18-0.03,0.35-0.09,0.52c-0.05,0.16-0.13,0.3-0.24,0.42c-0.1,0.13-0.23,0.23-0.38,0.3
	C62.63,3.72,62.46,3.75,62.3,3.74z M62.24,3.52c0.14,0,0.28-0.03,0.41-0.1c0.12-0.06,0.23-0.14,0.31-0.25
	c0.09-0.1,0.16-0.23,0.2-0.36c0.05-0.13,0.07-0.27,0.07-0.41c0-0.14-0.02-0.29-0.08-0.42c-0.05-0.13-0.12-0.26-0.22-0.36
	c-0.09-0.11-0.2-0.19-0.33-0.25c-0.12-0.06-0.26-0.09-0.4-0.09c-0.1,0-0.2,0.02-0.29,0.06c-0.21,0.07-0.39,0.2-0.52,0.37
	c-0.06,0.08-0.1,0.17-0.11,0.27v0.85c0.04,0.1,0.1,0.19,0.17,0.27c0.06,0.08,0.14,0.16,0.22,0.22c0.09,0.06,0.18,0.11,0.27,0.15
	C62.04,3.5,62.14,3.52,62.24,3.52z M65.56,1.32c-0.22,0.01-0.43,0.08-0.61,0.21c-0.18,0.14-0.31,0.33-0.37,0.54v1.62h-0.24V1.1h0.24
	v0.64c0.08-0.18,0.2-0.33,0.35-0.45c0.14-0.11,0.31-0.18,0.48-0.2h0.15V1.32z M67.24,3.74c-0.17,0-0.34-0.03-0.5-0.1
	c-0.15-0.07-0.29-0.17-0.4-0.3c-0.12-0.12-0.21-0.26-0.27-0.42c-0.11-0.32-0.11-0.68,0-1c0.07-0.16,0.16-0.3,0.27-0.43
	c0.11-0.12,0.25-0.22,0.4-0.29c0.16-0.07,0.33-0.1,0.5-0.1c0.34-0.01,0.67,0.14,0.9,0.39c0.12,0.12,0.21,0.27,0.27,0.43
	c0.12,0.32,0.12,0.68,0,1c-0.06,0.16-0.15,0.3-0.26,0.42c-0.11,0.12-0.25,0.22-0.4,0.3C67.59,3.71,67.42,3.74,67.24,3.74z
	 M66.24,2.41c0,0.29,0.1,0.56,0.29,0.78c0.09,0.1,0.2,0.18,0.32,0.24c0.12,0.06,0.26,0.09,0.4,0.09c0.14,0,0.27-0.03,0.39-0.09
	c0.12-0.06,0.24-0.14,0.33-0.24c0.09-0.11,0.17-0.23,0.22-0.36c0.05-0.14,0.08-0.28,0.08-0.43c0-0.15-0.03-0.29-0.08-0.43
	c-0.05-0.13-0.13-0.25-0.22-0.36c-0.09-0.1-0.2-0.18-0.32-0.24c-0.12-0.06-0.26-0.09-0.4-0.09c-0.14,0-0.27,0.03-0.39,0.09
	c-0.12,0.06-0.23,0.14-0.32,0.24c-0.09,0.11-0.17,0.23-0.22,0.37c-0.06,0.13-0.09,0.28-0.09,0.43H66.24z M70.48,3.57h-0.07
	l-0.12,0.05h-0.16c-0.06,0.01-0.13,0.01-0.19,0c-0.07,0.01-0.13,0.01-0.2,0c-0.06-0.02-0.11-0.05-0.16-0.09
	c-0.05-0.03-0.09-0.08-0.11-0.14c-0.02-0.07-0.02-0.13,0-0.2v-2H69.1v-0.2h0.37V0.1h0.25v0.89h0.6v0.2h-0.6v1.9
	c-0.01,0.09,0.03,0.17,0.1,0.22c0.07,0.04,0.14,0.07,0.22,0.07c0.09,0.02,0.18,0.02,0.27,0l0.14-0.07L70.48,3.57z M72.21,3.74
	c-0.18,0-0.35-0.03-0.51-0.1c-0.15-0.07-0.29-0.18-0.41-0.3c-0.11-0.13-0.2-0.27-0.27-0.43c-0.06-0.17-0.1-0.34-0.1-0.52
	c0-0.18,0.04-0.35,0.1-0.52c0.07-0.15,0.16-0.3,0.27-0.42c0.11-0.12,0.25-0.22,0.4-0.29c0.16-0.07,0.33-0.1,0.5-0.1
	c0.18,0,0.35,0.03,0.51,0.1c0.15,0.07,0.29,0.17,0.4,0.29c0.12,0.12,0.21,0.27,0.27,0.43c0.06,0.16,0.09,0.34,0.09,0.51V2.5h-2.28
	c0.01,0.14,0.05,0.28,0.11,0.41c0.05,0.12,0.13,0.24,0.23,0.33c0.09,0.1,0.19,0.17,0.31,0.22c0.12,0.06,0.26,0.08,0.39,0.08
	c0.09,0.01,0.17,0.01,0.26,0c0.09-0.02,0.17-0.06,0.24-0.11c0.07-0.04,0.14-0.09,0.2-0.15c0.06-0.06,0.11-0.13,0.14-0.2l0.22,0.06
	c-0.08,0.19-0.23,0.35-0.41,0.45c-0.1,0.06-0.2,0.1-0.31,0.14C72.44,3.75,72.33,3.75,72.21,3.74z M73.21,2.3
	c0-0.15-0.04-0.29-0.1-0.42c-0.05-0.12-0.13-0.23-0.22-0.33c-0.19-0.18-0.44-0.29-0.7-0.29c-0.13,0-0.27,0.03-0.39,0.08
	c-0.12,0.05-0.22,0.12-0.31,0.21c-0.1,0.09-0.17,0.2-0.22,0.33c-0.06,0.13-0.09,0.28-0.1,0.42H73.21z M74.08,2.39
	c0-0.18,0.03-0.36,0.1-0.52c0.06-0.16,0.15-0.3,0.26-0.43c0.11-0.12,0.25-0.21,0.4-0.28C75.2,1,75.62,1,75.98,1.16
	c0.18,0.1,0.32,0.26,0.41,0.45l-0.25,0.08c-0.07-0.14-0.19-0.26-0.33-0.34c-0.14-0.08-0.3-0.12-0.46-0.12
	c-0.14,0-0.27,0.03-0.4,0.08c-0.12,0.06-0.23,0.14-0.32,0.24c-0.09,0.1-0.17,0.22-0.22,0.35c-0.05,0.14-0.08,0.29-0.08,0.44
	c0,0.15,0.03,0.3,0.08,0.44c0.05,0.13,0.13,0.25,0.22,0.36c0.09,0.1,0.2,0.18,0.33,0.24c0.12,0.06,0.25,0.09,0.39,0.09
	c0.09,0.01,0.18,0.01,0.27,0c0.09-0.02,0.17-0.06,0.24-0.11c0.07-0.04,0.14-0.09,0.2-0.15c0.05-0.05,0.08-0.11,0.11-0.18l0.25,0.07
	c-0.04,0.09-0.09,0.18-0.16,0.25c-0.07,0.08-0.15,0.15-0.24,0.2c-0.1,0.06-0.2,0.11-0.31,0.14c-0.12,0.02-0.23,0.02-0.35,0
	c-0.17,0.02-0.35,0-0.51-0.06c-0.15-0.07-0.29-0.18-0.4-0.3c-0.12-0.12-0.21-0.27-0.27-0.43C74.11,2.74,74.08,2.57,74.08,2.39z
	 M78.39,3.57h-0.07L78.2,3.62h-0.16c-0.07,0.01-0.13,0.01-0.2,0c-0.06,0.01-0.13,0.01-0.19,0c-0.06-0.02-0.12-0.05-0.17-0.09
	c-0.04-0.04-0.08-0.09-0.11-0.14c-0.01-0.07-0.01-0.13,0-0.2v-2h-0.36v-0.2h0.36V0.1h0.25v0.89h0.61v0.2h-0.61v1.9
	c0,0.08,0.03,0.17,0.1,0.22c0.07,0.04,0.15,0.07,0.23,0.07c0.09,0.02,0.17,0.02,0.26,0l0.14-0.07L78.39,3.57z M80.11,3.74
	c-0.18,0-0.35-0.03-0.51-0.1c-0.15-0.07-0.29-0.18-0.4-0.3c-0.12-0.12-0.21-0.27-0.27-0.43c-0.07-0.16-0.1-0.34-0.1-0.52
	c0-0.18,0.03-0.36,0.1-0.52c0.06-0.16,0.15-0.3,0.26-0.42c0.12-0.12,0.26-0.22,0.41-0.29c0.32-0.13,0.68-0.13,1,0
	c0.16,0.07,0.29,0.17,0.41,0.29c0.12,0.12,0.2,0.27,0.26,0.43c0.07,0.16,0.1,0.33,0.1,0.51v0.06l0,0h-2.28
	c0.01,0.14,0.04,0.28,0.1,0.41c0.06,0.12,0.13,0.23,0.23,0.33c0.09,0.1,0.2,0.17,0.32,0.22c0.12,0.06,0.25,0.08,0.38,0.08h0.27
	c0.08-0.03,0.16-0.07,0.24-0.11c0.07-0.04,0.14-0.09,0.2-0.15c0.06-0.06,0.1-0.13,0.13-0.2l0.22,0.06
	c-0.04,0.09-0.09,0.18-0.16,0.25c-0.07,0.08-0.15,0.15-0.25,0.2c-0.1,0.06-0.2,0.11-0.31,0.14C80.35,3.72,80.23,3.74,80.11,3.74z
	 M81.11,2.3c-0.01-0.14-0.04-0.29-0.1-0.42c-0.06-0.12-0.13-0.23-0.23-0.33c-0.09-0.09-0.2-0.16-0.31-0.21
	c-0.12-0.05-0.26-0.08-0.39-0.08c-0.13,0-0.26,0.03-0.38,0.08c-0.12,0.05-0.23,0.12-0.32,0.21c-0.09,0.1-0.17,0.21-0.22,0.33
	c-0.05,0.13-0.09,0.28-0.1,0.42H81.11z M83.23,3.74c-0.17,0-0.34-0.03-0.5-0.11c-0.15-0.07-0.28-0.17-0.39-0.3
	c-0.11-0.13-0.2-0.27-0.26-0.43c-0.06-0.16-0.09-0.33-0.09-0.5c0-0.17,0.03-0.35,0.09-0.51c0.06-0.16,0.14-0.3,0.25-0.43
	c0.1-0.12,0.23-0.22,0.37-0.3c0.15-0.07,0.31-0.1,0.48-0.1c0.11-0.02,0.21-0.02,0.32,0c0.1,0.03,0.19,0.07,0.28,0.13
	c0.08,0.05,0.16,0.12,0.23,0.19c0.07,0.07,0.13,0.15,0.18,0.23V0.05h0.25v3.29c0,0.09,0,0.13,0.11,0.13v0.22h-0.09
	c-0.06,0-0.13-0.02-0.17-0.07c-0.04-0.05-0.07-0.11-0.07-0.17V3.16c-0.1,0.18-0.25,0.32-0.43,0.42C83.62,3.68,83.43,3.74,83.23,3.74
	z M83.28,3.52c0.1,0,0.2-0.02,0.29-0.06c0.1-0.03,0.2-0.08,0.28-0.15c0.09-0.06,0.17-0.13,0.23-0.22c0.06-0.08,0.1-0.17,0.11-0.27
	V1.97c-0.04-0.1-0.09-0.19-0.16-0.27c-0.06-0.09-0.14-0.16-0.23-0.22c-0.09-0.06-0.18-0.11-0.28-0.15
	c-0.09-0.03-0.19-0.05-0.29-0.05c-0.14,0-0.28,0.03-0.41,0.1c-0.12,0.06-0.22,0.15-0.31,0.25c-0.09,0.11-0.15,0.23-0.2,0.36
	c-0.05,0.13-0.07,0.28-0.07,0.42c0,0.29,0.11,0.56,0.3,0.77c0.09,0.1,0.21,0.19,0.33,0.25C83,3.49,83.14,3.52,83.28,3.52z
	 M87.85,3.74c-0.2,0-0.39-0.03-0.58-0.1c-0.18-0.06-0.35-0.16-0.48-0.3l0.13-0.17c0.12,0.12,0.27,0.21,0.43,0.28
	c0.16,0.06,0.33,0.09,0.5,0.09c0.19,0.01,0.38-0.04,0.54-0.14c0.13-0.08,0.21-0.23,0.21-0.39c0.02-0.07,0.02-0.14,0-0.21
	c-0.04-0.06-0.1-0.1-0.16-0.14l-0.26-0.1l-0.36-0.09l-0.38-0.1l-0.27-0.12c-0.06-0.04-0.11-0.1-0.15-0.17
	C86.98,2,86.96,1.91,86.96,1.82c0-0.12,0.03-0.23,0.08-0.34c0.05-0.09,0.12-0.18,0.21-0.24c0.09-0.06,0.19-0.11,0.3-0.14
	c0.12-0.02,0.25-0.02,0.37,0c0.18,0,0.37,0.03,0.54,0.1c0.14,0.06,0.26,0.15,0.36,0.26l-0.14,0.13c-0.09-0.1-0.21-0.18-0.34-0.22
	c-0.14-0.05-0.29-0.08-0.44-0.08c-0.09-0.01-0.18-0.01-0.27,0c-0.08,0.02-0.15,0.05-0.22,0.1c-0.06,0.04-0.11,0.1-0.15,0.17
	C87.22,1.63,87.2,1.72,87.2,1.8c-0.01,0.06-0.01,0.12,0,0.18c0.03,0.05,0.07,0.09,0.12,0.12c0.07,0.04,0.14,0.07,0.21,0.09
	l0.31,0.08l0.44,0.12c0.11,0.03,0.21,0.07,0.31,0.13c0.08,0.05,0.15,0.11,0.2,0.19c0.04,0.09,0.06,0.18,0.06,0.28
	c0.01,0.22-0.09,0.43-0.27,0.56C88.36,3.69,88.11,3.76,87.85,3.74z M90.76,3.74c-0.17,0-0.34-0.03-0.5-0.1
	c-0.16-0.07-0.3-0.17-0.41-0.3c-0.12-0.12-0.21-0.27-0.27-0.43c-0.06-0.17-0.1-0.34-0.1-0.52c0-0.18,0.04-0.35,0.1-0.52
	c0.06-0.16,0.15-0.3,0.27-0.42c0.23-0.25,0.56-0.4,0.9-0.39c0.18,0,0.35,0.03,0.51,0.1c0.15,0.07,0.29,0.17,0.4,0.29
	c0.12,0.12,0.21,0.27,0.27,0.43c0.06,0.16,0.09,0.34,0.09,0.51V2.5h-2.28c0.01,0.14,0.05,0.28,0.11,0.41
	c0.05,0.12,0.13,0.23,0.22,0.33c0.09,0.09,0.2,0.17,0.32,0.22c0.12,0.06,0.25,0.08,0.38,0.08h0.27c0.09-0.02,0.17-0.06,0.24-0.11
	c0.07-0.04,0.14-0.09,0.2-0.15c0.06-0.06,0.1-0.13,0.14-0.2l0.22,0.06c-0.04,0.09-0.1,0.18-0.17,0.25c-0.07,0.08-0.15,0.15-0.24,0.2
	c-0.1,0.06-0.21,0.11-0.32,0.14C90.99,3.75,90.88,3.75,90.76,3.74z M91.76,2.3c0-0.15-0.04-0.29-0.1-0.42
	c-0.05-0.12-0.13-0.23-0.22-0.33c-0.09-0.09-0.2-0.16-0.32-0.21C91,1.29,90.86,1.26,90.73,1.26c-0.13,0-0.26,0.03-0.38,0.08
	c-0.12,0.05-0.23,0.12-0.32,0.21c-0.09,0.1-0.17,0.21-0.22,0.33c-0.05,0.13-0.08,0.28-0.09,0.42H91.76z M92.69,1.1l0.84,1.07v0.07
	V2.17l0.84-1.07h0.28l-1,1.3l1,1.29h-0.2l-0.84-1.06V2.56v0.07l-0.83,1.06h-0.27l1-1.29l-1-1.3H92.69z M100.13,1.1h0.25l-1.12,2.59
	h-0.21l-0.58-1.37l-0.62,1.37h-0.21L96.55,1.1h0.24l1,2.32l0.54-1.28l-0.44-1h0.22l0.36,0.85l0.35-0.85h0.22l-0.44,1l0.54,1.28
	L100.13,1.1z M101.11,0.51V0.05h0.25v0.46H101.11z M101.11,3.69V1.1h0.25v2.59H101.11z M103.55,3.57h-0.06l-0.12,0.05h-0.17
	c-0.06,0.01-0.13,0.01-0.19,0c-0.07,0.01-0.13,0.01-0.2,0c-0.06-0.02-0.11-0.05-0.16-0.09c-0.05-0.04-0.08-0.09-0.11-0.14
	c-0.02-0.07-0.02-0.13,0-0.2v-2h-0.36v-0.2h0.36V0.1h0.25v0.89h0.6v0.2h-0.6v1.9c-0.01,0.09,0.03,0.17,0.1,0.22
	c0.07,0.04,0.14,0.07,0.22,0.07c0.09,0.02,0.18,0.02,0.27,0l0.14-0.07L103.55,3.57z M106.36,3.69h-0.25V2.25c0-0.64-0.21-1-0.64-1
	c-0.11,0-0.21,0.02-0.31,0.06c-0.11,0.04-0.2,0.1-0.29,0.17c-0.09,0.08-0.16,0.16-0.23,0.26c-0.07,0.1-0.12,0.2-0.15,0.32v1.6h-0.25
	V0.05h0.25v1.67c0.1-0.2,0.25-0.37,0.44-0.49c0.18-0.12,0.39-0.17,0.61-0.17c0.13,0,0.25,0.02,0.37,0.07
	c0.1,0.05,0.19,0.13,0.25,0.23c0.07,0.11,0.13,0.24,0.15,0.37c0.03,0.15,0.05,0.31,0.05,0.47L106.36,3.69z M1.42,13.55l-0.07,0.08
	H1.23H1.07H0.88c-0.07,0.01-0.13,0.01-0.2,0c-0.05,0.01-0.11,0.01-0.16,0c-0.05-0.04-0.09-0.08-0.11-0.14
	c-0.02-0.07-0.02-0.13,0-0.2v-2H0v-0.2h0.37V10.2h0.25v0.89h0.6v0.2h-0.6v1.9c-0.01,0.08,0.03,0.16,0.1,0.21
	c0.06,0.05,0.14,0.08,0.22,0.08c0.09,0,0.19-0.02,0.27-0.06l0.13-0.06L1.42,13.55z M4.23,13.63H3.98v-1.41c0-0.64-0.22-1-0.65-1
	c-0.11,0-0.21,0.02-0.31,0.06c-0.1,0.04-0.2,0.1-0.28,0.17c-0.09,0.07-0.17,0.16-0.23,0.26c-0.07,0.09-0.12,0.2-0.15,0.31v1.61H2.11
	v-3.6h0.25v1.67c0.11-0.21,0.28-0.38,0.49-0.49c0.18-0.12,0.39-0.18,0.6-0.18c0.13,0,0.25,0.02,0.37,0.08
	c0.1,0.05,0.19,0.13,0.26,0.23c0.07,0.11,0.12,0.23,0.15,0.36c0.02,0.16,0.02,0.32,0,0.48L4.23,13.63z M6.33,13.72
	c-0.16,0-0.33-0.03-0.48-0.09c-0.15-0.07-0.29-0.17-0.4-0.29c-0.12-0.12-0.21-0.27-0.27-0.43c-0.07-0.17-0.1-0.35-0.1-0.53
	c0-0.18,0.03-0.35,0.1-0.51c0.06-0.16,0.15-0.3,0.26-0.43c0.12-0.13,0.25-0.23,0.41-0.3c0.16-0.07,0.33-0.11,0.5-0.11
	c0.18,0,0.35,0.04,0.51,0.11c0.3,0.14,0.54,0.4,0.66,0.71c0.07,0.16,0.1,0.33,0.1,0.51v0.07l0,0H5.31c0.01,0.14,0.04,0.29,0.1,0.42
	c0.06,0.12,0.13,0.23,0.23,0.33c0.09,0.09,0.2,0.17,0.32,0.22c0.12,0.05,0.25,0.08,0.38,0.08c0.09,0.01,0.18,0.01,0.27,0
	c0.08-0.02,0.16-0.06,0.24-0.1c0.08-0.04,0.14-0.1,0.2-0.16c0.06-0.06,0.1-0.12,0.13-0.2l0.22,0.06c-0.04,0.1-0.09,0.18-0.16,0.26
	c-0.07,0.08-0.16,0.15-0.25,0.2c-0.1,0.06-0.2,0.1-0.31,0.13C6.57,13.7,6.45,13.72,6.33,13.72z M7.33,12.27
	c-0.01-0.14-0.04-0.28-0.1-0.41C7.17,11.74,7.1,11.63,7,11.53c-0.09-0.09-0.2-0.16-0.31-0.22c-0.12-0.05-0.26-0.07-0.39-0.07
	c-0.13,0-0.26,0.02-0.38,0.07c-0.12,0.06-0.23,0.13-0.32,0.22c-0.09,0.1-0.17,0.21-0.22,0.33c-0.05,0.13-0.09,0.27-0.1,0.41H7.33z
	 M11.07,13.55h-0.06l-0.16,0.08h-0.16h-0.2c-0.07,0.01-0.13,0.01-0.2,0c-0.06-0.02-0.11-0.05-0.16-0.09
	c-0.04-0.04-0.08-0.09-0.11-0.14c-0.01-0.07-0.01-0.13,0-0.2v-2H9.66V11h0.36v-0.89h0.25V11h0.58v0.2h-0.61v1.9
	c0,0.08,0.03,0.16,0.1,0.21c0.07,0.05,0.15,0.08,0.23,0.08c0.09,0,0.18-0.02,0.26-0.06l0.14-0.06L11.07,13.55z M13.85,13.63H13.6
	v-1.41c0-0.64-0.21-1-0.64-1c-0.11,0-0.21,0.02-0.31,0.06c-0.1,0.04-0.2,0.1-0.29,0.17c-0.09,0.08-0.16,0.16-0.23,0.26
	c-0.06,0.1-0.11,0.2-0.15,0.31v1.61h-0.25v-3.6h0.25v1.67c0.1-0.2,0.25-0.37,0.44-0.49c0.18-0.12,0.39-0.18,0.61-0.18
	c0.13,0,0.25,0.03,0.37,0.08c0.1,0.06,0.19,0.14,0.26,0.23c0.07,0.11,0.12,0.23,0.15,0.36c0.02,0.16,0.02,0.32,0,0.48L13.85,13.63z
	 M14.85,10.49v-0.46h0.24v0.46H14.85z M14.85,13.63v-2.55h0.24v2.55H14.85z M18.29,13.63h-0.25v-1.41c0.02-0.25-0.03-0.51-0.15-0.73
	c-0.1-0.15-0.27-0.24-0.45-0.23c-0.11,0-0.22,0.02-0.32,0.06c-0.11,0.04-0.21,0.1-0.3,0.17c-0.1,0.07-0.18,0.16-0.25,0.26
	c-0.07,0.09-0.12,0.2-0.15,0.31v1.57h-0.25v-2.55h0.23v0.62c0.05-0.1,0.12-0.2,0.2-0.28c0.08-0.08,0.16-0.15,0.26-0.21
	c0.1-0.05,0.2-0.1,0.31-0.13c0.11-0.03,0.22-0.05,0.34-0.05c0.24-0.03,0.48,0.09,0.6,0.3c0.13,0.26,0.2,0.56,0.18,0.85L18.29,13.63z
	 M21.41,13.63h-0.25v-1.41c0.02-0.25-0.03-0.5-0.14-0.73c-0.1-0.15-0.27-0.24-0.45-0.23c-0.11,0-0.22,0.02-0.33,0.06
	c-0.11,0.04-0.21,0.1-0.3,0.17c-0.1,0.07-0.18,0.16-0.25,0.26c-0.07,0.09-0.12,0.2-0.15,0.31v1.57h-0.25v-2.55h0.23v0.62
	c0.06-0.1,0.12-0.19,0.2-0.28c0.08-0.08,0.17-0.15,0.26-0.21c0.1-0.05,0.21-0.1,0.32-0.13c0.11-0.03,0.22-0.05,0.34-0.05
	c0.24-0.02,0.47,0.09,0.59,0.3c0.13,0.26,0.2,0.56,0.18,0.85L21.41,13.63z M23.51,13.72c-0.18,0-0.35-0.04-0.51-0.11
	c-0.15-0.07-0.29-0.17-0.4-0.29c-0.12-0.12-0.21-0.27-0.27-0.43c-0.07-0.17-0.1-0.35-0.1-0.53c0-0.18,0.03-0.35,0.1-0.51
	c0.06-0.16,0.15-0.31,0.27-0.43c0.11-0.12,0.25-0.22,0.4-0.28c0.16-0.07,0.33-0.11,0.5-0.11c0.18,0,0.35,0.04,0.51,0.11
	c0.15,0.07,0.29,0.17,0.4,0.29c0.11,0.12,0.2,0.27,0.27,0.42c0.06,0.16,0.09,0.34,0.09,0.51v0.11h-2.28
	c0.01,0.15,0.05,0.29,0.11,0.42c0.05,0.12,0.13,0.23,0.22,0.33c0.09,0.09,0.2,0.17,0.32,0.22c0.12,0.05,0.25,0.08,0.38,0.08
	c0.09,0.01,0.18,0.01,0.27,0c0.08-0.02,0.16-0.06,0.24-0.1c0.08-0.04,0.14-0.1,0.2-0.16c0.06-0.06,0.11-0.13,0.14-0.2l0.22,0.06
	c-0.04,0.1-0.1,0.18-0.17,0.26c-0.07,0.08-0.16,0.15-0.25,0.2c-0.1,0.03-0.21,0.05-0.32,0.05C23.74,13.68,23.63,13.71,23.51,13.72z
	 M24.51,12.27c-0.01-0.14-0.04-0.28-0.1-0.41c-0.05-0.12-0.13-0.24-0.23-0.33c-0.09-0.09-0.2-0.16-0.31-0.22
	c-0.12-0.05-0.26-0.07-0.39-0.07c-0.13,0-0.26,0.02-0.38,0.07c-0.12,0.06-0.23,0.13-0.32,0.22c-0.09,0.1-0.17,0.21-0.22,0.33
	c-0.05,0.13-0.08,0.27-0.09,0.41H24.51z M26.79,11.3c-0.22,0.01-0.43,0.08-0.61,0.21c-0.18,0.13-0.3,0.32-0.36,0.54v1.58h-0.25
	v-2.55h0.28v0.64c0.08-0.18,0.2-0.33,0.35-0.45c0.14-0.11,0.3-0.18,0.48-0.2h0.15L26.79,11.3z M27.38,14.07l0.08-0.39h-0.09v-0.43
	h0.25v0.43l-0.1,0.39H27.38z M30.08,12.36c0-0.17,0.03-0.35,0.09-0.51c0.06-0.16,0.15-0.31,0.27-0.43c0.11-0.12,0.25-0.22,0.4-0.28
	c0.16-0.07,0.33-0.11,0.51-0.11c0.22,0,0.44,0.05,0.63,0.16c0.18,0.11,0.32,0.26,0.4,0.45l-0.24,0.08
	c-0.07-0.14-0.19-0.26-0.33-0.34c-0.14-0.08-0.31-0.12-0.47-0.12c-0.14,0-0.27,0.02-0.4,0.08c-0.12,0.06-0.23,0.14-0.32,0.24
	c-0.19,0.22-0.29,0.49-0.29,0.78c0,0.15,0.02,0.31,0.08,0.45c0.05,0.13,0.13,0.25,0.22,0.35c0.09,0.1,0.2,0.19,0.32,0.25
	c0.12,0.06,0.26,0.09,0.4,0.09c0.09,0.01,0.18,0.01,0.27,0l0.24-0.11c0.07-0.04,0.14-0.09,0.19-0.15c0.05-0.05,0.09-0.11,0.12-0.18
	l0.24,0.07c-0.03,0.09-0.08,0.18-0.15,0.25c-0.07,0.08-0.15,0.14-0.24,0.2c-0.1,0.06-0.2,0.1-0.31,0.13
	c-0.11,0.03-0.23,0.05-0.35,0.05c-0.18-0.01-0.35-0.05-0.51-0.13c-0.15-0.07-0.29-0.17-0.41-0.29c-0.11-0.13-0.2-0.27-0.27-0.43
	C30.11,12.73,30.08,12.55,30.08,12.36z M33.24,10.03h0.26v3.13c0,0.08,0.03,0.16,0.08,0.23c0.06,0.05,0.15,0.08,0.23,0.08h0.13h0.14
	l0.05,0.2l-0.21,0.06h-0.21c-0.13,0.01-0.25-0.04-0.34-0.13c-0.09-0.09-0.13-0.21-0.13-0.34V10.03z M35.85,13.72
	c-0.18,0-0.35-0.04-0.51-0.11c-0.15-0.07-0.29-0.17-0.41-0.29c-0.11-0.13-0.2-0.27-0.27-0.43c-0.06-0.17-0.09-0.35-0.09-0.53
	c0-0.17,0.03-0.35,0.09-0.51c0.07-0.16,0.16-0.3,0.27-0.43c0.11-0.12,0.25-0.21,0.4-0.28c0.32-0.14,0.68-0.14,1,0
	c0.15,0.07,0.29,0.17,0.41,0.29c0.11,0.12,0.2,0.26,0.26,0.42c0.06,0.16,0.09,0.34,0.09,0.51v0.11h-2.24
	c0.01,0.15,0.05,0.29,0.11,0.42c0.11,0.24,0.3,0.43,0.54,0.55c0.12,0.05,0.26,0.08,0.39,0.08c0.09,0.02,0.17,0.02,0.26,0
	c0.08-0.02,0.17-0.05,0.24-0.1c0.08-0.04,0.15-0.09,0.2-0.16c0.06-0.06,0.11-0.12,0.14-0.2l0.22,0.06
	c-0.04,0.09-0.09,0.18-0.16,0.26c-0.07,0.08-0.16,0.14-0.25,0.2c-0.1,0.06-0.2,0.1-0.31,0.13C36.1,13.73,35.98,13.73,35.85,13.72z
	 M36.85,12.27c-0.01-0.14-0.04-0.28-0.1-0.41c-0.05-0.12-0.13-0.23-0.22-0.33c-0.09-0.09-0.2-0.16-0.32-0.22
	c-0.12-0.05-0.25-0.07-0.38-0.07c-0.13,0-0.27,0.02-0.39,0.07c-0.11,0.06-0.22,0.13-0.31,0.22c-0.1,0.09-0.17,0.2-0.22,0.33
	c-0.06,0.13-0.09,0.27-0.1,0.41H36.85z M38.56,13.72c-0.22,0-0.44-0.08-0.61-0.23c-0.07-0.08-0.13-0.16-0.18-0.26
	c-0.04-0.1-0.06-0.2-0.06-0.31c-0.01-0.11,0.02-0.22,0.08-0.31c0.05-0.1,0.13-0.18,0.22-0.24c0.1-0.08,0.22-0.13,0.34-0.16
	c0.14-0.04,0.29-0.06,0.44-0.06c0.14-0.01,0.28-0.01,0.42,0c0.13,0.02,0.26,0.05,0.38,0.1v-0.22c0.01-0.21-0.06-0.42-0.21-0.58
	c-0.14-0.14-0.33-0.22-0.53-0.22c-0.14,0-0.27,0.03-0.4,0.08c-0.15,0.06-0.3,0.14-0.43,0.23l-0.17-0.17c0.29-0.21,0.64-0.33,1-0.34
	c0.27-0.02,0.54,0.08,0.74,0.27c0.19,0.2,0.29,0.47,0.27,0.75v1.27c0,0.08,0,0.13,0.11,0.13v0.18h-0.12c-0.06,0-0.12-0.02-0.16-0.07
	c-0.04-0.04-0.06-0.1-0.07-0.16v-0.21c-0.12,0.15-0.28,0.28-0.46,0.36C38.97,13.65,38.77,13.71,38.56,13.72z M38.56,13.52
	c0.18,0,0.36-0.04,0.53-0.11c0.15-0.06,0.28-0.16,0.37-0.29c0.05-0.05,0.08-0.13,0.08-0.2v-0.46c-0.12-0.04-0.24-0.08-0.37-0.1
	c-0.14-0.01-0.27-0.01-0.41,0c-0.12,0-0.24,0.02-0.35,0.05c-0.1,0.02-0.19,0.05-0.27,0.11c-0.15,0.09-0.24,0.25-0.24,0.42
	c-0.02,0.08-0.02,0.17,0,0.25c0.03,0.07,0.08,0.14,0.14,0.19c0.13,0.12,0.3,0.18,0.47,0.18L38.56,13.52z M42.97,13.63h-0.25v-1.41
	c0.02-0.25-0.03-0.5-0.14-0.73c-0.1-0.15-0.27-0.24-0.45-0.23c-0.11,0-0.22,0.02-0.33,0.06c-0.11,0.04-0.21,0.1-0.3,0.17
	c-0.1,0.07-0.18,0.16-0.25,0.26c-0.07,0.09-0.12,0.2-0.15,0.31v1.57h-0.25v-2.55h0.23v0.62c0.06-0.1,0.12-0.19,0.2-0.28
	c0.08-0.08,0.17-0.15,0.27-0.21c0.1-0.06,0.2-0.1,0.31-0.13c0.11-0.03,0.22-0.05,0.34-0.05c0.24-0.02,0.47,0.09,0.59,0.3
	c0.13,0.26,0.2,0.56,0.18,0.85L42.97,13.63z M45.07,13.72c-0.17,0-0.34-0.04-0.5-0.11c-0.16-0.07-0.29-0.17-0.41-0.29
	c-0.12-0.12-0.21-0.27-0.27-0.43c-0.07-0.17-0.1-0.35-0.1-0.53c0-0.18,0.03-0.35,0.1-0.51c0.06-0.16,0.15-0.31,0.27-0.43
	c0.11-0.12,0.25-0.22,0.4-0.28c0.16-0.07,0.33-0.11,0.5-0.11c0.18,0,0.35,0.04,0.51,0.11c0.15,0.07,0.29,0.17,0.4,0.29
	c0.11,0.12,0.2,0.27,0.27,0.42c0.06,0.16,0.09,0.34,0.09,0.51v0.11h-2.28c0.01,0.15,0.05,0.29,0.11,0.42
	c0.05,0.12,0.13,0.23,0.22,0.33c0.09,0.09,0.2,0.17,0.32,0.22c0.12,0.05,0.25,0.08,0.38,0.08c0.09,0.01,0.18,0.01,0.27,0
	c0.08-0.02,0.16-0.06,0.24-0.1c0.08-0.04,0.15-0.09,0.2-0.16c0.06-0.06,0.11-0.13,0.14-0.2l0.22,0.06c-0.04,0.1-0.1,0.18-0.17,0.26
	c-0.07,0.08-0.15,0.14-0.24,0.2c-0.1,0.06-0.21,0.1-0.32,0.13C45.3,13.73,45.19,13.73,45.07,13.72z M46.07,12.27
	c-0.01-0.14-0.04-0.28-0.1-0.41c-0.05-0.12-0.13-0.23-0.22-0.33c-0.1-0.09-0.2-0.16-0.32-0.22c-0.12-0.05-0.26-0.07-0.39-0.07
	c-0.13,0-0.26,0.02-0.38,0.07c-0.12,0.06-0.23,0.13-0.32,0.22c-0.09,0.1-0.17,0.21-0.22,0.33c-0.05,0.13-0.08,0.27-0.09,0.41H46.07z
	 M48.36,11.3c-0.22,0.01-0.44,0.08-0.62,0.21c-0.18,0.13-0.3,0.32-0.36,0.54v1.58h-0.25v-2.55h0.24v0.64
	c0.08-0.18,0.2-0.33,0.35-0.45c0.14-0.11,0.3-0.18,0.48-0.2h0.16V11.3z M48.94,14.07l0.08-0.39h-0.09v-0.43h0.25v0.43l-0.1,0.39
	H48.94z M52.46,13.72c-0.12,0-0.23-0.02-0.34-0.06c-0.1-0.04-0.19-0.1-0.27-0.17c-0.08-0.07-0.14-0.16-0.18-0.26
	c-0.05-0.1-0.07-0.2-0.07-0.31c0-0.11,0.03-0.22,0.08-0.31c0.06-0.09,0.13-0.18,0.22-0.24c0.1-0.08,0.22-0.13,0.35-0.16
	c0.14-0.04,0.28-0.06,0.43-0.06c0.14-0.01,0.29-0.01,0.43,0c0.13,0.02,0.26,0.05,0.38,0.1v-0.22c0.01-0.21-0.06-0.42-0.21-0.58
	c-0.15-0.15-0.36-0.23-0.57-0.22c-0.14,0-0.27,0.03-0.4,0.08c-0.15,0.06-0.3,0.13-0.43,0.23l-0.1-0.17c0.29-0.21,0.64-0.33,1-0.34
	c0.27-0.02,0.54,0.08,0.74,0.27c0.19,0.2,0.29,0.47,0.27,0.75v1.27c0,0.08,0,0.13,0.11,0.13v0.18h-0.1c-0.06,0-0.12-0.02-0.16-0.07
	c-0.04-0.04-0.07-0.1-0.07-0.16v-0.21c-0.12,0.15-0.28,0.28-0.46,0.36C52.91,13.65,52.69,13.71,52.46,13.72z M52.46,13.52
	c0.18,0,0.36-0.04,0.53-0.11c0.15-0.06,0.27-0.16,0.37-0.29c0.05-0.06,0.08-0.13,0.08-0.2v-0.46c-0.12-0.04-0.25-0.08-0.38-0.1
	c-0.13-0.01-0.27-0.01-0.4,0c-0.12,0-0.24,0.02-0.35,0.05c-0.1,0.02-0.19,0.06-0.28,0.11c-0.07,0.05-0.14,0.11-0.18,0.19
	c-0.04,0.07-0.06,0.15-0.06,0.23c-0.02,0.08-0.02,0.17,0,0.25c0.04,0.07,0.08,0.14,0.14,0.19c0.06,0.06,0.13,0.1,0.21,0.13
	c0.12,0.04,0.25,0.04,0.37,0.01H52.46z M56.85,13.63H56.6v-1.41c0.02-0.25-0.03-0.5-0.14-0.73c-0.1-0.15-0.27-0.24-0.45-0.23
	c-0.11,0-0.22,0.02-0.33,0.06c-0.11,0.05-0.21,0.1-0.3,0.17c-0.09,0.07-0.17,0.16-0.24,0.26c-0.07,0.1-0.12,0.2-0.16,0.31v1.57
	h-0.25v-2.55h0.24v0.62c0.05-0.1,0.12-0.2,0.2-0.28c0.08-0.08,0.16-0.15,0.26-0.21c0.1-0.05,0.2-0.1,0.31-0.13
	c0.11-0.03,0.22-0.05,0.34-0.05c0.24-0.02,0.47,0.09,0.6,0.3c0.13,0.26,0.19,0.56,0.17,0.85L56.85,13.63z M58.93,13.72
	c-0.17,0-0.34-0.04-0.49-0.11c-0.15-0.07-0.29-0.18-0.4-0.3c-0.11-0.13-0.2-0.27-0.26-0.43c-0.06-0.16-0.09-0.33-0.09-0.5
	c0-0.18,0.03-0.35,0.09-0.52c0.06-0.15,0.14-0.3,0.25-0.42c0.1-0.13,0.23-0.23,0.37-0.3c0.25-0.12,0.54-0.14,0.8-0.06l0.28,0.13
	c0.08,0.06,0.16,0.13,0.23,0.2c0.05,0.07,0.1,0.14,0.14,0.22v-1.6h0.25v3.29c0,0.08,0,0.13,0.11,0.13v0.18h-0.09
	c-0.13-0.01-0.23-0.11-0.24-0.24V13.1c-0.11,0.17-0.26,0.31-0.43,0.42C59.3,13.63,59.12,13.7,58.93,13.72z M58.98,13.5
	c0.1,0,0.2-0.02,0.29-0.06c0.1-0.04,0.2-0.09,0.29-0.15c0.08-0.07,0.15-0.14,0.22-0.22c0.06-0.08,0.1-0.17,0.11-0.27v-0.86
	c-0.09-0.19-0.22-0.36-0.39-0.48c-0.09-0.06-0.18-0.11-0.28-0.15c-0.1-0.01-0.19-0.01-0.29,0c-0.14,0-0.28,0.03-0.4,0.09
	c-0.12,0.06-0.23,0.15-0.32,0.26c-0.09,0.1-0.16,0.23-0.2,0.36c-0.04,0.13-0.07,0.27-0.07,0.41c0,0.15,0.03,0.29,0.08,0.43
	c0.05,0.13,0.13,0.25,0.22,0.35c0.1,0.1,0.21,0.18,0.33,0.25C58.7,13.5,58.84,13.52,58.98,13.5z M63.85,13.55v0.08l-0.12,0.06h-0.16
	h-0.19c-0.07,0.01-0.13,0.01-0.2,0c-0.06-0.02-0.11-0.05-0.16-0.09c-0.04-0.04-0.08-0.09-0.11-0.14c-0.02-0.07-0.02-0.13,0-0.2v-2
	h-0.36v-0.2h0.3v-0.89h0.25v0.89h0.6v0.2h-0.6v1.9c-0.01,0.08,0.03,0.16,0.1,0.21c0.06,0.05,0.14,0.08,0.22,0.08
	c0.09,0,0.19-0.02,0.27-0.06l0.14-0.06L63.85,13.55z M65.58,13.72c-0.17,0-0.34-0.04-0.5-0.11c-0.15-0.07-0.29-0.17-0.41-0.29
	c-0.12-0.12-0.2-0.27-0.26-0.43c-0.06-0.16-0.09-0.34-0.09-0.51c0-0.18,0.03-0.35,0.09-0.52c0.07-0.16,0.16-0.3,0.27-0.43
	c0.11-0.12,0.25-0.22,0.4-0.29c0.16-0.07,0.33-0.11,0.5-0.11c0.17,0,0.34,0.04,0.5,0.11c0.15,0.07,0.29,0.17,0.4,0.29
	c0.12,0.12,0.21,0.27,0.27,0.43c0.07,0.16,0.1,0.34,0.1,0.52c0,0.18-0.03,0.35-0.1,0.51c-0.06,0.16-0.15,0.31-0.27,0.43
	C66.25,13.57,65.92,13.72,65.58,13.72z M64.58,12.39c0,0.15,0.03,0.29,0.08,0.43c0.06,0.13,0.13,0.25,0.22,0.35
	c0.09,0.1,0.2,0.18,0.32,0.24c0.12,0.06,0.26,0.09,0.4,0.09c0.14,0,0.27-0.03,0.39-0.09c0.12-0.06,0.23-0.14,0.33-0.24
	c0.09-0.11,0.16-0.23,0.22-0.36c0.05-0.14,0.07-0.29,0.07-0.44c0-0.15-0.02-0.29-0.07-0.43c-0.06-0.13-0.13-0.25-0.22-0.35
	c-0.09-0.1-0.21-0.18-0.33-0.24c-0.25-0.12-0.53-0.12-0.78,0c-0.14,0.07-0.26,0.16-0.36,0.28c-0.1,0.1-0.17,0.23-0.22,0.36
	c-0.05,0.13-0.07,0.26-0.07,0.4H64.58z M68.5,13.72c-0.55,0-0.83-0.38-0.83-1.15v-1.49h0.25v1.46c0,0.64,0.22,1,0.65,1
	c0.11,0,0.22-0.02,0.32-0.06c0.1-0.04,0.2-0.09,0.29-0.16c0.09-0.07,0.17-0.15,0.24-0.25c0.07-0.1,0.13-0.21,0.16-0.32v-1.67h0.27
	v2.24c0,0.08,0,0.13,0.11,0.13v0.18h-0.11c-0.07-0.01-0.13-0.03-0.18-0.07c-0.05-0.04-0.07-0.1-0.07-0.16v-0.39
	c-0.22,0.41-0.65,0.67-1.11,0.66L68.5,13.72z M71.92,13.71c-0.17,0-0.34-0.04-0.49-0.11c-0.15-0.08-0.28-0.18-0.39-0.3
	c-0.11-0.13-0.19-0.27-0.25-0.43c-0.06-0.16-0.1-0.32-0.1-0.49c0-0.17,0.03-0.35,0.09-0.51c0.06-0.16,0.14-0.3,0.25-0.43
	c0.1-0.13,0.23-0.23,0.38-0.3c0.15-0.07,0.32-0.11,0.49-0.11c0.21,0,0.42,0.06,0.59,0.18c0.17,0.12,0.31,0.26,0.43,0.43v-0.56h0.23
	v2.64c0,0.16-0.03,0.32-0.1,0.46c-0.06,0.13-0.16,0.25-0.27,0.34c-0.12,0.09-0.25,0.15-0.39,0.2c-0.15,0.04-0.3,0.06-0.46,0.06
	c-0.14,0.02-0.27,0.02-0.41,0c-0.11-0.03-0.21-0.07-0.31-0.12c-0.1-0.05-0.18-0.11-0.25-0.19c-0.07-0.08-0.13-0.16-0.19-0.25
	l0.17-0.11c0.1,0.17,0.24,0.3,0.42,0.39c0.18,0.08,0.37,0.12,0.57,0.12c0.13,0,0.25-0.02,0.37-0.06c0.11-0.03,0.22-0.09,0.31-0.16
	c0.09-0.07,0.16-0.16,0.21-0.27c0.05-0.12,0.08-0.24,0.08-0.37v-0.57c-0.11,0.17-0.25,0.31-0.43,0.41
	C72.3,13.68,72.11,13.72,71.92,13.71z M71.98,13.5c0.11,0,0.22-0.02,0.32-0.07c0.1-0.04,0.2-0.09,0.29-0.16
	c0.08-0.06,0.15-0.14,0.21-0.22c0.05-0.08,0.08-0.16,0.1-0.25v-0.86c-0.04-0.1-0.09-0.19-0.16-0.27c-0.06-0.09-0.14-0.16-0.23-0.22
	c-0.08-0.06-0.17-0.11-0.27-0.14c-0.1-0.02-0.2-0.02-0.3,0c-0.15,0-0.29,0.03-0.42,0.1c-0.12,0.06-0.23,0.15-0.31,0.26
	c-0.09,0.11-0.15,0.23-0.19,0.36c-0.05,0.13-0.07,0.26-0.07,0.4c0,0.15,0.02,0.29,0.08,0.43c0.05,0.13,0.12,0.25,0.22,0.35
	c0.09,0.11,0.2,0.19,0.33,0.25C71.71,13.5,71.85,13.52,71.98,13.5z M76.3,13.63h-0.25v-1.41c0-0.64-0.22-1-0.65-1
	c-0.11,0-0.21,0.02-0.31,0.06c-0.1,0.04-0.2,0.1-0.28,0.17c-0.09,0.07-0.17,0.16-0.24,0.26c-0.06,0.1-0.11,0.2-0.15,0.31v1.61h-0.24
	v-3.6h0.24v1.67c0.1-0.2,0.26-0.37,0.45-0.49c0.18-0.12,0.39-0.18,0.6-0.18c0.25-0.01,0.49,0.1,0.63,0.31
	c0.07,0.11,0.12,0.23,0.15,0.36c0.02,0.16,0.02,0.32,0,0.48L76.3,13.63z M78.4,13.72c-0.19,0.01-0.38-0.02-0.55-0.09
	c-0.15-0.07-0.29-0.17-0.4-0.29c-0.12-0.12-0.21-0.27-0.27-0.43c-0.07-0.17-0.1-0.35-0.1-0.53c0-0.18,0.03-0.35,0.1-0.51
	c0.06-0.16,0.15-0.3,0.26-0.43c0.12-0.12,0.25-0.21,0.4-0.28c0.16-0.07,0.33-0.11,0.51-0.11c0.17,0,0.34,0.04,0.5,0.11
	c0.15,0.07,0.29,0.17,0.41,0.29c0.11,0.12,0.2,0.26,0.26,0.42c0.07,0.16,0.1,0.33,0.1,0.51v0.07l0,0h-2.24
	c0.01,0.14,0.04,0.29,0.1,0.42c0.06,0.12,0.13,0.23,0.23,0.33c0.09,0.09,0.2,0.17,0.32,0.22c0.12,0.05,0.25,0.08,0.38,0.08
	c0.09,0.02,0.17,0.02,0.26,0c0.09-0.02,0.17-0.06,0.25-0.1c0.08-0.04,0.14-0.1,0.2-0.16c0.05-0.06,0.1-0.13,0.13-0.2l0.22,0.06
	c-0.04,0.1-0.09,0.18-0.16,0.26c-0.07,0.08-0.16,0.15-0.25,0.2c-0.1,0.06-0.2,0.1-0.31,0.13C78.64,13.72,78.52,13.73,78.4,13.72z
	 M79.4,12.27c-0.01-0.14-0.04-0.28-0.1-0.41c-0.06-0.12-0.13-0.23-0.23-0.33c-0.09-0.09-0.2-0.16-0.32-0.22
	c-0.24-0.09-0.52-0.09-0.76,0c-0.12,0.06-0.23,0.13-0.32,0.22c-0.09,0.09-0.17,0.21-0.22,0.33c-0.05,0.13-0.09,0.27-0.1,0.41H79.4z
	 M81.68,11.3c-0.22,0.01-0.43,0.08-0.61,0.21c-0.18,0.14-0.31,0.33-0.37,0.54v1.58h-0.25v-2.55h0.24v0.64
	c0.08-0.18,0.2-0.33,0.36-0.45c0.14-0.11,0.3-0.18,0.48-0.2h0.15V11.3z M85.08,13.72c-0.21,0-0.42-0.06-0.59-0.18
	c-0.17-0.11-0.32-0.25-0.42-0.43v1.62h-0.22v-3.65h0.23v0.55c0.1-0.17,0.25-0.31,0.42-0.41c0.17-0.11,0.36-0.16,0.56-0.16
	c0.17,0,0.35,0.04,0.5,0.12c0.15,0.07,0.28,0.17,0.39,0.3c0.11,0.13,0.2,0.27,0.26,0.43c0.06,0.16,0.09,0.33,0.09,0.5
	c0,0.17-0.03,0.35-0.08,0.51c-0.05,0.16-0.14,0.31-0.25,0.43c-0.1,0.12-0.23,0.22-0.37,0.29C85.44,13.71,85.26,13.73,85.08,13.72z
	 M85.02,13.5c0.14,0,0.28-0.04,0.41-0.1c0.12-0.06,0.23-0.15,0.32-0.25c0.08-0.11,0.15-0.23,0.2-0.36c0.04-0.13,0.07-0.27,0.07-0.41
	c0-0.15-0.03-0.29-0.08-0.43c-0.06-0.13-0.13-0.25-0.23-0.35c-0.18-0.21-0.45-0.33-0.73-0.34c-0.1-0.01-0.19-0.01-0.29,0
	c-0.1,0.04-0.19,0.09-0.28,0.16c-0.09,0.06-0.17,0.13-0.23,0.22c-0.06,0.07-0.1,0.16-0.11,0.26v0.86c0.04,0.1,0.1,0.19,0.16,0.27
	l0.22,0.22c0.08,0.06,0.17,0.11,0.27,0.14C84.81,13.45,84.91,13.48,85.02,13.5z M88.21,13.72c-0.18,0-0.35-0.04-0.51-0.11
	c-0.15-0.07-0.29-0.17-0.4-0.29c-0.12-0.12-0.21-0.27-0.27-0.43c-0.06-0.16-0.09-0.34-0.09-0.51c0-0.18,0.03-0.36,0.1-0.52
	c0.06-0.16,0.15-0.3,0.26-0.43c0.12-0.12,0.25-0.22,0.4-0.29c0.16-0.07,0.33-0.11,0.51-0.11c0.17,0,0.34,0.04,0.49,0.11
	c0.15,0.07,0.29,0.17,0.41,0.29c0.11,0.13,0.2,0.27,0.27,0.43c0.06,0.17,0.09,0.34,0.09,0.52c0.01,0.35-0.12,0.69-0.36,0.94
	c-0.11,0.12-0.25,0.22-0.4,0.29C88.55,13.68,88.38,13.72,88.21,13.72z M87.21,12.39c-0.01,0.15,0.02,0.29,0.08,0.43
	c0.09,0.26,0.29,0.48,0.54,0.59c0.25,0.12,0.53,0.12,0.78,0c0.13-0.06,0.24-0.14,0.33-0.24c0.09-0.11,0.17-0.23,0.22-0.36
	c0.05-0.14,0.08-0.29,0.08-0.44c0-0.15-0.03-0.29-0.08-0.43c-0.05-0.13-0.13-0.25-0.22-0.35c-0.09-0.1-0.2-0.18-0.32-0.24
	c-0.12-0.06-0.25-0.09-0.39-0.09c-0.14,0-0.28,0.03-0.4,0.09c-0.12,0.06-0.23,0.14-0.32,0.24c-0.09,0.11-0.17,0.23-0.22,0.36
	c-0.06,0.14-0.09,0.29-0.1,0.44H87.21z M90.34,10.03h0.25v3.13c0,0.09,0.03,0.17,0.09,0.23c0.06,0.05,0.14,0.08,0.22,0.08h0.14h0.14
	v0.2l-0.21,0.06h-0.22c-0.12,0.01-0.24-0.04-0.33-0.13c-0.09-0.09-0.14-0.21-0.13-0.34L90.34,10.03z M91.98,14.55h0.17
	c0.03,0.01,0.05,0.01,0.08,0h0.06c0.02-0.03,0.04-0.07,0.06-0.11c0.05-0.08,0.09-0.16,0.12-0.25l0.19-0.45l-1.16-2.59h0.26l1,2.35
	l1-2.35H94l-1.42,3.41c-0.04,0.09-0.1,0.16-0.18,0.22c-0.1,0.05-0.22,0.08-0.33,0.07h-0.09V14.55z M95.55,13.72
	c-0.55,0-0.83-0.38-0.83-1.15v-1.49h0.25v1.46c0,0.67,0.22,1,0.66,1c0.11,0,0.22-0.02,0.32-0.06c0.1-0.04,0.2-0.09,0.29-0.16
	c0.09-0.07,0.17-0.16,0.23-0.25c0.07-0.1,0.13-0.21,0.16-0.32v-1.67h0.22v2.24c0,0.08,0,0.13,0.11,0.13v0.18h-0.08
	c-0.06,0-0.12-0.03-0.17-0.07c-0.05-0.04-0.08-0.1-0.08-0.16v-0.39c-0.11,0.2-0.27,0.37-0.47,0.49
	C95.98,13.62,95.77,13.7,95.55,13.72z M99.15,11.3c-0.22,0.01-0.43,0.08-0.61,0.21c-0.18,0.13-0.3,0.32-0.36,0.54v1.58h-0.25v-2.55
	h0.24v0.64c0.08-0.18,0.2-0.33,0.35-0.45c0.14-0.11,0.3-0.18,0.48-0.2h0.15V11.3z M100.85,13.72c-0.18,0-0.35-0.04-0.51-0.11
	c-0.15-0.07-0.29-0.17-0.41-0.29c-0.11-0.13-0.2-0.27-0.27-0.43c-0.06-0.17-0.09-0.35-0.09-0.53c0-0.17,0.03-0.35,0.09-0.51
	c0.07-0.16,0.16-0.3,0.27-0.43c0.11-0.12,0.25-0.21,0.4-0.28c0.16-0.07,0.33-0.11,0.5-0.11c0.18,0,0.35,0.04,0.51,0.11
	c0.15,0.07,0.29,0.17,0.41,0.29c0.11,0.12,0.2,0.26,0.26,0.42c0.06,0.16,0.1,0.34,0.1,0.51v0.07l0,0h-2.26
	c0.01,0.14,0.04,0.29,0.1,0.42c0.06,0.12,0.13,0.23,0.23,0.33c0.09,0.09,0.19,0.17,0.31,0.22c0.12,0.05,0.26,0.08,0.39,0.08
	c0.09,0.02,0.17,0.02,0.26,0c0.08-0.02,0.17-0.05,0.24-0.1c0.08-0.04,0.15-0.09,0.2-0.16c0.06-0.06,0.11-0.12,0.14-0.2l0.22,0.06
	c-0.04,0.09-0.09,0.18-0.16,0.26c-0.07,0.08-0.16,0.14-0.25,0.2c-0.1,0.06-0.2,0.1-0.31,0.13C101.1,13.7,100.97,13.72,100.85,13.72z
	 M101.85,12.27c-0.01-0.14-0.05-0.28-0.11-0.41c-0.05-0.12-0.13-0.24-0.22-0.33c-0.09-0.09-0.2-0.16-0.32-0.22
	c-0.12-0.05-0.25-0.07-0.38-0.07c-0.13,0-0.27,0.02-0.39,0.07c-0.11,0.06-0.22,0.13-0.31,0.22c-0.09,0.09-0.17,0.21-0.22,0.33
	c-0.06,0.13-0.09,0.27-0.1,0.41H101.85z M104.04,13.55h-0.07l-0.12,0.08h-0.16h-0.19c-0.07,0.01-0.13,0.01-0.2,0
	c-0.06-0.02-0.11-0.05-0.16-0.09c-0.05-0.04-0.09-0.08-0.11-0.14c-0.01-0.07-0.01-0.13,0-0.2v-2h-0.37V11h0.37v-0.89h0.25V11h0.6
	v0.2h-0.6v1.9c-0.01,0.08,0.03,0.16,0.1,0.21c0.06,0.05,0.14,0.08,0.22,0.08c0.09,0,0.19-0.02,0.27-0.06l0.14-0.06L104.04,13.55z
	 M106.85,13.63h-0.25v-1.41c0-0.64-0.21-1-0.64-1c-0.11,0-0.22,0.02-0.32,0.06c-0.1,0.04-0.2,0.1-0.28,0.17
	c-0.09,0.07-0.17,0.16-0.23,0.26c-0.07,0.09-0.12,0.2-0.15,0.31v1.61h-0.25v-3.6h0.25v1.67c0.1-0.2,0.25-0.37,0.44-0.49
	c0.18-0.12,0.39-0.18,0.61-0.18c0.12,0,0.25,0.03,0.36,0.08c0.1,0.05,0.19,0.13,0.26,0.23c0.07,0.11,0.12,0.23,0.15,0.36
	c0.02,0.16,0.02,0.32,0,0.48L106.85,13.63z M108.49,13.72c-0.22,0-0.44-0.08-0.61-0.23c-0.07-0.08-0.13-0.16-0.18-0.26
	c-0.04-0.1-0.06-0.2-0.06-0.31c-0.01-0.11,0.02-0.22,0.08-0.31c0.05-0.1,0.13-0.18,0.22-0.24c0.1-0.08,0.22-0.13,0.34-0.16
	c0.14-0.04,0.29-0.06,0.44-0.06c0.14-0.01,0.28-0.01,0.42,0c0.13,0.02,0.26,0.05,0.38,0.1v-0.22c0.01-0.21-0.06-0.42-0.21-0.58
	c-0.15-0.15-0.36-0.23-0.57-0.22c-0.14,0-0.27,0.03-0.4,0.08c-0.15,0.06-0.3,0.14-0.43,0.23l-0.09-0.17c0.27-0.2,0.6-0.32,0.94-0.34
	c0.27-0.02,0.54,0.08,0.74,0.27c0.19,0.2,0.29,0.47,0.27,0.75v1.27c0,0.08,0,0.13,0.11,0.13v0.18h-0.1c-0.06,0-0.12-0.02-0.16-0.07
	c-0.04-0.04-0.06-0.1-0.07-0.16v-0.21c-0.12,0.15-0.28,0.28-0.46,0.36C108.9,13.65,108.7,13.71,108.49,13.72z M108.49,13.52
	c0.18,0,0.36-0.04,0.53-0.11c0.15-0.06,0.28-0.16,0.37-0.29c0.05-0.05,0.08-0.13,0.08-0.2v-0.46c-0.12-0.04-0.24-0.08-0.37-0.1
	c-0.14-0.01-0.27-0.01-0.41,0c-0.12,0-0.24,0.02-0.35,0.05c-0.1,0.02-0.19,0.05-0.27,0.11c-0.15,0.09-0.24,0.25-0.24,0.42
	c-0.02,0.08-0.02,0.17,0,0.25c0.03,0.07,0.08,0.14,0.14,0.19c0.13,0.12,0.3,0.18,0.47,0.18L108.49,13.52z M112.9,13.63h-0.25v-1.41
	c0.02-0.25-0.03-0.5-0.14-0.73c-0.1-0.15-0.27-0.24-0.45-0.23c-0.11,0-0.22,0.02-0.33,0.06c-0.11,0.04-0.21,0.1-0.3,0.17
	c-0.1,0.07-0.18,0.16-0.25,0.26c-0.07,0.09-0.12,0.2-0.15,0.31v1.57h-0.25v-2.55h0.23v0.62c0.06-0.1,0.12-0.19,0.2-0.28
	c0.08-0.08,0.17-0.15,0.26-0.21c0.1-0.05,0.21-0.1,0.32-0.13c0.11-0.03,0.22-0.05,0.34-0.05c0.24-0.02,0.47,0.09,0.59,0.3
	c0.13,0.26,0.2,0.56,0.18,0.85L112.9,13.63z M115,13.72c-0.18,0-0.35-0.04-0.51-0.11c-0.15-0.07-0.29-0.17-0.4-0.29
	c-0.12-0.12-0.21-0.27-0.27-0.43c-0.07-0.17-0.1-0.35-0.1-0.53c0-0.18,0.03-0.35,0.1-0.51c0.06-0.16,0.15-0.31,0.27-0.43
	c0.11-0.12,0.25-0.22,0.4-0.28c0.16-0.07,0.33-0.11,0.5-0.11c0.18,0,0.35,0.04,0.51,0.11c0.15,0.07,0.29,0.17,0.4,0.29
	c0.11,0.12,0.2,0.27,0.27,0.42c0.06,0.16,0.09,0.34,0.09,0.51v0.11h-2.28c0.01,0.15,0.05,0.29,0.11,0.42
	c0.05,0.12,0.13,0.23,0.22,0.33c0.09,0.09,0.2,0.17,0.32,0.22c0.12,0.05,0.25,0.08,0.38,0.08c0.09,0.01,0.18,0.01,0.27,0
	c0.08-0.02,0.16-0.06,0.24-0.1c0.08-0.04,0.14-0.1,0.2-0.16c0.06-0.06,0.11-0.13,0.14-0.2l0.22,0.06c-0.04,0.1-0.1,0.18-0.17,0.26
	c-0.07,0.08-0.16,0.15-0.25,0.2c-0.1,0.06-0.2,0.1-0.31,0.13C115.23,13.73,115.12,13.73,115,13.72z M116,12.27
	c-0.01-0.14-0.04-0.28-0.1-0.41c-0.05-0.12-0.13-0.24-0.23-0.33c-0.09-0.09-0.2-0.16-0.31-0.22c-0.12-0.05-0.26-0.07-0.39-0.07
	c-0.13,0-0.26,0.02-0.38,0.07c-0.12,0.06-0.23,0.13-0.32,0.22c-0.09,0.1-0.17,0.21-0.22,0.33c-0.05,0.13-0.08,0.27-0.09,0.41H116z
	 M0.08,22.34c0-0.35,0.13-0.68,0.36-0.94c0.12-0.12,0.25-0.22,0.41-0.29c0.16-0.07,0.33-0.1,0.51-0.1c0.22-0.01,0.43,0.05,0.62,0.16
	c0.18,0.1,0.32,0.25,0.41,0.44l-0.25,0.08c-0.06-0.14-0.16-0.25-0.29-0.33c-0.14-0.09-0.3-0.13-0.47-0.13
	c-0.14,0-0.28,0.03-0.4,0.09c-0.12,0.05-0.23,0.13-0.32,0.23c-0.09,0.1-0.17,0.22-0.22,0.35c-0.16,0.42-0.08,0.9,0.22,1.24
	c0.09,0.1,0.21,0.18,0.33,0.24c0.12,0.06,0.25,0.09,0.39,0.09c0.09,0.01,0.18,0.01,0.27,0c0.07-0.04,0.14-0.09,0.2-0.14
	c0.07-0.04,0.13-0.09,0.19-0.15c0.05-0.05,0.09-0.12,0.11-0.19l0.25,0.07c-0.04,0.09-0.09,0.18-0.16,0.26
	C2.17,23.4,2.09,23.47,2,23.52c-0.1,0.06-0.2,0.1-0.31,0.13c-0.12,0.02-0.23,0.02-0.35,0c-0.16,0.03-0.33,0.02-0.49-0.02
	c-0.16-0.07-0.29-0.17-0.41-0.29c-0.12-0.13-0.21-0.28-0.27-0.44C0.1,22.72,0.07,22.53,0.08,22.34z M4.29,23.7
	c-0.17,0-0.34-0.04-0.5-0.11c-0.31-0.14-0.56-0.4-0.67-0.72c-0.06-0.16-0.09-0.34-0.09-0.51c0-0.18,0.03-0.35,0.09-0.52
	c0.06-0.16,0.16-0.3,0.27-0.43c0.11-0.12,0.25-0.22,0.4-0.29c0.16-0.07,0.33-0.11,0.5-0.11c0.17,0,0.34,0.04,0.5,0.11
	c0.15,0.07,0.29,0.17,0.4,0.29c0.12,0.12,0.21,0.27,0.27,0.43c0.07,0.16,0.1,0.34,0.1,0.52c0,0.18-0.03,0.35-0.1,0.51
	c-0.06,0.16-0.15,0.31-0.27,0.43C4.96,23.55,4.63,23.7,4.29,23.7z M3.29,22.37c0,0.15,0.03,0.29,0.08,0.43
	c0.06,0.13,0.13,0.25,0.22,0.35c0.09,0.1,0.2,0.18,0.32,0.24c0.13,0.05,0.26,0.08,0.4,0.08c0.13,0,0.27-0.03,0.39-0.08
	c0.12-0.06,0.24-0.15,0.33-0.25c0.09-0.1,0.16-0.22,0.22-0.35c0.05-0.14,0.07-0.29,0.07-0.44c0-0.15-0.02-0.29-0.07-0.43
	c-0.05-0.13-0.13-0.25-0.22-0.35c-0.09-0.11-0.2-0.19-0.33-0.25c-0.25-0.12-0.53-0.12-0.78,0c-0.12,0.06-0.23,0.15-0.32,0.25
	c-0.1,0.1-0.17,0.23-0.22,0.36c-0.07,0.14-0.1,0.29-0.11,0.44L3.29,22.37z M8.53,23.63H8.28V22.2c0.02-0.25-0.03-0.51-0.15-0.73
	c-0.1-0.15-0.27-0.24-0.45-0.23c-0.11,0-0.22,0.02-0.32,0.06c-0.11,0.04-0.21,0.1-0.3,0.17c-0.1,0.07-0.18,0.15-0.25,0.25
	c-0.07,0.1-0.12,0.21-0.15,0.32v1.59H6.41v-2.6h0.23v0.6c0.05-0.1,0.12-0.19,0.2-0.27C6.92,21.28,7,21.21,7.1,21.15
	c0.1-0.06,0.2-0.1,0.31-0.13c0.11-0.01,0.23-0.01,0.34,0c0.24-0.03,0.48,0.09,0.6,0.3c0.14,0.26,0.2,0.56,0.18,0.85V23.63z
	 M10.6,23.7c-0.17,0-0.34-0.04-0.5-0.11c-0.15-0.07-0.29-0.18-0.4-0.3c-0.11-0.13-0.2-0.27-0.26-0.43c-0.06-0.16-0.09-0.33-0.09-0.5
	c0-0.18,0.03-0.35,0.09-0.52c0.06-0.16,0.14-0.3,0.25-0.43c0.1-0.12,0.23-0.22,0.37-0.29c0.25-0.12,0.54-0.14,0.8-0.06
	c0.1,0.03,0.19,0.08,0.28,0.13c0.08,0.06,0.16,0.12,0.23,0.19c0.07,0.07,0.13,0.15,0.18,0.24v-1.61h0.3v3.29
	c0,0.08,0,0.12,0.11,0.12v0.21h-0.11c-0.06,0.03-0.14,0.03-0.2,0c-0.04-0.04-0.07-0.1-0.07-0.16v-0.34
	c-0.11,0.17-0.25,0.31-0.43,0.41C10.99,23.65,10.8,23.7,10.6,23.7z M10.6,23.47c0.1,0,0.2-0.02,0.29-0.05
	c0.1-0.04,0.2-0.09,0.29-0.15c0.09-0.06,0.16-0.14,0.22-0.23c0.06-0.08,0.1-0.17,0.11-0.27v-0.85c-0.07-0.2-0.21-0.37-0.39-0.48
	c-0.08-0.06-0.17-0.11-0.27-0.15c-0.09-0.04-0.19-0.06-0.29-0.06c-0.14,0-0.28,0.04-0.41,0.1c-0.12,0.08-0.22,0.18-0.3,0.3
	c-0.08,0.11-0.15,0.22-0.2,0.35c-0.04,0.14-0.07,0.28-0.07,0.42c0,0.14,0.03,0.29,0.08,0.42c0.05,0.13,0.13,0.26,0.23,0.36
	c0.09,0.1,0.2,0.18,0.32,0.24c0.14,0.05,0.28,0.06,0.43,0.05H10.6z M13.93,23.7c-0.17,0-0.34-0.04-0.5-0.11
	c-0.31-0.14-0.56-0.4-0.67-0.72c-0.06-0.16-0.09-0.34-0.09-0.51c0-0.18,0.03-0.35,0.09-0.52c0.06-0.16,0.16-0.3,0.27-0.43
	c0.11-0.12,0.25-0.22,0.4-0.29c0.16-0.07,0.33-0.11,0.5-0.11c0.17,0,0.34,0.04,0.5,0.11c0.15,0.07,0.29,0.17,0.4,0.29
	c0.12,0.12,0.21,0.27,0.27,0.43c0.07,0.16,0.1,0.34,0.1,0.52c0,0.18-0.03,0.35-0.1,0.51c-0.11,0.32-0.36,0.58-0.67,0.72
	C14.27,23.66,14.1,23.7,13.93,23.7z M12.93,22.37c0,0.15,0.02,0.29,0.08,0.43c0.05,0.13,0.12,0.25,0.21,0.35
	c0.09,0.1,0.2,0.18,0.32,0.24c0.13,0.05,0.26,0.08,0.4,0.08c0.13,0,0.27-0.03,0.39-0.08c0.12-0.06,0.24-0.15,0.33-0.25
	c0.09-0.1,0.16-0.22,0.22-0.35c0.05-0.14,0.08-0.29,0.08-0.44c0-0.29-0.1-0.57-0.3-0.78c-0.09-0.11-0.2-0.19-0.33-0.25
	c-0.25-0.12-0.53-0.12-0.78,0c-0.12,0.06-0.23,0.15-0.32,0.25c-0.1,0.1-0.17,0.23-0.22,0.36c-0.06,0.14-0.09,0.29-0.09,0.44
	L12.93,22.37z M19.85,23.63H19.6V22.2c0.02-0.25-0.03-0.5-0.15-0.73c-0.11-0.15-0.28-0.24-0.47-0.23c-0.1,0-0.21,0.02-0.3,0.06
	c-0.1,0.04-0.19,0.1-0.27,0.17c-0.08,0.07-0.15,0.16-0.21,0.25c-0.06,0.1-0.1,0.22-0.13,0.33v1.58h-0.22V22.2
	c0.02-0.25-0.03-0.5-0.15-0.73c-0.11-0.15-0.28-0.24-0.47-0.23c-0.21,0-0.41,0.08-0.56,0.22c-0.08,0.07-0.15,0.16-0.21,0.25
	c-0.06,0.1-0.11,0.21-0.14,0.33v1.59h-0.27v-2.6h0.23v0.6c0.1-0.19,0.24-0.36,0.42-0.49c0.17-0.11,0.37-0.17,0.57-0.17
	c0.2-0.01,0.39,0.06,0.54,0.19c0.14,0.14,0.22,0.32,0.24,0.51c0.17-0.41,0.56-0.68,1-0.7c0.24-0.02,0.48,0.1,0.61,0.3
	c0.13,0.26,0.2,0.56,0.18,0.85L19.85,23.63z M20.85,23.63V23.2h0.21v0.43H20.85z M24.56,20.11h0.22l1.49,3.52H26l-0.49-1.17h-1.66
	l-0.53,1.17h-0.27L24.56,20.11z M25.44,22.27l-0.77-1.85l-0.82,1.85H25.44z M28.06,23.52H28l-0.15,0.11l-0.16,0.05H27.5
	c-0.07,0.01-0.13,0.01-0.2,0c-0.06-0.02-0.11-0.05-0.16-0.09c-0.05-0.04-0.09-0.09-0.11-0.15c-0.02-0.07-0.02-0.13,0-0.2v-1.98
	h-0.38v-0.21h0.36v-0.88h0.25v0.88h0.59v0.21h-0.6v1.89c-0.01,0.09,0.03,0.17,0.1,0.22c0.06,0.05,0.14,0.07,0.22,0.07
	c0.09,0.01,0.19-0.01,0.27-0.05l0.14-0.07L28.06,23.52z M32.66,22.19c0,0.2-0.03,0.41-0.1,0.6c-0.05,0.18-0.14,0.34-0.26,0.48
	c-0.11,0.13-0.24,0.24-0.39,0.32c-0.16,0.07-0.33,0.11-0.5,0.11c-0.17,0-0.34-0.04-0.49-0.11c-0.15-0.08-0.28-0.19-0.39-0.32
	c-0.12-0.14-0.21-0.3-0.26-0.48c-0.06-0.19-0.09-0.4-0.09-0.6c0-0.21,0.03-0.41,0.09-0.61c0.06-0.17,0.15-0.34,0.26-0.48
	c0.11-0.13,0.24-0.24,0.39-0.32c0.15-0.07,0.32-0.11,0.49-0.11c0.17,0,0.34,0.04,0.5,0.11c0.15,0.08,0.28,0.19,0.39,0.32
	c0.12,0.14,0.21,0.3,0.26,0.48C32.62,21.78,32.66,21.98,32.66,22.19z M32.4,22.19c0-0.18-0.02-0.35-0.07-0.52
	c-0.04-0.15-0.11-0.29-0.2-0.41c-0.17-0.23-0.44-0.36-0.72-0.36c-0.14,0-0.28,0.04-0.4,0.1c-0.12,0.06-0.23,0.15-0.31,0.26
	c-0.09,0.12-0.16,0.26-0.2,0.41c-0.05,0.17-0.07,0.34-0.07,0.52c0,0.17,0.02,0.34,0.07,0.51c0.04,0.15,0.11,0.29,0.2,0.41
	c0.08,0.11,0.19,0.2,0.31,0.26c0.12,0.06,0.26,0.09,0.4,0.09c0.14,0,0.28-0.03,0.41-0.09c0.12-0.06,0.23-0.15,0.31-0.26
	c0.09-0.12,0.16-0.26,0.2-0.41C32.38,22.54,32.4,22.36,32.4,22.19z M33.52,23.63V23.2h0.22v0.43H33.52z M37.08,22.19
	c0,0.2-0.03,0.41-0.09,0.6c-0.05,0.18-0.14,0.34-0.26,0.48c-0.11,0.13-0.24,0.24-0.39,0.32c-0.16,0.07-0.33,0.11-0.5,0.11
	c-0.35,0-0.68-0.16-0.89-0.43c-0.11-0.14-0.2-0.31-0.25-0.48c-0.06-0.19-0.09-0.4-0.09-0.6c0-0.21,0.03-0.41,0.09-0.61
	c0.06-0.17,0.14-0.33,0.25-0.48c0.11-0.13,0.25-0.24,0.4-0.32c0.15-0.09,0.32-0.14,0.5-0.15c0.17,0,0.34,0.04,0.5,0.11
	c0.15,0.08,0.28,0.19,0.39,0.32c0.11,0.14,0.2,0.31,0.26,0.48C37.06,21.75,37.09,21.97,37.08,22.19z M36.83,22.19
	c0-0.18-0.02-0.35-0.07-0.52c-0.04-0.15-0.11-0.29-0.2-0.41c-0.09-0.11-0.19-0.2-0.32-0.26c-0.12-0.06-0.26-0.1-0.4-0.1
	c-0.14,0-0.28,0.04-0.4,0.1c-0.12,0.06-0.23,0.15-0.31,0.26c-0.09,0.12-0.16,0.26-0.2,0.41c-0.05,0.17-0.08,0.34-0.08,0.52
	c0,0.17,0.03,0.35,0.08,0.51c0.04,0.15,0.11,0.29,0.2,0.41c0.08,0.11,0.19,0.2,0.31,0.26c0.12,0.06,0.26,0.09,0.4,0.09
	c0.14,0,0.28-0.03,0.4-0.09c0.13-0.06,0.23-0.15,0.32-0.26c0.09-0.12,0.16-0.26,0.2-0.41c0.06-0.16,0.09-0.34,0.09-0.51H36.83z
	 M37.85,23.63c-0.01-0.1-0.01-0.21,0-0.31c0.01-0.12,0.05-0.24,0.11-0.35c0.06-0.13,0.15-0.25,0.25-0.35
	c0.13-0.12,0.29-0.22,0.45-0.3l0.3-0.14c0.1-0.05,0.2-0.1,0.29-0.16c0.09-0.06,0.17-0.13,0.23-0.21c0.06-0.08,0.09-0.19,0.09-0.29
	c0-0.07-0.02-0.14-0.05-0.2c-0.03-0.07-0.07-0.13-0.13-0.18c-0.06-0.06-0.14-0.1-0.22-0.13c-0.11-0.02-0.21-0.02-0.32,0
	c-0.1-0.02-0.21-0.02-0.31,0c-0.09,0.03-0.17,0.07-0.24,0.12l-0.17,0.14l-0.09,0.11l-0.19-0.16l0.09-0.09
	c0.06-0.06,0.13-0.11,0.21-0.16c0.1-0.06,0.2-0.11,0.31-0.15c0.13-0.05,0.27-0.07,0.41-0.07c0.14,0,0.27,0.02,0.4,0.06
	c0.11,0.04,0.21,0.09,0.3,0.17c0.08,0.07,0.14,0.16,0.19,0.25c0.04,0.09,0.06,0.2,0.06,0.3c0,0.12-0.04,0.24-0.1,0.35
	c-0.07,0.1-0.15,0.19-0.25,0.26c-0.09,0.08-0.19,0.14-0.3,0.19l-0.27,0.13c-0.22,0.09-0.43,0.22-0.6,0.39
	c-0.14,0.16-0.21,0.36-0.21,0.57h1.78v0.21H37.85z M46.13,23.63h-0.28V22.2c0.02-0.25-0.03-0.5-0.15-0.73
	c-0.11-0.15-0.28-0.24-0.47-0.23c-0.1,0-0.2,0.02-0.3,0.06c-0.1,0.03-0.19,0.09-0.26,0.17c-0.08,0.07-0.15,0.16-0.21,0.25
	c-0.06,0.1-0.11,0.21-0.14,0.33v1.58h-0.25V22.2c0.02-0.25-0.03-0.5-0.15-0.73c-0.1-0.15-0.28-0.24-0.46-0.23
	c-0.1,0-0.21,0.02-0.3,0.06c-0.1,0.03-0.19,0.09-0.27,0.16c-0.08,0.07-0.15,0.16-0.21,0.25c-0.06,0.1-0.11,0.21-0.14,0.33v1.59
	h-0.25v-2.6h0.24v0.6c0.09-0.2,0.23-0.37,0.41-0.49c0.17-0.11,0.37-0.17,0.58-0.17c0.2-0.01,0.39,0.06,0.53,0.19
	c0.14,0.14,0.23,0.32,0.25,0.51c0.16-0.41,0.56-0.69,1-0.7c0.24-0.02,0.48,0.09,0.61,0.3c0.13,0.26,0.2,0.56,0.18,0.85L46.13,23.63z
	 M50.94,23.63H50.7V22.2c0.01-0.25-0.04-0.51-0.16-0.73c-0.1-0.15-0.28-0.24-0.46-0.23c-0.11,0-0.21,0.02-0.31,0.06
	c-0.1,0.04-0.18,0.1-0.26,0.17c-0.08,0.07-0.15,0.16-0.21,0.25c-0.06,0.1-0.11,0.22-0.14,0.33v1.58h-0.25V22.2
	c0.01-0.25-0.03-0.5-0.14-0.73c-0.11-0.15-0.28-0.24-0.47-0.23c-0.1,0-0.21,0.02-0.3,0.06c-0.1,0.03-0.19,0.09-0.26,0.16
	c-0.08,0.07-0.15,0.16-0.21,0.25c-0.07,0.1-0.12,0.21-0.15,0.33v1.59h-0.25v-2.6h0.24v0.6c0.09-0.2,0.24-0.37,0.42-0.49
	c0.17-0.11,0.37-0.17,0.57-0.17c0.2-0.01,0.39,0.06,0.53,0.19c0.14,0.14,0.23,0.32,0.25,0.51c0.17-0.41,0.56-0.68,1-0.7
	c0.24-0.02,0.47,0.09,0.6,0.3c0.13,0.26,0.2,0.56,0.18,0.85L50.94,23.63z M52.04,24.05l0.08-0.39h-0.09v-0.44h0.25v0.41l-0.1,0.39
	L52.04,24.05z M57.05,20.69c-0.26-0.27-0.63-0.41-1-0.38c-0.27-0.02-0.54,0.05-0.76,0.2c-0.16,0.13-0.25,0.33-0.24,0.53
	c0,0.1,0.02,0.19,0.06,0.28c0.04,0.08,0.11,0.15,0.19,0.19c0.1,0.06,0.21,0.11,0.32,0.14l0.47,0.11l0.52,0.13
	c0.14,0.04,0.27,0.11,0.39,0.19c0.11,0.07,0.19,0.16,0.25,0.27c0.06,0.12,0.1,0.25,0.09,0.39c0,0.14-0.03,0.28-0.09,0.41
	c-0.06,0.11-0.15,0.21-0.26,0.29c-0.12,0.08-0.26,0.14-0.4,0.18c-0.17,0.04-0.34,0.06-0.52,0.06c-0.52,0.01-1.02-0.18-1.4-0.53
	l0.13-0.21c0.16,0.16,0.34,0.29,0.55,0.38c0.23,0.09,0.48,0.14,0.73,0.13c0.25,0.02,0.51-0.04,0.73-0.17
	c0.17-0.11,0.27-0.31,0.26-0.51c0.01-0.1-0.02-0.21-0.07-0.3c-0.05-0.08-0.13-0.16-0.21-0.21c-0.1-0.07-0.22-0.12-0.34-0.15
	c-0.16-0.05-0.32-0.1-0.49-0.13c-0.17-0.03-0.34-0.08-0.5-0.13c-0.13-0.04-0.25-0.09-0.37-0.16c-0.09-0.07-0.17-0.15-0.22-0.25
	c-0.06-0.12-0.08-0.24-0.08-0.37c0-0.15,0.03-0.29,0.1-0.42c0.06-0.12,0.14-0.23,0.25-0.31c0.12-0.09,0.25-0.16,0.4-0.19
	c0.17-0.05,0.34-0.07,0.51-0.07c0.21,0,0.41,0.03,0.61,0.1c0.18,0.07,0.35,0.18,0.49,0.32L57.05,20.69z M58.85,23.7
	c-0.11,0-0.23-0.02-0.33-0.07c-0.1-0.03-0.2-0.09-0.28-0.16c-0.07-0.08-0.13-0.17-0.18-0.26C58.02,23.11,58,23,58,22.89
	c0-0.11,0.02-0.21,0.08-0.3c0.05-0.1,0.13-0.19,0.22-0.25c0.11-0.07,0.22-0.12,0.34-0.16c0.15-0.02,0.29-0.02,0.44,0
	c0.14-0.01,0.28-0.01,0.42,0c0.13,0.02,0.26,0.06,0.38,0.11v-0.26c0.01-0.21-0.06-0.42-0.21-0.58c-0.15-0.15-0.36-0.23-0.57-0.22
	c-0.14,0-0.27,0.03-0.4,0.08c-0.15,0.06-0.3,0.14-0.43,0.23l-0.09-0.17c0.27-0.21,0.6-0.33,0.94-0.34c0.27-0.02,0.54,0.08,0.74,0.27
	c0.19,0.2,0.29,0.47,0.27,0.75v1.27c0,0.08,0,0.12,0.11,0.12v0.19h-0.1c-0.06,0.03-0.13,0.03-0.19,0c-0.06-0.05-0.09-0.12-0.1-0.2
	v-0.22c-0.12,0.16-0.28,0.28-0.46,0.36C59.22,23.65,59.04,23.7,58.85,23.7z M58.9,23.5c0.18,0,0.36-0.04,0.53-0.11
	c0.15-0.06,0.28-0.16,0.37-0.29c0.05-0.05,0.08-0.13,0.08-0.2v-0.46c-0.12-0.05-0.24-0.08-0.37-0.1c-0.14-0.02-0.27-0.02-0.41,0
	c-0.12-0.01-0.23-0.01-0.35,0c-0.1,0.02-0.19,0.06-0.27,0.12c-0.07,0.04-0.14,0.11-0.18,0.18c-0.07,0.15-0.07,0.33,0,0.48
	c0.03,0.08,0.08,0.15,0.14,0.2c0.06,0.06,0.13,0.1,0.21,0.13c0.06,0.03,0.13,0.04,0.2,0.05H58.9z M62.16,23.69
	c-0.17,0-0.34-0.04-0.5-0.11c-0.14-0.07-0.27-0.18-0.38-0.3c-0.11-0.13-0.2-0.27-0.26-0.43c-0.06-0.16-0.09-0.32-0.09-0.49
	c0-0.17,0.03-0.35,0.09-0.51c0.05-0.16,0.13-0.3,0.24-0.43c0.11-0.13,0.24-0.23,0.39-0.3c0.15-0.07,0.32-0.11,0.49-0.11
	c0.21,0,0.42,0.06,0.59,0.18c0.17,0.11,0.31,0.26,0.42,0.43v-0.57h0.23v2.65c0,0.16-0.03,0.32-0.1,0.46
	c-0.06,0.13-0.15,0.24-0.26,0.33c-0.11,0.09-0.25,0.16-0.39,0.2c-0.15,0.05-0.31,0.07-0.47,0.07c-0.13,0.02-0.27,0.02-0.4,0
	c-0.11-0.03-0.22-0.07-0.32-0.12c-0.09-0.05-0.17-0.12-0.24-0.19c-0.07-0.07-0.14-0.16-0.19-0.25l0.17-0.11
	c0.1,0.17,0.24,0.3,0.42,0.38c0.17,0.08,0.37,0.13,0.56,0.13c0.13,0,0.26-0.02,0.38-0.06c0.11-0.03,0.22-0.09,0.31-0.16
	c0.09-0.07,0.16-0.16,0.21-0.27c0.05-0.12,0.07-0.24,0.07-0.37v-0.61c-0.1,0.17-0.25,0.31-0.42,0.41
	C62.54,23.64,62.35,23.69,62.16,23.69z M62.22,23.47c0.11,0,0.22-0.02,0.32-0.06c0.1-0.04,0.2-0.09,0.28-0.16
	c0.09-0.06,0.16-0.14,0.21-0.23c0.06-0.07,0.09-0.16,0.1-0.25v-0.85c-0.08-0.19-0.21-0.36-0.38-0.49c-0.09-0.06-0.18-0.11-0.28-0.14
	c-0.09-0.04-0.19-0.06-0.29-0.06c-0.15,0-0.29,0.03-0.42,0.1c-0.12,0.06-0.23,0.15-0.31,0.26c-0.09,0.11-0.15,0.23-0.2,0.36
	c-0.04,0.13-0.07,0.27-0.07,0.41c0,0.14,0.03,0.29,0.08,0.42c0.05,0.13,0.13,0.25,0.22,0.36c0.1,0.1,0.21,0.18,0.33,0.24
	C61.94,23.44,62.08,23.47,62.22,23.47z M65.05,23.7c-0.11,0-0.23-0.02-0.33-0.07c-0.1-0.03-0.2-0.09-0.28-0.16
	c-0.07-0.08-0.14-0.16-0.18-0.26c-0.04-0.1-0.06-0.21-0.06-0.32c0-0.11,0.02-0.21,0.08-0.3c0.05-0.1,0.13-0.19,0.22-0.25
	c0.11-0.07,0.22-0.12,0.34-0.16c0.15-0.02,0.29-0.02,0.44,0c0.14-0.01,0.28-0.01,0.42,0c0.13,0.02,0.26,0.06,0.38,0.11v-0.26
	c0.01-0.22-0.07-0.44-0.23-0.6c-0.15-0.15-0.36-0.23-0.57-0.22c-0.14,0-0.27,0.03-0.4,0.08c-0.15,0.06-0.3,0.14-0.43,0.23
	l-0.09-0.17c0.27-0.21,0.6-0.33,0.94-0.34c0.27-0.02,0.54,0.08,0.74,0.27c0.19,0.2,0.29,0.47,0.27,0.75v1.27
	c0,0.08,0,0.12,0.11,0.12v0.21h-0.1c-0.06,0-0.12-0.03-0.16-0.07c-0.04-0.04-0.06-0.1-0.07-0.16v-0.22
	c-0.12,0.16-0.28,0.28-0.46,0.36C65.45,23.64,65.25,23.69,65.05,23.7z M65.05,23.5c0.18,0,0.36-0.04,0.53-0.11
	c0.15-0.06,0.28-0.16,0.37-0.29c0.05-0.05,0.08-0.13,0.08-0.2v-0.46c-0.12-0.05-0.24-0.08-0.37-0.1c-0.14-0.02-0.27-0.02-0.41,0
	c-0.12-0.01-0.23-0.01-0.35,0c-0.1,0.02-0.19,0.06-0.27,0.12c-0.07,0.04-0.14,0.11-0.18,0.18c-0.07,0.15-0.07,0.33,0,0.48
	c0.03,0.08,0.08,0.15,0.14,0.2c0.06,0.06,0.13,0.1,0.21,0.13c0.1,0.04,0.2,0.05,0.3,0.05H65.05z M71.15,23.63H70.9V22.2
	c0.02-0.25-0.03-0.5-0.15-0.73c-0.11-0.15-0.28-0.24-0.47-0.23c-0.1,0-0.21,0.02-0.3,0.06c-0.1,0.04-0.19,0.1-0.27,0.17
	c-0.08,0.07-0.15,0.15-0.2,0.25c-0.06,0.1-0.11,0.21-0.14,0.33v1.58h-0.25V22.2c0.02-0.25-0.03-0.5-0.15-0.73
	c-0.1-0.15-0.28-0.24-0.46-0.23c-0.11,0-0.21,0.02-0.31,0.06c-0.1,0.04-0.18,0.09-0.26,0.16c-0.08,0.07-0.15,0.16-0.21,0.25
	c-0.06,0.1-0.11,0.21-0.14,0.33v1.59h-0.25v-2.6h0.23v0.6c0.1-0.19,0.24-0.36,0.42-0.49c0.17-0.11,0.37-0.17,0.57-0.17
	c0.2-0.01,0.39,0.06,0.54,0.19c0.14,0.13,0.23,0.32,0.24,0.51c0.17-0.41,0.56-0.68,1-0.7c0.24-0.02,0.48,0.09,0.61,0.3
	c0.13,0.26,0.2,0.56,0.18,0.85L71.15,23.63z M72.15,20.47v-0.46h0.25v0.46H72.15z M72.15,23.65v-2.6h0.25v2.58L72.15,23.65z
	 M76.45,23.63c-0.23,0-0.46-0.05-0.67-0.15c-0.41-0.21-0.72-0.57-0.87-1c-0.17-0.43-0.17-0.91,0-1.34c0.08-0.21,0.2-0.4,0.35-0.57
	c0.15-0.17,0.33-0.3,0.53-0.4c0.21-0.1,0.43-0.15,0.66-0.15c0.23,0,0.46,0.05,0.67,0.16c0.2,0.1,0.38,0.24,0.52,0.41
	c0.15,0.17,0.26,0.37,0.34,0.58c0.08,0.21,0.12,0.43,0.12,0.65c0,0.23-0.04,0.46-0.13,0.68c-0.08,0.21-0.19,0.4-0.34,0.57
	c-0.15,0.17-0.33,0.3-0.53,0.4C76.9,23.57,76.68,23.62,76.45,23.63z M75.05,21.84c0,0.2,0.03,0.39,0.1,0.58
	c0.07,0.18,0.16,0.35,0.29,0.5c0.12,0.15,0.28,0.27,0.45,0.35c0.36,0.18,0.78,0.18,1.14,0c0.17-0.09,0.32-0.21,0.44-0.35
	c0.24-0.3,0.37-0.66,0.38-1.04c0-0.2-0.03-0.4-0.1-0.59c-0.07-0.18-0.17-0.35-0.29-0.5c-0.13-0.14-0.28-0.26-0.45-0.34
	c-0.17-0.09-0.36-0.13-0.55-0.13c-0.2-0.01-0.4,0.04-0.58,0.13c-0.17,0.09-0.33,0.21-0.45,0.36c-0.12,0.15-0.21,0.32-0.28,0.5
	c-0.07,0.18-0.1,0.38-0.1,0.57V21.84z M80.2,21.28c-0.47-0.01-0.88,0.3-1,0.75v1.6h-0.25v-2.6h0.24v0.64
	c0.08-0.17,0.2-0.32,0.35-0.44c0.14-0.11,0.3-0.18,0.48-0.2h0.16L80.2,21.28z M80.92,20.47v-0.46h0.25v0.46H80.92z M80.92,23.65
	v-2.6h0.25v2.58L80.92,23.65z M83.25,23.69c-0.17,0-0.34-0.04-0.5-0.11c-0.14-0.08-0.27-0.18-0.38-0.3
	c-0.11-0.13-0.2-0.27-0.26-0.43c-0.06-0.16-0.09-0.32-0.09-0.49c0-0.17,0.03-0.35,0.09-0.51c0.05-0.16,0.14-0.31,0.25-0.43
	c0.1-0.13,0.23-0.23,0.38-0.3c0.15-0.07,0.32-0.11,0.49-0.11c0.21,0,0.42,0.06,0.59,0.18c0.17,0.11,0.32,0.26,0.43,0.43v-0.57h0.23
	v2.65c0,0.16-0.03,0.32-0.1,0.46c-0.07,0.13-0.16,0.24-0.27,0.33c-0.11,0.09-0.25,0.16-0.39,0.2c-0.15,0.05-0.31,0.07-0.47,0.07
	c-0.13,0.02-0.27,0.02-0.4,0c-0.11-0.03-0.22-0.07-0.32-0.12c-0.09-0.05-0.17-0.12-0.24-0.19c-0.07-0.08-0.14-0.16-0.19-0.25
	l0.17-0.11c0.1,0.17,0.24,0.3,0.42,0.38c0.18,0.08,0.37,0.13,0.56,0.13c0.13,0,0.26-0.02,0.38-0.06c0.11-0.03,0.22-0.09,0.31-0.16
	c0.09-0.07,0.16-0.16,0.21-0.27c0.05-0.12,0.08-0.24,0.08-0.37v-0.61c-0.11,0.17-0.26,0.31-0.43,0.41
	C83.63,23.64,83.44,23.69,83.25,23.69z M83.31,23.47c0.11,0,0.22-0.02,0.32-0.06c0.1-0.04,0.2-0.09,0.28-0.16
	c0.09-0.06,0.16-0.14,0.21-0.23c0.05-0.07,0.09-0.16,0.11-0.25v-0.85c-0.04-0.1-0.1-0.19-0.16-0.27c-0.06-0.08-0.14-0.16-0.22-0.22
	c-0.09-0.06-0.18-0.11-0.28-0.14c-0.09-0.04-0.19-0.06-0.29-0.06c-0.15,0-0.29,0.03-0.42,0.1c-0.12,0.07-0.22,0.16-0.31,0.26
	c-0.09,0.11-0.15,0.23-0.2,0.36c-0.04,0.13-0.06,0.27-0.06,0.41c0,0.14,0.02,0.29,0.08,0.42c0.05,0.13,0.12,0.26,0.22,0.36
	c0.09,0.1,0.2,0.18,0.32,0.24C83.04,23.44,83.17,23.47,83.31,23.47z M85.5,20.47v-0.46h0.25v0.46H85.5z M85.5,23.65v-2.6h0.25v2.58
	L85.5,23.65z M88.9,23.63h-0.25V22.2c0.02-0.25-0.03-0.5-0.14-0.73c-0.1-0.15-0.27-0.24-0.45-0.23c-0.11,0-0.22,0.02-0.33,0.06
	c-0.11,0.05-0.21,0.1-0.3,0.17c-0.09,0.07-0.17,0.16-0.24,0.25c-0.07,0.1-0.12,0.21-0.16,0.32v1.59h-0.25v-2.6h0.24v0.6
	c0.05-0.1,0.12-0.19,0.2-0.27c0.08-0.08,0.16-0.15,0.26-0.21c0.1-0.06,0.2-0.1,0.31-0.13c0.11-0.02,0.23-0.02,0.34,0
	c0.24-0.02,0.47,0.09,0.6,0.3c0.13,0.26,0.19,0.56,0.17,0.85L88.9,23.63z M90.54,23.7c-0.11,0-0.23-0.02-0.33-0.07
	c-0.1-0.04-0.19-0.09-0.27-0.16c-0.08-0.07-0.14-0.16-0.18-0.26c-0.05-0.1-0.07-0.21-0.07-0.32c0-0.11,0.03-0.21,0.08-0.3
	c0.06-0.1,0.13-0.18,0.22-0.25c0.11-0.07,0.23-0.12,0.35-0.16c0.14-0.02,0.29-0.02,0.43,0h0.43c0.13,0.02,0.26,0.06,0.38,0.11v-0.26
	c0.01-0.21-0.06-0.42-0.21-0.58c-0.15-0.15-0.36-0.23-0.57-0.22c-0.14,0-0.27,0.03-0.4,0.08c-0.15,0.06-0.3,0.13-0.43,0.23
	l-0.1-0.17c0.29-0.22,0.64-0.34,1-0.34c0.51-0.04,0.96,0.34,1,0.85c0,0.05,0,0.1,0,0.15v1.27c0,0.08,0,0.12,0.11,0.12v0.21h-0.13
	c-0.06,0-0.12-0.03-0.16-0.07c-0.04-0.04-0.07-0.1-0.07-0.16v-0.22c-0.12,0.16-0.28,0.28-0.46,0.36
	C90.97,23.64,90.76,23.7,90.54,23.7z M90.54,23.5c0.19,0,0.37-0.04,0.54-0.11c0.15-0.06,0.27-0.16,0.37-0.29
	c0.05-0.06,0.07-0.13,0.08-0.2v-0.46c-0.12-0.05-0.25-0.08-0.38-0.1c-0.13-0.02-0.27-0.02-0.4,0c-0.12-0.01-0.23-0.01-0.35,0
	c-0.1,0.03-0.19,0.07-0.28,0.12c-0.07,0.05-0.13,0.11-0.18,0.18c-0.04,0.07-0.06,0.16-0.06,0.24c-0.02,0.08-0.02,0.16,0,0.24
	c0.03,0.08,0.08,0.15,0.14,0.2c0.06,0.06,0.13,0.1,0.21,0.13c0.11,0.05,0.24,0.06,0.36,0.05H90.54z M92.85,20.01h0.26v3.12
	c0,0.08,0.02,0.17,0.08,0.23c0.06,0.06,0.14,0.09,0.23,0.09h0.13h0.14v0.2c-0.07,0.01-0.14,0.01-0.21,0h-0.21
	c-0.13,0-0.25-0.04-0.34-0.13c-0.09-0.09-0.13-0.21-0.13-0.34L92.85,20.01z M96.85,23.69c-0.17,0-0.34-0.04-0.49-0.11
	c-0.15-0.08-0.28-0.18-0.39-0.3c-0.11-0.13-0.2-0.27-0.26-0.43c-0.06-0.16-0.09-0.32-0.09-0.49c0-0.17,0.03-0.35,0.09-0.51
	c0.05-0.16,0.14-0.31,0.25-0.43c0.1-0.13,0.23-0.23,0.38-0.3c0.15-0.07,0.32-0.11,0.49-0.11c0.21,0,0.42,0.06,0.59,0.18
	c0.17,0.12,0.32,0.27,0.43,0.44v-0.57h0.23v2.65c0,0.16-0.03,0.32-0.1,0.46c-0.07,0.13-0.16,0.24-0.27,0.33
	c-0.11,0.09-0.25,0.16-0.39,0.2c-0.15,0.05-0.31,0.07-0.47,0.07c-0.13,0.02-0.27,0.02-0.4,0c-0.11-0.03-0.22-0.07-0.32-0.12
	c-0.09-0.05-0.17-0.12-0.24-0.19c-0.07-0.08-0.14-0.16-0.19-0.25l0.17-0.11c0.1,0.17,0.24,0.3,0.42,0.38
	c0.18,0.08,0.37,0.13,0.56,0.13c0.13,0,0.26-0.02,0.38-0.06c0.11-0.03,0.22-0.09,0.31-0.16c0.09-0.07,0.16-0.16,0.21-0.27
	c0.05-0.12,0.08-0.24,0.08-0.37v-0.62c-0.11,0.17-0.26,0.31-0.43,0.41C97.23,23.64,97.04,23.69,96.85,23.69z M96.91,23.47
	c0.11,0,0.22-0.02,0.32-0.06c0.1-0.03,0.2-0.09,0.28-0.16c0.09-0.06,0.16-0.14,0.21-0.23c0.05-0.07,0.09-0.16,0.11-0.25v-0.85
	c-0.04-0.1-0.1-0.19-0.16-0.27c-0.07-0.08-0.14-0.16-0.23-0.22c-0.08-0.06-0.17-0.11-0.27-0.14c-0.1-0.04-0.2-0.06-0.3-0.06
	c-0.15,0-0.29,0.03-0.42,0.1c-0.12,0.07-0.22,0.16-0.31,0.26c-0.09,0.11-0.15,0.23-0.2,0.36c-0.04,0.13-0.06,0.27-0.06,0.41
	c0,0.14,0.02,0.29,0.08,0.42c0.05,0.13,0.12,0.26,0.22,0.36c0.09,0.1,0.2,0.18,0.32,0.24c0.11,0.05,0.23,0.08,0.35,0.09L96.91,23.47
	z M99.05,20.47v-0.46h0.25v0.46H99.05z M99.05,23.65v-2.6h0.25v2.58L99.05,23.65z M101.13,23.63l-1.08-2.6h0.26l1,2.35l1-2.35h0.24
	l-1.16,2.6H101.13z M104.23,23.7c-0.18,0-0.35-0.04-0.51-0.11c-0.15-0.07-0.29-0.17-0.4-0.29c-0.12-0.13-0.21-0.28-0.27-0.44
	c-0.07-0.16-0.1-0.34-0.1-0.52c0-0.18,0.03-0.36,0.1-0.52c0.06-0.16,0.15-0.3,0.26-0.42c0.12-0.12,0.25-0.22,0.4-0.29
	c0.16-0.07,0.33-0.1,0.51-0.1c0.17,0,0.34,0.04,0.5,0.11c0.16,0.06,0.3,0.16,0.41,0.29c0.11,0.12,0.2,0.26,0.26,0.42
	c0.07,0.16,0.1,0.33,0.1,0.51v0.06l0,0h-2.27c0.01,0.14,0.04,0.29,0.1,0.42c0.06,0.12,0.13,0.23,0.23,0.33
	c0.09,0.09,0.2,0.16,0.32,0.22c0.12,0.05,0.25,0.08,0.38,0.08c0.09,0.02,0.17,0.02,0.26,0c0.09-0.02,0.17-0.06,0.25-0.1
	c0.07-0.04,0.14-0.1,0.2-0.16c0.05-0.06,0.1-0.13,0.13-0.2l0.22,0.06c-0.04,0.1-0.09,0.18-0.16,0.26c-0.07,0.08-0.16,0.14-0.25,0.2
	c-0.1,0.06-0.2,0.1-0.31,0.13C104.47,23.68,104.35,23.7,104.23,23.7z M105.23,22.25c-0.01-0.14-0.05-0.29-0.1-0.42
	c-0.06-0.12-0.14-0.23-0.23-0.32c-0.09-0.1-0.2-0.17-0.32-0.22c-0.24-0.11-0.52-0.11-0.76,0c-0.12,0.05-0.23,0.12-0.32,0.22
	c-0.09,0.09-0.17,0.2-0.22,0.32c-0.05,0.13-0.09,0.28-0.1,0.42H105.23z M107.11,23.7c-0.2,0-0.39-0.04-0.58-0.1
	c-0.18-0.07-0.34-0.17-0.47-0.3l0.12-0.17c0.12,0.12,0.27,0.21,0.43,0.28c0.16,0.06,0.33,0.09,0.5,0.09
	c0.19,0.01,0.38-0.04,0.54-0.14c0.14-0.09,0.21-0.24,0.21-0.4c0-0.07-0.02-0.14-0.05-0.2c-0.04-0.06-0.1-0.11-0.16-0.14
	c-0.08-0.04-0.17-0.08-0.26-0.1l-0.36-0.1l-0.38-0.1c-0.09-0.02-0.18-0.06-0.26-0.12c-0.07-0.04-0.12-0.1-0.16-0.17
	c-0.02-0.08-0.02-0.17,0-0.25c-0.01-0.12,0.02-0.23,0.07-0.34c0.05-0.1,0.12-0.18,0.21-0.24c0.09-0.06,0.19-0.11,0.3-0.14
	c0.12-0.02,0.25-0.02,0.37,0c0.18,0,0.37,0.03,0.54,0.1c0.14,0.06,0.26,0.15,0.36,0.26l-0.14,0.14c-0.09-0.11-0.21-0.19-0.34-0.23
	c-0.14-0.05-0.29-0.07-0.44-0.07h-0.27c-0.08,0.02-0.15,0.05-0.22,0.09c-0.06,0.05-0.11,0.1-0.15,0.17
	c-0.04,0.07-0.06,0.16-0.06,0.24c-0.01,0.06-0.01,0.13,0,0.19c0.03,0.04,0.08,0.09,0.12,0.12c0.07,0.03,0.14,0.06,0.21,0.08
	l0.31,0.09l0.44,0.11c0.11,0.03,0.21,0.08,0.31,0.14c0.08,0.04,0.15,0.11,0.2,0.18c0.05,0.09,0.07,0.18,0.07,0.28
	c0.01,0.22-0.1,0.43-0.28,0.56C107.63,23.65,107.37,23.72,107.11,23.7z M110.5,24.53h0.17h0.08l0,0c0.03-0.03,0.05-0.07,0.07-0.11
	l0.12-0.25l0.19-0.45l-1.16-2.6h0.26l1,2.35l1-2.35h0.24l-1.42,3.42c-0.04,0.09-0.1,0.16-0.18,0.21c-0.1,0.06-0.21,0.08-0.33,0.08
	h-0.09L110.5,24.53z M114.27,23.7c-0.18,0-0.35-0.04-0.51-0.11c-0.15-0.07-0.29-0.17-0.4-0.29c-0.12-0.13-0.21-0.27-0.27-0.43
	c-0.06-0.16-0.09-0.34-0.09-0.51c0-0.18,0.03-0.36,0.1-0.52c0.06-0.16,0.14-0.31,0.26-0.43c0.12-0.12,0.25-0.22,0.4-0.29
	c0.16-0.07,0.33-0.11,0.51-0.11c0.17,0,0.34,0.04,0.49,0.11c0.15,0.07,0.29,0.17,0.41,0.29c0.12,0.12,0.2,0.27,0.26,0.43
	c0.07,0.16,0.1,0.34,0.1,0.52c0,0.18-0.03,0.35-0.1,0.51c-0.06,0.16-0.15,0.3-0.26,0.43c-0.11,0.12-0.25,0.22-0.4,0.29
	C114.61,23.66,114.44,23.7,114.27,23.7z M113.27,22.37c0,0.15,0.02,0.29,0.08,0.43c0.09,0.26,0.29,0.48,0.54,0.59
	c0.25,0.11,0.53,0.11,0.78,0c0.13-0.06,0.24-0.14,0.33-0.25c0.09-0.1,0.16-0.22,0.22-0.35c0.05-0.14,0.08-0.29,0.08-0.44
	c0-0.29-0.1-0.57-0.3-0.78c-0.09-0.1-0.2-0.19-0.32-0.25c-0.12-0.06-0.25-0.09-0.39-0.09c-0.14,0-0.28,0.03-0.4,0.09
	c-0.12,0.06-0.23,0.15-0.32,0.25C113.37,21.79,113.27,22.08,113.27,22.37z M117.18,23.7c-0.55,0-0.83-0.38-0.83-1.15v-1.5h0.25v1.47
	c0,0.63,0.22,1,0.66,1c0.11,0,0.22-0.02,0.32-0.05c0.1-0.04,0.2-0.1,0.29-0.16c0.09-0.07,0.17-0.16,0.23-0.25
	c0.07-0.1,0.13-0.21,0.17-0.32v-1.69h0.24v2.25c0,0.08,0,0.12,0.11,0.12v0.21h-0.08c-0.06,0-0.12-0.02-0.17-0.06
	c-0.05-0.04-0.08-0.1-0.08-0.17v-0.37c-0.1,0.21-0.27,0.38-0.47,0.49C117.63,23.64,117.41,23.7,117.18,23.7z M0.28,29.98h0.26v3.13
	c-0.01,0.08,0.02,0.17,0.08,0.23c0.06,0.06,0.15,0.09,0.23,0.08h0.13h0.14l0.05,0.19c-0.07,0.03-0.14,0.05-0.21,0.06
	c-0.07,0-0.14-0.02-0.21-0.04c-0.12,0.01-0.25-0.04-0.34-0.12c-0.09-0.09-0.14-0.21-0.13-0.34L0.28,29.98z M2.91,33.63
	c-0.18,0-0.35-0.03-0.51-0.1c-0.16-0.07-0.3-0.17-0.41-0.3c-0.11-0.13-0.2-0.27-0.27-0.43c-0.06-0.17-0.1-0.34-0.1-0.52
	c0-0.18,0.04-0.35,0.1-0.52c0.06-0.16,0.15-0.3,0.27-0.42c0.23-0.25,0.56-0.4,0.9-0.39c0.18,0,0.35,0.03,0.51,0.1
	c0.15,0.07,0.29,0.17,0.4,0.29c0.12,0.13,0.21,0.27,0.27,0.43c0.06,0.16,0.09,0.34,0.09,0.51v0.11H1.85
	c0.01,0.14,0.05,0.28,0.11,0.41c0.06,0.12,0.13,0.24,0.22,0.34c0.1,0.09,0.2,0.16,0.32,0.22c0.12,0.05,0.26,0.08,0.39,0.08
	c0.09,0.01,0.17,0.01,0.26,0c0.08-0.03,0.16-0.06,0.24-0.1c0.07-0.05,0.14-0.1,0.2-0.16c0.06-0.06,0.11-0.13,0.14-0.2l0.22,0.06
	c-0.04,0.09-0.09,0.18-0.16,0.25c-0.15,0.16-0.33,0.27-0.54,0.34C3.14,33.65,3.02,33.65,2.91,33.63z M3.91,32.19
	c-0.01-0.14-0.04-0.29-0.1-0.42c-0.05-0.12-0.13-0.23-0.22-0.33c-0.09-0.09-0.2-0.16-0.32-0.21c-0.12-0.05-0.25-0.08-0.38-0.08
	c-0.13,0-0.27,0.03-0.39,0.08c-0.12,0.05-0.23,0.12-0.32,0.21c-0.09,0.1-0.17,0.21-0.22,0.33c-0.06,0.15-0.1,0.3-0.11,0.46
	L3.91,32.19z M5.78,33.63c-0.19,0-0.39-0.03-0.57-0.1c-0.18-0.06-0.34-0.16-0.48-0.29l0.12-0.13c0.13,0.12,0.27,0.21,0.43,0.28
	c0.16,0.06,0.32,0.09,0.49,0.09c0.19,0.01,0.39-0.04,0.55-0.15c0.14-0.08,0.22-0.23,0.21-0.39c0-0.07-0.02-0.15-0.06-0.21
	c-0.04-0.04-0.09-0.08-0.14-0.1l-0.26-0.1l-0.36-0.09l-0.38-0.1l-0.27-0.12c-0.07-0.04-0.12-0.1-0.16-0.17
	c-0.02-0.09-0.02-0.17,0-0.26c0-0.12,0.03-0.23,0.08-0.33c0.04-0.1,0.11-0.18,0.2-0.24c0.09-0.07,0.2-0.12,0.31-0.15
	c0.12-0.02,0.24-0.02,0.36,0c0.19-0.01,0.37,0.03,0.54,0.1c0.14,0.06,0.27,0.14,0.37,0.26l-0.14,0.13c-0.1-0.1-0.21-0.17-0.34-0.22
	c-0.14-0.05-0.29-0.07-0.44-0.07c-0.09-0.01-0.18-0.01-0.27,0c-0.08,0.02-0.16,0.05-0.23,0.09c-0.06,0.04-0.11,0.1-0.15,0.17
	c-0.02,0.08-0.02,0.16,0,0.24c-0.02,0.06-0.02,0.12,0,0.18c0.02,0.05,0.07,0.1,0.12,0.12c0.06,0.05,0.13,0.08,0.21,0.09l0.31,0.08
	l0.43,0.12c0.11,0.03,0.22,0.07,0.32,0.13c0.08,0.05,0.14,0.11,0.19,0.19c0.05,0.08,0.07,0.18,0.07,0.28
	c0.01,0.22-0.09,0.43-0.27,0.56C6.33,33.65,6.05,33.69,5.78,33.63z M8.43,33.63c-0.19,0-0.39-0.03-0.57-0.1
	c-0.18-0.06-0.34-0.16-0.48-0.29l0.12-0.17c0.13,0.12,0.28,0.21,0.44,0.28c0.16,0.06,0.32,0.09,0.49,0.09
	c0.19,0.01,0.39-0.04,0.55-0.15c0.13-0.08,0.21-0.23,0.2-0.39c0.01-0.07-0.01-0.15-0.05-0.21c-0.05-0.03-0.1-0.05-0.16-0.06
	l-0.25-0.1l-0.36-0.09l-0.39-0.1l-0.26-0.12c-0.07-0.04-0.12-0.1-0.16-0.17c-0.02-0.09-0.02-0.17,0-0.26
	c-0.01-0.11,0.02-0.23,0.07-0.33c0.05-0.1,0.12-0.18,0.21-0.24c0.09-0.07,0.19-0.12,0.3-0.15c0.12-0.02,0.25-0.02,0.37,0
	c0.18,0,0.37,0.03,0.54,0.1c0.14,0.05,0.27,0.14,0.36,0.26l-0.14,0.13c-0.1-0.14-0.24-0.25-0.41-0.3c-0.14-0.05-0.29-0.07-0.44-0.07
	c-0.09-0.01-0.19-0.01-0.28,0c-0.08,0.02-0.15,0.05-0.22,0.09c-0.06,0.04-0.11,0.1-0.15,0.17c-0.03,0.08-0.05,0.16-0.05,0.24
	c-0.02,0.06-0.02,0.12,0,0.18c0.02,0.05,0.07,0.1,0.12,0.12c0.06,0.05,0.13,0.08,0.21,0.09l0.31,0.08l0.43,0.12
	C8.89,32.31,9,32.35,9.1,32.41c0.08,0.05,0.14,0.11,0.19,0.19c0.05,0.08,0.07,0.18,0.07,0.28c0.01,0.22-0.09,0.43-0.27,0.56
	C8.89,33.57,8.66,33.63,8.43,33.63z M11.61,32.32c0-0.18,0.03-0.35,0.09-0.52c0.06-0.16,0.15-0.3,0.27-0.42
	c0.11-0.12,0.25-0.22,0.4-0.29c0.16-0.07,0.34-0.1,0.52-0.1c0.22-0.01,0.43,0.05,0.62,0.16c0.17,0.1,0.31,0.26,0.4,0.44l-0.24,0.08
	c-0.08-0.14-0.19-0.26-0.33-0.34c-0.14-0.08-0.31-0.12-0.47-0.12c-0.14,0-0.27,0.03-0.39,0.09c-0.13,0.05-0.24,0.13-0.33,0.23
	c-0.09,0.1-0.16,0.22-0.21,0.35c-0.06,0.14-0.08,0.29-0.08,0.44c0,0.15,0.03,0.3,0.08,0.44c0.05,0.13,0.13,0.25,0.22,0.36
	c0.09,0.1,0.2,0.18,0.32,0.24c0.12,0.06,0.26,0.09,0.4,0.09c0.09,0.01,0.18,0.01,0.27,0c0.08-0.03,0.16-0.06,0.24-0.1
	c0.07-0.05,0.14-0.1,0.2-0.16c0.05-0.05,0.09-0.11,0.11-0.18l0.24,0.07c-0.03,0.09-0.08,0.18-0.15,0.25
	c-0.07,0.08-0.15,0.15-0.24,0.2c-0.1,0.06-0.2,0.11-0.31,0.14c-0.13,0.01-0.26-0.01-0.39-0.04c-0.18,0-0.35-0.03-0.51-0.1
	c-0.15-0.07-0.29-0.17-0.41-0.3c-0.11-0.13-0.2-0.27-0.26-0.43C11.62,32.65,11.6,32.48,11.61,32.32z M15.85,33.63
	c-0.18,0-0.35-0.03-0.51-0.1c-0.15-0.07-0.29-0.17-0.4-0.29c-0.11-0.13-0.2-0.27-0.26-0.43c-0.12-0.32-0.12-0.68,0-1
	c0.06-0.16,0.15-0.3,0.27-0.42c0.11-0.13,0.25-0.23,0.4-0.3c0.16-0.07,0.33-0.1,0.5-0.1c0.17,0,0.34,0.03,0.5,0.1
	c0.15,0.08,0.29,0.18,0.4,0.3c0.11,0.12,0.2,0.27,0.27,0.42c0.11,0.32,0.11,0.68,0,1c-0.07,0.16-0.16,0.3-0.27,0.43
	c-0.11,0.12-0.25,0.22-0.4,0.29C16.19,33.6,16.02,33.63,15.85,33.63z M14.85,32.3c0,0.15,0.03,0.29,0.08,0.43
	c0.05,0.13,0.12,0.26,0.22,0.36c0.09,0.1,0.2,0.18,0.32,0.23c0.12,0.06,0.25,0.09,0.39,0.09c0.14,0,0.28-0.03,0.4-0.09
	c0.12-0.06,0.23-0.14,0.32-0.24c0.1-0.1,0.17-0.23,0.22-0.36c0.04-0.13,0.05-0.26,0.05-0.39c0-0.15-0.03-0.29-0.08-0.43
	c-0.05-0.13-0.12-0.26-0.22-0.36c-0.09-0.1-0.2-0.18-0.32-0.24c-0.12-0.06-0.25-0.09-0.39-0.09c-0.14,0-0.28,0.03-0.4,0.09
	c-0.12,0.06-0.23,0.15-0.32,0.25c-0.09,0.11-0.17,0.23-0.22,0.36c-0.04,0.14-0.06,0.28-0.05,0.43V32.3z M20.05,33.63h-0.2v-1.45
	c0.02-0.25-0.03-0.51-0.14-0.74c-0.1-0.15-0.27-0.24-0.45-0.22c-0.11,0-0.22,0.02-0.33,0.06c-0.11,0.04-0.21,0.09-0.3,0.16
	c-0.09,0.08-0.17,0.16-0.24,0.26c-0.07,0.1-0.13,0.21-0.16,0.32v1.61h-0.25v-2.6h0.24v0.6c0.05-0.1,0.12-0.19,0.19-0.27
	c0.08-0.08,0.17-0.15,0.27-0.21c0.1-0.06,0.2-0.1,0.31-0.14c0.11-0.02,0.23-0.02,0.34,0c0.24-0.02,0.47,0.09,0.6,0.29
	c0.13,0.26,0.18,0.56,0.17,0.85L20.05,33.63z M22.12,33.63c-0.17,0-0.34-0.03-0.5-0.11c-0.15-0.07-0.28-0.17-0.39-0.3
	c-0.12-0.12-0.2-0.27-0.26-0.43c-0.06-0.16-0.1-0.33-0.1-0.5c0-0.17,0.03-0.35,0.09-0.51c0.06-0.16,0.14-0.3,0.25-0.43
	c0.11-0.12,0.24-0.22,0.38-0.29c0.15-0.08,0.31-0.11,0.48-0.11c0.11-0.02,0.21-0.02,0.32,0c0.1,0.03,0.19,0.07,0.28,0.13
	c0.08,0.05,0.16,0.12,0.23,0.19c0.07,0.07,0.13,0.15,0.18,0.23v-1.52h0.25v3.3c0,0.08,0,0.12,0.1,0.12v0.23h-0.09
	c-0.06,0-0.13-0.02-0.17-0.07c-0.04-0.04-0.06-0.1-0.07-0.16v-0.29c-0.1,0.17-0.25,0.31-0.42,0.41
	C22.51,33.6,22.31,33.64,22.12,33.63z M22.17,33.41c0.1,0.01,0.19,0.01,0.29,0c0.1-0.04,0.19-0.09,0.28-0.16
	c0.09-0.06,0.17-0.13,0.23-0.22c0.06-0.08,0.1-0.17,0.11-0.27v-0.85c-0.04-0.1-0.1-0.19-0.16-0.27c-0.07-0.08-0.14-0.16-0.23-0.22
	c-0.09-0.06-0.18-0.11-0.28-0.14c-0.09-0.04-0.19-0.06-0.29-0.06c-0.14,0-0.28,0.03-0.41,0.1c-0.12,0.06-0.22,0.15-0.31,0.25
	c-0.09,0.11-0.15,0.23-0.2,0.36c-0.05,0.13-0.07,0.28-0.07,0.42c0,0.14,0.03,0.29,0.08,0.42c0.05,0.13,0.13,0.25,0.22,0.36
	c0.1,0.1,0.21,0.18,0.33,0.24c0.13,0.06,0.27,0.09,0.41,0.08V33.41z M25.46,33.63c-0.18,0-0.35-0.03-0.51-0.1
	c-0.15-0.07-0.29-0.17-0.4-0.29c-0.11-0.13-0.2-0.27-0.26-0.43c-0.12-0.32-0.12-0.68,0-1c0.06-0.16,0.15-0.3,0.27-0.42
	c0.11-0.13,0.25-0.23,0.4-0.3c0.16-0.07,0.33-0.1,0.5-0.1c0.17,0,0.34,0.03,0.5,0.1c0.15,0.08,0.29,0.18,0.4,0.3
	c0.11,0.12,0.2,0.27,0.27,0.42c0.12,0.32,0.12,0.68,0,1c-0.07,0.16-0.16,0.3-0.27,0.43c-0.11,0.12-0.25,0.22-0.4,0.29
	C25.8,33.6,25.63,33.63,25.46,33.63z M24.46,32.3c0,0.15,0.03,0.29,0.08,0.43c0.05,0.13,0.12,0.26,0.22,0.36
	c0.09,0.1,0.2,0.18,0.32,0.23c0.12,0.06,0.25,0.09,0.39,0.09c0.14,0,0.28-0.03,0.4-0.09c0.12-0.06,0.23-0.14,0.32-0.24
	c0.1-0.1,0.17-0.23,0.22-0.36c0.05-0.14,0.08-0.28,0.08-0.43c0-0.15-0.03-0.29-0.08-0.43c-0.05-0.13-0.12-0.26-0.22-0.36
	c-0.09-0.1-0.2-0.18-0.32-0.24c-0.12-0.06-0.25-0.09-0.39-0.09c-0.14,0-0.28,0.03-0.4,0.09c-0.12,0.06-0.23,0.15-0.32,0.25
	c-0.09,0.11-0.17,0.23-0.22,0.36c-0.06,0.15-0.1,0.31-0.1,0.47L24.46,32.3z M31.38,33.63h-0.25v-1.45c0.02-0.25-0.03-0.5-0.15-0.73
	c-0.1-0.16-0.28-0.25-0.46-0.23c-0.11,0-0.21,0.02-0.31,0.06c-0.09,0.04-0.18,0.09-0.26,0.16c-0.08,0.08-0.15,0.16-0.21,0.26
	c-0.06,0.1-0.11,0.21-0.14,0.32v1.61h-0.25v-1.45c0.02-0.25-0.03-0.51-0.15-0.73c-0.1-0.16-0.28-0.25-0.46-0.23
	c-0.1-0.02-0.2-0.02-0.3,0c-0.1,0.04-0.18,0.1-0.26,0.17c-0.08,0.07-0.15,0.16-0.21,0.25c-0.07,0.1-0.12,0.21-0.15,0.33v1.66h-0.25
	v-2.6h0.28v0.6c0.09-0.2,0.24-0.37,0.42-0.49c0.17-0.11,0.37-0.17,0.57-0.17c0.2-0.01,0.39,0.06,0.53,0.19
	c0.14,0.14,0.23,0.32,0.25,0.51c0.16-0.41,0.56-0.69,1-0.7c0.24-0.02,0.47,0.09,0.6,0.3c0.13,0.26,0.2,0.55,0.18,0.84L31.38,33.63z
	 M32.48,34.03l0.08-0.4h-0.09V33.2h0.25v0.43l-0.1,0.4H32.48z M39.16,33.63h-0.25v-1.45c0.02-0.25-0.03-0.5-0.15-0.73
	c-0.1-0.16-0.28-0.25-0.46-0.23c-0.11,0-0.21,0.02-0.31,0.06c-0.09,0.04-0.18,0.09-0.26,0.16c-0.08,0.08-0.15,0.16-0.21,0.26
	c-0.06,0.1-0.11,0.21-0.14,0.32v1.61h-0.25v-1.45c0.02-0.25-0.03-0.51-0.15-0.73c-0.1-0.16-0.28-0.25-0.46-0.23
	c-0.1-0.02-0.2-0.02-0.3,0c-0.1,0.04-0.18,0.1-0.26,0.17c-0.08,0.07-0.15,0.16-0.21,0.25c-0.07,0.1-0.12,0.21-0.15,0.33v1.66h-0.25
	v-2.6h0.24v0.6c0.09-0.2,0.24-0.37,0.42-0.49c0.17-0.11,0.37-0.17,0.57-0.17c0.2-0.01,0.39,0.06,0.53,0.19
	c0.14,0.14,0.23,0.32,0.25,0.51c0.16-0.41,0.56-0.69,1-0.7c0.24-0.02,0.47,0.09,0.6,0.3c0.13,0.26,0.2,0.55,0.18,0.84L39.16,33.63z
	 M41.25,33.63c-0.34,0.01-0.67-0.14-0.9-0.39c-0.12-0.12-0.21-0.27-0.27-0.43c-0.11-0.32-0.11-0.68,0-1
	c0.07-0.15,0.16-0.3,0.27-0.42c0.11-0.12,0.25-0.23,0.4-0.3c0.16-0.07,0.33-0.1,0.5-0.1c0.17,0,0.34,0.03,0.5,0.1
	c0.15,0.07,0.29,0.17,0.4,0.3c0.12,0.12,0.21,0.26,0.27,0.42c0.12,0.32,0.12,0.68,0,1c-0.06,0.16-0.15,0.3-0.26,0.43
	c-0.12,0.12-0.25,0.22-0.4,0.29C41.6,33.6,41.43,33.63,41.25,33.63z M40.25,32.3c-0.01,0.15,0.02,0.29,0.08,0.43
	c0.05,0.13,0.12,0.25,0.21,0.36c0.09,0.1,0.2,0.18,0.32,0.23c0.12,0.06,0.26,0.09,0.4,0.09c0.14,0,0.27-0.03,0.39-0.09
	c0.12-0.06,0.24-0.14,0.33-0.24c0.09-0.11,0.17-0.23,0.22-0.36c0.05-0.14,0.08-0.28,0.08-0.43c0-0.15-0.03-0.29-0.08-0.43
	c-0.05-0.13-0.13-0.25-0.22-0.36c-0.09-0.1-0.2-0.18-0.32-0.24c-0.12-0.06-0.26-0.09-0.4-0.09c-0.14,0-0.27,0.03-0.39,0.09
	c-0.12,0.06-0.23,0.15-0.32,0.25c-0.1,0.1-0.17,0.23-0.22,0.36c-0.07,0.15-0.1,0.31-0.09,0.47L40.25,32.3z M44.6,31.26
	c-0.22,0-0.44,0.07-0.62,0.2c-0.18,0.13-0.3,0.32-0.36,0.54v1.63h-0.25v-2.6h0.24v0.6c0.09-0.17,0.2-0.33,0.35-0.45
	c0.14-0.11,0.3-0.17,0.48-0.19h0.16V31.26z M46.29,33.63c-0.18,0-0.35-0.03-0.51-0.1c-0.15-0.07-0.29-0.17-0.4-0.3
	c-0.12-0.12-0.21-0.27-0.27-0.43c-0.07-0.16-0.1-0.34-0.1-0.52c0-0.18,0.03-0.36,0.1-0.52c0.06-0.16,0.15-0.3,0.26-0.42
	c0.12-0.12,0.26-0.22,0.41-0.29c0.16-0.07,0.33-0.1,0.5-0.1c0.18,0,0.35,0.03,0.51,0.1c0.15,0.07,0.28,0.17,0.4,0.29
	c0.11,0.13,0.2,0.27,0.26,0.43c0.07,0.16,0.1,0.33,0.1,0.51v0.06l0,0h-2.28c0.01,0.14,0.04,0.28,0.1,0.41
	c0.06,0.12,0.14,0.24,0.23,0.34c0.09,0.09,0.2,0.16,0.32,0.22c0.12,0.05,0.25,0.08,0.38,0.08c0.09,0.01,0.18,0.01,0.27,0l0.24-0.1
	c0.07-0.05,0.14-0.1,0.2-0.16c0.06-0.06,0.1-0.13,0.13-0.2l0.22,0.06c-0.04,0.09-0.09,0.18-0.16,0.25c-0.07,0.08-0.15,0.15-0.25,0.2
	c-0.1,0.06-0.2,0.11-0.31,0.14C46.53,33.61,46.41,33.63,46.29,33.63z M47.29,32.19c-0.01-0.14-0.04-0.29-0.1-0.42
	c-0.06-0.12-0.13-0.23-0.23-0.33c-0.09-0.09-0.19-0.16-0.31-0.21c-0.12-0.05-0.26-0.08-0.39-0.08c-0.13,0-0.26,0.03-0.38,0.08
	c-0.12,0.05-0.23,0.12-0.32,0.21c-0.09,0.1-0.17,0.21-0.22,0.33c-0.05,0.13-0.09,0.28-0.1,0.42H47.29z M51.14,33.63
	c-0.21,0.01-0.42-0.05-0.59-0.17c-0.17-0.11-0.31-0.26-0.42-0.43v1.62h-0.28v-3.62h0.23v0.52c0.1-0.17,0.25-0.31,0.42-0.41
	c0.17-0.1,0.36-0.15,0.56-0.15c0.17,0,0.34,0.03,0.5,0.11c0.3,0.15,0.53,0.41,0.65,0.73c0.06,0.16,0.09,0.33,0.09,0.5
	c0,0.18-0.03,0.35-0.08,0.52c-0.06,0.16-0.14,0.3-0.25,0.43c-0.1,0.12-0.23,0.22-0.37,0.29C51.45,33.62,51.3,33.64,51.14,33.63z
	 M51.08,33.41c0.14,0,0.28-0.03,0.41-0.09c0.12-0.06,0.23-0.15,0.32-0.26c0.09-0.11,0.15-0.23,0.2-0.36
	c0.04-0.13,0.07-0.27,0.07-0.41c0-0.14-0.03-0.29-0.08-0.42c-0.05-0.13-0.13-0.26-0.23-0.36c-0.09-0.11-0.2-0.19-0.33-0.25
	c-0.12-0.06-0.26-0.09-0.4-0.09c-0.1,0-0.2,0.02-0.29,0.06c-0.1,0.04-0.19,0.09-0.28,0.15c-0.09,0.06-0.16,0.14-0.23,0.22
	c-0.06,0.08-0.1,0.17-0.11,0.27v0.85c0.04,0.1,0.09,0.19,0.16,0.27c0.07,0.08,0.14,0.16,0.23,0.22c0.08,0.06,0.17,0.11,0.27,0.15
	c0.09,0.05,0.19,0.08,0.29,0.09V33.41z M53.2,29.98h0.25v3.13c0,0.09,0.03,0.17,0.09,0.23c0.06,0.06,0.14,0.09,0.22,0.08h0.09H54
	l0.05,0.19c-0.07,0.02-0.13,0.02-0.2,0.02c-0.07,0.01-0.15,0.01-0.22,0c-0.12,0.01-0.24-0.04-0.33-0.12
	c-0.09-0.09-0.14-0.21-0.13-0.34L53.2,29.98z M55.85,33.63c-0.18,0-0.35-0.03-0.51-0.1c-0.15-0.07-0.29-0.17-0.4-0.3
	c-0.12-0.12-0.21-0.27-0.27-0.43c-0.07-0.16-0.1-0.34-0.1-0.52c0-0.18,0.03-0.36,0.1-0.52c0.06-0.16,0.15-0.3,0.26-0.42
	c0.12-0.12,0.26-0.22,0.41-0.29c0.16-0.07,0.33-0.1,0.5-0.1c0.18,0,0.35,0.03,0.51,0.1c0.15,0.07,0.28,0.17,0.4,0.29
	c0.11,0.13,0.2,0.27,0.26,0.43c0.07,0.16,0.1,0.33,0.1,0.51v0.06l0,0h-2.26c0.01,0.14,0.04,0.28,0.1,0.41
	c0.06,0.12,0.14,0.24,0.23,0.34c0.09,0.09,0.2,0.16,0.32,0.22c0.12,0.05,0.25,0.08,0.38,0.08c0.09,0.01,0.18,0.01,0.27,0l0.24-0.1
	c0.07-0.05,0.14-0.1,0.2-0.16c0.06-0.06,0.1-0.13,0.14-0.2l0.21,0.06c-0.04,0.09-0.09,0.18-0.16,0.25c-0.07,0.08-0.15,0.15-0.25,0.2
	c-0.1,0.06-0.2,0.11-0.31,0.14C56.1,33.61,55.98,33.63,55.85,33.63z M56.85,32.19c-0.01-0.14-0.04-0.29-0.1-0.42
	c-0.06-0.12-0.13-0.23-0.23-0.33c-0.09-0.09-0.19-0.16-0.31-0.21c-0.12-0.05-0.26-0.08-0.39-0.08c-0.26,0-0.51,0.11-0.7,0.29
	c-0.09,0.1-0.17,0.21-0.22,0.33c-0.05,0.13-0.09,0.28-0.1,0.42H56.85z M58.52,33.63c-0.12,0-0.23-0.02-0.34-0.06
	c-0.1-0.04-0.19-0.1-0.27-0.17c-0.08-0.07-0.14-0.15-0.18-0.25c-0.05-0.1-0.07-0.21-0.07-0.32c0-0.11,0.03-0.21,0.08-0.31
	c0.06-0.09,0.13-0.17,0.22-0.24c0.11-0.07,0.23-0.13,0.35-0.16c0.14-0.04,0.29-0.06,0.44-0.06c0.14-0.01,0.28-0.01,0.42,0l0.38,0.1
	v-0.25c0.01-0.22-0.06-0.43-0.21-0.59c-0.15-0.15-0.36-0.22-0.57-0.21c-0.14,0-0.27,0.03-0.4,0.08c-0.15,0.06-0.3,0.13-0.43,0.22
	l-0.09-0.08c0.27-0.21,0.61-0.33,0.95-0.34c0.51-0.04,0.96,0.34,1,0.85c0,0.05,0,0.1,0,0.15v1.27c0,0.08,0,0.12,0.11,0.12v0.25
	h-0.06c-0.06,0-0.12-0.02-0.16-0.06c-0.04-0.04-0.07-0.1-0.07-0.16v-0.22c-0.12,0.16-0.28,0.28-0.46,0.36
	C58.95,33.62,58.74,33.65,58.52,33.63z M58.52,33.44c0.18,0,0.36-0.04,0.53-0.11c0.14-0.07,0.27-0.17,0.37-0.29
	c0.05-0.06,0.07-0.13,0.08-0.2v-0.46c-0.12-0.05-0.25-0.08-0.38-0.11c-0.13-0.01-0.27-0.01-0.4,0c-0.12-0.02-0.23-0.02-0.35,0
	c-0.1,0.03-0.19,0.07-0.28,0.12c-0.07,0.05-0.13,0.11-0.18,0.18c-0.04,0.07-0.06,0.16-0.06,0.24c0,0.08,0.02,0.16,0.05,0.24
	c0.03,0.07,0.08,0.14,0.14,0.2c0.06,0.05,0.13,0.1,0.21,0.13c0.1,0.06,0.21,0.09,0.32,0.1L58.52,33.44z M61.63,33.63
	c-0.2,0-0.39-0.03-0.58-0.1c-0.18-0.06-0.34-0.16-0.47-0.29l0.12-0.17c0.25,0.24,0.58,0.38,0.93,0.37c0.19,0.01,0.38-0.04,0.54-0.15
	c0.14-0.08,0.22-0.23,0.21-0.39c0-0.07-0.02-0.14-0.05-0.21c-0.04-0.06-0.1-0.1-0.16-0.14c-0.08-0.04-0.17-0.07-0.26-0.1l-0.36-0.09
	l-0.38-0.1l-0.27-0.12c-0.07-0.04-0.12-0.1-0.15-0.17c-0.02-0.09-0.02-0.17,0-0.26c-0.01-0.11,0.02-0.23,0.07-0.33
	c0.05-0.1,0.12-0.18,0.21-0.24c0.09-0.07,0.19-0.12,0.3-0.15c0.12-0.02,0.25-0.02,0.37,0c0.18,0,0.37,0.03,0.54,0.1
	c0.14,0.06,0.26,0.15,0.36,0.26l-0.14,0.13c-0.1-0.1-0.21-0.17-0.34-0.22c-0.23-0.06-0.48-0.06-0.71,0
	c-0.08,0.02-0.15,0.05-0.22,0.09c-0.06,0.04-0.11,0.1-0.15,0.17c-0.04,0.07-0.06,0.16-0.06,0.24c-0.01,0.06-0.01,0.12,0,0.18
	c0.03,0.05,0.07,0.09,0.12,0.12c0.06,0.04,0.14,0.07,0.21,0.09l0.31,0.08l0.44,0.12c0.11,0.03,0.21,0.07,0.31,0.13
	c0.08,0.05,0.15,0.11,0.2,0.19c0.05,0.09,0.07,0.18,0.07,0.28c0,0.22-0.1,0.43-0.28,0.56C62.14,33.63,61.88,33.67,61.63,33.63z
	 M64.26,33.63c-0.56,0-0.83-0.38-0.83-1.14v-1.46h0.25v1.46c0,0.64,0.21,1,0.65,1c0.11,0,0.22-0.02,0.32-0.06
	c0.1-0.04,0.2-0.09,0.29-0.16c0.09-0.07,0.17-0.15,0.24-0.24c0.06-0.1,0.12-0.21,0.16-0.32v-1.68h0.25v2.25c0,0.08,0,0.12,0.1,0.12
	v0.23h-0.07c-0.07,0-0.13-0.02-0.18-0.06c-0.05-0.04-0.08-0.1-0.08-0.17v-0.39c-0.11,0.2-0.27,0.37-0.46,0.49
	C64.7,33.6,64.48,33.65,64.26,33.63z M67.85,31.26c-0.22,0-0.43,0.07-0.61,0.2c-0.18,0.13-0.31,0.32-0.37,0.54v1.63h-0.25v-2.6h0.23
	v0.6c0.09-0.17,0.21-0.33,0.36-0.45c0.13-0.11,0.3-0.18,0.47-0.19h0.17V31.26z M69.55,33.63c-0.18,0-0.35-0.03-0.51-0.1
	c-0.15-0.07-0.29-0.17-0.4-0.3c-0.12-0.12-0.21-0.27-0.27-0.43c-0.07-0.16-0.1-0.34-0.1-0.52c0-0.18,0.03-0.36,0.1-0.52
	c0.06-0.16,0.15-0.3,0.27-0.42c0.23-0.25,0.56-0.4,0.9-0.39c0.18,0,0.35,0.03,0.51,0.1c0.15,0.07,0.28,0.17,0.4,0.29
	c0.11,0.13,0.2,0.27,0.26,0.43c0.07,0.16,0.1,0.33,0.1,0.51v0.06l0,0h-2.28c0.01,0.14,0.05,0.28,0.11,0.41
	c0.05,0.13,0.13,0.24,0.22,0.34c0.09,0.09,0.2,0.16,0.32,0.22c0.12,0.05,0.25,0.08,0.38,0.08c0.09,0.01,0.18,0.01,0.27,0l0.24-0.1
	c0.07-0.05,0.14-0.1,0.2-0.16c0.06-0.06,0.1-0.13,0.14-0.2l0.21,0.06c-0.04,0.09-0.09,0.18-0.16,0.25c-0.07,0.08-0.15,0.15-0.25,0.2
	c-0.09,0.06-0.2,0.11-0.31,0.14C69.79,33.61,69.67,33.63,69.55,33.63z M70.55,32.19c-0.01-0.14-0.04-0.29-0.1-0.42
	c-0.06-0.12-0.13-0.23-0.23-0.33c-0.09-0.09-0.19-0.16-0.31-0.21c-0.12-0.05-0.26-0.08-0.39-0.08c-0.26,0-0.51,0.11-0.7,0.29
	c-0.09,0.1-0.17,0.21-0.22,0.33c-0.05,0.13-0.08,0.28-0.09,0.42H70.55z M71.55,33.63v-0.42h0.22v0.42H71.55z"/>
</svg>
