<?xml version="1.0" encoding="utf-8"?>
<!-- Generator: Adobe Illustrator 22.0.0, SVG Export Plug-In . SVG Version: 6.00 Build 0)  -->
<svg version="1.1" id="Layer_1" xmlns="http://www.w3.org/2000/svg" xmlns:xlink="http://www.w3.org/1999/xlink" x="0px" y="0px"
	 viewBox="0 0 114.7 30.77" style="enable-background:new 0 0 114.7 30.77;" xml:space="preserve">
<style type="text/css">
	.st0{fill:#C62026;}
	.st1{fill:#231F20;}
</style>
<title>Asset 14</title>
<g id="Layer_2_1_">
	<g id="Layer_1-2">
		<path class="st0" d="M14.89,14.25c-0.22,1.18-0.64,2.32-1.26,3.35c-0.57,0.99-1.37,1.82-2.34,2.42c-1.11,0.64-2.38,0.96-3.66,0.91
			C6.36,20.97,5.1,20.65,4,20.02c-0.97-0.59-1.78-1.41-2.36-2.39c-0.61-1.05-1.04-2.19-1.27-3.38c-0.49-2.49-0.49-5.06,0-7.55
			C0.6,5.52,1.02,4.38,1.63,3.35C2.22,2.37,3.03,1.54,4,0.94C5.1,0.3,6.36-0.02,7.63,0.02c1.28-0.05,2.55,0.27,3.66,0.92
			c0.96,0.6,1.76,1.43,2.34,2.41c0.62,1.03,1.04,2.17,1.26,3.35c0.25,1.24,0.38,2.5,0.38,3.77C15.27,11.74,15.14,13,14.89,14.25z
			 M14.35,7.02c-0.2-1.11-0.58-2.19-1.13-3.18c-0.53-0.93-1.27-1.73-2.16-2.32c-1.03-0.64-2.22-0.96-3.43-0.91
			C6.42,0.56,5.23,0.88,4.2,1.52C3.31,2.11,2.57,2.91,2.05,3.85C1.5,4.83,1.12,5.91,0.92,7.02c-0.44,2.28-0.44,4.61,0,6.89
			c0.2,1.12,0.58,2.19,1.13,3.18c0.52,0.94,1.26,1.74,2.15,2.34c1.03,0.63,2.22,0.95,3.43,0.9c1.21,0.05,2.4-0.26,3.43-0.9
			c0.89-0.6,1.63-1.39,2.16-2.33c0.55-0.99,0.93-2.07,1.13-3.18c0.21-1.14,0.32-2.29,0.32-3.45C14.67,9.31,14.56,8.16,14.35,7.02z
			 M19.72,20.57v-2.91h0.59v2.91H19.72z M39.66,14.25c-0.22,1.18-0.64,2.32-1.26,3.35c-0.57,0.99-1.37,1.82-2.34,2.42
			c-1.11,0.64-2.38,0.96-3.66,0.91c-1.27,0.05-2.54-0.27-3.64-0.91c-0.97-0.59-1.78-1.41-2.36-2.39c-0.61-1.04-1.03-2.17-1.26-3.35
			c-0.49-2.49-0.49-5.06,0-7.55c0.22-1.19,0.65-2.33,1.26-3.38c0.58-0.98,1.39-1.81,2.36-2.41c1.1-0.64,2.36-0.96,3.64-0.92
			c1.28-0.05,2.55,0.27,3.66,0.92c0.96,0.6,1.76,1.43,2.34,2.41c0.62,1.03,1.04,2.17,1.26,3.35C40.17,9.19,40.17,11.76,39.66,14.25z
			 M39.11,7.02C38.92,5.91,38.54,4.84,38,3.85c-0.53-0.94-1.27-1.74-2.17-2.33c-1.03-0.64-2.22-0.96-3.43-0.91
			c-1.2-0.04-2.38,0.28-3.4,0.91c-0.89,0.59-1.63,1.39-2.15,2.33c-0.56,0.98-0.95,2.06-1.16,3.17c-0.44,2.28-0.44,4.61,0,6.89
			c0.2,1.12,0.58,2.19,1.13,3.18c0.53,0.95,1.27,1.75,2.18,2.34c1.03,0.63,2.22,0.95,3.43,0.9c1.21,0.05,2.4-0.26,3.43-0.9
			c0.89-0.6,1.62-1.4,2.14-2.33c0.55-0.99,0.93-2.07,1.12-3.18C39.56,11.64,39.56,9.3,39.11,7.02L39.11,7.02z M55.9,20.57H42.29
			c-0.03-0.8,0.16-1.6,0.54-2.31c0.39-0.72,0.89-1.38,1.48-1.95c0.64-0.63,1.34-1.2,2.07-1.72l2.27-1.57
			c0.77-0.54,1.52-1.08,2.26-1.63c0.71-0.53,1.38-1.11,2-1.74c0.55-0.58,1.01-1.23,1.38-1.93c0.34-0.69,0.52-1.44,0.52-2.21
			c0.01-0.72-0.14-1.44-0.43-2.1c-0.27-0.59-0.68-1.1-1.18-1.51c-0.52-0.45-1.14-0.78-1.8-0.97c-0.73-0.22-1.49-0.33-2.25-0.32
			c-0.92-0.02-1.84,0.14-2.7,0.48c-0.71,0.29-1.34,0.74-1.84,1.32c-0.47,0.59-0.81,1.27-1,2c-0.24,0.85-0.37,1.73-0.37,2.61h-0.59
			c-0.11-1.87,0.48-3.71,1.65-5.17c1.27-1.3,3.04-1.97,4.85-1.83c0.83-0.01,1.65,0.11,2.44,0.34c0.73,0.2,1.41,0.54,2,1
			c0.56,0.46,1.01,1.04,1.32,1.69c0.34,0.74,0.51,1.56,0.49,2.38c0,1.07-0.31,2.11-0.89,3c-0.63,0.97-1.4,1.84-2.28,2.59
			c-0.93,0.81-1.91,1.56-2.93,2.24c-1,0.7-2,1.41-2.95,2.11c-0.85,0.65-1.64,1.38-2.35,2.19c-0.63,0.67-1.02,1.54-1.11,2.46h13
			L55.9,20.57z"/>
		<path d="M63.83,20.93c-1.14,0.04-2.24-0.42-3-1.26l0.22-0.2c0.36,0.36,0.78,0.66,1.25,0.87c0.47,0.2,0.99,0.3,1.5,0.29
			c0.66,0.03,1.31-0.15,1.87-0.5c0.47-0.3,0.74-0.83,0.72-1.39c0.01-0.25-0.05-0.49-0.18-0.7c-0.14-0.2-0.31-0.36-0.52-0.48
			c-0.27-0.15-0.56-0.26-0.86-0.34c-0.34-0.1-0.72-0.19-1.15-0.29l-1.1-0.28c-0.27-0.07-0.53-0.18-0.77-0.32
			c-0.19-0.12-0.35-0.29-0.46-0.49c-0.12-0.24-0.17-0.5-0.16-0.76c-0.04-0.66,0.27-1.3,0.81-1.68c0.26-0.18,0.56-0.32,0.87-0.4
			c0.37-0.09,0.75-0.13,1.13-0.12c0.55-0.02,1.11,0.09,1.61,0.32c0.39,0.16,0.72,0.44,0.93,0.8l-0.27,0.12
			c-0.22-0.33-0.55-0.58-0.93-0.7c-0.45-0.16-0.92-0.24-1.4-0.24c-0.31,0-0.61,0.03-0.91,0.1c-0.27,0.06-0.54,0.17-0.77,0.33
			c-0.22,0.15-0.39,0.35-0.51,0.58c-0.14,0.26-0.2,0.56-0.19,0.85c-0.01,0.22,0.03,0.43,0.13,0.63c0.09,0.18,0.22,0.32,0.39,0.42
			c0.22,0.12,0.45,0.22,0.69,0.28c0.28,0.08,0.61,0.17,1,0.25l1.25,0.32c0.35,0.08,0.68,0.21,1,0.37c0.23,0.14,0.44,0.33,0.59,0.55
			c0.15,0.25,0.22,0.54,0.21,0.83c0.01,0.64-0.28,1.24-0.79,1.63c-0.27,0.21-0.59,0.36-0.92,0.45
			C64.69,20.89,64.26,20.94,63.83,20.93z M70.47,20.93c-0.34,0.01-0.68-0.06-1-0.19c-0.59-0.23-1.07-0.69-1.33-1.27
			c-0.13-0.29-0.2-0.61-0.2-0.93c0-0.31,0.08-0.62,0.23-0.9c0.17-0.28,0.39-0.51,0.66-0.69c0.31-0.21,0.64-0.36,1-0.46
			c0.42-0.11,0.86-0.17,1.3-0.16c0.46,0,0.91,0.03,1.36,0.11c0.43,0.06,0.85,0.17,1.25,0.32v-0.88c0-0.38-0.06-0.75-0.18-1.11
			c-0.11-0.32-0.29-0.61-0.52-0.85c-0.23-0.24-0.5-0.43-0.81-0.55c-0.32-0.13-0.66-0.19-1-0.19c-0.42,0-0.84,0.09-1.23,0.24
			c-0.46,0.19-0.9,0.43-1.31,0.72l-0.18-0.24c0.78-0.59,1.72-0.94,2.7-1c0.4,0,0.8,0.07,1.18,0.21c0.34,0.13,0.65,0.34,0.9,0.6
			c0.25,0.27,0.44,0.59,0.57,0.94c0.14,0.4,0.2,0.83,0.2,1.25v4.3c0,0.2,0.08,0.3,0.24,0.3v0.3c-0.07,0.02-0.14,0.02-0.21,0
			c-0.1-0.04-0.19-0.12-0.24-0.22c-0.06-0.11-0.09-0.23-0.09-0.35v-0.72c-0.37,0.48-0.86,0.85-1.41,1.09
			C71.75,20.83,71.11,20.95,70.47,20.93z M70.47,20.63c0.63,0.01,1.26-0.12,1.84-0.38c0.5-0.21,0.93-0.55,1.23-1
			c0.14-0.18,0.22-0.39,0.23-0.62v-1.54c-0.83-0.32-1.72-0.48-2.61-0.47c-0.4,0-0.8,0.04-1.19,0.14c-0.33,0.08-0.64,0.21-0.92,0.39
			c-0.24,0.16-0.44,0.36-0.59,0.61c-0.14,0.24-0.21,0.51-0.21,0.78c0,0.28,0.06,0.56,0.17,0.82c0.12,0.25,0.28,0.48,0.48,0.67
			c0.2,0.19,0.44,0.34,0.7,0.44C69.88,20.58,70.17,20.63,70.47,20.63z M79.66,20.93c-0.52,0-1.03-0.12-1.5-0.35
			c-0.44-0.23-0.83-0.54-1.16-0.91c-0.33-0.38-0.6-0.82-0.78-1.29c-0.18-0.47-0.28-0.97-0.28-1.47c0-0.52,0.09-1.03,0.27-1.51
			c0.17-0.47,0.42-0.91,0.74-1.29c0.32-0.37,0.71-0.68,1.15-0.9c0.45-0.22,0.95-0.34,1.46-0.33c0.34-0.01,0.68,0.05,1,0.15
			c0.3,0.1,0.59,0.23,0.86,0.41c0.26,0.18,0.5,0.38,0.72,0.61c0.22,0.24,0.43,0.49,0.62,0.76v-1.79H83v8.11
			c0.01,0.46-0.09,0.92-0.29,1.33c-0.18,0.37-0.44,0.69-0.76,0.95c-0.33,0.25-0.7,0.44-1.1,0.55c-0.42,0.12-0.85,0.18-1.29,0.18
			c-0.75,0.04-1.5-0.14-2.16-0.51c-0.51-0.34-0.93-0.8-1.21-1.35l0.28-0.09c0.28,0.56,0.75,1.01,1.32,1.27
			c0.94,0.42,2.01,0.5,3,0.21c0.36-0.11,0.7-0.28,1-0.52c0.28-0.23,0.51-0.52,0.67-0.84c0.17-0.37,0.26-0.77,0.25-1.18v-1.97
			c-0.17,0.26-0.37,0.5-0.59,0.71c-0.22,0.21-0.47,0.4-0.74,0.56c-0.26,0.16-0.54,0.29-0.83,0.37
			C80.26,20.89,79.96,20.93,79.66,20.93z M79.66,20.63c0.37,0,0.75-0.07,1.09-0.22c0.67-0.27,1.25-0.73,1.65-1.33
			c0.17-0.25,0.28-0.54,0.31-0.84v-2.8c-0.12-0.33-0.3-0.64-0.52-0.91c-0.22-0.27-0.48-0.51-0.76-0.71
			c-0.28-0.2-0.58-0.36-0.91-0.47c-0.32-0.12-0.66-0.17-1-0.17c-0.49-0.01-0.97,0.1-1.41,0.33c-0.39,0.22-0.72,0.52-1,0.87
			c-0.28,0.36-0.5,0.77-0.64,1.2c-0.15,0.43-0.23,0.88-0.23,1.33c0,0.48,0.09,0.96,0.27,1.4c0.17,0.44,0.43,0.84,0.74,1.19
			c0.31,0.34,0.68,0.62,1.09,0.82C78.75,20.52,79.2,20.63,79.66,20.63z M87.37,20.93c-0.34,0.01-0.68-0.06-1-0.19
			c-0.59-0.23-1.07-0.69-1.33-1.27c-0.13-0.29-0.2-0.61-0.2-0.93c0-0.31,0.08-0.62,0.23-0.9c0.17-0.28,0.39-0.51,0.66-0.69
			c0.31-0.21,0.64-0.36,1-0.46c0.42-0.11,0.86-0.17,1.3-0.16c0.46,0,0.92,0.03,1.37,0.11c0.42,0.06,0.84,0.17,1.24,0.32v-0.88
			c0-0.38-0.06-0.75-0.18-1.11c-0.09-0.31-0.25-0.6-0.46-0.85c-0.23-0.24-0.5-0.43-0.81-0.55c-0.32-0.13-0.66-0.19-1-0.19
			c-0.41,0.01-0.82,0.09-1.21,0.24c-0.46,0.19-0.9,0.43-1.31,0.72l-0.18-0.24c0.78-0.59,1.72-0.94,2.7-1c0.4,0,0.8,0.07,1.18,0.21
			c0.34,0.13,0.65,0.34,0.9,0.6c0.25,0.27,0.44,0.59,0.57,0.94c0.14,0.4,0.2,0.83,0.2,1.25v4.3c0,0.2,0.08,0.3,0.24,0.3v0.3
			c-0.07,0.02-0.14,0.02-0.21,0c-0.1-0.04-0.19-0.12-0.24-0.22c-0.06-0.11-0.09-0.23-0.09-0.35v-0.72
			c-0.37,0.48-0.86,0.85-1.41,1.09C88.71,20.84,88.04,20.96,87.37,20.93z M87.37,20.63c0.63,0.01,1.26-0.12,1.84-0.38
			c0.5-0.21,0.93-0.55,1.24-1c0.14-0.18,0.21-0.4,0.22-0.62v-1.54c-0.83-0.32-1.72-0.48-2.61-0.47c-0.4,0-0.8,0.04-1.19,0.14
			c-0.33,0.08-0.64,0.21-0.92,0.39c-0.24,0.16-0.44,0.36-0.59,0.61c-0.14,0.24-0.21,0.51-0.21,0.78c0,0.28,0.06,0.56,0.17,0.82
			c0.12,0.25,0.28,0.48,0.48,0.67c0.2,0.19,0.44,0.34,0.7,0.44C86.78,20.58,87.07,20.63,87.37,20.63z M104.57,20.78h-0.3v-4.33
			c0.06-0.86-0.12-1.71-0.5-2.48c-0.34-0.53-0.95-0.84-1.58-0.79c-0.34,0-0.68,0.07-1,0.2c-0.33,0.13-0.63,0.32-0.89,0.56
			c-0.27,0.25-0.5,0.54-0.69,0.86c-0.2,0.34-0.34,0.7-0.44,1.08v4.9h-0.3v-4.33c0.06-0.86-0.11-1.72-0.5-2.49
			c-0.34-0.53-0.94-0.83-1.57-0.78c-0.34,0-0.68,0.07-1,0.19c-0.32,0.13-0.62,0.32-0.88,0.55c-0.28,0.24-0.51,0.53-0.7,0.85
			c-0.21,0.34-0.36,0.71-0.47,1.09v4.92h-0.3v-7.76h0.3v2c0.28-0.62,0.71-1.17,1.25-1.59c0.5-0.36,1.1-0.55,1.72-0.55
			c0.6-0.02,1.18,0.2,1.62,0.61c0.44,0.44,0.7,1.03,0.75,1.65c0.49-1.31,1.72-2.2,3.12-2.26c0.71-0.05,1.4,0.28,1.8,0.87
			c0.44,0.83,0.64,1.76,0.58,2.7L104.57,20.78z M107,11.02V9.83h0.3v1.19H107z M107,20.81v-7.79h0.3v7.78L107,20.81z"/>
		<rect x="0.02" y="30.57" class="st1" width="114.68" height="0.2"/>
	</g>
</g>
</svg>
