<?xml version="1.0" encoding="utf-8"?>
<!-- Generator: Adobe Illustrator 22.0.0, SVG Export Plug-In . SVG Version: 6.00 Build 0)  -->
<svg version="1.1" id="Layer_1" xmlns="http://www.w3.org/2000/svg" xmlns:xlink="http://www.w3.org/1999/xlink" x="0px" y="0px"
	 viewBox="0 0 81.46 4.75" style="enable-background:new 0 0 81.46 4.75;" xml:space="preserve">
<style type="text/css">
	.st0{fill:#010101;}
</style>
<path class="st0" d="M0,3.65V0.1h0.26v3.31h2.11v0.24H0z M3.72,3.65c-0.11,0.02-0.23,0.02-0.34,0c-0.1-0.04-0.19-0.1-0.27-0.17
	C3.03,3.41,2.97,3.32,2.93,3.22c-0.05-0.1-0.07-0.2-0.07-0.31c0-0.11,0.03-0.22,0.08-0.31c0.05-0.1,0.13-0.18,0.23-0.24
	C3.28,2.27,3.4,2.21,3.54,2.18c0.14-0.04,0.29-0.06,0.44-0.06c0.14-0.01,0.28-0.01,0.42,0c0.13,0.02,0.26,0.05,0.38,0.1V1.96
	c-0.01-0.2-0.09-0.4-0.24-0.54C4.39,1.27,4.18,1.19,3.97,1.2c-0.14,0-0.27,0.03-0.4,0.08c-0.15,0.06-0.3,0.13-0.43,0.23l-0.1-0.17
	C3.33,1.12,3.68,1,4.04,1c0.27-0.02,0.54,0.08,0.74,0.27c0.19,0.2,0.29,0.47,0.27,0.75v1.27c0,0.08,0,0.13,0.11,0.13v0.23h-0.1
	C5,3.65,4.94,3.63,4.9,3.58c-0.04-0.04-0.06-0.1-0.07-0.16V3.21C4.71,3.36,4.55,3.49,4.37,3.57C4.16,3.64,3.94,3.67,3.72,3.65z
	 M3.77,3.45c0.18,0,0.36-0.04,0.53-0.11c0.15-0.06,0.27-0.16,0.37-0.29c0.05-0.06,0.07-0.13,0.08-0.2V2.39
	C4.63,2.35,4.5,2.31,4.37,2.29c-0.13-0.02-0.27-0.02-0.4,0c-0.12-0.02-0.23-0.02-0.35,0C3.52,2.31,3.43,2.35,3.34,2.4
	C3.27,2.45,3.21,2.51,3.17,2.58C3.12,2.65,3.1,2.73,3.1,2.82c-0.02,0.08-0.02,0.17,0,0.25c0.04,0.07,0.08,0.14,0.14,0.19
	c0.06,0.06,0.13,0.1,0.21,0.13c0.1,0.06,0.21,0.09,0.32,0.1V3.45z M7.23,1.27C7.01,1.28,6.8,1.35,6.62,1.48
	C6.44,1.61,6.32,1.8,6.26,2.02v1.63H6.01v-2.6h0.24v0.6c0.08-0.17,0.2-0.32,0.35-0.44c0.14-0.11,0.3-0.18,0.48-0.2h0.15L7.23,1.27z
	 M8.88,3.65c-0.17,0-0.34-0.04-0.5-0.11C8.24,3.47,8.11,3.36,8,3.24C7.89,3.11,7.8,2.97,7.74,2.81C7.68,2.65,7.65,2.49,7.65,2.32
	c0-0.17,0.03-0.35,0.09-0.51c0.05-0.16,0.13-0.3,0.24-0.43c0.1-0.12,0.23-0.23,0.38-0.3c0.16-0.07,0.33-0.11,0.5-0.11
	c0.21,0,0.42,0.06,0.59,0.18c0.17,0.11,0.31,0.26,0.42,0.43V1.05h0.23v2.6c0,0.16-0.03,0.32-0.1,0.46C9.94,4.24,9.85,4.36,9.74,4.45
	C9.62,4.54,9.49,4.6,9.35,4.65C9.2,4.69,9.04,4.71,8.88,4.71c-0.13,0.02-0.27,0.02-0.4,0C8.37,4.68,8.26,4.64,8.16,4.59
	C8.07,4.54,7.99,4.48,7.92,4.4C7.84,4.33,7.78,4.24,7.73,4.15L7.9,4.04C8,4.21,8.14,4.35,8.32,4.43C8.5,4.51,8.69,4.55,8.88,4.55
	c0.13,0,0.26-0.02,0.38-0.06C9.37,4.46,9.48,4.4,9.57,4.33c0.09-0.07,0.16-0.16,0.21-0.27c0.05-0.12,0.07-0.24,0.07-0.37V3.12
	c-0.21,0.35-0.59,0.56-1,0.56L8.88,3.65z M8.94,3.44c0.11,0,0.22-0.03,0.32-0.07c0.1-0.04,0.2-0.09,0.28-0.16
	c0.08-0.06,0.15-0.13,0.21-0.22c0.05-0.07,0.09-0.16,0.1-0.25V1.88C9.77,1.69,9.64,1.52,9.47,1.39C9.38,1.33,9.29,1.28,9.19,1.25
	C9.1,1.21,9,1.2,8.9,1.2c-0.15,0-0.29,0.03-0.42,0.09C8.36,1.35,8.25,1.44,8.17,1.55c-0.09,0.11-0.16,0.24-0.2,0.37
	C7.93,2.05,7.9,2.18,7.9,2.32c0,0.15,0.03,0.29,0.08,0.43C8.04,2.88,8.11,3,8.2,3.1c0.1,0.1,0.21,0.18,0.33,0.25
	C8.66,3.42,8.8,3.46,8.94,3.47L8.94,3.44z M12.23,3.65c-0.17,0-0.34-0.04-0.5-0.11c-0.16-0.07-0.29-0.17-0.41-0.29
	c-0.12-0.12-0.21-0.27-0.27-0.43c-0.07-0.17-0.1-0.35-0.1-0.53c0-0.18,0.03-0.35,0.1-0.51c0.06-0.16,0.15-0.31,0.27-0.43
	c0.11-0.12,0.25-0.22,0.4-0.28c0.15-0.08,0.33-0.12,0.5-0.11c0.18,0,0.35,0.04,0.51,0.11c0.15,0.07,0.29,0.17,0.4,0.29
	c0.12,0.12,0.21,0.26,0.27,0.42c0.06,0.16,0.09,0.34,0.09,0.51V2.4h-2.28c0.01,0.15,0.05,0.29,0.11,0.42
	c0.05,0.12,0.13,0.23,0.22,0.33c0.09,0.09,0.2,0.17,0.32,0.22c0.12,0.05,0.25,0.08,0.38,0.08c0.09,0.01,0.18,0.01,0.27,0
	c0.08-0.02,0.17-0.05,0.24-0.1c0.08-0.04,0.15-0.09,0.2-0.16c0.06-0.06,0.1-0.13,0.14-0.2l0.22,0.06c-0.04,0.09-0.09,0.18-0.16,0.26
	c-0.08,0.08-0.16,0.14-0.25,0.2c-0.11,0.07-0.23,0.11-0.36,0.14C12.44,3.66,12.33,3.66,12.23,3.65z M13.23,2.2
	c-0.01-0.14-0.04-0.29-0.1-0.42C13.07,1.66,13,1.55,12.91,1.46c-0.09-0.09-0.2-0.17-0.32-0.22c-0.12-0.05-0.26-0.08-0.39-0.08
	c-0.13,0-0.26,0.03-0.38,0.08c-0.12,0.05-0.23,0.13-0.32,0.22c-0.09,0.1-0.17,0.21-0.22,0.33c-0.05,0.13-0.08,0.27-0.09,0.41
	L13.23,2.2z M16.65,3.65c-0.2,0-0.39-0.03-0.58-0.1c-0.18-0.07-0.34-0.17-0.48-0.3l0.13-0.17c0.12,0.12,0.27,0.21,0.43,0.28
	c0.16,0.06,0.33,0.09,0.5,0.09c0.19,0.01,0.38-0.04,0.54-0.14c0.14-0.09,0.21-0.24,0.21-0.4c0-0.07-0.02-0.14-0.05-0.2
	c-0.04-0.06-0.1-0.11-0.16-0.14c-0.08-0.04-0.17-0.08-0.26-0.1l-0.36-0.1c-0.13-0.02-0.26-0.06-0.38-0.1
	c-0.1-0.02-0.19-0.06-0.27-0.12c-0.07-0.04-0.12-0.1-0.15-0.17c-0.04-0.08-0.06-0.16-0.06-0.25c0-0.12,0.03-0.23,0.08-0.34
	c0.05-0.09,0.12-0.18,0.2-0.24c0.09-0.06,0.2-0.11,0.31-0.14c0.12-0.02,0.25-0.02,0.37,0c0.18-0.01,0.36,0.03,0.53,0.1
	c0.14,0.06,0.27,0.15,0.37,0.26l-0.14,0.14c-0.09-0.1-0.21-0.18-0.34-0.23c-0.14-0.04-0.29-0.07-0.44-0.07
	c-0.09-0.01-0.18-0.01-0.27,0c-0.08,0.02-0.15,0.05-0.22,0.09c-0.07,0.04-0.12,0.1-0.15,0.17c-0.04,0.07-0.06,0.16-0.06,0.24
	c-0.02,0.06-0.02,0.13,0,0.19c0.02,0.05,0.07,0.1,0.12,0.12l0.21,0.09l0.31,0.08l0.43,0.11c0.11,0.03,0.22,0.08,0.32,0.14
	c0.09,0.05,0.15,0.12,0.2,0.21c0.04,0.09,0.07,0.18,0.06,0.28c0.01,0.22-0.1,0.42-0.27,0.55C17.13,3.61,16.89,3.67,16.65,3.65z
	 M18.47,0.46V0h0.25v0.46H18.47z M18.47,3.64V1.05h0.25v2.6L18.47,3.64z M19.54,3.46l1.84-2.22h-1.84V1.05h2.1v0.18l-1.83,2.21h1.82
	v0.21h-2.09V3.46z M23.48,3.65c-0.18,0-0.35-0.04-0.51-0.11c-0.15-0.07-0.29-0.17-0.4-0.29c-0.12-0.12-0.21-0.27-0.27-0.43
	c-0.07-0.17-0.1-0.35-0.1-0.53c0-0.18,0.03-0.35,0.1-0.51c0.06-0.16,0.14-0.31,0.26-0.43c0.12-0.12,0.26-0.21,0.41-0.28
	c0.15-0.08,0.33-0.12,0.5-0.11c0.18,0,0.35,0.04,0.51,0.11c0.3,0.14,0.54,0.4,0.66,0.71c0.07,0.16,0.1,0.33,0.1,0.51v0.07l0,0h-2.28
	c0.01,0.14,0.04,0.29,0.1,0.42c0.06,0.12,0.13,0.23,0.23,0.33c0.09,0.09,0.2,0.17,0.32,0.22c0.12,0.05,0.25,0.08,0.38,0.08
	c0.09,0.01,0.18,0.01,0.27,0c0.08-0.02,0.16-0.06,0.24-0.1c0.08-0.04,0.14-0.1,0.2-0.16c0.06-0.06,0.1-0.13,0.13-0.2l0.22,0.06
	c-0.04,0.1-0.09,0.18-0.16,0.26c-0.07,0.08-0.16,0.15-0.25,0.2c-0.1,0.06-0.2,0.1-0.31,0.13C23.72,3.63,23.6,3.65,23.48,3.65z
	 M24.48,2.2c-0.01-0.14-0.04-0.29-0.1-0.42c-0.06-0.12-0.14-0.23-0.23-0.32c-0.09-0.1-0.19-0.17-0.31-0.22
	c-0.12-0.05-0.26-0.08-0.39-0.08c-0.13,0-0.26,0.03-0.38,0.08c-0.12,0.05-0.23,0.12-0.32,0.22c-0.09,0.1-0.17,0.21-0.22,0.33
	c-0.06,0.13-0.09,0.27-0.1,0.41L24.48,2.2z M28.34,3.65c-0.21,0.01-0.42-0.06-0.6-0.18c-0.17-0.11-0.31-0.26-0.42-0.43v1.62h-0.25
	V1.05h0.23v0.51c0.11-0.16,0.25-0.3,0.42-0.4C27.89,1.05,28.08,1,28.28,1c0.17,0,0.34,0.04,0.5,0.11c0.15,0.08,0.29,0.18,0.4,0.31
	c0.11,0.13,0.19,0.27,0.25,0.43c0.11,0.32,0.11,0.68,0,1c-0.05,0.16-0.13,0.3-0.24,0.43c-0.11,0.12-0.24,0.22-0.38,0.29
	C28.66,3.63,28.5,3.66,28.34,3.65z M28.28,3.43c0.14,0,0.28-0.04,0.41-0.1c0.12-0.06,0.22-0.15,0.31-0.25
	c0.09-0.11,0.15-0.23,0.2-0.36c0.05-0.13,0.07-0.27,0.07-0.41c0-0.15-0.03-0.29-0.08-0.43c-0.05-0.13-0.13-0.25-0.22-0.36
	c-0.1-0.1-0.21-0.18-0.33-0.24c-0.13-0.06-0.27-0.09-0.41-0.09c-0.1,0-0.19,0.01-0.28,0.05c-0.1,0.04-0.2,0.09-0.29,0.16
	c-0.09,0.06-0.17,0.13-0.23,0.22c-0.06,0.08-0.1,0.17-0.11,0.26v0.86c0.05,0.09,0.1,0.18,0.16,0.27c0.07,0.08,0.15,0.15,0.23,0.22
	c0.08,0.06,0.17,0.11,0.27,0.14c0.09,0.05,0.19,0.09,0.3,0.1V3.43z M31.46,3.65c-0.18,0-0.35-0.04-0.51-0.11
	c-0.15-0.07-0.28-0.17-0.4-0.29c-0.12-0.12-0.2-0.27-0.26-0.43c-0.07-0.16-0.1-0.33-0.1-0.51c0-0.18,0.04-0.35,0.1-0.52
	c0.06-0.16,0.15-0.31,0.27-0.43c0.35-0.39,0.92-0.51,1.4-0.29c0.15,0.07,0.29,0.17,0.4,0.29c0.12,0.12,0.21,0.27,0.27,0.43
	c0.07,0.16,0.1,0.34,0.1,0.52c0,0.18-0.03,0.35-0.1,0.51c-0.06,0.16-0.15,0.31-0.27,0.43C32.13,3.5,31.8,3.65,31.46,3.65z
	 M30.46,2.32c0,0.15,0.03,0.29,0.08,0.43C30.6,2.88,30.67,3,30.76,3.1c0.09,0.1,0.2,0.18,0.32,0.24c0.12,0.06,0.26,0.09,0.4,0.09
	c0.14,0,0.27-0.03,0.39-0.09c0.12-0.06,0.23-0.14,0.32-0.24c0.1-0.11,0.17-0.23,0.22-0.36c0.06-0.14,0.08-0.29,0.08-0.44
	c0-0.15-0.02-0.29-0.08-0.43c-0.05-0.13-0.12-0.25-0.22-0.35c-0.09-0.1-0.2-0.18-0.32-0.24c-0.25-0.12-0.53-0.12-0.78,0
	c-0.13,0.06-0.24,0.14-0.33,0.24C30.56,1.74,30.46,2.03,30.46,2.32z M33.6,0h0.25v3.13c0,0.08,0.03,0.16,0.08,0.23
	c0.06,0.05,0.15,0.08,0.23,0.08h0.13h0.14v0.2L34.22,3.7h-0.21c-0.13,0.01-0.25-0.04-0.34-0.13c-0.08-0.09-0.13-0.22-0.12-0.34
	L33.6,0z M35.24,4.52h0.17h0.08l0,0c0.03-0.03,0.05-0.07,0.07-0.11l0.12-0.25c0-0.11,0.11-0.26,0.19-0.45l-1.11-2.66h0.26l1,2.35
	l1-2.35h0.25l-1.43,3.41c-0.04,0.09-0.1,0.16-0.18,0.22c-0.1,0.05-0.22,0.08-0.33,0.07h-0.09V4.52z M38.81,3.65
	c-0.55,0-0.83-0.38-0.83-1.15V1.05h0.25v1.46c0,0.67,0.22,1,0.66,1c0.11,0,0.22-0.02,0.32-0.06c0.12-0.05,0.23-0.11,0.33-0.2
	C39.63,3.18,39.71,3.1,39.78,3c0.07-0.1,0.12-0.21,0.16-0.32V1.05h0.25v2.24c0,0.08,0,0.13,0.11,0.13v0.23h-0.08
	c-0.06,0-0.12-0.03-0.17-0.07c-0.05-0.04-0.08-0.1-0.08-0.16V3.03c-0.11,0.2-0.27,0.37-0.47,0.49C39.29,3.63,39.05,3.67,38.81,3.65z
	 M42.41,1.27c-0.22,0.01-0.43,0.08-0.61,0.21c-0.18,0.13-0.3,0.32-0.36,0.54v1.63h-0.25v-2.6h0.24v0.6c0.08-0.17,0.2-0.32,0.35-0.44
	c0.14-0.11,0.3-0.18,0.48-0.2h0.15V1.27z M44.11,3.65c-0.18,0-0.35-0.04-0.51-0.11c-0.15-0.07-0.29-0.17-0.41-0.29
	c-0.11-0.13-0.2-0.27-0.26-0.43c-0.07-0.17-0.1-0.35-0.1-0.53c0-0.18,0.03-0.35,0.1-0.51c0.06-0.16,0.14-0.31,0.26-0.43
	c0.12-0.12,0.25-0.21,0.4-0.28c0.16-0.08,0.33-0.11,0.51-0.11c0.17,0,0.34,0.04,0.5,0.11c0.16,0.07,0.29,0.17,0.41,0.29
	c0.11,0.12,0.2,0.26,0.26,0.42c0.07,0.16,0.1,0.33,0.1,0.51v0.07l0,0h-2.28c0.01,0.14,0.04,0.29,0.1,0.42
	c0.06,0.12,0.13,0.23,0.23,0.33c0.09,0.09,0.2,0.17,0.32,0.22c0.12,0.05,0.25,0.08,0.38,0.08c0.09,0.02,0.17,0.02,0.26,0
	c0.09-0.02,0.17-0.06,0.25-0.1c0.08-0.04,0.14-0.1,0.2-0.16c0.05-0.06,0.1-0.13,0.13-0.2l0.22,0.06c-0.04,0.1-0.09,0.18-0.16,0.26
	c-0.07,0.08-0.16,0.15-0.25,0.2c-0.1,0.06-0.2,0.1-0.31,0.13C44.35,3.63,44.23,3.65,44.11,3.65z M45.11,2.2
	c-0.01-0.14-0.05-0.29-0.1-0.42c-0.06-0.12-0.14-0.23-0.23-0.32c-0.09-0.1-0.2-0.17-0.32-0.22c-0.24-0.11-0.52-0.11-0.76,0
	c-0.12,0.05-0.23,0.12-0.32,0.22c-0.09,0.09-0.17,0.21-0.22,0.33c-0.06,0.13-0.09,0.27-0.1,0.41L45.11,2.2z M47.3,3.52h-0.06
	l-0.12,0.06h-0.17h-0.19c-0.07,0.01-0.13,0.01-0.2,0c-0.06-0.02-0.11-0.05-0.16-0.09c-0.04-0.04-0.08-0.09-0.11-0.14
	c-0.02-0.07-0.02-0.13,0-0.2v-2h-0.36v-0.2h0.36V0.06h0.25v0.89h0.6v0.2h-0.6v1.9c-0.01,0.08,0.03,0.16,0.1,0.21
	c0.06,0.05,0.14,0.08,0.22,0.08c0.09,0,0.19-0.02,0.27-0.06l0.14-0.06L47.3,3.52z M50.11,3.65h-0.25V2.19c0-0.64-0.21-1-0.64-1
	c-0.11,0-0.21,0.02-0.31,0.06c-0.1,0.04-0.2,0.1-0.29,0.17c-0.09,0.08-0.16,0.16-0.23,0.26c-0.07,0.09-0.12,0.2-0.15,0.31v1.66
	h-0.25V0h0.25v1.65c0.11-0.19,0.26-0.36,0.44-0.48c0.18-0.12,0.39-0.18,0.61-0.18c0.13,0,0.25,0.03,0.37,0.08
	c0.1,0.05,0.19,0.13,0.26,0.23c0.07,0.11,0.12,0.23,0.15,0.36c0.02,0.16,0.02,0.32,0,0.48L50.11,3.65z M51.75,3.65
	c-0.11,0-0.22-0.02-0.33-0.06c-0.1-0.04-0.19-0.1-0.27-0.17c-0.08-0.07-0.14-0.16-0.18-0.26c-0.05-0.1-0.07-0.2-0.07-0.31
	c0-0.11,0.03-0.22,0.08-0.31c0.05-0.1,0.13-0.18,0.22-0.24c0.1-0.08,0.22-0.13,0.35-0.16c0.14-0.04,0.28-0.06,0.43-0.06
	c0.14-0.01,0.29-0.01,0.43,0c0.13,0.02,0.26,0.05,0.38,0.1V1.92c0.01-0.21-0.06-0.42-0.21-0.58c-0.15-0.15-0.36-0.23-0.57-0.22
	c-0.14,0-0.27,0.03-0.4,0.08c-0.15,0.06-0.3,0.13-0.43,0.23l-0.1-0.17c0.29-0.22,0.64-0.34,1-0.34c0.51-0.04,0.96,0.34,1,0.85
	c0,0.05,0,0.1,0,0.15v1.27c0,0.08,0,0.13,0.11,0.13v0.33h-0.1c-0.06,0-0.12-0.02-0.16-0.07c-0.04-0.04-0.07-0.1-0.07-0.16V3.21
	c-0.13,0.15-0.28,0.27-0.46,0.36C52.19,3.64,51.97,3.67,51.75,3.65z M51.75,3.45c0.19,0,0.37-0.04,0.54-0.11
	c0.15-0.06,0.27-0.16,0.37-0.29c0.05-0.06,0.07-0.13,0.08-0.2V2.39c-0.12-0.04-0.25-0.08-0.38-0.1c-0.13-0.02-0.27-0.02-0.4,0
	c-0.12-0.02-0.23-0.02-0.35,0c-0.1,0.02-0.19,0.06-0.28,0.11c-0.07,0.05-0.13,0.11-0.18,0.18c-0.04,0.07-0.06,0.16-0.06,0.24
	c-0.02,0.08-0.02,0.17,0,0.25c0.03,0.07,0.08,0.14,0.14,0.19c0.06,0.06,0.13,0.1,0.21,0.13c0.11,0.06,0.23,0.1,0.36,0.1L51.75,3.45z
	 M56.17,3.65h-0.25V2.19c0.02-0.25-0.03-0.51-0.15-0.73c-0.1-0.15-0.27-0.24-0.45-0.23c-0.11,0-0.22,0.02-0.32,0.06
	c-0.11,0.04-0.21,0.1-0.31,0.17c-0.09,0.07-0.17,0.16-0.24,0.26c-0.07,0.09-0.12,0.2-0.16,0.31v1.62h-0.25v-2.6h0.24v0.6
	c0.05-0.1,0.12-0.19,0.2-0.27c0.08-0.08,0.16-0.15,0.26-0.21c0.1-0.06,0.2-0.1,0.31-0.13c0.11-0.01,0.23-0.01,0.34,0
	c0.24-0.02,0.47,0.09,0.6,0.3c0.14,0.26,0.2,0.56,0.18,0.85V3.65z M58.27,3.65c-0.18,0-0.35-0.04-0.51-0.11
	c-0.15-0.07-0.29-0.17-0.4-0.29c-0.12-0.12-0.21-0.27-0.27-0.43c-0.07-0.17-0.1-0.35-0.1-0.53c0-0.18,0.03-0.35,0.1-0.51
	c0.06-0.16,0.14-0.31,0.26-0.43c0.12-0.12,0.26-0.21,0.41-0.28c0.15-0.08,0.33-0.12,0.5-0.11c0.18,0,0.35,0.04,0.51,0.11
	c0.3,0.14,0.54,0.4,0.66,0.71c0.07,0.16,0.1,0.33,0.1,0.51v0.07l0,0h-2.28c0.01,0.14,0.04,0.29,0.1,0.42
	c0.06,0.12,0.13,0.23,0.23,0.33c0.09,0.09,0.2,0.17,0.32,0.22c0.12,0.05,0.25,0.08,0.38,0.08c0.09,0.01,0.18,0.01,0.27,0
	c0.08-0.02,0.16-0.06,0.24-0.1c0.08-0.04,0.14-0.1,0.2-0.16c0.06-0.06,0.1-0.13,0.13-0.2l0.22,0.06c-0.04,0.1-0.09,0.18-0.16,0.26
	c-0.07,0.08-0.16,0.15-0.25,0.2c-0.1,0.06-0.2,0.1-0.31,0.13C58.51,3.63,58.39,3.65,58.27,3.65z M59.27,2.2
	c-0.01-0.14-0.04-0.29-0.1-0.42c-0.06-0.12-0.14-0.23-0.23-0.32c-0.09-0.1-0.19-0.17-0.31-0.22c-0.12-0.05-0.26-0.08-0.39-0.08
	c-0.13,0-0.26,0.03-0.38,0.08c-0.12,0.05-0.23,0.12-0.32,0.22c-0.09,0.1-0.17,0.21-0.22,0.33c-0.06,0.13-0.09,0.27-0.1,0.41
	L59.27,2.2z M61.68,2.33c0-0.18,0.03-0.35,0.09-0.52c0.07-0.15,0.16-0.3,0.27-0.42c0.11-0.12,0.25-0.21,0.4-0.28
	C62.6,1.03,62.78,0.99,62.96,1c0.22-0.01,0.43,0.05,0.62,0.16c0.18,0.1,0.32,0.25,0.41,0.44l-0.25,0.05
	c-0.08-0.14-0.19-0.25-0.33-0.33c-0.14-0.08-0.3-0.12-0.46-0.12c-0.14-0.01-0.27,0.02-0.4,0.08c-0.25,0.11-0.45,0.33-0.54,0.59
	c-0.05,0.14-0.08,0.28-0.08,0.43c0,0.15,0.03,0.3,0.08,0.44c0.05,0.13,0.13,0.25,0.22,0.36c0.09,0.11,0.2,0.19,0.33,0.25
	c0.12,0.06,0.25,0.09,0.39,0.09c0.09,0.01,0.18,0.01,0.27,0c0.08-0.03,0.16-0.07,0.24-0.11c0.07-0.04,0.14-0.09,0.2-0.15
	c0.05-0.05,0.08-0.11,0.11-0.18l0.25,0.07c-0.04,0.09-0.09,0.18-0.16,0.25c-0.07,0.08-0.15,0.14-0.24,0.2
	c-0.1,0.06-0.2,0.1-0.31,0.13c-0.12,0.02-0.23,0.02-0.35,0c-0.18,0-0.35-0.04-0.51-0.11c-0.15-0.07-0.29-0.17-0.4-0.29
	c-0.12-0.12-0.21-0.27-0.27-0.43C61.72,2.66,61.68,2.5,61.68,2.33z M65.89,3.65c-0.18,0-0.35-0.04-0.51-0.11
	c-0.15-0.07-0.28-0.17-0.4-0.29c-0.12-0.12-0.2-0.27-0.26-0.43c-0.13-0.32-0.13-0.68,0-1c0.06-0.16,0.15-0.3,0.27-0.43
	c0.35-0.39,0.92-0.51,1.4-0.29c0.15,0.07,0.29,0.17,0.4,0.29c0.12,0.12,0.21,0.27,0.27,0.43c0.07,0.16,0.1,0.34,0.1,0.52
	c0,0.18-0.03,0.35-0.1,0.51C67,3.01,66.91,3.16,66.79,3.28c-0.23,0.25-0.56,0.4-0.9,0.4L65.89,3.65z M64.89,2.32
	c0,0.15,0.03,0.29,0.08,0.43C65.03,2.88,65.1,3,65.19,3.1c0.09,0.1,0.2,0.18,0.32,0.24c0.12,0.06,0.26,0.09,0.4,0.09
	c0.14,0,0.27-0.03,0.39-0.09c0.12-0.06,0.23-0.14,0.32-0.24c0.1-0.11,0.17-0.23,0.22-0.36c0.06-0.14,0.08-0.29,0.08-0.44
	c0-0.15-0.02-0.29-0.08-0.43c-0.05-0.13-0.12-0.25-0.22-0.35c-0.09-0.1-0.2-0.18-0.32-0.24c-0.25-0.12-0.53-0.12-0.78,0
	c-0.13,0.06-0.24,0.14-0.33,0.24c-0.09,0.11-0.16,0.23-0.21,0.36c-0.07,0.15-0.11,0.31-0.11,0.48L64.89,2.32z M70.13,3.65h-0.25
	V2.19c0.02-0.25-0.03-0.5-0.14-0.73c-0.1-0.15-0.28-0.24-0.46-0.23c-0.11,0-0.22,0.02-0.32,0.06c-0.11,0.04-0.21,0.1-0.3,0.17
	c-0.1,0.07-0.18,0.16-0.25,0.26c-0.07,0.09-0.12,0.2-0.15,0.31v1.62h-0.25v-2.6h0.23v0.6c0.05-0.1,0.12-0.19,0.2-0.27
	c0.08-0.08,0.16-0.15,0.26-0.21c0.1-0.06,0.2-0.1,0.31-0.13c0.11-0.01,0.23-0.01,0.34,0c0.24-0.03,0.48,0.09,0.6,0.3
	c0.14,0.26,0.2,0.56,0.18,0.85L70.13,3.65z M72.2,3.65c-0.17,0-0.34-0.04-0.5-0.11c-0.15-0.08-0.28-0.18-0.4-0.3
	c-0.11-0.13-0.2-0.27-0.26-0.43c-0.06-0.16-0.09-0.33-0.09-0.5c0-0.18,0.03-0.35,0.09-0.52c0.06-0.16,0.14-0.3,0.25-0.43
	c0.11-0.12,0.24-0.22,0.38-0.29c0.15-0.07,0.31-0.11,0.47-0.11c0.11-0.02,0.21-0.02,0.32,0c0.1,0.03,0.19,0.07,0.28,0.13
	c0.09,0.06,0.17,0.12,0.24,0.19c0.07,0.08,0.13,0.16,0.18,0.24V0h0.25v3.29c0,0.08,0,0.13,0.1,0.13v0.23h-0.09
	c-0.07,0-0.13-0.03-0.17-0.08c-0.05-0.04-0.07-0.1-0.07-0.16V3.12c-0.11,0.17-0.25,0.31-0.43,0.41C72.58,3.62,72.39,3.66,72.2,3.65z
	 M72.2,3.43c0.1,0,0.2-0.02,0.29-0.06c0.1-0.04,0.2-0.09,0.29-0.15c0.08-0.07,0.16-0.14,0.23-0.22c0.06-0.08,0.1-0.17,0.11-0.27
	V1.87c-0.04-0.09-0.09-0.18-0.16-0.26c-0.07-0.08-0.14-0.16-0.23-0.22c-0.09-0.06-0.18-0.11-0.28-0.15
	c-0.09-0.04-0.19-0.05-0.29-0.05c-0.14,0-0.28,0.03-0.41,0.09c-0.12,0.07-0.23,0.15-0.32,0.26c-0.09,0.11-0.15,0.23-0.2,0.36
	c-0.04,0.13-0.06,0.27-0.06,0.41c0,0.15,0.02,0.29,0.08,0.43c0.05,0.13,0.12,0.25,0.22,0.35c0.09,0.11,0.2,0.19,0.33,0.25
	c0.13,0.08,0.28,0.13,0.44,0.13L72.2,3.43z M75.54,3.65c-0.18,0-0.35-0.04-0.51-0.11c-0.15-0.07-0.29-0.17-0.4-0.29
	C74.39,3,74.26,2.66,74.27,2.31c0-0.18,0.03-0.36,0.1-0.52c0.11-0.32,0.36-0.58,0.67-0.72c0.16-0.07,0.33-0.11,0.5-0.11
	c0.17,0,0.34,0.04,0.5,0.11c0.15,0.07,0.28,0.17,0.4,0.29c0.11,0.13,0.2,0.27,0.27,0.43c0.06,0.17,0.09,0.34,0.09,0.52
	c0.01,0.35-0.12,0.69-0.36,0.94c-0.11,0.12-0.25,0.22-0.4,0.29C75.88,3.61,75.71,3.65,75.54,3.65z M74.54,2.32
	c0,0.15,0.03,0.29,0.08,0.43C74.67,2.88,74.74,3,74.84,3.1c0.09,0.1,0.2,0.18,0.32,0.24c0.12,0.06,0.25,0.09,0.39,0.09
	c0.14,0,0.28-0.03,0.4-0.09c0.12-0.06,0.23-0.14,0.32-0.24c0.09-0.11,0.17-0.23,0.22-0.36c0.11-0.28,0.11-0.59,0-0.87
	c-0.05-0.13-0.13-0.25-0.22-0.35c-0.09-0.1-0.2-0.18-0.32-0.24c-0.12-0.06-0.25-0.1-0.39-0.09c-0.14,0-0.28,0.03-0.4,0.09
	c-0.12,0.06-0.23,0.14-0.32,0.24C74.64,1.74,74.54,2.03,74.54,2.32z M81.46,3.65h-0.24V2.19c0.01-0.25-0.04-0.51-0.16-0.73
	c-0.1-0.15-0.28-0.24-0.46-0.23c-0.11,0-0.21,0.02-0.31,0.06c-0.09,0.04-0.18,0.1-0.26,0.17c-0.08,0.07-0.15,0.16-0.21,0.25
	c-0.06,0.1-0.11,0.22-0.14,0.33v1.61h-0.25V2.19c0.02-0.25-0.03-0.5-0.15-0.73c-0.1-0.15-0.28-0.24-0.46-0.23
	c-0.1,0-0.21,0.02-0.3,0.06c-0.1,0.04-0.18,0.09-0.26,0.16c-0.08,0.08-0.16,0.16-0.22,0.26c-0.06,0.1-0.11,0.21-0.14,0.32v1.62
	h-0.25v-2.6h0.24v0.6c0.09-0.2,0.24-0.36,0.42-0.48c0.17-0.12,0.37-0.18,0.57-0.18c0.19-0.01,0.38,0.06,0.53,0.19
	c0.14,0.14,0.23,0.32,0.25,0.51c0.16-0.41,0.56-0.69,1-0.7c0.24-0.02,0.47,0.09,0.6,0.3c0.13,0.26,0.2,0.56,0.18,0.85L81.46,3.65z"
	/>
</svg>
