<?xml version="1.0" encoding="utf-8"?>
<!-- Generator: Adobe Illustrator 22.0.0, SVG Export Plug-In . SVG Version: 6.00 Build 0)  -->
<svg version="1.1" id="Layer_1" xmlns="http://www.w3.org/2000/svg" xmlns:xlink="http://www.w3.org/1999/xlink" x="0px" y="0px"
	 viewBox="0 0 89.95 4.75" style="enable-background:new 0 0 89.95 4.75;" xml:space="preserve">
<style type="text/css">
	.st0{fill:#010101;}
</style>
<path class="st0" d="M2.38,0.65c-0.25-0.28-0.62-0.42-1-0.39c-0.27-0.02-0.53,0.05-0.75,0.2C0.47,0.59,0.38,0.79,0.39,0.99
	c0,0.1,0.02,0.19,0.06,0.28c0.04,0.08,0.11,0.15,0.19,0.19c0.1,0.06,0.21,0.11,0.32,0.14l0.47,0.11C1.6,1.75,1.77,1.79,1.94,1.85
	c0.14,0.04,0.28,0.1,0.4,0.18C2.45,2.1,2.53,2.19,2.59,2.3c0.06,0.12,0.08,0.26,0.08,0.39c0,0.14-0.03,0.28-0.09,0.41
	C2.52,3.22,2.43,3.32,2.32,3.39C2.2,3.48,2.06,3.54,1.92,3.57C1.75,3.61,1.58,3.63,1.41,3.63C0.89,3.64,0.38,3.45,0,3.1l0.14-0.2
	C0.3,3.06,0.48,3.18,0.69,3.27C0.92,3.36,1.17,3.41,1.42,3.4c0.25,0.02,0.5-0.04,0.72-0.16C2.31,3.13,2.41,2.93,2.4,2.72
	c0-0.1-0.02-0.21-0.07-0.3c-0.05-0.09-0.12-0.16-0.2-0.21C2.04,2.16,1.95,2.13,1.86,2.1c-0.14,0-0.3-0.09-0.49-0.13L0.86,1.85
	c-0.14-0.05-0.28-0.12-0.4-0.2C0.36,1.59,0.28,1.5,0.23,1.4C0.18,1.29,0.16,1.16,0.16,1.04c0-0.13,0.03-0.27,0.09-0.39
	C0.31,0.53,0.4,0.42,0.51,0.34c0.1-0.09,0.22-0.16,0.35-0.2C1.03,0.09,1.2,0.07,1.37,0.07c0.21,0,0.42,0.04,0.62,0.11
	c0.18,0.06,0.35,0.17,0.48,0.31L2.38,0.65z M4.64,3.52H4.58L4.46,3.65H4.3H4.1c-0.08,0.01-0.16,0.01-0.24,0
	C3.8,3.63,3.75,3.6,3.7,3.56C3.66,3.52,3.62,3.47,3.59,3.42c-0.01-0.07-0.01-0.13,0-0.2v-2H3.23v-0.2h0.36V0.13h0.27v0.89h0.61v0.2
	H3.86v1.9C3.85,3.2,3.89,3.28,3.96,3.33c0.07,0.05,0.15,0.08,0.23,0.08c0.09,0,0.18-0.02,0.26-0.06l0.14-0.06L4.64,3.52z M5.97,3.65
	c-0.11,0.02-0.22,0.02-0.33,0c-0.2-0.08-0.37-0.23-0.46-0.43c-0.04-0.1-0.06-0.2-0.06-0.31c0-0.11,0.03-0.22,0.08-0.31
	c0.05-0.1,0.13-0.18,0.22-0.24c0.1-0.07,0.22-0.13,0.34-0.16C5.9,2.16,6.05,2.14,6.2,2.14c0.14-0.01,0.28-0.01,0.42,0
	c0.13,0.02,0.27,0.05,0.39,0.1V1.98C7.02,1.77,6.95,1.56,6.8,1.4C6.65,1.25,6.44,1.17,6.23,1.18c-0.14,0-0.27,0.03-0.4,0.08
	c-0.16,0.06-0.3,0.13-0.44,0.23L5.3,1.32c0.27-0.21,0.61-0.33,0.95-0.34c0.51-0.04,0.96,0.34,1,0.85c0,0.05,0,0.1,0,0.15v1.27
	c0,0.08,0,0.13,0.1,0.13v0.27H7.27c-0.06,0-0.12-0.02-0.16-0.07c-0.04-0.04-0.07-0.1-0.07-0.16V3.21C6.91,3.36,6.76,3.48,6.58,3.57
	C6.38,3.64,6.18,3.66,5.97,3.65z M5.97,3.45c0.18,0,0.36-0.04,0.53-0.11c0.15-0.06,0.28-0.16,0.38-0.29
	c0.05-0.06,0.07-0.13,0.08-0.2V2.39c-0.12-0.04-0.25-0.08-0.38-0.1c-0.13-0.02-0.27-0.02-0.4,0c-0.12-0.02-0.24-0.02-0.36,0
	C5.72,2.31,5.63,2.35,5.55,2.4C5.48,2.44,5.41,2.51,5.37,2.58C5.33,2.65,5.31,2.74,5.31,2.82c-0.02,0.08-0.02,0.17,0,0.25
	c0.03,0.07,0.08,0.14,0.14,0.19c0.06,0.06,0.13,0.1,0.21,0.13c0.11,0.06,0.23,0.1,0.36,0.1L5.97,3.45z M10.38,3.65h-0.25V2.19
	c0.02-0.25-0.03-0.5-0.14-0.73c-0.1-0.15-0.27-0.24-0.45-0.23c-0.11,0-0.22,0.02-0.33,0.06C9.1,1.33,9,1.39,8.91,1.46
	C8.82,1.53,8.74,1.62,8.67,1.72C8.6,1.81,8.55,1.92,8.51,2.03v1.62H8.26v-2.6H8.5v0.6c0.05-0.1,0.12-0.19,0.19-0.27
	C8.77,1.3,8.86,1.23,8.96,1.17c0.1-0.06,0.2-0.1,0.31-0.13c0.11-0.02,0.23-0.02,0.34,0c0.24-0.02,0.47,0.09,0.6,0.3
	c0.13,0.26,0.19,0.56,0.17,0.85V3.65z M12.45,3.65c-0.17,0-0.34-0.04-0.49-0.11c-0.15-0.07-0.29-0.18-0.4-0.3
	c-0.11-0.13-0.2-0.27-0.26-0.43c-0.06-0.16-0.09-0.33-0.09-0.5c0-0.18,0.03-0.35,0.09-0.52c0.06-0.16,0.14-0.3,0.25-0.43
	c0.1-0.12,0.23-0.22,0.37-0.29c0.25-0.12,0.54-0.14,0.8-0.06c0.1,0.03,0.19,0.08,0.28,0.13c0.08,0.06,0.16,0.12,0.23,0.19
	c0.07,0.08,0.13,0.16,0.18,0.24V0h0.25v3.29c0,0.08,0,0.13,0.11,0.13v0.23h-0.09c-0.13-0.01-0.23-0.11-0.24-0.24V3.12
	c-0.11,0.17-0.25,0.31-0.43,0.41C12.84,3.62,12.64,3.67,12.45,3.65z M12.5,3.43c0.1,0,0.2-0.02,0.29-0.06
	c0.1-0.04,0.2-0.09,0.29-0.15C13.16,3.15,13.23,3.08,13.3,3c0.06-0.08,0.1-0.17,0.11-0.27V1.87c-0.04-0.08-0.09-0.15-0.15-0.22
	c-0.07-0.09-0.15-0.16-0.24-0.22c-0.09-0.06-0.18-0.11-0.28-0.15c-0.09-0.04-0.19-0.05-0.29-0.05c-0.14,0-0.28,0.03-0.4,0.09
	c-0.12,0.06-0.23,0.15-0.32,0.26c-0.09,0.1-0.16,0.23-0.2,0.36c-0.05,0.13-0.07,0.27-0.07,0.41c0,0.15,0.03,0.29,0.08,0.43
	c0.05,0.13,0.13,0.25,0.22,0.35c0.1,0.1,0.21,0.18,0.33,0.25c0.13,0.06,0.27,0.09,0.41,0.09V3.43z M15.34,3.65
	c-0.11,0-0.22-0.02-0.33-0.06c-0.1-0.04-0.19-0.1-0.27-0.17c-0.08-0.07-0.14-0.16-0.18-0.26c-0.05-0.1-0.07-0.2-0.07-0.31
	c0-0.11,0.03-0.22,0.08-0.31c0.05-0.1,0.13-0.18,0.22-0.24c0.1-0.07,0.22-0.13,0.34-0.16c0.14-0.04,0.29-0.06,0.44-0.06
	c0.14-0.01,0.28-0.01,0.42,0c0.13,0.02,0.27,0.05,0.39,0.1V1.92c0.01-0.21-0.06-0.42-0.21-0.58c-0.15-0.15-0.36-0.23-0.57-0.22
	c-0.14,0-0.27,0.03-0.4,0.08c-0.16,0.06-0.3,0.13-0.44,0.23l-0.09-0.17c0.27-0.21,0.61-0.33,0.95-0.34c0.51-0.04,0.96,0.34,1,0.85
	c0,0.05,0,0.1,0,0.15v1.27c0,0.08,0,0.13,0.11,0.13v0.33h-0.1c-0.06,0-0.12-0.02-0.16-0.07c-0.04-0.04-0.07-0.1-0.07-0.16V3.21
	c-0.13,0.15-0.28,0.27-0.46,0.36C15.75,3.64,15.54,3.66,15.34,3.65z M15.34,3.45c0.18,0,0.36-0.04,0.53-0.11
	c0.15-0.06,0.28-0.16,0.38-0.29c0.05-0.06,0.07-0.13,0.08-0.2V2.39c-0.12-0.04-0.25-0.08-0.38-0.1c-0.13-0.02-0.27-0.02-0.4,0
	c-0.12-0.02-0.24-0.02-0.36,0C15.09,2.31,15,2.35,14.92,2.4c-0.07,0.04-0.14,0.11-0.18,0.18c-0.04,0.07-0.06,0.16-0.06,0.24
	c0,0.09,0.02,0.17,0.05,0.25c0.03,0.07,0.08,0.14,0.14,0.19c0.06,0.06,0.13,0.1,0.21,0.13c0.09,0.06,0.2,0.09,0.31,0.1L15.34,3.45z
	 M18.86,1.27c-0.22,0.01-0.43,0.08-0.61,0.21c-0.18,0.14-0.31,0.33-0.37,0.54v1.63h-0.25v-2.6h0.23v0.6
	c0.08-0.17,0.21-0.32,0.36-0.44c0.14-0.11,0.3-0.18,0.48-0.2h0.16V1.27z M20.52,3.65c-0.17,0-0.34-0.04-0.5-0.11
	c-0.3-0.15-0.53-0.41-0.65-0.73c-0.06-0.16-0.09-0.33-0.09-0.5c0-0.18,0.03-0.35,0.09-0.52c0.06-0.15,0.14-0.3,0.24-0.43
	c0.11-0.12,0.24-0.22,0.38-0.29C20.14,1,20.3,0.96,20.47,0.96c0.11-0.02,0.21-0.02,0.32,0c0.1,0.03,0.19,0.08,0.28,0.13
	c0.08,0.06,0.16,0.12,0.23,0.19c0.07,0.08,0.13,0.16,0.18,0.24V0h0.25v3.29c0,0.08,0,0.13,0.11,0.13v0.23h-0.09
	c-0.13-0.01-0.23-0.11-0.24-0.24V3.12c-0.11,0.17-0.25,0.31-0.43,0.41C20.91,3.62,20.71,3.67,20.52,3.65z M20.57,3.43
	c0.1,0,0.2-0.02,0.29-0.06c0.1-0.04,0.19-0.09,0.28-0.15C21.23,3.16,21.3,3.08,21.37,3c0.06-0.08,0.1-0.17,0.11-0.27V1.87
	c-0.04-0.09-0.09-0.18-0.16-0.26c-0.06-0.09-0.14-0.16-0.23-0.22C21,1.33,20.91,1.28,20.81,1.24c-0.09-0.04-0.19-0.05-0.29-0.05
	c-0.14,0-0.28,0.03-0.41,0.09c-0.12,0.07-0.22,0.15-0.31,0.26c-0.09,0.1-0.16,0.23-0.2,0.36c-0.05,0.13-0.07,0.27-0.07,0.41
	c0,0.15,0.03,0.29,0.08,0.43c0.05,0.13,0.13,0.25,0.22,0.35c0.1,0.1,0.21,0.18,0.33,0.25c0.13,0.07,0.27,0.12,0.41,0.13V3.43z
	 M25.13,3.65c-0.19,0-0.39-0.03-0.57-0.1c-0.18-0.06-0.34-0.17-0.48-0.3l0.12-0.17c0.13,0.12,0.28,0.21,0.44,0.28
	c0.16,0.06,0.32,0.09,0.49,0.09c0.19,0.01,0.38-0.04,0.55-0.14c0.13-0.09,0.2-0.24,0.2-0.4c0.01-0.07-0.01-0.14-0.05-0.2
	c-0.04-0.06-0.09-0.11-0.16-0.14c-0.08-0.04-0.17-0.08-0.26-0.1l-0.36-0.1c-0.13-0.02-0.26-0.06-0.38-0.1
	c-0.09-0.02-0.18-0.06-0.26-0.12c-0.07-0.04-0.13-0.1-0.16-0.17c-0.04-0.08-0.06-0.16-0.05-0.25c0-0.12,0.02-0.23,0.07-0.34
	c0.05-0.1,0.12-0.18,0.21-0.24c0.09-0.06,0.19-0.11,0.3-0.14c0.12-0.02,0.25-0.02,0.37,0c0.18,0,0.37,0.03,0.54,0.1
	c0.14,0.06,0.26,0.15,0.36,0.26l-0.14,0.14c-0.09-0.1-0.2-0.18-0.33-0.23c-0.15-0.04-0.3-0.07-0.45-0.07h-0.27
	c-0.08,0.02-0.15,0.05-0.22,0.09c-0.06,0.05-0.11,0.1-0.15,0.17c-0.04,0.07-0.05,0.16-0.05,0.24c-0.01,0.06-0.01,0.13,0,0.19
	c0.03,0.05,0.07,0.09,0.12,0.12l0.21,0.09l0.31,0.08l0.44,0.11c0.11,0.03,0.22,0.08,0.32,0.14c0.08,0.05,0.14,0.11,0.19,0.19
	c0.05,0.09,0.07,0.18,0.07,0.28c0.01,0.22-0.1,0.43-0.28,0.55C25.62,3.6,25.37,3.66,25.13,3.65z M26.96,0.46V0h0.24v0.46H26.96z
	 M26.96,3.64V1.05h0.24v2.6L26.96,3.64z M28.01,3.46l1.85-2.22h-1.8V1.05h2.08v0.18l-1.83,2.21h1.82v0.21h-2.1L28.01,3.46z
	 M31.97,3.65c-0.18,0-0.35-0.04-0.51-0.11c-0.16-0.07-0.29-0.17-0.41-0.29c-0.12-0.12-0.21-0.27-0.27-0.43
	c-0.06-0.17-0.1-0.35-0.1-0.53c0-0.17,0.04-0.35,0.1-0.51c0.06-0.16,0.15-0.31,0.27-0.43c0.11-0.12,0.25-0.22,0.4-0.28
	c0.15-0.08,0.33-0.12,0.5-0.11c0.18,0,0.35,0.04,0.51,0.11c0.15,0.07,0.29,0.17,0.4,0.29c0.12,0.12,0.21,0.26,0.27,0.42
	c0.06,0.16,0.09,0.34,0.09,0.51V2.4h-2.28c0.01,0.15,0.05,0.29,0.11,0.42c0.05,0.12,0.13,0.23,0.22,0.33
	c0.09,0.09,0.2,0.17,0.32,0.22c0.12,0.05,0.26,0.08,0.39,0.08c0.09,0.01,0.17,0.01,0.26,0c0.08-0.02,0.17-0.05,0.24-0.1
	c0.08-0.04,0.15-0.09,0.2-0.16c0.06-0.06,0.11-0.13,0.14-0.2l0.22,0.06C33,3.14,32.95,3.23,32.88,3.31
	c-0.08,0.08-0.16,0.14-0.25,0.2c-0.1,0.06-0.21,0.1-0.32,0.13C32.2,3.66,32.08,3.66,31.97,3.65z M32.97,2.2
	c-0.01-0.14-0.04-0.29-0.1-0.42c-0.06-0.12-0.13-0.23-0.22-0.32c-0.09-0.09-0.2-0.17-0.32-0.22c-0.12-0.05-0.25-0.08-0.38-0.08
	c-0.13,0-0.27,0.03-0.39,0.08c-0.12,0.05-0.23,0.13-0.32,0.22c-0.09,0.1-0.17,0.21-0.22,0.33c-0.05,0.13-0.08,0.27-0.09,0.41
	L32.97,2.2z M36.86,3.65c-0.21,0-0.42-0.06-0.6-0.18c-0.17-0.11-0.31-0.26-0.42-0.43v1.62h-0.25V1.05h0.23v0.51
	c0.11-0.16,0.25-0.3,0.42-0.4C36.41,1.05,36.61,1,36.81,1c0.17,0,0.34,0.04,0.49,0.11c0.15,0.07,0.29,0.18,0.4,0.31
	c0.11,0.13,0.2,0.27,0.26,0.43c0.06,0.16,0.09,0.33,0.09,0.5c0,0.17-0.03,0.35-0.09,0.51c-0.05,0.16-0.13,0.31-0.24,0.43
	c-0.1,0.12-0.23,0.22-0.38,0.29C37.19,3.64,37.02,3.66,36.86,3.65z M36.8,3.43c0.14,0,0.28-0.04,0.41-0.1
	c0.12-0.06,0.22-0.15,0.31-0.25c0.09-0.11,0.16-0.23,0.2-0.36c0.05-0.13,0.07-0.27,0.07-0.41c0-0.15-0.02-0.29-0.08-0.43
	c-0.05-0.13-0.12-0.25-0.22-0.36c-0.09-0.1-0.2-0.18-0.33-0.24c-0.12-0.06-0.26-0.09-0.4-0.09c-0.1,0-0.2,0.01-0.29,0.05
	c-0.1,0.04-0.2,0.09-0.29,0.16c-0.09,0.06-0.16,0.14-0.23,0.22c-0.06,0.08-0.1,0.17-0.11,0.26v0.86c0.05,0.09,0.11,0.18,0.17,0.27
	c0.07,0.08,0.14,0.15,0.22,0.22c0.08,0.06,0.17,0.11,0.27,0.14c0.08,0.05,0.17,0.08,0.26,0.1L36.8,3.43z M39.94,3.65
	c-0.34,0-0.67-0.15-0.9-0.4c-0.12-0.12-0.21-0.27-0.27-0.43c-0.06-0.16-0.09-0.34-0.09-0.51c0-0.18,0.03-0.35,0.09-0.52
	c0.07-0.16,0.16-0.3,0.27-0.43c0.11-0.12,0.25-0.22,0.4-0.29c0.16-0.07,0.33-0.11,0.5-0.11c0.34,0,0.67,0.15,0.9,0.4
	c0.12,0.12,0.21,0.27,0.27,0.43c0.07,0.16,0.1,0.34,0.1,0.52c0,0.18-0.03,0.35-0.1,0.51c-0.06,0.16-0.14,0.31-0.26,0.43
	c-0.12,0.12-0.25,0.22-0.4,0.29C40.29,3.61,40.12,3.65,39.94,3.65z M38.94,2.32c0,0.15,0.02,0.29,0.08,0.43
	C39.07,2.88,39.14,3,39.23,3.1c0.09,0.1,0.2,0.18,0.32,0.24c0.12,0.06,0.26,0.09,0.4,0.09c0.14,0,0.27-0.03,0.39-0.09
	c0.12-0.06,0.24-0.14,0.33-0.24c0.09-0.11,0.16-0.23,0.22-0.36c0.11-0.28,0.11-0.59,0-0.87c-0.06-0.13-0.13-0.25-0.22-0.35
	c-0.09-0.1-0.2-0.18-0.32-0.24c-0.12-0.06-0.26-0.09-0.4-0.09c-0.14,0-0.27,0.03-0.39,0.09c-0.12,0.06-0.23,0.14-0.32,0.24
	c-0.1,0.1-0.17,0.23-0.22,0.36c-0.07,0.15-0.1,0.32-0.09,0.48L38.94,2.32z M42.08,0h0.25v3.13c0,0.09,0.03,0.17,0.09,0.23
	c0.06,0.05,0.14,0.08,0.22,0.08h0.14h0.14v0.2l-0.16,0.01h-0.22c-0.12,0.01-0.24-0.04-0.33-0.13c-0.09-0.09-0.14-0.21-0.13-0.34
	L42.08,0z M43.72,4.52h0.14c0.03,0.01,0.05,0.01,0.08,0H44c0.03-0.04,0.05-0.07,0.07-0.11l0.11-0.25l0.19-0.45l-1.13-2.66h0.26
	l1,2.35l1-2.35h0.24l-1.42,3.41c-0.04,0.09-0.1,0.16-0.18,0.22c-0.1,0.05-0.22,0.08-0.33,0.07h-0.09V4.52z M47.29,3.65
	c-0.55,0-0.82-0.38-0.82-1.15V1.05h0.25v1.46c0,0.64,0.21,1,0.65,1c0.11,0,0.22-0.02,0.32-0.06c0.1-0.04,0.2-0.09,0.29-0.16
	c0.09-0.07,0.17-0.15,0.23-0.25c0.07-0.1,0.13-0.21,0.17-0.32V1.05h0.25v2.24c0,0.08,0,0.13,0.1,0.13v0.23h-0.07
	c-0.07,0-0.13-0.03-0.18-0.07c-0.05-0.04-0.08-0.1-0.08-0.16V3.03c-0.11,0.2-0.27,0.37-0.46,0.49C47.74,3.62,47.51,3.66,47.29,3.65z
	 M50.86,1.27c-0.22,0-0.44,0.07-0.61,0.21c-0.18,0.13-0.31,0.32-0.37,0.54v1.63h-0.25v-2.6h0.24v0.6c0.08-0.17,0.21-0.32,0.36-0.44
	c0.13-0.11,0.3-0.18,0.47-0.2h0.16V1.27z M52.59,3.65c-0.18,0-0.35-0.04-0.51-0.11c-0.15-0.07-0.29-0.17-0.4-0.29
	c-0.12-0.12-0.21-0.27-0.27-0.43c-0.07-0.17-0.1-0.35-0.1-0.53c0-0.18,0.03-0.35,0.1-0.51c0.06-0.16,0.15-0.31,0.27-0.43
	c0.11-0.12,0.25-0.22,0.4-0.28c0.15-0.08,0.33-0.12,0.5-0.11c0.18,0,0.35,0.04,0.51,0.11c0.15,0.07,0.29,0.17,0.4,0.29
	c0.11,0.12,0.2,0.27,0.27,0.42c0.06,0.16,0.09,0.34,0.09,0.51V2.4h-2.28c0.01,0.15,0.05,0.29,0.11,0.42
	c0.05,0.12,0.13,0.23,0.22,0.33c0.09,0.09,0.2,0.17,0.32,0.22c0.12,0.05,0.25,0.08,0.38,0.08c0.09,0.01,0.18,0.01,0.27,0
	c0.08-0.02,0.16-0.06,0.24-0.1c0.08-0.04,0.14-0.1,0.2-0.16c0.06-0.06,0.1-0.13,0.14-0.2l0.22,0.06c-0.04,0.1-0.1,0.18-0.17,0.26
	c-0.07,0.08-0.16,0.15-0.25,0.2c-0.1,0.06-0.2,0.1-0.31,0.13C52.82,3.66,52.71,3.66,52.59,3.65z M53.59,2.2
	c-0.01-0.14-0.04-0.29-0.1-0.42c-0.05-0.12-0.13-0.23-0.23-0.32c-0.09-0.09-0.19-0.17-0.31-0.22c-0.12-0.05-0.26-0.08-0.39-0.08
	c-0.13,0-0.26,0.03-0.38,0.08c-0.12,0.05-0.23,0.13-0.32,0.22c-0.09,0.1-0.17,0.21-0.22,0.33c-0.05,0.13-0.08,0.27-0.09,0.41
	L53.59,2.2z M55.79,3.52h-0.07L55.6,3.58h-0.16h-0.2c-0.06,0.01-0.13,0.01-0.19,0c-0.06,0-0.13-0.01-0.19-0.03
	c-0.04-0.04-0.08-0.09-0.11-0.14c-0.01-0.07-0.01-0.13,0-0.2v-2h-0.36v-0.2h0.36V0.12H55v0.89h0.61v0.2H55v1.9
	c0,0.08,0.03,0.16,0.1,0.21c0.07,0.05,0.15,0.08,0.23,0.08c0.09,0,0.19-0.02,0.27-0.06l0.13-0.06L55.79,3.52z M58.6,3.65h-0.25V2.19
	c0-0.64-0.22-1-0.65-1c-0.11,0-0.21,0.02-0.31,0.06c-0.1,0.04-0.2,0.1-0.28,0.17c-0.09,0.07-0.17,0.16-0.24,0.26
	c-0.06,0.1-0.11,0.2-0.14,0.31v1.66h-0.25V0h0.25v1.65c0.1-0.2,0.25-0.36,0.44-0.48c0.18-0.12,0.39-0.18,0.6-0.18
	c0.13,0,0.25,0.02,0.37,0.08c0.11,0.05,0.2,0.13,0.26,0.23c0.07,0.11,0.12,0.23,0.15,0.36c0.03,0.16,0.05,0.32,0.05,0.48L58.6,3.65z
	 M60.24,3.65c-0.13,0.02-0.25,0.02-0.38,0c-0.1-0.04-0.19-0.1-0.27-0.17c-0.08-0.07-0.14-0.16-0.18-0.26
	c-0.04-0.1-0.07-0.2-0.07-0.31c0-0.11,0.03-0.22,0.08-0.31c0.05-0.1,0.13-0.18,0.23-0.24c0.1-0.08,0.22-0.13,0.34-0.16
	c0.14-0.04,0.29-0.06,0.44-0.06c0.14-0.01,0.28-0.01,0.42,0c0.13,0.02,0.26,0.05,0.38,0.1V1.98c0.01-0.21-0.06-0.42-0.21-0.58
	c-0.15-0.15-0.36-0.23-0.57-0.22c-0.14,0-0.27,0.03-0.4,0.08c-0.15,0.06-0.3,0.14-0.43,0.23l-0.1-0.17
	c0.27-0.21,0.61-0.33,0.95-0.34c0.27-0.02,0.54,0.08,0.74,0.27C61.4,1.45,61.5,1.72,61.48,2v1.27c0,0.08,0,0.13,0.11,0.13v0.25h-0.1
	c-0.06,0-0.12-0.02-0.16-0.07c-0.04-0.04-0.06-0.1-0.07-0.16V3.21c-0.12,0.15-0.28,0.28-0.46,0.36C60.62,3.63,60.43,3.66,60.24,3.65
	z M60.24,3.45c0.18,0,0.36-0.04,0.53-0.11c0.15-0.06,0.27-0.16,0.37-0.29c0.05-0.06,0.07-0.13,0.08-0.2V2.39
	c-0.12-0.04-0.24-0.08-0.37-0.1c-0.14-0.02-0.27-0.02-0.41,0c-0.12-0.02-0.23-0.02-0.35,0c-0.1,0.02-0.19,0.06-0.28,0.11
	c-0.07,0.05-0.13,0.11-0.17,0.18c-0.05,0.07-0.07,0.15-0.07,0.24c0,0.09,0.02,0.17,0.05,0.25c0.04,0.07,0.08,0.14,0.14,0.19
	c0.06,0.06,0.14,0.1,0.22,0.13c0.09,0.06,0.2,0.09,0.31,0.1L60.24,3.45z M64.65,3.65H64.4V2.19c0.02-0.25-0.03-0.5-0.14-0.73
	c-0.1-0.15-0.27-0.24-0.45-0.23c-0.11,0-0.22,0.02-0.33,0.06c-0.11,0.04-0.21,0.1-0.3,0.17c-0.1,0.07-0.18,0.16-0.25,0.26
	c-0.07,0.09-0.12,0.2-0.15,0.31v1.62h-0.25v-2.6h0.23v0.6c0.06-0.1,0.12-0.19,0.2-0.27c0.08-0.08,0.17-0.15,0.26-0.21
	c0.2-0.11,0.43-0.17,0.66-0.18c0.24-0.02,0.47,0.09,0.59,0.3c0.13,0.26,0.2,0.56,0.18,0.85L64.65,3.65z M66.75,3.65
	c-0.17,0-0.34-0.04-0.5-0.11c-0.16-0.07-0.29-0.17-0.41-0.29c-0.12-0.12-0.21-0.27-0.27-0.43c-0.07-0.17-0.1-0.35-0.1-0.53
	c0-0.18,0.03-0.35,0.1-0.51c0.06-0.16,0.15-0.31,0.27-0.43c0.11-0.12,0.25-0.22,0.4-0.28c0.15-0.08,0.33-0.12,0.5-0.11
	c0.18,0,0.35,0.04,0.51,0.11c0.15,0.07,0.29,0.17,0.4,0.29c0.12,0.12,0.21,0.26,0.27,0.42c0.06,0.16,0.09,0.34,0.09,0.51V2.4h-2.28
	c0.01,0.15,0.05,0.29,0.11,0.42c0.05,0.12,0.13,0.23,0.22,0.33c0.09,0.09,0.2,0.17,0.32,0.22c0.12,0.05,0.25,0.08,0.38,0.08
	c0.09,0.01,0.18,0.01,0.27,0c0.08-0.02,0.17-0.05,0.24-0.1c0.08-0.04,0.15-0.09,0.2-0.16c0.06-0.06,0.1-0.13,0.14-0.2l0.22,0.06
	c-0.04,0.09-0.09,0.18-0.16,0.26c-0.08,0.08-0.16,0.14-0.25,0.2c-0.1,0.06-0.21,0.1-0.32,0.13C66.98,3.66,66.87,3.66,66.75,3.65z
	 M67.75,2.2c-0.01-0.14-0.04-0.29-0.1-0.42c-0.06-0.12-0.13-0.23-0.22-0.32c-0.09-0.09-0.2-0.17-0.32-0.22
	c-0.12-0.05-0.26-0.08-0.39-0.08c-0.13,0-0.26,0.03-0.38,0.08c-0.12,0.05-0.23,0.13-0.32,0.22c-0.09,0.1-0.17,0.21-0.22,0.33
	c-0.05,0.13-0.08,0.27-0.09,0.41L67.75,2.2z M70.16,2.33c0-0.18,0.03-0.36,0.1-0.52c0.12-0.32,0.36-0.57,0.67-0.7
	c0.16-0.08,0.33-0.12,0.51-0.11c0.22-0.01,0.43,0.05,0.62,0.16c0.18,0.1,0.32,0.25,0.41,0.44l-0.25,0.08
	c-0.08-0.15-0.21-0.26-0.36-0.33c-0.14-0.08-0.31-0.12-0.47-0.12c-0.14,0-0.27,0.02-0.4,0.08c-0.12,0.05-0.23,0.13-0.32,0.23
	c-0.09,0.11-0.17,0.23-0.22,0.36c-0.05,0.14-0.08,0.28-0.08,0.43c0,0.15,0.03,0.3,0.08,0.44c0.05,0.13,0.13,0.25,0.22,0.36
	c0.09,0.11,0.2,0.19,0.33,0.25c0.12,0.06,0.25,0.09,0.39,0.09c0.09,0.01,0.18,0.01,0.27,0l0.25-0.11c0.07-0.04,0.14-0.09,0.19-0.15
	c0.05-0.05,0.09-0.11,0.11-0.18l0.25,0.07c-0.04,0.09-0.09,0.17-0.15,0.25c-0.07,0.08-0.16,0.15-0.25,0.2
	c-0.1,0.06-0.2,0.1-0.31,0.13c-0.11,0.01-0.23,0.01-0.34,0c-0.18,0-0.35-0.04-0.51-0.11c-0.16-0.07-0.29-0.17-0.41-0.29
	c-0.12-0.12-0.21-0.27-0.27-0.43C70.17,2.68,70.15,2.51,70.16,2.33z M74.37,3.65c-0.34,0-0.67-0.15-0.9-0.4
	c-0.12-0.12-0.21-0.27-0.27-0.43c-0.06-0.16-0.09-0.34-0.09-0.51c0-0.18,0.03-0.35,0.09-0.52c0.07-0.16,0.16-0.3,0.27-0.43
	c0.11-0.12,0.25-0.22,0.4-0.29c0.16-0.07,0.33-0.11,0.5-0.11c0.17,0,0.34,0.04,0.5,0.11c0.31,0.14,0.56,0.4,0.67,0.72
	c0.07,0.16,0.1,0.34,0.1,0.52c0,0.18-0.03,0.35-0.1,0.51c-0.06,0.16-0.14,0.31-0.26,0.43c-0.12,0.12-0.25,0.22-0.4,0.29
	C74.72,3.61,74.55,3.65,74.37,3.65z M73.37,2.32c0,0.15,0.02,0.29,0.08,0.43c0.09,0.26,0.29,0.48,0.54,0.59
	c0.25,0.12,0.53,0.12,0.78,0C74.9,3.28,75.01,3.2,75.1,3.1c0.09-0.11,0.16-0.23,0.22-0.36c0.11-0.28,0.11-0.59,0-0.87
	c-0.06-0.13-0.13-0.25-0.22-0.35c-0.18-0.2-0.44-0.32-0.72-0.33c-0.14,0-0.27,0.03-0.39,0.09c-0.12,0.06-0.23,0.14-0.32,0.24
	c-0.1,0.1-0.17,0.23-0.22,0.36c-0.07,0.15-0.1,0.32-0.09,0.48L73.37,2.32z M78.61,3.65h-0.25V2.19c0.02-0.25-0.03-0.5-0.14-0.73
	c-0.1-0.15-0.27-0.24-0.45-0.23c-0.11,0-0.22,0.02-0.33,0.06c-0.11,0.04-0.21,0.1-0.3,0.17c-0.1,0.07-0.18,0.16-0.25,0.26
	c-0.07,0.09-0.12,0.2-0.15,0.31v1.62h-0.25v-2.6h0.23v0.6c0.06-0.1,0.12-0.19,0.2-0.27C77,1.3,77.09,1.23,77.19,1.17
	c0.1-0.06,0.2-0.1,0.31-0.13c0.11-0.02,0.23-0.02,0.34,0c0.24-0.02,0.47,0.09,0.6,0.3c0.13,0.26,0.18,0.56,0.17,0.85L78.61,3.65z
	 M80.68,3.65c-0.17,0-0.34-0.04-0.5-0.11c-0.15-0.08-0.28-0.18-0.39-0.3c-0.11-0.12-0.2-0.27-0.26-0.43c-0.07-0.16-0.1-0.33-0.1-0.5
	c0-0.18,0.03-0.35,0.09-0.52c0.06-0.16,0.15-0.3,0.25-0.43c0.11-0.12,0.24-0.22,0.38-0.29C80.3,1,80.46,0.96,80.63,0.96
	c0.11-0.02,0.21-0.02,0.32,0c0.1,0.03,0.19,0.08,0.28,0.13c0.08,0.06,0.16,0.12,0.23,0.19c0.07,0.08,0.13,0.16,0.18,0.24V0h0.22
	v3.29c0,0.08,0,0.13,0.1,0.13v0.23h-0.1c-0.06,0-0.13-0.03-0.17-0.08c-0.04-0.04-0.07-0.1-0.07-0.16V3.12
	c-0.1,0.17-0.25,0.31-0.42,0.41C81.04,3.61,80.86,3.66,80.68,3.65z M80.73,3.43c0.1,0,0.2-0.02,0.29-0.06
	c0.1-0.04,0.19-0.09,0.28-0.15c0.09-0.06,0.16-0.14,0.23-0.22c0.06-0.08,0.1-0.17,0.11-0.27V1.87c-0.04-0.09-0.09-0.18-0.16-0.26
	c-0.06-0.09-0.14-0.16-0.23-0.22c-0.09-0.06-0.18-0.11-0.28-0.15c-0.09-0.04-0.19-0.05-0.29-0.05c-0.14,0-0.28,0.03-0.41,0.09
	c-0.12,0.06-0.23,0.15-0.31,0.26c-0.09,0.1-0.16,0.23-0.2,0.36c-0.05,0.13-0.07,0.27-0.07,0.41c0,0.15,0.03,0.29,0.08,0.43
	c0.05,0.13,0.13,0.25,0.22,0.35c0.1,0.1,0.21,0.18,0.33,0.25c0.12,0.08,0.26,0.12,0.41,0.13V3.43z M84.02,3.65
	c-0.18,0-0.35-0.04-0.51-0.11c-0.15-0.07-0.28-0.17-0.4-0.29c-0.12-0.12-0.2-0.27-0.26-0.43c-0.07-0.16-0.1-0.33-0.1-0.51
	c0-0.18,0.04-0.35,0.1-0.52c0.06-0.16,0.15-0.31,0.27-0.43c0.35-0.39,0.92-0.51,1.4-0.29c0.15,0.07,0.29,0.17,0.4,0.29
	c0.12,0.12,0.21,0.27,0.27,0.43c0.06,0.17,0.1,0.34,0.1,0.52c0,0.17-0.04,0.35-0.1,0.51c-0.06,0.16-0.15,0.31-0.27,0.43
	C84.69,3.5,84.36,3.65,84.02,3.65z M83.02,2.32c0,0.15,0.03,0.29,0.08,0.43C83.16,2.88,83.23,3,83.32,3.1
	c0.09,0.1,0.2,0.18,0.32,0.24c0.12,0.06,0.26,0.09,0.4,0.09c0.14,0,0.27-0.03,0.39-0.09c0.12-0.06,0.23-0.14,0.32-0.24
	c0.1-0.11,0.17-0.23,0.22-0.36c0.06-0.14,0.08-0.29,0.08-0.44c0-0.15-0.02-0.29-0.08-0.43c-0.05-0.13-0.12-0.25-0.22-0.35
	c-0.09-0.1-0.2-0.18-0.32-0.24c-0.25-0.12-0.53-0.12-0.78,0c-0.13,0.06-0.24,0.14-0.33,0.24C83.12,1.74,83.02,2.03,83.02,2.32z
	 M89.95,3.65H89.7V2.19c0.02-0.25-0.03-0.5-0.15-0.73c-0.11-0.15-0.28-0.24-0.47-0.23c-0.1,0-0.21,0.02-0.3,0.06
	c-0.1,0.04-0.19,0.1-0.27,0.17c-0.08,0.07-0.15,0.16-0.21,0.25c-0.06,0.1-0.1,0.22-0.13,0.33v1.61h-0.25V2.19
	c0.02-0.25-0.03-0.5-0.15-0.73c-0.11-0.15-0.28-0.24-0.47-0.23c-0.1,0-0.2,0.02-0.3,0.06c-0.09,0.04-0.18,0.09-0.26,0.16
	c-0.08,0.08-0.15,0.16-0.21,0.26c-0.07,0.1-0.11,0.21-0.14,0.32v1.62h-0.25v-2.6h0.23v0.6c0.1-0.19,0.24-0.36,0.42-0.48
	c0.17-0.12,0.37-0.18,0.57-0.18c0.2,0,0.39,0.06,0.54,0.19c0.14,0.14,0.22,0.32,0.24,0.51c0.17-0.41,0.56-0.68,1-0.7
	c0.24-0.02,0.48,0.1,0.61,0.3c0.13,0.26,0.2,0.56,0.18,0.85L89.95,3.65z"/>
</svg>
