<?xml version="1.0" encoding="utf-8"?>
<!-- Generator: Adobe Illustrator 22.0.0, SVG Export Plug-In . SVG Version: 6.00 Build 0)  -->
<svg version="1.1" id="Layer_1" xmlns="http://www.w3.org/2000/svg" xmlns:xlink="http://www.w3.org/1999/xlink" x="0px" y="0px"
	 viewBox="0 0 96.76 26.63" style="enable-background:new 0 0 96.76 26.63;" xml:space="preserve">
<style type="text/css">
	.st0{display:none;fill:#010101;}
	.st1{fill:#010101;}
</style>
<path class="st0" d="M0.22,40.19c0-0.21,0.04-0.43,0.11-0.63c0.08-0.2,0.19-0.39,0.33-0.56c0.15-0.17,0.33-0.31,0.53-0.41
	c0.22-0.1,0.46-0.16,0.71-0.15c0.28-0.01,0.56,0.06,0.8,0.21c0.22,0.14,0.39,0.33,0.5,0.56L3,39.32C2.95,39.2,2.87,39.09,2.77,39
	c-0.08-0.08-0.17-0.15-0.27-0.2c-0.1-0.05-0.2-0.09-0.31-0.11c-0.1-0.01-0.21-0.01-0.31,0c-0.21,0-0.41,0.04-0.6,0.14
	c-0.17,0.09-0.32,0.21-0.44,0.36c-0.12,0.14-0.21,0.31-0.27,0.49c-0.07,0.18-0.1,0.37-0.1,0.56c0,0.2,0.04,0.41,0.11,0.6
	c0.08,0.18,0.18,0.35,0.3,0.5c0.13,0.14,0.28,0.26,0.45,0.35c0.18,0.08,0.37,0.13,0.56,0.13c0.11,0.01,0.22,0.01,0.33,0
	c0.11-0.03,0.22-0.07,0.32-0.13c0.11-0.06,0.2-0.13,0.29-0.22c0.1-0.09,0.17-0.19,0.23-0.31l0.22,0.11
	c-0.06,0.13-0.14,0.25-0.25,0.35c-0.1,0.1-0.21,0.19-0.34,0.26c-0.13,0.07-0.26,0.12-0.4,0.16c-0.14,0.03-0.28,0.05-0.42,0.05
	c-0.23,0-0.46-0.05-0.66-0.16c-0.2-0.1-0.38-0.25-0.53-0.42c-0.15-0.17-0.26-0.37-0.34-0.58C0.25,40.7,0.21,40.44,0.22,40.19z
	 M4.88,42c-0.55,0-0.82-0.38-0.82-1.15V39.4h0.25v1.46c0,0.64,0.21,1,0.65,1c0.11,0,0.22-0.02,0.32-0.06
	c0.1-0.04,0.2-0.09,0.29-0.16c0.09-0.07,0.17-0.15,0.24-0.25C5.89,41.27,5.95,41.14,6,41v-1.6h0.25v2.24c0,0.08,0,0.13,0.1,0.13V42
	h-0.1c-0.07,0-0.13-0.03-0.18-0.07C6.02,41.89,6,41.83,6,41.77v-0.39c-0.11,0.2-0.27,0.37-0.46,0.49C5.33,41.97,5.11,42.02,4.88,42z
	 M8.08,42c-0.19,0-0.39-0.03-0.57-0.1c-0.18-0.07-0.34-0.17-0.48-0.3l0.13-0.17c0.12,0.12,0.27,0.21,0.43,0.28
	c0.16,0.06,0.32,0.09,0.49,0.09c0.19,0.01,0.38-0.04,0.55-0.14c0.14-0.09,0.21-0.24,0.21-0.4c0-0.07-0.02-0.14-0.06-0.2
	c-0.04-0.03-0.1-0.05-0.15-0.06c-0.08-0.04-0.17-0.08-0.26-0.1L8,40.76c-0.13-0.02-0.26-0.06-0.38-0.1
	c-0.1-0.02-0.19-0.06-0.27-0.12c-0.07-0.04-0.12-0.1-0.16-0.17c-0.02-0.08-0.02-0.17,0-0.25c0-0.12,0.03-0.23,0.08-0.34
	c0.04-0.1,0.11-0.18,0.2-0.24c0.09-0.06,0.2-0.11,0.31-0.14c0.12-0.02,0.24-0.02,0.36,0c0.19-0.01,0.37,0.03,0.54,0.1
	c0.14,0.06,0.27,0.15,0.37,0.26L8.91,39.9c-0.09-0.1-0.21-0.18-0.34-0.23c-0.14-0.04-0.29-0.07-0.44-0.07
	c-0.09-0.01-0.18-0.01-0.27,0c-0.08,0.02-0.16,0.05-0.23,0.09c-0.06,0.05-0.11,0.1-0.15,0.17c-0.03,0.08-0.05,0.16-0.05,0.24
	c-0.02,0.06-0.02,0.13,0,0.19c0.02,0.05,0.07,0.1,0.12,0.12l0.21,0.09l0.31,0.08l0.43,0.11c0.11,0.03,0.22,0.08,0.32,0.14
	C8.89,40.87,8.96,40.93,9,41c0.05,0.08,0.08,0.18,0.07,0.28c0.01,0.22-0.1,0.42-0.27,0.55C8.59,41.97,8.33,42.03,8.08,42z
	 M11.07,41.87H11l-0.12,0.06h-0.16h-0.2c-0.06,0.01-0.13,0.01-0.19,0c-0.06-0.02-0.12-0.05-0.17-0.09
	c-0.04-0.04-0.08-0.09-0.11-0.14c-0.01-0.07-0.01-0.13,0-0.2v-2h-0.4v-0.2H10v-0.89h0.25v0.89h0.61v0.2h-0.61v1.9
	c0,0.08,0.03,0.16,0.1,0.21c0.07,0.05,0.15,0.08,0.23,0.08c0.09,0,0.19-0.02,0.27-0.06l0.13-0.06L11.07,41.87z M12.78,42
	c-0.18,0-0.35-0.04-0.51-0.11c-0.15-0.07-0.29-0.17-0.4-0.29c-0.12-0.12-0.2-0.27-0.26-0.43c-0.07-0.16-0.1-0.33-0.1-0.51
	c0-0.18,0.03-0.36,0.1-0.52c0.06-0.16,0.15-0.31,0.27-0.43c0.35-0.39,0.92-0.51,1.4-0.29c0.15,0.07,0.29,0.17,0.4,0.29
	c0.11,0.13,0.2,0.27,0.27,0.43c0.13,0.32,0.13,0.68,0,1c-0.06,0.16-0.15,0.31-0.27,0.43c-0.23,0.25-0.56,0.4-0.9,0.4V42z
	 M11.78,40.67c0,0.15,0.03,0.29,0.08,0.43c0.05,0.13,0.13,0.25,0.22,0.35c0.09,0.1,0.2,0.18,0.32,0.24
	c0.12,0.06,0.25,0.09,0.39,0.09c0.14,0,0.28-0.03,0.4-0.09c0.12-0.06,0.23-0.14,0.32-0.24c0.1-0.11,0.17-0.23,0.22-0.36
	c0.06-0.14,0.08-0.29,0.08-0.44c0-0.15-0.02-0.29-0.08-0.43c-0.05-0.13-0.12-0.25-0.22-0.35c-0.09-0.1-0.2-0.18-0.32-0.24
	c-0.25-0.12-0.53-0.12-0.78,0c-0.13,0.05-0.24,0.14-0.33,0.24C11.88,40.09,11.78,40.38,11.78,40.67z M18.71,42h-0.25v-1.46
	c0.02-0.25-0.03-0.5-0.15-0.73c-0.11-0.15-0.28-0.24-0.47-0.23c-0.11,0-0.21,0.02-0.31,0.06c-0.09,0.04-0.18,0.1-0.26,0.17
	c-0.08,0.07-0.15,0.16-0.21,0.25c-0.06,0.1-0.1,0.21-0.13,0.33V42h-0.25v-1.46c0.02-0.25-0.03-0.5-0.15-0.73
	c-0.11-0.15-0.28-0.24-0.47-0.23c-0.1,0-0.2,0.02-0.3,0.06c-0.09,0.04-0.18,0.09-0.26,0.16c-0.08,0.08-0.15,0.16-0.21,0.26
	c-0.06,0.1-0.11,0.21-0.15,0.32V42H14.9v-2.6h0.23V40c0.1-0.19,0.24-0.36,0.42-0.48c0.17-0.12,0.37-0.18,0.57-0.18
	c0.2,0,0.39,0.06,0.54,0.19c0.13,0.14,0.22,0.32,0.24,0.51c0.17-0.41,0.56-0.68,1-0.7c0.24-0.02,0.48,0.1,0.61,0.3
	c0.13,0.26,0.2,0.56,0.18,0.85L18.71,42z M19.66,40.75v-0.23h1.43v0.23H19.66z M22.18,39.6h-0.36v-0.2h0.36v-0.09
	c0-0.12,0.02-0.24,0.05-0.35c0.03-0.12,0.08-0.23,0.15-0.33c0.08-0.1,0.17-0.18,0.28-0.24c0.12-0.06,0.26-0.09,0.4-0.09h0.25
	l0.21,0.06c0.05,0.02,0.1,0.04,0.15,0.07c0.03,0.01,0.06,0.03,0.08,0.06l-0.12,0.17c-0.07-0.05-0.14-0.09-0.22-0.11
	c-0.11-0.02-0.23-0.02-0.34,0c-0.1,0-0.2,0.02-0.29,0.07c-0.08,0.04-0.15,0.11-0.2,0.19c-0.05,0.08-0.09,0.16-0.12,0.25
	c-0.01,0.09-0.01,0.19,0,0.28v0.09h1.24V42h-0.25v-2.4h-1V42H22.2L22.18,39.6z M25.89,41.87h-0.07L25.7,42h-0.16h-0.2
	c-0.06,0.01-0.13,0.01-0.19,0c-0.06-0.02-0.11-0.06-0.15-0.1c-0.04-0.04-0.08-0.09-0.11-0.14c-0.01-0.07-0.01-0.13,0-0.2v-2h-0.36
	v-0.2h0.36v-0.89h0.25v0.89h0.61v0.2h-0.61v1.9c0,0.08,0.03,0.16,0.1,0.21c0.07,0.05,0.15,0.08,0.23,0.08
	c0.09,0,0.19-0.02,0.27-0.06l0.13-0.06L25.89,41.87z M29.27,41.87H29.2l-0.12,0.06h-0.16h-0.2c-0.07,0.01-0.13,0.01-0.2,0
	c-0.06-0.02-0.11-0.05-0.16-0.09c-0.04-0.04-0.08-0.09-0.11-0.14c-0.01-0.07-0.01-0.13,0-0.2v-2h-0.36v-0.2h0.36v-0.89h0.25v0.89
	h0.61v0.2H28.5v1.9c0,0.08,0.03,0.16,0.1,0.21c0.07,0.05,0.15,0.08,0.23,0.08c0.09,0,0.18-0.02,0.26-0.06l0.14-0.06L29.27,41.87z
	 M31,42c-0.18,0-0.35-0.04-0.51-0.11c-0.15-0.07-0.29-0.17-0.4-0.29c-0.24-0.25-0.37-0.59-0.36-0.94c0-0.18,0.03-0.36,0.1-0.52
	c0.11-0.32,0.36-0.58,0.67-0.72c0.16-0.07,0.33-0.11,0.5-0.11c0.17,0,0.34,0.04,0.5,0.11c0.15,0.07,0.28,0.17,0.4,0.29
	c0.11,0.13,0.2,0.27,0.27,0.43c0.13,0.32,0.13,0.68,0,1c-0.06,0.16-0.16,0.3-0.27,0.43c-0.11,0.12-0.25,0.22-0.4,0.29
	C31.35,41.94,31.17,41.99,31,42z M30,40.67c0,0.15,0.03,0.29,0.08,0.43c0.05,0.13,0.13,0.25,0.22,0.35c0.09,0.1,0.2,0.18,0.32,0.24
	c0.12,0.06,0.25,0.09,0.39,0.09c0.14,0,0.28-0.03,0.4-0.09c0.12-0.06,0.23-0.14,0.32-0.24c0.09-0.11,0.17-0.23,0.22-0.36
	c0.11-0.28,0.11-0.59,0-0.87c-0.05-0.13-0.13-0.25-0.22-0.35c-0.09-0.1-0.2-0.18-0.32-0.24c-0.12-0.06-0.25-0.1-0.39-0.09
	c-0.14,0-0.28,0.03-0.4,0.09c-0.12,0.06-0.23,0.14-0.32,0.24C30.1,40.09,30,40.38,30,40.67z M34.66,42.87h0.17
	c0.03,0.01,0.05,0.01,0.08,0c0.02,0,0.03,0,0.05,0c0.03-0.03,0.05-0.07,0.07-0.11l0.12-0.25l0.19-0.45l-1.16-2.66h0.26l1,2.35
	l1-2.35h0.24l-1.42,3.41c-0.04,0.09-0.1,0.16-0.18,0.22c-0.1,0.05-0.22,0.08-0.33,0.07h-0.09V42.87z M38.43,42
	c-0.18,0-0.35-0.04-0.51-0.11c-0.15-0.07-0.29-0.17-0.4-0.29c-0.24-0.25-0.37-0.59-0.36-0.94c0-0.18,0.03-0.36,0.1-0.52
	c0.11-0.32,0.36-0.58,0.67-0.72c0.16-0.07,0.33-0.11,0.5-0.11c0.17,0,0.34,0.04,0.5,0.11c0.15,0.07,0.28,0.17,0.4,0.29
	c0.11,0.13,0.2,0.27,0.27,0.43c0.13,0.32,0.13,0.68,0,1c-0.06,0.16-0.16,0.3-0.27,0.43c-0.11,0.12-0.25,0.22-0.4,0.29
	C38.78,41.94,38.6,41.99,38.43,42z M37.43,40.67c0,0.15,0.03,0.29,0.08,0.43c0.05,0.13,0.13,0.25,0.22,0.35
	c0.09,0.1,0.2,0.18,0.32,0.24c0.12,0.06,0.25,0.09,0.39,0.09c0.14,0,0.28-0.03,0.4-0.09c0.12-0.06,0.23-0.14,0.32-0.24
	c0.09-0.11,0.17-0.23,0.22-0.36c0.11-0.28,0.11-0.59,0-0.87c-0.05-0.13-0.13-0.25-0.22-0.35c-0.09-0.1-0.2-0.18-0.32-0.24
	c-0.12-0.06-0.25-0.1-0.39-0.09c-0.14,0-0.28,0.03-0.4,0.09c-0.12,0.06-0.23,0.14-0.32,0.24C37.53,40.09,37.43,40.38,37.43,40.67z
	 M41.35,42c-0.56,0-0.83-0.38-0.83-1.15V39.4h0.25v1.46c0,0.64,0.22,1,0.65,1c0.11,0,0.22-0.02,0.32-0.06
	c0.1-0.05,0.18-0.12,0.26-0.2c0.09-0.07,0.17-0.15,0.24-0.25c0.07-0.1,0.12-0.21,0.16-0.32V39.4h0.25v2.24c0,0.08,0,0.13,0.1,0.13
	V42h-0.07c-0.07,0-0.13-0.03-0.18-0.07c-0.05-0.04-0.08-0.1-0.08-0.16v-0.39c-0.1,0.2-0.26,0.37-0.46,0.49
	C41.77,41.96,41.56,42.01,41.35,42z M45,39.62c-0.22,0.01-0.43,0.08-0.61,0.21c-0.18,0.13-0.31,0.32-0.37,0.54V42h-0.25v-2.6H44V40
	c0.08-0.17,0.21-0.32,0.36-0.44c0.13-0.11,0.3-0.18,0.47-0.2H45V39.62z M49.21,42H49v-1.46c0.02-0.25-0.03-0.51-0.15-0.73
	c-0.1-0.15-0.27-0.24-0.45-0.23c-0.11,0-0.22,0.02-0.32,0.06c-0.11,0.04-0.21,0.1-0.31,0.17c-0.09,0.07-0.17,0.16-0.24,0.26
	c-0.07,0.09-0.12,0.2-0.16,0.31V42h-0.25v-2.6h0.24V40c0.05-0.1,0.12-0.19,0.2-0.27c0.08-0.08,0.16-0.15,0.26-0.21
	c0.1-0.06,0.2-0.1,0.31-0.13c0.11-0.01,0.23-0.01,0.34,0c0.24-0.02,0.47,0.09,0.6,0.3c0.14,0.26,0.2,0.56,0.18,0.85L49.21,42z
	 M51.31,42c-0.18,0-0.35-0.04-0.51-0.11c-0.15-0.07-0.29-0.17-0.4-0.29c-0.12-0.12-0.21-0.27-0.27-0.43
	c-0.07-0.17-0.1-0.35-0.1-0.53c0-0.18,0.03-0.35,0.1-0.51c0.06-0.16,0.14-0.31,0.26-0.43c0.12-0.12,0.25-0.21,0.4-0.28
	c0.16-0.08,0.33-0.11,0.51-0.11c0.18,0,0.35,0.04,0.51,0.11c0.3,0.14,0.54,0.4,0.66,0.71c0.07,0.16,0.1,0.33,0.1,0.51v0.07l0,0
	h-2.28c0.01,0.14,0.04,0.29,0.1,0.42c0.06,0.12,0.13,0.23,0.23,0.33c0.09,0.09,0.2,0.17,0.32,0.22c0.12,0.05,0.25,0.08,0.38,0.08
	c0.09,0.01,0.18,0.01,0.27,0c0.08-0.02,0.16-0.06,0.24-0.1c0.08-0.04,0.14-0.1,0.2-0.16c0.06-0.06,0.1-0.13,0.13-0.2l0.22,0.06
	c-0.04,0.1-0.09,0.18-0.16,0.26c-0.07,0.08-0.16,0.15-0.25,0.2c-0.1,0.06-0.2,0.1-0.31,0.13C51.55,41.98,51.43,42,51.31,42z
	 M52.31,40.55c-0.01-0.14-0.04-0.29-0.1-0.42c-0.06-0.12-0.14-0.23-0.23-0.32c-0.09-0.1-0.19-0.17-0.31-0.22
	c-0.12-0.05-0.26-0.08-0.39-0.08c-0.13,0-0.26,0.03-0.38,0.08c-0.12,0.05-0.23,0.12-0.32,0.22c-0.09,0.1-0.17,0.21-0.22,0.33
	c-0.06,0.13-0.09,0.27-0.1,0.41L52.31,40.55z M54.47,42c-0.18,0-0.35-0.04-0.51-0.11c-0.15-0.07-0.29-0.17-0.41-0.29
	c-0.11-0.13-0.2-0.27-0.26-0.43c-0.07-0.17-0.1-0.35-0.1-0.53c0-0.18,0.03-0.35,0.1-0.51c0.06-0.16,0.14-0.31,0.26-0.43
	c0.12-0.12,0.25-0.21,0.4-0.28c0.16-0.08,0.33-0.11,0.51-0.11c0.17,0,0.34,0.04,0.5,0.11c0.15,0.07,0.29,0.17,0.41,0.29
	c0.11,0.12,0.2,0.26,0.26,0.42c0.07,0.16,0.1,0.33,0.1,0.51v0.07l0,0h-2.28c0.01,0.14,0.04,0.29,0.1,0.42
	c0.06,0.12,0.13,0.23,0.23,0.33c0.09,0.09,0.2,0.17,0.32,0.22c0.12,0.05,0.25,0.08,0.38,0.08c0.09,0.02,0.17,0.02,0.26,0
	c0.09-0.02,0.17-0.06,0.25-0.1c0.08-0.04,0.14-0.1,0.2-0.16c0.05-0.06,0.1-0.13,0.13-0.2l0.22,0.06c-0.04,0.1-0.09,0.18-0.16,0.26
	c-0.07,0.08-0.16,0.15-0.25,0.2c-0.1,0.06-0.2,0.1-0.31,0.13C54.71,41.98,54.59,42,54.47,42z M55.47,40.55
	c-0.01-0.14-0.05-0.29-0.1-0.42c-0.06-0.12-0.14-0.23-0.23-0.32c-0.09-0.1-0.2-0.17-0.32-0.22c-0.24-0.11-0.52-0.11-0.76,0
	c-0.12,0.05-0.23,0.12-0.32,0.22c-0.09,0.09-0.17,0.21-0.22,0.33c-0.06,0.13-0.09,0.27-0.1,0.41L55.47,40.55z M57.59,42
	c-0.17,0-0.34-0.04-0.5-0.11c-0.3-0.15-0.53-0.41-0.65-0.73c-0.06-0.16-0.09-0.33-0.09-0.5c0-0.18,0.03-0.35,0.09-0.52
	c0.06-0.16,0.14-0.3,0.25-0.43c0.1-0.12,0.23-0.22,0.37-0.29c0.25-0.12,0.54-0.14,0.8-0.06c0.1,0.03,0.19,0.08,0.28,0.13
	c0.08,0.06,0.16,0.12,0.23,0.19c0.07,0.08,0.13,0.16,0.18,0.24v-1.57h0.25v3.29c0,0.08,0,0.13,0.11,0.13V42h-0.09
	c-0.13-0.01-0.23-0.11-0.24-0.24v-0.29c-0.11,0.17-0.25,0.31-0.43,0.41C57.98,41.98,57.78,42.02,57.59,42z M57.59,41.78
	c0.1,0,0.2-0.02,0.29-0.06c0.1-0.04,0.19-0.09,0.28-0.15c0.09-0.06,0.16-0.14,0.23-0.22c0.06-0.08,0.1-0.17,0.11-0.27v-0.86
	c-0.09-0.19-0.22-0.36-0.39-0.48c-0.09-0.06-0.18-0.11-0.28-0.15c-0.09-0.04-0.19-0.05-0.29-0.05c-0.14,0-0.28,0.03-0.41,0.09
	c-0.12,0.07-0.22,0.15-0.31,0.26c-0.09,0.1-0.16,0.23-0.2,0.36c-0.05,0.13-0.07,0.27-0.07,0.41c0,0.15,0.03,0.29,0.08,0.43
	c0.05,0.13,0.13,0.25,0.22,0.35c0.1,0.1,0.21,0.18,0.33,0.25c0.14,0.08,0.3,0.12,0.46,0.13L57.59,41.78z M60.67,42
	c-0.2,0-0.39-0.03-0.58-0.1c-0.18-0.07-0.34-0.17-0.48-0.3l0.13-0.17c0.12,0.12,0.27,0.21,0.43,0.28c0.16,0.06,0.33,0.09,0.5,0.09
	c0.19,0.01,0.38-0.04,0.54-0.14c0.14-0.09,0.21-0.24,0.21-0.4c0-0.07-0.02-0.14-0.05-0.2c-0.04-0.06-0.1-0.11-0.16-0.14
	c-0.08-0.04-0.17-0.08-0.26-0.1l-0.36-0.1c-0.13-0.02-0.26-0.06-0.38-0.1c-0.1-0.02-0.19-0.06-0.27-0.12
	c-0.07-0.04-0.12-0.1-0.15-0.17c-0.04-0.08-0.06-0.16-0.06-0.25c0-0.12,0.03-0.23,0.08-0.34c0.05-0.1,0.12-0.18,0.21-0.24
	c0.09-0.06,0.19-0.11,0.3-0.14c0.12-0.02,0.25-0.02,0.37,0c0.18,0,0.37,0.03,0.54,0.1c0.14,0.06,0.26,0.15,0.36,0.26l-0.14,0.14
	c-0.09-0.1-0.21-0.18-0.34-0.23c-0.14-0.05-0.29-0.07-0.44-0.07H60.4c-0.08,0.02-0.15,0.05-0.22,0.09c-0.06,0.05-0.11,0.1-0.15,0.17
	c-0.04,0.07-0.06,0.16-0.06,0.24c-0.01,0.06-0.01,0.13,0,0.19c0.03,0.05,0.07,0.09,0.12,0.12l0.21,0.09l0.31,0.08l0.44,0.11
	c0.11,0.03,0.21,0.08,0.31,0.14c0.08,0.04,0.15,0.11,0.2,0.19c0.05,0.09,0.07,0.18,0.07,0.28c0.01,0.22-0.1,0.43-0.28,0.55
	C61.15,41.95,60.91,42.01,60.67,42z M62.59,42.39L62.66,42h-0.09v-0.43h0.26V42l-0.11,0.39H62.59z M67.84,40.53
	c0,0.2-0.03,0.41-0.09,0.6c-0.06,0.17-0.15,0.34-0.26,0.48c-0.11,0.13-0.25,0.24-0.4,0.32c-0.15,0.07-0.32,0.11-0.49,0.11
	c-0.17,0-0.34-0.04-0.5-0.11c-0.15-0.08-0.28-0.19-0.39-0.32c-0.12-0.14-0.21-0.3-0.26-0.48c-0.06-0.19-0.09-0.4-0.09-0.6
	c0-0.21,0.03-0.41,0.09-0.61c0.06-0.17,0.15-0.34,0.26-0.48c0.11-0.13,0.24-0.24,0.39-0.31c0.15-0.08,0.33-0.12,0.5-0.12
	c0.17,0,0.34,0.04,0.49,0.12c0.15,0.07,0.29,0.18,0.4,0.31c0.11,0.15,0.2,0.31,0.26,0.48C67.81,40.12,67.84,40.33,67.84,40.53z
	 M67.58,40.53c0-0.18-0.02-0.35-0.07-0.52c-0.04-0.15-0.11-0.29-0.2-0.41c-0.08-0.11-0.19-0.2-0.31-0.26
	c-0.12-0.06-0.26-0.09-0.4-0.09c-0.14,0-0.28,0.03-0.41,0.09c-0.12,0.06-0.23,0.15-0.31,0.26c-0.09,0.12-0.16,0.26-0.2,0.41
	c-0.05,0.17-0.07,0.34-0.07,0.52c0,0.18,0.02,0.35,0.07,0.52c0.05,0.14,0.11,0.28,0.2,0.4c0.17,0.23,0.44,0.36,0.72,0.36
	c0.14,0,0.28-0.04,0.4-0.1c0.12-0.06,0.23-0.15,0.31-0.26c0.09-0.12,0.16-0.26,0.2-0.4C67.56,40.88,67.58,40.71,67.58,40.53z
	 M68.71,42v-0.42h0.22V42H68.71z M72.27,40.53c0,0.2-0.03,0.41-0.09,0.6c-0.05,0.18-0.14,0.34-0.26,0.48
	c-0.11,0.13-0.25,0.24-0.4,0.32C71.35,42,71.18,42.02,71,42c-0.17,0-0.34-0.04-0.5-0.11c-0.15-0.08-0.28-0.19-0.39-0.32
	c-0.12-0.14-0.21-0.3-0.26-0.48c-0.06-0.19-0.09-0.4-0.09-0.6c0-0.21,0.03-0.41,0.09-0.61c0.06-0.17,0.15-0.34,0.26-0.48
	c0.11-0.13,0.24-0.24,0.39-0.31c0.16-0.07,0.33-0.1,0.5-0.09c0.17,0,0.34,0.04,0.49,0.12c0.15,0.07,0.29,0.18,0.4,0.31
	c0.11,0.14,0.2,0.31,0.26,0.48C72.22,40.11,72.26,40.32,72.27,40.53z M72.01,40.53c0-0.18-0.02-0.35-0.07-0.52
	c-0.04-0.15-0.11-0.29-0.2-0.41c-0.08-0.11-0.19-0.2-0.31-0.26c-0.12-0.06-0.26-0.09-0.4-0.09c-0.14,0-0.28,0.03-0.4,0.09
	c-0.13,0.06-0.23,0.15-0.32,0.26c-0.09,0.12-0.16,0.26-0.2,0.41c-0.05,0.17-0.07,0.34-0.07,0.52c0,0.18,0.02,0.35,0.07,0.52
	c0.05,0.14,0.11,0.28,0.2,0.4c0.09,0.11,0.19,0.2,0.32,0.26c0.12,0.06,0.26,0.1,0.4,0.1c0.14,0,0.28-0.04,0.4-0.1
	c0.12-0.06,0.23-0.15,0.31-0.26c0.09-0.12,0.16-0.26,0.2-0.4C71.99,40.88,72.01,40.71,72.01,40.53L72.01,40.53z M73,42
	c0-0.09,0-0.2,0-0.31c0.02-0.12,0.06-0.24,0.12-0.35c0.06-0.13,0.15-0.25,0.25-0.35c0.13-0.12,0.28-0.23,0.45-0.3l0.3-0.14
	c0.1-0.04,0.2-0.1,0.29-0.16c0.08-0.06,0.16-0.13,0.22-0.21c0.08-0.15,0.08-0.34,0-0.49c-0.03-0.07-0.07-0.13-0.13-0.18
	c-0.07-0.05-0.14-0.1-0.22-0.13c-0.11-0.02-0.21-0.02-0.32,0c-0.1-0.02-0.21-0.02-0.31,0c-0.09,0.03-0.17,0.07-0.24,0.12
	c-0.06,0.04-0.12,0.09-0.17,0.14l-0.1,0.11l-0.17-0.18l0.1-0.09c0.06-0.06,0.13-0.12,0.21-0.16c0.09-0.07,0.2-0.12,0.31-0.15
	c0.13-0.05,0.27-0.07,0.41-0.07c0.14,0,0.27,0.02,0.4,0.06c0.11,0.04,0.21,0.09,0.3,0.17c0.08,0.07,0.14,0.15,0.18,0.25
	c0.04,0.1,0.06,0.2,0.06,0.3c0.01,0.12-0.03,0.25-0.1,0.35c-0.06,0.1-0.14,0.2-0.24,0.27l-0.3,0.18l-0.27,0.13
	c-0.22,0.09-0.43,0.22-0.6,0.39c-0.14,0.16-0.22,0.36-0.22,0.57h1.89V42H73z M77.33,40.68c0-0.18,0.03-0.35,0.09-0.52
	c0.06-0.16,0.15-0.3,0.27-0.42c0.11-0.12,0.25-0.21,0.4-0.28c0.16-0.08,0.34-0.12,0.52-0.11c0.22-0.01,0.43,0.05,0.62,0.16
	c0.17,0.1,0.31,0.26,0.4,0.44l-0.24,0.08c-0.08-0.14-0.19-0.25-0.33-0.33c-0.14-0.08-0.3-0.12-0.46-0.12
	c-0.14-0.01-0.27,0.02-0.4,0.08c-0.25,0.11-0.45,0.33-0.54,0.59c-0.05,0.14-0.08,0.28-0.08,0.43c0,0.15,0.03,0.3,0.08,0.44
	c0.05,0.13,0.13,0.25,0.22,0.36c0.09,0.1,0.2,0.19,0.32,0.25c0.12,0.06,0.26,0.09,0.4,0.09c0.09,0.01,0.18,0.01,0.27,0
	c0.08-0.03,0.16-0.07,0.24-0.11c0.07-0.04,0.14-0.09,0.2-0.15c0.05-0.05,0.08-0.11,0.11-0.18l0.24,0.07
	c-0.03,0.09-0.08,0.18-0.15,0.25c-0.07,0.08-0.15,0.14-0.24,0.2c-0.09,0.05-0.18,0.08-0.27,0.1c-0.12,0.02-0.23,0.02-0.35,0
	c-0.18,0-0.35-0.04-0.51-0.11c-0.15-0.07-0.29-0.17-0.4-0.29c-0.12-0.12-0.21-0.27-0.27-0.43C77.39,41.02,77.35,40.85,77.33,40.68z
	 M81.54,42c-0.18,0-0.35-0.04-0.51-0.11c-0.15-0.07-0.28-0.17-0.4-0.29c-0.12-0.12-0.2-0.27-0.26-0.43c-0.07-0.16-0.1-0.33-0.1-0.51
	c0-0.18,0.04-0.35,0.1-0.52c0.06-0.16,0.15-0.3,0.27-0.43c0.35-0.39,0.92-0.51,1.4-0.29c0.15,0.07,0.29,0.17,0.4,0.29
	c0.12,0.12,0.21,0.27,0.27,0.43c0.07,0.16,0.1,0.34,0.1,0.52c0,0.18-0.03,0.35-0.1,0.51c-0.06,0.16-0.15,0.31-0.27,0.43
	C82.21,41.86,81.88,42,81.54,42z M80.54,40.67c0,0.15,0.03,0.29,0.08,0.43c0.06,0.13,0.13,0.25,0.22,0.35
	c0.09,0.1,0.2,0.18,0.32,0.24c0.12,0.06,0.26,0.09,0.4,0.09c0.14,0,0.27-0.03,0.39-0.09c0.12-0.06,0.23-0.14,0.32-0.24
	c0.1-0.11,0.17-0.23,0.22-0.36c0.06-0.14,0.08-0.29,0.08-0.44c0-0.15-0.02-0.29-0.08-0.43c-0.05-0.13-0.12-0.25-0.22-0.35
	c-0.09-0.1-0.2-0.18-0.32-0.24c-0.25-0.12-0.53-0.12-0.78,0c-0.13,0.06-0.24,0.14-0.33,0.24c-0.09,0.11-0.16,0.23-0.21,0.36
	c-0.07,0.15-0.11,0.31-0.11,0.48L80.54,40.67z M87.47,42h-0.25v-1.46c0.02-0.25-0.03-0.5-0.15-0.73c-0.11-0.15-0.28-0.24-0.47-0.23
	c-0.1,0-0.21,0.02-0.3,0.06c-0.1,0.04-0.19,0.1-0.27,0.17c-0.08,0.07-0.15,0.16-0.21,0.25c-0.06,0.1-0.1,0.22-0.13,0.33V42h-0.25
	v-1.46c0.02-0.25-0.03-0.5-0.15-0.73c-0.11-0.15-0.28-0.24-0.47-0.23c-0.1,0-0.2,0.02-0.3,0.06c-0.09,0.04-0.18,0.09-0.26,0.16
	c-0.08,0.08-0.15,0.16-0.21,0.26c-0.07,0.1-0.11,0.21-0.14,0.32V42h-0.25v-2.6h0.23V40c0.1-0.19,0.24-0.36,0.42-0.48
	c0.17-0.12,0.37-0.18,0.57-0.18c0.2,0,0.39,0.06,0.54,0.19c0.14,0.14,0.22,0.32,0.24,0.51c0.17-0.41,0.56-0.68,1-0.7
	c0.24-0.02,0.48,0.09,0.61,0.3c0.13,0.26,0.2,0.56,0.18,0.85L87.47,42z M89.57,42c-0.17,0-0.34-0.04-0.5-0.11
	c-0.16-0.07-0.29-0.17-0.41-0.29c-0.12-0.12-0.21-0.27-0.27-0.43c-0.07-0.17-0.1-0.35-0.1-0.53c0-0.18,0.03-0.35,0.1-0.51
	c0.06-0.16,0.15-0.31,0.27-0.43c0.11-0.12,0.25-0.22,0.4-0.28c0.15-0.08,0.33-0.12,0.5-0.11c0.18,0,0.35,0.04,0.51,0.11
	c0.15,0.07,0.29,0.17,0.4,0.29c0.12,0.12,0.21,0.26,0.27,0.42c0.06,0.16,0.09,0.34,0.09,0.51v0.11h-2.28
	c0.01,0.15,0.05,0.29,0.11,0.42c0.05,0.12,0.13,0.23,0.22,0.33c0.09,0.09,0.2,0.17,0.32,0.22c0.12,0.05,0.25,0.08,0.38,0.08
	c0.09,0.01,0.18,0.01,0.27,0c0.08-0.02,0.17-0.05,0.24-0.1c0.08-0.04,0.15-0.09,0.2-0.16c0.06-0.06,0.1-0.13,0.14-0.2l0.22,0.06
	c-0.04,0.09-0.09,0.18-0.16,0.26c-0.08,0.08-0.16,0.14-0.25,0.2c-0.1,0.06-0.21,0.1-0.32,0.13C89.8,42.01,89.69,42.01,89.57,42z
	 M90.57,40.55c-0.01-0.14-0.04-0.29-0.1-0.42c-0.06-0.12-0.13-0.23-0.22-0.32c-0.09-0.09-0.2-0.17-0.32-0.22
	c-0.12-0.05-0.26-0.08-0.39-0.08c-0.13,0-0.26,0.03-0.38,0.08c-0.12,0.05-0.23,0.13-0.32,0.22c-0.09,0.1-0.17,0.21-0.22,0.33
	c-0.05,0.13-0.08,0.27-0.09,0.41L90.57,40.55z M92.45,42c-0.19,0-0.39-0.03-0.57-0.1c-0.18-0.07-0.34-0.17-0.48-0.3l0.13-0.17
	c0.12,0.12,0.27,0.21,0.43,0.28c0.16,0.06,0.32,0.09,0.49,0.09c0.19,0.02,0.38-0.02,0.55-0.1c0.14-0.09,0.21-0.24,0.21-0.4
	c0-0.07-0.02-0.14-0.06-0.2c-0.04-0.05-0.09-0.08-0.15-0.1c-0.08-0.04-0.17-0.08-0.26-0.1l-0.36-0.1c-0.13-0.02-0.26-0.06-0.38-0.1
	c-0.1-0.02-0.19-0.06-0.27-0.12c-0.07-0.04-0.12-0.1-0.16-0.17c-0.02-0.08-0.02-0.17,0-0.25c-0.01-0.12,0.02-0.24,0.08-0.34
	c0.04-0.1,0.11-0.18,0.2-0.24c0.09-0.06,0.2-0.11,0.31-0.14c0.12-0.02,0.24-0.02,0.36,0c0.19-0.01,0.37,0.03,0.54,0.1
	c0.14,0.06,0.27,0.15,0.37,0.26l-0.14,0.14c-0.09-0.1-0.21-0.18-0.34-0.23c-0.14-0.04-0.29-0.07-0.44-0.07
	c-0.09-0.01-0.18-0.01-0.27,0c-0.08,0.02-0.16,0.05-0.23,0.09c-0.06,0.05-0.11,0.1-0.15,0.17c-0.02,0.08-0.02,0.16,0,0.24
	c-0.02,0.06-0.02,0.13,0,0.19c0.02,0.05,0.07,0.1,0.12,0.12l0.21,0.09l0.31,0.08l0.43,0.11c0.11,0.03,0.22,0.08,0.32,0.14
	c0.08,0.04,0.15,0.11,0.19,0.19c0.05,0.08,0.08,0.18,0.07,0.28c0.01,0.22-0.1,0.42-0.27,0.55C93,42.02,92.72,42.06,92.45,42z
	 M0.39,48.81v-0.46h0.25v0.46H0.39z M0.39,52v-2.6h0.25V52H0.39z M3.79,52H3.54v-1.46c0.02-0.25-0.03-0.5-0.14-0.73
	c-0.09-0.14-0.24-0.22-0.4-0.23c-0.11,0-0.22,0.02-0.33,0.06c-0.11,0.04-0.21,0.1-0.3,0.17c-0.09,0.07-0.17,0.16-0.24,0.26
	c-0.07,0.09-0.13,0.2-0.16,0.31V52h-0.3v-2.6h0.24V50c0.05-0.1,0.11-0.19,0.19-0.27c0.08-0.08,0.17-0.15,0.27-0.21
	c0.1-0.06,0.2-0.1,0.31-0.13c0.11-0.02,0.23-0.02,0.34,0c0.24-0.02,0.47,0.09,0.6,0.3c0.13,0.26,0.19,0.56,0.17,0.85V52z
	 M7.48,51.87H7.42L7.3,52H7.14h-0.2c-0.07,0.01-0.13,0.01-0.2,0c-0.06-0.02-0.11-0.05-0.16-0.09c-0.04-0.04-0.08-0.09-0.11-0.14
	c-0.01-0.07-0.01-0.13,0-0.2v-2h-0.4v-0.2h0.36v-0.89h0.25v0.89h0.61v0.2H6.68v1.9c-0.01,0.08,0.03,0.16,0.1,0.21
	c0.07,0.05,0.15,0.08,0.23,0.08c0.09,0,0.18-0.02,0.26-0.06l0.14-0.06L7.48,51.87z M11.46,49.4h0.25L10.59,52h-0.21l-0.59-1.37
	L9.21,52H9l-1.12-2.6h0.24l1,2.32l0.54-1.28l-0.44-1h0.22l0.35,0.86l0.36-0.86h0.22l-0.44,1l0.54,1.28L11.46,49.4z M13.44,52
	c-0.18,0-0.35-0.04-0.51-0.11c-0.15-0.07-0.29-0.17-0.4-0.29c-0.12-0.12-0.2-0.27-0.26-0.43c-0.07-0.16-0.1-0.33-0.1-0.51
	c0-0.18,0.03-0.36,0.1-0.52c0.11-0.32,0.36-0.58,0.67-0.72c0.16-0.07,0.33-0.11,0.5-0.11c0.17,0,0.34,0.04,0.5,0.11
	c0.15,0.07,0.28,0.17,0.4,0.29c0.11,0.13,0.2,0.27,0.27,0.43c0.13,0.32,0.13,0.68,0,1c-0.06,0.16-0.16,0.3-0.27,0.43
	c-0.11,0.12-0.25,0.22-0.4,0.29C13.79,51.94,13.61,51.99,13.44,52z M12.44,50.67c0,0.15,0.03,0.29,0.08,0.43
	c0.05,0.13,0.13,0.25,0.22,0.35c0.09,0.1,0.2,0.18,0.32,0.24c0.12,0.06,0.25,0.09,0.39,0.09c0.14,0,0.28-0.03,0.4-0.09
	c0.12-0.06,0.23-0.14,0.32-0.24c0.09-0.11,0.17-0.23,0.22-0.36c0.11-0.28,0.11-0.59,0-0.87c-0.05-0.13-0.13-0.25-0.22-0.35
	c-0.09-0.1-0.2-0.18-0.32-0.24c-0.12-0.06-0.25-0.1-0.39-0.09c-0.14,0-0.28,0.03-0.4,0.09c-0.12,0.06-0.23,0.14-0.32,0.24
	C12.54,50.09,12.44,50.38,12.44,50.67z M17.91,52c-0.2,0-0.39-0.03-0.58-0.1c-0.18-0.07-0.34-0.17-0.47-0.3l0.12-0.17
	c0.13,0.12,0.28,0.21,0.44,0.28c0.16,0.06,0.32,0.09,0.49,0.09c0.19,0.01,0.38-0.04,0.55-0.14c0.13-0.09,0.2-0.24,0.2-0.4
	c0.01-0.07-0.01-0.14-0.05-0.2c-0.04-0.06-0.09-0.11-0.16-0.14c-0.08-0.04-0.17-0.08-0.26-0.1l-0.36-0.1
	c-0.13-0.02-0.26-0.06-0.38-0.1c-0.09-0.02-0.18-0.06-0.26-0.12c-0.07-0.04-0.13-0.1-0.16-0.17c-0.04-0.08-0.06-0.16-0.05-0.25
	c0-0.12,0.02-0.23,0.07-0.34c0.05-0.1,0.12-0.18,0.21-0.24c0.09-0.06,0.19-0.11,0.3-0.14c0.12-0.02,0.25-0.02,0.37,0
	c0.18,0,0.37,0.03,0.54,0.1c0.14,0.06,0.26,0.15,0.36,0.26l-0.14,0.14c-0.09-0.1-0.2-0.18-0.33-0.23c-0.15-0.04-0.3-0.07-0.45-0.07
	h-0.27c-0.08,0.02-0.15,0.05-0.22,0.09c-0.06,0.05-0.11,0.1-0.15,0.17c-0.04,0.07-0.05,0.16-0.05,0.24c-0.01,0.06-0.01,0.13,0,0.19
	c0.03,0.05,0.07,0.09,0.12,0.12l0.21,0.09l0.31,0.08l0.44,0.11c0.11,0.03,0.22,0.08,0.32,0.14c0.08,0.05,0.14,0.11,0.19,0.19
	c0.05,0.09,0.07,0.18,0.07,0.28c0.01,0.22-0.1,0.43-0.28,0.55C18.4,51.95,18.15,52.01,17.91,52z M19.73,48.81v-0.46H20v0.46H19.73z
	 M19.73,51.99V49.4H20V52L19.73,51.99z M20.79,51.81l1.83-2.22h-1.8V49.4h2.08v0.18l-1.83,2.21h1.82V52h-2.1L20.79,51.81z M24.75,52
	c-0.18,0-0.35-0.04-0.51-0.11c-0.16-0.07-0.29-0.17-0.41-0.29c-0.12-0.12-0.21-0.27-0.27-0.43c-0.06-0.17-0.1-0.35-0.1-0.53
	c0-0.17,0.04-0.35,0.1-0.51c0.06-0.16,0.15-0.31,0.27-0.43c0.11-0.12,0.25-0.22,0.4-0.28c0.15-0.08,0.33-0.12,0.5-0.11
	c0.18,0,0.35,0.04,0.51,0.11c0.15,0.07,0.29,0.17,0.4,0.29c0.12,0.12,0.21,0.26,0.27,0.42C25.97,50.3,26,50.47,26,50.64v0.11h-2.28
	c0.01,0.15,0.05,0.29,0.11,0.42c0.05,0.12,0.13,0.23,0.22,0.33c0.09,0.09,0.2,0.17,0.32,0.22c0.12,0.05,0.25,0.08,0.38,0.08
	c0.09,0.01,0.18,0.01,0.27,0c0.08-0.02,0.17-0.05,0.24-0.1c0.08-0.04,0.15-0.09,0.2-0.16c0.06-0.06,0.1-0.13,0.14-0.2l0.22,0.06
	c-0.04,0.09-0.09,0.18-0.16,0.26c-0.08,0.08-0.16,0.14-0.25,0.2c-0.1,0.06-0.21,0.1-0.32,0.13C24.98,52.01,24.86,52.01,24.75,52z
	 M25.75,50.55c-0.01-0.14-0.04-0.29-0.1-0.42c-0.06-0.12-0.13-0.23-0.22-0.32c-0.09-0.09-0.2-0.17-0.32-0.22
	c-0.12-0.05-0.26-0.08-0.39-0.08c-0.13,0-0.26,0.03-0.38,0.08c-0.12,0.05-0.23,0.13-0.32,0.22c-0.09,0.1-0.17,0.21-0.22,0.33
	c-0.05,0.13-0.08,0.27-0.09,0.41L25.75,50.55z M27.62,52c-0.19,0-0.39-0.03-0.57-0.1c-0.18-0.07-0.34-0.17-0.48-0.3l0.13-0.17
	c0.12,0.12,0.27,0.21,0.43,0.28c0.16,0.06,0.32,0.09,0.49,0.09c0.19,0.01,0.38-0.04,0.55-0.14c0.14-0.09,0.21-0.24,0.21-0.4
	c0-0.07-0.02-0.14-0.05-0.2c-0.04-0.06-0.1-0.11-0.16-0.14c-0.08-0.04-0.17-0.08-0.26-0.1l-0.36-0.1c-0.13-0.02-0.26-0.06-0.38-0.1
	c-0.1-0.02-0.19-0.06-0.27-0.12c-0.07-0.04-0.12-0.1-0.16-0.17c-0.02-0.08-0.02-0.17,0-0.25c0-0.12,0.03-0.23,0.08-0.34
	c0.04-0.1,0.11-0.18,0.2-0.24c0.09-0.06,0.2-0.11,0.31-0.14c0.12-0.02,0.24-0.02,0.36,0c0.19-0.01,0.37,0.03,0.54,0.1
	c0.14,0.06,0.27,0.15,0.37,0.26l-0.14,0.14c-0.09-0.1-0.21-0.18-0.34-0.23c-0.14-0.04-0.29-0.07-0.44-0.07
	c-0.09-0.01-0.18-0.01-0.27,0c-0.08,0.02-0.15,0.05-0.22,0.09c-0.07,0.04-0.12,0.1-0.15,0.17c-0.04,0.07-0.06,0.16-0.06,0.24
	c-0.02,0.06-0.02,0.13,0,0.19c0.02,0.05,0.07,0.1,0.12,0.12l0.21,0.09l0.31,0.08l0.43,0.11c0.11,0.03,0.22,0.08,0.32,0.14
	c0.08,0.04,0.15,0.11,0.19,0.19c0.05,0.08,0.08,0.18,0.07,0.28c0.01,0.22-0.1,0.42-0.27,0.55C28.14,51.96,27.88,52.02,27.62,52z
	 M29.4,49.83v-0.42h0.21v0.42H29.4z M29.4,51.99v-0.42h0.21V52L29.4,51.99z M32.19,52v-3.55h1.47c0.14,0,0.29,0.03,0.42,0.09
	c0.12,0.07,0.23,0.15,0.32,0.25c0.09,0.11,0.17,0.23,0.22,0.36c0.05,0.12,0.07,0.26,0.07,0.39c0,0.13-0.02,0.26-0.06,0.38
	c-0.04,0.12-0.09,0.23-0.16,0.33c-0.08,0.09-0.17,0.17-0.27,0.24c-0.11,0.06-0.22,0.1-0.34,0.12L34.74,52h-0.29l-0.86-1.34h-1.15V52
	H32.19z M32.44,50.43h1.25c0.11,0,0.21-0.03,0.31-0.08c0.09-0.05,0.17-0.11,0.24-0.19c0.06-0.09,0.11-0.18,0.15-0.28
	c0.01-0.11,0.01-0.22,0-0.33c0-0.11-0.02-0.22-0.06-0.32c-0.04-0.1-0.1-0.2-0.17-0.28c-0.07-0.08-0.16-0.14-0.25-0.19
	c-0.1-0.05-0.2-0.07-0.31-0.07h-1.16V50.43z M36.63,52c-0.18,0-0.35-0.04-0.51-0.11c-0.31-0.14-0.56-0.4-0.67-0.72
	c-0.07-0.17-0.1-0.35-0.1-0.53c0-0.18,0.03-0.35,0.1-0.51c0.06-0.16,0.14-0.31,0.26-0.43c0.12-0.12,0.25-0.21,0.4-0.28
	c0.16-0.08,0.33-0.11,0.51-0.11c0.17,0,0.34,0.04,0.5,0.11c0.16,0.07,0.29,0.17,0.41,0.29c0.11,0.12,0.2,0.26,0.26,0.42
	c0.07,0.16,0.1,0.33,0.1,0.51v0.07l0,0h-2.28c0.01,0.14,0.04,0.29,0.1,0.42c0.06,0.12,0.13,0.23,0.23,0.33
	c0.09,0.09,0.2,0.17,0.32,0.22c0.12,0.05,0.25,0.08,0.38,0.08c0.09,0.01,0.18,0.01,0.27,0c0.08-0.02,0.16-0.06,0.24-0.1
	c0.08-0.04,0.14-0.1,0.2-0.16c0.05-0.06,0.1-0.13,0.13-0.2l0.22,0.06c-0.04,0.1-0.09,0.18-0.16,0.26c-0.07,0.08-0.16,0.15-0.25,0.2
	C37.2,51.9,37.11,51.96,37,52C36.88,52.02,36.75,52.02,36.63,52z M37.63,50.55c-0.01-0.14-0.05-0.29-0.1-0.42
	c-0.06-0.12-0.14-0.23-0.23-0.32c-0.09-0.1-0.2-0.17-0.32-0.22c-0.12-0.05-0.25-0.08-0.38-0.08c-0.13,0-0.26,0.03-0.38,0.08
	c-0.12,0.05-0.23,0.12-0.32,0.22c-0.09,0.09-0.17,0.21-0.22,0.33c-0.06,0.13-0.09,0.27-0.1,0.41L37.63,50.55z M39.73,52
	c-0.17,0-0.34-0.04-0.49-0.11c-0.15-0.08-0.28-0.18-0.39-0.3c-0.1-0.13-0.19-0.27-0.25-0.43c-0.06-0.16-0.09-0.32-0.09-0.49
	c0-0.17,0.03-0.35,0.08-0.51c0.06-0.16,0.14-0.3,0.25-0.43c0.1-0.13,0.23-0.23,0.38-0.3c0.15-0.07,0.32-0.11,0.49-0.11
	c0.21-0.01,0.42,0.06,0.6,0.18c0.16,0.12,0.31,0.26,0.42,0.43V49.4H41V52c0,0.16-0.03,0.32-0.1,0.46c-0.06,0.13-0.15,0.25-0.26,0.34
	c-0.12,0.08-0.25,0.15-0.39,0.2c-0.15,0.04-0.31,0.06-0.47,0.06c-0.13,0.02-0.27,0.02-0.4,0c-0.11-0.03-0.22-0.07-0.32-0.12
	c-0.09-0.05-0.18-0.12-0.25-0.19c-0.07-0.07-0.13-0.16-0.18-0.25l0.17-0.11c0.1,0.17,0.24,0.31,0.42,0.39
	c0.18,0.08,0.37,0.12,0.56,0.12c0.13,0,0.26-0.02,0.38-0.06c0.11-0.03,0.22-0.09,0.31-0.16c0.08-0.08,0.16-0.17,0.21-0.27
	c0.05-0.12,0.07-0.24,0.07-0.37v-0.57c-0.1,0.17-0.25,0.31-0.42,0.41C40.15,51.98,39.94,52.02,39.73,52z M39.79,51.79
	c0.22-0.01,0.44-0.09,0.61-0.23c0.08-0.06,0.15-0.13,0.21-0.22c0.05-0.07,0.09-0.16,0.1-0.25v-0.86c-0.08-0.19-0.21-0.36-0.38-0.49
	c-0.09-0.06-0.18-0.11-0.28-0.14c-0.1-0.04-0.2-0.05-0.3-0.05c-0.14,0-0.28,0.03-0.41,0.09c-0.25,0.13-0.44,0.36-0.51,0.63
	c-0.05,0.13-0.07,0.26-0.07,0.4c0,0.15,0.03,0.29,0.08,0.43c0.05,0.13,0.13,0.25,0.22,0.35c0.09,0.11,0.2,0.19,0.33,0.25
	c0.12,0.07,0.26,0.11,0.4,0.12V51.79z M42.79,52c-0.55,0-0.83-0.38-0.83-1.15V49.4h0.25v1.46c0,0.67,0.22,1,0.66,1
	c0.11,0,0.22-0.02,0.32-0.06c0.1-0.04,0.2-0.09,0.29-0.16c0.09-0.07,0.17-0.15,0.23-0.25c0.07-0.1,0.13-0.21,0.17-0.32V49.4h0.25
	v2.24c0,0.08,0,0.13,0.1,0.13V52h-0.07c-0.07,0-0.13-0.03-0.18-0.07c-0.05-0.04-0.08-0.1-0.08-0.16v-0.39
	c-0.11,0.2-0.27,0.37-0.47,0.49C43.23,51.97,43.01,52.01,42.79,52z M45.19,48.35h0.25v3.13c0,0.09,0.03,0.17,0.09,0.23
	c0.06,0.05,0.14,0.08,0.22,0.08h0.13h0.15v0.2l-0.21,0.06H45.6c-0.12,0.01-0.24-0.04-0.33-0.13c-0.09-0.09-0.14-0.21-0.13-0.34
	L45.19,48.35z M47.35,52c-0.22,0-0.44-0.08-0.61-0.23c-0.08-0.07-0.14-0.16-0.18-0.26c-0.04-0.1-0.06-0.2-0.06-0.31
	c-0.01-0.11,0.02-0.22,0.08-0.31c0.05-0.1,0.12-0.18,0.22-0.24c0.1-0.08,0.22-0.13,0.34-0.16c0.14-0.04,0.29-0.06,0.44-0.06
	c0.14-0.01,0.28-0.01,0.42,0c0.13,0.02,0.26,0.05,0.38,0.1v-0.26c0.01-0.21-0.06-0.42-0.21-0.58c-0.15-0.15-0.36-0.23-0.57-0.22
	c-0.14,0-0.27,0.03-0.4,0.08c-0.15,0.06-0.3,0.14-0.43,0.23l-0.09-0.17c0.27-0.21,0.6-0.33,0.94-0.34c0.27-0.02,0.54,0.08,0.74,0.27
	c0.19,0.2,0.29,0.47,0.27,0.75v1.27c0,0.08,0,0.13,0.11,0.13V52h-0.1c-0.06,0-0.12-0.02-0.16-0.07c-0.04-0.04-0.06-0.1-0.07-0.16
	v-0.21c-0.12,0.15-0.28,0.28-0.46,0.36C47.76,51.99,47.55,52.02,47.35,52z M47.35,51.8c0.18,0,0.36-0.04,0.53-0.11
	c0.15-0.06,0.28-0.16,0.37-0.29c0.05-0.05,0.08-0.13,0.08-0.2v-0.46c-0.12-0.04-0.24-0.08-0.37-0.1c-0.14-0.02-0.27-0.02-0.41,0
	c-0.12-0.02-0.23-0.02-0.35,0c-0.1,0.02-0.19,0.05-0.27,0.11c-0.07,0.04-0.14,0.11-0.18,0.18c-0.04,0.07-0.06,0.16-0.06,0.24
	c-0.02,0.08-0.02,0.17,0,0.25c0.03,0.07,0.08,0.14,0.14,0.19c0.06,0.06,0.13,0.1,0.21,0.13c0.11,0.06,0.23,0.1,0.36,0.1L47.35,51.8z
	 M50.87,49.62c-0.22,0-0.44,0.07-0.61,0.21c-0.18,0.13-0.31,0.32-0.37,0.54V52h-0.25v-2.6h0.24V50c0.08-0.17,0.21-0.32,0.36-0.44
	c0.13-0.11,0.3-0.18,0.47-0.2h0.16L50.87,49.62z M53.64,52c-0.11,0-0.22-0.02-0.33-0.06c-0.1-0.04-0.19-0.09-0.27-0.17
	c-0.08-0.07-0.14-0.16-0.19-0.26c-0.04-0.1-0.06-0.2-0.06-0.31c-0.01-0.11,0.02-0.22,0.08-0.31c0.05-0.1,0.13-0.18,0.22-0.24
	c0.1-0.08,0.22-0.13,0.34-0.16c0.14-0.04,0.29-0.06,0.44-0.06c0.14-0.01,0.28-0.01,0.42,0c0.13,0.02,0.26,0.05,0.38,0.1v-0.26
	c0.01-0.21-0.06-0.42-0.21-0.58c-0.15-0.15-0.35-0.23-0.56-0.22c-0.14,0-0.28,0.03-0.41,0.08c-0.15,0.06-0.3,0.14-0.43,0.23
	L53,49.69c0.29-0.22,0.64-0.34,1-0.34c0.27-0.01,0.53,0.09,0.73,0.27c0.19,0.2,0.29,0.47,0.27,0.75v1.27c0,0.08,0,0.13,0.11,0.13V52
	h-0.1c-0.06,0-0.12-0.02-0.16-0.07c-0.04-0.04-0.06-0.1-0.07-0.16v-0.21c-0.12,0.15-0.28,0.27-0.45,0.36
	C54.11,52,53.87,52.03,53.64,52z M53.64,51.8c0.18,0,0.36-0.04,0.53-0.11c0.15-0.06,0.28-0.16,0.37-0.29
	c0.05-0.05,0.08-0.13,0.08-0.2v-0.46c-0.12-0.04-0.24-0.08-0.37-0.1c-0.13-0.02-0.27-0.02-0.4,0c-0.12-0.02-0.24-0.02-0.36,0
	c-0.1,0.02-0.19,0.06-0.27,0.11c-0.07,0.04-0.14,0.11-0.18,0.18c-0.04,0.07-0.06,0.16-0.06,0.24c-0.02,0.08-0.02,0.17,0,0.25
	c0.03,0.07,0.08,0.14,0.14,0.19c0.06,0.06,0.13,0.1,0.21,0.13c0.11,0.06,0.23,0.1,0.36,0.1L53.64,51.8z M58.05,52H57.8v-1.46
	c0.02-0.25-0.03-0.5-0.14-0.73c-0.1-0.15-0.27-0.24-0.45-0.23c-0.11,0-0.22,0.02-0.33,0.06c-0.11,0.04-0.21,0.1-0.3,0.17
	c-0.09,0.07-0.17,0.16-0.24,0.26c-0.07,0.09-0.13,0.2-0.16,0.31V52h-0.25v-2.6h0.24V50c0.05-0.1,0.12-0.19,0.19-0.27
	c0.08-0.08,0.17-0.15,0.27-0.21c0.1-0.06,0.2-0.1,0.31-0.13c0.11-0.02,0.23-0.02,0.34,0c0.24-0.02,0.47,0.09,0.6,0.3
	c0.13,0.26,0.19,0.56,0.17,0.85L58.05,52z M60.12,52c-0.17,0-0.34-0.04-0.5-0.11c-0.28-0.15-0.5-0.39-0.62-0.69
	c-0.06-0.16-0.09-0.33-0.09-0.5c0-0.18,0.03-0.35,0.09-0.52c0.06-0.15,0.14-0.3,0.24-0.43c0.11-0.12,0.24-0.22,0.38-0.29
	c0.25-0.12,0.54-0.14,0.8-0.06c0.1,0.03,0.19,0.08,0.28,0.13c0.08,0.06,0.16,0.12,0.23,0.19c0.07,0.08,0.13,0.16,0.18,0.24v-1.61
	h0.25v3.29c0,0.08,0,0.13,0.11,0.13V52h-0.09c-0.13-0.01-0.23-0.11-0.24-0.24v-0.29c-0.11,0.17-0.25,0.31-0.43,0.41
	C60.53,51.98,60.32,52.02,60.12,52z M60.17,51.78c0.1,0,0.2-0.02,0.29-0.06c0.1-0.04,0.19-0.09,0.28-0.15
	c0.09-0.06,0.16-0.14,0.23-0.22c0.06-0.08,0.1-0.17,0.11-0.27v-0.86c-0.04-0.09-0.09-0.18-0.16-0.26c-0.06-0.09-0.14-0.16-0.23-0.22
	c-0.09-0.06-0.18-0.11-0.28-0.15c-0.09-0.04-0.19-0.05-0.29-0.05c-0.14,0-0.28,0.03-0.41,0.09c-0.12,0.07-0.22,0.15-0.31,0.26
	c-0.09,0.1-0.16,0.23-0.2,0.36c-0.05,0.13-0.07,0.27-0.07,0.41c0,0.15,0.03,0.29,0.08,0.43c0.05,0.13,0.13,0.25,0.22,0.35
	c0.1,0.1,0.21,0.18,0.33,0.25c0.13,0.07,0.27,0.12,0.41,0.13V51.78z M64,52v-3.55h0.26v3.31h2.11V52H64z M67.69,52
	c-0.11,0-0.22-0.02-0.33-0.06c-0.1-0.04-0.19-0.1-0.27-0.17c-0.08-0.07-0.14-0.16-0.19-0.26c-0.04-0.1-0.06-0.2-0.06-0.31
	c0-0.11,0.03-0.22,0.08-0.31c0.05-0.1,0.13-0.18,0.22-0.24c0.1-0.07,0.22-0.13,0.34-0.16c0.14-0.04,0.29-0.06,0.44-0.06
	c0.14-0.01,0.28-0.01,0.42,0c0.13,0.02,0.27,0.05,0.39,0.1v-0.26c0.01-0.21-0.06-0.42-0.21-0.58c-0.15-0.15-0.36-0.23-0.57-0.22
	c-0.14,0-0.27,0.03-0.4,0.08c-0.16,0.06-0.3,0.13-0.44,0.23L67,49.69c0.29-0.22,0.64-0.34,1-0.34c0.51-0.04,0.96,0.34,1,0.85
	c0,0.05,0,0.1,0,0.15v1.27c0,0.08,0,0.13,0.1,0.13V52H69c-0.06,0-0.12-0.02-0.16-0.07c-0.04-0.04-0.07-0.1-0.07-0.16v-0.21
	c-0.13,0.15-0.28,0.27-0.46,0.36C68.11,51.99,67.9,52.02,67.69,52z M67.69,51.8c0.18,0,0.36-0.04,0.53-0.11
	c0.15-0.06,0.28-0.16,0.38-0.29c0.05-0.06,0.07-0.13,0.08-0.2v-0.46c-0.12-0.04-0.25-0.08-0.38-0.1c-0.13-0.02-0.27-0.02-0.4,0
	c-0.12-0.02-0.24-0.02-0.36,0c-0.1,0.02-0.19,0.06-0.27,0.11c-0.07,0.04-0.14,0.11-0.18,0.18c-0.04,0.07-0.06,0.16-0.06,0.24
	c-0.01,0.08-0.01,0.17,0,0.25c0.03,0.07,0.08,0.14,0.14,0.19c0.06,0.06,0.13,0.1,0.21,0.13c0.11,0.06,0.23,0.1,0.36,0.1L67.69,51.8z
	 M71.21,49.62c-0.22,0.01-0.43,0.08-0.61,0.21c-0.18,0.14-0.31,0.33-0.37,0.54V52H70v-2.6h0.24V50c0.08-0.17,0.21-0.32,0.36-0.44
	c0.14-0.11,0.3-0.18,0.48-0.2h0.15L71.21,49.62z M72.85,52c-0.17,0-0.34-0.04-0.49-0.11c-0.15-0.08-0.28-0.18-0.39-0.3
	c-0.11-0.13-0.19-0.27-0.25-0.43c-0.06-0.16-0.09-0.32-0.09-0.49c0-0.17,0.02-0.35,0.08-0.51c0.06-0.16,0.14-0.3,0.25-0.43
	c0.1-0.13,0.23-0.23,0.38-0.3c0.15-0.07,0.32-0.11,0.49-0.11c0.21,0,0.42,0.06,0.59,0.18c0.17,0.12,0.31,0.26,0.43,0.43V49.4h0.23
	V52c0,0.16-0.03,0.32-0.1,0.46c-0.06,0.13-0.16,0.25-0.27,0.34c-0.12,0.09-0.25,0.15-0.39,0.2c-0.15,0.04-0.3,0.06-0.46,0.06
	c-0.14,0.02-0.27,0.02-0.41,0c-0.11-0.03-0.21-0.07-0.31-0.12c-0.1-0.05-0.18-0.11-0.25-0.19c-0.07-0.07-0.13-0.16-0.18-0.25
	l0.16-0.11c0.1,0.17,0.24,0.3,0.42,0.39c0.18,0.08,0.37,0.12,0.57,0.12c0.13,0,0.25-0.02,0.37-0.06c0.11-0.03,0.22-0.08,0.31-0.16
	c0.09-0.07,0.16-0.16,0.21-0.27c0.05-0.12,0.08-0.24,0.08-0.37v-0.57c-0.11,0.17-0.25,0.31-0.42,0.41
	C73.24,51.97,73.04,52.01,72.85,52z M72.91,51.79c0.11,0,0.22-0.03,0.32-0.07c0.1-0.04,0.2-0.09,0.29-0.16
	c0.08-0.07,0.15-0.14,0.21-0.22c0.05-0.08,0.08-0.16,0.1-0.25v-0.86c-0.04-0.1-0.09-0.19-0.16-0.27c-0.06-0.09-0.14-0.16-0.23-0.22
	c-0.08-0.06-0.17-0.11-0.27-0.14c-0.1-0.04-0.2-0.05-0.3-0.05c-0.14,0-0.29,0.03-0.42,0.09c-0.12,0.07-0.22,0.16-0.31,0.26
	c-0.08,0.11-0.15,0.24-0.19,0.37c-0.05,0.13-0.07,0.26-0.07,0.4c0,0.15,0.03,0.29,0.08,0.43c0.05,0.13,0.13,0.25,0.22,0.35
	c0.09,0.11,0.2,0.19,0.33,0.25c0.12,0.07,0.26,0.11,0.4,0.12L72.91,51.79z M76.21,52c-0.18,0-0.35-0.04-0.51-0.11
	c-0.31-0.14-0.56-0.4-0.67-0.72c-0.07-0.17-0.1-0.35-0.1-0.53c0-0.18,0.03-0.35,0.1-0.51c0.06-0.16,0.14-0.31,0.26-0.43
	c0.12-0.12,0.25-0.21,0.4-0.28c0.16-0.08,0.33-0.11,0.51-0.11c0.17,0,0.34,0.04,0.5,0.11c0.16,0.07,0.29,0.17,0.41,0.29
	c0.11,0.12,0.2,0.26,0.26,0.42c0.07,0.16,0.1,0.33,0.1,0.51v0.07l0,0h-2.28c0.01,0.14,0.04,0.29,0.1,0.42
	c0.06,0.12,0.13,0.23,0.23,0.33c0.09,0.09,0.2,0.17,0.32,0.22c0.12,0.05,0.25,0.08,0.38,0.08c0.09,0.01,0.18,0.01,0.27,0
	c0.08-0.02,0.16-0.06,0.24-0.1c0.08-0.04,0.14-0.1,0.2-0.16c0.05-0.06,0.1-0.13,0.13-0.2l0.22,0.06c-0.04,0.1-0.09,0.18-0.16,0.26
	c-0.07,0.08-0.16,0.15-0.25,0.2c-0.1,0.06-0.2,0.1-0.31,0.13C76.45,51.98,76.33,52,76.21,52z M77.21,50.55
	c-0.01-0.14-0.05-0.29-0.1-0.42c-0.06-0.12-0.14-0.23-0.23-0.32c-0.09-0.1-0.2-0.17-0.32-0.22c-0.12-0.05-0.25-0.08-0.38-0.08
	c-0.13,0-0.26,0.03-0.38,0.08c-0.12,0.05-0.23,0.12-0.32,0.22c-0.09,0.09-0.17,0.21-0.22,0.33c-0.06,0.13-0.09,0.27-0.1,0.41
	L77.21,50.55z M78.21,52v-0.42h0.22V52H78.21z"/>
<path class="st1" d="M0.39,10.72V0.08h4.34c0.42,0,0.83,0.09,1.2,0.27c0.38,0.18,0.72,0.43,1,0.74c0.26,0.3,0.47,0.63,0.62,1
	c0.14,0.39,0.2,0.8,0.18,1.21c0,0.41-0.07,0.82-0.21,1.21c-0.14,0.37-0.34,0.71-0.6,1C6.67,5.83,6.36,6.09,6,6.27
	C5.63,6.45,5.23,6.55,4.82,6.54H0.69v4.18L0.39,10.72z M0.69,6.24h4.14C5.21,6.25,5.58,6.17,5.92,6c0.32-0.16,0.6-0.39,0.82-0.67
	c0.22-0.29,0.39-0.61,0.51-0.95C7.37,4.04,7.43,3.67,7.43,3.3c0-0.38-0.07-0.75-0.21-1.1C7.08,1.86,6.89,1.55,6.64,1.27
	C6.39,1.01,6.1,0.79,5.78,0.62c-0.31-0.15-0.65-0.23-1-0.24h-4L0.69,6.24z M9.68,10.72V0.08H14c0.42,0,0.83,0.09,1.2,0.27
	c0.36,0.18,0.69,0.43,0.95,0.74c0.26,0.29,0.47,0.63,0.62,1C16.92,2.48,17,2.89,17,3.3c0,0.4-0.07,0.8-0.2,1.18
	c-0.12,0.36-0.31,0.7-0.55,1c-0.24,0.29-0.53,0.53-0.86,0.72c-0.34,0.18-0.72,0.29-1.11,0.32l2.72,4.2h-0.36l-2.7-4.18H10v4.18
	L9.68,10.72z M10,6.24h4.14C14.5,6.25,14.86,6.17,15.19,6C15.5,5.83,15.78,5.6,16,5.32c0.23-0.28,0.4-0.6,0.52-0.94
	c0.12-0.35,0.18-0.71,0.18-1.08c-0.01-0.74-0.29-1.45-0.79-2c-0.24-0.27-0.54-0.49-0.86-0.65C14.73,0.48,14.37,0.39,14,0.38h-4V6.24
	z M23.5,10.8c-0.69,0.01-1.38-0.15-2-0.47c-0.6-0.3-1.13-0.71-1.57-1.21c-0.44-0.51-0.78-1.1-1-1.73c-0.49-1.29-0.49-2.71,0-4
	c0.23-0.63,0.57-1.21,1-1.73c0.45-0.51,1-0.92,1.62-1.22C22.16,0.15,22.82,0,23.5,0c0.69,0,1.38,0.16,2,0.47
	c0.6,0.31,1.13,0.73,1.57,1.24c0.43,0.52,0.77,1.1,1,1.73c0.49,1.29,0.49,2.71,0,4C27.82,8.08,27.46,8.66,27,9.17
	c-0.44,0.49-0.98,0.9-1.57,1.19C24.83,10.65,24.17,10.8,23.5,10.8z M18.84,5.4c0,0.65,0.12,1.3,0.35,1.91c0.24,0.6,0.57,1.16,1,1.64
	c0.41,0.47,0.91,0.86,1.47,1.13c0.58,0.28,1.22,0.43,1.87,0.42c0.66,0.01,1.31-0.15,1.9-0.45c0.56-0.28,1.06-0.68,1.47-1.16
	c0.41-0.48,0.72-1.04,0.94-1.63c0.23-0.59,0.34-1.22,0.34-1.86c0-1.3-0.47-2.57-1.33-3.55C26.42,1.38,25.91,1,25.34,0.72
	c-1.18-0.57-2.55-0.57-3.73,0c-0.57,0.29-1.07,0.69-1.48,1.18c-0.41,0.48-0.74,1.04-0.95,1.64C18.95,4.14,18.84,4.77,18.84,5.4z
	 M30.66,10.72V0.08h3.42c0.75-0.02,1.5,0.12,2.19,0.42c0.6,0.25,1.13,0.64,1.56,1.13c0.42,0.49,0.74,1.07,0.93,1.69
	c0.21,0.67,0.32,1.36,0.31,2.06c0.01,0.75-0.11,1.49-0.35,2.2c-0.22,0.62-0.56,1.19-1,1.68c-0.44,0.47-0.97,0.84-1.57,1.08
	c-0.66,0.26-1.36,0.39-2.07,0.38H30.66z M38.77,5.38c0.01-0.68-0.1-1.36-0.31-2c-0.19-0.58-0.5-1.12-0.9-1.58
	c-0.42-0.43-0.92-0.77-1.48-1c-0.63-0.26-1.32-0.38-2-0.37H31v10h3.12c0.69,0.01,1.37-0.12,2-0.38c0.56-0.24,1.06-0.6,1.46-1.05
	c0.4-0.47,0.7-1.01,0.89-1.59C38.68,6.76,38.78,6.07,38.77,5.38z M45.5,10.5c0.69,0.03,1.38-0.13,2-0.45
	c0.51-0.28,0.93-0.68,1.24-1.17c0.31-0.5,0.54-1.06,0.65-1.64c0.12-0.61,0.19-1.22,0.19-1.84V0.08h0.3V5.4c0,0.67-0.08,1.34-0.22,2
	c-0.13,0.61-0.38,1.2-0.73,1.72c-0.34,0.5-0.8,0.91-1.34,1.19c-1.32,0.61-2.84,0.61-4.16,0c-0.54-0.29-1.01-0.7-1.35-1.21
	c-0.35-0.53-0.59-1.11-0.72-1.73c-0.14-0.66-0.21-1.33-0.21-2V0.08h0.3V5.4c0,0.63,0.07,1.25,0.19,1.87
	c0.11,0.58,0.34,1.14,0.65,1.64c0.31,0.48,0.74,0.88,1.25,1.15C44.15,10.37,44.82,10.52,45.5,10.5z M51.89,5.32
	c0-0.65,0.12-1.29,0.34-1.9c0.23-0.62,0.57-1.2,1-1.7c0.43-0.51,0.95-0.93,1.55-1.23c0.66-0.33,1.4-0.5,2.14-0.49
	c0.85-0.03,1.69,0.2,2.41,0.66c0.64,0.41,1.15,0.99,1.47,1.68l-0.29,0.09c-0.19-0.37-0.43-0.7-0.72-1c-0.27-0.26-0.57-0.48-0.9-0.65
	c-0.31-0.17-0.65-0.29-1-0.36c-0.33-0.08-0.66-0.12-1-0.12c-0.69-0.02-1.38,0.14-2,0.45c-0.57,0.28-1.07,0.68-1.47,1.16
	c-0.4,0.48-0.71,1.03-0.91,1.63c-0.21,0.58-0.31,1.2-0.31,1.82c-0.01,0.68,0.12,1.36,0.37,2c0.23,0.6,0.57,1.16,1,1.64
	c0.42,0.47,0.93,0.85,1.5,1.13c0.57,0.28,1.2,0.42,1.84,0.42c0.37-0.01,0.73-0.07,1.09-0.17c0.36-0.08,0.72-0.21,1.05-0.38
	c0.37-0.18,0.7-0.41,1-0.69c0.3-0.29,0.56-0.63,0.76-1l0.28,0.08c-0.18,0.4-0.42,0.75-0.73,1.06c-0.3,0.31-0.63,0.57-1,0.78
	c-0.75,0.42-1.59,0.63-2.45,0.63c-0.7,0.01-1.38-0.16-2-0.48c-0.6-0.31-1.14-0.73-1.57-1.25c-0.44-0.52-0.77-1.11-1-1.75
	C52.06,6.73,51.91,6.03,51.89,5.32z M70.25,0.38h-4.08v10.34h-0.3V0.38h-4.08v-0.3h8.46V0.38z M78.15,1.48
	c-0.36-0.41-0.81-0.73-1.31-0.94c-0.52-0.18-1.08-0.26-1.63-0.25c-0.53-0.01-1.06,0.04-1.57,0.17C73.25,0.57,72.89,0.75,72.57,1
	c-0.27,0.21-0.48,0.49-0.61,0.8c-0.14,0.33-0.2,0.69-0.2,1.05c-0.02,0.34,0.05,0.69,0.2,1c0.14,0.26,0.35,0.48,0.6,0.64
	c0.31,0.2,0.65,0.35,1,0.45c0.42,0.13,0.93,0.25,1.52,0.37s1.13,0.25,1.61,0.39c0.46,0.09,0.9,0.25,1.31,0.46
	c0.32,0.19,0.58,0.46,0.77,0.78c0.18,0.36,0.26,0.77,0.23,1.17c0.04,0.8-0.34,1.55-1,2c-0.83,0.5-1.78,0.74-2.75,0.69
	c-0.77,0.01-1.53-0.13-2.25-0.4c-0.71-0.28-1.36-0.71-1.9-1.25l0.23-0.2c0.49,0.53,1.09,0.95,1.76,1.22
	c0.69,0.26,1.43,0.38,2.17,0.37C76.13,10.6,77,10.41,77.77,10c0.61-0.39,0.96-1.07,0.92-1.79c0.01-0.35-0.06-0.69-0.21-1
	c-0.15-0.29-0.37-0.54-0.64-0.72c-0.34-0.22-0.72-0.4-1.11-0.51c-0.52-0.16-1.05-0.29-1.59-0.39c-0.59-0.11-1.12-0.22-1.57-0.35
	c-0.41-0.1-0.8-0.26-1.16-0.48C72.11,4.58,71.87,4.31,71.7,4c-0.17-0.34-0.25-0.73-0.24-1.11c-0.01-0.42,0.08-0.84,0.26-1.22
	c0.18-0.35,0.44-0.66,0.75-0.9c0.35-0.26,0.75-0.46,1.17-0.58c0.5-0.13,1.02-0.2,1.54-0.19C75.8-0.01,76.42,0.09,77,0.29
	c0.53,0.22,1.01,0.56,1.39,1L78.15,1.48z M96.76,26.43H0v0.2h96.76V26.43z"/>
</svg>
