<?xml version="1.0" encoding="utf-8"?>
<!-- Generator: Adobe Illustrator 22.0.0, SVG Export Plug-In . SVG Version: 6.00 Build 0)  -->
<svg version="1.1" id="Layer_1" xmlns="http://www.w3.org/2000/svg" xmlns:xlink="http://www.w3.org/1999/xlink" x="0px" y="0px"
	 viewBox="0 0 93.29 14.77" style="enable-background:new 0 0 93.29 14.77;" xml:space="preserve">
<style type="text/css">
	.st0{fill:#010101;}
	.st1{display:none;fill:#010101;}
</style>
<path class="st0" d="M0,1.89c0-0.21,0.04-0.43,0.11-0.63C0.19,1.06,0.3,0.87,0.44,0.7c0.15-0.17,0.33-0.31,0.53-0.41
	c0.22-0.1,0.46-0.16,0.71-0.15c0.28-0.01,0.56,0.06,0.8,0.21c0.22,0.14,0.39,0.33,0.5,0.56l-0.2,0.11C2.73,0.9,2.65,0.79,2.55,0.7
	C2.47,0.62,2.38,0.55,2.28,0.5c-0.1-0.05-0.2-0.09-0.31-0.11c-0.1-0.01-0.21-0.01-0.31,0c-0.21,0-0.41,0.04-0.6,0.14
	C0.89,0.62,0.74,0.74,0.62,0.89C0.5,1.03,0.41,1.2,0.35,1.38c-0.07,0.18-0.1,0.37-0.1,0.56c0,0.2,0.04,0.41,0.11,0.6
	c0.08,0.18,0.18,0.35,0.3,0.5C0.79,3.18,0.94,3.3,1.11,3.39c0.18,0.08,0.37,0.13,0.56,0.13c0.11,0.01,0.22,0.01,0.33,0
	c0.11-0.03,0.22-0.07,0.32-0.13c0.11-0.06,0.2-0.13,0.29-0.22c0.1-0.09,0.17-0.19,0.23-0.31l0.22,0.11C3,3.1,2.92,3.22,2.81,3.32
	c-0.1,0.1-0.21,0.19-0.34,0.26C2.34,3.65,2.21,3.7,2.07,3.74C1.93,3.77,1.79,3.79,1.65,3.79c-0.23,0-0.46-0.05-0.66-0.16
	c-0.2-0.1-0.38-0.25-0.53-0.42C0.32,3.04,0.2,2.84,0.12,2.63C0.03,2.39-0.01,2.14,0,1.89z M4.66,3.7c-0.55,0-0.82-0.38-0.82-1.15
	V1.1h0.25v1.46c0,0.64,0.21,1,0.65,1c0.11,0,0.22-0.02,0.32-0.06c0.1-0.04,0.2-0.09,0.29-0.16c0.09-0.07,0.17-0.15,0.24-0.25
	C5.67,2.97,5.74,2.84,5.78,2.7V1.1h0.25v2.24c0,0.08,0,0.13,0.1,0.13V3.7h-0.1c-0.07,0-0.13-0.03-0.18-0.07
	c-0.05-0.04-0.07-0.1-0.07-0.16V3.08c-0.11,0.2-0.27,0.37-0.46,0.49C5.12,3.67,4.89,3.71,4.66,3.7z M7.86,3.7
	c-0.19,0-0.39-0.03-0.57-0.1C7.11,3.53,6.95,3.43,6.81,3.3l0.13-0.17c0.12,0.12,0.27,0.21,0.43,0.28C7.53,3.47,7.69,3.5,7.86,3.5
	c0.19,0.01,0.38-0.04,0.55-0.14c0.14-0.09,0.21-0.24,0.21-0.4c0-0.07-0.02-0.14-0.06-0.2C8.52,2.73,8.47,2.71,8.41,2.7
	C8.33,2.66,8.24,2.62,8.15,2.6L7.78,2.46C7.65,2.44,7.53,2.4,7.4,2.36C7.3,2.34,7.21,2.3,7.13,2.24C7.06,2.2,7.01,2.14,6.97,2.07
	c-0.02-0.08-0.02-0.17,0-0.25C6.97,1.7,7,1.59,7.05,1.48c0.04-0.1,0.11-0.18,0.2-0.24c0.09-0.06,0.2-0.11,0.31-0.14
	c0.12-0.02,0.24-0.02,0.36,0c0.19-0.01,0.37,0.03,0.54,0.1C8.6,1.26,8.73,1.35,8.83,1.46L8.69,1.6C8.6,1.5,8.48,1.42,8.35,1.37
	C8.21,1.33,8.06,1.3,7.91,1.3c-0.09-0.01-0.18-0.01-0.27,0C7.56,1.32,7.48,1.35,7.41,1.39C7.35,1.44,7.3,1.49,7.26,1.56
	C7.23,1.64,7.21,1.72,7.21,1.8c-0.02,0.06-0.02,0.13,0,0.19c0.02,0.05,0.07,0.1,0.12,0.12L7.54,2.2l0.31,0.08l0.43,0.11
	C8.39,2.42,8.5,2.47,8.6,2.53c0.07,0.04,0.14,0.1,0.18,0.17c0.05,0.08,0.08,0.18,0.07,0.28C8.86,3.2,8.76,3.4,8.58,3.53
	C8.37,3.66,8.11,3.72,7.86,3.7z M10.85,3.57h-0.07l-0.12,0.06H10.5h-0.2c-0.06,0.01-0.13,0.01-0.19,0
	c-0.06-0.02-0.12-0.05-0.17-0.09C9.9,3.5,9.86,3.45,9.83,3.4c-0.01-0.07-0.01-0.13,0-0.2v-2h-0.4V1h0.35V0.11h0.25V1h0.61v0.2h-0.61
	v1.9c0,0.08,0.03,0.16,0.1,0.21c0.07,0.05,0.15,0.08,0.23,0.08c0.09,0,0.19-0.02,0.27-0.06l0.13-0.06L10.85,3.57z M12.56,3.7
	c-0.18,0-0.35-0.04-0.51-0.11c-0.15-0.07-0.29-0.17-0.4-0.29c-0.12-0.12-0.2-0.27-0.26-0.43c-0.07-0.16-0.1-0.33-0.1-0.51
	c0-0.18,0.03-0.36,0.1-0.52c0.06-0.16,0.15-0.31,0.27-0.43c0.35-0.39,0.92-0.51,1.4-0.29c0.15,0.07,0.29,0.17,0.4,0.29
	c0.11,0.13,0.2,0.27,0.27,0.43c0.13,0.32,0.13,0.68,0,1C13.67,3,13.58,3.15,13.46,3.27c-0.23,0.25-0.56,0.4-0.9,0.4V3.7z
	 M11.56,2.37c0,0.15,0.03,0.29,0.08,0.43c0.05,0.13,0.13,0.25,0.22,0.35c0.09,0.1,0.2,0.18,0.32,0.24c0.12,0.06,0.25,0.09,0.39,0.09
	c0.14,0,0.28-0.03,0.4-0.09c0.12-0.06,0.23-0.14,0.32-0.24c0.1-0.11,0.17-0.23,0.22-0.36c0.06-0.14,0.08-0.29,0.08-0.44
	c0-0.15-0.02-0.29-0.08-0.43c-0.05-0.13-0.12-0.25-0.22-0.35c-0.09-0.1-0.2-0.18-0.32-0.24c-0.25-0.12-0.53-0.12-0.78,0
	c-0.13,0.05-0.24,0.14-0.33,0.24C11.67,1.79,11.56,2.08,11.56,2.37z M18.49,3.7h-0.25V2.24c0.02-0.25-0.03-0.5-0.15-0.73
	c-0.11-0.15-0.28-0.24-0.47-0.23c-0.11,0-0.21,0.02-0.31,0.06c-0.09,0.04-0.18,0.1-0.26,0.17c-0.08,0.07-0.15,0.16-0.21,0.25
	c-0.06,0.1-0.1,0.21-0.13,0.33V3.7h-0.25V2.24c0.02-0.25-0.03-0.5-0.15-0.73c-0.11-0.15-0.28-0.24-0.47-0.23
	c-0.1,0-0.2,0.02-0.3,0.06c-0.09,0.04-0.18,0.09-0.26,0.16c-0.08,0.08-0.15,0.16-0.21,0.26c-0.06,0.1-0.11,0.21-0.15,0.32V3.7h-0.24
	V1.1h0.23v0.6c0.1-0.19,0.24-0.36,0.42-0.48C15.5,1.1,15.7,1.04,15.9,1.04c0.2,0,0.39,0.06,0.54,0.19c0.13,0.14,0.22,0.32,0.24,0.51
	c0.17-0.41,0.56-0.68,1-0.7c0.24-0.02,0.48,0.1,0.61,0.3c0.13,0.26,0.2,0.56,0.18,0.85L18.49,3.7z M19.44,2.45V2.22h1.43v0.23H19.44
	z M21.96,1.3H21.6V1.1h0.36V1.01c0-0.12,0.02-0.24,0.05-0.35c0.03-0.12,0.08-0.23,0.15-0.33c0.08-0.1,0.17-0.18,0.28-0.24
	C22.56,0.03,22.7,0,22.84,0h0.25l0.21,0.06c0.05,0.02,0.1,0.04,0.15,0.07c0.03,0.01,0.06,0.03,0.08,0.06l-0.12,0.17
	c-0.07-0.05-0.14-0.09-0.22-0.11c-0.11-0.02-0.23-0.02-0.34,0c-0.1,0-0.2,0.02-0.29,0.07c-0.08,0.04-0.15,0.11-0.2,0.19
	c-0.05,0.08-0.09,0.16-0.12,0.25c-0.01,0.09-0.01,0.19,0,0.28v0.09h1.24V3.7h-0.25V1.3h-1v2.4h-0.25L21.96,1.3z M25.67,3.57H25.6
	L25.48,3.7h-0.16h-0.2c-0.06,0.01-0.13,0.01-0.19,0c-0.06-0.02-0.11-0.06-0.15-0.1c-0.04-0.04-0.08-0.09-0.11-0.14
	c-0.01-0.07-0.01-0.13,0-0.2v-2h-0.36v-0.2h0.36V0.17h0.25v0.89h0.61v0.2h-0.61v1.9c0,0.08,0.03,0.16,0.1,0.21
	c0.07,0.05,0.15,0.08,0.23,0.08c0.09,0,0.19-0.02,0.27-0.06l0.13-0.06L25.67,3.57z M29.05,3.57h-0.07l-0.12,0.06H28.7h-0.2
	c-0.07,0.01-0.13,0.01-0.2,0c-0.06-0.02-0.11-0.05-0.16-0.09C28.1,3.5,28.06,3.45,28.03,3.4c-0.01-0.07-0.01-0.13,0-0.2v-2h-0.36V1
	h0.36V0.11h0.25V1h0.61v0.2h-0.61v1.9c0,0.08,0.03,0.16,0.1,0.21c0.07,0.05,0.15,0.08,0.23,0.08c0.09,0,0.18-0.02,0.26-0.06
	l0.14-0.06L29.05,3.57z M30.78,3.7c-0.18,0-0.35-0.04-0.51-0.11c-0.15-0.07-0.29-0.17-0.4-0.29c-0.24-0.25-0.37-0.59-0.36-0.94
	c0-0.18,0.03-0.36,0.1-0.52c0.11-0.32,0.36-0.58,0.67-0.72c0.16-0.07,0.33-0.11,0.5-0.11c0.17,0,0.34,0.04,0.5,0.11
	c0.15,0.07,0.28,0.17,0.4,0.29c0.11,0.13,0.2,0.27,0.27,0.43c0.13,0.32,0.13,0.68,0,1C31.89,3,31.8,3.14,31.68,3.27
	c-0.11,0.12-0.25,0.22-0.4,0.29C31.13,3.64,30.96,3.69,30.78,3.7z M29.78,2.37c0,0.15,0.03,0.29,0.08,0.43
	c0.05,0.13,0.13,0.25,0.22,0.35c0.09,0.1,0.2,0.18,0.32,0.24c0.12,0.06,0.25,0.09,0.39,0.09c0.14,0,0.28-0.03,0.4-0.09
	c0.12-0.06,0.23-0.14,0.32-0.24c0.09-0.11,0.17-0.23,0.22-0.36c0.11-0.28,0.11-0.59,0-0.87c-0.05-0.13-0.13-0.25-0.22-0.35
	c-0.09-0.1-0.2-0.18-0.32-0.24c-0.12-0.06-0.25-0.1-0.39-0.09c-0.14,0-0.28,0.03-0.4,0.09c-0.12,0.06-0.23,0.14-0.32,0.24
	C29.89,1.79,29.78,2.08,29.78,2.37z M34.44,4.57h0.17c0.03,0.01,0.05,0.01,0.08,0c0.02,0,0.03,0,0.05,0
	c0.03-0.03,0.05-0.07,0.07-0.11l0.12-0.25l0.19-0.45L33.96,1.1h0.26l1,2.35l1-2.35h0.24l-1.42,3.41C35,4.6,34.94,4.67,34.86,4.73
	c-0.1,0.05-0.22,0.08-0.33,0.07h-0.09V4.57z M38.21,3.7c-0.18,0-0.35-0.04-0.51-0.11c-0.15-0.07-0.29-0.17-0.4-0.29
	c-0.24-0.25-0.37-0.59-0.36-0.94c0-0.18,0.03-0.36,0.1-0.52c0.11-0.32,0.36-0.58,0.67-0.72c0.16-0.07,0.33-0.11,0.5-0.11
	c0.17,0,0.34,0.04,0.5,0.11c0.15,0.07,0.28,0.17,0.4,0.29c0.11,0.13,0.2,0.27,0.27,0.43c0.13,0.32,0.13,0.68,0,1
	c-0.06,0.16-0.16,0.3-0.27,0.43c-0.11,0.12-0.25,0.22-0.4,0.29C38.56,3.64,38.39,3.69,38.21,3.7z M37.21,2.37
	c0,0.15,0.03,0.29,0.08,0.43c0.05,0.13,0.13,0.25,0.22,0.35c0.09,0.1,0.2,0.18,0.32,0.24c0.12,0.06,0.25,0.09,0.39,0.09
	c0.14,0,0.28-0.03,0.4-0.09c0.12-0.06,0.23-0.14,0.32-0.24c0.09-0.11,0.17-0.23,0.22-0.36c0.11-0.28,0.11-0.59,0-0.87
	c-0.05-0.13-0.13-0.25-0.22-0.35c-0.09-0.1-0.2-0.18-0.32-0.24c-0.12-0.06-0.25-0.1-0.39-0.09c-0.14,0-0.28,0.03-0.4,0.09
	c-0.12,0.06-0.23,0.14-0.32,0.24C37.32,1.79,37.21,2.08,37.21,2.37z M41.13,3.7c-0.56,0-0.83-0.38-0.83-1.15V1.1h0.25v1.46
	c0,0.64,0.22,1,0.65,1c0.11,0,0.22-0.02,0.32-0.06c0.1-0.05,0.18-0.12,0.26-0.2c0.09-0.07,0.17-0.15,0.24-0.25
	c0.07-0.1,0.12-0.21,0.16-0.32V1.1h0.25v2.24c0,0.08,0,0.13,0.1,0.13V3.7h-0.07c-0.07,0-0.13-0.03-0.18-0.07
	c-0.05-0.04-0.08-0.1-0.08-0.16V3.08c-0.1,0.2-0.26,0.37-0.46,0.49C41.55,3.66,41.34,3.71,41.13,3.7z M44.78,1.32
	c-0.22,0.01-0.43,0.08-0.61,0.21c-0.18,0.13-0.31,0.32-0.37,0.54V3.7h-0.25V1.1h0.23v0.6c0.08-0.17,0.21-0.32,0.36-0.44
	c0.13-0.11,0.3-0.18,0.47-0.2h0.17V1.32z M48.99,3.7h-0.21V2.24c0.02-0.25-0.03-0.51-0.15-0.73c-0.1-0.15-0.27-0.24-0.45-0.23
	c-0.11,0-0.22,0.02-0.32,0.06c-0.11,0.04-0.21,0.1-0.31,0.17c-0.09,0.07-0.17,0.16-0.24,0.26c-0.07,0.09-0.12,0.2-0.16,0.31V3.7
	H46.9V1.1h0.24v0.6c0.05-0.1,0.12-0.19,0.2-0.27c0.08-0.08,0.16-0.15,0.26-0.21c0.1-0.06,0.2-0.1,0.31-0.13
	c0.11-0.01,0.23-0.01,0.34,0c0.24-0.02,0.47,0.09,0.6,0.3c0.14,0.26,0.2,0.56,0.18,0.85L48.99,3.7z M51.09,3.7
	c-0.18,0-0.35-0.04-0.51-0.11c-0.15-0.07-0.29-0.17-0.4-0.29c-0.12-0.12-0.21-0.27-0.27-0.43c-0.07-0.17-0.1-0.35-0.1-0.53
	c0-0.18,0.03-0.35,0.1-0.51c0.06-0.16,0.14-0.31,0.26-0.43c0.12-0.12,0.25-0.21,0.4-0.28c0.16-0.08,0.33-0.11,0.51-0.11
	c0.18,0,0.35,0.04,0.51,0.11c0.3,0.14,0.54,0.4,0.66,0.71c0.07,0.16,0.1,0.33,0.1,0.51v0.07l0,0h-2.28c0.01,0.14,0.04,0.29,0.1,0.42
	c0.06,0.12,0.13,0.23,0.23,0.33c0.09,0.09,0.2,0.17,0.32,0.22c0.12,0.05,0.25,0.08,0.38,0.08c0.09,0.01,0.18,0.01,0.27,0
	c0.08-0.02,0.16-0.06,0.24-0.1c0.08-0.04,0.14-0.1,0.2-0.16c0.06-0.06,0.1-0.13,0.13-0.2l0.22,0.06c-0.04,0.1-0.09,0.18-0.16,0.26
	c-0.07,0.08-0.16,0.15-0.25,0.2c-0.1,0.06-0.2,0.1-0.31,0.13C51.33,3.68,51.21,3.7,51.09,3.7z M52.09,2.25
	c-0.01-0.14-0.04-0.29-0.1-0.42c-0.06-0.12-0.14-0.23-0.23-0.32c-0.09-0.1-0.19-0.17-0.31-0.22c-0.12-0.05-0.26-0.08-0.39-0.08
	c-0.13,0-0.26,0.03-0.38,0.08c-0.12,0.05-0.23,0.12-0.32,0.22c-0.09,0.1-0.17,0.21-0.22,0.33c-0.06,0.13-0.09,0.27-0.1,0.41
	L52.09,2.25z M54.25,3.7c-0.18,0-0.35-0.04-0.51-0.11c-0.15-0.07-0.29-0.17-0.41-0.29c-0.11-0.13-0.2-0.27-0.26-0.43
	c-0.07-0.17-0.1-0.35-0.1-0.53c0-0.18,0.03-0.35,0.1-0.51c0.06-0.16,0.14-0.31,0.26-0.43c0.12-0.12,0.25-0.21,0.4-0.28
	c0.16-0.08,0.33-0.11,0.51-0.11c0.17,0,0.34,0.04,0.5,0.11c0.15,0.07,0.29,0.17,0.41,0.29c0.11,0.12,0.2,0.26,0.26,0.42
	c0.07,0.16,0.1,0.33,0.1,0.51v0.07l0,0h-2.28c0.01,0.14,0.04,0.29,0.1,0.42c0.06,0.12,0.13,0.23,0.23,0.33
	c0.09,0.09,0.2,0.17,0.32,0.22c0.12,0.05,0.25,0.08,0.38,0.08c0.09,0.02,0.17,0.02,0.26,0c0.09-0.02,0.17-0.06,0.25-0.1
	c0.08-0.04,0.14-0.1,0.2-0.16c0.05-0.06,0.1-0.13,0.13-0.2l0.22,0.06c-0.04,0.1-0.09,0.18-0.16,0.26C55.09,3.4,55,3.47,54.91,3.52
	c-0.1,0.06-0.2,0.1-0.31,0.13C54.49,3.68,54.37,3.7,54.25,3.7z M55.25,2.25c-0.01-0.14-0.05-0.29-0.1-0.42
	c-0.06-0.12-0.14-0.23-0.23-0.32c-0.09-0.1-0.2-0.17-0.32-0.22c-0.24-0.11-0.52-0.11-0.76,0c-0.12,0.05-0.23,0.12-0.32,0.22
	c-0.09,0.09-0.17,0.21-0.22,0.33c-0.06,0.13-0.09,0.27-0.1,0.41L55.25,2.25z M57.37,3.7c-0.17,0-0.34-0.04-0.5-0.11
	c-0.3-0.15-0.53-0.41-0.65-0.73c-0.06-0.16-0.09-0.33-0.09-0.5c0-0.18,0.03-0.35,0.09-0.52c0.06-0.16,0.14-0.3,0.25-0.43
	c0.1-0.12,0.23-0.22,0.37-0.29c0.25-0.12,0.54-0.14,0.8-0.06c0.1,0.03,0.19,0.08,0.28,0.13c0.08,0.06,0.16,0.12,0.23,0.19
	c0.07,0.08,0.13,0.16,0.18,0.24V0.05h0.25v3.29c0,0.08,0,0.13,0.11,0.13V3.7H58.6c-0.13-0.01-0.23-0.11-0.24-0.24V3.17
	c-0.11,0.17-0.25,0.31-0.43,0.41C57.76,3.67,57.57,3.72,57.37,3.7z M57.37,3.48c0.1,0,0.2-0.02,0.29-0.06
	c0.1-0.04,0.19-0.09,0.28-0.15c0.09-0.06,0.16-0.14,0.23-0.22c0.06-0.08,0.1-0.17,0.11-0.27V1.92c-0.09-0.19-0.22-0.36-0.39-0.48
	c-0.09-0.06-0.18-0.11-0.28-0.15c-0.09-0.04-0.19-0.05-0.29-0.05c-0.14,0-0.28,0.03-0.41,0.09c-0.12,0.07-0.22,0.15-0.31,0.26
	c-0.09,0.1-0.16,0.23-0.2,0.36c-0.05,0.13-0.07,0.27-0.07,0.41c0,0.15,0.03,0.29,0.08,0.43c0.05,0.13,0.13,0.25,0.22,0.35
	c0.1,0.1,0.21,0.18,0.33,0.25c0.14,0.08,0.3,0.12,0.46,0.13L57.37,3.48z M60.45,3.7c-0.2,0-0.39-0.03-0.58-0.1
	c-0.18-0.07-0.34-0.17-0.48-0.3l0.13-0.17c0.12,0.12,0.27,0.21,0.43,0.28c0.16,0.06,0.33,0.09,0.5,0.09
	c0.19,0.01,0.38-0.04,0.54-0.14c0.14-0.09,0.21-0.24,0.21-0.4c0-0.07-0.02-0.14-0.05-0.2c-0.04-0.06-0.1-0.11-0.16-0.14
	c-0.08-0.04-0.17-0.08-0.26-0.1l-0.36-0.1c-0.13-0.02-0.26-0.06-0.38-0.1c-0.1-0.02-0.19-0.06-0.27-0.12
	c-0.07-0.04-0.12-0.1-0.15-0.17c-0.04-0.08-0.06-0.16-0.06-0.25c0-0.12,0.03-0.23,0.08-0.34c0.05-0.1,0.12-0.18,0.21-0.24
	c0.09-0.06,0.19-0.11,0.3-0.14c0.12-0.02,0.25-0.02,0.37,0c0.18,0,0.37,0.03,0.54,0.1c0.14,0.06,0.26,0.15,0.36,0.26l-0.14,0.14
	c-0.09-0.1-0.21-0.18-0.34-0.23c-0.14-0.05-0.29-0.07-0.44-0.07h-0.27c-0.08,0.02-0.15,0.05-0.22,0.09
	c-0.06,0.05-0.11,0.1-0.15,0.17c-0.04,0.07-0.06,0.16-0.06,0.24c-0.01,0.06-0.01,0.13,0,0.19c0.03,0.05,0.07,0.09,0.12,0.12
	l0.21,0.09l0.31,0.08l0.44,0.11c0.11,0.03,0.21,0.08,0.31,0.14c0.08,0.04,0.15,0.11,0.2,0.19c0.05,0.09,0.07,0.18,0.07,0.28
	c0.01,0.22-0.1,0.43-0.28,0.55C60.93,3.64,60.69,3.71,60.45,3.7z M62.37,4.09l0.07-0.39h-0.09V3.27h0.26V3.7L62.5,4.09H62.37z
	 M67.62,2.23c0,0.2-0.03,0.41-0.09,0.6C67.47,3,67.39,3.17,67.27,3.31c-0.11,0.13-0.25,0.24-0.4,0.32
	c-0.15,0.07-0.32,0.11-0.49,0.11c-0.17,0-0.34-0.04-0.5-0.11c-0.15-0.08-0.28-0.19-0.39-0.32c-0.12-0.14-0.21-0.3-0.26-0.48
	c-0.06-0.19-0.09-0.4-0.09-0.6c0-0.21,0.03-0.41,0.09-0.61c0.06-0.17,0.15-0.34,0.26-0.48c0.11-0.13,0.24-0.24,0.39-0.31
	c0.15-0.08,0.33-0.12,0.5-0.12c0.17,0,0.34,0.04,0.49,0.12c0.15,0.07,0.29,0.18,0.4,0.31c0.11,0.15,0.2,0.31,0.26,0.48
	C67.59,1.82,67.62,2.02,67.62,2.23z M67.36,2.23c0-0.18-0.02-0.35-0.07-0.52c-0.04-0.15-0.11-0.29-0.2-0.41
	c-0.08-0.11-0.19-0.2-0.31-0.26c-0.12-0.06-0.26-0.09-0.4-0.09c-0.14,0-0.28,0.03-0.41,0.09c-0.12,0.06-0.23,0.15-0.31,0.26
	c-0.09,0.12-0.16,0.26-0.2,0.41c-0.05,0.17-0.07,0.34-0.07,0.52c0,0.18,0.02,0.35,0.07,0.52c0.05,0.14,0.11,0.28,0.2,0.4
	c0.17,0.23,0.44,0.36,0.72,0.36c0.14,0,0.28-0.04,0.4-0.1c0.12-0.06,0.23-0.15,0.31-0.26c0.09-0.12,0.16-0.26,0.2-0.4
	C67.34,2.58,67.36,2.41,67.36,2.23z M68.49,3.7V3.28h0.22V3.7H68.49z M72.05,2.23c0,0.2-0.03,0.41-0.09,0.6
	c-0.05,0.18-0.14,0.34-0.26,0.48c-0.11,0.13-0.25,0.24-0.4,0.32c-0.17,0.06-0.34,0.09-0.52,0.07c-0.17,0-0.34-0.04-0.5-0.11
	C70.13,3.51,70,3.4,69.89,3.27c-0.12-0.14-0.21-0.3-0.26-0.48c-0.06-0.19-0.09-0.4-0.09-0.6c0-0.21,0.03-0.41,0.09-0.61
	c0.06-0.17,0.15-0.34,0.26-0.48c0.11-0.13,0.24-0.24,0.39-0.31c0.16-0.07,0.33-0.1,0.5-0.09c0.17,0,0.34,0.04,0.49,0.12
	c0.15,0.07,0.29,0.18,0.4,0.31c0.11,0.14,0.2,0.31,0.26,0.48C72,1.81,72.04,2.02,72.05,2.23z M71.79,2.23
	c0-0.18-0.02-0.35-0.07-0.52c-0.04-0.15-0.11-0.29-0.2-0.41c-0.08-0.11-0.19-0.2-0.31-0.26c-0.12-0.06-0.26-0.09-0.4-0.09
	c-0.14,0-0.28,0.03-0.4,0.09c-0.13,0.06-0.23,0.15-0.32,0.26c-0.09,0.12-0.16,0.26-0.2,0.41c-0.05,0.17-0.07,0.34-0.07,0.52
	c0,0.18,0.02,0.35,0.07,0.52c0.05,0.14,0.11,0.28,0.2,0.4c0.09,0.11,0.19,0.2,0.32,0.26c0.12,0.06,0.26,0.1,0.4,0.1
	c0.14,0,0.28-0.04,0.4-0.1c0.12-0.06,0.23-0.15,0.31-0.26c0.09-0.12,0.16-0.26,0.2-0.4C71.77,2.58,71.79,2.41,71.79,2.23L71.79,2.23
	z M72.78,3.7c0-0.09,0-0.2,0-0.31c0.02-0.12,0.06-0.24,0.12-0.35c0.06-0.13,0.15-0.25,0.25-0.35c0.13-0.12,0.28-0.23,0.45-0.3
	l0.3-0.14c0.1-0.04,0.2-0.1,0.29-0.16c0.08-0.06,0.16-0.13,0.22-0.21c0.08-0.15,0.08-0.34,0-0.49c-0.03-0.07-0.07-0.13-0.13-0.18
	c-0.07-0.05-0.14-0.1-0.22-0.13c-0.11-0.02-0.21-0.02-0.32,0c-0.1-0.02-0.21-0.02-0.31,0c-0.09,0.03-0.17,0.07-0.24,0.12
	c-0.06,0.04-0.12,0.09-0.17,0.14l-0.1,0.11l-0.17-0.18l0.1-0.09c0.06-0.06,0.13-0.12,0.21-0.16c0.09-0.07,0.2-0.12,0.31-0.15
	c0.13-0.05,0.27-0.07,0.41-0.07c0.14,0,0.27,0.02,0.4,0.06c0.11,0.04,0.21,0.09,0.3,0.17c0.08,0.07,0.14,0.15,0.18,0.25
	c0.04,0.1,0.06,0.2,0.06,0.3c0.01,0.12-0.03,0.25-0.1,0.35c-0.06,0.1-0.14,0.2-0.24,0.27l-0.3,0.18l-0.27,0.13
	c-0.22,0.09-0.43,0.22-0.6,0.39c-0.14,0.16-0.22,0.36-0.22,0.57h1.89V3.7H72.78z M77.11,2.38c0-0.18,0.03-0.35,0.09-0.52
	c0.06-0.16,0.15-0.3,0.27-0.42c0.11-0.12,0.25-0.21,0.4-0.28c0.16-0.08,0.34-0.12,0.52-0.11c0.22-0.01,0.43,0.05,0.62,0.16
	c0.17,0.1,0.31,0.26,0.4,0.44l-0.24,0.08c-0.08-0.14-0.19-0.25-0.33-0.33c-0.14-0.08-0.3-0.12-0.46-0.12
	c-0.14-0.01-0.27,0.02-0.4,0.08c-0.25,0.11-0.45,0.33-0.54,0.59c-0.05,0.14-0.08,0.28-0.08,0.43c0,0.15,0.03,0.3,0.08,0.44
	c0.05,0.13,0.13,0.25,0.22,0.36c0.09,0.1,0.2,0.19,0.32,0.25c0.12,0.06,0.26,0.09,0.4,0.09c0.09,0.01,0.18,0.01,0.27,0
	c0.08-0.03,0.16-0.07,0.24-0.11c0.07-0.04,0.14-0.09,0.2-0.15c0.05-0.05,0.08-0.11,0.11-0.18l0.24,0.07
	c-0.03,0.09-0.08,0.18-0.15,0.25c-0.07,0.08-0.15,0.14-0.24,0.2c-0.09,0.05-0.18,0.08-0.27,0.1c-0.12,0.02-0.23,0.02-0.35,0
	c-0.18,0-0.35-0.04-0.51-0.11c-0.15-0.07-0.29-0.17-0.4-0.29c-0.12-0.12-0.21-0.27-0.27-0.43C77.17,2.72,77.13,2.55,77.11,2.38z
	 M81.32,3.7c-0.18,0-0.35-0.04-0.51-0.11c-0.15-0.07-0.28-0.17-0.4-0.29c-0.12-0.12-0.2-0.27-0.26-0.43
	c-0.07-0.16-0.1-0.33-0.1-0.51c0-0.18,0.04-0.35,0.1-0.52c0.06-0.16,0.15-0.3,0.27-0.43c0.35-0.39,0.92-0.51,1.4-0.29
	c0.15,0.07,0.29,0.17,0.4,0.29c0.12,0.12,0.21,0.27,0.27,0.43c0.07,0.16,0.1,0.34,0.1,0.52c0,0.18-0.03,0.35-0.1,0.51
	c-0.06,0.16-0.15,0.31-0.27,0.43C81.99,3.55,81.66,3.7,81.32,3.7z M80.32,2.37c0,0.15,0.03,0.29,0.08,0.43
	c0.06,0.13,0.13,0.25,0.22,0.35c0.09,0.1,0.2,0.18,0.32,0.24c0.12,0.06,0.26,0.09,0.4,0.09c0.14,0,0.27-0.03,0.39-0.09
	c0.12-0.06,0.23-0.14,0.32-0.24c0.1-0.11,0.17-0.23,0.22-0.36c0.06-0.14,0.08-0.29,0.08-0.44c0-0.15-0.02-0.29-0.08-0.43
	c-0.05-0.13-0.12-0.25-0.22-0.35c-0.09-0.1-0.2-0.18-0.32-0.24c-0.25-0.12-0.53-0.12-0.78,0c-0.13,0.06-0.24,0.14-0.33,0.24
	c-0.09,0.11-0.16,0.23-0.21,0.36c-0.07,0.15-0.11,0.31-0.11,0.48L80.32,2.37z M87.25,3.7H87V2.24c0.02-0.25-0.03-0.5-0.15-0.73
	c-0.11-0.15-0.28-0.24-0.47-0.23c-0.1,0-0.21,0.02-0.3,0.06c-0.1,0.04-0.19,0.1-0.27,0.17c-0.08,0.07-0.15,0.16-0.21,0.25
	c-0.06,0.1-0.1,0.22-0.13,0.33V3.7h-0.25V2.24c0.02-0.25-0.03-0.5-0.15-0.73c-0.11-0.15-0.28-0.24-0.47-0.23
	c-0.1,0-0.2,0.02-0.3,0.06c-0.09,0.04-0.18,0.09-0.26,0.16c-0.08,0.08-0.15,0.16-0.21,0.26c-0.07,0.1-0.11,0.21-0.14,0.32V3.7h-0.25
	V1.1h0.23v0.6c0.1-0.19,0.24-0.36,0.42-0.48c0.17-0.12,0.37-0.18,0.57-0.18c0.2,0,0.39,0.06,0.54,0.19
	c0.14,0.14,0.22,0.32,0.24,0.51c0.17-0.41,0.56-0.68,1-0.7c0.24-0.02,0.48,0.09,0.61,0.3c0.13,0.26,0.2,0.56,0.18,0.85L87.25,3.7z
	 M89.35,3.7c-0.17,0-0.34-0.04-0.5-0.11c-0.16-0.07-0.29-0.17-0.41-0.29c-0.12-0.12-0.21-0.27-0.27-0.43
	c-0.07-0.17-0.1-0.35-0.1-0.53c0-0.18,0.03-0.35,0.1-0.51c0.06-0.16,0.15-0.31,0.27-0.43c0.11-0.12,0.25-0.22,0.4-0.28
	C89,1.04,89.17,1,89.34,1.01c0.18,0,0.35,0.04,0.51,0.11c0.15,0.07,0.29,0.17,0.4,0.29c0.12,0.12,0.21,0.26,0.27,0.42
	c0.06,0.16,0.09,0.34,0.09,0.51v0.11h-2.28c0.01,0.15,0.05,0.29,0.11,0.42c0.05,0.12,0.13,0.23,0.22,0.33
	c0.09,0.09,0.2,0.17,0.32,0.22c0.12,0.05,0.25,0.08,0.38,0.08c0.09,0.01,0.18,0.01,0.27,0c0.08-0.02,0.17-0.05,0.24-0.1
	c0.08-0.04,0.15-0.09,0.2-0.16c0.06-0.06,0.1-0.13,0.14-0.2l0.22,0.06c-0.04,0.09-0.09,0.18-0.16,0.26
	c-0.08,0.08-0.16,0.14-0.25,0.2c-0.1,0.06-0.21,0.1-0.32,0.13C89.59,3.71,89.47,3.71,89.35,3.7z M90.35,2.25
	c-0.01-0.14-0.04-0.29-0.1-0.42c-0.06-0.12-0.13-0.23-0.22-0.32c-0.09-0.09-0.2-0.17-0.32-0.22c-0.12-0.05-0.26-0.08-0.39-0.08
	c-0.13,0-0.26,0.03-0.38,0.08c-0.12,0.05-0.23,0.13-0.32,0.22c-0.09,0.1-0.17,0.21-0.22,0.33c-0.05,0.13-0.08,0.27-0.09,0.41
	L90.35,2.25z M92.23,3.7c-0.19,0-0.39-0.03-0.57-0.1c-0.18-0.07-0.34-0.17-0.48-0.3l0.13-0.17c0.12,0.12,0.27,0.21,0.43,0.28
	c0.16,0.06,0.32,0.09,0.49,0.09c0.19,0.02,0.38-0.02,0.55-0.1C92.92,3.31,93,3.16,92.99,3c0-0.07-0.02-0.14-0.06-0.2
	c-0.04-0.05-0.09-0.08-0.15-0.1c-0.08-0.04-0.17-0.08-0.26-0.1l-0.36-0.1c-0.13-0.02-0.26-0.06-0.38-0.1
	c-0.1-0.02-0.19-0.06-0.27-0.12c-0.07-0.04-0.12-0.1-0.16-0.17c-0.02-0.08-0.02-0.17,0-0.25c-0.01-0.12,0.02-0.24,0.08-0.34
	c0.04-0.1,0.11-0.18,0.2-0.24c0.09-0.06,0.2-0.11,0.31-0.14c0.12-0.02,0.24-0.02,0.36,0c0.19-0.01,0.37,0.03,0.54,0.1
	c0.14,0.06,0.27,0.15,0.37,0.26l-0.14,0.14c-0.09-0.1-0.21-0.18-0.34-0.23c-0.14-0.04-0.29-0.07-0.44-0.07
	c-0.09-0.01-0.18-0.01-0.27,0c-0.08,0.02-0.16,0.05-0.23,0.09c-0.06,0.05-0.11,0.1-0.15,0.17c-0.02,0.08-0.02,0.16,0,0.24
	c-0.02,0.06-0.02,0.13,0,0.19c0.02,0.05,0.07,0.1,0.12,0.12l0.21,0.09l0.31,0.08l0.43,0.11c0.11,0.03,0.22,0.08,0.32,0.14
	c0.08,0.04,0.15,0.11,0.19,0.19c0.05,0.08,0.08,0.18,0.07,0.28c0.01,0.22-0.1,0.42-0.27,0.55C92.78,3.72,92.5,3.76,92.23,3.7z
	 M0.17,10.51v-0.46h0.25v0.46H0.17z M0.17,13.7v-2.6h0.25v2.6H0.17z M3.57,13.7H3.32v-1.46c0.02-0.25-0.03-0.5-0.14-0.73
	c-0.09-0.14-0.24-0.22-0.4-0.23c-0.11,0-0.22,0.02-0.33,0.06c-0.11,0.04-0.21,0.1-0.3,0.17c-0.09,0.07-0.17,0.16-0.24,0.26
	c-0.07,0.09-0.13,0.2-0.16,0.31v1.62h-0.3v-2.6h0.24v0.6c0.05-0.1,0.11-0.19,0.19-0.27c0.08-0.08,0.17-0.15,0.27-0.21
	c0.1-0.06,0.2-0.1,0.31-0.13c0.11-0.02,0.23-0.02,0.34,0c0.24-0.02,0.47,0.09,0.6,0.3c0.13,0.26,0.19,0.56,0.17,0.85V13.7z
	 M7.26,13.57H7.2L7.08,13.7H6.92h-0.2c-0.07,0.01-0.13,0.01-0.2,0c-0.06-0.02-0.11-0.05-0.16-0.09c-0.04-0.04-0.08-0.09-0.11-0.14
	c-0.01-0.07-0.01-0.13,0-0.2v-2h-0.4v-0.2h0.36v-0.89h0.25v0.89h0.61v0.2H6.46v1.9c-0.01,0.08,0.03,0.16,0.1,0.21
	c0.07,0.05,0.15,0.08,0.23,0.08c0.09,0,0.18-0.02,0.26-0.06l0.14-0.06L7.26,13.57z M11.24,11.1h0.25l-1.12,2.6h-0.21l-0.59-1.37
	L8.99,13.7H8.78l-1.12-2.6H7.9l1,2.32l0.54-1.28l-0.44-1h0.22L9.57,12l0.36-0.86h0.22l-0.44,1l0.54,1.28L11.24,11.1z M13.22,13.7
	c-0.18,0-0.35-0.04-0.51-0.11c-0.15-0.07-0.29-0.17-0.4-0.29c-0.12-0.12-0.2-0.27-0.26-0.43c-0.07-0.16-0.1-0.33-0.1-0.51
	c0-0.18,0.03-0.36,0.1-0.52c0.11-0.32,0.36-0.58,0.67-0.72c0.16-0.07,0.33-0.11,0.5-0.11c0.17,0,0.34,0.04,0.5,0.11
	c0.15,0.07,0.28,0.17,0.4,0.29c0.11,0.13,0.2,0.27,0.27,0.43c0.13,0.32,0.13,0.68,0,1c-0.06,0.16-0.16,0.3-0.27,0.43
	c-0.11,0.12-0.25,0.22-0.4,0.29C13.57,13.64,13.4,13.69,13.22,13.7z M12.22,12.37c0,0.15,0.03,0.29,0.08,0.43
	c0.05,0.13,0.13,0.25,0.22,0.35c0.09,0.1,0.2,0.18,0.32,0.24c0.12,0.06,0.25,0.09,0.39,0.09c0.14,0,0.28-0.03,0.4-0.09
	c0.12-0.06,0.23-0.14,0.32-0.24c0.09-0.11,0.17-0.23,0.22-0.36c0.11-0.28,0.11-0.59,0-0.87c-0.05-0.13-0.13-0.25-0.22-0.35
	c-0.09-0.1-0.2-0.18-0.32-0.24c-0.12-0.06-0.25-0.1-0.39-0.09c-0.14,0-0.28,0.03-0.4,0.09c-0.12,0.06-0.23,0.14-0.32,0.24
	C12.33,11.79,12.22,12.08,12.22,12.37z M17.69,13.7c-0.2,0-0.39-0.03-0.58-0.1c-0.18-0.07-0.34-0.17-0.47-0.3l0.12-0.17
	c0.13,0.12,0.28,0.21,0.44,0.28c0.16,0.06,0.32,0.09,0.49,0.09c0.19,0.01,0.38-0.04,0.55-0.14c0.13-0.09,0.2-0.24,0.2-0.4
	c0.01-0.07-0.01-0.14-0.05-0.2c-0.04-0.06-0.09-0.11-0.16-0.14c-0.08-0.04-0.17-0.08-0.26-0.1l-0.36-0.1
	c-0.13-0.02-0.26-0.06-0.38-0.1c-0.09-0.02-0.18-0.06-0.26-0.12c-0.07-0.04-0.13-0.1-0.16-0.17c-0.04-0.08-0.06-0.16-0.05-0.25
	c0-0.12,0.02-0.23,0.07-0.34c0.05-0.1,0.12-0.18,0.21-0.24c0.09-0.06,0.19-0.11,0.3-0.14c0.12-0.02,0.25-0.02,0.37,0
	c0.18,0,0.37,0.03,0.54,0.1c0.14,0.06,0.26,0.15,0.36,0.26l-0.14,0.14c-0.09-0.1-0.2-0.18-0.33-0.23c-0.15-0.04-0.3-0.07-0.45-0.07
	h-0.27c-0.08,0.02-0.15,0.05-0.22,0.09c-0.06,0.05-0.11,0.1-0.15,0.17C17.01,11.59,17,11.68,17,11.76c-0.01,0.06-0.01,0.13,0,0.19
	c0.03,0.05,0.07,0.09,0.12,0.12l0.21,0.09l0.31,0.08l0.44,0.11c0.11,0.03,0.22,0.08,0.32,0.14c0.08,0.05,0.14,0.11,0.19,0.19
	c0.05,0.09,0.07,0.18,0.07,0.28c0.01,0.22-0.1,0.43-0.28,0.55C18.18,13.65,17.94,13.71,17.69,13.7z M19.51,10.51v-0.46h0.27v0.46
	H19.51z M19.51,13.69V11.1h0.27v2.6L19.51,13.69z M20.57,13.51l1.83-2.22h-1.8V11.1h2.08v0.18l-1.83,2.21h1.82v0.21h-2.1
	L20.57,13.51z M24.53,13.7c-0.18,0-0.35-0.04-0.51-0.11c-0.16-0.07-0.29-0.17-0.41-0.29c-0.12-0.12-0.21-0.27-0.27-0.43
	c-0.06-0.17-0.1-0.35-0.1-0.53c0-0.17,0.04-0.35,0.1-0.51c0.06-0.16,0.15-0.31,0.27-0.43c0.11-0.12,0.25-0.22,0.4-0.28
	c0.15-0.08,0.33-0.12,0.5-0.11c0.18,0,0.35,0.04,0.51,0.11c0.15,0.07,0.29,0.17,0.4,0.29c0.12,0.12,0.21,0.26,0.27,0.42
	c0.06,0.16,0.09,0.34,0.09,0.51v0.11H23.5c0.01,0.15,0.05,0.29,0.11,0.42c0.05,0.12,0.13,0.23,0.22,0.33
	c0.09,0.09,0.2,0.17,0.32,0.22c0.12,0.05,0.25,0.08,0.38,0.08c0.09,0.01,0.18,0.01,0.27,0c0.08-0.02,0.17-0.05,0.24-0.1
	c0.08-0.04,0.15-0.09,0.2-0.16c0.06-0.06,0.1-0.13,0.14-0.2l0.22,0.06c-0.04,0.09-0.09,0.18-0.16,0.26
	c-0.08,0.08-0.16,0.14-0.25,0.2c-0.1,0.06-0.21,0.1-0.32,0.13C24.76,13.71,24.64,13.71,24.53,13.7z M25.53,12.25
	c-0.01-0.14-0.04-0.29-0.1-0.42c-0.06-0.12-0.13-0.23-0.22-0.32c-0.09-0.09-0.2-0.17-0.32-0.22c-0.12-0.05-0.26-0.08-0.39-0.08
	c-0.13,0-0.26,0.03-0.38,0.08c-0.12,0.05-0.23,0.13-0.32,0.22c-0.09,0.1-0.17,0.21-0.22,0.33c-0.05,0.13-0.08,0.27-0.09,0.41
	L25.53,12.25z M27.4,13.7c-0.19,0-0.39-0.03-0.57-0.1c-0.18-0.07-0.34-0.17-0.48-0.3l0.13-0.17c0.12,0.12,0.27,0.21,0.43,0.28
	c0.16,0.06,0.32,0.09,0.49,0.09c0.19,0.01,0.38-0.04,0.55-0.14c0.14-0.09,0.21-0.24,0.21-0.4c0-0.07-0.02-0.14-0.05-0.2
	c-0.04-0.06-0.1-0.11-0.16-0.14c-0.08-0.04-0.17-0.08-0.26-0.1l-0.36-0.1c-0.13-0.02-0.26-0.06-0.38-0.1
	c-0.1-0.02-0.19-0.06-0.27-0.12c-0.07-0.04-0.12-0.1-0.16-0.17c-0.02-0.08-0.02-0.17,0-0.25c0-0.12,0.03-0.23,0.08-0.34
	c0.04-0.1,0.11-0.18,0.2-0.24c0.09-0.06,0.2-0.11,0.31-0.14c0.12-0.02,0.24-0.02,0.36,0c0.19-0.01,0.37,0.03,0.54,0.1
	c0.14,0.06,0.27,0.15,0.37,0.26l-0.14,0.14c-0.09-0.1-0.21-0.18-0.34-0.23c-0.14-0.04-0.29-0.07-0.44-0.07
	c-0.09-0.01-0.18-0.01-0.27,0c-0.08,0.02-0.15,0.05-0.22,0.09c-0.07,0.04-0.12,0.1-0.15,0.17c-0.04,0.07-0.06,0.16-0.06,0.24
	c-0.02,0.06-0.02,0.13,0,0.19c0.02,0.05,0.07,0.1,0.12,0.12l0.21,0.09l0.31,0.08l0.43,0.11c0.11,0.03,0.22,0.08,0.32,0.14
	c0.08,0.04,0.15,0.11,0.19,0.19c0.05,0.08,0.08,0.18,0.07,0.28c0.01,0.22-0.1,0.42-0.27,0.55C27.92,13.66,27.66,13.72,27.4,13.7z
	 M29.18,11.53v-0.42h0.21v0.42H29.18z M29.18,13.69v-0.42h0.21v0.43L29.18,13.69z M31.97,13.7v-3.55h1.47
	c0.14,0,0.29,0.03,0.42,0.09c0.12,0.07,0.23,0.15,0.32,0.25c0.09,0.11,0.17,0.23,0.22,0.36c0.05,0.12,0.07,0.26,0.07,0.39
	c0,0.13-0.02,0.26-0.06,0.38c-0.04,0.12-0.09,0.23-0.16,0.33c-0.08,0.09-0.17,0.17-0.27,0.24c-0.11,0.06-0.22,0.1-0.34,0.12
	l0.88,1.39h-0.29l-0.86-1.34h-1.15v1.34H31.97z M32.22,12.13h1.25c0.11,0,0.21-0.03,0.31-0.08c0.09-0.05,0.17-0.11,0.24-0.19
	c0.06-0.09,0.11-0.18,0.15-0.28c0.01-0.11,0.01-0.22,0-0.33c0-0.11-0.02-0.22-0.06-0.32c-0.04-0.1-0.1-0.2-0.17-0.28
	c-0.07-0.08-0.16-0.14-0.25-0.19c-0.1-0.05-0.2-0.07-0.31-0.07h-1.16V12.13z M36.41,13.7c-0.18,0-0.35-0.04-0.51-0.11
	c-0.31-0.14-0.56-0.4-0.67-0.72c-0.07-0.17-0.1-0.35-0.1-0.53c0-0.18,0.03-0.35,0.1-0.51c0.06-0.16,0.14-0.31,0.26-0.43
	c0.12-0.12,0.25-0.21,0.4-0.28c0.16-0.08,0.33-0.11,0.51-0.11c0.17,0,0.34,0.04,0.5,0.11c0.16,0.07,0.29,0.17,0.41,0.29
	c0.11,0.12,0.2,0.26,0.26,0.42c0.07,0.16,0.1,0.33,0.1,0.51v0.07l0,0h-2.28c0.01,0.14,0.04,0.29,0.1,0.42
	c0.06,0.12,0.13,0.23,0.23,0.33c0.09,0.09,0.2,0.17,0.32,0.22c0.12,0.05,0.25,0.08,0.38,0.08c0.09,0.01,0.18,0.01,0.27,0
	c0.08-0.02,0.16-0.06,0.24-0.1c0.08-0.04,0.14-0.1,0.2-0.16c0.05-0.06,0.1-0.13,0.13-0.2l0.22,0.06c-0.04,0.1-0.09,0.18-0.16,0.26
	c-0.07,0.08-0.16,0.15-0.25,0.2c-0.09,0.08-0.18,0.14-0.29,0.18C36.66,13.72,36.53,13.72,36.41,13.7z M37.41,12.25
	c-0.01-0.14-0.05-0.29-0.1-0.42c-0.06-0.12-0.14-0.23-0.23-0.32c-0.09-0.1-0.2-0.17-0.32-0.22c-0.12-0.05-0.25-0.08-0.38-0.08
	c-0.13,0-0.26,0.03-0.38,0.08c-0.12,0.05-0.23,0.12-0.32,0.22c-0.09,0.09-0.17,0.21-0.22,0.33c-0.06,0.13-0.09,0.27-0.1,0.41
	L37.41,12.25z M39.51,13.7c-0.17,0-0.34-0.04-0.49-0.11c-0.15-0.08-0.28-0.18-0.39-0.3c-0.1-0.13-0.19-0.27-0.25-0.43
	c-0.06-0.16-0.09-0.32-0.09-0.49c0-0.17,0.03-0.35,0.08-0.51c0.06-0.16,0.14-0.3,0.25-0.43c0.1-0.13,0.23-0.23,0.38-0.3
	c0.15-0.07,0.32-0.11,0.49-0.11c0.21-0.01,0.42,0.06,0.6,0.18c0.16,0.12,0.31,0.26,0.42,0.43V11.1h0.27v2.6
	c0,0.16-0.03,0.32-0.1,0.46c-0.06,0.13-0.15,0.25-0.26,0.34c-0.12,0.08-0.25,0.15-0.39,0.2c-0.15,0.04-0.31,0.06-0.47,0.06
	c-0.13,0.02-0.27,0.02-0.4,0c-0.11-0.03-0.22-0.07-0.32-0.12c-0.09-0.05-0.18-0.12-0.25-0.19c-0.07-0.07-0.13-0.16-0.18-0.25
	l0.17-0.11c0.1,0.17,0.24,0.31,0.42,0.39c0.18,0.08,0.37,0.12,0.56,0.12c0.13,0,0.26-0.02,0.38-0.06c0.11-0.03,0.22-0.09,0.31-0.16
	c0.08-0.08,0.16-0.17,0.21-0.27c0.05-0.12,0.07-0.24,0.07-0.37v-0.57c-0.1,0.17-0.25,0.31-0.42,0.41
	C39.93,13.68,39.72,13.72,39.51,13.7z M39.57,13.49c0.22-0.01,0.44-0.09,0.61-0.23c0.08-0.06,0.15-0.13,0.21-0.22
	c0.05-0.07,0.09-0.16,0.1-0.25v-0.86c-0.08-0.19-0.21-0.36-0.38-0.49c-0.09-0.06-0.18-0.11-0.28-0.14c-0.1-0.04-0.2-0.05-0.3-0.05
	c-0.14,0-0.28,0.03-0.41,0.09c-0.25,0.13-0.44,0.36-0.51,0.63c-0.05,0.13-0.07,0.26-0.07,0.4c0,0.15,0.03,0.29,0.08,0.43
	c0.05,0.13,0.13,0.25,0.22,0.35c0.09,0.11,0.2,0.19,0.33,0.25c0.12,0.07,0.26,0.11,0.4,0.12V13.49z M42.57,13.7
	c-0.55,0-0.83-0.38-0.83-1.15V11.1h0.25v1.46c0,0.67,0.22,1,0.66,1c0.11,0,0.22-0.02,0.32-0.06c0.1-0.04,0.2-0.09,0.29-0.16
	c0.09-0.07,0.17-0.15,0.23-0.25c0.07-0.1,0.13-0.21,0.17-0.32V11.1h0.25v2.24c0,0.08,0,0.13,0.1,0.13v0.23h-0.07
	c-0.07,0-0.13-0.03-0.18-0.07c-0.05-0.04-0.08-0.1-0.08-0.16v-0.39c-0.11,0.2-0.27,0.37-0.47,0.49
	C43.01,13.67,42.79,13.71,42.57,13.7z M44.97,10.05h0.25v3.13c0,0.09,0.03,0.17,0.09,0.23c0.06,0.05,0.14,0.08,0.22,0.08h0.13h0.15
	v0.2l-0.21,0.06h-0.22c-0.12,0.01-0.24-0.04-0.33-0.13c-0.09-0.09-0.14-0.21-0.13-0.34L44.97,10.05z M47.13,13.7
	c-0.22,0-0.44-0.08-0.61-0.23c-0.08-0.07-0.14-0.16-0.18-0.26c-0.04-0.1-0.06-0.2-0.06-0.31c-0.01-0.11,0.02-0.22,0.08-0.31
	c0.05-0.1,0.12-0.18,0.22-0.24c0.1-0.08,0.22-0.13,0.34-0.16c0.14-0.04,0.29-0.06,0.44-0.06c0.14-0.01,0.28-0.01,0.42,0
	c0.13,0.02,0.26,0.05,0.38,0.1v-0.26c0.01-0.21-0.06-0.42-0.21-0.58c-0.15-0.15-0.36-0.23-0.57-0.22c-0.14,0-0.27,0.03-0.4,0.08
	c-0.15,0.06-0.3,0.14-0.43,0.23l-0.09-0.17c0.27-0.21,0.6-0.33,0.94-0.34c0.27-0.02,0.54,0.08,0.74,0.27
	c0.19,0.2,0.29,0.47,0.27,0.75v1.27c0,0.08,0,0.13,0.11,0.13v0.31h-0.1c-0.06,0-0.12-0.02-0.16-0.07c-0.04-0.04-0.06-0.1-0.07-0.16
	v-0.21c-0.12,0.15-0.28,0.28-0.46,0.36C47.54,13.69,47.33,13.72,47.13,13.7z M47.13,13.5c0.18,0,0.36-0.04,0.53-0.11
	c0.15-0.06,0.28-0.16,0.37-0.29c0.05-0.05,0.08-0.13,0.08-0.2v-0.46c-0.12-0.04-0.24-0.08-0.37-0.1c-0.14-0.02-0.27-0.02-0.41,0
	c-0.12-0.02-0.23-0.02-0.35,0c-0.1,0.02-0.19,0.05-0.27,0.11c-0.07,0.04-0.14,0.11-0.18,0.18c-0.04,0.07-0.06,0.16-0.06,0.24
	c-0.02,0.08-0.02,0.17,0,0.25c0.03,0.07,0.08,0.14,0.14,0.19c0.06,0.06,0.13,0.1,0.21,0.13c0.11,0.06,0.23,0.1,0.36,0.1L47.13,13.5z
	 M50.65,11.32c-0.22,0-0.44,0.07-0.61,0.21c-0.18,0.13-0.31,0.32-0.37,0.54v1.63h-0.25v-2.6h0.24v0.6c0.08-0.17,0.21-0.32,0.36-0.44
	c0.13-0.11,0.3-0.18,0.47-0.2h0.16L50.65,11.32z M53.42,13.7c-0.11,0-0.22-0.02-0.33-0.06c-0.1-0.04-0.19-0.09-0.27-0.17
	c-0.08-0.07-0.14-0.16-0.19-0.26c-0.04-0.1-0.06-0.2-0.06-0.31c-0.01-0.11,0.02-0.22,0.08-0.31c0.05-0.1,0.13-0.18,0.22-0.24
	c0.1-0.08,0.22-0.13,0.34-0.16c0.14-0.04,0.29-0.06,0.44-0.06c0.14-0.01,0.28-0.01,0.42,0c0.13,0.02,0.26,0.05,0.38,0.1v-0.26
	c0.01-0.21-0.06-0.42-0.21-0.58c-0.15-0.15-0.35-0.23-0.56-0.22c-0.14,0-0.28,0.03-0.41,0.08c-0.15,0.06-0.3,0.14-0.43,0.23
	l-0.06-0.09c0.29-0.22,0.64-0.34,1-0.34c0.27-0.01,0.53,0.09,0.73,0.27c0.19,0.2,0.29,0.47,0.27,0.75v1.27c0,0.08,0,0.13,0.11,0.13
	v0.23h-0.1c-0.06,0-0.12-0.02-0.16-0.07c-0.04-0.04-0.06-0.1-0.07-0.16v-0.21c-0.12,0.15-0.28,0.27-0.45,0.36
	C53.89,13.7,53.65,13.73,53.42,13.7z M53.42,13.5c0.18,0,0.36-0.04,0.53-0.11c0.15-0.06,0.28-0.16,0.37-0.29
	c0.05-0.05,0.08-0.13,0.08-0.2v-0.46c-0.12-0.04-0.24-0.08-0.37-0.1c-0.13-0.02-0.27-0.02-0.4,0c-0.12-0.02-0.24-0.02-0.36,0
	c-0.1,0.02-0.19,0.06-0.27,0.11c-0.07,0.04-0.14,0.11-0.18,0.18c-0.04,0.07-0.06,0.16-0.06,0.24c-0.02,0.08-0.02,0.17,0,0.25
	c0.03,0.07,0.08,0.14,0.14,0.19c0.06,0.06,0.13,0.1,0.21,0.13c0.11,0.06,0.23,0.1,0.36,0.1L53.42,13.5z M57.83,13.7h-0.25v-1.46
	c0.02-0.25-0.03-0.5-0.14-0.73c-0.1-0.15-0.27-0.24-0.45-0.23c-0.11,0-0.22,0.02-0.33,0.06c-0.11,0.04-0.21,0.1-0.3,0.17
	c-0.09,0.07-0.17,0.16-0.24,0.26c-0.07,0.09-0.13,0.2-0.16,0.31v1.62h-0.25v-2.6h0.24v0.6c0.05-0.1,0.12-0.19,0.19-0.27
	c0.08-0.08,0.17-0.15,0.27-0.21c0.1-0.06,0.2-0.1,0.31-0.13c0.11-0.02,0.23-0.02,0.34,0c0.24-0.02,0.47,0.09,0.6,0.3
	c0.13,0.26,0.19,0.56,0.17,0.85L57.83,13.7z M59.9,13.7c-0.17,0-0.34-0.04-0.5-0.11c-0.28-0.15-0.5-0.39-0.62-0.69
	c-0.06-0.16-0.09-0.33-0.09-0.5c0-0.18,0.03-0.35,0.09-0.52c0.06-0.15,0.14-0.3,0.24-0.43c0.11-0.12,0.24-0.22,0.38-0.29
	c0.25-0.12,0.54-0.14,0.8-0.06c0.1,0.03,0.19,0.08,0.28,0.13c0.08,0.06,0.16,0.12,0.23,0.19c0.07,0.08,0.13,0.16,0.18,0.24v-1.61
	h0.25v3.29c0,0.08,0,0.13,0.11,0.13v0.23h-0.09c-0.13-0.01-0.23-0.11-0.24-0.24v-0.29c-0.11,0.17-0.25,0.31-0.43,0.41
	C60.31,13.68,60.11,13.72,59.9,13.7z M59.95,13.48c0.1,0,0.2-0.02,0.29-0.06c0.1-0.04,0.19-0.09,0.28-0.15
	c0.09-0.06,0.16-0.14,0.23-0.22c0.06-0.08,0.1-0.17,0.11-0.27v-0.86c-0.04-0.09-0.09-0.18-0.16-0.26c-0.06-0.09-0.14-0.16-0.23-0.22
	c-0.09-0.06-0.18-0.11-0.28-0.15c-0.09-0.04-0.19-0.05-0.29-0.05c-0.14,0-0.28,0.03-0.41,0.09c-0.12,0.07-0.22,0.15-0.31,0.26
	c-0.09,0.1-0.16,0.23-0.2,0.36c-0.05,0.13-0.07,0.27-0.07,0.41c0,0.15,0.03,0.29,0.08,0.43c0.05,0.13,0.13,0.25,0.22,0.35
	c0.1,0.1,0.21,0.18,0.33,0.25c0.13,0.07,0.27,0.12,0.41,0.13V13.48z M63.78,13.7v-3.55h0.26v3.31h2.11v0.24H63.78z M67.47,13.7
	c-0.11,0-0.22-0.02-0.33-0.06c-0.1-0.04-0.19-0.1-0.27-0.17c-0.08-0.07-0.14-0.16-0.19-0.26c-0.04-0.1-0.06-0.2-0.06-0.31
	c0-0.11,0.03-0.22,0.08-0.31c0.05-0.1,0.13-0.18,0.22-0.24c0.1-0.07,0.22-0.13,0.34-0.16c0.14-0.04,0.29-0.06,0.44-0.06
	c0.14-0.01,0.28-0.01,0.42,0c0.13,0.02,0.27,0.05,0.39,0.1v-0.26c0.01-0.21-0.06-0.42-0.21-0.58c-0.15-0.15-0.36-0.23-0.57-0.22
	c-0.14,0-0.27,0.03-0.4,0.08c-0.16,0.06-0.3,0.13-0.44,0.23l-0.11-0.09c0.29-0.22,0.64-0.34,1-0.34c0.51-0.04,0.96,0.34,1,0.85
	c0,0.05,0,0.1,0,0.15v1.27c0,0.08,0,0.13,0.1,0.13v0.25h-0.1c-0.06,0-0.12-0.02-0.16-0.07c-0.04-0.04-0.07-0.1-0.07-0.16v-0.21
	c-0.13,0.15-0.28,0.27-0.46,0.36C67.89,13.69,67.68,13.72,67.47,13.7z M67.47,13.5c0.18,0,0.36-0.04,0.53-0.11
	c0.15-0.06,0.28-0.16,0.38-0.29c0.05-0.06,0.07-0.13,0.08-0.2v-0.46c-0.12-0.04-0.25-0.08-0.38-0.1c-0.13-0.02-0.27-0.02-0.4,0
	c-0.12-0.02-0.24-0.02-0.36,0c-0.1,0.02-0.19,0.06-0.27,0.11c-0.07,0.04-0.14,0.11-0.18,0.18c-0.04,0.07-0.06,0.16-0.06,0.24
	c-0.01,0.08-0.01,0.17,0,0.25c0.03,0.07,0.08,0.14,0.14,0.19c0.06,0.06,0.13,0.1,0.21,0.13c0.11,0.06,0.23,0.1,0.36,0.1L67.47,13.5z
	 M70.99,11.32c-0.22,0.01-0.43,0.08-0.61,0.21c-0.18,0.14-0.31,0.33-0.37,0.54v1.63h-0.23v-2.6h0.24v0.6
	c0.08-0.17,0.21-0.32,0.36-0.44c0.14-0.11,0.3-0.18,0.48-0.2h0.15L70.99,11.32z M72.63,13.7c-0.17,0-0.34-0.04-0.49-0.11
	c-0.15-0.08-0.28-0.18-0.39-0.3c-0.11-0.13-0.19-0.27-0.25-0.43c-0.06-0.16-0.09-0.32-0.09-0.49c0-0.17,0.02-0.35,0.08-0.51
	c0.06-0.16,0.14-0.3,0.25-0.43c0.1-0.13,0.23-0.23,0.38-0.3c0.15-0.07,0.32-0.11,0.49-0.11c0.21,0,0.42,0.06,0.59,0.18
	c0.17,0.12,0.31,0.26,0.43,0.43V11.1h0.23v2.6c0,0.16-0.03,0.32-0.1,0.46c-0.06,0.13-0.16,0.25-0.27,0.34
	c-0.12,0.09-0.25,0.15-0.39,0.2c-0.15,0.04-0.3,0.06-0.46,0.06c-0.14,0.02-0.27,0.02-0.41,0c-0.11-0.03-0.21-0.07-0.31-0.12
	c-0.1-0.05-0.18-0.11-0.25-0.19c-0.07-0.07-0.13-0.16-0.18-0.25l0.16-0.11c0.1,0.17,0.24,0.3,0.42,0.39
	c0.18,0.08,0.37,0.12,0.57,0.12c0.13,0,0.25-0.02,0.37-0.06c0.11-0.03,0.22-0.08,0.31-0.16c0.09-0.07,0.16-0.16,0.21-0.27
	c0.05-0.12,0.08-0.24,0.08-0.37v-0.57c-0.11,0.17-0.25,0.31-0.42,0.41C73.02,13.67,72.83,13.71,72.63,13.7z M72.69,13.49
	c0.11,0,0.22-0.03,0.32-0.07c0.1-0.04,0.2-0.09,0.29-0.16c0.08-0.07,0.15-0.14,0.21-0.22c0.05-0.08,0.08-0.16,0.1-0.25v-0.86
	c-0.04-0.1-0.09-0.19-0.16-0.27c-0.06-0.09-0.14-0.16-0.23-0.22c-0.08-0.06-0.17-0.11-0.27-0.14c-0.1-0.04-0.2-0.05-0.3-0.05
	c-0.14,0-0.29,0.03-0.42,0.09c-0.12,0.07-0.22,0.16-0.31,0.26c-0.08,0.11-0.15,0.24-0.19,0.37c-0.05,0.13-0.07,0.26-0.07,0.4
	c0,0.15,0.03,0.29,0.08,0.43c0.05,0.13,0.13,0.25,0.22,0.35c0.09,0.11,0.2,0.19,0.33,0.25c0.12,0.07,0.26,0.11,0.4,0.12L72.69,13.49
	z M75.99,13.7c-0.18,0-0.35-0.04-0.51-0.11c-0.31-0.14-0.56-0.4-0.67-0.72c-0.07-0.17-0.1-0.35-0.1-0.53c0-0.18,0.03-0.35,0.1-0.51
	c0.06-0.16,0.14-0.31,0.26-0.43c0.12-0.12,0.25-0.21,0.4-0.28c0.16-0.08,0.33-0.11,0.51-0.11c0.17,0,0.34,0.04,0.5,0.11
	c0.16,0.07,0.29,0.17,0.41,0.29c0.11,0.12,0.2,0.26,0.26,0.42c0.07,0.16,0.1,0.33,0.1,0.51v0.07l0,0h-2.28
	c0.01,0.14,0.04,0.29,0.1,0.42c0.06,0.12,0.13,0.23,0.23,0.33c0.09,0.09,0.2,0.17,0.32,0.22c0.12,0.05,0.25,0.08,0.38,0.08
	c0.09,0.01,0.18,0.01,0.27,0c0.08-0.02,0.16-0.06,0.24-0.1c0.08-0.04,0.14-0.1,0.2-0.16c0.05-0.06,0.1-0.13,0.13-0.2l0.22,0.06
	c-0.04,0.1-0.09,0.18-0.16,0.26c-0.07,0.08-0.16,0.15-0.25,0.2c-0.1,0.06-0.2,0.1-0.31,0.13C76.23,13.68,76.11,13.7,75.99,13.7z
	 M76.99,12.25c-0.01-0.14-0.05-0.29-0.1-0.42c-0.06-0.12-0.14-0.23-0.23-0.32c-0.09-0.1-0.2-0.17-0.32-0.22
	c-0.12-0.05-0.25-0.08-0.38-0.08c-0.13,0-0.26,0.03-0.38,0.08c-0.12,0.05-0.23,0.12-0.32,0.22c-0.09,0.09-0.17,0.21-0.22,0.33
	c-0.06,0.13-0.09,0.27-0.1,0.41L76.99,12.25z M77.99,13.7v-0.42h0.22v0.42H77.99z"/>
<path class="st1" d="M0.17-27.58v-10.64h4.34c0.42,0,0.83,0.09,1.2,0.27c0.38,0.18,0.72,0.43,1,0.74c0.26,0.3,0.47,0.63,0.62,1
	c0.14,0.39,0.2,0.8,0.18,1.21c0,0.41-0.07,0.82-0.21,1.21c-0.14,0.37-0.34,0.71-0.6,1c-0.25,0.31-0.56,0.57-0.92,0.76
	c-0.37,0.18-0.77,0.27-1.18,0.27H0.47v4.18H0.17z M0.47-32.06h4.14c0.38,0.01,0.75-0.07,1.09-0.24c0.32-0.16,0.6-0.39,0.82-0.67
	c0.22-0.29,0.39-0.61,0.51-0.95c0.12-0.35,0.18-0.71,0.18-1.08c0-0.38-0.07-0.75-0.21-1.1c-0.14-0.34-0.33-0.66-0.58-0.93
	c-0.25-0.27-0.54-0.49-0.86-0.65c-0.31-0.15-0.65-0.23-1-0.24h-4L0.47-32.06z M9.46-27.58v-10.64h4.32c0.42,0,0.83,0.09,1.2,0.27
	c0.36,0.18,0.69,0.43,0.95,0.74c0.26,0.29,0.47,0.63,0.62,1c0.15,0.39,0.23,0.8,0.23,1.21c0,0.4-0.07,0.8-0.2,1.18
	c-0.12,0.36-0.31,0.7-0.55,1c-0.24,0.29-0.53,0.53-0.86,0.72c-0.34,0.18-0.72,0.29-1.11,0.32l2.72,4.2h-0.36l-2.7-4.18H9.78v4.18
	H9.46z M9.78-32.06h4.14c0.36,0.01,0.72-0.08,1.05-0.24c0.31-0.17,0.59-0.4,0.81-0.68c0.23-0.28,0.4-0.6,0.52-0.94
	c0.12-0.35,0.18-0.71,0.18-1.08c-0.01-0.74-0.29-1.45-0.79-2c-0.24-0.27-0.54-0.49-0.86-0.65c-0.32-0.17-0.68-0.26-1.05-0.27h-4
	V-32.06z M23.28-27.5c-0.69,0.01-1.38-0.15-2-0.47c-0.6-0.3-1.13-0.71-1.57-1.21c-0.44-0.51-0.78-1.1-1-1.73
	c-0.49-1.29-0.49-2.71,0-4c0.23-0.63,0.57-1.21,1-1.73c0.45-0.51,1-0.92,1.62-1.22c0.61-0.29,1.27-0.44,1.95-0.44
	c0.69,0,1.38,0.16,2,0.47c0.6,0.31,1.13,0.73,1.57,1.24c0.43,0.52,0.77,1.1,1,1.73c0.49,1.29,0.49,2.71,0,4
	c-0.25,0.64-0.61,1.22-1.07,1.73c-0.44,0.49-0.98,0.9-1.57,1.19C24.61-27.65,23.95-27.5,23.28-27.5z M18.62-32.9
	c0,0.65,0.12,1.3,0.35,1.91c0.24,0.6,0.57,1.16,1,1.64c0.41,0.47,0.91,0.86,1.47,1.13c0.58,0.28,1.22,0.43,1.87,0.42
	c0.66,0.01,1.31-0.15,1.9-0.45c0.56-0.28,1.06-0.68,1.47-1.16c0.41-0.48,0.72-1.04,0.94-1.63c0.23-0.59,0.34-1.22,0.34-1.86
	c0-1.3-0.47-2.57-1.33-3.55c-0.43-0.47-0.94-0.85-1.51-1.13c-1.18-0.57-2.55-0.57-3.73,0c-0.57,0.29-1.07,0.69-1.48,1.18
	c-0.41,0.48-0.74,1.04-0.95,1.64C18.74-34.17,18.62-33.54,18.62-32.9z M30.44-27.58v-10.64h3.42c0.75-0.02,1.5,0.12,2.19,0.42
	c0.6,0.25,1.13,0.64,1.56,1.13c0.42,0.49,0.74,1.07,0.93,1.69c0.21,0.67,0.32,1.36,0.31,2.06c0.01,0.75-0.11,1.49-0.35,2.2
	c-0.22,0.62-0.56,1.19-1,1.68c-0.44,0.47-0.97,0.84-1.57,1.08c-0.66,0.26-1.36,0.39-2.07,0.38H30.44z M38.55-32.92
	c0.01-0.68-0.1-1.36-0.31-2c-0.19-0.58-0.5-1.12-0.9-1.58c-0.42-0.43-0.92-0.77-1.48-1c-0.63-0.26-1.32-0.38-2-0.37h-3.08v10h3.12
	c0.69,0.01,1.37-0.12,2-0.38c0.56-0.24,1.06-0.6,1.46-1.05c0.4-0.47,0.7-1.01,0.89-1.59C38.46-31.55,38.56-32.23,38.55-32.92z
	 M45.28-27.8c0.69,0.03,1.38-0.13,2-0.45c0.51-0.28,0.93-0.68,1.24-1.17c0.31-0.5,0.54-1.06,0.65-1.64
	c0.12-0.61,0.19-1.22,0.19-1.84v-5.32h0.3v5.32c0,0.67-0.08,1.34-0.22,2c-0.13,0.61-0.38,1.2-0.73,1.72
	c-0.34,0.5-0.8,0.91-1.34,1.19c-1.32,0.61-2.84,0.61-4.16,0c-0.54-0.29-1.01-0.7-1.35-1.21c-0.35-0.53-0.59-1.11-0.72-1.73
	c-0.14-0.66-0.21-1.33-0.21-2v-5.29h0.3v5.32c0,0.63,0.07,1.25,0.19,1.87c0.11,0.58,0.34,1.14,0.65,1.64
	c0.31,0.48,0.74,0.88,1.25,1.15C43.93-27.93,44.6-27.78,45.28-27.8z M51.67-32.98c0-0.65,0.12-1.29,0.34-1.9
	c0.23-0.62,0.57-1.2,1-1.7c0.43-0.51,0.95-0.93,1.55-1.23c0.66-0.33,1.4-0.5,2.14-0.49c0.85-0.03,1.69,0.2,2.41,0.66
	c0.64,0.41,1.15,0.99,1.47,1.68l-0.29,0.09c-0.19-0.37-0.43-0.7-0.72-1c-0.27-0.26-0.57-0.48-0.9-0.65c-0.31-0.17-0.65-0.29-1-0.36
	c-0.33-0.08-0.66-0.12-1-0.12c-0.69-0.02-1.38,0.14-2,0.45c-0.57,0.28-1.07,0.68-1.47,1.16c-0.4,0.48-0.71,1.03-0.91,1.63
	c-0.21,0.58-0.31,1.2-0.31,1.82c-0.01,0.68,0.12,1.36,0.37,2c0.23,0.6,0.57,1.16,1,1.64c0.42,0.47,0.93,0.85,1.5,1.13
	c0.57,0.28,1.2,0.42,1.84,0.42c0.37-0.01,0.73-0.07,1.09-0.17c0.36-0.08,0.72-0.21,1.05-0.38c0.37-0.18,0.7-0.41,1-0.69
	c0.3-0.29,0.56-0.63,0.76-1l0.28,0.08c-0.18,0.4-0.42,0.75-0.73,1.06c-0.3,0.31-0.63,0.57-1,0.78c-0.75,0.42-1.59,0.63-2.45,0.63
	c-0.7,0.01-1.38-0.16-2-0.48c-0.6-0.31-1.14-0.73-1.57-1.25c-0.44-0.52-0.77-1.11-1-1.75C51.84-31.57,51.69-32.27,51.67-32.98z
	 M70.03-37.92h-4.08v10.34h-0.3v-10.34h-4.08v-0.3h8.46V-37.92z M77.93-36.82c-0.36-0.41-0.81-0.73-1.31-0.94
	c-0.52-0.18-1.08-0.26-1.63-0.25c-0.53-0.01-1.06,0.04-1.57,0.17c-0.39,0.11-0.75,0.29-1.07,0.54c-0.27,0.21-0.48,0.49-0.61,0.8
	c-0.14,0.33-0.2,0.69-0.2,1.05c-0.02,0.34,0.05,0.69,0.2,1c0.14,0.26,0.35,0.48,0.6,0.64c0.31,0.2,0.65,0.35,1,0.45
	c0.42,0.13,0.93,0.25,1.52,0.37c0.59,0.12,1.13,0.25,1.61,0.39c0.46,0.09,0.9,0.25,1.31,0.46c0.32,0.19,0.58,0.46,0.77,0.78
	c0.18,0.36,0.26,0.77,0.23,1.17c0.04,0.8-0.34,1.55-1,2c-0.83,0.5-1.78,0.74-2.75,0.69c-0.77,0.01-1.53-0.13-2.25-0.4
	c-0.71-0.28-1.36-0.71-1.9-1.25l0.23-0.2c0.49,0.53,1.09,0.95,1.76,1.22c0.69,0.26,1.43,0.38,2.17,0.37
	c0.87,0.06,1.74-0.13,2.51-0.54c0.61-0.39,0.96-1.07,0.92-1.79c0.01-0.35-0.06-0.69-0.21-1c-0.15-0.29-0.37-0.54-0.64-0.72
	c-0.34-0.22-0.72-0.4-1.11-0.51c-0.52-0.16-1.05-0.29-1.59-0.39c-0.59-0.11-1.12-0.22-1.57-0.35c-0.41-0.1-0.8-0.26-1.16-0.48
	c-0.3-0.19-0.54-0.45-0.71-0.76c-0.17-0.34-0.25-0.73-0.24-1.11c-0.01-0.42,0.08-0.84,0.26-1.22c0.18-0.35,0.44-0.66,0.75-0.9
	c0.35-0.26,0.75-0.46,1.17-0.58c0.5-0.13,1.02-0.2,1.54-0.19c0.62-0.02,1.24,0.08,1.82,0.29c0.53,0.22,1.01,0.56,1.39,1L77.93-36.82
	z M96.54-11.87H-0.22v0.2h96.76V-11.87z"/>
</svg>
