<?xml version="1.0" encoding="UTF-8"?>
<svg enable-background="new 0 0 657.07 535.43" version="1.1" viewBox="0 0 657.07 535.43" xml:space="preserve" xmlns="http://www.w3.org/2000/svg">
<style type="text/css">
	.st0{fill:none;stroke:#ACA59C;stroke-width:0.3;stroke-miterlimit:10;}
	.st1{fill:none;stroke:#ACA59C;stroke-width:0.15;stroke-miterlimit:10;}
</style>
<path class="st0" d="m242.11 112.14-2.68-4.82s-7.69-37.36 24.01-68.2c0 0 33.93-34.67 66.98-37.76s49.05-1.85 78.72 22.36c0 0 39.67 36.89 48.33 48.89 0 0 8.67 11.08 3.67 22.87l-0.33 5.05 1.89 18.82 6.45 24.65 4 9.13s3.67 3.81 9-1.69c0 0-0.67 6.15-4 8.49 0 0 14.67 3.34 20.33-3.99 0 0-2.33 8.83-23.67 7.92 0 0 17 13.51 17.67 21.96 0 0-8-14.05-15.67-13.63 0 0 13.67 22.58 6.67 32.33 0 0-2-7.91-5.67-7.91l-0.33 7.91s-3-14.36-11.33-14.47c0 0 4.67 9.72 3.33 14.47l-5.33-5.83-5.07 3.08m10.06-57.77c1-4.61 15 5.51 15 5.51 9.33 2.57 14.33-12.18 14.33-12.18 8.33-1.95 12.36 18.61 12.36 18.61 1.02-10-8.69-26.55-8.69-26.55l-1-5.77 2-6.26c2-11.58-15-31.92-15-31.92-0.67-3.83 4.91-0.48 4.91-0.48-4.09-3.65-8.24-1.15-8.24-1.15-10.89-7.46-22.13 4.72-22.13 4.72m-239.61 98.17c0.24-6.57 0.48-13.13 0.72-19.7 0.06-1.53 0.11-3.06 0.17-4.59m-59.31-36.63c6.95 6.72 14.92 12.39 23.54 16.75m-11.08-9.02c8.11 5.76 16.57 11.03 25.32 15.77m-101.45 143.67m-10.25 56.5m186.25-322m88.94 381.54c0.18-3.74 0.13-7.48-0.17-11.21m-29.41 69.18c-1.1 3.48-1.5 7.17-1.15 10.8"/>
<path class="st0" d="m84.31 132.45s6.33 12.5-10.33 15.67m-3-5.34c3.83 0 3-1.67 3-1.67-4.5-7.17-13.67-4.17-13.67-4.17m189.86-85.27c-21.64-35.61-62.69-36.72-62.69-36.72h-5c-74-17.67-89 18.33-89 18.33s51.83 113.33 121.83 109.5m-24.17 26.5c0 4.83 2.17 6.83 2.17 6.83 5.17 10.17 34.83-17.67 34.83-17.67m-20.5-15.44s-3.5-0.55-3 3.28-6.67 7.3-6.67 7.3l-3 2.37s12-7.3 17.17-5.66 7.67-2.92 7.67-2.92m4.46 14.54s-8.3 101.87 48.2 103.04m-25.49-43.5s-0.17-4.67 9.33-1.5 20.33 3.33 19.5-4m-20.74 23.15s4.08-1.49 16.58 7.68c0 0 9.5 5.46 16.25 3.56m-28.26-6.22s-5.17 12.33 9.5 19c0 0 9.84 3.17 18.75-8.33m-15.41 8.73s-3.5 15.68 10.25 21.43m207.5 39.5-35.25-40.75c-29.75-39.75-49.5-36.75-49.5-36.75-22.25-2.5-37.25 8.5-58.75 23.25s-33.25 16.5-33.25 16.5c-32 6.75-44.5-11-44.5-11m-49 84.25c2.75-36-9-50.5-9-50.5m84-11c-18.5 2.75-66.83 49.75-66.83 49.75m190.33-184.33c2.01 4.92 13.04 18.06 13.04 18.06s26.1 37.49 131.42 41.18l27.2 4.03m41 287.81c-2-5.33 11.33-48 11.33-48 18.33-73.33 14-143.63 14-143.63 4-85.62-51.67-90.37-51.67-90.37-5.67-11.67-21.67-4-21.67-4-45 8.33-68.17 45.28-68.17 45.28s-24.33 41.72-24.74 57.05c0 0 1.25 7-7.08 14 0 0-60.33 35-77.67 96.33 0 0-12 16-35.67 20.33 0 0-93.67-11-157.33 22.67 0 0-70.67 26.67-108.67 11.67m88.68-404.88s25.44 68.68 50.22 80.62m137.67 322.26-8.56 3.33-12 7.67c-8 1.33-28.33 13.33-28.33 13.33l-7 4c-14.67 4.67-24.67 11.33-24.67 11.33l345.33 1.33c-1.67-10-64.67-85-64.67-85m-283.66 27.35c5.33 13 35 12.67 35 12.67h15.33c19 0.33 24.67 7.33 24.67 7.33m-75-30.34c-4.33 0-3.33 5.83-3.33 5.83 1.33 7.5 16 4.5 16 4.5 8-1.33 5.33-9 5.33-9l-18-1.33zm172 22.34c-8 2.33-20.67-4.33-20.67-4.33-17-9.33-48.33-16.56-48.33-16.56-6-3.56-15.67-2.77-15.67-2.77h-32.67c-15.67 0.33-21.33 1.33-21.33 1.33-8.67 2-15.33 1.33-15.33 1.33m312.67 56.83c-8.49-9.8-31-7.82-31-7.82l-31.67-0.01c-22 0.67-62.33-24.83-62.33-24.83-11.67-8.17-25.67-5.5-25.67-5.5-14.33 5.67-32.67 2.83-32.67 2.83m-326.41 9.74s0.08-17.01-15.92-36.01l-2.67-10.17m-22.33-2.4c-5 1.42-7.67 13.8-7.67 13.8 1.33 11.68-1.67 15.57-1.67 15.57-2.67 1.77-11.33 11.5-11.33 11.5l-2.67 5.13c-3.33 1.06-7.67 6.72-7.67 6.72-9.33 10.61-12.67 7.78-12.67 7.78-15 8.14-5.33 21.31-5.33 21.31m69.34-231.81s-16.67-5-38.67 61c0 0-21 43.33-38 105l-20.33 64.08m95.06-305.41s-6.05 25.78 6.28 42.73-7.76 33.85-7.76 33.85-13.24 23.73 5.43 42.42m11.66-4.25s-43.9 9.5-39.65 50.13c0 0 19.49 26.21 11.34 40.3s-9.57 20.32-2.84 22.61-2.48 7.54-2.48 7.54l33.62-11.14m241.81-32.86h3.7l6.06 2.67c17.17 9 35.35 4.67 35.35 4.67 15.49-8 5.05-17.67 5.05-17.67 4.04 15-14.48 7.33-14.48 7.33-2.36-2.67-1.35-13-1.35-13l-9.43-4.67c-8.08-5-19.53-4.67-19.53-4.67-12.12-1.67-33.33-8-33.33-8-15.49-7.33-30.81 5.33-30.81 5.33l-28.79 14.33c-10.44 8.67-28.28 13.66-28.28 13.66-14.81-6.01-48.14 14.67-48.14 14.67-42.76 16.67-84.84 19.33-84.84 19.33m298.99-44.31c-4.37-2.67-15.82-5.67-15.82-5.67m-236.63 42.47c12.19-4.54 9.48-20.8-0.19-34.13s-3.33-22.33-3.33-22.33c39-32 20.62-62.83 20.62-62.83s-6.36-27.91-27.5-31.93m203.88 122.09c-10-9.67-33.33-15.33-33.33-15.33m97.25 35.2c-19.75-3.13-36.89-11.1-36.89-11.1-22.64-11.23-33.69-8.77-33.69-8.77m47.99 41.66s-13-7.67-14.67-2l6.21 6m-47.54-38.66-18.67 5m108.54-16.55s-6.54-4.78-11.29-28.4-12.86-28.05-12.86-28.05m-4.38 13.66s12.6 19.43 18.8 21.21m-352.14 126.46s-10.85 12.67-6.76 20.33m474.35-30.16c62.58-38.83 100.75-132.5 100.75-132.5m-120-94.34-33.75 24.78m-89.2-53.65s23.12-9.12 25.2-17.12m-175.3 183.99c-7.38-8.67-48.62-6.21-48.62-6.21m85.17-42.79c-28.17 1.67-35.81 39.67-35.81 39.67m-134.19-362.75s-22.99 24.75-23.62 35.25c0 0-9.72 16.5-8.18 20.5 0 0-0.45 16.64-1.49 17.4m9.91-20.27c-5.88-4.13-8.42 1.13-8.42 1.13m50.36-23.3c-21.69-1.42-27.31 10.54-27.31 10.54m29.62 15c-17.26 0.12-21.63 6.88-21.63 6.88m26.88-7.63-16.06-3.5c-9.44-2.5-11.69 3.5-11.69 3.5m20.19 0.75c0.81-1.88-0.56-2.25-0.56-2.25m-15.92-1.93s-2.67 5.92 0 8.55m4.79-9.33s-4.06 2.15-1.97 7.8m8.13-2.75c2.24-0.91 0-3.69 0-3.69m-45.43 15.2s3.14 0.43 4.81-0.6m5.34-13.25s7.5 4.5-13.25 21l-8.75 7.75s-7.75 6.75 0 14.75c0 0 3.25 4 8 5s4.45 4.75 4.45 4.75m-9.89-7.36s0.81 3.11 4.19 5.36 2.42 5-1.17 8.81c0 0-7.83 8.19 0.67 16.69 0 0-4.13 7.5 1.25 11.38 0 0 3 2.63-0.63 16.5 0 0-3.75 12.88 13.38 20.25 0 0 4.88 1.75 17.13 2.88 0 0 24.13 1.5 32.75 17.75 0 0 18.12 32.12 14.62 62.37m-73.88-138.38c5-2.13 9.88-0.5 9.88-0.5 4.88 1.75 15 2.2 15 2.2-3.5-0.42-11.75-7.49-11.75-7.49-10.75-8.29-19.35-2.46-19.35-2.46m21.37 8.98c0.15 1.6-10.27 2.65-10.27 2.65-6.25-0.38-7.63 2.13-7.63 2.13m24.63 6.14c-16.13-0.72-25.86 6.48-25.86 6.48m18.11 32.62s77.74-8.13 90.49-19.75m215.08 3.72 5.5-0.01c12.01 0.59 23.49-23.24 23.49-23.24 11.84-25.61-4.14-45.41-4.14-45.41-18.94-23.08-34.27 8.41-34.27 8.41l-5.41 9.28c-40 16-69-71.33-69-71.33l-59.33 21.33s1.83 2.67-0.83 14.83c-2.67 12.17-0.77 26.5 1.45 31.17s5.19 9.33-1.38 28.67c-6.57 19.33-14.74 42 0.26 46.5 0 0 7.83 0.83 13.5-1.17 0 0 4.67 1.5-1.33 11.17 0 0 0.33 10.17 5.83 11.5 0 0 17 8.17 27.33 6.5 0 0 2.33-1.17 2.5 1.17m121.57-86.07c0-4.14-3.55-14.2-3.55-14.2l-6.51-12.43c-2.96-7.69-10.18-2.66-10.18-2.66-3.08 0-9.06 11.12-9.06 11.12m0.01 2.72s0.59 9.54 7.1 7.76m-5.62 5.84c2.96 0.51 2.07 6.29 2.07 6.29 4.14 5.92-2.07 12.2-2.07 12.2 4.73 6.87 22.49-13.73 22.49-13.73 3.85-6.85-5.62-14.38-5.62-14.38m-94.29-1.11c-26-8.15-54.33 0-54.33 0m20.6 16.26s2.06 15.25 22.9 9.9l9.17-2.68m-208.37-145.93c-0.33-0.11-0.67-0.22-1-0.33m4.36-4.08 0.33 0.33m143.67 31.01m-7.66 8.66h0.33m-129-46-0.33 0.33m43.06 423.47c2.3-1.52 3.04-4.53 3.38-7.27 0.76-6.3 0.31-12.75-1.32-18.89m-4.39 27.55c1.26-2.13 2.45-4.33 3.02-6.74 0.79-3.33 0.34-6.83-0.31-10.19-2.1-10.78-6.33-21.13-12.38-30.3m7.63 46.14c1.8-4.13 2.11-8.79 1.62-13.27s-1.76-8.83-3.02-13.16m-2.7 27.99c1.26-15.44-2.19-31.24-9.76-44.76m5.85 44.77c0.68-8.04-0.02-16.19-2.07-23.99m-2.19 25.6c2.23-10.37 2.31-21.21 0.23-31.61m-4.18 32.69c1.9-12.81 0.07-26.16-5.21-37.99m1.17 37.92c2.48-12.16 0.94-25.1-4.31-36.34m-0.94 37.36c1.44-8.23 1.96-16.63 1.55-24.98m-5.82 25.89c2.17-6 1.88-12.65 0.58-18.9s-3.57-12.25-5.3-18.4m0.96 37.1c0.89-10.67-0.44-21.52-3.89-31.66m-0.26 31.98c0.81-4.39 0.96-8.91 0.44-13.35m-6.62 16.59c2.63-5.01 4.15-10.59 4.42-16.24m-9.45 16.91c4.64-11.55 6.49-24.21 5.34-36.6m-12.31 39.8c4.91-7.14 7.59-15.78 7.59-24.44m-13.33 26.46c5.88-5.16 7.85-13.4 8.8-21.16m-3.74-11.57c-2.83 5.37-5.24 10.95-7.21 16.69-1.16 3.39-2.09 7.43 0.03 10.33m39.01-201.42c-1.19-7.09-3.66-13.97-7.26-20.2m128.54-130.72v-0.5m2-0.5m3-1 0.25 0.25m123 52v-0.25"/>
<path class="st1" d="m462.94 87.72c1.62-3.3 3.53-6.53 6.25-9 2.73-2.46 6.38-4.09 10.04-3.71m4.75 3.41c-3.93 0.4-7.87 1.04-11.56 2.46s-7.13 3.67-9.49 6.84m42.84 72.5c1.32-3.57 0.51-7.56-0.63-11.19-1.07-3.4-2.43-6.7-4.06-9.87-0.28-0.55-0.59-1.12-1.1-1.47s-1.28-0.4-1.7 0.05m2.6-14.01c0.69 1.32 1.37 2.65 2.06 3.97 0.47 0.91 0.97 1.86 1.78 2.48 1.02 0.79 2.42 0.97 3.69 0.74s2.45-0.82 3.58-1.45m-10.07-2.26c1.41 5.32 6.55 9.42 12.06 9.62m-40.76 16.14c2.43 0.54 5.11-0.15 6.97-1.81m-1.51 8.67c4.39-1.76 8.48-4.27 12.04-7.39m-11.74 7.31c4.54 0.11 9.1-1.36 12.72-4.1m3.28 16.3c-5.74-2.02-11.37-4.36-16.85-7-0.94-0.45-1.99-0.93-2.99-0.65m-214.21-129.41c-6.61 4.76-10.83 12.67-11.12 20.81m24.93-28.49c-10.36 7.57-20.82 16.32-24.99 28.45m-28.25-35.52c-7.94-2.99-16.27-4.96-24.71-5.83-4.88-0.51-9.9-0.64-14.59 0.81m-70.47 0.6c-8.04 3-14.74 9.4-18.1 17.29m98.87 58.94c1.64 7.37 4.43 14.48 8.23 21m-7.93-21.04c5.12 10 10.7 19.77 16.72 29.26m13.99 41.54c-3.7 13.71-4.55 28.18-2.48 42.23m2.37-42.33c-7.54 11.66-8.54 26.24-9.32 40.1m9.69-40c-2.68 16-3.19 32.36-1.51 48.49m-72.74-98.03c6.33 8.24 13.52 15.82 21.43 22.57m-26.42-27.16c6.1 8.96 13.45 17.08 21.76 24.03m-71.28 95.32c-0.18 0.77-0.39 1.53-0.58 2.29-2.04 7.98-3 16.24-2.85 24.48m2.54-16.75c0.13 9.75 2.4 19.46 6.6 28.25m-6.85 36.18c-5.18 8.74-7.34 19.23-6.04 29.3m10.87 13.25c-10.62 2.77-18.93 10.81-26.72 18.54m8.27-4.94c-7.62 10.05-12.25 22.34-13.16 34.93m12.64 34.49c2.35-2.71 2.31-6.71 1.87-10.27-0.62-5.01-1.76-9.95-3.41-14.72m-2.01 31.93c3.44-2.48 5.99-6.17 7.09-10.27s0.75-8.57-0.98-12.44m71.47-114.97c-1.28-2.18-3.57-3.67-6.01-4.35s-5.03-0.62-7.54-0.25m27.02 8.1c-4.07-2.84-8.18-5.7-12.8-7.51s-9.86-2.49-14.54-0.86m35.89 73.62c1.63-11.49 0.39-23.37-3.57-34.27-1.01-2.78-2.34-5.67-4.86-7.22m6.76 37.27c3.52-11.75 1.3-25.09-5.85-35.06m-20.3 60.01c-1.34 3.26-1.39 6.94-0.68 10.4s2.14 6.71 3.69 9.88m-2.54-21.73c0.71 0.06 0.81 1.04 0.73 1.74-1 8.64 0.83 17.58 5.16 25.12m219.22-265.11c-4.19 7.52-5.92 16.39-4.85 24.94m3.3-23.97c-2.44 5.22-4.59 10.57-6.45 16.02m8.74-18.61c-4.17 10.24-5.43 21.64-3.59 32.54m2.19-29.98c-1.34 5.4-1.98 10.96-1.9 16.52m-105.01-136c-5 5.67-9.48 11.78-13.38 18.25-1.63 2.7-3.19 5.61-3.23 8.75m213.47 32.07c-0.88-2.71 0.12-5.62 0.88-8.37 1.63-5.91 2.14-12.12 1.5-18.22m-2.39 22.99c-0.46-5.84-1.07-11.67-1.82-17.48m-366.36-34.59c10.96 23.63 26.15 45.28 44.63 63.64m-43.14-65.07c7.99 20.45 20.96 38.93 37.46 53.4m-36.25-56.15c6.58 18.42 17.47 35.29 31.55 48.86m-30.18-49.37c14.28 28.96 36.03 54.19 62.57 72.59m-61.4-75.16c6.47 14.36 15.44 27.59 26.37 38.93m-24.64-39.79c13.69 24.38 31.57 46.4 52.6 64.81m-51.2-66.23c0.62 3.59 2.73 6.72 4.86 9.67 7.05 9.78 14.83 19.03 23.26 27.65m80.25 63.37c8.23 16.97 19.03 32.7 31.91 46.48m-23.77-48.55c5.55 16.35 13.59 31.86 23.74 45.83m-14.18-43.13c3.16 14.2 8.3 27.95 15.22 40.75m-13.75-43.11c2.43 13.28 7.33 26.1 14.39 37.6m-82.55-41.5c14.44 13.14 33.02 21.67 52.4 24.06m-50.05-29.39c11.4 9 23.69 16.88 36.63 23.47 3.91 1.99 8.05 3.91 12.45 3.93m-46.5-33.65c12.53 13.69 28.14 24.55 45.33 31.55m-35.55-27.67c11.05 9.06 22.57 17.56 34.5 25.43m-24.88-27.71c6.34 7.01 12.67 14.02 19.01 21.04 1.21 1.34 2.61 2.78 4.41 2.89m40.1-75.78c-10.26-13.29-23.79-24.03-39.06-31.01m36.88 32.86c-10.95-8.4-22.61-15.87-34.81-22.31m35.04 24.59c-12.92-6.8-26.37-12.57-40.19-17.25m40.63 14.66c-15.73-14.05-33.57-25.74-52.73-34.55m51.1 35.99c-2.1-0.62-3.85-2.05-5.55-3.42-12.14-9.78-25.53-18.68-40.74-22.11m45.99 28.41c-4.28-0.49-8.21-2.51-12.17-4.21-6.24-2.7-12.8-4.68-19.49-5.9m30.32 12.43c-4.97-0.58-9.98-0.85-14.99-0.8m14.99 2.87c-7.94 0.86-15.84 2.16-23.63 3.89m21.92-1.18c-4.89 2.66-9.79 5.32-14.68 7.97m1.38 4.77c4.17-2.21 8.1-4.89 11.67-7.98m-137.77-51.9c7.67 12.87 17.37 24.52 28.63 34.4m-27.6-35.48c12.87 17.06 27.89 32.48 44.6 45.8m-42.51-46.79c10.79 14.45 23.11 27.77 36.66 39.67m-34.35-41.24c-0.68 0.93 0.05 2.21 0.77 3.1 9.4 11.69 20.55 21.98 32.96 30.42m-46.68 175.71c-0.62 10.13 0.75 20.38 4.03 29.98m-2.12-30c-0.84 17.21 5.39 33.88 11.53 49.98m-9.66-48.98c-1.03 11.2 0.8 22.66 5.28 32.98m-11.74 55.71c-2.81 9.34-0.5 20.06 5.91 27.4m-2.33-28.09c-3.13 9.35-1.54 20.16 4.15 28.21m2.13-38.58c-5.08 11.62-5.27 25.29-0.52 37.05m3.01-29.66c-3.06 9.61-1.76 20-0.42 29.99m-27.17 117.46c5.66-4.88 9.96-11.33 12.27-18.43m-10.05-5.03c-1.71 3.55-2.8 7.4-3.22 11.32-0.23 2.2-0.01 4.89 1.93 5.95m7.2-97.05c-10.33 8.43-16.05 22.2-14.73 35.47m6.13-20.03c-4.18 6.57-5.88 14.67-4.72 22.37m14.86-26.62c-4.46 6.07-8.3 12.59-11.47 19.42-1.33 2.88-2.57 6.05-1.89 9.15m88.72-76.34c-3.11-11.93-12.69-21.96-24.46-25.62m22.3 28c-3.49-9.55-10.58-17.73-19.53-22.55-1.07-0.58-2.29-1.25-2.56-2.44m19.29 25.25c-3.31-9.23-10.3-17.08-19.09-21.43m18.96 45.87c-0.72-8.28-1.47-16.66-4.27-24.48s-7.93-15.15-15.39-18.82m8.62 81.59c1.33 0.22 2.42-0.98 3.19-2.08 6.03-8.55 9.99-18.56 11.44-28.93m-7.66 23.7c6.51-7.2 9.18-16.98 11.64-26.37m-18.25 33.37c4.26-5.6 7.71-11.81 10.22-18.39m-11.78 20.14c4.68-5.96 7.95-13.02 9.47-20.45m-26.7-103.81c-1.17-9.72-4.9-19.11-10.72-26.98m5.53 21.98c-0.98-8.45-3.72-16.69-8.01-24.03m2.88 29.51c-0.93-11.44-4.02-22.7-9.06-33m115.84-69.66c-0.72 6.47-0.83 13.01-0.34 19.5m1.63-21.01c-1.14 9.62-1.16 19.37-0.08 29m1.1-28.5c-0.33 10.06 0.15 20.14 1.45 30.12m0.41-27.99c-0.65 5.73-0.75 11.52-0.28 17.26m2.11-15.88c-0.66 10.57-0.47 21.2 0.55 31.75m1.27-29.88c0.12 6.77 0.65 13.54 1.57 20.25m0.67-5.74c-0.16-4.25-0.33-8.5-0.49-12.76m1.93 1.76c-0.03 3.59 0.19 7.19 0.67 10.75m1.88-3.51c-0.23-1.97-0.54-3.93-0.92-5.87m2 1.13c-0.05 0.59 0.04 1.2 0.26 1.75m2.57 73.86c4.33 6.71 10.36 12.32 17.36 16.15m-13.53-19.28c3.6 7.8 9.06 14.74 15.82 20.05m-15.36-24.53c3.29 9.73 9.47 18.47 17.56 24.81m-23.91-183.69c-2.14 10.28-1.98 21.04 0.47 31.25m4.77-43c-4.52 10.38-6.05 22.03-4.36 33.22m7.12-35.21c-4.24 10.58-6.04 22.12-5.22 33.49m15.04-48.36c-9.3 14.2-13.96 31.39-13.11 48.35m13.02-36.99c-7.7 10.43-11.66 23.56-11.02 36.51m13.04-34c-7.66 8.98-11.73 20.94-11.13 32.73m20.45-39.66c-10.01 10.75-16.62 24.62-18.67 39.16m20.95-35.88c-9.56 9.39-16.22 21.7-18.85 34.84m20.04-33.64c-8.7 8.95-14.77 20.42-17.28 32.65m21.97-36.21c-6.2 6.64-11.42 14.18-15.44 22.33-2.04 4.13-3.8 8.58-3.58 13.18m16.13-30.17c-7.01 8.15-11.67 18.29-13.28 28.92m28.58-44.83c-12.87 11.16-21.76 26.82-24.74 43.6m16.83-29.28c-4.59 5.23-8.43 11.12-11.37 17.43-1.59 3.4-2.94 7.09-2.61 10.83m21.06-31.92c-9.48 7.77-16.16 18.89-18.57 30.92m29.25-34.01c-5.65 4.42-11.33 8.87-16.15 14.18s-8.79 11.58-10.43 18.56m33.08-32.74c-12.4 8.58-24.95 18.35-30.91 32.2m30.45-26.14c-5.26 3.25-10.54 6.51-15.26 10.5s-8.9 8.76-11.46 14.38m29.68-22.69c-6.51 4.14-13.05 8.31-18.75 13.52-2.26 2.07-4.43 4.37-5.53 7.22m28.07-21.69c-7.19 5.43-14.52 11.02-19.49 18.53m31.53-23.69c-9.43 5.32-17.81 12.47-24.55 20.94m34.96 56.18c5.75 5 12.12 9.29 18.91 12.72 4.54 2.3 9.74 4.25 14.62 2.81m-22.23-13.09c4.65 4.09 9.72 7.7 15.1 10.78 2.25 1.29 4.81 2.52 7.34 1.97m-18.53-20.32c4.93 7.89 11.18 14.95 18.39 20.82m-6.82-24.95c0.96 5.79 2.28 11.53 3.93 17.16 0.76 2.6 1.62 5.23 3.15 7.46m-14-27.64c1.84 8.56 5.79 16.67 11.39 23.4 1.1 1.32 2.26 2.59 3.26 3.98m-2.48-15.86c0.39 5.52 1.02 11.01 1.87 16.48m8.41-24.95c-4.63 7.35-7.47 15.82-8.21 24.47m108.44-49.94c-7.05 4.6-12.65 11.38-15.83 19.17m29.28-18.26c-10.63 4.62-21.53 10.29-27.7 20.1-0.46 0.73-0.87 1.73-0.3 2.37m23.51-25.95c-8.07 4.86-16.39 9.96-21.69 17.75-1.34 1.98-2.48 4.14-2.93 6.49m10.38-21.73c-4.88 4.96-10.01 10.38-11.12 17.25m8.36-22.26c-3.86 5.43-7.84 11.16-8.68 17.78m2.72-15c-1.86 2.9-2.94 6.29-3.12 9.72m1.79-13.77c-1.37 2.27-2.15 4.88-2.25 7.53m2.84-11.97c-1.47 1.9-2.56 4.11-3.16 6.44m32.88 8.31c-7.01 2.46-13.68 5.87-19.79 10.11-4.03 2.8-7.99 6.19-9.62 10.82m21.6-11.61c-4 1.63-8.21 2.8-12.03 4.81s-7.36 5.03-8.8 9.1m19.89-8.72c-5.41 2.12-10.87 4.28-15.65 7.59-1.61 1.12-3.17 2.4-4.16 4.09m22.32-8.4c-7.74 2.12-15.9 4.49-21.41 10.33m17.14-4.14c-4.49 0.92-9.07 1.87-13.01 4.2-1.41 0.84-2.8 1.96-3.23 3.53m28.25-5.38c-8.11 0.69-16.11 2.58-23.67 5.6-1.46 0.58-2.96 1.25-3.93 2.49m23.34-3.19c-7.74 0.41-15.4 2.14-22.56 5.1m-35.36 34.84c4.47 6.81 9.7 13.11 15.58 18.75 2.88 2.76 6.02 5.42 9.81 6.64m-21.87-30.63c4.41 12.09 12.19 22.94 22.24 30.98m-15.31-39.45c2.41 14.02 7.79 27.52 15.67 39.37m-3.57-31.12c-0.75 10.59 0.37 21.32 3.3 31.53m24.63 1.74c0.7-8.5-1.4-17.21-5.89-24.46m5.55 24.91c-1.55-8.05-4.28-15.88-8.06-23.16m1.61 21.12c-0.12-0.71-0.18-1.42-0.26-2.13-0.64-5.69-2.66-11.22-5.84-15.98m-1.85 19.99c0.33-0.88 0.03-1.85-0.27-2.74-1.93-5.62-4.09-11.15-6.5-16.58m6.96 19.26c-1.67-4.67-4.22-9.03-7.47-12.78m7.98-29.93c2.94-1.68 5.79-3.51 8.55-5.47 1.61-1.15 3.34-2.6 3.45-4.57m-16.79 9.16c5.79-1.09 11.26-3.82 15.62-7.79m-8.82 11.22c2.28-1.33 4.49-2.83 6.27-4.79 1.77-1.95 3.09-4.41 3.29-7.04m-2.86 9.32c6.66 1.43 13.96-0.51 19.02-5.06m-101.44-142.57c-7.01-3.76-15.16-5.05-23.1-4.66s-15.73 2.39-23.27 4.91c-14.17 4.73-27.7 11.34-40.15 19.59m92.5-15.36c-14.2-5.7-30.38-4.82-45.04-0.42s-28.07 12.12-41.17 20.02m90.99-16.16c-21.29-2.56-43.5 3.57-60.46 16.68m64.2-13.2c-8.09-2.06-16.73-0.83-24.59 1.98s-15.08 7.13-22.23 11.42m52.08-8.59c-14.51-1.6-29.59 2.67-41.11 11.64m45.82-7.05c-1.09-1.62-3.33-1.89-5.28-1.93-6.92-0.13-13.87 0.71-20.55 2.51m-266.38 60.1c0.03-2.57-0.47-5.14-1.47-7.51m14.15 21.18c-1.52-1.52-1.94-3.78-2.73-5.77-1.35-3.39-3.85-6.16-6.3-8.85m-40.31-45.71c1.6-0.74 3.2-1.49 4.8-2.23 1.2-0.56 2.55-1.31 2.78-2.61m2.78 11.5c0.32-1.27 0.63-2.55 0.68-3.85 0.05-1.31-0.2-2.66-0.92-3.74-0.78-1.17-2.07-1.96-2.76-3.19m7.75 17.12c0.16-2.56-0.43-5.16-1.67-7.4m23.59-46.38c-3.18 0.83-6.05 2.53-8.87 4.21-1.65 0.98-3.3 1.97-4.94 2.95m19.44-4.58c1.67-0.6 3.16-1.68 4.24-3.09m66 119.12c0.35-3.02 0.05-6.12-0.86-9.02m17.66 38.19c0.71-2.97-0.01-6.25-1.89-8.66m3.44 4.75c0.48 0.68 0.48 1.59 0.45 2.42-0.07 2.01-0.11 4.23 1.16 5.79m-41.55-145.45c1.47 0.42 2.91-0.63 4.08-1.61 1.8-1.5 3.78-3.05 6.11-3.2m-15 0.3c-4.39 0.56-8.78 1.12-13.16 1.69m74.25 21.69c-1.93-2.35-4.65-4.05-7.61-4.75-1.3-0.31-2.63-0.43-3.93-0.74s-2.59-0.84-3.5-1.81m23.78 17.91c-2.02-3.25-5.21-5.76-8.85-6.95m-15.18-11.53c0.65 0.79 1.67 1.28 2.7 1.28m68.67-17.3c-3.21 1.48-6.1 3.65-8.43 6.31s-4.11 5.81-6.68 8.24m38.77-22.56c-5.21 1.61-10.09 4.25-14.29 7.72m81.62-1.33c-19.72-2.96-40.44 1.33-57.37 11.88m53.23-13.62c-17.58-2.01-35.62 0.15-52.23 6.24m46.22-8.78c-16.84-1.29-33.95 1.23-49.7 7.31m78.39 8.9c-22.28-1.53-45.46 2.22-64.34 14.15m73.22-5.83c-7.8-1.47-15.9-0.5-23.53 1.66-7.64 2.15-14.89 5.47-22.11 8.76m57.15 0.48c-4.31-2.14-9.22-2.87-14.03-2.75s-9.56 1.06-14.26 2.12m-2.59-28.45c-3.89-3.44-8.88-5.62-14.05-6.15-2.13-0.22-4.33-0.17-6.33-0.94m28.86 15.6c3.99 3.27 8.88 5.43 13.98 6.16m35.42 35.07c-0.34-2.1-1.92-3.83-3.75-4.9-1.83-1.08-3.92-1.61-5.97-2.2-2.04-0.58-4.12-1.25-5.81-2.54m39.46 21.5c-1.38-0.16-2.76 0.46-3.82 1.37s-1.85 2.07-2.62 3.23c-1.48 2.2-2.95 4.4-4.43 6.59-1.03 1.53-2.05 3.06-2.93 4.67m-4.37 29.51c1.98-3 2.16-6.81 2.03-10.4s-0.48-7.28 0.64-10.7m4.62 35.17c0.2-2.06-0.07-4.17-0.79-6.12-0.57-1.54-1.42-2.97-1.94-4.53m-0.9 23.49c1.28-1.64 2.41-3.39 3.36-5.23 0.93-1.79 1.71-3.84 1.18-5.79m39.27-20.31c0.37-2.3-1.26-4.39-2.79-6.14-1.09-1.25-2.18-2.51-3.27-3.76-0.39-0.45-0.81-1.09-0.48-1.6m5.85 23.34c-0.8-4.47-0.2-9.32-2.31-13.35m-14.38-26.52c0.42 0.94 0.85 1.91 1.56 2.66 0.75 0.79 1.76 1.29 2.78 1.68 2.25 0.86 4.66 1.29 7.06 1.25m3.64 9.44c-0.18-1.38-0.43-2.9-1.49-3.8-1.01-0.86-2.45-0.92-3.77-1.03s-2.8-0.4-3.53-1.51m3.83 44.85c-1.7 2.92-2.46 6.39-2.13 9.75 0.11 1.16 0.37 2.34 1.06 3.27m-13.13-1.92c2.81 0.33 5.41 2.38 8.18 1.82m-16.98-3.44c-0.4-0.94-0.9-1.83-1.51-2.66-0.54-0.73-1.17-1.42-1.99-1.8-0.82-0.39-1.85-0.42-2.58 0.11m7.83 29.31c1.44 2.98 3.31 5.76 5.53 8.22 1.09 1.2 2.32 2.37 3.87 2.84m5 20.15c-0.03-2.08-0.08-4.18-0.55-6.21s-1.36-4.01-2.86-5.45c-0.74-0.71-1.61-1.28-2.34-2.01-1-1-1.69-2.3-1.98-3.68m12.6-0.31c0.12-1.43 0.21-2.96-0.54-4.18-0.71-1.15-2.02-1.75-3.21-2.39-2.04-1.1-3.91-2.5-5.55-4.14m0.61 7.37c0.04-1.65-0.39-3.32-1.23-4.74-0.9-1.53-2.24-2.76-3.56-3.96m-0.24 3.54c-1.08-2.38-2.95-4.39-5.24-5.64m-10.73 18.13c0.74 3.69 3.5 6.68 6.63 8.77m1.88 8.58c1.9-3.23 1.93-7.48 0.07-10.73m-3.03-4.32c0.13 1.02 0.27 2.03 0.4 3.05 0.24 1.82 0.52 3.74 1.67 5.19m5.65 3.62c0.32-2.57-0.39-5.26-1.95-7.33m5.81 10.51c-1.04-0.2-1.55-1.44-1.52-2.5 0.04-1.06 0.42-2.1 0.36-3.16-0.07-1.17-0.72-2.3-1.7-2.94m-13.87 4.6c-0.01-0.63-0.03-1.28-0.26-1.86-0.46-1.13-1.62-1.79-2.7-2.35m-38.51-16.48c0.81-2.24 0.77-4.79-0.12-7-1.62-4.03-5.81-6.76-6.91-10.96m-0.21 0.84c1.27 5.2 0.54 10.69 1.37 15.98 0.26 1.65 0.71 3.35 1.86 4.56m-2.7-17.91c-0.52 5.01-0.75 10.05-0.68 15.09 0.03 2.07 0.16 4.29 1.4 5.95m12.26-1.86c-0.97-3.79-1.98-7.67-4.2-10.89-2.62-3.79-6.82-6.51-8.52-10.8m0.32-0.14c0.46 4.07 1.54 8.08 3.19 11.83m-115.05-78.01c0.33-3.08-0.1-6.24-1.26-9.12-0.67-1.67-1.57-3.23-2.42-4.81-0.89-1.65-1.72-3.33-2.5-5.03m7.92 19.26c3.24 6.34 3.09 14.26 7.48 19.87m2.66-0.76c1.79 1.57 2.76 3.88 3.47 6.16s1.26 4.64 2.45 6.71c1.2 2.06 3.22 3.83 5.61 3.97m11.3 17.43c-0.05-1.63-0.12-3.28-0.53-4.87-0.41-1.58-1.2-3.11-2.47-4.14-0.68-0.56-1.48-0.95-2.2-1.45-1.18-0.83-2.15-1.97-2.77-3.27m16 16.89c-0.15-0.94-0.33-1.88-0.52-2.82-0.25-1.22-0.61-2.53-1.62-3.25-0.9-0.64-2.22-0.71-2.85-1.62m16.85 8.29c0.49-0.83 0.07-1.95-0.67-2.56s-1.72-0.83-2.66-1.04c-0.32-0.07-0.63-0.14-0.95-0.21m-115.22-50.28c0.41 4.27 0.51 8.57 0.31 12.86-0.11 2.31-0.22 4.89 1.3 6.63m3.71-22.96c-0.86 0.97-1.56 2.09-2.04 3.3m40.99-17.21c-4.03 1.41-7.55 4.25-9.77 7.9m12.63-7.83c1.8-0.79 3.51-1.78 5.09-2.95m5.23-0.92-0.17 0.17m-70.25 153.51c1.39-9.62-0.87-19.35-3.11-28.8-0.5-2.13-1.01-4.26-1.51-6.39m10.67 39.44c2.33 3.91 4.09 8.19 4.97 12.65 0.64 3.21 0.83 6.54 1.97 9.61 1.13 3.07 3.47 5.97 6.69 6.59m11.27 3.38c0.34-4.01-1.85-8.13-5.37-10.09-0.97-0.54-2.03-0.93-2.97-1.53-0.94-0.61-1.77-1.5-1.95-2.6m14.01 5.48v0.25m4.75 6.26c0.2-1.7-0.79-3.37-2.13-4.44s-3-1.65-4.61-2.21m-167.83 32.96c3.61-1.33 6.74-3.92 8.72-7.22s2.8-7.27 2.28-11.09m-6.53 16.73c0.77-4.04 3.79-7.28 5.26-11.12 1.23-3.22 1.32-6.86 0.25-10.14m-19.8 73.77c0.16-1.56 1.36-2.8 2.57-3.79 1.22-0.99 2.57-1.92 3.27-3.32 0.68-1.34 0.66-2.93 0.55-4.43-0.12-1.54-0.32-3.1-0.91-4.53m-19.07 53.43c-0.17 4.05-0.33 8.17 0.72 12.08 1.34 5 4.61 9.43 5.29 14.56m6.54-56.23c-10.22 7.72-18.02 18.58-22.07 30.73m109.13-34.27c0.13 5.9-1.91 11.61-2.84 17.43-0.93 5.83-0.49 12.46 3.68 16.64m-10.47-12.55v0.25m0.2-0.16c-2.09 3.33-4.19 6.69-5.5 10.4s-1.77 7.83-0.53 11.56m11.89 36.96c-0.4-3.77-2.14-7.39-4.85-10.04-3.04-2.98-7.26-4.82-9.51-8.45m5.72 14.75c0.66 1.42 1.08 2.95 1.23 4.5 0.13 1.32 0.07 2.69 0.5 3.94s1.51 2.43 2.84 2.41m-20.88-168.34c-1.58-6.65-7.04-11.53-11.17-16.97-1.26-1.66-2.41-3.4-3.56-5.14-0.49-0.74-1-1.55-0.95-2.44m9.7 42.52c0.56-7.26 1.07-14.86-1.85-21.53m2.22 29.78c1.94-4.71 2.52-9.97 1.67-14.99m223.63 119.45c-0.44 2.15-0.7 4.34-0.77 6.54m-0.83 33.28c1.79 3.04 4.44 5.56 7.55 7.21m-35.79 23.75c-0.08 0.42-0.17 0.83-0.25 1.25m-12.82 1c0.11-0.01 0.03-0.22-0.08-0.19s-0.15 0.16-0.17 0.28c-0.24 1.23-0.47 2.47-0.71 3.7m167.54-115.03c-1.46 11.61-1.26 23.44 0.6 34.99m-417.33-203.17c-2.05-0.25-4.18 0.32-5.84 1.55"/>
</svg>
