<?xml version="1.0" encoding="utf-8"?>
<!-- Generator: Adobe Illustrator 16.0.0, SVG Export Plug-In . SVG Version: 6.00 Build 0)  -->
<!DOCTYPE svg PUBLIC "-//W3C//DTD SVG 1.1//EN" "http://www.w3.org/Graphics/SVG/1.1/DTD/svg11.dtd">
<svg version="1.1" id="Layer_2" xmlns="http://www.w3.org/2000/svg" xmlns:xlink="http://www.w3.org/1999/xlink" x="0px" y="0px" width="776px" height="541.122px" viewBox="0 0 776 541.122" enable-background="new 0 0 776 541.122" xml:space="preserve">
<path d="M278.418,79.563c-5.384,1.962-10.562,1.81-15.399-1.54c-0.072-0.05-0.137,0.065-0.068,0.116 c4.372,3.191,10.607,4.109,15.471,1.434C278.428,79.57,278.424,79.561,278.418,79.563"/>
<path d="M291.984,76.498c-3.712-0.76-7.34-1.733-10.948-2.889c-0.083-0.027-0.117,0.102-0.036,0.13 c3.573,1.231,7.243,2.169,10.96,2.847C292.018,76.596,292.042,76.51,291.984,76.498"/>
<path d="M310.048,72.7c-1.384,1.428-6.618,0.502-8.368,0.466c-2.668-0.055-5.336-0.119-8.005-0.147 c-0.094-0.001-0.094,0.145,0,0.148c3.694,0.106,7.39,0.157,11.084,0.225c1.544,0.028,4.232,0.745,5.35-0.631 C310.142,72.719,310.087,72.66,310.048,72.7"/>
<path d="M143.805,107.485c-4.589-8.844-14.406-12.712-23.825-9.495c-0.083,0.029-0.049,0.161,0.037,0.134 c9.543-3.037,18.878,0.633,23.708,9.407C143.754,107.583,143.832,107.538,143.805,107.485"/>
<path d="M125.296,92.173c-10.218-3.909-19.134,2.493-25.612,10.221c-0.05,0.06,0.034,0.147,0.087,0.087 c6.635-7.543,15.117-13.919,25.503-10.228C125.324,92.271,125.345,92.192,125.296,92.173"/>
<path d="M139.342,129.411c4.954-3.416,6.661-9.962,4.018-15.366c-0.034-0.07-0.138-0.009-0.104,0.06 c2.621,5.351,0.936,11.838-3.949,15.245C139.27,129.376,139.305,129.436,139.342,129.411"/>
<path d="M110.968,149.376c-3.806,8.131-4.312,16.895-1.486,25.413c0.025,0.076,0.146,0.043,0.12-0.033 c-2.829-8.498-2.338-17.222,1.412-25.353C111.029,149.373,110.983,149.346,110.968,149.376"/>
<path d="M102.232,174.402c0.832,7.792-0.612,14.979-1.257,22.69c-0.42,5.028,0.249,9.81,3.561,13.759 c0.054,0.064,0.142-0.027,0.091-0.091c-4.897-6.073-3.605-13.338-2.579-20.458c0.767-5.329,0.857-10.547,0.254-15.9 C102.297,174.358,102.228,174.357,102.232,174.402"/>
<path d="M106.862,206.485c4.732,6.573,12.361,10.2,20.457,9.512c0.089-0.007,0.09-0.145,0-0.139 c-8.085,0.519-15.575-2.861-20.382-9.417C106.904,206.397,106.829,206.44,106.862,206.485"/>
<path d="M138.02,176.692c1.145,4.839,3.16,8.994,6.043,13.042c4.002,5.619,8.764,11.502,5.893,18.794 c-0.034,0.085,0.101,0.119,0.135,0.037c1.921-4.596,0.636-9.108-1.856-13.237c-3.85-6.379-8.274-11.196-10.13-18.659 C138.091,176.614,138.007,176.637,138.02,176.692"/>
<path d="M153.835,203.602c6.153,10.253-1.023,21.408-9.782,27.213c-0.084,0.055-0.007,0.189,0.079,0.135 c8.966-5.624,16.074-17.322,9.815-27.414C153.903,203.465,153.792,203.53,153.835,203.602"/>
<path d="M144.791,174.651c-0.626,3.766,1.559,6.64,4.569,8.727c5.474,3.794,12.974,4.737,15.678,11.666 c0.03,0.075,0.153,0.044,0.124-0.035c-1.206-3.277-3.645-5.394-6.642-7.074c-5.296-2.97-14.77-5.245-13.668-13.267 C144.856,174.629,144.797,174.611,144.791,174.651"/>
<path d="M157.119,194.942c3.018,2.921,5.354,7.046,7.172,10.822c2.819,5.854,2.712,10.797,0.816,16.902 c-0.032,0.104,0.129,0.147,0.162,0.045c3.254-9.87-0.243-20.815-8.12-27.799C157.129,194.894,157.098,194.922,157.119,194.942"/>
<path d="M151.978,167.602c8.371-0.89,16.083,1.811,22.035,7.783c0.055,0.055,0.139-0.029,0.085-0.085 c-5.775-6-13.859-8.849-22.12-7.742C151.951,167.561,151.949,167.605,151.978,167.602"/>
<path d="M362.566,115.161c-6.903,3.809-10.733,10.789-14.267,17.547c-0.046,0.088,0.088,0.167,0.134,0.078 c3.537-6.772,7.341-13.623,14.182-17.542C362.669,115.213,362.621,115.131,362.566,115.161"/>
<path d="M338.854,133.283c-4.039,8.04-4.313,16.95-4.155,25.784c0.001,0.061,0.094,0.061,0.094,0 c0.057-8.855,0.096-17.624,4.117-25.751C338.929,133.278,338.874,133.245,338.854,133.283"/>
<path d="M364.332,73.576c-6.695,1.198-10.663-4.429-13.937-9.246c-0.044-0.065-0.148-0.005-0.106,0.062 c3.088,4.932,7.508,10.622,14.07,9.284C364.424,73.662,364.396,73.565,364.332,73.576"/>
<path d="M398.89,132.188c-1.657,1.171-2.083,2.986-1.541,4.936c0.498,1.796,1.859,3.243,2.886,4.738 c1.621,2.359,2.78,4.831,3.718,7.545c0.021,0.058,0.111,0.034,0.093-0.025c-0.779-2.531-1.868-4.886-3.351-7.09 c-1.898-2.82-5.703-7.095-1.792-10.082C398.915,132.201,398.903,132.18,398.89,132.188"/>
<path d="M401.218,129.373c-0.88,6.159-0.183,12.239,2.036,18.046c0.024,0.063,0.126,0.037,0.103-0.027 c-2.129-5.878-2.799-11.813-2.075-18.01C401.285,129.346,401.223,129.337,401.218,129.373"/>
<path d="M404.161,125.396c-2.801,12.533,4.233,24.984,0.272,37.407c-0.016,0.052,0.065,0.074,0.082,0.023 c4.29-12.275-2.893-24.916-0.268-37.406C404.26,125.364,404.174,125.339,404.161,125.396"/>
<path d="M407.364,110.062c0.406-3.973,2.352-7.37,5.636-9.663c0.059-0.041,0.004-0.138-0.058-0.097 c-3.298,2.214-5.387,5.785-5.615,9.76C407.325,110.085,407.362,110.085,407.364,110.062"/>
<path d="M399.6,87.728c-0.001,0.111,0.001,0.222,0.004,0.333c0.002,0.082,0.125,0.082,0.126,0c0.004-0.111,0.005-0.222,0.004-0.333 C399.734,87.642,399.6,87.642,399.6,87.728"/>
<path d="M400.194,90.725c-1.148-3.757-2.438-8.742,1.824-11.086c0.07-0.039,0.008-0.143-0.063-0.107 c-4.32,2.178-3.134,7.542-1.823,11.21C400.146,90.779,400.206,90.764,400.194,90.725"/>
<path d="M385.828,80.229c-4.336-3.549-9.396-6.56-14.604-8.645c-3.109-1.244-6.501-1.627-8.514,1.484 c-0.043,0.068,0.062,0.127,0.107,0.062c4.69-6.732,18.545,3.841,22.937,7.196C385.808,80.368,385.883,80.273,385.828,80.229"/>
<path d="M374.14,175.66c1.19,1.959,3.051,3.502,5.141,4.419c0.074,0.033,0.139-0.074,0.064-0.11 c-2.109-1.022-3.747-2.471-5.121-4.358C374.188,175.561,374.105,175.605,374.14,175.66"/>
<path d="M373.561,175.48c0.63,1.585,1.508,3.022,2.632,4.304c0.064,0.074,0.172-0.034,0.107-0.107 c-1.112-1.265-1.989-2.671-2.635-4.226C373.639,175.39,373.536,175.416,373.561,175.48"/>
<path d="M372.656,175.34c0.661,2.03,1.86,4.086,3.462,5.519c0.062,0.056,0.144-0.028,0.092-0.091 c-1.438-1.721-2.583-3.381-3.454-5.455C372.73,175.254,372.635,175.275,372.656,175.34"/>
<path d="M371.966,174.987c0.361,1.566,1.238,3.029,2.332,4.194c0.064,0.069,0.163-0.033,0.103-0.103 c-1.086-1.244-1.787-2.573-2.365-4.111C372.02,174.924,371.955,174.94,371.966,174.987"/>
<path d="M371.311,174.721c-0.163,1.021,0.398,1.879,0.862,2.755c0.612,1.155,1.278,2.28,2.187,3.225 c0.075,0.078,0.184-0.036,0.117-0.116c-0.705-0.837-1.313-1.709-1.85-2.661c-0.539-0.958-1.324-2.061-1.238-3.192 C371.393,174.687,371.317,174.677,371.311,174.721"/>
<path d="M370.144,174.837c0.32,1.573,1.017,3.049,1.994,4.32c0.048,0.063,0.157,0.003,0.109-0.064 c-0.947-1.318-1.591-2.713-2.021-4.278C370.21,174.761,370.133,174.784,370.144,174.837"/>
<path d="M369.305,174.141c-0.329,2.601,1.864,5.77,3.541,7.57c0.055,0.058,0.135-0.026,0.086-0.085 c-1.595-1.948-3.739-4.824-3.557-7.485C369.379,174.095,369.311,174.097,369.305,174.141"/>
<path d="M368.388,174.475c-0.606,0.506,0.043,1.833,0.228,2.418c0.449,1.426,1.098,2.783,1.924,4.028 c0.05,0.075,0.169,0.007,0.121-0.071c-0.544-0.889-1.039-1.789-1.439-2.752c-0.274-0.662-1.33-2.941-0.789-3.578 C368.459,174.489,368.418,174.449,368.388,174.475"/>
<path d="M367.4,174.154c0.303,2.83,1.468,5.554,3.205,7.798c0.045,0.058,0.146-0.019,0.103-0.079 c-1.686-2.383-2.69-4.869-3.258-7.725C367.444,174.12,367.397,174.126,367.4,174.154"/>
<path d="M366.717,174.115c-0.481,0.48-0.161,1.462-0.06,2.054c0.22,1.291,0.643,2.536,1.27,3.685 c0.04,0.074,0.148,0.009,0.112-0.066c-0.408-0.861-0.777-1.734-1.022-2.656c-0.192-0.719-0.72-2.308-0.242-2.973 C366.8,174.125,366.746,174.086,366.717,174.115"/>
<path d="M365.741,173.883c-0.127-0.103-0.074-0.092-0.239-0.041c-0.011,0.004-0.021,0.013-0.023,0.024 c-0.342,1.578,0.566,3.7,1.306,5.057c0.033,0.059,0.12,0.006,0.091-0.054c-0.36-0.745-0.686-1.505-0.919-2.3 c-0.1-0.342-0.184-0.689-0.254-1.039c-0.022-0.117-0.043-0.233-0.064-0.351c-0.164-0.434-0.139-0.855,0.074-1.26 C365.734,173.935,365.762,173.899,365.741,173.883"/>
<path d="M364.6,173.47c-0.424-0.357-0.347,0.826-0.346,0.911c0.013,1.4,0.35,2.778,0.962,4.035c0.035,0.072,0.137,0.009,0.106-0.062 c-0.323-0.738-0.592-1.486-0.752-2.276c-0.002-0.006-0.339-2.703,0.009-2.573C364.599,173.512,364.616,173.483,364.6,173.47"/>
<path d="M363.398,172.975c-0.074,1.29,0.186,2.601,0.781,3.75c0.027,0.052,0.097,0.006,0.076-0.044 c-0.509-1.207-0.772-2.393-0.78-3.706C363.476,172.925,363.401,172.926,363.398,172.975"/>
<path d="M362.446,172.645c-0.086,1.333,0.142,2.636,0.671,3.862c0.027,0.06,0.132,0.017,0.108-0.045 c-0.487-1.236-0.707-2.489-0.671-3.817C362.556,172.574,362.45,172.576,362.446,172.645"/>
<path d="M361.31,172.143c-0.031,1.913,0.365,3.814,1.243,5.52c0.027,0.054,0.102,0.006,0.079-0.046 c-0.782-1.768-1.213-3.535-1.237-5.474C361.394,172.088,361.311,172.088,361.31,172.143"/>
<path d="M360.004,171.368c-0.421,2.119,0.593,4.057,1.178,6.046c0.014,0.049,0.088,0.029,0.076-0.021 c-0.469-2.026-1.567-3.854-1.18-6.004C360.087,171.341,360.014,171.319,360.004,171.368"/>
<path d="M359.046,171.561c-0.028,0.796,0.054,1.572,0.259,2.341c0.013,0.049,0.088,0.029,0.076-0.021 c-0.195-0.763-0.287-1.532-0.266-2.32C359.117,171.516,359.048,171.517,359.046,171.561"/>
<path d="M359.015,170.891c-0.146,1.562,0.13,3.137,0.736,4.58c0.023,0.054,0.114,0.032,0.092-0.026 c-0.572-1.487-0.801-2.964-0.779-4.554C359.063,170.859,359.018,170.86,359.015,170.891"/>
<path d="M358.396,170.138c-0.319,1.719-0.258,3.502,0.239,5.182c0.016,0.055,0.098,0.032,0.086-0.023 c-0.401-1.734-0.505-3.379-0.261-5.141C358.465,170.114,358.403,170.095,358.396,170.138"/>
<path d="M357.628,170.311c-0.051,1-0.029,2.004,0.074,3.001c0.006,0.049,0.081,0.05,0.078,0c-0.063-1.001-0.09-1.998-0.071-3.001 C357.71,170.259,357.63,170.26,357.628,170.311"/>
<path d="M396.31,332.97c1.01,0.665,1.807,1.561,2.355,2.638c0.025,0.05,0.103,0.006,0.076-0.045c-0.563-1.086-1.376-1.979-2.4-2.647 C396.308,332.895,396.276,332.948,396.31,332.97"/>
<path d="M397.504,330.529c2.136,0.505,3.777,2.144,4.297,4.273c0.012,0.05,0.088,0.029,0.076-0.021 c-0.482-2.162-2.192-3.846-4.358-4.305C397.485,330.47,397.471,330.521,397.504,330.529"/>
<path d="M366.011,346.36c0.847-0.131,1.675-0.064,2.495,0.187c0.035,0.011,0.05-0.043,0.015-0.054 c-0.828-0.262-1.667-0.32-2.525-0.189C365.96,346.31,365.975,346.366,366.011,346.36"/>
<path d="M366.472,343.865c1.132,0.492,2.313,0.649,3.534,0.459c0.04-0.007,0.023-0.067-0.017-0.063 c-1.199,0.174-2.37,0.024-3.481-0.459C366.466,343.785,366.43,343.846,366.472,343.865"/>
<path d="M352.253,351.821c0.333-0.086,0.665-0.174,0.997-0.264c0.044-0.011,0.025-0.079-0.019-0.067 c-0.334,0.08-0.668,0.163-1.001,0.247C352.175,351.751,352.198,351.835,352.253,351.821"/>
<path d="M354,348.848c0.5,0,1,0.001,1.5-0.011c0.034,0,0.035-0.052,0-0.052c-0.5-0.011-1-0.01-1.5-0.01 C353.953,348.774,353.953,348.849,354,348.848"/>
<path d="M415.061,283.015c7.396-2.234,14.795-4.46,22.186-6.713c0.04-0.014,0.023-0.076-0.018-0.063 c-7.4,2.221-14.792,4.468-22.188,6.708C414.998,282.959,415.018,283.027,415.061,283.015"/>
<path d="M417.057,291.259c12.989-3.697,26.14-6.65,39.457-8.889c0.049-0.008,0.028-0.082-0.021-0.074 c-13.321,2.189-26.479,5.172-39.45,8.913C417.012,291.219,417.025,291.268,417.057,291.259"/>
<path d="M441.695,228.846c1.29,1.699,2.835,3.193,4.516,4.503c0.061,0.048,0.147-0.038,0.086-0.086 c-1.692-1.317-3.168-2.82-4.531-4.471C441.733,228.754,441.665,228.805,441.695,228.846"/>
<path d="M461.034,240.284c1.85,2.061,3.7,4.121,5.565,6.167c0.051,0.056,0.132-0.026,0.082-0.082 c-1.847-2.063-3.711-4.111-5.573-6.159C461.063,240.159,460.989,240.234,461.034,240.284"/>
<path d="M399.751,246.322c2.45-0.755,4.936-1.148,7.499-1.195c0.075-0.002,0.075-0.117,0-0.117 c-2.575,0.007-5.078,0.415-7.525,1.217C399.665,246.248,399.69,246.341,399.751,246.322"/>
<path d="M487.5,222.819c0.944,0.714,1.762,1.559,2.444,2.526c0.038,0.054,0.128,0.002,0.089-0.052 c-0.695-0.979-1.526-1.832-2.486-2.554C487.5,222.703,487.453,222.783,487.5,222.819"/>
<path d="M485.459,222.835c0.725,1.179,1.657,2.187,2.781,2.996c0.042,0.03,0.081-0.039,0.04-0.069 c-1.106-0.808-2.029-1.802-2.748-2.97C485.504,222.746,485.43,222.789,485.459,222.835"/>
<path d="M461.069,212.717c1.077,0.928,1.827,2.05,2.337,3.373c0.021,0.053,0.105,0.032,0.087-0.025 c-0.418-1.348-1.256-2.534-2.343-3.429C461.094,212.59,461.013,212.669,461.069,212.717"/>
<path d="M458.412,212.33c0.589,3.179,1.937,6.066,4.046,8.521c0.031,0.035,0.081-0.016,0.052-0.051 c-2.064-2.49-3.425-5.309-4.022-8.491C458.478,212.26,458.403,212.281,458.412,212.33"/>
<path d="M408.249,235.355c0.657,0.051,1.242-0.131,1.75-0.549c0.026-0.022-0.009-0.069-0.037-0.048 c-0.504,0.385-1.079,0.562-1.713,0.518C408.199,235.272,408.199,235.352,408.249,235.355"/>
<path d="M420.41,265.965c-1.142,1.027-2.285,2.053-3.417,3.091c-0.041,0.038,0.021,0.098,0.061,0.061 c1.146-1.024,2.279-2.06,3.414-3.095C420.506,265.987,420.449,265.931,420.41,265.965"/>
<path d="M339.786,437.051c-1.201,22.033,0.708,44.021,5.714,65.512c0.008,0.035,0.062,0.02,0.054-0.015 c-4.978-21.492-6.903-43.471-5.707-65.497C339.849,437.012,339.788,437.012,339.786,437.051"/>
<path d="M566.648,114.361c3.632,5.94,13.451,6.598,14.473,14.308c0.008,0.063,0.109,0.066,0.103,0 c-0.783-7.673-10.89-8.613-14.489-14.359C566.7,114.256,566.614,114.305,566.648,114.361"/>
<path d="M544.982,100.272c9.728,1.127,18.908,3.676,27.904,7.529c0.05,0.021,0.094-0.051,0.043-0.075 c-8.875-4.023-18.27-6.485-27.947-7.541C544.927,100.18,544.928,100.267,544.982,100.272"/>
<path d="M460.467,93.408c5.274-1.214,10.134-3.438,14.54-6.575c0.072-0.051,0.003-0.172-0.07-0.12 c-4.425,3.126-9.235,5.299-14.491,6.62C460.397,93.346,460.418,93.419,460.467,93.408"/>
<path d="M486.322,89.308c-4.977,2.47-9.898-0.582-14.799-1.637c-0.089-0.019-0.127,0.117-0.037,0.137 c4.889,1.084,9.973,4.193,14.886,1.585C486.429,89.363,486.379,89.28,486.322,89.308"/>
<path d="M457.253,94.092c-4.898,0.753-9.625,0.697-14.473-0.395c-0.103-0.023-0.146,0.135-0.044,0.158 c4.804,1.082,9.693,1.256,14.535,0.303C457.314,94.149,457.296,94.085,457.253,94.092"/>
<path d="M456.172,94.567c5.5-2.204,9.285-8.771,15.835-7.739c0.066,0.01,0.095-0.091,0.027-0.102 c-6.538-1.101-10.441,5.529-15.884,7.759C456.099,94.505,456.12,94.588,456.172,94.567"/>
<path d="M583.167,177.25c4.059-5.546,9.522-9.374,16.117-11.311c0.076-0.022,0.045-0.14-0.032-0.119 c-6.586,1.793-12.251,5.793-16.159,11.387C583.061,177.252,583.135,177.294,583.167,177.25"/>
<path d="M583.571,176.891c3.89-3.445,5.757-8.402,5.104-13.559c-0.009-0.076-0.128-0.077-0.119,0 c0.634,5.139-1.191,10.038-5.035,13.509C583.487,176.872,583.537,176.921,583.571,176.891"/>
<path d="M582.952,175.307c0.827-4.313,2.294-8.335,4.325-12.229c0.022-0.043-0.042-0.081-0.065-0.039 c-2.12,3.833-3.534,7.943-4.35,12.244C582.852,175.341,582.941,175.366,582.952,175.307"/>
<path d="M601.699,177.313c4.265-6.572,9.159-13.017,17.316-14.527c0.065-0.012,0.037-0.109-0.027-0.099 c-8.167,1.259-13.221,8.044-17.355,14.587C601.607,177.315,601.672,177.354,601.699,177.313"/>
<path d="M619.005,176.292c7.817-0.717,11.292,7.352,16.184,11.862c0.066,0.061,0.166-0.036,0.101-0.1 c-4.725-4.58-8.544-12.718-16.284-11.844C618.953,176.216,618.951,176.296,619.005,176.292"/>
<path d="M625.735,176.552c1.624,0.364,2.839,3.149,3.564,4.507c0.86,1.61,1.541,3.295,2.122,5.023c0.021,0.063,0.12,0.037,0.1-0.028 c-0.682-2.16-1.593-4.228-2.755-6.174c-0.681-1.14-1.566-3.101-3.013-3.396C625.71,176.475,625.69,176.542,625.735,176.552"/>
<path d="M531.276,235.604c5.276-3.557,9.413-8.332,12.208-14.045c0.031-0.064-0.063-0.12-0.096-0.056 c-2.828,5.689-6.931,10.419-12.145,14.046C531.211,235.572,531.242,235.627,531.276,235.604"/>
<path d="M537.236,233.95c4.021-1.459,6.716-6.835,8.331-10.483c2.842-6.421,3.754-13.482,4.422-20.41 c0.007-0.068-0.099-0.067-0.106,0c-0.619,5.596-1.274,11.22-3.025,16.596c-1.516,4.65-4.653,12.328-9.635,14.247 C537.191,233.911,537.204,233.962,537.236,233.95"/>
<path d="M543.984,232.085c1.67-0.083,2.376-2.701,2.97-3.953c1.261-2.659,2.18-5.443,2.842-8.308 c0.016-0.069-0.091-0.098-0.106-0.029c-0.472,1.998-1.048,3.961-1.795,5.875c-0.569,1.458-2.051,6.241-3.91,6.368 C543.954,232.041,543.954,232.086,543.984,232.085"/>
<path d="M548.256,230.332c1.705,0.033,2.32-2.167,2.925-3.448c1.15-2.443,2.081-4.977,2.81-7.576 c0.016-0.057-0.071-0.081-0.088-0.024c-0.51,1.675-1.062,3.333-1.714,4.959c-0.536,1.337-2.02,5.995-3.933,6.017 C548.209,230.26,548.209,230.331,548.256,230.332"/>
<path d="M287.684,313.258c-0.598,3.684-3.797,7.163-5.325,10.569c-1.294,2.884-2.277,5.872-3.035,8.938 c-0.019,0.08,0.103,0.113,0.124,0.034c1.078-4.139,2.519-8.133,4.524-11.92c1.325-2.503,3.422-4.757,3.79-7.611 C287.768,313.224,287.691,313.212,287.684,313.258"/>
<path d="M282.953,335.563c1.235,9.888,1.955,19.79,2.303,29.747c0.004,0.093,0.147,0.094,0.145,0 c-0.202-9.96-1.04-19.889-2.37-29.759C283.025,335.507,282.948,335.517,282.953,335.563"/>
<path d="M283.631,345.714c2.588,8.139-4.587,16.353,0.805,24.133c0.043,0.061,0.143,0.005,0.102-0.061 c-5.269-8.069,2.003-15.916-0.838-24.092C283.685,345.651,283.617,345.67,283.631,345.714"/>
<path d="M295.69,328.021c-3.255,5.603-4.089,13.21-3.742,19.599c0.273,5.021,1.898,9.628,6.08,12.646 c0.06,0.043,0.115-0.055,0.058-0.098c-8.836-6.697-7.183-23.401-2.337-32.113C295.771,328.016,295.712,327.982,295.69,328.021"/>
<path d="M290.482,338.557c-2.602,11.74,0.822,23.936,9.187,32.586c0.053,0.055,0.135-0.028,0.084-0.084 c-8.259-8.843-11.617-20.624-9.222-32.488C290.539,338.537,290.489,338.523,290.482,338.557"/>
<path d="M320.746,311.673c-9.175,2.356-13.275,11.519-14.558,20.125c-0.014,0.097,0.134,0.14,0.149,0.041 c1.402-8.865,5.364-17.167,14.422-20.118C320.789,311.711,320.777,311.664,320.746,311.673"/>
<path d="M323.858,309.859c-1.609,2.395-4.445,3.796-6.2,6.155c-1.619,2.179-2.663,4.634-3.238,7.276 c-0.019,0.087,0.114,0.124,0.134,0.036c0.708-3.144,2.082-6.042,4.223-8.47c1.582-1.796,3.865-2.926,5.146-4.96 C323.95,309.854,323.885,309.819,323.858,309.859"/>
<path d="M160.688,443.266c7.516,6.696,15.033,13.393,22.559,20.078c0.048,0.043,0.12-0.028,0.071-0.071 c-7.517-6.696-15.043-13.383-22.57-20.067C160.707,443.169,160.646,443.229,160.688,443.266"/>
<path d="M157.528,462.669c4.558-1.639,10.521,3.513,14.066,5.741c3.288,2.069,6.576,4.139,9.873,6.192 c0.045,0.028,0.086-0.042,0.042-0.071c-4.797-3.039-9.611-6.049-14.421-9.065c-3.063-1.921-5.91-4.193-9.574-2.848 C157.484,462.63,157.497,462.68,157.528,462.669"/>
<path d="M158.508,474.815c4.135,0.864,7.263,3.607,10.979,5.423c3.033,1.479,6.227,2.438,9.538,3.06 c0.047,0.009,0.067-0.063,0.02-0.072c-4.266-0.832-8.26-2.246-12.034-4.431c-2.813-1.627-5.257-3.387-8.487-4.038 C158.486,474.75,158.47,474.807,158.508,474.815"/>
<path d="M266.765,521.424c7.116,2.058,14.394,1.069,20.689-2.842c0.055-0.034,0.004-0.121-0.051-0.088 c-6.327,3.86-13.483,4.862-20.618,2.857C266.738,521.339,266.719,521.409,266.765,521.424"/>
<path d="M437.311,320.211c20.138-3,40.187-6.556,60.113-10.73c0.054-0.011,0.031-0.093-0.022-0.083 c-19.943,4.11-39.977,7.71-60.112,10.734C437.237,320.14,437.26,320.219,437.311,320.211"/>
<path d="M628.119,253.741c-0.967,7.783-4.407,14.598-10.192,19.908c-0.049,0.045,0.024,0.118,0.073,0.073 c5.756-5.292,9.319-12.197,10.168-19.981C628.172,253.71,628.123,253.711,628.119,253.741"/>
<path d="M251.907,257.637c-1.099,1.123-2.198,2.246-3.294,3.372c-0.011,0.01,0.005,0.027,0.016,0.016 c1.102-1.12,2.202-2.242,3.301-3.365C251.945,257.645,251.922,257.622,251.907,257.637"/>
<path fill="none" stroke="#000000" stroke-width="0.5" stroke-miterlimit="10" d="M616.667,541.122c0,0,1.333-8.395,2.333-49.395 c0-10.334,5-27.667,5-27.667s4.333-20-3.667-51.333c0,0-3.583-18.917-5.583-36.167s-11.25-30-25.25-43.5s-31.75-26.5-31.75-26.5 c-2.5-4-6.75-12.375-6-15"/>
<path fill="none" stroke="#000000" stroke-width="0.5" stroke-miterlimit="10" d="M467,416.342c0,0-19,28.72-21.667,42.72 c-2.666,14-13.333,62.455-22.666,82.06"/>
<path fill="none" stroke="#000000" stroke-width="0.5" stroke-miterlimit="10" d="M299.175,530.803c0,0-6.972-5.06-18.904-5.114"/>
<path fill="none" stroke="#000000" stroke-width="0.5" stroke-miterlimit="10" d="M201.75,541.122c0,0-19-34.562-25.75-49.812"/>
<path fill="none" stroke="#000000" stroke-width="0.5" stroke-miterlimit="10" d="M179.615,498.999c0,0-5.865,2.063-13.615-4.438 c-7.75-6.501-13-19.5-13-19.5s-1.125-1.625-0.625-5.75c0.5-4.126-0.125-9.251-1.875-10.626c0,0-2-2.25,1.125-8.75 c4.375-6.125,3.75-10.5,3.75-10.5s-1-9.25,5.125-14.375s10.782-3.954,10.782-3.954"/>
<path fill="none" stroke="#000000" stroke-width="0.5" stroke-miterlimit="10" d="M205.5,301.395c0,0,23,41.667,25.5,53.417 c0,0,28.25,34.5,37,71.25"/>
<path fill="none" stroke="#000000" stroke-width="0.5" stroke-miterlimit="10" d="M261.75,432.562c0,0,30.75-23.25,47-36.5 s40.211-41.056,40.211-41.056"/>
<path fill="none" stroke="#000000" stroke-width="0.5" stroke-miterlimit="10" d="M215.667,311.895c0,0,2.811,6.428,2.406,13.297"/>
<path fill="none" stroke="#000000" stroke-width="0.5" stroke-miterlimit="10" d="M331.802,373.874c0,0,3.948-17.813-17.802-42.813" />
<path fill="none" stroke="#000000" stroke-width="0.5" stroke-miterlimit="10" d="M628.25,272.187c0,0,15.5-9.375,1-28.625 S591,225.811,591,225.811s-28.75-0.25-68.75,11.5s-60.5,18.5-60.5,18.5s-8,1.5-12.75,4.5s-27.25,11.75-66,17c-4.5,0-29,31-29,31 s-3.5,4-4,8.75s-0.97,24.51,0.53,30.385"/>
<path fill="none" stroke="#000000" stroke-width="0.5" stroke-miterlimit="10" d="M381.125,292.187l-20.375,18.125 c0,0-2,1.75-4.375,12.125S350,349.687,350,349.687s-3.48,13.686,0.167,17.458c3.996,2.571,7.729,0.763,9.854-6.612"/>
<path fill="none" stroke="#000000" stroke-width="0.5" stroke-miterlimit="10" d="M396.125,294.562l-15.625,12c0,0-2.25,1.5-3.625,5 s-18.625,44.625-18.625,44.625s-0.75,4.75,4.875,5.5s8.625-1.125,11.625-7.25s17.125-31.25,17.125-31.25s1.25-2.875,3.5-3.5 s3-1.125,3-1.125"/>
<path fill="none" stroke="#000000" stroke-width="0.5" stroke-miterlimit="10" d="M412.625,299.062L405,307.187 c0,0-1.75,1.625-4.125,7.25s-15.75,26.875-15.75,26.875s-2.5,5,1.625,6.5s7.625,0.75,11.625-3s17.75-24.5,17.75-24.5 s6.125-4.5,9.125-8.875c2.375-2.25,9.125-3.375,9.125-3.375s31.25-9.375,34-10.25s4.5-4.375,4.5-4.375s3.25-4.375,18.25-4.25 s42.5-1.375,46.625,0.625s49.5,4.75,56.625,3.25s29.125-12.875,33.875-20.875"/>
<path fill="none" stroke="#000000" stroke-width="0.5" stroke-miterlimit="10" d="M551.662,339.062 c0,0,38.838,65.122,34.338,202.061"/>
<path fill="none" stroke="#000000" stroke-width="0.5" stroke-miterlimit="10" d="M468.375,297.812c0,0,47.125-7.625,60.625-2.875" />
<path fill="none" stroke="#000000" stroke-width="0.5" stroke-miterlimit="10" d="M390.75,276.184c0,0,6.375-17.623,7-29.373 c0.625-5,8.25-9.875,9.5-12.25s1.875-8.777,1.875-8.777s1.625-5.348,6-0.723s2,17.613-2.875,24.619c0,0,1,3.756-0.5,7.381"/>
<path fill="none" stroke="#000000" stroke-width="0.5" stroke-miterlimit="10" d="M395.5,271.312c0,0,5.25-5.333,11.167-8.583 c4-2.667,6.083-7.334,12.166-13.917c6.084-6.583,16.5-19.417,16.5-19.417s9.834-11.5,20.834-19.083s13.916-7.667,16.166-5.5 s4,3.667,0.834,8.583c-3.167,4.917-8.917,9.167-11.917,10.917c-1.083,1.473-10.417,11.083-10.417,11.083s-8.083,12.322-11.5,14.286 c0,0-0.833,2.381,2.334,2.548"/>
<path fill="none" stroke="#000000" stroke-width="0.5" stroke-miterlimit="10" d="M439.875,254.186c0,0,14.875-14.813,22.5-19.75 s27.375-20.313,32.313-20.375c4.938-0.063,7.313,5.812,4.438,9s-13.563,11.75-13.563,11.75l-11.25,9.312l-12.243,11.584"/>
<path fill="none" stroke="#000000" stroke-width="0.5" stroke-miterlimit="10" d="M467.367,254.001l14.05-9.273 c0,0,16.333-18.167,21.25-14.75c4.916,3.417,3.353,9.511-3.407,14.172"/>
<path fill="none" stroke="#000000" stroke-width="0.5" stroke-miterlimit="10" d="M473,270.561c0,0,5.406-3.75,13.453-2"/>
<path fill="none" stroke="#000000" stroke-width="0.5" stroke-miterlimit="10" d="M479.5,187.186c0,0,1.5-22.75,18.75-15.625 s5.75,26,5.75,26s-10.776,16.553-13.052,17.771"/>
<path fill="none" stroke="#000000" stroke-width="0.5" stroke-miterlimit="10" d="M471.26,215.944c0,0-1.93,8.515,5.093,8.691"/>
<path fill="none" stroke="#000000" stroke-width="0.5" stroke-miterlimit="10" d="M489.917,193.561c0,0-6.417,1.083-4-10.083 c2.416-11.167,4.083-12.584,11.166-9.667c7.084,2.917,8.167,7.583,7.5,10.167c-0.666,2.583-10.333,20.416-14.5,24.916"/>
<path fill="none" stroke="#000000" stroke-width="0.5" stroke-miterlimit="10" d="M488.667,187.395c0,0,11.666,7.583-0.334,14.833 c-2.5,0.917-5.5,0-5.5,0s-2.254-0.213-5.416,4.5"/>
<path fill="none" stroke="#000000" stroke-width="0.5" stroke-miterlimit="10" d="M314.5,252.561c0,0,8.833-3.833,39.833,11.833 c9.667,4.935,17-6.095,16.5-14.714c0.024-5.286,5.167-12.231,5.167-12.231s3-4.555,0-8.555c0,0,7.667-0.918,5.167-10.375 c-0.334-4.458,9.248-4.458,9.248-4.458l3.188-1.167"/>
<path fill="none" stroke="#000000" stroke-width="0.5" stroke-miterlimit="10" d="M356.75,225.839 c4.816-2.913,19.25,3.056,19.25,3.056"/>
<path fill="none" stroke="#000000" stroke-width="0.5" stroke-miterlimit="10" d="M386.667,211.728c0,0-3.5-3.667-8.667-1.667"/>
<path fill="none" stroke="#000000" stroke-width="0.5" stroke-miterlimit="10" d="M396.611,203.587c0,0-2.779-15.526-5.861-24.026 c-0.695-5.834,4.583-12,7.75-13.667s4.667-41-6.167-49.667C381.5,107.562,352,109.062,332,143.812 c-12.5,19.25-26.375,12.125-29.5,9.25s-8.75-17-22.875-5.875S281.5,187.312,293,192.812"/>
<path fill="none" stroke="#000000" stroke-width="0.5" stroke-miterlimit="10" d="M388,166.764c0,0-1.5-17.703-39.25-7.078"/>
<path fill="none" stroke="#000000" stroke-width="0.5" stroke-miterlimit="10" d="M279.667,170.728c0,0-7.417-11.75,2.333-21.5 c7-4.833,15.334,0.917,15,3.917c-0.333,3-1.083,11.083-7.416,15.916"/>
<path fill="none" stroke="#000000" stroke-width="0.5" stroke-miterlimit="10" d="M295.962,159.046c0,0-10.212-1.068-12.045,3.765 c-1.833,4.834,1.917,7.417,5.083,7.917c3.167,0.5,4.75,5.083,5.5,6.667c0.75,1.583,2.51,0.833,2.51,0.833s1.49-0.25,0.657-2.75 s-1.833-9.5,2.667-10.75"/>
<path fill="none" stroke="#000000" stroke-width="0.5" stroke-miterlimit="10" d="M302.75,288.312c0,0-3.75-8.25-3.5-30.5"/>
<path fill="none" stroke="#000000" stroke-width="0.5" stroke-miterlimit="10" d="M207.5,278.562c0,0,24.75,1.723,51.75,8.235"/>
<path fill="none" stroke="#000000" stroke-width="0.5" stroke-miterlimit="10" d="M399.846,132.667c0,0,40.154-54.675-57.179-61.063 c-97.333-6.387-117.333,68.845-182,0C96,2.761,8.667,134.994,94,172.499"/>
<path fill="none" stroke="#000000" stroke-width="0.5" stroke-miterlimit="10" d="M275.998,170.179c0,0,6.502,47.048-25.248,54.632 c0,0-0.5,43.5-55.75,47.5c-5.25,0-8-1.417-16.833-1.75c-8.833-0.334-35.167,6.333-39,33.333c-1.167,23,14.5,92.834,46.167,142.5 c31.666,49.667,62,77,80.666,79c18.667,2,27.273,2.276,49.014-36.912"/>
<path fill="none" stroke="#000000" stroke-width="0.5" stroke-miterlimit="10" d="M250.75,224.811c0,0-47.75,19.165-68.25-6.292 c-20.5-25.458,54.5-32.958-13-77.458s-92,74.648-38.5,83.574"/>
<path fill="none" stroke="#000000" stroke-width="0.5" stroke-miterlimit="10" d="M77.667,211.728c0,0,12.337,47.306,57.667,25.722 c29.666-14.272,23.333-34.055,8-49.389c-15.334-15.333,4.249-55.697,47.958-29.015"/>
<path fill="none" stroke="#000000" stroke-width="0.5" stroke-miterlimit="10" d="M80.667,224.811c0,0,14,43.917,56.333,19.917 c42.334-24,25.334-44.249,9.667-63.291c-15.667-19.043,59.485-27.319,39.743,13.986"/>
<path fill="none" stroke="#000000" stroke-width="0.5" stroke-miterlimit="10" d="M85.357,168.303c0,0-29.977-41.576,0-70.242 c29.977-28.667,82.977,14.163,52.643,33.082"/>
<path fill="none" stroke="#000000" stroke-width="0.5" stroke-miterlimit="10" d="M326.981,150.147c0,0-5.648,68.982-82.648,70.948 c-77,1.966-88.667,47.001-88.667,47.001"/>
<path fill="none" stroke="#000000" stroke-width="0.5" stroke-miterlimit="10" d="M314.5,156.671c0,0,2.167,57.918-94.5,63.654 c-96.667,5.736-93.788,86.735-80.894,96.735"/>
<path fill="none" stroke="#000000" stroke-width="0.5" stroke-miterlimit="10" d="M412.25,249.68c0,0-0.688-1.182-3.188-0.869"/>
<path fill="none" stroke="#000000" stroke-width="0.5" stroke-miterlimit="10" d="M468.44,204.936c0,0-6.285,4.446-3.68,7.588 c2.606,3.143,8.524-2.037,8.524-2.037S473.729,205.473,468.44,204.936z"/>
<path fill="none" stroke="#000000" stroke-width="0.5" stroke-miterlimit="10" d="M489.833,218.061l3.084-2.729 c0,0,6.166-0.104,5.083,5.896l-2.583,2.083C495.417,223.311,489.083,223.978,489.833,218.061z"/>
<path fill="none" stroke="#000000" stroke-width="0.5" stroke-miterlimit="10" d="M495.417,234.311l3.333-3.167 c0,0,4.5-0.916,5.417,4.5l-2.5,2.834C501.667,238.478,496.583,238.894,495.417,234.311z"/>
<path fill="none" stroke="#000000" stroke-width="0.5" stroke-miterlimit="10" d="M397.167,339.395c0,0-2.959-7.25-7.5-2.666 l-3.334,5.333c0,0,0.5,5,6.667,2.5C395,342.562,397.167,339.395,397.167,339.395z"/>
<path fill="none" stroke="#000000" stroke-width="0.5" stroke-miterlimit="10" d="M361.833,349.312l-2.583,7.25 c0,0,2.666,4.333,7.416,1.917l2.167-4.834C368.833,353.645,368.667,347.479,361.833,349.312z"/>
<path fill="none" stroke="#000000" stroke-width="0.5" stroke-miterlimit="10" d="M349.208,356.312c0,0-0.708,9.083,1.375,9.833 s5.083,0,5.083,0l0.417-8C356.083,358.145,353.582,353.729,349.208,356.312z"/>
<path fill="none" stroke="#000000" stroke-width="0.5" stroke-miterlimit="10" d="M445.922,456.609c0,0,21.578-3.799,37.828-14.049" />
<path fill="none" stroke="#000000" stroke-width="0.5" stroke-miterlimit="10" d="M453.593,438.953c0,0,5.407-6.393,16.574-9.393"/>
<path fill="none" stroke="#000000" stroke-width="0.5" stroke-miterlimit="10" d="M183.062,505.903c0,0-16.812,9.779-29.562,35.219" />
<path fill="none" stroke="#000000" stroke-width="0.5" stroke-miterlimit="10" d="M571.387,227.183c0,0,29.626-73.249-2.374-111.249 s-138.967-36.716-146.49,12.539c0,0,9.478-15.412,19.811-15.078c10.334,0.333,10,8.31,10,8.31s-30.213,49.535,27.394,61.612"/>
<path fill="none" stroke="#000000" stroke-width="0.5" stroke-miterlimit="10" d="M576.139,215.251 c15.796-11.537,6.896-35.983,6.896-35.983s4.416-17.494,18.172-1.763c13.755,15.732,0.868,48.363-14.981,46.878 C570.376,222.899,576.139,215.251,576.139,215.251z"/>
<path fill="none" stroke="#000000" stroke-width="0.5" stroke-miterlimit="10" d="M595.513,172.38c0,0-0.052-5.545,9.057-7.345 c0,0-7.057,6.513-3.362,12.47c0,0,14.867-17.483,27.797,0.288c0,0-12.93-6.737-23.858,6.264"/>
<path fill="none" stroke="#000000" stroke-width="0.5" stroke-miterlimit="10" d="M428.1,121.705c0,0-8.3-11.511,2.426-10.515"/>
<path fill="none" stroke="#000000" stroke-width="0.5" stroke-miterlimit="10" d="M481.867,115.934c0,0,39.133-6.54,59.8,32.793 c20.666,39.334,41.582,28.425,41.582,28.425"/>
<path fill="none" stroke="#000000" stroke-width="0.5" stroke-miterlimit="10" d="M583.878,162.866c0,0,7.122-18.472,5.455-30.805 c-1.666-12.334-7.333-0.334-12.478-3.754c-5.146-3.421-6.046-10.105-6.046-10.105"/>
<path fill="none" stroke="#000000" stroke-width="0.5" stroke-miterlimit="10" d="M570.009,117.155c0,0-2.337,17.406,13.869,11.323 c16.205-6.083,5.377,30.572,0,36.119"/>
<path fill="none" stroke="#000000" stroke-width="0.25" stroke-miterlimit="10" d="M453.958,127.5c0,0,4.062,9.718,17.396,10.483"/>
<path fill="none" stroke="#000000" stroke-width="0.5" stroke-miterlimit="10" d="M335.667,256.728c0,0,23.667,43.333-17.667,55.167 c-41.333,11.833-26.116,59.833-26.116,59.833s-31.884-66.833,25.45-73.917c21.333-2.216,5.833-19.25,5.833-19.25 S332.167,268.728,335.667,256.728"/>
<path fill="none" stroke="#000000" stroke-width="0.5" stroke-miterlimit="10" d="M332.083,305.035c0,0-21.54,30.991,13.189,54.176" />
<path fill="none" stroke="#000000" stroke-width="0.5" stroke-miterlimit="10" d="M356.083,265.125c0,0-43.356,68.603-10.812,94.085 "/>
<path fill="none" stroke="#000000" stroke-width="0.5" stroke-miterlimit="10" d="M380.558,226.066c0,0,0.109-2.522-1.641-2.889 c0,0-14.645,0.389-20.572,2.011"/>
<path fill="none" stroke="#000000" stroke-width="0.5" stroke-miterlimit="10" d="M359.851,224.837c0,0,0.682,3.828,17.374,9.317"/>
<path fill="none" stroke="#000000" stroke-width="0.5" stroke-miterlimit="10" d="M326.946,253.468c0,0-14.821-6.657-19.196-12.282" />
<path fill="none" stroke="#000000" stroke-width="0.5" stroke-miterlimit="10" d="M305.25,254.936c0,0,14.391,5.073,25.133-0.526"/>
<path fill="none" stroke="#000000" stroke-width="0.5" stroke-miterlimit="10" d="M476.859,296.569c0,0,5.397-6.099,12.019-7.365"/>
<path fill="none" stroke="#000000" stroke-width="0.5" stroke-miterlimit="10" d="M356.083,367.375c0,0-10.583,17.413-14.583,48.967 c-1,8.22-27.75,69.47-34.5,98.22c-3.75,13.843-10.75,13.345-8.5,27.172"/>
<path fill="none" stroke="#000000" stroke-width="0.5" stroke-miterlimit="10" d="M298.365,533.534c0,0-5.115,5.776-5.865,8.776"/>
<path fill="none" stroke="#000000" stroke-width="0.5" stroke-miterlimit="10" d="M377,169.527c0,0,0.103,2.805-2.962,6.007 c0,0-10.618-1.425-16.955-6.007"/>
<path fill="none" stroke="#000000" stroke-width="0.5" stroke-miterlimit="10" d="M373.344,210.596c0,0-6.742-3.453-1.839-13.535"/>
<path fill="none" stroke="#000000" stroke-width="0.5" stroke-miterlimit="10" d="M407.898,203.829c0,0,2.39-0.856,3.991,1.107"/>
<path fill="none" stroke="#000000" stroke-width="0.5" stroke-miterlimit="10" d="M418.567,185.511 c2.279-3.984,7.498-8.214,7.498-8.214c-4.588,2.206-10.122,1.14-10.122,1.14c2.451-2.171,1.481-9.25,1.481-9.25"/>
<path fill="none" stroke="#000000" stroke-width="0.5" stroke-miterlimit="10" d="M418.567,178.437c0,0-1.083,3.815,2.437,3.759"/>
<line fill="none" stroke="#000000" stroke-width="0.5" stroke-miterlimit="10" x1="422.522" y1="178.437" x2="423.643" y2="179.456"/>
<path d="M357.543,220.989c-2.082,3.511-4.646,6.545-7.577,9.372c-0.043,0.041,0.021,0.102,0.064,0.064 c3.042-2.667,5.56-5.903,7.617-9.375C357.686,220.983,357.583,220.923,357.543,220.989"/>
<path d="M407.654,309.324c3.428-0.626,6.749,0.178,9.547,2.25c0.061,0.044,0.116-0.057,0.059-0.101 c-2.793-2.129-6.187-2.899-9.632-2.247C407.564,309.239,407.592,309.335,407.654,309.324"/>
<path d="M381.67,309.811c2.52-0.237,4.948,0.077,7.32,0.96c0.074,0.026,0.104-0.09,0.032-0.118 c-2.374-0.927-4.821-1.247-7.353-0.953C381.601,309.707,381.599,309.816,381.67,309.811"/>
<path d="M362.024,312.81c3.839-1.117,7.685-1.345,11.626-0.687c0.072,0.012,0.103-0.096,0.031-0.108 c-3.947-0.716-7.85-0.477-11.679,0.712C361.948,312.742,361.971,312.825,362.024,312.81"/>
<path d="M353.037,313.521c1.274-0.353,2.527-0.173,3.684,0.454c0.042,0.023,0.079-0.039,0.037-0.064 c-1.14-0.697-2.467-0.845-3.749-0.492C352.944,313.438,352.972,313.538,353.037,313.521"/>
<path d="M391.974,283.031c1.7-1.535,3.589-2.721,5.706-3.592c0.048-0.02,0.028-0.097-0.021-0.078 c-2.141,0.819-4.075,2.04-5.739,3.615C391.882,283.012,391.937,283.065,391.974,283.031"/>
<path d="M487.899,461.481c17.071-6.349,35.278-7.573,53.039-3.508c0.078,0.019,0.111-0.102,0.033-0.12 c-17.728-4.112-36.074-2.913-53.099,3.531C487.814,461.408,487.839,461.502,487.899,461.481"/>
<path fill="none" stroke="#000000" stroke-width="0.5" stroke-miterlimit="10" d="M423.643,121.705c0,0-4.757,8.636-7.699,18.83 c0,0-8.488,15.265-6.05,26.229c2.021,5.202,0,7.783,0,7.783s-11.561,27.181-14.394,32.181c0,0-8.5,10.433,10.5,9.216"/>
<path fill="none" stroke="#000000" stroke-width="0.5" stroke-miterlimit="10" d="M401.795,215.999v9.707 c0,0-1.665,7.558,6.104,7.124l3.685-4.268c0,0-0.26-1.92-1.244-4.738c-5.916-16.923,12.184-34.086,12.184-34.086"/>
<path fill="none" stroke="#000000" stroke-width="0.5" stroke-miterlimit="10" d="M404.087,231.731c0,0-7.065,8.724-4.743,11.36"/>
<line fill="none" stroke="#000000" stroke-width="0.5" stroke-miterlimit="10" x1="401.646" y1="227.183" x2="408.052" y2="228.895"/>
<path fill="none" stroke="#000000" stroke-width="0.5" stroke-miterlimit="10" d="M409.063,161.527c0,0,8.661-10.394,26.133,5.237" />
<path fill="none" stroke="#000000" stroke-width="0.5" stroke-miterlimit="10" d="M397.669,211.728c0,0,3.498-3.167,7.998,0"/>
<path d="M400.27,131.215c2.145-13.468,2.822-29.839-8.619-39.483c-0.055-0.046-0.133,0.03-0.079,0.078 c11.629,10.235,9.935,25.495,8.668,39.401C400.238,131.228,400.267,131.232,400.27,131.215"/>
<path d="M399.741,132.058c-0.303-7.29,1.249-15.244-1.973-22.088c-2.943-6.254-9.069-10.12-14.729-13.649 c-0.083-0.052-0.159,0.079-0.076,0.131c5.899,3.7,12.154,7.681,14.945,14.363c2.795,6.691,1.353,14.201,1.718,21.243 C399.631,132.131,399.744,132.132,399.741,132.058"/>
<path d="M399.092,132.061c-0.061-6.62-0.514-13.457-5.329-18.485c-4.901-5.119-12.145-8.088-18.748-10.236 c-0.098-0.031-0.139,0.121-0.042,0.153c6.104,2.05,12.697,4.694,17.523,9.12c5.675,5.204,6.318,12.181,6.487,19.448 C398.984,132.131,399.093,132.131,399.092,132.061"/>
<path d="M399.446,131.81c7.608-11.494,9.077-34.933-4.076-43.143c-0.077-0.048-0.146,0.073-0.071,0.122 c12.865,8.296,11.551,31.435,4.067,42.974C399.333,131.813,399.413,131.859,399.446,131.81"/>
<path d="M399.208,133.033c1.015-6.602,1.109-12.555-3.12-18.046c-3.856-5.008-9.406-8.653-15.052-11.322 c-0.105-0.05-0.198,0.107-0.092,0.158c4.759,2.265,9.333,5.153,12.999,8.984c5.66,5.915,6.225,12.363,5.163,20.198 C399.097,133.071,399.197,133.1,399.208,133.033"/>
<path d="M392.667,116.743c0.019,0,0.019-0.03,0-0.03C392.646,116.713,392.646,116.743,392.667,116.743"/>
<path d="M392.671,116.779c-9.003-13.431-27.25-9.87-40.966-11.759c-0.087-0.012-0.126,0.121-0.037,0.134 c13.749,2.057,31.815-1.712,40.863,11.707C392.589,116.946,392.729,116.866,392.671,116.779"/>
<path d="M386.378,113.23c-10.963-2.909-22.302-3.215-33.432-1.078c-0.097,0.018-0.056,0.165,0.04,0.146 c11.243-2.061,22.26-1.668,33.369,1.015C386.409,113.327,386.432,113.244,386.378,113.23"/>
<path d="M399.995,129.417c4.885-8.543,4.21-21.099,0.741-30.08c-3.959-10.249-13.075-13.6-23.055-15.869 c-0.113-0.025-0.161,0.146-0.048,0.173c10.444,2.472,19.704,6.096,23.388,17.103c2.893,8.64,3.443,20.523-1.117,28.62 C399.871,129.424,399.962,129.477,399.995,129.417"/>
<path d="M398.677,128.394c0.358-8.177-0.85-15.326-6.846-21.289c-6.218-6.183-14.829-9.045-23.006-11.595 c-0.085-0.027-0.121,0.106-0.037,0.134c7.673,2.557,15.73,5.067,21.856,10.601c6.716,6.066,8.222,13.431,7.946,22.149 C398.588,128.45,398.674,128.45,398.677,128.394"/>
<path d="M399.728,127.063c0.1-8.349-0.056-16.842-4.445-24.221c-3.458-5.811-8.745-10.168-14.997-12.671 c-0.08-0.031-0.113,0.096-0.036,0.128c6.63,2.775,12.169,7.486,15.592,13.865c3.789,7.063,3.837,15.093,3.785,22.899 C399.625,127.127,399.728,127.127,399.728,127.063"/>
<path d="M337.854,134.603c-3.795,5.325-7.735,10.785-14.186,12.977c-0.074,0.025-0.043,0.143,0.033,0.118 c6.422-2.091,10.577-7.68,14.219-13.056C337.949,134.601,337.882,134.563,337.854,134.603"/>
<path d="M338.772,133.529c-7.209,8.082-15.898,13.9-26.105,17.522c-0.084,0.03-0.049,0.165,0.038,0.136 c10.178-3.385,19.159-9.446,26.132-17.593C338.875,133.55,338.812,133.485,338.772,133.529"/>
<path d="M328.567,147.575c-5.96,4.042-13.731,9.116-21.244,7.513c-0.095-0.02-0.136,0.125-0.04,0.147 c7.448,1.734,15.524-3.481,21.344-7.557C328.689,147.635,328.631,147.532,328.567,147.575"/>
<path d="M341.322,130.381c-5.449,5.559-11.867,9.421-19.351,11.576c-0.089,0.026-0.051,0.166,0.039,0.14 c7.445-2.073,14.071-6.026,19.394-11.634C341.455,130.41,341.374,130.329,341.322,130.381"/>
<path d="M274.526,166.748c0.859,7.354,0.288,14.309-2.208,21.316c-0.032,0.092,0.113,0.13,0.146,0.04 c2.528-6.848,3.391-14.147,2.103-21.361C274.563,166.72,274.523,166.725,274.526,166.748"/>
<path d="M273.398,161.027c1.477,11.503-4.278,24.036-8.047,34.715c-0.03,0.082,0.1,0.116,0.13,0.035 c3.893-10.53,9.704-23.318,7.973-34.757C273.449,160.989,273.394,160.997,273.398,161.027"/>
<path d="M274.25,157.384c-2.303,16.316-11.11,29.999-20.417,43.2c-0.059,0.084,0.077,0.161,0.136,0.08 c9.445-12.986,18.286-27.035,20.391-43.265C274.37,157.337,274.259,157.321,274.25,157.384"/>
<path d="M292.253,75.743c-8.878,2.239-17.084,6.068-24.598,11.29c-0.079,0.054-0.004,0.185,0.076,0.129 c7.537-5.23,15.692-8.936,24.544-11.34C292.325,75.808,292.304,75.73,292.253,75.743"/>
<path d="M274.933,80.6c-11.906,5.902-22.992,13.312-32.93,22.137c-0.069,0.061,0.032,0.161,0.101,0.101 c10.084-8.724,20.994-16.11,32.888-22.136C275.059,80.667,275,80.567,274.933,80.6"/>
<path d="M296.666,75.375c-6.332-0.687-13.168,3.728-18.455,6.752c-6.337,3.627-12.239,7.922-17.686,12.78 c-0.074,0.066,0.035,0.173,0.109,0.109c5.074-4.415,10.438-8.438,16.22-11.882c5.65-3.364,13.072-8.217,19.812-7.662 C296.728,75.477,296.727,75.382,296.666,75.375"/>
<path d="M309.307,72.604c-14.469,2.619-27.912,8.861-39.364,18.064c-0.073,0.06,0.031,0.161,0.103,0.103 c11.566-9.168,24.821-15.192,39.288-18.07C309.396,72.688,309.37,72.594,309.307,72.604"/>
<path d="M315.693,72.411c-17.912,0.482-32.783,11.214-45.772,22.579c-0.067,0.059,0.03,0.154,0.097,0.098 c13.293-11.224,27.597-21.836,45.675-22.547C315.776,72.538,315.777,72.409,315.693,72.411"/>
<path d="M323.668,71.744c-7.914,1.879-15.24,5.124-21.994,9.652c-0.083,0.055-0.005,0.19,0.078,0.134 c6.75-4.536,14.05-7.73,21.943-9.688C323.758,71.826,323.731,71.729,323.668,71.744"/>
<path d="M261.667,87.067c0.008,0,0.008-0.012,0-0.012S261.659,87.067,261.667,87.067"/>
<path d="M261.331,85.395c0,0.444,0,0.889,0,1.333c0,0.004,0.006,0.004,0.006,0c0-0.444,0-0.889-0.001-1.333 C261.335,85.391,261.331,85.391,261.331,85.395"/>
<path d="M259.282,87.293c-10.637,5.021-20.112,11.988-28.274,20.439c-0.075,0.078,0.044,0.197,0.12,0.119 c8.204-8.48,17.65-15.227,28.192-20.493C259.364,87.336,259.325,87.272,259.282,87.293"/>
<path d="M247.462,91.692c-12.974,7.019-25.376,15.112-37.162,23.976c-0.085,0.064-0.002,0.21,0.085,0.145 c11.884-8.806,24.27-16.731,37.129-24.033C247.571,91.748,247.52,91.661,247.462,91.692"/>
<path d="M319.983,72.414c-5.431-0.607-10.905,2.412-15.806,4.446c-5.177,2.15-10.262,4.512-15.247,7.076 c-0.093,0.048-0.011,0.186,0.082,0.14c5.004-2.496,10.052-4.884,15.215-7.036c4.845-2.019,10.419-4.983,15.756-4.534 C320.042,72.511,320.042,72.421,319.983,72.414"/>
<path d="M331.341,71.647c-5.854-0.104-11.588,2.671-16.816,5.062c-6.705,3.067-13.007,6.855-18.946,11.217 c-0.086,0.063-0.003,0.208,0.085,0.145c5.006-3.637,10.233-6.911,15.771-9.679c5.96-2.979,13.087-6.641,19.906-6.656 C331.399,71.737,331.399,71.648,331.341,71.647"/>
<path d="M339.819,72.25c-8.294-1.831-17.31,2.371-24.721,5.798c-8.605,3.98-16.549,9.182-23.73,15.359 c-0.09,0.078,0.041,0.207,0.131,0.131c6.364-5.405,13.236-10.107,20.698-13.867c7.907-3.984,18.582-9.185,27.593-7.315 C339.859,72.37,339.888,72.266,339.819,72.25"/>
<path d="M231.548,97.595c-19.869,4.818-39.882,8.271-60.202,10.521c-0.086,0.009-0.088,0.144,0,0.135 c20.295-1.926,40.486-5.494,60.242-10.514C231.679,97.713,231.64,97.573,231.548,97.595"/>
<path d="M228.333,99.071c-12.341,5.539-25.18,8.983-38.675,10.114c-0.116,0.01-0.117,0.191,0,0.182 c13.435-1.092,26.522-4.456,38.726-10.208C228.444,99.131,228.392,99.044,228.333,99.071"/>
<path d="M210.333,101.547c-16.349-0.229-32.375-2.679-48.024-7.418c-0.118-0.036-0.167,0.147-0.05,0.183 c15.584,4.834,31.755,7.345,48.074,7.39C210.433,101.703,210.433,101.548,210.333,101.547"/>
<path d="M197.698,98.341c-18.395,1.224-27.638-18.448-44.396-22.204c-0.104-0.023-0.149,0.137-0.044,0.162 c16.31,3.874,26.392,24.078,44.44,22.13C197.753,98.424,197.756,98.338,197.698,98.341"/>
<path d="M168.746,79.602c-10.226-6.873-21.694-10.493-34.067-9.78c-0.098,0.006-0.099,0.157,0,0.152 c12.433-0.59,23.63,3.04,33.999,9.744C168.75,79.765,168.816,79.65,168.746,79.602"/>
<path d="M155.911,67.54c-8.841-9.516-26.296-9.399-38.244-9.605c-0.135-0.002-0.135,0.208,0,0.21 c12.31,0.238,28.715,0.332,38.175,9.464C155.887,67.653,155.953,67.586,155.911,67.54"/>
<path d="M160.984,72.403c-10.761-7.755-23.412-12.155-36.646-12.88c-0.111-0.007-0.11,0.166,0,0.173 c13.311,0.879,25.612,5.243,36.571,12.836C160.988,72.587,161.062,72.459,160.984,72.403"/>
<path d="M164.257,76.215c-14.385-10.566-32.63-10.011-49.608-9.043c-0.121,0.007-0.122,0.195,0,0.189 c17.096-0.842,34.932-1.41,49.525,8.996C164.26,76.419,164.341,76.277,164.257,76.215"/>
<path d="M141.929,57.179c-10.344-6.257-23.755-5.274-33.472,1.694c-0.104,0.074-0.006,0.248,0.101,0.173 c10.084-7.076,22.517-7.426,33.311-1.765C141.936,57.315,141.993,57.219,141.929,57.179"/>
<path d="M146.7,59.28c-13.182-4.194-27.114-5.145-40.741-2.739c-0.105,0.018-0.059,0.176,0.044,0.159 c13.747-2.192,27.319-1.288,40.649,2.752C146.763,59.486,146.809,59.315,146.7,59.28"/>
<path d="M118.675,52.62C106.15,53.717,98.228,63.731,91.39,73.233c-0.075,0.104,0.098,0.204,0.173,0.1 c6.839-9.512,14.635-19.303,27.112-20.588C118.754,52.737,118.756,52.613,118.675,52.62"/>
<path d="M106.317,54.339c-3.866,0.178-6.995,4.728-9.342,7.325c-3.583,3.964-6.767,8.235-9.606,12.759 c-0.057,0.091,0.086,0.174,0.143,0.084c2.366-3.706,4.917-7.269,7.761-10.626c2.469-2.914,6.967-9.157,11.044-9.429 C106.388,54.447,106.39,54.336,106.317,54.339"/>
<path d="M84.376,168.207c-7.662-13.095-15.278-26.311-16.066-41.828c-0.004-0.087-0.14-0.088-0.137,0 c0.449,15.387,8.281,29.078,16.098,41.89C84.313,168.334,84.417,168.275,84.376,168.207"/>
<path d="M83.778,167.298c-7.343-9.458-12.951-19.676-17.153-30.883c-0.032-0.085-0.168-0.05-0.138,0.037 c3.875,11.228,9.766,21.68,17.221,30.916C83.748,167.419,83.817,167.348,83.778,167.298"/>
<path d="M80.883,165.644c-2.227-4.61-5.734-8.543-8.41-12.902c-3.22-5.246-5.869-10.751-8.198-16.445 c-0.035-0.085-0.174-0.049-0.14,0.039c2.011,5.193,4.426,10.207,7.266,15.001c2.914,4.92,6.766,9.287,9.41,14.349 C80.836,165.734,80.906,165.692,80.883,165.644"/>
<path d="M74.948,160.311c-1.804-4.029-4.915-7.538-7.282-11.259c-2.486-3.909-4.749-7.941-6.915-12.034 c-0.035-0.068-0.136-0.009-0.102,0.059c2.099,4.129,4.393,8.148,6.883,12.053c2.374,3.724,5.498,7.213,7.35,11.22 C74.903,160.395,74.968,160.354,74.948,160.311"/>
<path d="M138.19,131.521c9.495-4.891,16.664-12.226,20.096-22.478c0.023-0.07-0.086-0.099-0.111-0.03 c-3.654,10.378-10.652,17.091-20.01,22.466C138.138,131.496,138.162,131.536,138.19,131.521"/>
<path d="M139.181,130.966c7.169-3.195,15.495-4.683,20.54-11.223c0.047-0.061-0.06-0.144-0.109-0.083 c-5.187,6.42-13.327,7.929-20.49,11.205C139.053,130.897,139.113,130.997,139.181,130.966"/>
<path d="M139.69,130.846c8.611,0.782,17.229,0.157,25.661-1.719c0.089-0.02,0.051-0.153-0.037-0.135 c-8.533,1.727-16.949,2.248-25.624,1.737C139.614,130.724,139.616,130.839,139.69,130.846"/>
<path d="M140.604,131.152c7.795-2.092,15.422-4.668,22.846-7.839c0.062-0.027,0.016-0.137-0.047-0.111 c-7.459,3.088-15.034,5.731-22.83,7.839C140.501,131.061,140.531,131.171,140.604,131.152"/>
<path d="M144.018,126.081c3.096-3.798,5.137-8.191,6.043-13.004c0.012-0.059-0.079-0.085-0.091-0.025 c-0.988,4.808-2.98,9.114-6.005,12.976C143.936,126.064,143.987,126.119,144.018,126.081"/>
<path d="M189.459,157.246c-13.363-10.531-29.794-16.504-46.798-17.028c-0.097-0.003-0.097,0.146,0,0.15 c17.134,0.756,33.101,6.561,46.733,16.963C189.442,157.368,189.507,157.284,189.459,157.246"/>
<path d="M187.483,157.201c-6.384-4.721-15.201-6.166-22.862-7.479c-8.464-1.452-17.038-1.988-25.619-1.717 c-0.118,0.004-0.118,0.186,0,0.183c8.568-0.206,17.107,0.284,25.564,1.733c7.692,1.318,16.364,2.824,22.859,7.38 C187.486,157.344,187.542,157.244,187.483,157.201"/>
<path d="M175.256,151.899c-11.732-4.79-24.28-6.815-36.922-6.232c-0.108,0.004-0.109,0.173,0,0.169 c12.728-0.496,25.003,1.653,36.891,6.175C175.296,152.038,175.324,151.927,175.256,151.899"/>
<path d="M157.018,151.237c-8.673,0.199-15.494,5.246-21.811,10.704c-0.081,0.071,0.038,0.188,0.119,0.118 c6.36-5.447,13.005-10.371,21.692-10.722C157.081,151.334,157.082,151.236,157.018,151.237"/>
<path d="M179.335,153.005c-4.813-5.083-14.008-5.382-20.479-6.542c-8.904-1.596-17.866-2.889-26.864-3.809 c-0.092-0.009-0.09,0.133,0,0.143c8.329,0.98,16.636,2.096,24.901,3.53c6.839,1.186,17.237,1.537,22.37,6.75 C179.309,153.125,179.38,153.054,179.335,153.005"/>
<path d="M181.874,149.887c-8.347-6.239-18.501-8.496-28.547-10.457c-0.097-0.019-0.139,0.129-0.041,0.149 c10.054,2.093,20.041,4.305,28.536,10.396C181.875,150.014,181.925,149.926,181.874,149.887"/>
<path d="M172.075,142.574c-13.069-5.613-27.389-7.077-41.365-4.581c-0.111,0.02-0.064,0.189,0.047,0.169 c14.093-2.452,28.023-0.799,41.271,4.524C172.092,142.712,172.139,142.601,172.075,142.574"/>
<path d="M162.11,137.371c-2.949-0.049-6.024-1.601-8.937-2.093c-2.22-0.376-4.479-0.571-6.731-0.575 c-5.104-0.01-10.069,0.99-14.827,2.815c-0.094,0.037-0.055,0.189,0.042,0.154c5.304-1.911,10.809-2.98,16.469-2.725 c2.788,0.125,5.582,0.534,8.287,1.224c1.965,0.502,3.668,1.376,5.697,1.287C162.167,137.456,162.167,137.372,162.11,137.371"/>
<path d="M187.438,193.09c3.458-6.975,7.567-13.996,7.108-22.042c-0.004-0.078-0.126-0.079-0.123,0 c0.304,8.103-3.73,14.898-7.088,21.982C187.303,193.1,187.404,193.16,187.438,193.09"/>
<path d="M187.728,192.787c4.538-5.133,8.216-10.967,10.733-17.348c0.02-0.05-0.067-0.088-0.089-0.037 c-2.756,6.332-6.232,12.041-10.743,17.286C187.57,192.756,187.667,192.855,187.728,192.787"/>
<path d="M189.145,187.657c1.819-4.948,2.031-10.221,0.766-15.327c-0.02-0.079-0.141-0.046-0.123,0.035 c1.173,5.232,0.895,10.168-0.699,15.276C189.078,187.678,189.131,187.691,189.145,187.657"/>
<path d="M188.847,190.969c4.605-5.083,7.086-13.394,9.034-19.842c0.024-0.079-0.098-0.112-0.123-0.034 c-2.049,6.548-4.416,14.534-8.968,19.819C188.757,190.951,188.812,191.008,188.847,190.969"/>
<path d="M189.658,188.062c3.144-7.317,4.177-15.172,2.933-23.049c-0.009-0.056-0.109-0.044-0.101,0.014 c1.025,7.963,0.103,15.546-2.905,23.004C189.568,188.073,189.64,188.104,189.658,188.062"/>
<path d="M191.243,159.255c-7.023-2.93-14.313-4.41-21.91-4.554c-0.105-0.002-0.105,0.16,0,0.162 c7.595,0.171,14.835,1.692,21.882,4.494C191.279,159.381,191.305,159.281,191.243,159.255"/>
<path d="M191.676,159.271c-6.976-0.834-13.756,0.027-20.366,2.375c-0.103,0.037-0.059,0.204,0.046,0.167 c6.61-2.354,13.347-3.094,20.32-2.448C191.737,159.37,191.735,159.277,191.676,159.271"/>
<path d="M182.696,154.676c-7.671-3.39-16.074-3.386-23.782-0.118c-0.084,0.036-0.023,0.185,0.063,0.15 c7.826-3.18,15.858-3.114,23.674,0.075C182.712,154.809,182.757,154.703,182.696,154.676"/>
<path d="M166.347,150.414c-8.821-0.381-16.973,4.531-21.099,12.266c-0.045,0.086,0.084,0.162,0.131,0.076 c4.258-7.826,12.123-12.247,20.968-12.252C166.405,150.504,166.405,150.416,166.347,150.414"/>
<path d="M326.088,150.353c-1.462,10.361-5.046,19.945-10.683,28.762c-0.057,0.088,0.083,0.169,0.14,0.082 c5.744-8.725,9.331-18.468,10.694-28.823C326.25,150.288,326.101,150.267,326.088,150.353"/>
<path d="M324.108,152.655c-2.986,8.386-7.063,16.002-12.367,23.141c-0.053,0.072,0.066,0.139,0.119,0.07 c5.394-6.991,9.552-14.81,12.344-23.184C324.225,152.621,324.129,152.595,324.108,152.655"/>
<path d="M321.029,154.734c-2.305,8.326-5.769,16.021-10.432,23.286c-0.053,0.083,0.078,0.159,0.132,0.077 c4.747-7.184,8.226-15.006,10.421-23.329C321.171,154.69,321.05,154.656,321.029,154.734"/>
<path d="M312.397,157.728c0.003-0.087,0.007-0.175,0.01-0.263c0.004-0.101-0.155-0.101-0.157,0 c-0.124,5.856-0.796,11.584-2.024,17.313c-0.022,0.102,0.132,0.146,0.156,0.043c1.284-5.496,2.284-11.448,1.887-17.093 C312.274,157.81,312.395,157.811,312.397,157.728"/>
<path d="M309.979,156.06c-0.063,7.106-1.985,13.589-5.666,19.659c-0.048,0.08,0.075,0.151,0.124,0.072 c3.795-5.957,5.683-12.678,5.7-19.731C310.139,155.958,309.98,155.958,309.979,156.06"/>
<path d="M178.719,212.108c-0.873,0.865,7.451,4.694,8.073,4.808c6.908,1.262,14.717,0.117,21.573-1.05 c0.11-0.018,0.063-0.183-0.045-0.166c-4.528,0.722-9.055,1.204-13.641,1.294c-1.797,0.034-3.61,0.063-5.405-0.064 c-1.763-0.126-11.158-1.676-9.909-5.474c0.019-0.059-0.067-0.114-0.108-0.063c-0.188,0.23-0.376,0.46-0.564,0.689 C178.678,212.1,178.702,212.125,178.719,212.108"/>
<!-- <polyline points="181,215.397 181,215.392 181,215.397 "/> -->
<path d="M181,215.397 181,215.392 181,215.397 "/>
<path d="M180.606,216.461c10.581,5.993,22.623,5.606,34.397,4.93c0.114-0.007,0.115-0.184,0-0.179 c-11.773,0.632-23.689,0.993-34.32-4.882C180.597,216.283,180.521,216.413,180.606,216.461"/>
<path d="M184.05,220.262c4.004,4.585,9.702,5.272,15.492,5.529c8.374,0.371,16.757,0.633,25.135,0.887 c0.102,0.003,0.101-0.153,0-0.158c-6.525-0.267-13.053-0.483-19.58-0.713c-7.392-0.259-15.519,0.266-20.989-5.603 C184.071,220.167,184.016,220.223,184.05,220.262"/>
<path d="M195.99,229.097c12.863,3.16,26.31,2.379,38.74-2.182c0.085-0.031,0.05-0.168-0.038-0.137 c-12.652,4.396-25.601,5.113-38.672,2.212C195.95,228.974,195.92,229.08,195.99,229.097"/>
<path d="M229.392,230.958c3.958-1.583,7.314-4.577,10.579-7.262c4.377-3.602,8.514-7.471,12.426-11.571 c0.051-0.053-0.029-0.134-0.081-0.081c-6.536,6.716-14.258,15.063-22.948,18.858C229.337,230.916,229.36,230.971,229.392,230.958"/>
<path d="M238.354,229.229c4.244-1.037,7.918-4.619,10.979-7.576c3.661-3.538,6.777-7.528,9.444-11.858 c0.039-0.064-0.061-0.122-0.101-0.059c-2.451,3.898-5.232,7.559-8.466,10.843c-3.312,3.362-7.237,7.298-11.875,8.581 C238.291,229.173,238.31,229.241,238.354,229.229"/>
<path d="M249.402,226.18c8.117-4.753,14.233-12.025,17.677-20.763c0.031-0.079-0.097-0.113-0.129-0.035 c-3.524,8.76-9.564,15.781-17.595,20.717C249.303,226.131,249.35,226.211,249.402,226.18"/>
<path d="M178.483,209.538c4.703,4.394,11.147,3.231,16.858,1.854c0.101-0.025,0.059-0.179-0.043-0.156 c-5.704,1.303-11.941,2.51-16.709-1.804C178.518,209.367,178.412,209.472,178.483,209.538"/>
<path d="M179.315,206.063c1.476,3.542,6.035,4.962,9.259,2.875c0.068-0.044,0.006-0.152-0.063-0.108 c-3.183,2.005-7.596,0.636-9.097-2.809C179.389,205.966,179.291,206.006,179.315,206.063"/>
<path d="M249.125,225.529c8.899-7.981,15.599-17.992,19.823-29.16c0.031-0.081-0.098-0.115-0.13-0.036 c-4.363,11.214-11.019,20.874-19.757,29.133C249.019,225.506,249.082,225.568,249.125,225.529"/>
<path d="M260.727,221.124c4.067-3.819,7.091-8.47,8.961-13.725c0.021-0.061-0.074-0.086-0.096-0.026 c-1.926,5.237-4.92,9.805-8.935,13.681C260.611,221.098,260.681,221.167,260.727,221.124"/>
<path d="M335.018,257.426c3.354,11.146,7.838,22.238,4.141,33.927c-0.035,0.109,0.133,0.153,0.169,0.047 c3.907-11.508-0.678-23.019-4.155-34.016C335.142,257.285,334.988,257.327,335.018,257.426"/>
<path d="M333.7,261.175c3.247,8.622,5.173,17.334,5.806,26.541c0.006,0.091,0.149,0.093,0.144,0 c-0.503-9.144-2.449-18.062-5.852-26.567C333.773,261.089,333.677,261.113,333.7,261.175"/>
<path d="M331.905,265.762c2.947,7.326,4.129,14.761,3.42,22.641c-0.009,0.108,0.156,0.104,0.167,0 c0.818-7.785-0.321-15.514-3.501-22.677C331.969,265.678,331.885,265.713,331.905,265.762"/>
<path d="M330.073,269.287c4.459,4.758,4.757,13.314,4.656,19.447c-0.002,0.11,0.167,0.11,0.171,0 c0.214-6.173-0.159-14.857-4.726-19.548C330.11,269.12,330.011,269.22,330.073,269.287"/>
<path d="M328.058,272.688c3.404,5.854,4.4,12.099,2.937,18.705c-0.02,0.091,0.118,0.13,0.141,0.039 c1.662-6.445,0.605-13.191-2.995-18.793C328.107,272.587,328.025,272.634,328.058,272.688"/>
<path d="M324.809,275.855c2.515,3.857,3.896,7.966,4.324,12.547c0.007,0.081,0.133,0.083,0.128,0 c-0.233-4.547-1.759-8.871-4.347-12.609C324.871,275.73,324.766,275.789,324.809,275.855"/>
<path d="M289.541,366.758c-1.988-8.112-3.401-16.324-4.032-24.66c-0.558-7.367-0.732-14.775,2.178-21.707 c0.031-0.071-0.095-0.125-0.126-0.054c-2.889,6.645-2.803,13.684-2.312,20.8c0.597,8.672,2.022,17.233,4.153,25.659 C289.425,366.887,289.563,366.849,289.541,366.758"/>
<path d="M289,365.738c0.013,0,0.013-0.021,0-0.021S288.987,365.738,289,365.738"/>
<path d="M289.304,365.697c-1.936-13.816-3.632-27.694,0.337-41.328c0.029-0.101-0.124-0.142-0.154-0.043 c-4.157,13.54-2.333,27.656-0.338,41.414C289.163,365.843,289.318,365.799,289.304,365.697"/>
<path d="M288.7,349.395c-1.01-14.345,3.089-28.105,11.792-39.552c0.041-0.054-0.053-0.129-0.096-0.073 c-8.794,11.301-12.975,25.354-11.764,39.625C288.635,349.438,288.703,349.439,288.7,349.395"/>
<path d="M293.398,331.18c4.182-9.48,7.938-18.841,15.868-25.899c0.05-0.044-0.023-0.117-0.074-0.074 c-7.851,6.757-12.266,16.424-15.807,25.967C293.382,331.182,293.395,331.187,293.398,331.18"/>
<path d="M284.94,321.374c0.112-0.333,0.226-0.666,0.335-1c0.007-0.021-0.027-0.03-0.034-0.01c-0.114,0.332-0.223,0.666-0.334,1 C284.899,321.386,284.934,321.395,284.94,321.374"/>
<path d="M305.899,317.026c4.67-8.1,14.91-12.324,23.473-14.826c0.079-0.024,0.046-0.146-0.034-0.124 c-8.608,2.361-18.987,6.72-23.546,14.888C305.753,317.034,305.859,317.095,305.899,317.026"/>
<path d="M300.303,322.053c2.359-7.729,7.208-13.998,14.059-18.275c0.07-0.045,0.006-0.157-0.066-0.114 c-6.903,4.146-11.87,10.627-14.133,18.352C300.136,322.104,300.276,322.143,300.303,322.053"/>
<path d="M341.792,356.25c-7.171-6.207-12.213-13.821-15.058-22.874c-0.025-0.083-0.156-0.05-0.131,0.036 c2.629,9.016,7.842,16.963,15.113,22.913C341.769,356.369,341.845,356.296,341.792,356.25"/>
<path d="M340.535,356.22c-2.752-3.583-4.594-8.087-6.595-12.114c-2.597-5.229-4.928-10.557-6.901-16.053 c-0.026-0.075-0.146-0.044-0.12,0.032c1.795,5.246,4.023,10.304,6.47,15.276c2.11,4.287,4.042,9.189,7.067,12.919 C340.492,356.323,340.57,356.265,340.535,356.22"/>
<path d="M338.642,354.415c-6.207-9.77-10.237-20.306-12.055-31.731c-0.015-0.094-0.154-0.054-0.141,0.038 c1.639,11.376,5.732,22.179,12.107,31.745C338.59,354.521,338.678,354.472,338.642,354.415"/>
<path d="M336.792,352.68c-4.57-10.979-6.502-22.402-5.968-34.278c0.004-0.084-0.125-0.083-0.13,0 c-0.778,11.796,1.327,23.47,6.017,34.312C336.731,352.759,336.812,352.727,336.792,352.68"/>
<path d="M354.5,264.167c-2.97,4.744-4.932,10.032-5.811,15.559c-0.011,0.071,0.099,0.104,0.112,0.03 c1.037-5.566,2.943-10.635,5.802-15.529C354.643,264.161,354.542,264.103,354.5,264.167"/>
<path d="M352.554,263.333c-4.02,7.711-7.031,15.896-8.958,24.376c-0.016,0.073,0.095,0.104,0.114,0.031 c2.115-8.486,5.054-16.508,8.935-24.354C352.676,263.326,352.586,263.271,352.554,263.333"/>
<path d="M349.715,261.742c-1.778,4.023-2.708,8.254-2.732,12.652c-0.001,0.103,0.156,0.103,0.158,0 c0.095-4.401,0.968-8.534,2.699-12.579C349.877,261.731,349.753,261.656,349.715,261.742"/>
<path d="M346.319,261.292c-2.423,7.926-3.471,16.156-3.306,24.434c0.002,0.089,0.139,0.089,0.139,0 c-0.039-8.338,1.091-16.366,3.237-24.415C346.401,261.266,346.333,261.248,346.319,261.292"/>
<path d="M343.646,258.728c-0.493,5.093-0.809,10.22-1.108,15.328c-0.005,0.078,0.114,0.076,0.12,0 c0.414-5.098,0.816-10.218,1.036-15.328C343.695,258.696,343.648,258.697,343.646,258.728"/>
<path d="M340.242,257.727c-0.053,3.442,0.544,6.768,1.796,9.978c0.028,0.073,0.146,0.042,0.119-0.033 c-1.2-3.221-1.799-6.505-1.81-9.945C340.346,257.659,340.243,257.659,340.242,257.727"/>
<path d="M276.847,172.449c0.858,2.741,0.79,5.588,1.355,8.379c0.896,4.414,2.12,8.288,1.469,12.9 c-0.014,0.101,0.14,0.146,0.156,0.043c0.528-3.468,0.105-6.695-0.728-10.086c-0.913-3.717-0.931-7.644-2.127-11.271 C276.946,172.336,276.822,172.369,276.847,172.449"/>
<path d="M277.253,175.747c0.969,4.892,3.004,9.379,6.027,13.345c0.047,0.062,0.155,0.002,0.107-0.062 c-2.989-3.996-4.991-8.432-6.036-13.31C277.337,175.656,277.24,175.684,277.253,175.747"/>
<path d="M276.604,174.744c1.465,8.911,1.687,17.69,0.82,26.668c-0.007,0.079,0.113,0.077,0.122,0 c1.048-8.924,0.718-17.854-0.846-26.694C276.689,174.654,276.595,174.682,276.604,174.744"/>
<path d="M325.256,160.388c-0.798,5.979-1.352,11.98-1.615,18.007c-0.002,0.047,0.07,0.046,0.072,0 c0.291-6.028,0.808-12.024,1.597-18.007C325.315,160.353,325.26,160.354,325.256,160.388"/>
<path d="M386,113.735c0.01,0,0.01-0.015,0-0.015S385.99,113.735,386,113.735"/>
<path d="M386.707,113.391c0.422-0.441,2.093,0.25,2.53,0.518c0.415,0.254,0.795,0.532,1.177,0.834 c0.991,0.783,1.84,1.68,2.561,2.722c1.172,1.694,1.854,3.607,2.151,5.634c0.011,0.076,0.146,0.059,0.136-0.019 c-0.351-2.944-1.692-5.664-3.847-7.714c-0.704-0.671-3.958-3.588-4.751-2.008C386.651,113.385,386.685,113.414,386.707,113.391"/>
<path d="M386.463,113.517c2.929,2.439,4.966,5.072,5.66,8.917c0.017,0.093,0.154,0.052,0.14-0.039 c-0.54-3.497-2.577-7.178-5.767-8.92C386.47,113.46,386.439,113.496,386.463,113.517"/>
<path d="M383.344,112.452c-8.322-0.341-16.293,1.864-23.348,6.264c-0.08,0.05-0.006,0.177,0.075,0.128 c7.18-4.386,14.872-6.397,23.273-6.288C383.411,112.557,383.41,112.455,383.344,112.452"/>
<path d="M373.663,112.059c-10.12-0.712-20.505,8.148-26.692,15.304c-0.056,0.064,0.037,0.158,0.094,0.094 c6.305-7.196,16.448-15.69,26.598-15.341C373.699,112.117,373.698,112.062,373.663,112.059"/>
<path d="M347.3,124.694c-4.156,3.256-8.477,6.254-12.991,8.992c-0.057,0.035-0.005,0.125,0.053,0.09 c4.523-2.73,8.863-5.733,13.001-9.019C347.408,124.721,347.344,124.659,347.3,124.694"/>
<path d="M250.903,225.41c-0.306,4.707,0.143,9.449,1.252,14.029c0.019,0.077,0.134,0.044,0.118-0.032 c-0.992-4.656-1.383-9.246-1.273-13.997C251.001,225.348,250.907,225.348,250.903,225.41"/>
<path d="M250.205,225.722c-0.452,6.778-0.468,13.565-0.001,20.343c0.006,0.086,0.139,0.087,0.134,0 c-0.393-6.791-0.425-13.551-0.049-20.343C250.292,225.667,250.208,225.668,250.205,225.722"/>
<path d="M250.145,225.74c0.452,4.143,2.067,7.894,4.789,11.051c0.055,0.065,0.147-0.029,0.093-0.093 c-2.678-3.156-4.296-6.844-4.776-10.958C250.243,225.674,250.138,225.672,250.145,225.74"/>
<path d="M250.432,225.036c1.004,3.778,2.855,7.21,5.475,10.113c0.052,0.058,0.135-0.027,0.085-0.085 c-2.582-2.969-4.385-6.268-5.471-10.053C250.505,224.954,250.416,224.979,250.432,225.036"/>
<path d="M249.364,225.063c-1.801,8.013-5.954,14.831-12.129,20.222c-0.065,0.057,0.029,0.149,0.094,0.094 c6.259-5.256,10.418-12.311,12.14-20.287C249.485,225.023,249.379,224.994,249.364,225.063"/>
<path d="M249.573,226.671c-4.254,6.621-9.659,12.061-16.278,16.324c-0.076,0.049-0.006,0.171,0.071,0.122 c6.623-4.164,12.184-9.736,16.303-16.39C249.706,226.667,249.612,226.611,249.573,226.671"/>
<path d="M249.065,225.373c-5.857,4.51-12.254,8.855-19.429,10.905c-0.08,0.023-0.047,0.147,0.034,0.125 c7.174-1.923,13.714-6.36,19.454-10.953C249.167,225.415,249.109,225.339,249.065,225.373"/>
<path d="M240.987,228.045c-3.536,1.558-7.191,2.661-10.995,3.339c-0.071,0.013-0.041,0.121,0.031,0.109 c3.817-0.659,7.48-1.782,11.018-3.356C241.104,228.109,241.049,228.018,240.987,228.045"/>
<path d="M185.529,195.405c1.564-7.713,0.791-16.684-6.78-20.9c-0.084-0.047-0.158,0.079-0.075,0.129 c7.48,4.418,8.169,12.956,6.73,20.737C185.389,195.452,185.512,195.487,185.529,195.405"/>
<path d="M185.597,194.794c0.363,0.748,0.103,0.559,0.931,0.648c0.037,0.004,0.06-0.033,0.064-0.064 c0.818-6.7,0.578-13.401-0.912-19.989c-0.015-0.066-0.114-0.038-0.101,0.027c0.697,3.525,1.214,7.056,1.331,10.652 c0.047,1.436,0.041,2.87-0.02,4.306c-0.024,0.717-0.067,1.434-0.127,2.149c0.24,1.064-0.126,1.809-1.1,2.232 C185.639,194.712,185.576,194.75,185.597,194.794"/>
<path d="M185.145,197.4c-1.606-6.591-3.417-13.305-7.981-18.519c-0.054-0.061-0.139,0.028-0.089,0.089 c4.43,5.385,6.238,11.841,7.95,18.463C185.044,197.511,185.164,197.478,185.145,197.4"/>
<path d="M137.972,130.82c-7.008-1.943-14.223-1.148-20.677,2.175c-0.089,0.046-0.01,0.178,0.078,0.134 c6.557-3.255,13.478-3.948,20.561-2.173C138.023,130.979,138.06,130.844,137.972,130.82"/>
<path d="M138.667,130.744c-7.234,0.027-14.042,2.452-19.699,6.956c-0.058,0.045,0.02,0.148,0.079,0.103 c5.785-4.446,12.328-6.763,19.62-6.995C138.709,130.807,138.709,130.744,138.667,130.744"/>
<path d="M137.596,131.167c-6.206-3.884-13.004-6.401-20.242-7.511c-0.103-0.015-0.148,0.14-0.044,0.157 c7.248,1.194,13.927,3.666,20.218,7.471C137.603,131.331,137.67,131.213,137.596,131.167"/>
<path d="M98.98,90.407c-3.184-0.441-5.286,3.004-6.953,5.288c-2.866,3.926-4.853,8.326-6.05,13.025 c-0.026,0.1,0.127,0.142,0.153,0.043c0.891-3.296,2.092-6.461,3.781-9.437c1.584-2.791,5.112-9.254,9.053-8.803 C99.03,90.531,99.046,90.416,98.98,90.407"/>
<path d="M90.872,93.945c-5.436,6.01-9.179,13.304-11.426,21.055c-0.034,0.121,0.153,0.172,0.187,0.052 c2.3-7.927,6.132-14.662,11.293-21.053C90.955,93.962,90.905,93.908,90.872,93.945"/>
<path d="M81.283,102.033c-3.313,6.634-5.518,13.686-6.633,21.017c-0.013,0.092,0.127,0.133,0.142,0.039 c1.217-7.356,3.395-14.257,6.573-21.008C81.39,102.026,81.311,101.978,81.283,102.033"/>
<path d="M72.77,120.728c-0.461,7.004-0.589,14.108,2.157,20.695c0.035,0.086,0.176,0.05,0.141-0.038 c-2.659-6.686-2.454-13.594-2.245-20.657C72.824,120.693,72.772,120.694,72.77,120.728"/>
<path d="M74.681,77.416c-4.936,4.167-9.825,8.392-14.715,12.613c-0.072,0.062,0.032,0.164,0.103,0.103 c4.907-4.199,9.818-8.397,14.679-12.649C74.794,77.442,74.727,77.377,74.681,77.416"/>
<path d="M63.894,95.906c-3.885,5.106-6.58,10.878-8.068,17.112c-0.019,0.08,0.102,0.114,0.122,0.034 c1.573-6.251,4.239-11.889,8.006-17.111C63.979,95.905,63.919,95.871,63.894,95.906"/>
<path d="M58.337,121.283c-2.078,6.102-2.468,12.439-1.259,18.767c0.017,0.09,0.153,0.051,0.137-0.038 c-1.129-6.384-0.706-12.512,1.186-18.711C58.415,121.26,58.352,121.243,58.337,121.283"/>
<path d="M252.959,89.594c-5.977,1.845-12.041,2.821-18.293,3.003c-0.092,0.003-0.093,0.145,0,0.143 c6.264-0.091,12.358-1.122,18.323-3.039C253.056,89.679,253.027,89.573,252.959,89.594"/>
<path d="M234.333,97.003c-5.123,0.093-10.222,0.001-15.337-0.267c-0.086-0.004-0.085,0.128,0,0.134 c5.102,0.36,10.227,0.425,15.337,0.203C234.377,97.071,234.377,97.003,234.333,97.003"/>
<path d="M177.313,86.041c-0.112,0.11-0.224,0.22-0.334,0.333c-0.026,0.027,0.015,0.068,0.042,0.041 c0.112-0.11,0.222-0.222,0.333-0.334C177.379,86.055,177.339,86.015,177.313,86.041"/>
<path d="M179.351,89.056c-2.421-3.585-4.41-7.297-5.969-11.339c-0.035-0.092-0.184-0.054-0.15,0.041 c1.484,4.041,3.481,7.876,6.016,11.358C179.292,89.177,179.394,89.12,179.351,89.056"/>
<!-- <polyline points="312.667,72.396 312.667,72.393 312.667,72.396 "/> -->
<path d="M312.667,72.396 312.667,72.393 312.667,72.396 "/>
<path d="M312.667,72.411c0.022,0,0.022-0.034,0-0.034C312.646,72.377,312.646,72.411,312.667,72.411"/>
<!-- <polyline points="312.333,72.73 312.333,72.726 312.333,72.73 "/> -->
<path d="M312.333,72.73 312.333,72.726 312.333,72.73 "/>
<path d="M340.75,71.33c-4.237-0.916-8.499-1.724-12.744-2.601c-0.135-0.028-0.193,0.179-0.057,0.208 c4.24,0.896,8.488,1.807,12.758,2.55C340.81,71.505,340.854,71.352,340.75,71.33"/>
<path d="M351.998,72.371c-3.253-0.301-6.327-1.059-9.337-2.325c-0.079-0.033-0.138,0.105-0.059,0.139 c2.993,1.31,6.136,2.088,9.396,2.298C352.071,72.488,352.069,72.377,351.998,72.371"/>
<path d="M422.908,127.612c2.573-7.006,7.068-12.896,13.106-17.271c0.069-0.051,0.003-0.167-0.068-0.117 c-6.13,4.361-10.588,10.288-13.132,17.362C422.793,127.646,422.887,127.671,422.908,127.612"/>
<path d="M423.524,125.836c0.8-4.113,6.752-8.5,9.89-10.733c3.428-2.438,7.159-4.28,11.111-5.705c0.069-0.025,0.04-0.137-0.031-0.112 c-4.605,1.606-8.903,3.864-12.75,6.88c-2.92,2.288-7.589,5.793-8.324,9.641C423.406,125.875,423.511,125.904,423.524,125.836"/>
<path d="M422.292,127.221c4.612-9.483,11.438-17.274,20.312-22.989c0.075-0.048,0.007-0.166-0.068-0.119 c-8.873,5.643-15.877,13.52-20.333,23.055C422.175,127.229,422.263,127.282,422.292,127.221"/>
<path d="M421.941,127.017c8.083-11.216,19.149-19.183,32.363-23.262c0.074-0.023,0.044-0.141-0.032-0.118 c-13.17,3.859-24.582,12.059-32.417,23.33C421.819,127.019,421.904,127.068,421.941,127.017"/>
<path d="M422.296,128.326c5.604-14.59,18.286-23.201,32.032-29.377c0.071-0.032,0.01-0.136-0.062-0.105 c-13.69,5.919-26.827,14.858-32.069,29.455C422.175,128.361,422.272,128.387,422.296,128.326"/>
<path d="M478.76,183.064c-6.249-2.886-11.638-6.938-15.997-12.279c-0.085-0.105-0.231,0.044-0.149,0.148 c4.331,5.328,9.746,9.553,16.059,12.281C478.773,183.259,478.863,183.112,478.76,183.064"/>
<path d="M479.249,183.06c-9.934-3.547-14.925-15.395-18.442-24.514c-0.029-0.077-0.155-0.046-0.126,0.035 c3.324,9.231,8.539,21.108,18.535,24.599C479.292,183.207,479.324,183.087,479.249,183.06"/>
<path d="M479.945,183.629c-5.431-5.128-9.055-11.351-10.905-18.581c-0.023-0.092-0.164-0.053-0.143,0.04 c1.664,7.228,5.46,13.657,10.933,18.656C479.907,183.814,480.021,183.701,479.945,183.629"/>
<path d="M480.479,184.084c-3.826-5.389-6.506-11.138-8.17-17.54c-0.022-0.085-0.151-0.049-0.132,0.037 c1.486,6.375,4.271,12.328,8.216,17.553C480.431,184.185,480.517,184.138,480.479,184.084"/>
<path d="M480.399,184.278c-0.959-5.313-1.232-10.587-0.844-15.967c0.006-0.08-0.117-0.079-0.124,0 c-0.441,5.377-0.147,10.698,0.867,15.994C480.312,184.371,480.411,184.343,480.399,184.278"/>
<path d="M478.835,183.66c-9.99-4.13-19.29-9.463-24.071-19.625c-0.033-0.074-0.14-0.009-0.108,0.064 c4.398,10.181,14.201,15.86,24.156,19.648C478.866,183.768,478.888,183.682,478.835,183.66"/>
<path d="M460.646,176.913c-3.736-3.974-6.62-8.383-8.727-13.412c-0.03-0.072-0.151-0.042-0.121,0.034 c1.98,5.045,4.94,9.619,8.759,13.467C460.614,177.059,460.702,176.972,460.646,176.913"/>
<path d="M451.896,170.119c-3.336-6.392-4.942-13.096-4.821-20.307c0.001-0.063-0.096-0.063-0.098,0 c-0.225,7.161,1.409,14.06,4.86,20.341C451.858,170.191,451.915,170.157,451.896,170.119"/>
<path d="M582.251,177.225c-10.173-1.018-19.204-5.776-25.821-13.568c-0.059-0.068-0.156,0.03-0.099,0.098 c6.581,7.889,15.69,12.658,25.92,13.607C582.339,177.37,582.338,177.234,582.251,177.225"/>
<path d="M582.752,176.564c-15.646,0.925-24.581-12.538-29.518-25.504c-0.032-0.085-0.17-0.049-0.139,0.039 c4.71,12.911,14.058,26.932,29.656,25.579C582.824,176.671,582.826,176.561,582.752,176.564"/>
<path d="M583.769,176.187c-5.171-1.766-9.734-1.389-13.938-5.503c-3.639-3.563-6.562-7.875-9.209-12.195 c-0.051-0.081-0.176-0.009-0.129,0.074c2.719,4.707,6.041,9.526,10.119,13.175c3.806,3.406,8.478,3.131,13.124,4.568 C583.813,176.33,583.844,176.211,583.769,176.187"/>
<path d="M583.801,175.649c-8.17-3.069-14.513-8.713-18.339-16.58c-0.045-0.09-0.176-0.011-0.135,0.079 c3.591,7.816,10.257,13.905,18.446,16.601C583.837,175.77,583.862,175.672,583.801,175.649"/>
<path d="M582.242,174.172c-5.958-1.834-10.955-7.765-14.774-12.485c-3.946-4.877-7.156-10.17-9.841-15.83 c-0.049-0.102-0.198-0.013-0.151,0.088c2.84,6.193,6.459,11.957,10.889,17.138c3.688,4.313,8.195,9.595,13.847,11.205 C582.285,174.31,582.316,174.194,582.242,174.172"/>
<path d="M557.784,170.027c-5.083-5.675-9.215-11.862-12.381-18.792c-0.039-0.084-0.161-0.011-0.124,0.072 c3.066,6.923,7.223,13.292,12.43,18.795C557.756,170.152,557.829,170.078,557.784,170.027"/>
<path d="M543.098,151.531c-2.271-7.269-5.429-14.192-9.318-20.737c-0.035-0.06-0.13-0.006-0.094,0.055 c3.841,6.599,6.897,13.468,9.348,20.7C543.047,151.59,543.111,151.573,543.098,151.531"/>
<path d="M564.903,175.402c-5.955-5.857-11.508-12.024-16.732-18.541c-0.061-0.076-0.164,0.031-0.105,0.106 c5.104,6.585,10.726,12.77,16.772,18.501C564.882,175.509,564.946,175.444,564.903,175.402"/>
<path d="M584.005,173.072c-7.201-4.351-11.075-11.21-14.715-18.54c-0.039-0.08-0.156-0.01-0.119,0.069 c3.377,7.193,7.454,14.753,14.792,18.542C584.01,173.168,584.05,173.101,584.005,173.072"/>
<path d="M583.761,170.836c-3.369-1.341-6.233-5.569-8.154-8.439c-1.905-2.845-3.374-5.889-4.615-9.076 c-0.029-0.077-0.154-0.046-0.126,0.035c1.406,3.944,3.37,7.64,5.885,10.995c1.812,2.418,4.033,5.543,6.971,6.631 C583.813,171.016,583.85,170.872,583.761,170.836"/>
<path d="M583.735,168.216c-2.588-0.346-4.111-4.259-5.158-6.356c-1.181-2.366-2.142-4.822-2.97-7.331 c-0.031-0.095-0.181-0.055-0.15,0.041c1.042,3.336,2.396,6.535,4.121,9.577c0.976,1.721,1.969,3.997,4.157,4.22 C583.833,168.377,583.83,168.229,583.735,168.216"/>
<path d="M482.334,116.377c3.731-3.066,11.866-2.339,16.555-2.445c4.54-0.103,9.076-0.009,13.612,0.187 c0.082,0.004,0.082-0.123,0-0.128c-6.479-0.354-12.965-0.371-19.444,0.001c-3.608,0.207-7.903-0.178-10.8,2.307 C482.202,116.347,482.28,116.421,482.334,116.377"/>
<path d="M481.938,116.274c6.348-7.598,18.561-6.721,27.566-6.191c0.092,0.005,0.091-0.137,0-0.143 c-9.013-0.592-21.311-1.507-27.638,6.263C481.826,116.253,481.896,116.324,481.938,116.274"/>
<path d="M483.049,115.634c4.892-3.339,11.415-3.437,17.152-3.514c5.992-0.08,11.907,0.593,17.782,1.753 c0.077,0.015,0.111-0.103,0.032-0.12c-6.488-1.377-13.064-2.009-19.7-1.749c-5.221,0.204-10.917,0.445-15.318,3.542 C482.944,115.583,482.994,115.671,483.049,115.634"/>
<path d="M544.06,98.87c-12.595-4.157-25.827-5.692-39.045-4.702c-0.102,0.008-0.103,0.165,0,0.159 c13.306-0.853,26.271,0.756,39.012,4.665C544.104,99.016,544.137,98.895,544.06,98.87"/>
<path d="M550.723,102.129c-9.39-3.372-19.3-4.45-29.217-3.597c-0.114,0.01-0.116,0.189,0,0.18 c10.032-0.802,19.613,0.494,29.19,3.513C550.758,102.245,550.781,102.15,550.723,102.129"/>
<path d="M557.459,106.166c-6.021-2.214-12.321-3.451-18.713-3.877c-0.112-0.008-0.111,0.166,0,0.174 c6.429,0.515,12.557,1.834,18.685,3.805C557.496,106.288,557.521,106.188,557.459,106.166"/>
<path d="M561.241,109.08c-6.152-2.305-12.705-3.567-19.239-4.116c-0.102-0.009-0.1,0.146,0,0.157 c6.614,0.673,12.868,2.128,19.218,4.032C561.269,109.167,561.286,109.097,561.241,109.08"/>
<path d="M523.013,92.035c-12.508-0.796-25.071-0.276-37.488,1.39c-0.085,0.012-0.087,0.146,0,0.135 c12.48-1.527,24.929-1.938,37.488-1.398C523.095,92.167,523.094,92.04,523.013,92.035"/>
<path d="M568.042,115.021c-3.927-4.898-10.367-7.217-16.527-6.669c-0.115,0.01-0.118,0.189,0,0.181 c6.493-0.463,11.946,1.99,16.479,6.536C568.026,115.101,568.069,115.055,568.042,115.021"/>
<path d="M570.024,117.308c0.045-0.024,0.09-0.049,0.135-0.074c0.029-0.015,0.031-0.049,0.021-0.075 c-0.729-1.728-4.497-2.705-6.153-3.121c-3.177-0.795-6.518-0.882-9.774-0.872c-0.089,0-0.089,0.136,0,0.139 c2.776,0.086,5.561,0.118,8.302,0.616c0.893,0.162,8.101,2.228,7.455,3.371C570.003,117.302,570.015,117.313,570.024,117.308"/>
<path d="M576.768,130.133c1.413,5.636,2.64,11.121,3.189,16.926c0.009,0.096,0.159,0.099,0.152,0 c-0.404-5.699-1.349-11.553-3.28-16.943C576.815,130.078,576.757,130.092,576.768,130.133"/>
<path d="M577.137,129.757c2.278,6.958,3.136,13.995,2.71,21.297c-0.006,0.104,0.151,0.102,0.16,0 c0.592-7.295-0.353-14.419-2.714-21.34C577.26,129.616,577.104,129.657,577.137,129.757"/>
<path d="M576.214,129.331c0.267,6.217-0.741,12.006-3.264,17.699c-0.042,0.095,0.098,0.179,0.142,0.082 c2.587-5.575,3.741-11.649,3.206-17.781C576.293,129.279,576.212,129.277,576.214,129.331"/>
<path d="M575.899,129.998c-0.987,2.452-0.375,5.404-0.193,7.977c0.269,3.81,0.338,7.428-1.02,11.069 c-0.032,0.089,0.107,0.125,0.142,0.039c1.092-2.768,1.324-5.451,1.203-8.412c-0.136-3.325-1.249-7.447-0.063-10.654 C575.983,129.974,575.916,129.957,575.899,129.998"/>
<path d="M576.341,131.106c1.754,6.604,2.294,13.175,1.759,19.972c-0.007,0.092,0.133,0.09,0.142,0 c0.691-6.767,0.056-13.464-1.787-20.003C576.434,131.002,576.319,131.033,576.341,131.106"/>
<path d="M576.397,129.558c-3.181,1.309-6.235,2.922-9.146,4.751c-0.075,0.047-0.008,0.165,0.068,0.119 c2.945-1.798,5.973-3.364,9.108-4.796C576.47,129.613,576.44,129.54,576.397,129.558"/>
<path d="M570.525,227.574c1.254-8.997,1.228-18.025-0.034-27.02c-0.01-0.069-0.132-0.053-0.123,0.017 c1.15,9.039,1.141,17.942,0.017,26.984C570.375,227.634,570.514,227.654,570.525,227.574"/>
<path d="M570.799,226.825c2.605-11.08,3.238-22.444,1.896-33.749c-0.009-0.083-0.139-0.084-0.13,0 c1.183,11.372,0.555,22.541-1.876,33.719C570.674,226.867,570.782,226.897,570.799,226.825"/>
<path d="M571.14,225.856c4.464-12.92,6.979-26.381,7.408-40.045c0.002-0.074-0.111-0.074-0.114,0 c-0.62,13.698-3.056,27.012-7.396,40.017C571.017,225.892,571.117,225.919,571.14,225.856"/>
<path d="M569.186,227.563c0.154-6.996-0.643-13.937-2.203-20.751c-0.02-0.086-0.151-0.05-0.133,0.037 c1.469,6.862,2.148,13.705,2.233,20.714C569.084,227.628,569.184,227.628,569.186,227.563"/>
<path d="M566.406,228.09c1.088-7.64,0.384-15.239-2.088-22.548c-0.026-0.078-0.149-0.046-0.124,0.034 c2.314,7.406,3.006,14.803,2.117,22.501C566.305,228.131,566.399,228.144,566.406,228.09"/>
<path d="M563.533,228.059c0.503-3.753,0.51-7.494,0.046-11.251c-0.009-0.069-0.117-0.07-0.108,0 c0.447,3.763,0.428,7.491-0.033,11.251C563.43,228.121,563.525,228.12,563.533,228.059"/>
<path d="M492.021,214.214c3.445-0.925,6.156-4.576,8.598-6.973c3.799-3.729,7.455-7.597,10.969-11.595 c0.061-0.069-0.04-0.171-0.102-0.102c-2.912,3.237-5.872,6.429-8.938,9.522c-2.893,2.918-6.557,7.864-10.56,9.027 C491.911,214.116,491.943,214.235,492.021,214.214"/>
<path d="M492.606,215.034c9.181-4.183,17.671-9.494,25.442-15.925c0.07-0.058-0.03-0.158-0.101-0.1 c-7.801,6.397-16.243,11.695-25.397,15.929C492.486,214.968,492.542,215.063,492.606,215.034"/>
<path d="M494.176,213.429c7.625-4.4,14.253-10.16,19.512-17.236c0.033-0.046-0.045-0.107-0.08-0.061 c-5.405,6.968-11.851,12.759-19.482,17.21C494.068,213.374,494.119,213.462,494.176,213.429"/>
<path d="M492.706,214.52c5.599-5.75,10.596-12.039,15.053-18.707c0.045-0.067-0.063-0.128-0.106-0.063 c-4.507,6.648-9.53,12.841-14.993,18.723C492.63,214.504,492.676,214.551,492.706,214.52"/>
<path d="M501.354,243.177c9.072-7.599,16.59-16.815,22.397-27.112c0.052-0.089-0.084-0.167-0.135-0.079 c-5.943,10.307-13.424,19.256-22.355,27.098C501.198,243.14,501.291,243.231,501.354,243.177"/>
<path d="M501.257,242.757c4.45-1.109,7.954-4.582,11.382-7.46c4.9-4.118,9.629-8.435,14.332-12.775 c0.091-0.084-0.044-0.217-0.134-0.135c-3.839,3.482-7.659,6.984-11.576,10.377c-4.159,3.602-8.606,8.383-14.05,9.827 C501.104,242.621,501.149,242.783,501.257,242.757"/>
<path d="M506.517,242.122c3.213-1.351,5.646-3.667,8.328-5.833c4.214-3.402,8.626-6.506,13.191-9.417 c0.066-0.042,0.005-0.149-0.063-0.107c-3.51,2.184-6.918,4.511-10.203,7.021c-3.677,2.807-7.015,6.385-11.294,8.241 C506.423,242.05,506.462,242.145,506.517,242.122"/>
<path d="M515.623,239.989c7.032-5.039,12.789-11.448,17.098-18.943c0.047-0.081-0.078-0.155-0.125-0.074 c-4.356,7.483-10.057,13.804-17.01,18.954C515.549,239.955,515.585,240.018,515.623,239.989"/>
<path d="M523.034,237.368c6.985-4.867,12.714-11.407,16.585-18.992c0.036-0.07-0.068-0.133-0.106-0.063 c-4.168,7.555-9.611,13.814-16.536,18.955C522.918,237.313,522.973,237.411,523.034,237.368"/>
<path d="M505.135,237.184c3.729-4.214,7.046-8.753,9.926-13.587c0.037-0.063-0.06-0.12-0.099-0.058 c-2.949,4.79-6.237,9.301-9.9,13.572C505.02,237.161,505.091,237.234,505.135,237.184"/>
<path d="M505.054,233.114c2.356-2.401,4.334-5.098,5.938-8.055c0.04-0.075-0.074-0.143-0.116-0.068 c-1.624,2.935-3.599,5.607-5.907,8.039C504.916,233.085,505,233.169,505.054,233.114"/>
<path d="M585.01,162.896c1.961-5.64,3.423-11.457,4.403-17.345c0.011-0.064-0.086-0.092-0.098-0.027 c-1.113,5.892-2.58,11.632-4.389,17.349C584.91,162.927,584.991,162.949,585.01,162.896"/>
<path d="M589.11,153.334c0.883-5.309,1.023-10.67,0.373-16.015c-0.008-0.06-0.101-0.063-0.095,0 c0.518,5.382,0.417,10.638-0.357,15.993C589.023,153.363,589.102,153.387,589.11,153.334"/>
<path d="M583.267,181.056c0.272,3.505,0.571,7.008,0.883,10.509c0.006,0.063,0.104,0.064,0.099,0 c-0.283-3.504-0.58-7.008-0.902-10.509C583.341,181.006,583.263,181.005,583.267,181.056"/>
<path d="M582.07,186.555c-0.138,4.125,0.151,8.207,0.917,12.262c0.01,0.055,0.094,0.031,0.084-0.023 c-0.729-4.063-1.05-8.114-0.924-12.239C582.149,186.506,582.072,186.506,582.07,186.555"/>
<path d="M580.196,196.061c0.26,3.283,0.724,6.562,1.467,9.772c0.016,0.066,0.114,0.038,0.102-0.028 c-0.626-3.235-1.138-6.463-1.459-9.744C580.299,195.992,580.19,195.99,580.196,196.061"/>
<path d="M579.21,202.811c-0.003,1.749-0.037,3.501,0.008,5.25c0.001,0.042,0.063,0.042,0.064,0c0.045-1.749,0.011-3.501,0.008-5.25 C579.29,202.76,579.21,202.76,579.21,202.811"/>
<path d="M578.182,208.542c-0.253,0.889-0.388,1.863-0.209,2.779c0.009,0.045,0.081,0.034,0.08-0.011 c-0.036-0.944-0.029-1.82,0.224-2.742C578.293,208.507,578.198,208.48,578.182,208.542"/>
<path d="M579.383,200.334c0.244,1.519,0.59,3.028,1.126,4.472c0.014,0.036,0.071,0.022,0.06-0.017 c-0.457-1.478-0.852-2.95-1.096-4.48C579.464,200.251,579.374,200.275,579.383,200.334"/>
<path d="M580.819,193.044c0.456,1.844,0.896,3.692,1.376,5.531c0.01,0.037,0.066,0.021,0.058-0.016 c-0.44-1.848-0.919-3.687-1.382-5.529C580.863,192.997,580.811,193.011,580.819,193.044"/>
<path d="M583.458,184.311c-0.046,1.43,0.037,2.847,0.262,4.259c0.008,0.05,0.082,0.029,0.075-0.021 c-0.213-1.408-0.303-2.815-0.26-4.238C583.536,184.261,583.46,184.262,583.458,184.311"/>
<path d="M583.422,181.562c0.448-3.115,2.445-5.689,5.374-6.859c0.078-0.031,0.045-0.159-0.035-0.128 c-2.983,1.13-5.082,3.8-5.447,6.972C583.306,181.609,583.413,181.624,583.422,181.562"/>
<path d="M584.065,183.328c1.224-4.526,4.54-7.94,8.95-9.461c0.063-0.022,0.037-0.12-0.027-0.101 c-4.479,1.346-7.87,5.028-9.009,9.539C583.966,183.36,584.051,183.384,584.065,183.328"/>
<path d="M584.597,186.216c2.073-3.183,5.053-5.423,8.688-6.529c0.059-0.018,0.034-0.11-0.026-0.093 c-3.656,1.039-6.729,3.35-8.741,6.576C584.486,186.22,584.565,186.266,584.597,186.216"/>
<path d="M585.604,188.655c2.987-2.543,6.282-4.116,10.171-4.69c0.053-0.008,0.041-0.102-0.014-0.095 c-3.816,0.455-7.418,2.073-10.203,4.739C585.528,188.638,585.573,188.681,585.604,188.655"/>
<path d="M585.437,191.533c2.679-3.732,8.934-4.051,13.055-3.613c0.056,0.006,0.07-0.092,0.014-0.099 c-4.072-0.571-10.615-0.152-13.133,3.674C585.346,191.536,585.409,191.572,585.437,191.533"/>
<path d="M584.75,195.068c0.009,0,0.009-0.014,0-0.014S584.741,195.068,584.75,195.068"/>
<path d="M585.019,195.108c4.562-1.882,8.969-2.328,13.72-0.753c0.054,0.018,0.076-0.066,0.023-0.085 c-4.455-1.613-9.555-1.511-13.762,0.794C584.977,195.077,584.993,195.118,585.019,195.108"/>
<path d="M584.728,199.521c3.706-1.342,7.561-0.739,10.694,1.646c0.043,0.032,0.102-0.042,0.059-0.076 c-3.068-2.46-7.108-3.076-10.776-1.655C584.652,199.458,584.674,199.542,584.728,199.521"/>
<path d="M583.499,204.823c3.434,0.141,6.387,1.217,8.961,3.528c0.056,0.05,0.137-0.03,0.082-0.082 c-2.424-2.304-5.679-3.651-9.043-3.51C583.458,204.76,583.458,204.822,583.499,204.823"/>
<path d="M581.46,208.988c2.354,0.646,4.307,1.862,5.796,3.813c0.041,0.054,0.133,0.003,0.092-0.054 c-1.398-1.948-3.492-3.387-5.865-3.839C581.431,208.899,581.408,208.973,581.46,208.988"/>
<path d="M582.501,207.796c2.742-0.4,5.381-0.145,7.977,0.837c0.074,0.028,0.104-0.088,0.033-0.117 c-2.571-1.025-5.311-1.319-8.031-0.798C582.428,207.729,582.45,207.804,582.501,207.796"/>
<path d="M584.022,202.421c2.851-0.401,5.633-0.342,8.467,0.173c0.066,0.012,0.095-0.088,0.028-0.101 c-2.823-0.568-5.675-0.618-8.518-0.156C583.944,202.346,583.968,202.429,584.022,202.421"/>
<path d="M585.264,197.608c2.809-1.165,5.71-1.579,8.733-1.225c0.068,0.009,0.067-0.098,0-0.106c-3.02-0.392-5.979,0.025-8.768,1.25 C585.185,197.547,585.218,197.627,585.264,197.608"/>
<path d="M580.002,211.52c3.071,0.283,5.579,2.489,6.063,5.571c0.011,0.065,0.124,0.051,0.115-0.015 c-0.394-3.05-3.06-5.601-6.179-5.653C579.94,211.422,579.941,211.514,580.002,211.52"/>
<path d="M577.843,213.951c3.541-1.635,6.354,3.272,7.543,5.917c0.031,0.07,0.154,0.02,0.124-0.052 c-1.014-2.428-4.313-8.149-7.707-5.933C577.76,213.911,577.797,213.972,577.843,213.951"/>
<path d="M576.32,214.651c2.063,1.009,3.664,2.508,4.963,4.388c0.033,0.049,0.111,0.005,0.08-0.047 c-1.166-1.95-2.959-3.448-5.002-4.411C576.314,214.559,576.272,214.628,576.32,214.651"/>
<path d="M575.621,215.818c0.228,3.143,2.388,5.84,5.336,6.882c0.075,0.027,0.107-0.091,0.033-0.119 c-2.956-1.085-4.907-3.662-5.299-6.763C575.686,215.775,575.617,215.772,575.621,215.818"/>
<path d="M605.133,184.004c-0.517-2.64,2.325-5.097,4.016-6.727c1.508-1.453,3.158-2.732,4.898-3.893 c0.059-0.039,0.004-0.133-0.056-0.095c-2.357,1.524-4.514,3.306-6.4,5.39c-1.359,1.502-2.998,3.185-2.555,5.352 C605.049,184.094,605.146,184.067,605.133,184.004"/>
<path d="M604.675,183.232c3.895-3.686,8.173-6.764,12.868-9.344c0.058-0.031,0.007-0.117-0.051-0.087 c-4.746,2.457-9.073,5.622-12.899,9.349C604.539,183.204,604.62,183.284,604.675,183.232"/>
<path d="M604.19,181.297c1.071-3.718,3.865-6.581,7.559-7.737c0.072-0.022,0.042-0.135-0.03-0.113 c-3.739,1.103-6.616,4.058-7.614,7.827C604.09,181.329,604.175,181.352,604.19,181.297"/>
<path d="M602.734,178.806c1.425-2.576,3.689-4.415,6.513-5.258c0.063-0.018,0.037-0.117-0.027-0.099 c-2.844,0.79-5.2,2.69-6.555,5.316C602.642,178.811,602.709,178.852,602.734,178.806"/>
<path d="M598.82,175.06c-0.141-2.12,0.033-4.16,0.457-6.241c0.012-0.058-0.075-0.084-0.09-0.025 c-0.532,2.046-0.672,4.162-0.485,6.266C598.708,175.135,598.825,175.137,598.82,175.06"/>
<path d="M597.229,173.818c-0.437-2.015-0.131-3.792,1.022-5.513c0.026-0.039-0.036-0.089-0.066-0.051 c-1.23,1.543-1.652,3.702-1.021,5.582C597.178,173.877,597.238,173.86,597.229,173.818"/>
<path d="M597.247,173.559c0.453-1.322,0.854-2.661,1.264-3.996c0.02-0.061-0.075-0.087-0.095-0.026 c-0.422,1.331-0.855,2.66-1.234,4.004C597.169,173.583,597.233,173.601,597.247,173.559"/>
<path d="M628.057,178.051c-0.067-1.52-1.573-2.325-2.761-3.019c-1.869-1.091-3.918-1.799-6.052-2.148 c-0.102-0.017-0.146,0.139-0.042,0.159c1.633,0.308,3.199,0.756,4.708,1.465c1.466,0.688,3.872,1.739,4.035,3.543 C627.951,178.121,628.06,178.123,628.057,178.051"/>
<path d="M629.032,178.253c-3.589-1.843-7.521-2.862-11.541-3.103c-0.096-0.005-0.095,0.141,0,0.148 c4.063,0.327,7.789,1.349,11.493,3.038C629.039,178.36,629.088,178.281,629.032,178.253"/>
<path d="M628.457,176.986c-2.321-3.165-4.528-8.387-9.229-8.035c-0.099,0.008-0.102,0.16,0,0.156 c4.875-0.179,6.454,4.91,9.161,7.932C628.421,177.075,628.486,177.026,628.457,176.986"/>
<path d="M424.088,121.337c-1.225,2.661-2.939,4.766-5.379,6.403c-0.083,0.055-0.008,0.188,0.079,0.135 c2.435-1.49,4.409-3.81,5.396-6.498C424.204,121.322,424.113,121.284,424.088,121.337"/>
<path d="M423.928,121.74c-1.956,1.908-4.227,2.787-6.928,2.978c-0.08,0.005-0.081,0.123,0,0.126c2.644,0.082,5.218-1.111,7.03-3.002 C424.095,121.775,423.995,121.675,423.928,121.74"/>
<path d="M424.056,122.342c1.314-2.745-0.828-5.884-3.806-5.877c-0.075,0-0.073,0.108,0,0.114c3.024,0.224,4.646,2.914,3.718,5.726 C423.951,122.356,424.032,122.392,424.056,122.342"/>
<path d="M423.297,122.57c0.9,0.293,0.414-1.408,0.282-1.699c-0.529-1.169-1.588-2.011-2.837-2.277 c-0.088-0.019-0.125,0.114-0.037,0.136c0.786,0.194,1.494,0.584,2.047,1.181c0.261,0.28,0.484,0.596,0.655,0.938 c0.091,0.181,0.172,0.377,0.23,0.572c0.054,0.181,0.33,1.248-0.315,1.059C423.264,122.463,423.24,122.551,423.297,122.57"/>
<path d="M451.877,122.121c-4.011,7.936-6.763,16.393-8.174,25.174c-0.014,0.09,0.122,0.13,0.139,0.038 c1.602-8.812,4.262-17.065,8.132-25.155C452.005,122.113,451.909,122.056,451.877,122.121"/>
<path d="M451.694,121.777c-5.067,7.751-8.264,16.353-9.444,25.543c-0.01,0.083,0.135,0.103,0.146,0.02 c1.326-9.214,4.399-17.632,9.38-25.515C451.81,121.773,451.728,121.726,451.694,121.777"/>
<path d="M444.165,151.831c1.348,7.181,2.786,14.345,4.196,21.514c0.021,0.102,0.177,0.058,0.156-0.044 c-1.414-7.166-2.799-14.339-4.274-21.492C444.232,151.758,444.155,151.78,444.165,151.831"/>
<path d="M450.478,168.598c0.102,2.106,1.827,3.211,3.423,4.333c2.993,2.106,6.01,4.201,9.098,6.166 c0.068,0.043,0.127-0.063,0.063-0.108c-2.002-1.399-4.043-2.744-6.062-4.121c-2.175-1.485-6.195-3.271-6.446-6.27 C450.549,168.55,450.475,168.549,450.478,168.598"/>
<path d="M459.228,176.256c1.926,0.449,3.504,2.361,4.942,3.639c1.402,1.246,2.815,2.423,3.588,4.183 c0.036,0.081,0.18,0.022,0.146-0.062c-0.786-1.99-2.495-3.284-4.057-4.663c-1.318-1.164-2.753-2.962-4.606-3.187 C459.188,176.16,459.178,176.245,459.228,176.256"/>
<path d="M471.774,180.899c4.104,0.991,7.481,2.692,10.68,5.457c0.07,0.061,0.171-0.036,0.104-0.103 c-2.861-2.851-6.761-4.844-10.76-5.438C471.744,180.808,471.719,180.886,471.774,180.899"/>
<path d="M479.293,183.525c1.52,4.213-1.757,8.958-4.085,12.266c-0.04,0.056,0.054,0.129,0.097,0.074 c2.475-3.139,5.713-8.236,4.097-12.37C479.375,183.43,479.268,183.457,479.293,183.525"/>
<path d="M479.83,187.443c-0.956,0.402-0.589,2.106-0.64,2.926c-0.176,2.894-0.394,5.791-0.486,8.689 c-0.002,0.073,0.106,0.072,0.113,0c0.155-1.826,0.241-3.657,0.347-5.488c0.063-1.09-0.24-5.393,0.681-6.092 C479.86,187.466,479.853,187.434,479.83,187.443"/>
<path d="M479.197,186.841c1.893,4.062,2.358,8.316,1.525,12.711c-0.015,0.077,0.102,0.11,0.117,0.033 c0.932-4.388,0.355-8.747-1.56-12.792C479.254,186.737,479.172,186.786,479.197,186.841"/>
<path d="M439.81,113.644c-1.915-0.529-3.486,1.045-4.748,2.289c-1.885,1.857-3.409,3.995-4.635,6.336 c-0.048,0.091,0.09,0.172,0.138,0.081c0.93-1.763,2.017-3.416,3.324-4.924c1.425-1.643,3.461-4.092,5.901-3.709 C439.837,113.725,439.858,113.657,439.81,113.644"/>
<path d="M441.885,113.359c-3.842,1.761-7.032,5.371-9.171,8.931c-0.048,0.08,0.075,0.151,0.124,0.073 c2.391-3.863,5.449-6.346,9.063-8.976C441.918,113.375,441.903,113.351,441.885,113.359"/>
<path d="M451.683,96.346c-4.899,1.552-9.848,2.625-14.941,3.31c-0.102,0.013-0.105,0.175,0,0.164 c5.105-0.573,10.108-1.705,14.983-3.324C451.818,96.465,451.779,96.316,451.683,96.346"/>
<path d="M449.545,97.655c-5.624,2.158-11.313,4.041-17.094,5.729c-0.095,0.028-0.056,0.174,0.041,0.148 c5.802-1.58,11.503-3.519,17.091-5.739C449.668,97.759,449.632,97.621,449.545,97.655"/>
<path d="M489.433,89.748c2.448-1.062,5.725-0.692,8.341-1.068c2.293-0.328,4.529-0.866,6.731-1.582 c0.096-0.031,0.056-0.18-0.041-0.151c-3.143,0.915-6.293,1.602-9.566,1.843c-1.956,0.145-3.726-0.004-5.492,0.91 C489.373,89.717,489.401,89.762,489.433,89.748"/>
<path d="M502.542,89.756c6.289-1.12,12.586-1.92,18.96-2.346c0.071-0.005,0.072-0.116,0-0.112 c-6.377,0.342-12.722,1.112-18.984,2.371C502.461,89.682,502.485,89.767,502.542,89.756"/>
<path d="M509.794,90.479c7.539-1.655,14.757-1.474,22.181,0.669c0.081,0.023,0.115-0.101,0.035-0.126 c-7.287-2.233-14.837-2.472-22.231-0.599C509.742,90.432,509.758,90.487,509.794,90.479"/>
<path d="M520.494,91.4c6.244,0.795,12.505,1.496,18.763,2.17c0.091,0.01,0.089-0.131,0-0.142c-6.247-0.752-12.502-1.48-18.763-2.111 C520.44,91.311,520.442,91.394,520.494,91.4"/>
<path d="M534.555,95.395c4.496,1.604,8.913,3.42,13.385,5.09c0.089,0.034,0.125-0.107,0.038-0.141 c-4.422-1.756-8.865-3.59-13.396-5.049C534.518,95.274,534.492,95.373,534.555,95.395"/>
<path d="M577.297,130.183c3.653,1.366,6.435,3.816,8.467,7.123c0.037,0.059,0.127,0.006,0.094-0.056 c-1.809-3.381-4.938-5.895-8.536-7.154C577.266,130.076,577.243,130.163,577.297,130.183"/>
<path d="M577.754,129.712c4.754,0.679,8.758,3.088,11.646,6.913c0.046,0.061,0.15,0.004,0.104-0.061 c-2.751-3.898-7.012-6.376-11.74-6.927C577.722,129.631,577.712,129.706,577.754,129.712"/>
<path d="M577.947,132.72c2.738,0.235,3.666,6.33,4.772,8.385c1.017,1.886,2.359,3.457,4.237,4.511 c0.074,0.041,0.138-0.069,0.066-0.115c-3.279-2.117-4.834-5.406-5.951-9.031c-0.557-1.806-0.937-3.715-3.125-3.787 C577.923,132.683,577.924,132.718,577.947,132.72"/>
<path d="M592.126,139.588c0.874,5.078,1.674,10.165,2.502,15.25c0.016,0.095,0.155,0.053,0.143-0.039 c-0.686-5.1-1.575-10.184-2.563-15.233C592.196,139.512,592.116,139.535,592.126,139.588"/>
<path d="M590.905,148.809c-1.087,6.323-1.948,12.773-0.394,19.089c0.023,0.092,0.161,0.053,0.142-0.039 c-1.382-6.424-0.565-12.598,0.338-19.026C590.999,148.777,590.915,148.752,590.905,148.809"/>
<path d="M586.503,159.983c-0.677,2.139-0.953,4.332-0.75,6.572c0.007,0.077,0.128,0.079,0.123,0 c-0.136-2.235,0.076-4.397,0.724-6.546C586.618,159.947,586.522,159.921,586.503,159.983"/>
<path d="M605.039,184.098c3.432-2.837,7.339-4.508,11.739-5.12c0.075-0.01,0.058-0.14-0.018-0.132 c-4.413,0.477-8.461,2.262-11.833,5.141C604.85,184.053,604.962,184.162,605.039,184.098"/>
<path d="M605.32,185.002c4.137-1.357,8.146-1.597,12.378-0.513c0.072,0.019,0.103-0.091,0.031-0.111 c-4.107-1.16-8.45-1.039-12.429,0.554C605.26,184.95,605.275,185.018,605.32,185.002"/>
<path d="M601.075,177.215c3.963-3.8,9.671-5.648,12.709-10.396c0.043-0.067-0.063-0.128-0.106-0.062 c-3.11,4.741-8.813,6.432-12.652,10.408C600.993,177.198,601.042,177.248,601.075,177.215"/>
<path d="M600.368,172.112c1.764-3.13,4.051-5.397,7.646-6.259c0.067-0.016,0.038-0.121-0.03-0.106 c-3.265,0.714-6.554,3.081-7.636,6.356C600.343,172.115,600.361,172.123,600.368,172.112"/>
<path d="M597.754,167.826c2.74-0.681,5.214-2.342,7.043-4.47c0.039-0.045-0.024-0.111-0.065-0.066 c-1.967,2.141-4.266,3.526-6.989,4.493C597.715,167.792,597.726,167.833,597.754,167.826"/>
<path d="M600.56,174.327c0.958-2.699,2.864-4.791,5.437-6.038c0.067-0.032,0.01-0.127-0.056-0.098 c-2.616,1.178-4.587,3.388-5.502,6.103C600.412,174.371,600.532,174.403,600.56,174.327"/>
<path d="M606.806,200.097c-0.601,6.005-1.644,12.319-0.299,18.283c0.023,0.103,0.178,0.059,0.157-0.043 c-1.212-6.038-0.19-12.17,0.261-18.24C606.931,200.02,606.813,200.022,606.806,200.097"/>
<path d="M603.811,209.331c-1.11,3.375-1.356,7.016-0.688,10.508c0.011,0.056,0.108,0.044,0.101-0.013 c-0.474-3.598-0.281-6.963,0.628-10.484C603.857,209.315,603.818,209.306,603.811,209.331"/>
<path d="M599.766,216.568c-0.919,2.782-1.747,5.603-2.348,8.472c-0.013,0.062,0.081,0.089,0.097,0.027 c0.701-2.852,1.43-5.681,2.324-8.479C599.854,216.542,599.781,216.522,599.766,216.568"/>
<path d="M607.065,198.631c1.785-1.601,3.282-3.465,4.431-5.571c0.027-0.049-0.048-0.094-0.077-0.044 c-1.189,2.078-2.651,3.931-4.42,5.548C606.954,198.605,607.021,198.672,607.065,198.631"/>
<path d="M607.525,193.317c0.263-0.662,0.512-1.329,0.751-2c0.016-0.042-0.052-0.06-0.068-0.018 c-0.263,0.662-0.517,1.327-0.756,1.998C607.436,193.343,607.508,193.361,607.525,193.317"/>
<path d="M582.547,224.218c-2.795-1.416-6.302-0.745-8.604,1.286c-0.075,0.066,0.032,0.168,0.107,0.108 c2.538-2.038,5.441-2.332,8.465-1.32C582.56,224.307,582.589,224.239,582.547,224.218"/>
<path d="M584.753,224.562c-1.53-0.364-3.162-0.035-4.528,0.708c-0.072,0.039-0.008,0.146,0.064,0.109 c1.441-0.723,2.868-0.886,4.455-0.752C584.781,224.629,584.789,224.57,584.753,224.562"/>
<path d="M577.015,221.258c-1.678-0.423-3.4-0.329-5.027,0.253c-0.075,0.026-0.044,0.144,0.032,0.119 c1.653-0.534,3.268-0.619,4.971-0.285C577.047,221.356,577.071,221.272,577.015,221.258"/>
<path d="M355.759,265.809c-1.731,3.704-2.772,7.71-3.277,11.759c-0.01,0.077,0.126,0.097,0.137,0.019 c0.598-4.09,1.722-7.897,3.235-11.737C355.875,265.794,355.784,265.755,355.759,265.809"/>
<path d="M344.964,286.051c0.043,4.138-2.07,9.67,1.866,12.697c0.052,0.041,0.123-0.05,0.071-0.093 c-3.825-3.179-1.663-8.426-1.862-12.604C345.038,286.003,344.964,286.002,344.964,286.051"/>
<path d="M338.634,301.814c0.132,4.527,0.587,9.04,1.39,13.5c0.016,0.093,0.154,0.053,0.14-0.038 c-0.694-4.476-1.18-8.942-1.436-13.462C338.724,301.753,338.633,301.752,338.634,301.814"/>
<path d="M333.404,330.118c-1.319,4.173,0.863,8.49,5.074,9.773c0.076,0.024,0.106-0.092,0.032-0.118 c-4.122-1.434-6.23-5.405-5.023-9.634C333.503,330.087,333.421,330.064,333.404,330.118"/>
<path d="M334.42,343.316c1.049,1.434,2.519,2.171,3.961,3.151c3.141,2.14,3.427,5.077,3.52,8.582c0.002,0.079,0.121,0.079,0.123,0 c0.062-2.398-0.01-5.122-1.604-7.074c-1.629-1.996-4.306-2.682-5.94-4.707C334.454,343.236,334.395,343.281,334.42,343.316"/>
<path d="M323.153,278.656c2.509,2.873,2.885,6.917,0.846,10.162c-0.061,0.096,0.091,0.185,0.152,0.088 c2.054-3.261,1.723-7.499-0.907-10.341C323.188,278.503,323.098,278.595,323.153,278.656"/>
<path d="M327.249,285.063c1.181,5.896-1.806,11.104-7.488,13.037c-0.075,0.025-0.044,0.144,0.033,0.12 c5.715-1.683,8.962-7.401,7.548-13.184C327.327,284.976,327.236,285.001,327.249,285.063"/>
<path d="M300.183,302.719c-3.883,2.863-7.92,5.095-12.451,6.774c-0.084,0.032-0.05,0.166,0.037,0.137 c4.514-1.507,8.784-3.825,12.456-6.855C300.255,302.748,300.214,302.695,300.183,302.719"/>
<path d="M287.292,315.343c-3.674,5.313-5.762,11.542-6.18,17.979c-0.006,0.08,0.115,0.078,0.121,0 c0.619-6.557,2.647-12.352,6.115-17.947C287.37,315.34,287.314,315.309,287.292,315.343"/>
<path d="M319.698,311.364c-5.808,2.331-9.411,7.756-12.569,12.884c-0.05,0.082,0.077,0.155,0.129,0.075 c3.309-5.144,6.713-10.275,12.48-12.864C319.79,311.435,319.752,311.343,319.698,311.364"/>
<path d="M311.994,314.274c-2.243-0.246-3.845,1.691-5.14,3.268c-1.549,1.884-2.763,3.99-3.658,6.256 c-0.034,0.086,0.102,0.121,0.137,0.039c0.811-1.938,1.8-3.76,3.066-5.441c1.327-1.762,3.159-4.189,5.595-4.013 C312.065,314.388,312.063,314.281,311.994,314.274"/>
<path d="M302.898,319.379c-4.239,2.918-6.299,9.397-7.565,14.138c-0.021,0.082,0.104,0.116,0.127,0.035 c1.365-4.734,3.332-11.045,7.493-14.079C303.009,319.432,302.958,319.338,302.898,319.379"/>
<path d="M290.987,338.813c-0.27,2.907-0.37,5.827-0.286,8.748c0.002,0.063,0.099,0.063,0.098,0c-0.034-2.924,0.05-5.832,0.265-8.748 C291.068,338.763,290.991,338.764,290.987,338.813"/>
<path d="M326.942,308.5c-1.902,1.712-3.562,3.659-4.97,5.796c-0.026,0.04,0.038,0.076,0.064,0.037 c1.438-2.119,3.088-4.034,4.952-5.786C327.02,308.518,326.974,308.472,326.942,308.5"/>
</svg>
